<?xml version="1.0" standalone="no"?>
 <!DOCTYPE svg PUBLIC "-//W3C//DTD SVG 1.1//EN" 
 "http://www.w3.org/Graphics/SVG/1.1/DTD/svg11.dtd"> 
<svg
  xmlns:svg="http://www.w3.org/2000/svg"
  xmlns="http://www.w3.org/2000/svg"
  xmlns:xlink="http://www.w3.org/1999/xlink"
  version="1.1"
  width="29.700220cm" height="21.000720cm" viewBox="0 0 116930 82680">
<title>SVG Picture created as PI4Adapter-PTH-drl_map.svg date 2022/05/07 15:13:23 </title>
  <desc>Picture generated by PCBNEW </desc>
<g style="fill:#000000; fill-opacity:1.000000;stroke:#000000; stroke-opacity:1.000000;
stroke-linecap:round; stroke-linejoin:round;"
 transform="translate(0 0) scale(1 1)">
</g>
<g style="fill:#000000; fill-opacity:0.0; 
stroke:#000000; stroke-width:0.000000; stroke-opacity:1; 
stroke-linecap:round; stroke-linejoin:round;">
</g>
<g style="fill:#000000; fill-opacity:0.0; 
stroke:#000000; stroke-width:80.974701; stroke-opacity:1; 
stroke-linecap:round; stroke-linejoin:round;">
<path d="M69275 3628
L74377 3628
" />
<path d="M45983 2009
L69275 2009
" />
<path d="M65834.368801 47597.961112 A3484.041777 3484.041777 0.0 0 0 69275.793371 44075.562171" />
<path d="M74377 31443
L69275 31443
" />
<path d="M74377 3628
L74377 31443
" />
<path d="M42554.141961 44185.357388 A3446.948886 3446.948886 0.0 0 0 46085.902453 47597.961965" />
<path d="M42554 44185
L42554 5497
" />
<path d="M65834 47597
L46085 47597
" />
<path d="M69275 2009
L69275 3628
" />
<path d="M45983.900235 2009.204874 A3393.096661 3393.096661 0.0 0 0 42554.142112 5497.495535" />
<path d="M69275 31443
L69275 44075
" />
</g>
<g style="fill:#000000; fill-opacity:0.0; 
stroke:#000000; stroke-width:161.949402; stroke-opacity:1; 
stroke-linecap:round; stroke-linejoin:round;">
</g>
<g style="fill:#000000; fill-opacity:0.0; 
stroke:#000000; stroke-width:32.389880; stroke-opacity:1; 
stroke-linecap:round; stroke-linejoin:round;">
<path d="M44562 34803
L44886 35127
" />
<path d="M44886 34803
L44562 35127
" />
<path d="M44562 38917
L44886 39241
" />
<path d="M44886 38917
L44562 39241
" />
</g>
<g style="fill:#000000; fill-opacity:0.0; 
stroke:#000000; stroke-width:48.584821; stroke-opacity:1; 
stroke-linecap:round; stroke-linejoin:round;">
<circle cx="59055.004892" cy="42635.103212" r="242.924103" /> 
</g>
<g style="fill:#000000; fill-opacity:0.0; 
stroke:#000000; stroke-width:161.949402; stroke-opacity:1; 
stroke-linecap:round; stroke-linejoin:round;">
<path d="M58893 42270
L58893 42999
" />
<path d="M59216 42270
L59216 42999
" />
<path d="M58893.055491 42999.489367 A161.949402 161.949402 0.0 0 0 59216.954294 42999.489367" />
<path d="M59216.954294 42270.717058 A161.949402 161.949402 0.0 0 0 58893.055491 42270.717058" />
</g>
<g style="fill:#000000; fill-opacity:0.0; 
stroke:#000000; stroke-width:48.584821; stroke-opacity:1; 
stroke-linecap:round; stroke-linejoin:round;">
<circle cx="59055.004892" cy="45710.709407" r="242.924103" /> 
</g>
<g style="fill:#000000; fill-opacity:0.0; 
stroke:#000000; stroke-width:161.949402; stroke-opacity:1; 
stroke-linecap:round; stroke-linejoin:round;">
<path d="M58893 45346
L58893 46075
" />
<path d="M59216 45346
L59216 46075
" />
<path d="M58893.055491 46075.095561 A161.949402 161.949402 0.0 0 0 59216.954294 46075.095561" />
<path d="M59216.954294 45346.323253 A161.949402 161.949402 0.0 0 0 58893.055491 45346.323253" />
</g>
<g style="fill:#000000; fill-opacity:0.0; 
stroke:#000000; stroke-width:48.584821; stroke-opacity:1; 
stroke-linecap:round; stroke-linejoin:round;">
<circle cx="66051.219057" cy="42635.103212" r="242.924103" /> 
</g>
<g style="fill:#000000; fill-opacity:0.0; 
stroke:#000000; stroke-width:161.949402; stroke-opacity:1; 
stroke-linecap:round; stroke-linejoin:round;">
<path d="M65889 42270
L65889 42999
" />
<path d="M66213 42270
L66213 42999
" />
<path d="M65889.269655 42999.489367 A161.949402 161.949402 0.0 0 0 66213.168459 42999.489367" />
<path d="M66213.168459 42270.717058 A161.949402 161.949402 0.0 0 0 65889.269655 42270.717058" />
</g>
<g style="fill:#000000; fill-opacity:0.0; 
stroke:#000000; stroke-width:48.584821; stroke-opacity:1; 
stroke-linecap:round; stroke-linejoin:round;">
<circle cx="66051.219057" cy="45670.483605" r="242.924103" /> 
</g>
<g style="fill:#000000; fill-opacity:0.0; 
stroke:#000000; stroke-width:161.949402; stroke-opacity:1; 
stroke-linecap:round; stroke-linejoin:round;">
<path d="M65889 45306
L65889 46034
" />
<path d="M66213 45306
L66213 46034
" />
<path d="M65889.269655 46034.869759 A161.949402 161.949402 0.0 0 0 66213.168459 46034.869759" />
<path d="M66213.168459 45306.097450 A161.949402 161.949402 0.0 0 0 65889.269655 45306.097450" />
</g>
<g style="fill:#000000; fill-opacity:0.0; 
stroke:#000000; stroke-width:80.974701; stroke-opacity:1; 
stroke-linecap:round; stroke-linejoin:round;">
<path d="M45995 4924
L45995 5734
" />
<path d="M45590 5329
L46400 5329
" />
<path d="M45995 6981
L45995 7790
" />
<path d="M45590 7385
L46400 7385
" />
<path d="M45995 9037
L45995 9847
" />
<path d="M45590 9442
L46400 9442
" />
<path d="M45995 11094
L45995 11904
" />
<path d="M45590 11499
L46400 11499
" />
<path d="M45995 13151
L45995 13961
" />
<path d="M45590 13556
L46400 13556
" />
<path d="M45995 15208
L45995 16017
" />
<path d="M45590 15612
L46400 15612
" />
<path d="M45995 17264
L45995 18074
" />
<path d="M45590 17669
L46400 17669
" />
<path d="M45995 19321
L45995 20131
" />
<path d="M45590 19726
L46400 19726
" />
<path d="M45995 21378
L45995 22188
" />
<path d="M45590 21783
L46400 21783
" />
<path d="M45995 23435
L45995 24244
" />
<path d="M45590 23839
L46400 23839
" />
<path d="M45995 25491
L45995 26301
" />
<path d="M45590 25896
L46400 25896
" />
<path d="M45995 27548
L45995 28358
" />
<path d="M45590 27953
L46400 27953
" />
<path d="M45995 29605
L45995 30415
" />
<path d="M45590 30010
L46400 30010
" />
<path d="M45995 31662
L45995 32471
" />
<path d="M45590 32067
L46400 32067
" />
<path d="M45995 33718
L45995 34528
" />
<path d="M45590 34123
L46400 34123
" />
<path d="M45995 35775
L45995 36585
" />
<path d="M45590 36180
L46400 36180
" />
<path d="M45995 37832
L45995 38642
" />
<path d="M45590 38237
L46400 38237
" />
<path d="M45995 39889
L45995 40698
" />
<path d="M45590 40294
L46400 40294
" />
<path d="M45995 41945
L45995 42755
" />
<path d="M45590 42350
L46400 42350
" />
<path d="M45995 44002
L45995 44812
" />
<path d="M45590 44407
L46400 44407
" />
<path d="M48052 4924
L48052 5734
" />
<path d="M47647 5329
L48457 5329
" />
<path d="M48052 6981
L48052 7790
" />
<path d="M47647 7385
L48457 7385
" />
<path d="M48052 9037
L48052 9847
" />
<path d="M47647 9442
L48457 9442
" />
<path d="M48052 11094
L48052 11904
" />
<path d="M47647 11499
L48457 11499
" />
<path d="M48052 13151
L48052 13961
" />
<path d="M47647 13556
L48457 13556
" />
<path d="M48052 15208
L48052 16017
" />
<path d="M47647 15612
L48457 15612
" />
<path d="M48052 17264
L48052 18074
" />
<path d="M47647 17669
L48457 17669
" />
<path d="M48052 19321
L48052 20131
" />
<path d="M47647 19726
L48457 19726
" />
<path d="M48052 21378
L48052 22188
" />
<path d="M47647 21783
L48457 21783
" />
<path d="M48052 23435
L48052 24244
" />
<path d="M47647 23839
L48457 23839
" />
<path d="M48052 25491
L48052 26301
" />
<path d="M47647 25896
L48457 25896
" />
<path d="M48052 27548
L48052 28358
" />
<path d="M47647 27953
L48457 27953
" />
<path d="M48052 29605
L48052 30415
" />
<path d="M47647 30010
L48457 30010
" />
<path d="M48052 31662
L48052 32471
" />
<path d="M47647 32067
L48457 32067
" />
<path d="M48052 33718
L48052 34528
" />
<path d="M47647 34123
L48457 34123
" />
<path d="M48052 35775
L48052 36585
" />
<path d="M47647 36180
L48457 36180
" />
<path d="M48052 37832
L48052 38642
" />
<path d="M47647 38237
L48457 38237
" />
<path d="M48052 39889
L48052 40698
" />
<path d="M47647 40294
L48457 40294
" />
<path d="M48052 41945
L48052 42755
" />
<path d="M47647 42350
L48457 42350
" />
<path d="M48052 44002
L48052 44812
" />
<path d="M47647 44407
L48457 44407
" />
<path d="M54720 4863
L54720 5673
" />
<path d="M54315 5268
L55125 5268
" />
<path d="M54720 6920
L54720 7730
" />
<path d="M54315 7325
L55125 7325
" />
<path d="M54720 8977
L54720 9786
" />
<path d="M54315 9381
L55125 9381
" />
<path d="M54720 11033
L54720 11843
" />
<path d="M54315 11438
L55125 11438
" />
<path d="M54720 13090
L54720 13900
" />
<path d="M54315 13495
L55125 13495
" />
<path d="M54720 15147
L54720 15957
" />
<path d="M54315 15552
L55125 15552
" />
<path d="M54720 17204
L54720 18013
" />
<path d="M54315 17608
L55125 17608
" />
<path d="M54720 19260
L54720 20070
" />
<path d="M54315 19665
L55125 19665
" />
<path d="M54720 21317
L54720 22127
" />
<path d="M54315 21722
L55125 21722
" />
<path d="M54720 23374
L54720 24184
" />
<path d="M54315 23779
L55125 23779
" />
<path d="M54720 25431
L54720 26240
" />
<path d="M54315 25836
L55125 25836
" />
<path d="M54720 27487
L54720 28297
" />
<path d="M54315 27892
L55125 27892
" />
<path d="M54720 29544
L54720 30354
" />
<path d="M54315 29949
L55125 29949
" />
<path d="M54720 31601
L54720 32411
" />
<path d="M54315 32006
L55125 32006
" />
<path d="M54720 33658
L54720 34467
" />
<path d="M54315 34063
L55125 34063
" />
<path d="M54720 35714
L54720 36524
" />
<path d="M54315 36119
L55125 36119
" />
<path d="M54720 37771
L54720 38581
" />
<path d="M54315 38176
L55125 38176
" />
<path d="M54720 39828
L54720 40638
" />
<path d="M54315 40233
L55125 40233
" />
<path d="M54720 41885
L54720 42694
" />
<path d="M54315 42290
L55125 42290
" />
<path d="M54720 43941
L54720 44751
" />
<path d="M54315 44346
L55125 44346
" />
<path d="M56777 4863
L56777 5673
" />
<path d="M56372 5268
L57182 5268
" />
<path d="M56777 6920
L56777 7730
" />
<path d="M56372 7325
L57182 7325
" />
<path d="M56777 8977
L56777 9786
" />
<path d="M56372 9381
L57182 9381
" />
<path d="M56777 11033
L56777 11843
" />
<path d="M56372 11438
L57182 11438
" />
<path d="M56777 13090
L56777 13900
" />
<path d="M56372 13495
L57182 13495
" />
<path d="M56777 15147
L56777 15957
" />
<path d="M56372 15552
L57182 15552
" />
<path d="M56777 17204
L56777 18013
" />
<path d="M56372 17608
L57182 17608
" />
<path d="M56777 19260
L56777 20070
" />
<path d="M56372 19665
L57182 19665
" />
<path d="M56777 21317
L56777 22127
" />
<path d="M56372 21722
L57182 21722
" />
<path d="M56777 23374
L56777 24184
" />
<path d="M56372 23779
L57182 23779
" />
<path d="M56777 25431
L56777 26240
" />
<path d="M56372 25836
L57182 25836
" />
<path d="M56777 27487
L56777 28297
" />
<path d="M56372 27892
L57182 27892
" />
<path d="M56777 29544
L56777 30354
" />
<path d="M56372 29949
L57182 29949
" />
<path d="M56777 31601
L56777 32411
" />
<path d="M56372 32006
L57182 32006
" />
<path d="M56777 33658
L56777 34467
" />
<path d="M56372 34063
L57182 34063
" />
<path d="M56777 35714
L56777 36524
" />
<path d="M56372 36119
L57182 36119
" />
<path d="M56777 37771
L56777 38581
" />
<path d="M56372 38176
L57182 38176
" />
<path d="M56777 39828
L56777 40638
" />
<path d="M56372 40233
L57182 40233
" />
<path d="M56777 41885
L56777 42694
" />
<path d="M56372 42290
L57182 42290
" />
<path d="M56777 43941
L56777 44751
" />
<path d="M56372 44346
L57182 44346
" />
<path d="M62797 9256
L62797 10066
" />
<path d="M62392 9661
L63202 9661
" />
<path d="M64822 9256
L64822 10066
" />
<path d="M64417 9661
L65227 9661
" />
<path d="M70943 4823
L70943 5632
" />
<path d="M70538 5227
L71348 5227
" />
<path d="M70943 6879
L70943 7689
" />
<path d="M70538 7284
L71348 7284
" />
<path d="M70943 8936
L70943 9746
" />
<path d="M70538 9341
L71348 9341
" />
<path d="M70943 10993
L70943 11803
" />
<path d="M70538 11398
L71348 11398
" />
<path d="M70943 13050
L70943 13859
" />
<path d="M70538 13454
L71348 13454
" />
<path d="M70943 15106
L70943 15916
" />
<path d="M70538 15511
L71348 15511
" />
<path d="M70943 17163
L70943 17973
" />
<path d="M70538 17568
L71348 17568
" />
<path d="M70943 19220
L70943 20030
" />
<path d="M70538 19625
L71348 19625
" />
<path d="M70943 21277
L70943 22086
" />
<path d="M70538 21682
L71348 21682
" />
<path d="M70943 23333
L70943 24143
" />
<path d="M70538 23738
L71348 23738
" />
<path d="M70943 25390
L70943 26200
" />
<path d="M70538 25795
L71348 25795
" />
<path d="M70943 27447
L70943 28257
" />
<path d="M70538 27852
L71348 27852
" />
<path d="M70943 29504
L70943 30313
" />
<path d="M70538 29909
L71348 29909
" />
<path d="M73000 4823
L73000 5632
" />
<path d="M72595 5227
L73405 5227
" />
<path d="M73000 6879
L73000 7689
" />
<path d="M72595 7284
L73405 7284
" />
<path d="M73000 8936
L73000 9746
" />
<path d="M72595 9341
L73405 9341
" />
<path d="M73000 10993
L73000 11803
" />
<path d="M72595 11398
L73405 11398
" />
<path d="M73000 13050
L73000 13859
" />
<path d="M72595 13454
L73405 13454
" />
<path d="M73000 15106
L73000 15916
" />
<path d="M72595 15511
L73405 15511
" />
<path d="M73000 17163
L73000 17973
" />
<path d="M72595 17568
L73405 17568
" />
<path d="M73000 19220
L73000 20030
" />
<path d="M72595 19625
L73405 19625
" />
<path d="M73000 21277
L73000 22086
" />
<path d="M72595 21682
L73405 21682
" />
<path d="M73000 23333
L73000 24143
" />
<path d="M72595 23738
L73405 23738
" />
<path d="M73000 25390
L73000 26200
" />
<path d="M72595 25795
L73405 25795
" />
<path d="M73000 27447
L73000 28257
" />
<path d="M72595 27852
L73405 27852
" />
<path d="M73000 29504
L73000 30313
" />
<path d="M72595 29909
L73405 29909
" />
</g>
<g style="fill:#000000; fill-opacity:0.0; 
stroke:#000000; stroke-width:161.949402; stroke-opacity:1; 
stroke-linecap:round; stroke-linejoin:round;">
</g>
<g style="fill:#000000; fill-opacity:0.0; 
stroke:#000000; stroke-width:78.739799; stroke-opacity:1; 
stroke-linecap:round; stroke-linejoin:round;">
<text x="43299.714407" y="48899.338470"
textLength="5984.810188" font-size="1049.867769" lengthAdjust="spacingAndGlyphs"
text-anchor="start" opacity="0">Drill Map:</text>
<g class="stroked-text"><desc>Drill Map:</desc>
<path d="M43526 48861
L43526 48074
L43714 48074
L43826 48111
L43901 48186
L43939 48261
L43976 48411
L43976 48524
L43939 48674
L43901 48749
L43826 48824
L43714 48861
L43526 48861
" />
<path d="M44313 48861
L44313 48336
" />
<path d="M44313 48486
L44351 48411
L44388 48374
L44463 48336
L44538 48336
" />
<path d="M44801 48861
L44801 48336
" />
<path d="M44801 48074
L44763 48111
L44801 48149
L44838 48111
L44801 48074
L44801 48149
" />
<path d="M45288 48861
L45213 48824
L45176 48749
L45176 48074
" />
<path d="M45701 48861
L45626 48824
L45588 48749
L45588 48074
" />
<path d="M46601 48861
L46601 48074
L46863 48636
L47126 48074
L47126 48861
" />
<path d="M47838 48861
L47838 48449
L47801 48374
L47726 48336
L47576 48336
L47501 48374
" />
<path d="M47838 48824
L47763 48861
L47576 48861
L47501 48824
L47463 48749
L47463 48674
L47501 48599
L47576 48561
L47763 48561
L47838 48524
" />
<path d="M48213 48336
L48213 49124
" />
<path d="M48213 48374
L48288 48336
L48438 48336
L48513 48374
L48550 48411
L48588 48486
L48588 48711
L48550 48786
L48513 48824
L48438 48861
L48288 48861
L48213 48824
" />
<path d="M48925 48786
L48963 48824
L48925 48861
L48888 48824
L48925 48786
L48925 48861
" />
<path d="M48925 48374
L48963 48411
L48925 48449
L48888 48411
L48925 48374
L48925 48449
" />
</g></g>
<g style="fill:#000000; fill-opacity:0.0; 
stroke:#000000; stroke-width:32.389880; stroke-opacity:1; 
stroke-linecap:round; stroke-linejoin:round;">
<path d="M42188 49997
L42512 50321
" />
<path d="M42512 49997
L42188 50321
" />
</g>
<g style="fill:#000000; fill-opacity:0.0; 
stroke:#000000; stroke-width:161.949402; stroke-opacity:1; 
stroke-linecap:round; stroke-linejoin:round;">
</g>
<g style="fill:#000000; fill-opacity:0.0; 
stroke:#000000; stroke-width:78.739799; stroke-opacity:1; 
stroke-linecap:round; stroke-linejoin:round;">
<text x="43299.714407" y="50552.880732"
textLength="18451.435465" font-size="1049.867769" lengthAdjust="spacingAndGlyphs"
text-anchor="start" opacity="0">0.400mm / 0.0157" (2 holes)</text>
<g class="stroked-text"><desc>0.400mm / 0.0157" (2 holes)</desc>
<path d="M43676 49727
L43751 49727
L43826 49765
L43864 49802
L43901 49877
L43939 50027
L43939 50215
L43901 50365
L43864 50440
L43826 50477
L43751 50515
L43676 50515
L43601 50477
L43564 50440
L43526 50365
L43489 50215
L43489 50027
L43526 49877
L43564 49802
L43601 49765
L43676 49727
" />
<path d="M44276 50440
L44313 50477
L44276 50515
L44238 50477
L44276 50440
L44276 50515
" />
<path d="M44988 49990
L44988 50515
" />
<path d="M44801 49690
L44613 50252
L45101 50252
" />
<path d="M45551 49727
L45626 49727
L45701 49765
L45738 49802
L45776 49877
L45813 50027
L45813 50215
L45776 50365
L45738 50440
L45701 50477
L45626 50515
L45551 50515
L45476 50477
L45438 50440
L45401 50365
L45363 50215
L45363 50027
L45401 49877
L45438 49802
L45476 49765
L45551 49727
" />
<path d="M46301 49727
L46376 49727
L46451 49765
L46488 49802
L46526 49877
L46563 50027
L46563 50215
L46526 50365
L46488 50440
L46451 50477
L46376 50515
L46301 50515
L46226 50477
L46188 50440
L46151 50365
L46113 50215
L46113 50027
L46151 49877
L46188 49802
L46226 49765
L46301 49727
" />
<path d="M46901 50515
L46901 49990
" />
<path d="M46901 50065
L46938 50027
L47013 49990
L47126 49990
L47201 50027
L47238 50102
L47238 50515
" />
<path d="M47238 50102
L47276 50027
L47351 49990
L47463 49990
L47538 50027
L47576 50102
L47576 50515
" />
<path d="M47951 50515
L47951 49990
" />
<path d="M47951 50065
L47988 50027
L48063 49990
L48175 49990
L48250 50027
L48288 50102
L48288 50515
" />
<path d="M48288 50102
L48325 50027
L48400 49990
L48513 49990
L48588 50027
L48625 50102
L48625 50515
" />
<path d="M50163 49690
L49488 50702
" />
<path d="M51175 49727
L51250 49727
L51325 49765
L51363 49802
L51400 49877
L51438 50027
L51438 50215
L51400 50365
L51363 50440
L51325 50477
L51250 50515
L51175 50515
L51100 50477
L51063 50440
L51025 50365
L50988 50215
L50988 50027
L51025 49877
L51063 49802
L51100 49765
L51175 49727
" />
<path d="M51775 50440
L51813 50477
L51775 50515
L51738 50477
L51775 50440
L51775 50515
" />
<path d="M52300 49727
L52375 49727
L52450 49765
L52487 49802
L52525 49877
L52562 50027
L52562 50215
L52525 50365
L52487 50440
L52450 50477
L52375 50515
L52300 50515
L52225 50477
L52187 50440
L52150 50365
L52112 50215
L52112 50027
L52150 49877
L52187 49802
L52225 49765
L52300 49727
" />
<path d="M53312 50515
L52862 50515
" />
<path d="M53087 50515
L53087 49727
L53012 49840
L52937 49915
L52862 49952
" />
<path d="M54025 49727
L53650 49727
L53612 50102
L53650 50065
L53725 50027
L53912 50027
L53987 50065
L54025 50102
L54062 50177
L54062 50365
L54025 50440
L53987 50477
L53912 50515
L53725 50515
L53650 50477
L53612 50440
" />
<path d="M54325 49727
L54850 49727
L54512 50515
" />
<path d="M55112 49727
L55112 49877
" />
<path d="M55412 49727
L55412 49877
" />
<path d="M56574 50815
L56537 50777
L56462 50665
L56424 50590
L56387 50477
L56349 50290
L56349 50140
L56387 49952
L56424 49840
L56462 49765
L56537 49652
L56574 49615
" />
<path d="M56837 49802
L56874 49765
L56949 49727
L57137 49727
L57212 49765
L57249 49802
L57287 49877
L57287 49952
L57249 50065
L56799 50515
L57287 50515
" />
<path d="M58224 50515
L58224 49727
" />
<path d="M58562 50515
L58562 50102
L58524 50027
L58449 49990
L58337 49990
L58262 50027
L58224 50065
" />
<path d="M59049 50515
L58974 50477
L58937 50440
L58899 50365
L58899 50140
L58937 50065
L58974 50027
L59049 49990
L59162 49990
L59237 50027
L59274 50065
L59312 50140
L59312 50365
L59274 50440
L59237 50477
L59162 50515
L59049 50515
" />
<path d="M59762 50515
L59687 50477
L59649 50402
L59649 49727
" />
<path d="M60361 50477
L60286 50515
L60136 50515
L60061 50477
L60024 50402
L60024 50102
L60061 50027
L60136 49990
L60286 49990
L60361 50027
L60399 50102
L60399 50177
L60024 50252
" />
<path d="M60699 50477
L60774 50515
L60924 50515
L60999 50477
L61036 50402
L61036 50365
L60999 50290
L60924 50252
L60811 50252
L60736 50215
L60699 50140
L60699 50102
L60736 50027
L60811 49990
L60924 49990
L60999 50027
" />
<path d="M61299 50815
L61336 50777
L61411 50665
L61449 50590
L61486 50477
L61524 50290
L61524 50140
L61486 49952
L61449 49840
L61411 49765
L61336 49652
L61299 49615
" />
</g></g>
<g style="fill:#000000; fill-opacity:0.0; 
stroke:#000000; stroke-width:48.584821; stroke-opacity:1; 
stroke-linecap:round; stroke-linejoin:round;">
<circle cx="42269.389073" cy="51198.549514" r="242.924103" /> 
</g>
<g style="fill:#000000; fill-opacity:0.0; 
stroke:#000000; stroke-width:161.949402; stroke-opacity:1; 
stroke-linecap:round; stroke-linejoin:round;">
</g>
<g style="fill:#000000; fill-opacity:0.0; 
stroke:#000000; stroke-width:78.739799; stroke-opacity:1; 
stroke-linecap:round; stroke-linejoin:round;">
<text x="43299.714407" y="51592.250130"
textLength="24825.635986" font-size="1049.867769" lengthAdjust="spacingAndGlyphs"
text-anchor="start" opacity="0">0.600mm / 0.0236" (0 holes + 4 slots)</text>
<g class="stroked-text"><desc>0.600mm / 0.0236" (0 holes + 4 slots)</desc>
<path d="M43676 50767
L43751 50767
L43826 50804
L43864 50842
L43901 50917
L43939 51067
L43939 51254
L43901 51404
L43864 51479
L43826 51517
L43751 51554
L43676 51554
L43601 51517
L43564 51479
L43526 51404
L43489 51254
L43489 51067
L43526 50917
L43564 50842
L43601 50804
L43676 50767
" />
<path d="M44276 51479
L44313 51517
L44276 51554
L44238 51517
L44276 51479
L44276 51554
" />
<path d="M44988 50767
L44838 50767
L44763 50804
L44726 50842
L44651 50954
L44613 51104
L44613 51404
L44651 51479
L44688 51517
L44763 51554
L44913 51554
L44988 51517
L45026 51479
L45063 51404
L45063 51217
L45026 51142
L44988 51104
L44913 51067
L44763 51067
L44688 51104
L44651 51142
L44613 51217
" />
<path d="M45551 50767
L45626 50767
L45701 50804
L45738 50842
L45776 50917
L45813 51067
L45813 51254
L45776 51404
L45738 51479
L45701 51517
L45626 51554
L45551 51554
L45476 51517
L45438 51479
L45401 51404
L45363 51254
L45363 51067
L45401 50917
L45438 50842
L45476 50804
L45551 50767
" />
<path d="M46301 50767
L46376 50767
L46451 50804
L46488 50842
L46526 50917
L46563 51067
L46563 51254
L46526 51404
L46488 51479
L46451 51517
L46376 51554
L46301 51554
L46226 51517
L46188 51479
L46151 51404
L46113 51254
L46113 51067
L46151 50917
L46188 50842
L46226 50804
L46301 50767
" />
<path d="M46901 51554
L46901 51029
" />
<path d="M46901 51104
L46938 51067
L47013 51029
L47126 51029
L47201 51067
L47238 51142
L47238 51554
" />
<path d="M47238 51142
L47276 51067
L47351 51029
L47463 51029
L47538 51067
L47576 51142
L47576 51554
" />
<path d="M47951 51554
L47951 51029
" />
<path d="M47951 51104
L47988 51067
L48063 51029
L48175 51029
L48250 51067
L48288 51142
L48288 51554
" />
<path d="M48288 51142
L48325 51067
L48400 51029
L48513 51029
L48588 51067
L48625 51142
L48625 51554
" />
<path d="M50163 50729
L49488 51742
" />
<path d="M51175 50767
L51250 50767
L51325 50804
L51363 50842
L51400 50917
L51438 51067
L51438 51254
L51400 51404
L51363 51479
L51325 51517
L51250 51554
L51175 51554
L51100 51517
L51063 51479
L51025 51404
L50988 51254
L50988 51067
L51025 50917
L51063 50842
L51100 50804
L51175 50767
" />
<path d="M51775 51479
L51813 51517
L51775 51554
L51738 51517
L51775 51479
L51775 51554
" />
<path d="M52300 50767
L52375 50767
L52450 50804
L52487 50842
L52525 50917
L52562 51067
L52562 51254
L52525 51404
L52487 51479
L52450 51517
L52375 51554
L52300 51554
L52225 51517
L52187 51479
L52150 51404
L52112 51254
L52112 51067
L52150 50917
L52187 50842
L52225 50804
L52300 50767
" />
<path d="M52862 50842
L52900 50804
L52975 50767
L53162 50767
L53237 50804
L53275 50842
L53312 50917
L53312 50992
L53275 51104
L52825 51554
L53312 51554
" />
<path d="M53575 50767
L54062 50767
L53800 51067
L53912 51067
L53987 51104
L54025 51142
L54062 51217
L54062 51404
L54025 51479
L53987 51517
L53912 51554
L53687 51554
L53612 51517
L53575 51479
" />
<path d="M54737 50767
L54587 50767
L54512 50804
L54475 50842
L54400 50954
L54362 51104
L54362 51404
L54400 51479
L54437 51517
L54512 51554
L54662 51554
L54737 51517
L54775 51479
L54812 51404
L54812 51217
L54775 51142
L54737 51104
L54662 51067
L54512 51067
L54437 51104
L54400 51142
L54362 51217
" />
<path d="M55112 50767
L55112 50917
" />
<path d="M55412 50767
L55412 50917
" />
<path d="M56574 51854
L56537 51817
L56462 51704
L56424 51629
L56387 51517
L56349 51329
L56349 51179
L56387 50992
L56424 50879
L56462 50804
L56537 50692
L56574 50654
" />
<path d="M57024 50767
L57099 50767
L57174 50804
L57212 50842
L57249 50917
L57287 51067
L57287 51254
L57249 51404
L57212 51479
L57174 51517
L57099 51554
L57024 51554
L56949 51517
L56912 51479
L56874 51404
L56837 51254
L56837 51067
L56874 50917
L56912 50842
L56949 50804
L57024 50767
" />
<path d="M58224 51554
L58224 50767
" />
<path d="M58562 51554
L58562 51142
L58524 51067
L58449 51029
L58337 51029
L58262 51067
L58224 51104
" />
<path d="M59049 51554
L58974 51517
L58937 51479
L58899 51404
L58899 51179
L58937 51104
L58974 51067
L59049 51029
L59162 51029
L59237 51067
L59274 51104
L59312 51179
L59312 51404
L59274 51479
L59237 51517
L59162 51554
L59049 51554
" />
<path d="M59762 51554
L59687 51517
L59649 51442
L59649 50767
" />
<path d="M60361 51517
L60286 51554
L60136 51554
L60061 51517
L60024 51442
L60024 51142
L60061 51067
L60136 51029
L60286 51029
L60361 51067
L60399 51142
L60399 51217
L60024 51292
" />
<path d="M60699 51517
L60774 51554
L60924 51554
L60999 51517
L61036 51442
L61036 51404
L60999 51329
L60924 51292
L60811 51292
L60736 51254
L60699 51179
L60699 51142
L60736 51067
L60811 51029
L60924 51029
L60999 51067
" />
<path d="M61974 51254
L62574 51254
" />
<path d="M62274 51554
L62274 50954
" />
<path d="M63886 51029
L63886 51554
" />
<path d="M63699 50729
L63511 51292
L63998 51292
" />
<path d="M64861 51517
L64936 51554
L65086 51554
L65161 51517
L65198 51442
L65198 51404
L65161 51329
L65086 51292
L64973 51292
L64898 51254
L64861 51179
L64861 51142
L64898 51067
L64973 51029
L65086 51029
L65161 51067
" />
<path d="M65648 51554
L65573 51517
L65536 51442
L65536 50767
" />
<path d="M66061 51554
L65986 51517
L65948 51479
L65911 51404
L65911 51179
L65948 51104
L65986 51067
L66061 51029
L66173 51029
L66248 51067
L66286 51104
L66323 51179
L66323 51404
L66286 51479
L66248 51517
L66173 51554
L66061 51554
" />
<path d="M66548 51029
L66848 51029
" />
<path d="M66661 50767
L66661 51442
L66698 51517
L66773 51554
L66848 51554
" />
<path d="M67073 51517
L67148 51554
L67298 51554
L67373 51517
L67411 51442
L67411 51404
L67373 51329
L67298 51292
L67186 51292
L67111 51254
L67073 51179
L67073 51142
L67111 51067
L67186 51029
L67298 51029
L67373 51067
" />
<path d="M67673 51854
L67711 51817
L67786 51704
L67823 51629
L67861 51517
L67898 51329
L67898 51179
L67861 50992
L67823 50879
L67786 50804
L67711 50692
L67673 50654
" />
</g><path d="M42118 51844
L42118 52631
" />
<path d="M41724 52237
L42512 52237
" />
</g>
<g style="fill:#000000; fill-opacity:0.0; 
stroke:#000000; stroke-width:161.949402; stroke-opacity:1; 
stroke-linecap:round; stroke-linejoin:round;">
</g>
<g style="fill:#000000; fill-opacity:0.0; 
stroke:#000000; stroke-width:78.739799; stroke-opacity:1; 
stroke-linecap:round; stroke-linejoin:round;">
<text x="43299.714407" y="52631.619529"
textLength="19951.247257" font-size="1049.867769" lengthAdjust="spacingAndGlyphs"
text-anchor="start" opacity="0">1.000mm / 0.0394" (108 holes)</text>
<g class="stroked-text"><desc>1.000mm / 0.0394" (108 holes)</desc>
<path d="M43939 52594
L43489 52594
" />
<path d="M43714 52594
L43714 51806
L43639 51919
L43564 51994
L43489 52031
" />
<path d="M44276 52519
L44313 52556
L44276 52594
L44238 52556
L44276 52519
L44276 52594
" />
<path d="M44801 51806
L44876 51806
L44951 51844
L44988 51881
L45026 51956
L45063 52106
L45063 52294
L45026 52444
L44988 52519
L44951 52556
L44876 52594
L44801 52594
L44726 52556
L44688 52519
L44651 52444
L44613 52294
L44613 52106
L44651 51956
L44688 51881
L44726 51844
L44801 51806
" />
<path d="M45551 51806
L45626 51806
L45701 51844
L45738 51881
L45776 51956
L45813 52106
L45813 52294
L45776 52444
L45738 52519
L45701 52556
L45626 52594
L45551 52594
L45476 52556
L45438 52519
L45401 52444
L45363 52294
L45363 52106
L45401 51956
L45438 51881
L45476 51844
L45551 51806
" />
<path d="M46301 51806
L46376 51806
L46451 51844
L46488 51881
L46526 51956
L46563 52106
L46563 52294
L46526 52444
L46488 52519
L46451 52556
L46376 52594
L46301 52594
L46226 52556
L46188 52519
L46151 52444
L46113 52294
L46113 52106
L46151 51956
L46188 51881
L46226 51844
L46301 51806
" />
<path d="M46901 52594
L46901 52069
" />
<path d="M46901 52144
L46938 52106
L47013 52069
L47126 52069
L47201 52106
L47238 52181
L47238 52594
" />
<path d="M47238 52181
L47276 52106
L47351 52069
L47463 52069
L47538 52106
L47576 52181
L47576 52594
" />
<path d="M47951 52594
L47951 52069
" />
<path d="M47951 52144
L47988 52106
L48063 52069
L48175 52069
L48250 52106
L48288 52181
L48288 52594
" />
<path d="M48288 52181
L48325 52106
L48400 52069
L48513 52069
L48588 52106
L48625 52181
L48625 52594
" />
<path d="M50163 51769
L49488 52781
" />
<path d="M51175 51806
L51250 51806
L51325 51844
L51363 51881
L51400 51956
L51438 52106
L51438 52294
L51400 52444
L51363 52519
L51325 52556
L51250 52594
L51175 52594
L51100 52556
L51063 52519
L51025 52444
L50988 52294
L50988 52106
L51025 51956
L51063 51881
L51100 51844
L51175 51806
" />
<path d="M51775 52519
L51813 52556
L51775 52594
L51738 52556
L51775 52519
L51775 52594
" />
<path d="M52300 51806
L52375 51806
L52450 51844
L52487 51881
L52525 51956
L52562 52106
L52562 52294
L52525 52444
L52487 52519
L52450 52556
L52375 52594
L52300 52594
L52225 52556
L52187 52519
L52150 52444
L52112 52294
L52112 52106
L52150 51956
L52187 51881
L52225 51844
L52300 51806
" />
<path d="M52825 51806
L53312 51806
L53050 52106
L53162 52106
L53237 52144
L53275 52181
L53312 52256
L53312 52444
L53275 52519
L53237 52556
L53162 52594
L52937 52594
L52862 52556
L52825 52519
" />
<path d="M53687 52594
L53837 52594
L53912 52556
L53950 52519
L54025 52406
L54062 52256
L54062 51956
L54025 51881
L53987 51844
L53912 51806
L53762 51806
L53687 51844
L53650 51881
L53612 51956
L53612 52144
L53650 52219
L53687 52256
L53762 52294
L53912 52294
L53987 52256
L54025 52219
L54062 52144
" />
<path d="M54737 52069
L54737 52594
" />
<path d="M54550 51769
L54362 52331
L54850 52331
" />
<path d="M55112 51806
L55112 51956
" />
<path d="M55412 51806
L55412 51956
" />
<path d="M56574 52894
L56537 52856
L56462 52744
L56424 52669
L56387 52556
L56349 52369
L56349 52219
L56387 52031
L56424 51919
L56462 51844
L56537 51731
L56574 51694
" />
<path d="M57287 52594
L56837 52594
" />
<path d="M57062 52594
L57062 51806
L56987 51919
L56912 51994
L56837 52031
" />
<path d="M57774 51806
L57849 51806
L57924 51844
L57962 51881
L57999 51956
L58037 52106
L58037 52294
L57999 52444
L57962 52519
L57924 52556
L57849 52594
L57774 52594
L57699 52556
L57662 52519
L57624 52444
L57587 52294
L57587 52106
L57624 51956
L57662 51881
L57699 51844
L57774 51806
" />
<path d="M58487 52144
L58412 52106
L58374 52069
L58337 51994
L58337 51956
L58374 51881
L58412 51844
L58487 51806
L58637 51806
L58712 51844
L58749 51881
L58787 51956
L58787 51994
L58749 52069
L58712 52106
L58637 52144
L58487 52144
L58412 52181
L58374 52219
L58337 52294
L58337 52444
L58374 52519
L58412 52556
L58487 52594
L58637 52594
L58712 52556
L58749 52519
L58787 52444
L58787 52294
L58749 52219
L58712 52181
L58637 52144
" />
<path d="M59724 52594
L59724 51806
" />
<path d="M60061 52594
L60061 52181
L60024 52106
L59949 52069
L59837 52069
L59762 52106
L59724 52144
" />
<path d="M60549 52594
L60474 52556
L60436 52519
L60399 52444
L60399 52219
L60436 52144
L60474 52106
L60549 52069
L60661 52069
L60736 52106
L60774 52144
L60811 52219
L60811 52444
L60774 52519
L60736 52556
L60661 52594
L60549 52594
" />
<path d="M61261 52594
L61186 52556
L61149 52481
L61149 51806
" />
<path d="M61861 52556
L61786 52594
L61636 52594
L61561 52556
L61524 52481
L61524 52181
L61561 52106
L61636 52069
L61786 52069
L61861 52106
L61899 52181
L61899 52256
L61524 52331
" />
<path d="M62199 52556
L62274 52594
L62424 52594
L62499 52556
L62536 52481
L62536 52444
L62499 52369
L62424 52331
L62311 52331
L62236 52294
L62199 52219
L62199 52181
L62236 52106
L62311 52069
L62424 52069
L62499 52106
" />
<path d="M62799 52894
L62836 52856
L62911 52744
L62949 52669
L62986 52556
L63024 52369
L63024 52219
L62986 52031
L62949 51919
L62911 51844
L62836 51731
L62799 51694
" />
</g></g> 
</svg>
