<?xml version="1.0" standalone="no"?>
 <!DOCTYPE svg PUBLIC "-//W3C//DTD SVG 1.1//EN" 
 "http://www.w3.org/Graphics/SVG/1.1/DTD/svg11.dtd"> 
<svg
  xmlns:svg="http://www.w3.org/2000/svg"
  xmlns="http://www.w3.org/2000/svg"
  xmlns:xlink="http://www.w3.org/1999/xlink"
  version="1.1"
  width="29.700220cm" height="21.000720cm" viewBox="0 0 116930 82680">
<title>SVG Picture created as PI4Adapter-NPTH-drl_map.svg date 2022/07/02 09:32:05 </title>
  <desc>Picture generated by PCBNEW </desc>
<g style="fill:#000000; fill-opacity:1.000000;stroke:#000000; stroke-opacity:1.000000;
stroke-linecap:round; stroke-linejoin:round;"
 transform="translate(0 0) scale(1 1)">
</g>
<g style="fill:#000000; fill-opacity:0.0; 
stroke:#000000; stroke-width:0.000000; stroke-opacity:1; 
stroke-linecap:round; stroke-linejoin:round;">
</g>
<g style="fill:#000000; fill-opacity:0.0; 
stroke:#000000; stroke-width:80.974701; stroke-opacity:1; 
stroke-linecap:round; stroke-linejoin:round;">
<path d="M45821 2009
L74539 2009
" />
<path d="M65672.419399 47597.961112 A3484.041777 3484.041777 0.0 0 0 69113.843969 44075.562171" />
<path d="M74539 33386
L69113 33386
" />
<path d="M74539 2009
L74539 33386
" />
<path d="M42392.192559 44185.357388 A3446.948886 3446.948886 0.0 0 0 45923.953051 47597.961965" />
<path d="M42392 44185
L42392 5497
" />
<path d="M65672 47597
L45923 47597
" />
<path d="M45821.950833 2009.204874 A3393.096661 3393.096661 0.0 0 0 42392.192711 5497.495535" />
<path d="M69113 33386
L69113 44075
" />
</g>
<g style="fill:#000000; fill-opacity:0.0; 
stroke:#000000; stroke-width:161.949402; stroke-opacity:1; 
stroke-linecap:round; stroke-linejoin:round;">
</g>
<g style="fill:#000000; fill-opacity:0.0; 
stroke:#000000; stroke-width:78.739799; stroke-opacity:1; 
stroke-linecap:round; stroke-linejoin:round;">
<text x="43137.765005" y="48899.338470"
textLength="5853.015765" font-size="1049.867769" lengthAdjust="spacingAndGlyphs"
text-anchor="start" opacity="0">Drill Map:</text>
<g class="stroked-text"><desc>Drill Map:</desc>
<path d="M43364 48861
L43364 48074
L43552 48074
L43664 48111
L43739 48186
L43777 48261
L43814 48411
L43814 48524
L43777 48674
L43739 48749
L43664 48824
L43552 48861
L43364 48861
" />
<path d="M44152 48861
L44152 48336
" />
<path d="M44152 48486
L44189 48411
L44227 48374
L44301 48336
L44376 48336
" />
<path d="M44639 48861
L44639 48336
" />
<path d="M44639 48074
L44601 48111
L44639 48149
L44676 48111
L44639 48074
L44639 48149
" />
<path d="M45126 48861
L45051 48824
L45014 48749
L45014 48074
" />
<path d="M45539 48861
L45464 48824
L45426 48749
L45426 48074
" />
<path d="M46439 48861
L46439 48074
L46701 48636
L46964 48074
L46964 48861
" />
<path d="M47676 48861
L47676 48449
L47639 48374
L47564 48336
L47414 48336
L47339 48374
" />
<path d="M47676 48824
L47601 48861
L47414 48861
L47339 48824
L47301 48749
L47301 48674
L47339 48599
L47414 48561
L47601 48561
L47676 48524
" />
<path d="M48051 48336
L48051 49124
" />
<path d="M48051 48374
L48126 48336
L48276 48336
L48351 48374
L48388 48411
L48426 48486
L48426 48711
L48388 48786
L48351 48824
L48276 48861
L48126 48861
L48051 48824
" />
<path d="M48763 48786
L48801 48824
L48763 48861
L48726 48824
L48763 48786
L48763 48861
" />
<path d="M48763 48374
L48801 48411
L48763 48449
L48726 48411
L48763 48374
L48763 48449
" />
</g></g> 
</svg>
