G04 #@! TF.GenerationSoftware,KiCad,Pcbnew,7.0.5*
G04 #@! TF.CreationDate,2023-06-11T09:32:39-04:00*
G04 #@! TF.ProjectId,PI4Adapter,50493441-6461-4707-9465-722e6b696361,0.1b*
G04 #@! TF.SameCoordinates,Original*
G04 #@! TF.FileFunction,Soldermask,Top*
G04 #@! TF.FilePolarity,Negative*
%FSLAX46Y46*%
G04 Gerber Fmt 4.6, Leading zero omitted, Abs format (unit mm)*
G04 Created by KiCad (PCBNEW 7.0.5) date 2023-06-11 09:32:39*
%MOMM*%
%LPD*%
G01*
G04 APERTURE LIST*
G04 Aperture macros list*
%AMRoundRect*
0 Rectangle with rounded corners*
0 $1 Rounding radius*
0 $2 $3 $4 $5 $6 $7 $8 $9 X,Y pos of 4 corners*
0 Add a 4 corners polygon primitive as box body*
4,1,4,$2,$3,$4,$5,$6,$7,$8,$9,$2,$3,0*
0 Add four circle primitives for the rounded corners*
1,1,$1+$1,$2,$3*
1,1,$1+$1,$4,$5*
1,1,$1+$1,$6,$7*
1,1,$1+$1,$8,$9*
0 Add four rect primitives between the rounded corners*
20,1,$1+$1,$2,$3,$4,$5,0*
20,1,$1+$1,$4,$5,$6,$7,0*
20,1,$1+$1,$6,$7,$8,$9,0*
20,1,$1+$1,$8,$9,$2,$3,0*%
G04 Aperture macros list end*
%ADD10R,1.700000X1.700000*%
%ADD11O,1.700000X1.700000*%
%ADD12R,0.700000X1.200000*%
%ADD13R,0.760000X1.200000*%
%ADD14R,0.800000X1.200000*%
%ADD15R,1.800000X1.350000*%
%ADD16R,1.800000X1.500000*%
%ADD17RoundRect,0.250000X0.600000X0.750000X-0.600000X0.750000X-0.600000X-0.750000X0.600000X-0.750000X0*%
%ADD18O,1.700000X2.000000*%
G04 #@! TA.AperFunction,Profile*
%ADD19C,0.100000*%
G04 #@! TD*
G04 APERTURE END LIST*
D10*
X115570000Y-77625000D03*
D11*
X118110000Y-77625000D03*
X115570000Y-80165000D03*
X118110000Y-80165000D03*
X115570000Y-82705000D03*
X118110000Y-82705000D03*
X115570000Y-85245000D03*
X118110000Y-85245000D03*
X115570000Y-87785000D03*
X118110000Y-87785000D03*
X115570000Y-90325000D03*
X118110000Y-90325000D03*
X115570000Y-92865000D03*
X118110000Y-92865000D03*
X115570000Y-95405000D03*
X118110000Y-95405000D03*
X115570000Y-97945000D03*
X118110000Y-97945000D03*
X115570000Y-100485000D03*
X118110000Y-100485000D03*
X115570000Y-103025000D03*
X118110000Y-103025000D03*
X115570000Y-105565000D03*
X118110000Y-105565000D03*
X115570000Y-108105000D03*
X118110000Y-108105000D03*
X115570000Y-110645000D03*
X118110000Y-110645000D03*
X115570000Y-113185000D03*
X118110000Y-113185000D03*
X115570000Y-115725000D03*
X118110000Y-115725000D03*
X115570000Y-118265000D03*
X118110000Y-118265000D03*
X115570000Y-120805000D03*
X118110000Y-120805000D03*
X115570000Y-123345000D03*
X118110000Y-123345000D03*
X115570000Y-125885000D03*
X118110000Y-125885000D03*
D12*
X128405000Y-123332500D03*
D13*
X130425000Y-123332500D03*
D14*
X131655000Y-123332500D03*
D12*
X129405000Y-123332500D03*
D13*
X127385000Y-123332500D03*
D14*
X126155000Y-123332500D03*
D15*
X123780000Y-123387500D03*
D16*
X123780000Y-126967500D03*
D15*
X134030000Y-123387500D03*
D16*
X134030000Y-126967500D03*
D17*
X129520000Y-83050000D03*
D18*
X127020000Y-83050000D03*
D10*
X108250000Y-77700000D03*
D11*
X110790000Y-77700000D03*
X108250000Y-80240000D03*
X110790000Y-80240000D03*
X108250000Y-82780000D03*
X110790000Y-82780000D03*
X108250000Y-85320000D03*
X110790000Y-85320000D03*
X108250000Y-87860000D03*
X110790000Y-87860000D03*
X108250000Y-90400000D03*
X110790000Y-90400000D03*
X108250000Y-92940000D03*
X110790000Y-92940000D03*
X108250000Y-95480000D03*
X110790000Y-95480000D03*
X108250000Y-98020000D03*
X110790000Y-98020000D03*
X108250000Y-100560000D03*
X110790000Y-100560000D03*
X108250000Y-103100000D03*
X110790000Y-103100000D03*
X108250000Y-105640000D03*
X110790000Y-105640000D03*
X108250000Y-108180000D03*
X110790000Y-108180000D03*
X108250000Y-110720000D03*
X110790000Y-110720000D03*
X108250000Y-113260000D03*
X110790000Y-113260000D03*
X108250000Y-115800000D03*
X110790000Y-115800000D03*
X108250000Y-118340000D03*
X110790000Y-118340000D03*
X108250000Y-120880000D03*
X110790000Y-120880000D03*
X108250000Y-123420000D03*
X110790000Y-123420000D03*
X108250000Y-125960000D03*
X110790000Y-125960000D03*
D10*
X139060000Y-77575000D03*
D11*
X141600000Y-77575000D03*
X139060000Y-80115000D03*
X141600000Y-80115000D03*
X139060000Y-82655000D03*
X141600000Y-82655000D03*
X139060000Y-85195000D03*
X141600000Y-85195000D03*
X139060000Y-87735000D03*
X141600000Y-87735000D03*
X139060000Y-90275000D03*
X141600000Y-90275000D03*
X139060000Y-92815000D03*
X141600000Y-92815000D03*
X139060000Y-95355000D03*
X141600000Y-95355000D03*
X139060000Y-97895000D03*
X141600000Y-97895000D03*
X139060000Y-100435000D03*
X141600000Y-100435000D03*
X139060000Y-102975000D03*
X141600000Y-102975000D03*
X139060000Y-105515000D03*
X141600000Y-105515000D03*
X139060000Y-108055000D03*
X141600000Y-108055000D03*
D19*
X108235592Y-73600000D02*
X143700000Y-73600000D01*
X132750001Y-129900045D02*
G75*
G03*
X137000000Y-125550000I-52401J4302345D01*
G01*
X143700000Y-112350000D02*
X137000000Y-112350000D01*
X143700000Y-73600000D02*
X143700000Y-112350000D01*
X104000004Y-125685592D02*
G75*
G03*
X108361560Y-129900000I4256596J41092D01*
G01*
X104000000Y-125685592D02*
X104000000Y-77907877D01*
X132750000Y-129900000D02*
X108361560Y-129900000D01*
X108235592Y-73599997D02*
G75*
G03*
X104000001Y-77907877I-46932J-4190053D01*
G01*
X137000000Y-112350000D02*
X137000000Y-125550000D01*
M02*
