G04 #@! TF.GenerationSoftware,KiCad,Pcbnew,(6.0.0)*
G04 #@! TF.CreationDate,2022-05-07T15:13:21-04:00*
G04 #@! TF.ProjectId,PI4Adapter,50493441-6461-4707-9465-722e6b696361,0.1b*
G04 #@! TF.SameCoordinates,Original*
G04 #@! TF.FileFunction,Legend,Top*
G04 #@! TF.FilePolarity,Positive*
%FSLAX46Y46*%
G04 Gerber Fmt 4.6, Leading zero omitted, Abs format (unit mm)*
G04 Created by KiCad (PCBNEW (6.0.0)) date 2022-05-07 15:13:21*
%MOMM*%
%LPD*%
G01*
G04 APERTURE LIST*
G04 Aperture macros list*
%AMRoundRect*
0 Rectangle with rounded corners*
0 $1 Rounding radius*
0 $2 $3 $4 $5 $6 $7 $8 $9 X,Y pos of 4 corners*
0 Add a 4 corners polygon primitive as box body*
4,1,4,$2,$3,$4,$5,$6,$7,$8,$9,$2,$3,0*
0 Add four circle primitives for the rounded corners*
1,1,$1+$1,$2,$3*
1,1,$1+$1,$4,$5*
1,1,$1+$1,$6,$7*
1,1,$1+$1,$8,$9*
0 Add four rect primitives between the rounded corners*
20,1,$1+$1,$2,$3,$4,$5,0*
20,1,$1+$1,$4,$5,$6,$7,0*
20,1,$1+$1,$6,$7,$8,$9,0*
20,1,$1+$1,$8,$9,$2,$3,0*%
G04 Aperture macros list end*
%ADD10C,0.200000*%
G04 #@! TA.AperFunction,Profile*
%ADD11C,0.100000*%
G04 #@! TD*
%ADD12C,0.300000*%
%ADD13C,0.100000*%
%ADD14C,0.120000*%
%ADD15R,1.700000X1.700000*%
%ADD16O,1.700000X1.700000*%
%ADD17RoundRect,0.250000X0.600000X0.750000X-0.600000X0.750000X-0.600000X-0.750000X0.600000X-0.750000X0*%
%ADD18O,1.700000X2.000000*%
%ADD19RoundRect,0.175000X-0.175000X-0.425000X0.175000X-0.425000X0.175000X0.425000X-0.175000X0.425000X0*%
%ADD20RoundRect,0.190000X-0.190000X-0.410000X0.190000X-0.410000X0.190000X0.410000X-0.190000X0.410000X0*%
%ADD21RoundRect,0.200000X-0.200000X-0.400000X0.200000X-0.400000X0.200000X0.400000X-0.200000X0.400000X0*%
%ADD22O,1.100000X1.700000*%
G04 APERTURE END LIST*
D10*
X134239047Y-76271428D02*
X135000952Y-76271428D01*
X134620000Y-76652380D02*
X134620000Y-75890476D01*
X123912380Y-77223809D02*
X123912380Y-77700000D01*
X124388571Y-77747619D01*
X124340952Y-77700000D01*
X124293333Y-77604761D01*
X124293333Y-77366666D01*
X124340952Y-77271428D01*
X124388571Y-77223809D01*
X124483809Y-77176190D01*
X124721904Y-77176190D01*
X124817142Y-77223809D01*
X124864761Y-77271428D01*
X124912380Y-77366666D01*
X124912380Y-77604761D01*
X124864761Y-77700000D01*
X124817142Y-77747619D01*
X124245714Y-76842857D02*
X124912380Y-76604761D01*
X124245714Y-76366666D01*
X124912380Y-75557142D02*
X123912380Y-75557142D01*
X124864761Y-75557142D02*
X124912380Y-75652380D01*
X124912380Y-75842857D01*
X124864761Y-75938095D01*
X124817142Y-75985714D01*
X124721904Y-76033333D01*
X124436190Y-76033333D01*
X124340952Y-75985714D01*
X124293333Y-75938095D01*
X124245714Y-75842857D01*
X124245714Y-75652380D01*
X124293333Y-75557142D01*
X124864761Y-74652380D02*
X124912380Y-74747619D01*
X124912380Y-74938095D01*
X124864761Y-75033333D01*
X124817142Y-75080952D01*
X124721904Y-75128571D01*
X124436190Y-75128571D01*
X124340952Y-75080952D01*
X124293333Y-75033333D01*
X124245714Y-74938095D01*
X124245714Y-74747619D01*
X124293333Y-74652380D01*
D11*
X137000000Y-75600000D02*
X143300000Y-75600000D01*
X108235592Y-73600000D02*
X137000000Y-73600000D01*
X132750000Y-129899999D02*
G75*
G03*
X137000000Y-125550000I-52366J4302311D01*
G01*
X143300000Y-109950000D02*
X137000000Y-109950000D01*
X143300000Y-75600000D02*
X143300000Y-109950000D01*
X104000000Y-125685592D02*
G75*
G03*
X108361560Y-129900000I4256623J41120D01*
G01*
X104000000Y-125685592D02*
X104000000Y-77907877D01*
X132750000Y-129900000D02*
X108361560Y-129900000D01*
X137000000Y-73600000D02*
X137000000Y-75600000D01*
X108235592Y-73600000D02*
G75*
G03*
X104000000Y-77907877I-46932J-4190054D01*
G01*
X137000000Y-109950000D02*
X137000000Y-125550000D01*
D12*
X115985341Y-119523004D02*
X113985341Y-119523004D01*
X113985341Y-118761099D01*
X114080580Y-118570623D01*
X114175818Y-118475384D01*
X114366294Y-118380146D01*
X114652008Y-118380146D01*
X114842484Y-118475384D01*
X114937722Y-118570623D01*
X115032960Y-118761099D01*
X115032960Y-119523004D01*
X115985341Y-117523004D02*
X113985341Y-117523004D01*
X115985341Y-115046813D02*
X113985341Y-115046813D01*
X113985341Y-114570623D01*
X114080580Y-114284908D01*
X114271056Y-114094432D01*
X114461532Y-113999194D01*
X114842484Y-113903956D01*
X115128199Y-113903956D01*
X115509151Y-113999194D01*
X115699627Y-114094432D01*
X115890103Y-114284908D01*
X115985341Y-114570623D01*
X115985341Y-115046813D01*
X114652008Y-112189670D02*
X115985341Y-112189670D01*
X114652008Y-113046813D02*
X115699627Y-113046813D01*
X115890103Y-112951575D01*
X115985341Y-112761099D01*
X115985341Y-112475384D01*
X115890103Y-112284908D01*
X115794865Y-112189670D01*
X115890103Y-110475384D02*
X115985341Y-110665861D01*
X115985341Y-111046813D01*
X115890103Y-111237289D01*
X115699627Y-111332527D01*
X114937722Y-111332527D01*
X114747246Y-111237289D01*
X114652008Y-111046813D01*
X114652008Y-110665861D01*
X114747246Y-110475384D01*
X114937722Y-110380146D01*
X115128199Y-110380146D01*
X115318675Y-111332527D01*
X114652008Y-109808718D02*
X114652008Y-109046813D01*
X113985341Y-109523004D02*
X115699627Y-109523004D01*
X115890103Y-109427765D01*
X115985341Y-109237289D01*
X115985341Y-109046813D01*
X113985341Y-107046813D02*
X113985341Y-105808718D01*
X114747246Y-106475384D01*
X114747246Y-106189670D01*
X114842484Y-105999194D01*
X114937722Y-105903956D01*
X115128199Y-105808718D01*
X115604389Y-105808718D01*
X115794865Y-105903956D01*
X115890103Y-105999194D01*
X115985341Y-106189670D01*
X115985341Y-106761099D01*
X115890103Y-106951575D01*
X115794865Y-107046813D01*
X115413913Y-103523004D02*
X115413913Y-102570623D01*
X115985341Y-103713480D02*
X113985341Y-103046813D01*
X115985341Y-102380146D01*
X115985341Y-100856337D02*
X113985341Y-100856337D01*
X115890103Y-100856337D02*
X115985341Y-101046813D01*
X115985341Y-101427765D01*
X115890103Y-101618242D01*
X115794865Y-101713480D01*
X115604389Y-101808718D01*
X115032960Y-101808718D01*
X114842484Y-101713480D01*
X114747246Y-101618242D01*
X114652008Y-101427765D01*
X114652008Y-101046813D01*
X114747246Y-100856337D01*
X115985341Y-99046813D02*
X114937722Y-99046813D01*
X114747246Y-99142051D01*
X114652008Y-99332527D01*
X114652008Y-99713480D01*
X114747246Y-99903956D01*
X115890103Y-99046813D02*
X115985341Y-99237289D01*
X115985341Y-99713480D01*
X115890103Y-99903956D01*
X115699627Y-99999194D01*
X115509151Y-99999194D01*
X115318675Y-99903956D01*
X115223437Y-99713480D01*
X115223437Y-99237289D01*
X115128199Y-99046813D01*
X114652008Y-98094432D02*
X116652008Y-98094432D01*
X114747246Y-98094432D02*
X114652008Y-97903956D01*
X114652008Y-97523004D01*
X114747246Y-97332527D01*
X114842484Y-97237289D01*
X115032960Y-97142051D01*
X115604389Y-97142051D01*
X115794865Y-97237289D01*
X115890103Y-97332527D01*
X115985341Y-97523004D01*
X115985341Y-97903956D01*
X115890103Y-98094432D01*
X114652008Y-96570623D02*
X114652008Y-95808718D01*
X113985341Y-96284908D02*
X115699627Y-96284908D01*
X115890103Y-96189670D01*
X115985341Y-95999194D01*
X115985341Y-95808718D01*
X115890103Y-94380146D02*
X115985341Y-94570623D01*
X115985341Y-94951575D01*
X115890103Y-95142051D01*
X115699627Y-95237289D01*
X114937722Y-95237289D01*
X114747246Y-95142051D01*
X114652008Y-94951575D01*
X114652008Y-94570623D01*
X114747246Y-94380146D01*
X114937722Y-94284908D01*
X115128199Y-94284908D01*
X115318675Y-95237289D01*
X115985341Y-93427765D02*
X114652008Y-93427765D01*
X115032960Y-93427765D02*
X114842484Y-93332527D01*
X114747246Y-93237289D01*
X114652008Y-93046813D01*
X114652008Y-92856337D01*
X114652008Y-90856337D02*
X115985341Y-90380146D01*
X114652008Y-89903956D01*
X113985341Y-88761099D02*
X113985341Y-88570623D01*
X114080580Y-88380146D01*
X114175818Y-88284908D01*
X114366294Y-88189670D01*
X114747246Y-88094432D01*
X115223437Y-88094432D01*
X115604389Y-88189670D01*
X115794865Y-88284908D01*
X115890103Y-88380146D01*
X115985341Y-88570623D01*
X115985341Y-88761099D01*
X115890103Y-88951575D01*
X115794865Y-89046813D01*
X115604389Y-89142051D01*
X115223437Y-89237289D01*
X114747246Y-89237289D01*
X114366294Y-89142051D01*
X114175818Y-89046813D01*
X114080580Y-88951575D01*
X113985341Y-88761099D01*
X115794865Y-87237289D02*
X115890103Y-87142051D01*
X115985341Y-87237289D01*
X115890103Y-87332527D01*
X115794865Y-87237289D01*
X115985341Y-87237289D01*
X115985341Y-85237289D02*
X115985341Y-86380146D01*
X115985341Y-85808718D02*
X113985341Y-85808718D01*
X114271056Y-85999194D01*
X114461532Y-86189670D01*
X114556770Y-86380146D01*
X115985341Y-84380146D02*
X113985341Y-84380146D01*
X114747246Y-84380146D02*
X114652008Y-84189670D01*
X114652008Y-83808718D01*
X114747246Y-83618242D01*
X114842484Y-83523004D01*
X115032960Y-83427765D01*
X115604389Y-83427765D01*
X115794865Y-83523004D01*
X115890103Y-83618242D01*
X115985341Y-83808718D01*
X115985341Y-84189670D01*
X115890103Y-84380146D01*
D13*
X124278918Y-119966030D02*
X124278918Y-120573173D01*
X124314632Y-120644602D01*
X124350346Y-120680316D01*
X124421775Y-120716030D01*
X124564632Y-120716030D01*
X124636061Y-120680316D01*
X124671775Y-120644602D01*
X124707489Y-120573173D01*
X124707489Y-119966030D01*
X125028918Y-120680316D02*
X125136061Y-120716030D01*
X125314632Y-120716030D01*
X125386061Y-120680316D01*
X125421775Y-120644602D01*
X125457489Y-120573173D01*
X125457489Y-120501745D01*
X125421775Y-120430316D01*
X125386061Y-120394602D01*
X125314632Y-120358887D01*
X125171775Y-120323173D01*
X125100346Y-120287459D01*
X125064632Y-120251745D01*
X125028918Y-120180316D01*
X125028918Y-120108887D01*
X125064632Y-120037459D01*
X125100346Y-120001745D01*
X125171775Y-119966030D01*
X125350346Y-119966030D01*
X125457489Y-120001745D01*
X126028918Y-120323173D02*
X126136061Y-120358887D01*
X126171775Y-120394602D01*
X126207489Y-120466030D01*
X126207489Y-120573173D01*
X126171775Y-120644602D01*
X126136061Y-120680316D01*
X126064632Y-120716030D01*
X125778918Y-120716030D01*
X125778918Y-119966030D01*
X126028918Y-119966030D01*
X126100346Y-120001745D01*
X126136061Y-120037459D01*
X126171775Y-120108887D01*
X126171775Y-120180316D01*
X126136061Y-120251745D01*
X126100346Y-120287459D01*
X126028918Y-120323173D01*
X125778918Y-120323173D01*
X127528918Y-120644602D02*
X127493203Y-120680316D01*
X127386061Y-120716030D01*
X127314632Y-120716030D01*
X127207489Y-120680316D01*
X127136061Y-120608887D01*
X127100346Y-120537459D01*
X127064632Y-120394602D01*
X127064632Y-120287459D01*
X127100346Y-120144602D01*
X127136061Y-120073173D01*
X127207489Y-120001745D01*
X127314632Y-119966030D01*
X127386061Y-119966030D01*
X127493203Y-120001745D01*
X127528918Y-120037459D01*
X124403918Y-121923530D02*
X124403918Y-121173530D01*
X124689632Y-121173530D01*
X124761061Y-121209245D01*
X124796775Y-121244959D01*
X124832489Y-121316387D01*
X124832489Y-121423530D01*
X124796775Y-121494959D01*
X124761061Y-121530673D01*
X124689632Y-121566387D01*
X124403918Y-121566387D01*
X125261061Y-121923530D02*
X125189632Y-121887816D01*
X125153918Y-121852102D01*
X125118203Y-121780673D01*
X125118203Y-121566387D01*
X125153918Y-121494959D01*
X125189632Y-121459245D01*
X125261061Y-121423530D01*
X125368203Y-121423530D01*
X125439632Y-121459245D01*
X125475346Y-121494959D01*
X125511061Y-121566387D01*
X125511061Y-121780673D01*
X125475346Y-121852102D01*
X125439632Y-121887816D01*
X125368203Y-121923530D01*
X125261061Y-121923530D01*
X125761061Y-121423530D02*
X125903918Y-121923530D01*
X126046775Y-121566387D01*
X126189632Y-121923530D01*
X126332489Y-121423530D01*
X126903918Y-121887816D02*
X126832489Y-121923530D01*
X126689632Y-121923530D01*
X126618203Y-121887816D01*
X126582489Y-121816387D01*
X126582489Y-121530673D01*
X126618203Y-121459245D01*
X126689632Y-121423530D01*
X126832489Y-121423530D01*
X126903918Y-121459245D01*
X126939632Y-121530673D01*
X126939632Y-121602102D01*
X126582489Y-121673530D01*
X127261061Y-121923530D02*
X127261061Y-121423530D01*
X127261061Y-121566387D02*
X127296775Y-121494959D01*
X127332489Y-121459245D01*
X127403918Y-121423530D01*
X127475346Y-121423530D01*
D10*
X127925392Y-110609118D02*
X127996820Y-110680546D01*
X128068249Y-110894832D01*
X128068249Y-111037689D01*
X127996820Y-111251975D01*
X127853963Y-111394832D01*
X127711106Y-111466261D01*
X127425392Y-111537689D01*
X127211106Y-111537689D01*
X126925392Y-111466261D01*
X126782535Y-111394832D01*
X126639678Y-111251975D01*
X126568249Y-111037689D01*
X126568249Y-110894832D01*
X126639678Y-110680546D01*
X126711106Y-110609118D01*
X127925392Y-109109118D02*
X127996820Y-109180546D01*
X128068249Y-109394832D01*
X128068249Y-109537689D01*
X127996820Y-109751975D01*
X127853963Y-109894832D01*
X127711106Y-109966261D01*
X127425392Y-110037689D01*
X127211106Y-110037689D01*
X126925392Y-109966261D01*
X126782535Y-109894832D01*
X126639678Y-109751975D01*
X126568249Y-109537689D01*
X126568249Y-109394832D01*
X126639678Y-109180546D01*
X126711106Y-109109118D01*
X127282535Y-106823403D02*
X127353963Y-106609118D01*
X127425392Y-106537689D01*
X127568249Y-106466261D01*
X127782535Y-106466261D01*
X127925392Y-106537689D01*
X127996820Y-106609118D01*
X128068249Y-106751975D01*
X128068249Y-107323403D01*
X126568249Y-107323403D01*
X126568249Y-106823403D01*
X126639678Y-106680546D01*
X126711106Y-106609118D01*
X126853963Y-106537689D01*
X126996820Y-106537689D01*
X127139678Y-106609118D01*
X127211106Y-106680546D01*
X127282535Y-106823403D01*
X127282535Y-107323403D01*
X127353963Y-105537689D02*
X128068249Y-105537689D01*
X126568249Y-106037689D02*
X127353963Y-105537689D01*
X126568249Y-105037689D01*
X127496820Y-104537689D02*
X127496820Y-103394832D01*
X127996820Y-102751975D02*
X128068249Y-102537689D01*
X128068249Y-102180546D01*
X127996820Y-102037689D01*
X127925392Y-101966261D01*
X127782535Y-101894832D01*
X127639678Y-101894832D01*
X127496820Y-101966261D01*
X127425392Y-102037689D01*
X127353963Y-102180546D01*
X127282535Y-102466261D01*
X127211106Y-102609118D01*
X127139678Y-102680546D01*
X126996820Y-102751975D01*
X126853963Y-102751975D01*
X126711106Y-102680546D01*
X126639678Y-102609118D01*
X126568249Y-102466261D01*
X126568249Y-102109118D01*
X126639678Y-101894832D01*
X127639678Y-101323403D02*
X127639678Y-100609118D01*
X128068249Y-101466261D02*
X126568249Y-100966261D01*
X128068249Y-100466261D01*
X127068249Y-98180546D02*
X128068249Y-98180546D01*
X126496820Y-98537689D02*
X127568249Y-98894832D01*
X127568249Y-97966261D01*
X127925392Y-97394832D02*
X127996820Y-97323403D01*
X128068249Y-97394832D01*
X127996820Y-97466261D01*
X127925392Y-97394832D01*
X128068249Y-97394832D01*
X126568249Y-96394832D02*
X126568249Y-96251975D01*
X126639678Y-96109118D01*
X126711106Y-96037689D01*
X126853963Y-95966261D01*
X127139678Y-95894832D01*
X127496820Y-95894832D01*
X127782535Y-95966261D01*
X127925392Y-96037689D01*
X127996820Y-96109118D01*
X128068249Y-96251975D01*
X128068249Y-96394832D01*
X127996820Y-96537689D01*
X127925392Y-96609118D01*
X127782535Y-96680546D01*
X127496820Y-96751975D01*
X127139678Y-96751975D01*
X126853963Y-96680546D01*
X126711106Y-96609118D01*
X126639678Y-96537689D01*
X126568249Y-96394832D01*
D14*
X120295000Y-76295000D02*
X122895000Y-76295000D01*
X117695000Y-78895000D02*
X120295000Y-78895000D01*
X117695000Y-78895000D02*
X117695000Y-127215000D01*
X117695000Y-127215000D02*
X122895000Y-127215000D01*
X117695000Y-76295000D02*
X119025000Y-76295000D01*
X117695000Y-77625000D02*
X117695000Y-76295000D01*
X122895000Y-76295000D02*
X122895000Y-127215000D01*
X120295000Y-78895000D02*
X120295000Y-76295000D01*
X126440000Y-85460000D02*
X127860000Y-85460000D01*
X127860000Y-85460000D02*
X127860000Y-80960000D01*
X131750000Y-79850000D02*
X131750000Y-74350000D01*
X131750000Y-74350000D02*
X131250000Y-74350000D01*
X131500000Y-84550000D02*
X131800000Y-85150000D01*
X131800000Y-85150000D02*
X131200000Y-85150000D01*
X131250000Y-79850000D02*
X131750000Y-79850000D01*
X130250000Y-73740000D02*
X126440000Y-73740000D01*
X127860000Y-80960000D02*
X130250000Y-80960000D01*
X132640000Y-80960000D02*
X130250000Y-80960000D01*
X129250000Y-79850000D02*
X129250000Y-74350000D01*
X128750000Y-79850000D02*
X129250000Y-79850000D01*
X131200000Y-85150000D02*
X131500000Y-84550000D01*
X134060000Y-73740000D02*
X134060000Y-85460000D01*
X128750000Y-74350000D02*
X128750000Y-79850000D01*
X132640000Y-85460000D02*
X132640000Y-80960000D01*
X126440000Y-73740000D02*
X126440000Y-85460000D01*
X131250000Y-74350000D02*
X131250000Y-79850000D01*
X129250000Y-74350000D02*
X128750000Y-74350000D01*
X134060000Y-85460000D02*
X132640000Y-85460000D01*
X130250000Y-73740000D02*
X134060000Y-73740000D01*
X124295578Y-129876269D02*
X133235578Y-129876269D01*
X124367625Y-122321100D02*
X133235578Y-122321100D01*
X124295578Y-122321100D02*
X124295578Y-129876269D01*
X133235578Y-122321100D02*
X133235578Y-129876269D01*
%LPC*%
D15*
X139060000Y-77575000D03*
D16*
X141600000Y-77575000D03*
X139060000Y-80115000D03*
X141600000Y-80115000D03*
X139060000Y-82655000D03*
X141600000Y-82655000D03*
X139060000Y-85195000D03*
X141600000Y-85195000D03*
X139060000Y-87735000D03*
X141600000Y-87735000D03*
X139060000Y-90275000D03*
X141600000Y-90275000D03*
X139060000Y-92815000D03*
X141600000Y-92815000D03*
X139060000Y-95355000D03*
X141600000Y-95355000D03*
X139060000Y-97895000D03*
X141600000Y-97895000D03*
X139060000Y-100435000D03*
X141600000Y-100435000D03*
X139060000Y-102975000D03*
X141600000Y-102975000D03*
X139060000Y-105515000D03*
X141600000Y-105515000D03*
X139060000Y-108055000D03*
X141600000Y-108055000D03*
D15*
X119025000Y-77625000D03*
D16*
X121565000Y-77625000D03*
X119025000Y-80165000D03*
X121565000Y-80165000D03*
X119025000Y-82705000D03*
X121565000Y-82705000D03*
X119025000Y-85245000D03*
X121565000Y-85245000D03*
X119025000Y-87785000D03*
X121565000Y-87785000D03*
X119025000Y-90325000D03*
X121565000Y-90325000D03*
X119025000Y-92865000D03*
X121565000Y-92865000D03*
X119025000Y-95405000D03*
X121565000Y-95405000D03*
X119025000Y-97945000D03*
X121565000Y-97945000D03*
X119025000Y-100485000D03*
X121565000Y-100485000D03*
X119025000Y-103025000D03*
X121565000Y-103025000D03*
X119025000Y-105565000D03*
X121565000Y-105565000D03*
X119025000Y-108105000D03*
X121565000Y-108105000D03*
X119025000Y-110645000D03*
X121565000Y-110645000D03*
X119025000Y-113185000D03*
X121565000Y-113185000D03*
X119025000Y-115725000D03*
X121565000Y-115725000D03*
X119025000Y-118265000D03*
X121565000Y-118265000D03*
X119025000Y-120805000D03*
X121565000Y-120805000D03*
X119025000Y-123345000D03*
X121565000Y-123345000D03*
X119025000Y-125885000D03*
X121565000Y-125885000D03*
D17*
X131500000Y-83050000D03*
D18*
X129000000Y-83050000D03*
D19*
X128249746Y-123159549D03*
D20*
X130269746Y-123159549D03*
D21*
X131499746Y-123159549D03*
D19*
X129249746Y-123159549D03*
D20*
X127229746Y-123159549D03*
D21*
X125999746Y-123159549D03*
D22*
X124377800Y-127569331D03*
X133017800Y-127519654D03*
X124377800Y-123771100D03*
X133017800Y-123771100D03*
D15*
X108250000Y-77700000D03*
D16*
X110790000Y-77700000D03*
X108250000Y-80240000D03*
X110790000Y-80240000D03*
X108250000Y-82780000D03*
X110790000Y-82780000D03*
X108250000Y-85320000D03*
X110790000Y-85320000D03*
X108250000Y-87860000D03*
X110790000Y-87860000D03*
X108250000Y-90400000D03*
X110790000Y-90400000D03*
X108250000Y-92940000D03*
X110790000Y-92940000D03*
X108250000Y-95480000D03*
X110790000Y-95480000D03*
X108250000Y-98020000D03*
X110790000Y-98020000D03*
X108250000Y-100560000D03*
X110790000Y-100560000D03*
X108250000Y-103100000D03*
X110790000Y-103100000D03*
X108250000Y-105640000D03*
X110790000Y-105640000D03*
X108250000Y-108180000D03*
X110790000Y-108180000D03*
X108250000Y-110720000D03*
X110790000Y-110720000D03*
X108250000Y-113260000D03*
X110790000Y-113260000D03*
X108250000Y-115800000D03*
X110790000Y-115800000D03*
X108250000Y-118340000D03*
X110790000Y-118340000D03*
X108250000Y-120880000D03*
X110790000Y-120880000D03*
X108250000Y-123420000D03*
X110790000Y-123420000D03*
X108250000Y-125960000D03*
X110790000Y-125960000D03*
M02*
