G04 #@! TF.GenerationSoftware,KiCad,Pcbnew,7.0.5*
G04 #@! TF.CreationDate,2023-06-11T09:32:39-04:00*
G04 #@! TF.ProjectId,PI4Adapter,50493441-6461-4707-9465-722e6b696361,0.1b*
G04 #@! TF.SameCoordinates,Original*
G04 #@! TF.FileFunction,Legend,Top*
G04 #@! TF.FilePolarity,Positive*
%FSLAX46Y46*%
G04 Gerber Fmt 4.6, Leading zero omitted, Abs format (unit mm)*
G04 Created by KiCad (PCBNEW 7.0.5) date 2023-06-11 09:32:39*
%MOMM*%
%LPD*%
G01*
G04 APERTURE LIST*
G04 Aperture macros list*
%AMRoundRect*
0 Rectangle with rounded corners*
0 $1 Rounding radius*
0 $2 $3 $4 $5 $6 $7 $8 $9 X,Y pos of 4 corners*
0 Add a 4 corners polygon primitive as box body*
4,1,4,$2,$3,$4,$5,$6,$7,$8,$9,$2,$3,0*
0 Add four circle primitives for the rounded corners*
1,1,$1+$1,$2,$3*
1,1,$1+$1,$4,$5*
1,1,$1+$1,$6,$7*
1,1,$1+$1,$8,$9*
0 Add four rect primitives between the rounded corners*
20,1,$1+$1,$2,$3,$4,$5,0*
20,1,$1+$1,$4,$5,$6,$7,0*
20,1,$1+$1,$6,$7,$8,$9,0*
20,1,$1+$1,$8,$9,$2,$3,0*%
G04 Aperture macros list end*
%ADD10C,0.150000*%
%ADD11C,0.120000*%
%ADD12R,1.700000X1.700000*%
%ADD13O,1.700000X1.700000*%
%ADD14R,0.700000X1.200000*%
%ADD15R,0.760000X1.200000*%
%ADD16R,0.800000X1.200000*%
%ADD17R,1.800000X1.350000*%
%ADD18R,1.800000X1.500000*%
%ADD19RoundRect,0.250000X0.600000X0.750000X-0.600000X0.750000X-0.600000X-0.750000X0.600000X-0.750000X0*%
%ADD20O,1.700000X2.000000*%
G04 #@! TA.AperFunction,Profile*
%ADD21C,0.100000*%
G04 #@! TD*
G04 APERTURE END LIST*
D10*
X139687493Y-74434819D02*
X139687493Y-75149104D01*
X139687493Y-75149104D02*
X139639874Y-75291961D01*
X139639874Y-75291961D02*
X139544636Y-75387200D01*
X139544636Y-75387200D02*
X139401779Y-75434819D01*
X139401779Y-75434819D02*
X139306541Y-75434819D01*
X140068446Y-74434819D02*
X140687493Y-74434819D01*
X140687493Y-74434819D02*
X140354160Y-74815771D01*
X140354160Y-74815771D02*
X140497017Y-74815771D01*
X140497017Y-74815771D02*
X140592255Y-74863390D01*
X140592255Y-74863390D02*
X140639874Y-74911009D01*
X140639874Y-74911009D02*
X140687493Y-75006247D01*
X140687493Y-75006247D02*
X140687493Y-75244342D01*
X140687493Y-75244342D02*
X140639874Y-75339580D01*
X140639874Y-75339580D02*
X140592255Y-75387200D01*
X140592255Y-75387200D02*
X140497017Y-75434819D01*
X140497017Y-75434819D02*
X140211303Y-75434819D01*
X140211303Y-75434819D02*
X140116065Y-75387200D01*
X140116065Y-75387200D02*
X140068446Y-75339580D01*
D11*
X114240000Y-76295000D02*
X115570000Y-76295000D01*
X114240000Y-77625000D02*
X114240000Y-76295000D01*
X114240000Y-78895000D02*
X114240000Y-127215000D01*
X114240000Y-78895000D02*
X116840000Y-78895000D01*
X114240000Y-127215000D02*
X119440000Y-127215000D01*
X116840000Y-76295000D02*
X119440000Y-76295000D01*
X116840000Y-78895000D02*
X116840000Y-76295000D01*
X119440000Y-76295000D02*
X119440000Y-127215000D01*
X124305000Y-124262500D02*
X124305000Y-126017500D01*
X124305000Y-127965000D02*
X124305000Y-129365000D01*
X133505000Y-124262500D02*
X133505000Y-126017500D01*
X133505000Y-127965000D02*
X133505000Y-129365000D01*
X132080000Y-85460000D02*
X130660000Y-85460000D01*
X132080000Y-73740000D02*
X132080000Y-85460000D01*
X130660000Y-85460000D02*
X130660000Y-80960000D01*
X130660000Y-80960000D02*
X128270000Y-80960000D01*
X129820000Y-85150000D02*
X129220000Y-85150000D01*
X129770000Y-79850000D02*
X129770000Y-74350000D01*
X129770000Y-74350000D02*
X129270000Y-74350000D01*
X129520000Y-84550000D02*
X129820000Y-85150000D01*
X129270000Y-79850000D02*
X129770000Y-79850000D01*
X129270000Y-74350000D02*
X129270000Y-79850000D01*
X129220000Y-85150000D02*
X129520000Y-84550000D01*
X128270000Y-73740000D02*
X132080000Y-73740000D01*
X128270000Y-73740000D02*
X124460000Y-73740000D01*
X127270000Y-79850000D02*
X127270000Y-74350000D01*
X127270000Y-74350000D02*
X126770000Y-74350000D01*
X126770000Y-79850000D02*
X127270000Y-79850000D01*
X126770000Y-74350000D02*
X126770000Y-79850000D01*
X125880000Y-85460000D02*
X125880000Y-80960000D01*
X125880000Y-80960000D02*
X128270000Y-80960000D01*
X124460000Y-85460000D02*
X125880000Y-85460000D01*
X124460000Y-73740000D02*
X124460000Y-85460000D01*
%LPC*%
D12*
X115570000Y-77625000D03*
D13*
X118110000Y-77625000D03*
X115570000Y-80165000D03*
X118110000Y-80165000D03*
X115570000Y-82705000D03*
X118110000Y-82705000D03*
X115570000Y-85245000D03*
X118110000Y-85245000D03*
X115570000Y-87785000D03*
X118110000Y-87785000D03*
X115570000Y-90325000D03*
X118110000Y-90325000D03*
X115570000Y-92865000D03*
X118110000Y-92865000D03*
X115570000Y-95405000D03*
X118110000Y-95405000D03*
X115570000Y-97945000D03*
X118110000Y-97945000D03*
X115570000Y-100485000D03*
X118110000Y-100485000D03*
X115570000Y-103025000D03*
X118110000Y-103025000D03*
X115570000Y-105565000D03*
X118110000Y-105565000D03*
X115570000Y-108105000D03*
X118110000Y-108105000D03*
X115570000Y-110645000D03*
X118110000Y-110645000D03*
X115570000Y-113185000D03*
X118110000Y-113185000D03*
X115570000Y-115725000D03*
X118110000Y-115725000D03*
X115570000Y-118265000D03*
X118110000Y-118265000D03*
X115570000Y-120805000D03*
X118110000Y-120805000D03*
X115570000Y-123345000D03*
X118110000Y-123345000D03*
X115570000Y-125885000D03*
X118110000Y-125885000D03*
D14*
X128405000Y-123332500D03*
D15*
X130425000Y-123332500D03*
D16*
X131655000Y-123332500D03*
D14*
X129405000Y-123332500D03*
D15*
X127385000Y-123332500D03*
D16*
X126155000Y-123332500D03*
D17*
X123780000Y-123387500D03*
D18*
X123780000Y-126967500D03*
D17*
X134030000Y-123387500D03*
D18*
X134030000Y-126967500D03*
D19*
X129520000Y-83050000D03*
D20*
X127020000Y-83050000D03*
D12*
X108250000Y-77700000D03*
D13*
X110790000Y-77700000D03*
X108250000Y-80240000D03*
X110790000Y-80240000D03*
X108250000Y-82780000D03*
X110790000Y-82780000D03*
X108250000Y-85320000D03*
X110790000Y-85320000D03*
X108250000Y-87860000D03*
X110790000Y-87860000D03*
X108250000Y-90400000D03*
X110790000Y-90400000D03*
X108250000Y-92940000D03*
X110790000Y-92940000D03*
X108250000Y-95480000D03*
X110790000Y-95480000D03*
X108250000Y-98020000D03*
X110790000Y-98020000D03*
X108250000Y-100560000D03*
X110790000Y-100560000D03*
X108250000Y-103100000D03*
X110790000Y-103100000D03*
X108250000Y-105640000D03*
X110790000Y-105640000D03*
X108250000Y-108180000D03*
X110790000Y-108180000D03*
X108250000Y-110720000D03*
X110790000Y-110720000D03*
X108250000Y-113260000D03*
X110790000Y-113260000D03*
X108250000Y-115800000D03*
X110790000Y-115800000D03*
X108250000Y-118340000D03*
X110790000Y-118340000D03*
X108250000Y-120880000D03*
X110790000Y-120880000D03*
X108250000Y-123420000D03*
X110790000Y-123420000D03*
X108250000Y-125960000D03*
X110790000Y-125960000D03*
D12*
X139060000Y-77575000D03*
D13*
X141600000Y-77575000D03*
X139060000Y-80115000D03*
X141600000Y-80115000D03*
X139060000Y-82655000D03*
X141600000Y-82655000D03*
X139060000Y-85195000D03*
X141600000Y-85195000D03*
X139060000Y-87735000D03*
X141600000Y-87735000D03*
X139060000Y-90275000D03*
X141600000Y-90275000D03*
X139060000Y-92815000D03*
X141600000Y-92815000D03*
X139060000Y-95355000D03*
X141600000Y-95355000D03*
X139060000Y-97895000D03*
X141600000Y-97895000D03*
X139060000Y-100435000D03*
X141600000Y-100435000D03*
X139060000Y-102975000D03*
X141600000Y-102975000D03*
X139060000Y-105515000D03*
X141600000Y-105515000D03*
X139060000Y-108055000D03*
X141600000Y-108055000D03*
%LPD*%
D21*
X108235592Y-73600000D02*
X143700000Y-73600000D01*
X132750001Y-129900045D02*
G75*
G03*
X137000000Y-125550000I-52401J4302345D01*
G01*
X143700000Y-112350000D02*
X137000000Y-112350000D01*
X143700000Y-73600000D02*
X143700000Y-112350000D01*
X104000004Y-125685592D02*
G75*
G03*
X108361560Y-129900000I4256596J41092D01*
G01*
X104000000Y-125685592D02*
X104000000Y-77907877D01*
X132750000Y-129900000D02*
X108361560Y-129900000D01*
X108235592Y-73599997D02*
G75*
G03*
X104000001Y-77907877I-46932J-4190053D01*
G01*
X137000000Y-112350000D02*
X137000000Y-125550000D01*
M02*
