G04 #@! TF.GenerationSoftware,KiCad,Pcbnew,(6.0.0)*
G04 #@! TF.CreationDate,2022-05-07T15:13:21-04:00*
G04 #@! TF.ProjectId,PI4Adapter,50493441-6461-4707-9465-722e6b696361,0.1b*
G04 #@! TF.SameCoordinates,Original*
G04 #@! TF.FileFunction,Soldermask,Bot*
G04 #@! TF.FilePolarity,Negative*
%FSLAX46Y46*%
G04 Gerber Fmt 4.6, Leading zero omitted, Abs format (unit mm)*
G04 Created by KiCad (PCBNEW (6.0.0)) date 2022-05-07 15:13:21*
%MOMM*%
%LPD*%
G01*
G04 APERTURE LIST*
G04 Aperture macros list*
%AMRoundRect*
0 Rectangle with rounded corners*
0 $1 Rounding radius*
0 $2 $3 $4 $5 $6 $7 $8 $9 X,Y pos of 4 corners*
0 Add a 4 corners polygon primitive as box body*
4,1,4,$2,$3,$4,$5,$6,$7,$8,$9,$2,$3,0*
0 Add four circle primitives for the rounded corners*
1,1,$1+$1,$2,$3*
1,1,$1+$1,$4,$5*
1,1,$1+$1,$6,$7*
1,1,$1+$1,$8,$9*
0 Add four rect primitives between the rounded corners*
20,1,$1+$1,$2,$3,$4,$5,0*
20,1,$1+$1,$4,$5,$6,$7,0*
20,1,$1+$1,$6,$7,$8,$9,0*
20,1,$1+$1,$8,$9,$2,$3,0*%
G04 Aperture macros list end*
G04 #@! TA.AperFunction,Profile*
%ADD10C,0.100000*%
G04 #@! TD*
%ADD11R,1.700000X1.700000*%
%ADD12O,1.700000X1.700000*%
%ADD13RoundRect,0.250000X0.600000X0.750000X-0.600000X0.750000X-0.600000X-0.750000X0.600000X-0.750000X0*%
%ADD14O,1.700000X2.000000*%
%ADD15O,1.100000X1.700000*%
G04 APERTURE END LIST*
D10*
X137000000Y-75600000D02*
X143300000Y-75600000D01*
X108235592Y-73600000D02*
X137000000Y-73600000D01*
X132750000Y-129899999D02*
G75*
G03*
X137000000Y-125550000I-52366J4302311D01*
G01*
X143300000Y-109950000D02*
X137000000Y-109950000D01*
X143300000Y-75600000D02*
X143300000Y-109950000D01*
X104000000Y-125685592D02*
G75*
G03*
X108361560Y-129900000I4256623J41120D01*
G01*
X104000000Y-125685592D02*
X104000000Y-77907877D01*
X132750000Y-129900000D02*
X108361560Y-129900000D01*
X137000000Y-73600000D02*
X137000000Y-75600000D01*
X108235592Y-73600000D02*
G75*
G03*
X104000000Y-77907877I-46932J-4190054D01*
G01*
X137000000Y-109950000D02*
X137000000Y-125550000D01*
D11*
X139060000Y-77575000D03*
D12*
X141600000Y-77575000D03*
X139060000Y-80115000D03*
X141600000Y-80115000D03*
X139060000Y-82655000D03*
X141600000Y-82655000D03*
X139060000Y-85195000D03*
X141600000Y-85195000D03*
X139060000Y-87735000D03*
X141600000Y-87735000D03*
X139060000Y-90275000D03*
X141600000Y-90275000D03*
X139060000Y-92815000D03*
X141600000Y-92815000D03*
X139060000Y-95355000D03*
X141600000Y-95355000D03*
X139060000Y-97895000D03*
X141600000Y-97895000D03*
X139060000Y-100435000D03*
X141600000Y-100435000D03*
X139060000Y-102975000D03*
X141600000Y-102975000D03*
X139060000Y-105515000D03*
X141600000Y-105515000D03*
X139060000Y-108055000D03*
X141600000Y-108055000D03*
D11*
X119025000Y-77625000D03*
D12*
X121565000Y-77625000D03*
X119025000Y-80165000D03*
X121565000Y-80165000D03*
X119025000Y-82705000D03*
X121565000Y-82705000D03*
X119025000Y-85245000D03*
X121565000Y-85245000D03*
X119025000Y-87785000D03*
X121565000Y-87785000D03*
X119025000Y-90325000D03*
X121565000Y-90325000D03*
X119025000Y-92865000D03*
X121565000Y-92865000D03*
X119025000Y-95405000D03*
X121565000Y-95405000D03*
X119025000Y-97945000D03*
X121565000Y-97945000D03*
X119025000Y-100485000D03*
X121565000Y-100485000D03*
X119025000Y-103025000D03*
X121565000Y-103025000D03*
X119025000Y-105565000D03*
X121565000Y-105565000D03*
X119025000Y-108105000D03*
X121565000Y-108105000D03*
X119025000Y-110645000D03*
X121565000Y-110645000D03*
X119025000Y-113185000D03*
X121565000Y-113185000D03*
X119025000Y-115725000D03*
X121565000Y-115725000D03*
X119025000Y-118265000D03*
X121565000Y-118265000D03*
X119025000Y-120805000D03*
X121565000Y-120805000D03*
X119025000Y-123345000D03*
X121565000Y-123345000D03*
X119025000Y-125885000D03*
X121565000Y-125885000D03*
D13*
X131500000Y-83050000D03*
D14*
X129000000Y-83050000D03*
D15*
X124377800Y-127569331D03*
X133017800Y-127519654D03*
X124377800Y-123771100D03*
X133017800Y-123771100D03*
D11*
X108250000Y-77700000D03*
D12*
X110790000Y-77700000D03*
X108250000Y-80240000D03*
X110790000Y-80240000D03*
X108250000Y-82780000D03*
X110790000Y-82780000D03*
X108250000Y-85320000D03*
X110790000Y-85320000D03*
X108250000Y-87860000D03*
X110790000Y-87860000D03*
X108250000Y-90400000D03*
X110790000Y-90400000D03*
X108250000Y-92940000D03*
X110790000Y-92940000D03*
X108250000Y-95480000D03*
X110790000Y-95480000D03*
X108250000Y-98020000D03*
X110790000Y-98020000D03*
X108250000Y-100560000D03*
X110790000Y-100560000D03*
X108250000Y-103100000D03*
X110790000Y-103100000D03*
X108250000Y-105640000D03*
X110790000Y-105640000D03*
X108250000Y-108180000D03*
X110790000Y-108180000D03*
X108250000Y-110720000D03*
X110790000Y-110720000D03*
X108250000Y-113260000D03*
X110790000Y-113260000D03*
X108250000Y-115800000D03*
X110790000Y-115800000D03*
X108250000Y-118340000D03*
X110790000Y-118340000D03*
X108250000Y-120880000D03*
X110790000Y-120880000D03*
X108250000Y-123420000D03*
X110790000Y-123420000D03*
X108250000Y-125960000D03*
X110790000Y-125960000D03*
M02*
