G04 #@! TF.GenerationSoftware,KiCad,Pcbnew,7.0.5*
G04 #@! TF.CreationDate,2023-06-11T09:32:39-04:00*
G04 #@! TF.ProjectId,PI4Adapter,50493441-6461-4707-9465-722e6b696361,0.1b*
G04 #@! TF.SameCoordinates,Original*
G04 #@! TF.FileFunction,Copper,L2,Bot*
G04 #@! TF.FilePolarity,Positive*
%FSLAX46Y46*%
G04 Gerber Fmt 4.6, Leading zero omitted, Abs format (unit mm)*
G04 Created by KiCad (PCBNEW 7.0.5) date 2023-06-11 09:32:39*
%MOMM*%
%LPD*%
G01*
G04 APERTURE LIST*
G04 Aperture macros list*
%AMRoundRect*
0 Rectangle with rounded corners*
0 $1 Rounding radius*
0 $2 $3 $4 $5 $6 $7 $8 $9 X,Y pos of 4 corners*
0 Add a 4 corners polygon primitive as box body*
4,1,4,$2,$3,$4,$5,$6,$7,$8,$9,$2,$3,0*
0 Add four circle primitives for the rounded corners*
1,1,$1+$1,$2,$3*
1,1,$1+$1,$4,$5*
1,1,$1+$1,$6,$7*
1,1,$1+$1,$8,$9*
0 Add four rect primitives between the rounded corners*
20,1,$1+$1,$2,$3,$4,$5,0*
20,1,$1+$1,$4,$5,$6,$7,0*
20,1,$1+$1,$6,$7,$8,$9,0*
20,1,$1+$1,$8,$9,$2,$3,0*%
G04 Aperture macros list end*
G04 #@! TA.AperFunction,ComponentPad*
%ADD10R,1.700000X1.700000*%
G04 #@! TD*
G04 #@! TA.AperFunction,ComponentPad*
%ADD11O,1.700000X1.700000*%
G04 #@! TD*
G04 #@! TA.AperFunction,ComponentPad*
%ADD12RoundRect,0.250000X0.600000X0.750000X-0.600000X0.750000X-0.600000X-0.750000X0.600000X-0.750000X0*%
G04 #@! TD*
G04 #@! TA.AperFunction,ComponentPad*
%ADD13O,1.700000X2.000000*%
G04 #@! TD*
G04 #@! TA.AperFunction,Conductor*
%ADD14C,0.400000*%
G04 #@! TD*
G04 #@! TA.AperFunction,Conductor*
%ADD15C,0.250000*%
G04 #@! TD*
G04 #@! TA.AperFunction,Profile*
%ADD16C,0.100000*%
G04 #@! TD*
G04 APERTURE END LIST*
D10*
X115570000Y-77625000D03*
D11*
X118110000Y-77625000D03*
X115570000Y-80165000D03*
X118110000Y-80165000D03*
X115570000Y-82705000D03*
X118110000Y-82705000D03*
X115570000Y-85245000D03*
X118110000Y-85245000D03*
X115570000Y-87785000D03*
X118110000Y-87785000D03*
X115570000Y-90325000D03*
X118110000Y-90325000D03*
X115570000Y-92865000D03*
X118110000Y-92865000D03*
X115570000Y-95405000D03*
X118110000Y-95405000D03*
X115570000Y-97945000D03*
X118110000Y-97945000D03*
X115570000Y-100485000D03*
X118110000Y-100485000D03*
X115570000Y-103025000D03*
X118110000Y-103025000D03*
X115570000Y-105565000D03*
X118110000Y-105565000D03*
X115570000Y-108105000D03*
X118110000Y-108105000D03*
X115570000Y-110645000D03*
X118110000Y-110645000D03*
X115570000Y-113185000D03*
X118110000Y-113185000D03*
X115570000Y-115725000D03*
X118110000Y-115725000D03*
X115570000Y-118265000D03*
X118110000Y-118265000D03*
X115570000Y-120805000D03*
X118110000Y-120805000D03*
X115570000Y-123345000D03*
X118110000Y-123345000D03*
X115570000Y-125885000D03*
X118110000Y-125885000D03*
D12*
X129520000Y-83050000D03*
D13*
X127020000Y-83050000D03*
D10*
X108250000Y-77700000D03*
D11*
X110790000Y-77700000D03*
X108250000Y-80240000D03*
X110790000Y-80240000D03*
X108250000Y-82780000D03*
X110790000Y-82780000D03*
X108250000Y-85320000D03*
X110790000Y-85320000D03*
X108250000Y-87860000D03*
X110790000Y-87860000D03*
X108250000Y-90400000D03*
X110790000Y-90400000D03*
X108250000Y-92940000D03*
X110790000Y-92940000D03*
X108250000Y-95480000D03*
X110790000Y-95480000D03*
X108250000Y-98020000D03*
X110790000Y-98020000D03*
X108250000Y-100560000D03*
X110790000Y-100560000D03*
X108250000Y-103100000D03*
X110790000Y-103100000D03*
X108250000Y-105640000D03*
X110790000Y-105640000D03*
X108250000Y-108180000D03*
X110790000Y-108180000D03*
X108250000Y-110720000D03*
X110790000Y-110720000D03*
X108250000Y-113260000D03*
X110790000Y-113260000D03*
X108250000Y-115800000D03*
X110790000Y-115800000D03*
X108250000Y-118340000D03*
X110790000Y-118340000D03*
X108250000Y-120880000D03*
X110790000Y-120880000D03*
X108250000Y-123420000D03*
X110790000Y-123420000D03*
X108250000Y-125960000D03*
X110790000Y-125960000D03*
D10*
X139060000Y-77575000D03*
D11*
X141600000Y-77575000D03*
X139060000Y-80115000D03*
X141600000Y-80115000D03*
X139060000Y-82655000D03*
X141600000Y-82655000D03*
X139060000Y-85195000D03*
X141600000Y-85195000D03*
X139060000Y-87735000D03*
X141600000Y-87735000D03*
X139060000Y-90275000D03*
X141600000Y-90275000D03*
X139060000Y-92815000D03*
X141600000Y-92815000D03*
X139060000Y-95355000D03*
X141600000Y-95355000D03*
X139060000Y-97895000D03*
X141600000Y-97895000D03*
X139060000Y-100435000D03*
X141600000Y-100435000D03*
X139060000Y-102975000D03*
X141600000Y-102975000D03*
X139060000Y-105515000D03*
X141600000Y-105515000D03*
X139060000Y-108055000D03*
X141600000Y-108055000D03*
D14*
X140230700Y-81384300D02*
X131185700Y-81384300D01*
X131185700Y-81384300D02*
X129520000Y-83050000D01*
X141500000Y-80115000D02*
X140230700Y-81384300D01*
X141600000Y-80115000D02*
X141500000Y-80115000D01*
D15*
X110249700Y-78890600D02*
X113127500Y-78890600D01*
X108250000Y-77700000D02*
X109426900Y-77700000D01*
X109426900Y-77700000D02*
X109426900Y-78067800D01*
X109426900Y-78067800D02*
X110249700Y-78890600D01*
X116933100Y-125519200D02*
X116933100Y-125885000D01*
X116108300Y-124694400D02*
X116933100Y-125519200D01*
X113232500Y-124694400D02*
X116108300Y-124694400D01*
X111966900Y-125960000D02*
X113232500Y-124694400D01*
X110790000Y-125960000D02*
X111966900Y-125960000D01*
X118110000Y-125885000D02*
X116933100Y-125885000D01*
X116933100Y-122979200D02*
X116933100Y-123345000D01*
X116108300Y-122154400D02*
X116933100Y-122979200D01*
X113232500Y-122154400D02*
X116108300Y-122154400D01*
X111966900Y-123420000D02*
X113232500Y-122154400D01*
X110790000Y-123420000D02*
X111966900Y-123420000D01*
X118110000Y-123345000D02*
X116933100Y-123345000D01*
X109426900Y-123785800D02*
X109426900Y-123420000D01*
X110251700Y-124610600D02*
X109426900Y-123785800D01*
X112474100Y-124610600D02*
X110251700Y-124610600D01*
X113739700Y-123345000D02*
X112474100Y-124610600D01*
X115570000Y-123345000D02*
X113739700Y-123345000D01*
X108250000Y-123420000D02*
X109426900Y-123420000D01*
X109426900Y-121245800D02*
X109426900Y-120880000D01*
X110251700Y-122070600D02*
X109426900Y-121245800D01*
X112474100Y-122070600D02*
X110251700Y-122070600D01*
X113739700Y-120805000D02*
X112474100Y-122070600D01*
X115570000Y-120805000D02*
X113739700Y-120805000D01*
X108250000Y-120880000D02*
X109426900Y-120880000D01*
X114093000Y-118565100D02*
X114393100Y-118265000D01*
X113576400Y-118565100D02*
X114093000Y-118565100D01*
X112612400Y-119529100D02*
X113576400Y-118565100D01*
X110248200Y-119529100D02*
X112612400Y-119529100D01*
X109426900Y-118707800D02*
X110248200Y-119529100D01*
X109426900Y-118340000D02*
X109426900Y-118707800D01*
X108250000Y-118340000D02*
X109426900Y-118340000D01*
X115570000Y-118265000D02*
X114393100Y-118265000D01*
X108250000Y-115800000D02*
X109426900Y-115800000D01*
X115570000Y-115725000D02*
X114393100Y-115725000D01*
X109426900Y-116167800D02*
X109426900Y-115800000D01*
X110237300Y-116978200D02*
X109426900Y-116167800D01*
X113139900Y-116978200D02*
X110237300Y-116978200D01*
X114393100Y-115725000D02*
X113139900Y-116978200D01*
X109426900Y-113625800D02*
X109426900Y-113260000D01*
X110260000Y-114458900D02*
X109426900Y-113625800D01*
X113119200Y-114458900D02*
X110260000Y-114458900D01*
X114393100Y-113185000D02*
X113119200Y-114458900D01*
X115570000Y-113185000D02*
X114393100Y-113185000D01*
X108250000Y-113260000D02*
X109426900Y-113260000D01*
X116933100Y-111010800D02*
X116933100Y-110645000D01*
X116103600Y-111840300D02*
X116933100Y-111010800D01*
X113087200Y-111840300D02*
X116103600Y-111840300D01*
X111966900Y-110720000D02*
X113087200Y-111840300D01*
X110790000Y-110720000D02*
X111966900Y-110720000D01*
X118110000Y-110645000D02*
X116933100Y-110645000D01*
X109426900Y-110354200D02*
X109426900Y-110720000D01*
X110256400Y-109524700D02*
X109426900Y-110354200D01*
X113272800Y-109524700D02*
X110256400Y-109524700D01*
X114393100Y-110645000D02*
X113272800Y-109524700D01*
X115570000Y-110645000D02*
X114393100Y-110645000D01*
X108250000Y-110720000D02*
X109426900Y-110720000D01*
X116933100Y-107739200D02*
X116933100Y-108105000D01*
X116109800Y-106915900D02*
X116933100Y-107739200D01*
X113231000Y-106915900D02*
X116109800Y-106915900D01*
X111966900Y-108180000D02*
X113231000Y-106915900D01*
X110790000Y-108180000D02*
X111966900Y-108180000D01*
X118110000Y-108105000D02*
X116933100Y-108105000D01*
X120555900Y-106836000D02*
X119286900Y-108105000D01*
X139571900Y-106836000D02*
X120555900Y-106836000D01*
X140423100Y-107687200D02*
X139571900Y-106836000D01*
X140423100Y-108055000D02*
X140423100Y-107687200D01*
X141600000Y-108055000D02*
X140423100Y-108055000D01*
X118110000Y-108105000D02*
X119286900Y-108105000D01*
X120515300Y-104336600D02*
X119286900Y-105565000D01*
X139612500Y-104336600D02*
X120515300Y-104336600D01*
X140423100Y-105147200D02*
X139612500Y-104336600D01*
X140423100Y-105515000D02*
X140423100Y-105147200D01*
X141600000Y-105515000D02*
X140423100Y-105515000D01*
X118110000Y-105565000D02*
X119286900Y-105565000D01*
X109426900Y-105274200D02*
X109426900Y-105640000D01*
X110256400Y-104444700D02*
X109426900Y-105274200D01*
X113272800Y-104444700D02*
X110256400Y-104444700D01*
X114393100Y-105565000D02*
X113272800Y-104444700D01*
X115570000Y-105565000D02*
X114393100Y-105565000D01*
X108250000Y-105640000D02*
X109426900Y-105640000D01*
X115570000Y-105565000D02*
X116746900Y-105565000D01*
X116746900Y-105930800D02*
X116746900Y-105565000D01*
X117558700Y-106742600D02*
X116746900Y-105930800D01*
X118833300Y-106742600D02*
X117558700Y-106742600D01*
X120060900Y-105515000D02*
X118833300Y-106742600D01*
X139060000Y-105515000D02*
X120060900Y-105515000D01*
X120515300Y-101796600D02*
X119286900Y-103025000D01*
X139612500Y-101796600D02*
X120515300Y-101796600D01*
X140423100Y-102607200D02*
X139612500Y-101796600D01*
X140423100Y-102975000D02*
X140423100Y-102607200D01*
X141600000Y-102975000D02*
X140423100Y-102975000D01*
X118110000Y-103025000D02*
X119286900Y-103025000D01*
X116746900Y-103390800D02*
X116746900Y-103025000D01*
X117571700Y-104215600D02*
X116746900Y-103390800D01*
X119794100Y-104215600D02*
X117571700Y-104215600D01*
X121034700Y-102975000D02*
X119794100Y-104215600D01*
X139060000Y-102975000D02*
X121034700Y-102975000D01*
X115570000Y-103025000D02*
X116746900Y-103025000D01*
X108250000Y-103100000D02*
X109426900Y-103100000D01*
X115570000Y-103025000D02*
X114393100Y-103025000D01*
X113272900Y-101904800D02*
X114393100Y-103025000D01*
X110254300Y-101904800D02*
X113272900Y-101904800D01*
X109426900Y-102732200D02*
X110254300Y-101904800D01*
X109426900Y-103100000D02*
X109426900Y-102732200D01*
X115570000Y-100485000D02*
X116746900Y-100485000D01*
X113272900Y-99364800D02*
X114393100Y-100485000D01*
X110254300Y-99364800D02*
X113272900Y-99364800D01*
X109426900Y-100192200D02*
X110254300Y-99364800D01*
X109426900Y-100560000D02*
X109426900Y-100192200D01*
X108250000Y-100560000D02*
X109426900Y-100560000D01*
X115570000Y-100485000D02*
X114393100Y-100485000D01*
X128548800Y-100435000D02*
X139060000Y-100435000D01*
X127408000Y-99294200D02*
X128548800Y-100435000D01*
X117577500Y-99294200D02*
X127408000Y-99294200D01*
X116746900Y-100124800D02*
X117577500Y-99294200D01*
X116746900Y-100485000D02*
X116746900Y-100124800D01*
X119774500Y-98432600D02*
X119286900Y-97945000D01*
X137066700Y-98432600D02*
X119774500Y-98432600D01*
X137718400Y-99084300D02*
X137066700Y-98432600D01*
X139601600Y-99084300D02*
X137718400Y-99084300D01*
X140423100Y-98262800D02*
X139601600Y-99084300D01*
X140423100Y-97895000D02*
X140423100Y-98262800D01*
X141600000Y-97895000D02*
X140423100Y-97895000D01*
X118110000Y-97945000D02*
X119286900Y-97945000D01*
X140423100Y-95720800D02*
X140423100Y-95355000D01*
X139595200Y-96548700D02*
X140423100Y-95720800D01*
X136534600Y-96548700D02*
X139595200Y-96548700D01*
X135390900Y-95405000D02*
X136534600Y-96548700D01*
X118110000Y-95405000D02*
X135390900Y-95405000D01*
X141600000Y-95355000D02*
X140423100Y-95355000D01*
X109426900Y-95114200D02*
X109426900Y-95480000D01*
X110256400Y-94284700D02*
X109426900Y-95114200D01*
X113272800Y-94284700D02*
X110256400Y-94284700D01*
X114393100Y-95405000D02*
X113272800Y-94284700D01*
X115570000Y-95405000D02*
X114393100Y-95405000D01*
X108250000Y-95480000D02*
X109426900Y-95480000D01*
X116746900Y-95039200D02*
X116746900Y-95405000D01*
X117574900Y-94211200D02*
X116746900Y-95039200D01*
X136739300Y-94211200D02*
X117574900Y-94211200D01*
X137883100Y-95355000D02*
X136739300Y-94211200D01*
X139060000Y-95355000D02*
X137883100Y-95355000D01*
X115570000Y-95405000D02*
X116746900Y-95405000D01*
X139060000Y-92815000D02*
X137883100Y-92815000D01*
X115570000Y-92865000D02*
X116746900Y-92865000D01*
X113272900Y-91744800D02*
X114393100Y-92865000D01*
X110254300Y-91744800D02*
X113272900Y-91744800D01*
X109426900Y-92572200D02*
X110254300Y-91744800D01*
X109426900Y-92940000D02*
X109426900Y-92572200D01*
X108250000Y-92940000D02*
X109426900Y-92940000D01*
X115570000Y-92865000D02*
X114393100Y-92865000D01*
X136604900Y-92815000D02*
X137883100Y-92815000D01*
X135464100Y-91674200D02*
X136604900Y-92815000D01*
X117571900Y-91674200D02*
X135464100Y-91674200D01*
X116746900Y-92499200D02*
X117571900Y-91674200D01*
X116746900Y-92865000D02*
X116746900Y-92499200D01*
X135072300Y-90325000D02*
X118110000Y-90325000D01*
X136208300Y-91461000D02*
X135072300Y-90325000D01*
X139604900Y-91461000D02*
X136208300Y-91461000D01*
X140423100Y-90642800D02*
X139604900Y-91461000D01*
X140423100Y-90275000D02*
X140423100Y-90642800D01*
X141600000Y-90275000D02*
X140423100Y-90275000D01*
X139060000Y-90275000D02*
X137883100Y-90275000D01*
X115570000Y-90325000D02*
X116746900Y-90325000D01*
X113272900Y-89204800D02*
X114393100Y-90325000D01*
X110254300Y-89204800D02*
X113272900Y-89204800D01*
X109426900Y-90032200D02*
X110254300Y-89204800D01*
X109426900Y-90400000D02*
X109426900Y-90032200D01*
X108250000Y-90400000D02*
X109426900Y-90400000D01*
X115570000Y-90325000D02*
X114393100Y-90325000D01*
X136604900Y-90275000D02*
X137883100Y-90275000D01*
X135464100Y-89134200D02*
X136604900Y-90275000D01*
X117571900Y-89134200D02*
X135464100Y-89134200D01*
X116746900Y-89959200D02*
X117571900Y-89134200D01*
X116746900Y-90325000D02*
X116746900Y-89959200D01*
X110790000Y-87860000D02*
X111966900Y-87860000D01*
X118110000Y-87785000D02*
X116933100Y-87785000D01*
X135072300Y-87785000D02*
X118110000Y-87785000D01*
X136234000Y-88946700D02*
X135072300Y-87785000D01*
X139579200Y-88946700D02*
X136234000Y-88946700D01*
X140423100Y-88102800D02*
X139579200Y-88946700D01*
X140423100Y-87735000D02*
X140423100Y-88102800D01*
X141600000Y-87735000D02*
X140423100Y-87735000D01*
X116933100Y-88086300D02*
X116933100Y-87785000D01*
X116057500Y-88961900D02*
X116933100Y-88086300D01*
X115082500Y-88961900D02*
X116057500Y-88961900D01*
X113980600Y-87860000D02*
X115082500Y-88961900D01*
X111966900Y-87860000D02*
X113980600Y-87860000D01*
X141600000Y-85195000D02*
X140423100Y-85195000D01*
X113241700Y-84045200D02*
X111966900Y-85320000D01*
X116101100Y-84045200D02*
X113241700Y-84045200D01*
X116933100Y-84877200D02*
X116101100Y-84045200D01*
X116933100Y-85245000D02*
X116933100Y-84877200D01*
X118110000Y-85245000D02*
X116933100Y-85245000D01*
X110790000Y-85320000D02*
X111966900Y-85320000D01*
X140423100Y-84827200D02*
X140423100Y-85195000D01*
X139578800Y-83982900D02*
X140423100Y-84827200D01*
X133238700Y-83982900D02*
X139578800Y-83982900D01*
X131976600Y-85245000D02*
X133238700Y-83982900D01*
X118110000Y-85245000D02*
X131976600Y-85245000D01*
X139060000Y-85195000D02*
X137883100Y-85195000D01*
X136642500Y-86435600D02*
X137883100Y-85195000D01*
X116760600Y-86435600D02*
X136642500Y-86435600D01*
X115570000Y-85245000D02*
X116760600Y-86435600D01*
X108250000Y-85320000D02*
X109426900Y-85320000D01*
X109426900Y-85685800D02*
X109426900Y-85320000D01*
X110256100Y-86515000D02*
X109426900Y-85685800D01*
X113123100Y-86515000D02*
X110256100Y-86515000D01*
X114393100Y-85245000D02*
X113123100Y-86515000D01*
X115570000Y-85245000D02*
X114393100Y-85245000D01*
X119631900Y-83050000D02*
X119286900Y-82705000D01*
X127020000Y-83050000D02*
X119631900Y-83050000D01*
X118110000Y-82705000D02*
X119286900Y-82705000D01*
X116746900Y-82339200D02*
X116746900Y-82705000D01*
X117586700Y-81499400D02*
X116746900Y-82339200D01*
X127297600Y-81499400D02*
X117586700Y-81499400D01*
X128269500Y-82471300D02*
X127297600Y-81499400D01*
X128269500Y-83968700D02*
X128269500Y-82471300D01*
X128706800Y-84406000D02*
X128269500Y-83968700D01*
X130441500Y-84406000D02*
X128706800Y-84406000D01*
X132192500Y-82655000D02*
X130441500Y-84406000D01*
X139060000Y-82655000D02*
X132192500Y-82655000D01*
X115570000Y-82705000D02*
X116746900Y-82705000D01*
X109426900Y-80605800D02*
X109426900Y-80240000D01*
X110246700Y-81425600D02*
X109426900Y-80605800D01*
X113132500Y-81425600D02*
X110246700Y-81425600D01*
X114393100Y-80165000D02*
X113132500Y-81425600D01*
X115570000Y-80165000D02*
X114393100Y-80165000D01*
X108250000Y-80240000D02*
X109426900Y-80240000D01*
X116746900Y-79799200D02*
X116746900Y-80165000D01*
X117574900Y-78971200D02*
X116746900Y-79799200D01*
X136739300Y-78971200D02*
X117574900Y-78971200D01*
X137883100Y-80115000D02*
X136739300Y-78971200D01*
X139060000Y-80115000D02*
X137883100Y-80115000D01*
X115570000Y-80165000D02*
X116746900Y-80165000D01*
X139060000Y-97895000D02*
X137883100Y-97895000D01*
X115570000Y-97945000D02*
X116746900Y-97945000D01*
X113272900Y-96824800D02*
X114393100Y-97945000D01*
X110254300Y-96824800D02*
X113272900Y-96824800D01*
X109426900Y-97652200D02*
X110254300Y-96824800D01*
X109426900Y-98020000D02*
X109426900Y-97652200D01*
X108250000Y-98020000D02*
X109426900Y-98020000D01*
X115570000Y-97945000D02*
X114393100Y-97945000D01*
X113127500Y-78890600D02*
X114393100Y-77625000D01*
X115570000Y-77625000D02*
X114393100Y-77625000D01*
X137166000Y-97895000D02*
X137883100Y-97895000D01*
X136023700Y-96752700D02*
X137166000Y-97895000D01*
X117573400Y-96752700D02*
X136023700Y-96752700D01*
X116746900Y-97579200D02*
X117573400Y-96752700D01*
X116746900Y-97945000D02*
X116746900Y-97579200D01*
D16*
X108235592Y-73600000D02*
X143700000Y-73600000D01*
X132750001Y-129900045D02*
G75*
G03*
X137000000Y-125550000I-52401J4302345D01*
G01*
X143700000Y-112350000D02*
X137000000Y-112350000D01*
X143700000Y-73600000D02*
X143700000Y-112350000D01*
X104000004Y-125685592D02*
G75*
G03*
X108361560Y-129900000I4256596J41092D01*
G01*
X104000000Y-125685592D02*
X104000000Y-77907877D01*
X132750000Y-129900000D02*
X108361560Y-129900000D01*
X108235592Y-73599997D02*
G75*
G03*
X104000001Y-77907877I-46932J-4190053D01*
G01*
X137000000Y-112350000D02*
X137000000Y-125550000D01*
M02*
