M48
; DRILL file {KiCad (6.0.0)} date Thu Feb 24 11:08:33 2022
; FORMAT={-:-/ absolute / metric / decimal}
; #@! TF.CreationDate,2022-02-24T11:08:33-05:00
; #@! TF.GenerationSoftware,Kicad,Pcbnew,(6.0.0)
; #@! TF.FileFunction,Plated,1,2,PTH
FMAT,2
METRIC
; #@! TA.AperFunction,Plated,PTH,ViaDrill
T1C0.400
; #@! TA.AperFunction,Plated,PTH,ComponentDrill
T2C0.600
; #@! TA.AperFunction,Plated,PTH,ComponentDrill
T3C1.000
%
G90
G05
T1
X115.055Y-100.568
X115.119Y-113.352
X115.264Y-108.178
X115.338Y-93.017
X117.079Y-82.816
X117.192Y-117.7
X123.352Y-109.941
X123.763Y-90.362
X125.249Y-82.259
X127.89Y-121.069
X128.771Y-120.41
X131.499Y-90.3
X131.502Y-87.158
X131.502Y-88.132
X131.514Y-91.149
X131.542Y-101.146
X131.547Y-98.756
X131.56Y-107.477
X131.561Y-102.674
X131.561Y-103.477
X131.579Y-106.665
X131.587Y-94.544
X131.587Y-95.888
X131.587Y-97.787
X134.714Y-103.359
X134.96Y-87.648
X135.682Y-90.364
X136.684Y-107.989
X137.837Y-94.103
X140.35Y-94.094
T3
X108.25Y-77.7
X108.25Y-80.24
X108.25Y-82.78
X108.25Y-85.32
X108.25Y-87.86
X108.25Y-90.4
X108.25Y-92.94
X108.25Y-95.48
X108.25Y-98.02
X108.25Y-100.56
X108.25Y-103.1
X108.25Y-105.64
X108.25Y-108.18
X108.25Y-110.72
X108.25Y-113.26
X108.25Y-115.8
X108.25Y-118.34
X108.25Y-120.88
X108.25Y-123.42
X108.25Y-125.96
X110.79Y-77.7
X110.79Y-80.24
X110.79Y-82.78
X110.79Y-85.32
X110.79Y-87.86
X110.79Y-90.4
X110.79Y-92.94
X110.79Y-95.48
X110.79Y-98.02
X110.79Y-100.56
X110.79Y-103.1
X110.79Y-105.64
X110.79Y-108.18
X110.79Y-110.72
X110.79Y-113.26
X110.79Y-115.8
X110.79Y-118.34
X110.79Y-120.88
X110.79Y-123.42
X110.79Y-125.96
X119.025Y-77.625
X119.025Y-80.165
X119.025Y-82.705
X119.025Y-85.245
X119.025Y-87.785
X119.025Y-90.325
X119.025Y-92.865
X119.025Y-95.405
X119.025Y-97.945
X119.025Y-100.485
X119.025Y-103.025
X119.025Y-105.565
X119.025Y-108.105
X119.025Y-110.645
X119.025Y-113.185
X119.025Y-115.725
X119.025Y-118.265
X119.025Y-120.805
X119.025Y-123.345
X119.025Y-125.885
X121.565Y-77.625
X121.565Y-80.165
X121.565Y-82.705
X121.565Y-85.245
X121.565Y-87.785
X121.565Y-90.325
X121.565Y-92.865
X121.565Y-95.405
X121.565Y-97.945
X121.565Y-100.485
X121.565Y-103.025
X121.565Y-105.565
X121.565Y-108.105
X121.565Y-110.645
X121.565Y-113.185
X121.565Y-115.725
X121.565Y-118.265
X121.565Y-120.805
X121.565Y-123.345
X121.565Y-125.885
X129.0Y-83.05
X131.5Y-83.05
X139.06Y-77.575
X139.06Y-80.115
X139.06Y-82.655
X139.06Y-85.195
X139.06Y-87.735
X139.06Y-90.275
X139.06Y-92.815
X139.06Y-95.355
X139.06Y-97.895
X139.06Y-100.435
X139.06Y-102.975
X139.06Y-105.515
X139.06Y-108.055
X141.6Y-77.575
X141.6Y-80.115
X141.6Y-82.655
X141.6Y-85.195
X141.6Y-87.735
X141.6Y-90.275
X141.6Y-92.815
X141.6Y-95.355
X141.6Y-97.895
X141.6Y-100.435
X141.6Y-102.975
X141.6Y-105.515
X141.6Y-108.055
T2
X124.378Y-123.321G85X124.378Y-124.221
G05
X124.378Y-127.119G85X124.378Y-128.019
G05
X133.018Y-123.321G85X133.018Y-124.221
G05
X133.018Y-127.07G85X133.018Y-127.97
G05
T0
M30
