G04 #@! TF.GenerationSoftware,KiCad,Pcbnew,(6.0.0)*
G04 #@! TF.CreationDate,2022-05-07T15:13:21-04:00*
G04 #@! TF.ProjectId,PI4Adapter,50493441-6461-4707-9465-722e6b696361,0.1b*
G04 #@! TF.SameCoordinates,Original*
G04 #@! TF.FileFunction,Copper,L1,Top*
G04 #@! TF.FilePolarity,Positive*
%FSLAX46Y46*%
G04 Gerber Fmt 4.6, Leading zero omitted, Abs format (unit mm)*
G04 Created by KiCad (PCBNEW (6.0.0)) date 2022-05-07 15:13:21*
%MOMM*%
%LPD*%
G01*
G04 APERTURE LIST*
G04 Aperture macros list*
%AMRoundRect*
0 Rectangle with rounded corners*
0 $1 Rounding radius*
0 $2 $3 $4 $5 $6 $7 $8 $9 X,Y pos of 4 corners*
0 Add a 4 corners polygon primitive as box body*
4,1,4,$2,$3,$4,$5,$6,$7,$8,$9,$2,$3,0*
0 Add four circle primitives for the rounded corners*
1,1,$1+$1,$2,$3*
1,1,$1+$1,$4,$5*
1,1,$1+$1,$6,$7*
1,1,$1+$1,$8,$9*
0 Add four rect primitives between the rounded corners*
20,1,$1+$1,$2,$3,$4,$5,0*
20,1,$1+$1,$4,$5,$6,$7,0*
20,1,$1+$1,$6,$7,$8,$9,0*
20,1,$1+$1,$8,$9,$2,$3,0*%
G04 Aperture macros list end*
G04 #@! TA.AperFunction,Profile*
%ADD10C,0.100000*%
G04 #@! TD*
G04 #@! TA.AperFunction,ComponentPad*
%ADD11R,1.700000X1.700000*%
G04 #@! TD*
G04 #@! TA.AperFunction,ComponentPad*
%ADD12O,1.700000X1.700000*%
G04 #@! TD*
G04 #@! TA.AperFunction,ComponentPad*
%ADD13RoundRect,0.250000X0.600000X0.750000X-0.600000X0.750000X-0.600000X-0.750000X0.600000X-0.750000X0*%
G04 #@! TD*
G04 #@! TA.AperFunction,ComponentPad*
%ADD14O,1.700000X2.000000*%
G04 #@! TD*
G04 #@! TA.AperFunction,SMDPad,CuDef*
%ADD15RoundRect,0.175000X-0.175000X-0.425000X0.175000X-0.425000X0.175000X0.425000X-0.175000X0.425000X0*%
G04 #@! TD*
G04 #@! TA.AperFunction,SMDPad,CuDef*
%ADD16RoundRect,0.190000X-0.190000X-0.410000X0.190000X-0.410000X0.190000X0.410000X-0.190000X0.410000X0*%
G04 #@! TD*
G04 #@! TA.AperFunction,SMDPad,CuDef*
%ADD17RoundRect,0.200000X-0.200000X-0.400000X0.200000X-0.400000X0.200000X0.400000X-0.200000X0.400000X0*%
G04 #@! TD*
G04 #@! TA.AperFunction,ComponentPad*
%ADD18O,1.100000X1.700000*%
G04 #@! TD*
G04 #@! TA.AperFunction,ViaPad*
%ADD19C,0.800000*%
G04 #@! TD*
G04 #@! TA.AperFunction,Conductor*
%ADD20C,0.400000*%
G04 #@! TD*
G04 #@! TA.AperFunction,Conductor*
%ADD21C,0.250000*%
G04 #@! TD*
G04 APERTURE END LIST*
D10*
X137000000Y-75600000D02*
X143300000Y-75600000D01*
X108235592Y-73600000D02*
X137000000Y-73600000D01*
X132750000Y-129899999D02*
G75*
G03*
X137000000Y-125550000I-52366J4302311D01*
G01*
X143300000Y-109950000D02*
X137000000Y-109950000D01*
X143300000Y-75600000D02*
X143300000Y-109950000D01*
X104000000Y-125685592D02*
G75*
G03*
X108361560Y-129900000I4256623J41120D01*
G01*
X104000000Y-125685592D02*
X104000000Y-77907877D01*
X132750000Y-129900000D02*
X108361560Y-129900000D01*
X137000000Y-73600000D02*
X137000000Y-75600000D01*
X108235592Y-73600000D02*
G75*
G03*
X104000000Y-77907877I-46932J-4190054D01*
G01*
X137000000Y-109950000D02*
X137000000Y-125550000D01*
D11*
X139060000Y-77575000D03*
D12*
X141600000Y-77575000D03*
X139060000Y-80115000D03*
X141600000Y-80115000D03*
X139060000Y-82655000D03*
X141600000Y-82655000D03*
X139060000Y-85195000D03*
X141600000Y-85195000D03*
X139060000Y-87735000D03*
X141600000Y-87735000D03*
X139060000Y-90275000D03*
X141600000Y-90275000D03*
X139060000Y-92815000D03*
X141600000Y-92815000D03*
X139060000Y-95355000D03*
X141600000Y-95355000D03*
X139060000Y-97895000D03*
X141600000Y-97895000D03*
X139060000Y-100435000D03*
X141600000Y-100435000D03*
X139060000Y-102975000D03*
X141600000Y-102975000D03*
X139060000Y-105515000D03*
X141600000Y-105515000D03*
X139060000Y-108055000D03*
X141600000Y-108055000D03*
D11*
X119025000Y-77625000D03*
D12*
X121565000Y-77625000D03*
X119025000Y-80165000D03*
X121565000Y-80165000D03*
X119025000Y-82705000D03*
X121565000Y-82705000D03*
X119025000Y-85245000D03*
X121565000Y-85245000D03*
X119025000Y-87785000D03*
X121565000Y-87785000D03*
X119025000Y-90325000D03*
X121565000Y-90325000D03*
X119025000Y-92865000D03*
X121565000Y-92865000D03*
X119025000Y-95405000D03*
X121565000Y-95405000D03*
X119025000Y-97945000D03*
X121565000Y-97945000D03*
X119025000Y-100485000D03*
X121565000Y-100485000D03*
X119025000Y-103025000D03*
X121565000Y-103025000D03*
X119025000Y-105565000D03*
X121565000Y-105565000D03*
X119025000Y-108105000D03*
X121565000Y-108105000D03*
X119025000Y-110645000D03*
X121565000Y-110645000D03*
X119025000Y-113185000D03*
X121565000Y-113185000D03*
X119025000Y-115725000D03*
X121565000Y-115725000D03*
X119025000Y-118265000D03*
X121565000Y-118265000D03*
X119025000Y-120805000D03*
X121565000Y-120805000D03*
X119025000Y-123345000D03*
X121565000Y-123345000D03*
X119025000Y-125885000D03*
X121565000Y-125885000D03*
D13*
X131500000Y-83050000D03*
D14*
X129000000Y-83050000D03*
D15*
X128249746Y-123159549D03*
D16*
X130269746Y-123159549D03*
D17*
X131499746Y-123159549D03*
D15*
X129249746Y-123159549D03*
D16*
X127229746Y-123159549D03*
D17*
X125999746Y-123159549D03*
D18*
X124377800Y-127569331D03*
X133017800Y-127519654D03*
X124377800Y-123771100D03*
X133017800Y-123771100D03*
D11*
X108250000Y-77700000D03*
D12*
X110790000Y-77700000D03*
X108250000Y-80240000D03*
X110790000Y-80240000D03*
X108250000Y-82780000D03*
X110790000Y-82780000D03*
X108250000Y-85320000D03*
X110790000Y-85320000D03*
X108250000Y-87860000D03*
X110790000Y-87860000D03*
X108250000Y-90400000D03*
X110790000Y-90400000D03*
X108250000Y-92940000D03*
X110790000Y-92940000D03*
X108250000Y-95480000D03*
X110790000Y-95480000D03*
X108250000Y-98020000D03*
X110790000Y-98020000D03*
X108250000Y-100560000D03*
X110790000Y-100560000D03*
X108250000Y-103100000D03*
X110790000Y-103100000D03*
X108250000Y-105640000D03*
X110790000Y-105640000D03*
X108250000Y-108180000D03*
X110790000Y-108180000D03*
X108250000Y-110720000D03*
X110790000Y-110720000D03*
X108250000Y-113260000D03*
X110790000Y-113260000D03*
X108250000Y-115800000D03*
X110790000Y-115800000D03*
X108250000Y-118340000D03*
X110790000Y-118340000D03*
X108250000Y-120880000D03*
X110790000Y-120880000D03*
X108250000Y-123420000D03*
X110790000Y-123420000D03*
X108250000Y-125960000D03*
X110790000Y-125960000D03*
D19*
X106680000Y-119380000D03*
X106680000Y-114300000D03*
D20*
X117775489Y-78800400D02*
X110790000Y-78800400D01*
X117849600Y-78874511D02*
X117775489Y-78800400D01*
X120200400Y-78874511D02*
X117849600Y-78874511D01*
X120274511Y-78800400D02*
X120200400Y-78874511D01*
X121565000Y-78800400D02*
X120274511Y-78800400D01*
X128431012Y-84398100D02*
X127229800Y-84398100D01*
X129568988Y-84398100D02*
X129517568Y-84449520D01*
X128482432Y-84449520D02*
X128431012Y-84398100D01*
X130151900Y-84398100D02*
X129568988Y-84398100D01*
X131500000Y-83050000D02*
X130151900Y-84398100D01*
X129517568Y-84449520D02*
X128482432Y-84449520D01*
X137935978Y-76200000D02*
X131500000Y-82635978D01*
X140225000Y-76200000D02*
X137935978Y-76200000D01*
X131500000Y-82635978D02*
X131500000Y-82973600D01*
X141600000Y-77575000D02*
X140225000Y-76200000D01*
X130269800Y-122767110D02*
X130269800Y-122805300D01*
X127229800Y-121920000D02*
X129422690Y-121920000D01*
X129422690Y-121920000D02*
X130269800Y-122767110D01*
X127229800Y-122215200D02*
X127229800Y-84398100D01*
D21*
X120757100Y-123345000D02*
X121565000Y-123345000D01*
X111965300Y-123420000D02*
X113065600Y-124520300D01*
X110790000Y-123420000D02*
X111965300Y-123420000D01*
X113065600Y-124520300D02*
X119581800Y-124520300D01*
X119581800Y-124520300D02*
X120757100Y-123345000D01*
X120757100Y-115725000D02*
X121565000Y-115725000D01*
X119581800Y-116900300D02*
X120757100Y-115725000D01*
X113065600Y-116900300D02*
X119581800Y-116900300D01*
X111965300Y-115800000D02*
X113065600Y-116900300D01*
X110790000Y-115800000D02*
X111965300Y-115800000D01*
X120757100Y-110645000D02*
X121565000Y-110645000D01*
X113065600Y-111820300D02*
X119581800Y-111820300D01*
X110790000Y-110720000D02*
X111965300Y-110720000D01*
X111965300Y-110720000D02*
X113065600Y-111820300D01*
X119581800Y-111820300D02*
X120757100Y-110645000D01*
X120757100Y-105565000D02*
X121565000Y-105565000D01*
X119581800Y-106740300D02*
X120757100Y-105565000D01*
X113065600Y-106740300D02*
X119581800Y-106740300D01*
X111965300Y-105640000D02*
X113065600Y-106740300D01*
X110790000Y-105640000D02*
X111965300Y-105640000D01*
X120757100Y-103025000D02*
X121565000Y-103025000D01*
X119581800Y-104200300D02*
X120757100Y-103025000D01*
X111965300Y-103100000D02*
X113065600Y-104200300D01*
X110790000Y-103100000D02*
X111965300Y-103100000D01*
X113065600Y-104200300D02*
X119581800Y-104200300D01*
X120757100Y-95405000D02*
X121565000Y-95405000D01*
X113065600Y-96580300D02*
X119581800Y-96580300D01*
X119581800Y-96580300D02*
X120757100Y-95405000D01*
X111965300Y-95480000D02*
X113065600Y-96580300D01*
X110790000Y-95480000D02*
X111965300Y-95480000D01*
X111965300Y-90400000D02*
X110790000Y-90400000D01*
X113085500Y-91520200D02*
X111965300Y-90400000D01*
X120369800Y-91520200D02*
X113085500Y-91520200D01*
X121565000Y-90325000D02*
X120369800Y-91520200D01*
X111965300Y-85320000D02*
X110790000Y-85320000D01*
X113085500Y-86440200D02*
X111965300Y-85320000D01*
X121565000Y-85245000D02*
X120369800Y-86440200D01*
X120369800Y-86440200D02*
X113085500Y-86440200D01*
X131500000Y-82973600D02*
X131500000Y-83050000D01*
X137884700Y-78750300D02*
X139060000Y-77575000D01*
X139060000Y-97895000D02*
X137884700Y-96719700D01*
X137884700Y-96719700D02*
X137884700Y-78750300D01*
X140234511Y-106880489D02*
X139060000Y-108055000D01*
X140234511Y-101800489D02*
X140234511Y-106880489D01*
X141600000Y-100435000D02*
X140234511Y-101800489D01*
X111894511Y-86494511D02*
X114300000Y-88900000D01*
X110145489Y-86494511D02*
X111894511Y-86494511D01*
X109615489Y-85964511D02*
X110145489Y-86494511D01*
X109615489Y-83954511D02*
X109615489Y-85964511D01*
X110790000Y-82780000D02*
X109615489Y-83954511D01*
X109424511Y-89034511D02*
X109424511Y-91574511D01*
X109424511Y-91574511D02*
X110790000Y-92940000D01*
X108250000Y-87860000D02*
X109424511Y-89034511D01*
X112879700Y-97945000D02*
X119025000Y-97945000D01*
X111454700Y-96520000D02*
X112879700Y-97945000D01*
X111411010Y-96520000D02*
X111454700Y-96520000D01*
X111276499Y-96654511D02*
X111411010Y-96520000D01*
X110303501Y-96654511D02*
X111276499Y-96654511D01*
X110168990Y-96520000D02*
X110303501Y-96654511D01*
X109220000Y-96520000D02*
X110168990Y-96520000D01*
X106680000Y-80148990D02*
X106680000Y-95571010D01*
X107763501Y-79065489D02*
X106680000Y-80148990D01*
X108250000Y-79065489D02*
X107763501Y-79065489D01*
X106680000Y-95571010D02*
X107763501Y-96654511D01*
X107763501Y-96654511D02*
X109085489Y-96654511D01*
X108250000Y-77700000D02*
X108250000Y-79065489D01*
X109085489Y-96654511D02*
X109220000Y-96520000D01*
X108250000Y-98020000D02*
X108250000Y-96844700D01*
X111889511Y-101659511D02*
X110790000Y-100560000D01*
X120390489Y-101659511D02*
X111889511Y-101659511D01*
X121565000Y-100485000D02*
X120390489Y-101659511D01*
X109615489Y-106814511D02*
X111625489Y-106814511D01*
X111625489Y-106814511D02*
X111760000Y-106680000D01*
X108250000Y-108180000D02*
X109615489Y-106814511D01*
X106814511Y-114434511D02*
X106680000Y-114300000D01*
X109615489Y-114434511D02*
X106814511Y-114434511D01*
X110790000Y-113260000D02*
X109615489Y-114434511D01*
X142774511Y-88365489D02*
X142240000Y-88900000D01*
X142774511Y-83829511D02*
X142774511Y-88365489D01*
X141600000Y-82655000D02*
X142774511Y-83829511D01*
X142774511Y-89453533D02*
X142774511Y-91640489D01*
X140234511Y-88909511D02*
X142230489Y-88909511D01*
X139060000Y-87735000D02*
X140234511Y-88909511D01*
X142230489Y-88909511D02*
X142774511Y-89453533D01*
X142774511Y-91640489D02*
X141600000Y-92815000D01*
X142774511Y-93989511D02*
X142774511Y-99260489D01*
X141600000Y-92815000D02*
X142774511Y-93989511D01*
X142774511Y-99260489D02*
X141600000Y-100435000D01*
X116731600Y-122226900D02*
X117849700Y-123345000D01*
X110251100Y-122226900D02*
X116731600Y-122226900D01*
X109425300Y-123052700D02*
X110251100Y-122226900D01*
X109425300Y-123420000D02*
X109425300Y-123052700D01*
X108250000Y-123420000D02*
X109425300Y-123420000D01*
X119025000Y-123345000D02*
X117849700Y-123345000D01*
X116731600Y-114606900D02*
X117849700Y-115725000D01*
X110251100Y-114606900D02*
X116731600Y-114606900D01*
X109425300Y-115432700D02*
X110251100Y-114606900D01*
X109425300Y-115800000D02*
X109425300Y-115432700D01*
X108250000Y-115800000D02*
X109425300Y-115800000D01*
X119025000Y-115725000D02*
X117849700Y-115725000D01*
X116731600Y-109526900D02*
X117849700Y-110645000D01*
X110251100Y-109526900D02*
X116731600Y-109526900D01*
X109425300Y-110352700D02*
X110251100Y-109526900D01*
X109425300Y-110720000D02*
X109425300Y-110352700D01*
X108250000Y-110720000D02*
X109425300Y-110720000D01*
X119025000Y-110645000D02*
X117849700Y-110645000D01*
X141293000Y-108335000D02*
X141600000Y-108028000D01*
X141320000Y-108335000D02*
X141600000Y-108055000D01*
X141293000Y-108335000D02*
X141320000Y-108335000D01*
X141252500Y-102656500D02*
X141571000Y-102975000D01*
X141281500Y-102656500D02*
X141600000Y-102975000D01*
X141252500Y-102656500D02*
X141281500Y-102656500D01*
X130269800Y-122805300D02*
X130269800Y-123159500D01*
D20*
X127229800Y-122215200D02*
X127229800Y-123159500D01*
X122996700Y-80165000D02*
X121565000Y-80165000D01*
X127229800Y-84398100D02*
X122996700Y-80165000D01*
X110790000Y-80240000D02*
X110790000Y-78800400D01*
X110790000Y-78800400D02*
X110790000Y-77700000D01*
X121565000Y-80165000D02*
X121565000Y-78800400D01*
X121565000Y-78800400D02*
X121565000Y-77625000D01*
X141600000Y-80115000D02*
X141600000Y-77575000D01*
G04 #@! TA.AperFunction,Conductor*
G36*
X136434121Y-74128002D02*
G01*
X136480614Y-74181658D01*
X136492000Y-74234000D01*
X136492000Y-75591298D01*
X136491998Y-75592068D01*
X136491524Y-75669652D01*
X136493990Y-75678281D01*
X136493991Y-75678286D01*
X136499639Y-75698048D01*
X136503217Y-75714809D01*
X136506130Y-75735152D01*
X136506133Y-75735162D01*
X136507405Y-75744045D01*
X136518021Y-75767395D01*
X136524464Y-75784907D01*
X136531512Y-75809565D01*
X136547274Y-75834548D01*
X136555404Y-75849614D01*
X136567633Y-75876510D01*
X136584374Y-75895939D01*
X136595479Y-75910947D01*
X136609160Y-75932631D01*
X136615888Y-75938573D01*
X136631296Y-75952181D01*
X136643340Y-75964373D01*
X136662619Y-75986747D01*
X136670147Y-75991626D01*
X136670150Y-75991629D01*
X136684139Y-76000696D01*
X136699013Y-76011986D01*
X136718228Y-76028956D01*
X136726354Y-76032771D01*
X136726355Y-76032772D01*
X136732021Y-76035432D01*
X136744966Y-76041510D01*
X136759935Y-76049824D01*
X136784727Y-76065893D01*
X136793329Y-76068466D01*
X136793332Y-76068467D01*
X136800573Y-76070633D01*
X136860106Y-76109315D01*
X136889275Y-76174043D01*
X136878819Y-76244266D01*
X136853564Y-76280444D01*
X131629413Y-81504595D01*
X131567101Y-81538621D01*
X131540318Y-81541500D01*
X130849600Y-81541500D01*
X130846354Y-81541837D01*
X130846350Y-81541837D01*
X130750692Y-81551762D01*
X130750688Y-81551763D01*
X130743834Y-81552474D01*
X130737298Y-81554655D01*
X130737296Y-81554655D01*
X130605194Y-81598728D01*
X130576054Y-81608450D01*
X130425652Y-81701522D01*
X130300695Y-81826697D01*
X130223077Y-81952617D01*
X130210648Y-81972780D01*
X130157876Y-82020273D01*
X130087804Y-82031697D01*
X130022680Y-82003423D01*
X130012218Y-81993636D01*
X129906766Y-81883094D01*
X129898814Y-81876059D01*
X129722475Y-81744859D01*
X129713438Y-81739255D01*
X129517516Y-81639643D01*
X129507665Y-81635643D01*
X129297760Y-81570466D01*
X129287376Y-81568183D01*
X129271957Y-81566139D01*
X129257793Y-81568335D01*
X129254000Y-81581522D01*
X129254000Y-83178000D01*
X129233998Y-83246121D01*
X129180342Y-83292614D01*
X129128000Y-83304000D01*
X127664030Y-83304000D01*
X127649352Y-83308310D01*
X127647289Y-83320193D01*
X127656124Y-83424325D01*
X127657914Y-83434797D01*
X127678120Y-83512647D01*
X127675873Y-83583608D01*
X127635618Y-83642090D01*
X127570136Y-83669524D01*
X127500217Y-83657200D01*
X127467066Y-83633396D01*
X126614046Y-82780376D01*
X127642732Y-82780376D01*
X127646475Y-82793124D01*
X127647865Y-82794329D01*
X127655548Y-82796000D01*
X128727885Y-82796000D01*
X128743124Y-82791525D01*
X128744329Y-82790135D01*
X128746000Y-82782452D01*
X128746000Y-81583808D01*
X128742027Y-81570277D01*
X128731420Y-81568752D01*
X128613579Y-81593477D01*
X128603383Y-81596537D01*
X128398971Y-81677263D01*
X128389439Y-81681994D01*
X128201538Y-81796016D01*
X128192948Y-81802280D01*
X128026948Y-81946327D01*
X128019528Y-81953958D01*
X127880174Y-82123911D01*
X127874150Y-82132678D01*
X127765424Y-82323682D01*
X127760959Y-82333346D01*
X127685969Y-82539941D01*
X127683198Y-82550208D01*
X127643877Y-82767655D01*
X127642944Y-82775884D01*
X127642732Y-82780376D01*
X126614046Y-82780376D01*
X123518150Y-79684480D01*
X123512296Y-79678215D01*
X123487603Y-79649909D01*
X123474261Y-79634615D01*
X123421980Y-79597871D01*
X123416686Y-79593939D01*
X123372393Y-79559209D01*
X123366418Y-79554524D01*
X123359502Y-79551401D01*
X123357216Y-79550017D01*
X123342535Y-79541643D01*
X123340175Y-79540378D01*
X123333961Y-79536010D01*
X123326882Y-79533250D01*
X123326880Y-79533249D01*
X123274425Y-79512798D01*
X123268356Y-79510247D01*
X123210127Y-79483955D01*
X123202660Y-79482571D01*
X123200105Y-79481770D01*
X123183852Y-79477141D01*
X123181272Y-79476478D01*
X123174191Y-79473718D01*
X123166660Y-79472727D01*
X123166658Y-79472726D01*
X123129178Y-79467792D01*
X123110839Y-79465378D01*
X123104341Y-79464348D01*
X123041514Y-79452704D01*
X123033934Y-79453141D01*
X123033933Y-79453141D01*
X122979308Y-79456291D01*
X122972054Y-79456500D01*
X122793286Y-79456500D01*
X122725165Y-79436498D01*
X122687494Y-79398941D01*
X122647818Y-79337612D01*
X122645014Y-79333277D01*
X122494670Y-79168051D01*
X122490619Y-79164852D01*
X122490615Y-79164848D01*
X122321408Y-79031216D01*
X122280345Y-78973298D01*
X122273500Y-78932334D01*
X122273500Y-78853297D01*
X122293502Y-78785176D01*
X122326332Y-78750718D01*
X122440656Y-78669172D01*
X122440659Y-78669170D01*
X122444860Y-78666173D01*
X122488568Y-78622618D01*
X122599435Y-78512137D01*
X122603096Y-78508489D01*
X122633745Y-78465837D01*
X122730435Y-78331277D01*
X122733453Y-78327077D01*
X122758165Y-78277077D01*
X122830136Y-78131453D01*
X122830137Y-78131451D01*
X122832430Y-78126811D01*
X122897370Y-77913069D01*
X122926529Y-77691590D01*
X122926611Y-77688240D01*
X122928074Y-77628365D01*
X122928074Y-77628361D01*
X122928156Y-77625000D01*
X122909852Y-77402361D01*
X122855431Y-77185702D01*
X122766354Y-76980840D01*
X122693534Y-76868277D01*
X122647822Y-76797617D01*
X122647820Y-76797614D01*
X122645014Y-76793277D01*
X122494670Y-76628051D01*
X122490619Y-76624852D01*
X122490615Y-76624848D01*
X122323414Y-76492800D01*
X122323410Y-76492798D01*
X122319359Y-76489598D01*
X122123789Y-76381638D01*
X122118920Y-76379914D01*
X122118916Y-76379912D01*
X121918087Y-76308795D01*
X121918083Y-76308794D01*
X121913212Y-76307069D01*
X121908119Y-76306162D01*
X121908116Y-76306161D01*
X121698373Y-76268800D01*
X121698367Y-76268799D01*
X121693284Y-76267894D01*
X121619452Y-76266992D01*
X121475081Y-76265228D01*
X121475079Y-76265228D01*
X121469911Y-76265165D01*
X121249091Y-76298955D01*
X121036756Y-76368357D01*
X121010416Y-76382069D01*
X120862370Y-76459137D01*
X120838607Y-76471507D01*
X120834474Y-76474610D01*
X120834471Y-76474612D01*
X120700969Y-76574848D01*
X120659965Y-76605635D01*
X120588294Y-76680635D01*
X120579283Y-76690064D01*
X120517759Y-76725494D01*
X120446846Y-76722037D01*
X120389060Y-76680791D01*
X120370207Y-76647243D01*
X120328767Y-76536703D01*
X120325615Y-76528295D01*
X120238261Y-76411739D01*
X120121705Y-76324385D01*
X119985316Y-76273255D01*
X119923134Y-76266500D01*
X118126866Y-76266500D01*
X118064684Y-76273255D01*
X117928295Y-76324385D01*
X117811739Y-76411739D01*
X117724385Y-76528295D01*
X117673255Y-76664684D01*
X117666500Y-76726866D01*
X117666500Y-77965900D01*
X117646498Y-78034021D01*
X117592842Y-78080514D01*
X117540500Y-78091900D01*
X112252376Y-78091900D01*
X112184255Y-78071898D01*
X112137762Y-78018242D01*
X112127454Y-77949453D01*
X112151092Y-77769908D01*
X112151529Y-77766590D01*
X112153156Y-77700000D01*
X112134852Y-77477361D01*
X112080431Y-77260702D01*
X111991354Y-77055840D01*
X111942834Y-76980840D01*
X111872822Y-76872617D01*
X111872820Y-76872614D01*
X111870014Y-76868277D01*
X111719670Y-76703051D01*
X111715619Y-76699852D01*
X111715615Y-76699848D01*
X111548414Y-76567800D01*
X111548410Y-76567798D01*
X111544359Y-76564598D01*
X111348789Y-76456638D01*
X111343920Y-76454914D01*
X111343916Y-76454912D01*
X111143087Y-76383795D01*
X111143083Y-76383794D01*
X111138212Y-76382069D01*
X111133119Y-76381162D01*
X111133116Y-76381161D01*
X110923373Y-76343800D01*
X110923367Y-76343799D01*
X110918284Y-76342894D01*
X110844452Y-76341992D01*
X110700081Y-76340228D01*
X110700079Y-76340228D01*
X110694911Y-76340165D01*
X110474091Y-76373955D01*
X110261756Y-76443357D01*
X110063607Y-76546507D01*
X110059474Y-76549610D01*
X110059471Y-76549612D01*
X109889100Y-76677530D01*
X109884965Y-76680635D01*
X109828537Y-76739684D01*
X109804283Y-76765064D01*
X109742759Y-76800494D01*
X109671846Y-76797037D01*
X109614060Y-76755791D01*
X109595207Y-76722243D01*
X109553767Y-76611703D01*
X109550615Y-76603295D01*
X109463261Y-76486739D01*
X109346705Y-76399385D01*
X109210316Y-76348255D01*
X109148134Y-76341500D01*
X107351866Y-76341500D01*
X107289684Y-76348255D01*
X107153295Y-76399385D01*
X107036739Y-76486739D01*
X106949385Y-76603295D01*
X106898255Y-76739684D01*
X106891500Y-76801866D01*
X106891500Y-78598134D01*
X106898255Y-78660316D01*
X106949385Y-78796705D01*
X106963979Y-78816178D01*
X106988827Y-78882681D01*
X106973775Y-78952064D01*
X106952248Y-78980838D01*
X106603628Y-79329457D01*
X106287742Y-79645343D01*
X106279463Y-79652877D01*
X106272982Y-79656990D01*
X106246545Y-79685143D01*
X106226357Y-79706641D01*
X106223602Y-79709483D01*
X106203865Y-79729220D01*
X106201385Y-79732417D01*
X106193682Y-79741437D01*
X106163414Y-79773669D01*
X106159595Y-79780615D01*
X106159593Y-79780618D01*
X106153652Y-79791424D01*
X106142801Y-79807943D01*
X106130386Y-79823949D01*
X106127241Y-79831218D01*
X106127238Y-79831222D01*
X106112826Y-79864527D01*
X106107609Y-79875177D01*
X106086305Y-79913930D01*
X106084334Y-79921605D01*
X106084334Y-79921606D01*
X106081267Y-79933552D01*
X106074863Y-79952256D01*
X106066819Y-79970845D01*
X106065580Y-79978668D01*
X106065577Y-79978678D01*
X106059901Y-80014514D01*
X106057495Y-80026134D01*
X106046500Y-80068960D01*
X106046500Y-80089214D01*
X106044949Y-80108924D01*
X106041780Y-80128933D01*
X106042526Y-80136825D01*
X106045941Y-80172951D01*
X106046500Y-80184809D01*
X106046500Y-95492243D01*
X106045973Y-95503426D01*
X106044298Y-95510919D01*
X106044547Y-95518845D01*
X106044547Y-95518846D01*
X106046438Y-95578996D01*
X106046500Y-95582955D01*
X106046500Y-95610866D01*
X106046997Y-95614800D01*
X106046997Y-95614801D01*
X106047005Y-95614866D01*
X106047938Y-95626703D01*
X106049327Y-95670899D01*
X106054978Y-95690349D01*
X106058987Y-95709710D01*
X106061526Y-95729807D01*
X106064445Y-95737178D01*
X106064445Y-95737180D01*
X106077804Y-95770922D01*
X106081649Y-95782152D01*
X106093982Y-95824603D01*
X106098015Y-95831422D01*
X106098017Y-95831427D01*
X106104293Y-95842038D01*
X106112988Y-95859786D01*
X106120448Y-95878627D01*
X106125110Y-95885043D01*
X106125110Y-95885044D01*
X106146436Y-95914397D01*
X106152952Y-95924317D01*
X106166249Y-95946800D01*
X106175458Y-95962372D01*
X106189779Y-95976693D01*
X106202619Y-95991726D01*
X106214528Y-96008117D01*
X106241154Y-96030144D01*
X106248605Y-96036308D01*
X106257374Y-96044288D01*
X107193737Y-96980652D01*
X107227761Y-97042962D01*
X107222696Y-97113778D01*
X107197319Y-97154267D01*
X107197457Y-97154379D01*
X107196534Y-97155518D01*
X107195733Y-97156797D01*
X107190629Y-97162138D01*
X107187715Y-97166410D01*
X107187714Y-97166411D01*
X107103666Y-97289621D01*
X107064743Y-97346680D01*
X106970688Y-97549305D01*
X106910989Y-97764570D01*
X106887251Y-97986695D01*
X106887548Y-97991848D01*
X106887548Y-97991851D01*
X106892605Y-98079547D01*
X106900110Y-98209715D01*
X106901247Y-98214761D01*
X106901248Y-98214767D01*
X106908890Y-98248675D01*
X106949222Y-98427639D01*
X107000951Y-98555033D01*
X107027390Y-98620144D01*
X107033266Y-98634616D01*
X107073387Y-98700088D01*
X107147291Y-98820688D01*
X107149987Y-98825088D01*
X107296250Y-98993938D01*
X107468126Y-99136632D01*
X107532652Y-99174338D01*
X107541445Y-99179476D01*
X107590169Y-99231114D01*
X107603240Y-99300897D01*
X107576509Y-99366669D01*
X107536055Y-99400027D01*
X107533416Y-99401401D01*
X107523607Y-99406507D01*
X107519474Y-99409610D01*
X107519471Y-99409612D01*
X107349100Y-99537530D01*
X107344965Y-99540635D01*
X107190629Y-99702138D01*
X107187715Y-99706410D01*
X107187714Y-99706411D01*
X107112702Y-99816375D01*
X107064743Y-99886680D01*
X107048899Y-99920814D01*
X106988527Y-100050875D01*
X106970688Y-100089305D01*
X106910989Y-100304570D01*
X106887251Y-100526695D01*
X106900110Y-100749715D01*
X106901247Y-100754761D01*
X106901248Y-100754767D01*
X106914597Y-100814000D01*
X106949222Y-100967639D01*
X107000868Y-101094829D01*
X107019824Y-101141511D01*
X107033266Y-101174616D01*
X107073387Y-101240088D01*
X107123667Y-101322137D01*
X107149987Y-101365088D01*
X107296250Y-101533938D01*
X107468126Y-101676632D01*
X107520213Y-101707069D01*
X107541445Y-101719476D01*
X107590169Y-101771114D01*
X107603240Y-101840897D01*
X107576509Y-101906669D01*
X107536055Y-101940027D01*
X107523607Y-101946507D01*
X107519474Y-101949610D01*
X107519471Y-101949612D01*
X107365289Y-102065375D01*
X107344965Y-102080635D01*
X107190629Y-102242138D01*
X107187720Y-102246403D01*
X107187714Y-102246411D01*
X107112702Y-102356375D01*
X107064743Y-102426680D01*
X107026394Y-102509297D01*
X106989471Y-102588841D01*
X106970688Y-102629305D01*
X106910989Y-102844570D01*
X106887251Y-103066695D01*
X106887548Y-103071848D01*
X106887548Y-103071851D01*
X106892605Y-103159547D01*
X106900110Y-103289715D01*
X106901247Y-103294761D01*
X106901248Y-103294767D01*
X106919915Y-103377596D01*
X106949222Y-103507639D01*
X107033266Y-103714616D01*
X107073387Y-103780088D01*
X107147291Y-103900688D01*
X107149987Y-103905088D01*
X107296250Y-104073938D01*
X107468126Y-104216632D01*
X107532652Y-104254338D01*
X107541445Y-104259476D01*
X107590169Y-104311114D01*
X107603240Y-104380897D01*
X107576509Y-104446669D01*
X107536055Y-104480027D01*
X107523607Y-104486507D01*
X107519474Y-104489610D01*
X107519471Y-104489612D01*
X107355476Y-104612743D01*
X107344965Y-104620635D01*
X107190629Y-104782138D01*
X107187720Y-104786403D01*
X107187714Y-104786411D01*
X107103666Y-104909621D01*
X107064743Y-104966680D01*
X107026394Y-105049297D01*
X106989471Y-105128841D01*
X106970688Y-105169305D01*
X106910989Y-105384570D01*
X106887251Y-105606695D01*
X106887548Y-105611848D01*
X106887548Y-105611851D01*
X106892605Y-105699547D01*
X106900110Y-105829715D01*
X106901247Y-105834761D01*
X106901248Y-105834767D01*
X106919915Y-105917596D01*
X106949222Y-106047639D01*
X107033266Y-106254616D01*
X107073387Y-106320088D01*
X107147291Y-106440688D01*
X107149987Y-106445088D01*
X107296250Y-106613938D01*
X107468126Y-106756632D01*
X107532652Y-106794338D01*
X107541955Y-106799774D01*
X107590679Y-106851412D01*
X107603750Y-106921195D01*
X107577019Y-106986967D01*
X107536562Y-107020327D01*
X107528457Y-107024546D01*
X107519738Y-107030036D01*
X107349433Y-107157905D01*
X107341726Y-107164748D01*
X107194590Y-107318717D01*
X107188104Y-107326727D01*
X107068098Y-107502649D01*
X107063000Y-107511623D01*
X106973338Y-107704783D01*
X106969775Y-107714470D01*
X106914389Y-107914183D01*
X106915912Y-107922607D01*
X106928292Y-107926000D01*
X108378000Y-107926000D01*
X108446121Y-107946002D01*
X108492614Y-107999658D01*
X108504000Y-108052000D01*
X108504000Y-108308000D01*
X108483998Y-108376121D01*
X108430342Y-108422614D01*
X108378000Y-108434000D01*
X106933225Y-108434000D01*
X106919694Y-108437973D01*
X106918257Y-108447966D01*
X106948565Y-108582446D01*
X106951645Y-108592275D01*
X107031770Y-108789603D01*
X107036413Y-108798794D01*
X107147694Y-108980388D01*
X107153777Y-108988699D01*
X107293213Y-109149667D01*
X107300580Y-109156883D01*
X107464434Y-109292916D01*
X107472881Y-109298831D01*
X107541969Y-109339203D01*
X107590693Y-109390842D01*
X107603764Y-109460625D01*
X107577033Y-109526396D01*
X107536584Y-109559752D01*
X107523607Y-109566507D01*
X107519474Y-109569610D01*
X107519471Y-109569612D01*
X107349100Y-109697530D01*
X107344965Y-109700635D01*
X107190629Y-109862138D01*
X107187715Y-109866410D01*
X107187714Y-109866411D01*
X107103696Y-109989577D01*
X107064743Y-110046680D01*
X107039969Y-110100052D01*
X106978827Y-110231772D01*
X106970688Y-110249305D01*
X106910989Y-110464570D01*
X106887251Y-110686695D01*
X106887548Y-110691848D01*
X106887548Y-110691851D01*
X106899812Y-110904547D01*
X106900110Y-110909715D01*
X106901247Y-110914761D01*
X106901248Y-110914767D01*
X106914080Y-110971705D01*
X106949222Y-111127639D01*
X107033266Y-111334616D01*
X107084942Y-111418944D01*
X107147291Y-111520688D01*
X107149987Y-111525088D01*
X107296250Y-111693938D01*
X107468126Y-111836632D01*
X107501976Y-111856412D01*
X107541445Y-111879476D01*
X107590169Y-111931114D01*
X107603240Y-112000897D01*
X107576509Y-112066669D01*
X107536055Y-112100027D01*
X107523607Y-112106507D01*
X107519474Y-112109610D01*
X107519471Y-112109612D01*
X107355476Y-112232743D01*
X107344965Y-112240635D01*
X107190629Y-112402138D01*
X107187715Y-112406410D01*
X107187714Y-112406411D01*
X107103356Y-112530076D01*
X107064743Y-112586680D01*
X107048899Y-112620814D01*
X106988527Y-112750875D01*
X106970688Y-112789305D01*
X106910989Y-113004570D01*
X106887251Y-113226695D01*
X106900110Y-113449715D01*
X106901247Y-113454761D01*
X106901248Y-113454767D01*
X106914597Y-113514000D01*
X106949222Y-113667639D01*
X107033266Y-113874616D01*
X107043619Y-113891511D01*
X107147109Y-114060391D01*
X107149987Y-114065088D01*
X107296250Y-114233938D01*
X107468126Y-114376632D01*
X107520213Y-114407069D01*
X107541445Y-114419476D01*
X107590169Y-114471114D01*
X107603240Y-114540897D01*
X107576509Y-114606669D01*
X107536055Y-114640027D01*
X107523607Y-114646507D01*
X107519474Y-114649610D01*
X107519471Y-114649612D01*
X107349100Y-114777530D01*
X107344965Y-114780635D01*
X107190629Y-114942138D01*
X107187715Y-114946410D01*
X107187714Y-114946411D01*
X107103666Y-115069621D01*
X107064743Y-115126680D01*
X107062564Y-115131375D01*
X107002672Y-115260402D01*
X106970688Y-115329305D01*
X106910989Y-115544570D01*
X106887251Y-115766695D01*
X106887548Y-115771848D01*
X106887548Y-115771851D01*
X106899812Y-115984547D01*
X106900110Y-115989715D01*
X106901247Y-115994761D01*
X106901248Y-115994767D01*
X106914080Y-116051705D01*
X106949222Y-116207639D01*
X107033266Y-116414616D01*
X107084942Y-116498944D01*
X107147291Y-116600688D01*
X107149987Y-116605088D01*
X107296250Y-116773938D01*
X107468126Y-116916632D01*
X107501976Y-116936412D01*
X107541445Y-116959476D01*
X107590169Y-117011114D01*
X107603240Y-117080897D01*
X107576509Y-117146669D01*
X107536055Y-117180027D01*
X107523607Y-117186507D01*
X107519474Y-117189610D01*
X107519471Y-117189612D01*
X107355476Y-117312743D01*
X107344965Y-117320635D01*
X107190629Y-117482138D01*
X107187715Y-117486410D01*
X107187714Y-117486411D01*
X107103356Y-117610076D01*
X107064743Y-117666680D01*
X107048899Y-117700814D01*
X106988527Y-117830875D01*
X106970688Y-117869305D01*
X106910989Y-118084570D01*
X106887251Y-118306695D01*
X106900110Y-118529715D01*
X106901247Y-118534761D01*
X106901248Y-118534767D01*
X106914597Y-118594000D01*
X106949222Y-118747639D01*
X107033266Y-118954616D01*
X107149987Y-119145088D01*
X107296250Y-119313938D01*
X107468126Y-119456632D01*
X107520213Y-119487069D01*
X107541445Y-119499476D01*
X107590169Y-119551114D01*
X107603240Y-119620897D01*
X107576509Y-119686669D01*
X107536055Y-119720027D01*
X107523607Y-119726507D01*
X107519474Y-119729610D01*
X107519471Y-119729612D01*
X107349100Y-119857530D01*
X107344965Y-119860635D01*
X107190629Y-120022138D01*
X107187720Y-120026403D01*
X107187714Y-120026411D01*
X107112702Y-120136375D01*
X107064743Y-120206680D01*
X106970688Y-120409305D01*
X106910989Y-120624570D01*
X106887251Y-120846695D01*
X106887548Y-120851848D01*
X106887548Y-120851851D01*
X106893011Y-120946590D01*
X106900110Y-121069715D01*
X106901247Y-121074761D01*
X106901248Y-121074767D01*
X106915463Y-121137842D01*
X106949222Y-121287639D01*
X107000868Y-121414829D01*
X107027390Y-121480144D01*
X107033266Y-121494616D01*
X107081544Y-121573398D01*
X107147291Y-121680688D01*
X107149987Y-121685088D01*
X107296250Y-121853938D01*
X107468126Y-121996632D01*
X107500278Y-122015420D01*
X107541445Y-122039476D01*
X107590169Y-122091114D01*
X107603240Y-122160897D01*
X107576509Y-122226669D01*
X107536055Y-122260027D01*
X107523607Y-122266507D01*
X107519474Y-122269610D01*
X107519471Y-122269612D01*
X107349100Y-122397530D01*
X107344965Y-122400635D01*
X107341393Y-122404373D01*
X107242365Y-122508000D01*
X107190629Y-122562138D01*
X107187715Y-122566410D01*
X107187714Y-122566411D01*
X107103666Y-122689621D01*
X107064743Y-122746680D01*
X107062564Y-122751375D01*
X107002672Y-122880402D01*
X106970688Y-122949305D01*
X106910989Y-123164570D01*
X106887251Y-123386695D01*
X106887548Y-123391848D01*
X106887548Y-123391851D01*
X106894770Y-123517100D01*
X106900110Y-123609715D01*
X106901247Y-123614761D01*
X106901248Y-123614767D01*
X106914080Y-123671705D01*
X106949222Y-123827639D01*
X106973245Y-123886800D01*
X107030081Y-124026771D01*
X107033266Y-124034616D01*
X107084942Y-124118944D01*
X107147291Y-124220688D01*
X107149987Y-124225088D01*
X107296250Y-124393938D01*
X107468126Y-124536632D01*
X107474773Y-124540516D01*
X107541955Y-124579774D01*
X107590679Y-124631412D01*
X107603750Y-124701195D01*
X107577019Y-124766967D01*
X107536562Y-124800327D01*
X107528457Y-124804546D01*
X107519738Y-124810036D01*
X107349433Y-124937905D01*
X107341726Y-124944748D01*
X107194590Y-125098717D01*
X107188104Y-125106727D01*
X107068098Y-125282649D01*
X107063000Y-125291623D01*
X106973338Y-125484783D01*
X106969775Y-125494470D01*
X106914389Y-125694183D01*
X106915912Y-125702607D01*
X106928292Y-125706000D01*
X108378000Y-125706000D01*
X108446121Y-125726002D01*
X108492614Y-125779658D01*
X108504000Y-125832000D01*
X108504000Y-127278517D01*
X108508064Y-127292359D01*
X108521478Y-127294393D01*
X108528184Y-127293534D01*
X108538262Y-127291392D01*
X108742255Y-127230191D01*
X108751842Y-127226433D01*
X108943095Y-127132739D01*
X108951945Y-127127464D01*
X109125328Y-127003792D01*
X109133200Y-126997139D01*
X109284052Y-126846812D01*
X109290730Y-126838965D01*
X109418022Y-126661819D01*
X109419279Y-126662722D01*
X109466373Y-126619362D01*
X109536311Y-126607145D01*
X109601751Y-126634678D01*
X109629579Y-126666511D01*
X109689987Y-126765088D01*
X109836250Y-126933938D01*
X110008126Y-127076632D01*
X110201000Y-127189338D01*
X110205825Y-127191180D01*
X110205826Y-127191181D01*
X110278612Y-127218975D01*
X110409692Y-127269030D01*
X110414760Y-127270061D01*
X110414763Y-127270062D01*
X110509862Y-127289410D01*
X110628597Y-127313567D01*
X110633772Y-127313757D01*
X110633774Y-127313757D01*
X110846673Y-127321564D01*
X110846677Y-127321564D01*
X110851837Y-127321753D01*
X110856957Y-127321097D01*
X110856959Y-127321097D01*
X111043378Y-127297216D01*
X123319800Y-127297216D01*
X123324275Y-127312455D01*
X123325665Y-127313660D01*
X123333348Y-127315331D01*
X124105685Y-127315331D01*
X124120924Y-127310856D01*
X124122129Y-127309466D01*
X124123800Y-127301783D01*
X124123800Y-127297216D01*
X124631800Y-127297216D01*
X124636275Y-127312455D01*
X124637665Y-127313660D01*
X124645348Y-127315331D01*
X125417685Y-127315331D01*
X125432924Y-127310856D01*
X125434129Y-127309466D01*
X125435800Y-127301783D01*
X125435800Y-127247539D01*
X131959800Y-127247539D01*
X131964275Y-127262778D01*
X131965665Y-127263983D01*
X131973348Y-127265654D01*
X132745685Y-127265654D01*
X132760924Y-127261179D01*
X132762129Y-127259789D01*
X132763800Y-127252106D01*
X132763800Y-127247539D01*
X133271800Y-127247539D01*
X133276275Y-127262778D01*
X133277665Y-127263983D01*
X133285348Y-127265654D01*
X134057685Y-127265654D01*
X134072924Y-127261179D01*
X134074129Y-127259789D01*
X134075800Y-127252106D01*
X134075800Y-127170530D01*
X134075499Y-127164382D01*
X134061273Y-127019293D01*
X134058890Y-127007258D01*
X134002483Y-126820431D01*
X133997808Y-126809089D01*
X133906188Y-126636775D01*
X133899401Y-126626559D01*
X133776053Y-126475319D01*
X133767409Y-126466615D01*
X133617037Y-126342216D01*
X133606869Y-126335357D01*
X133435193Y-126242533D01*
X133423893Y-126237783D01*
X133289107Y-126196059D01*
X133275005Y-126195853D01*
X133271800Y-126202609D01*
X133271800Y-127247539D01*
X132763800Y-127247539D01*
X132763800Y-126209607D01*
X132759827Y-126196076D01*
X132752032Y-126194956D01*
X132625458Y-126232208D01*
X132614090Y-126236801D01*
X132441134Y-126327220D01*
X132430872Y-126333936D01*
X132278780Y-126456222D01*
X132270014Y-126464806D01*
X132144564Y-126614310D01*
X132137640Y-126624421D01*
X132043616Y-126795452D01*
X132038788Y-126806716D01*
X131979775Y-126992749D01*
X131977227Y-127004738D01*
X131960193Y-127156601D01*
X131959800Y-127163625D01*
X131959800Y-127247539D01*
X125435800Y-127247539D01*
X125435800Y-127220207D01*
X125435499Y-127214059D01*
X125421273Y-127068970D01*
X125418890Y-127056935D01*
X125362483Y-126870108D01*
X125357808Y-126858766D01*
X125266188Y-126686452D01*
X125259401Y-126676236D01*
X125136053Y-126524996D01*
X125127409Y-126516292D01*
X124977037Y-126391893D01*
X124966869Y-126385034D01*
X124795193Y-126292210D01*
X124783893Y-126287460D01*
X124649107Y-126245736D01*
X124635005Y-126245530D01*
X124631800Y-126252286D01*
X124631800Y-127297216D01*
X124123800Y-127297216D01*
X124123800Y-126259284D01*
X124119827Y-126245753D01*
X124112032Y-126244633D01*
X123985458Y-126281885D01*
X123974090Y-126286478D01*
X123801134Y-126376897D01*
X123790872Y-126383613D01*
X123638780Y-126505899D01*
X123630014Y-126514483D01*
X123504564Y-126663987D01*
X123497640Y-126674098D01*
X123403616Y-126845129D01*
X123398788Y-126856393D01*
X123339775Y-127042426D01*
X123337227Y-127054415D01*
X123320193Y-127206278D01*
X123319800Y-127213302D01*
X123319800Y-127297216D01*
X111043378Y-127297216D01*
X111068288Y-127294025D01*
X111068289Y-127294025D01*
X111073416Y-127293368D01*
X111078366Y-127291883D01*
X111282429Y-127230661D01*
X111282434Y-127230659D01*
X111287384Y-127229174D01*
X111487994Y-127130896D01*
X111669860Y-127001173D01*
X111678314Y-126992749D01*
X111809279Y-126862240D01*
X111828096Y-126843489D01*
X111885005Y-126764292D01*
X111955435Y-126666277D01*
X111958453Y-126662077D01*
X111971995Y-126634678D01*
X112055136Y-126466453D01*
X112055137Y-126466451D01*
X112057430Y-126461811D01*
X112108959Y-126292210D01*
X112120865Y-126253023D01*
X112120865Y-126253021D01*
X112122370Y-126248069D01*
X112134891Y-126152966D01*
X117693257Y-126152966D01*
X117723565Y-126287446D01*
X117726645Y-126297275D01*
X117806770Y-126494603D01*
X117811413Y-126503794D01*
X117922694Y-126685388D01*
X117928777Y-126693699D01*
X118068213Y-126854667D01*
X118075580Y-126861883D01*
X118239434Y-126997916D01*
X118247881Y-127003831D01*
X118431756Y-127111279D01*
X118441042Y-127115729D01*
X118640001Y-127191703D01*
X118649899Y-127194579D01*
X118753250Y-127215606D01*
X118767299Y-127214410D01*
X118771000Y-127204065D01*
X118771000Y-126157115D01*
X118766525Y-126141876D01*
X118765135Y-126140671D01*
X118757452Y-126139000D01*
X117708225Y-126139000D01*
X117694694Y-126142973D01*
X117693257Y-126152966D01*
X112134891Y-126152966D01*
X112151529Y-126026590D01*
X112153156Y-125960000D01*
X112134852Y-125737361D01*
X112080431Y-125520702D01*
X111991354Y-125315840D01*
X111941152Y-125238240D01*
X111872822Y-125132617D01*
X111872820Y-125132614D01*
X111870014Y-125128277D01*
X111719670Y-124963051D01*
X111715619Y-124959852D01*
X111715615Y-124959848D01*
X111548414Y-124827800D01*
X111548410Y-124827798D01*
X111544359Y-124824598D01*
X111503053Y-124801796D01*
X111453084Y-124751364D01*
X111438312Y-124681921D01*
X111463428Y-124615516D01*
X111490780Y-124588909D01*
X111536757Y-124556114D01*
X111669860Y-124461173D01*
X111673517Y-124457529D01*
X111673523Y-124457524D01*
X111801506Y-124329988D01*
X111863877Y-124296072D01*
X111934684Y-124301261D01*
X111979540Y-124330144D01*
X112561943Y-124912547D01*
X112569487Y-124920837D01*
X112573600Y-124927318D01*
X112579377Y-124932743D01*
X112623267Y-124973958D01*
X112626109Y-124976713D01*
X112645830Y-124996434D01*
X112649025Y-124998912D01*
X112658047Y-125006618D01*
X112690279Y-125036886D01*
X112697228Y-125040706D01*
X112708032Y-125046646D01*
X112724556Y-125057499D01*
X112740559Y-125069913D01*
X112781143Y-125087476D01*
X112791773Y-125092683D01*
X112830540Y-125113995D01*
X112838217Y-125115966D01*
X112838222Y-125115968D01*
X112850158Y-125119032D01*
X112868866Y-125125437D01*
X112887455Y-125133481D01*
X112895283Y-125134721D01*
X112895290Y-125134723D01*
X112931124Y-125140399D01*
X112942744Y-125142805D01*
X112974559Y-125150973D01*
X112985570Y-125153800D01*
X113005824Y-125153800D01*
X113025534Y-125155351D01*
X113045543Y-125158520D01*
X113053435Y-125157774D01*
X113089561Y-125154359D01*
X113101419Y-125153800D01*
X117669761Y-125153800D01*
X117737882Y-125173802D01*
X117784375Y-125227458D01*
X117794479Y-125297732D01*
X117784049Y-125332850D01*
X117748339Y-125409783D01*
X117744775Y-125419470D01*
X117689389Y-125619183D01*
X117690912Y-125627607D01*
X117703292Y-125631000D01*
X119153000Y-125631000D01*
X119221121Y-125651002D01*
X119267614Y-125704658D01*
X119279000Y-125757000D01*
X119279000Y-127203517D01*
X119283064Y-127217359D01*
X119296478Y-127219393D01*
X119303184Y-127218534D01*
X119313262Y-127216392D01*
X119517255Y-127155191D01*
X119526842Y-127151433D01*
X119718095Y-127057739D01*
X119726945Y-127052464D01*
X119900328Y-126928792D01*
X119908200Y-126922139D01*
X120059052Y-126771812D01*
X120065730Y-126763965D01*
X120193022Y-126586819D01*
X120194279Y-126587722D01*
X120241373Y-126544362D01*
X120311311Y-126532145D01*
X120376751Y-126559678D01*
X120404579Y-126591511D01*
X120464987Y-126690088D01*
X120611250Y-126858938D01*
X120783126Y-127001632D01*
X120976000Y-127114338D01*
X121184692Y-127194030D01*
X121189760Y-127195061D01*
X121189763Y-127195062D01*
X121244892Y-127206278D01*
X121403597Y-127238567D01*
X121408772Y-127238757D01*
X121408774Y-127238757D01*
X121621673Y-127246564D01*
X121621677Y-127246564D01*
X121626837Y-127246753D01*
X121631957Y-127246097D01*
X121631959Y-127246097D01*
X121843288Y-127219025D01*
X121843289Y-127219025D01*
X121848416Y-127218368D01*
X121853366Y-127216883D01*
X122057429Y-127155661D01*
X122057434Y-127155659D01*
X122062384Y-127154174D01*
X122262994Y-127055896D01*
X122444860Y-126926173D01*
X122603096Y-126768489D01*
X122670923Y-126674098D01*
X122730435Y-126591277D01*
X122733453Y-126587077D01*
X122746995Y-126559678D01*
X122830136Y-126391453D01*
X122830137Y-126391451D01*
X122832430Y-126386811D01*
X122884060Y-126216876D01*
X122895865Y-126178023D01*
X122895865Y-126178021D01*
X122897370Y-126173069D01*
X122926529Y-125951590D01*
X122928156Y-125885000D01*
X122909852Y-125662361D01*
X122855431Y-125445702D01*
X122766354Y-125240840D01*
X122691257Y-125124757D01*
X122647822Y-125057617D01*
X122647820Y-125057614D01*
X122645014Y-125053277D01*
X122494670Y-124888051D01*
X122490619Y-124884852D01*
X122490615Y-124884848D01*
X122323414Y-124752800D01*
X122323410Y-124752798D01*
X122319359Y-124749598D01*
X122278053Y-124726796D01*
X122228084Y-124676364D01*
X122213312Y-124606921D01*
X122238428Y-124540516D01*
X122265780Y-124513909D01*
X122326885Y-124470323D01*
X122444860Y-124386173D01*
X122603096Y-124228489D01*
X122614146Y-124213112D01*
X122680892Y-124120224D01*
X123319800Y-124120224D01*
X123320101Y-124126372D01*
X123334327Y-124271461D01*
X123336710Y-124283496D01*
X123393117Y-124470323D01*
X123397792Y-124481665D01*
X123489412Y-124653979D01*
X123496199Y-124664195D01*
X123619547Y-124815435D01*
X123628191Y-124824139D01*
X123778563Y-124948538D01*
X123788731Y-124955397D01*
X123960407Y-125048221D01*
X123971707Y-125052971D01*
X124106493Y-125094695D01*
X124120595Y-125094901D01*
X124123800Y-125088145D01*
X124123800Y-125081147D01*
X124631800Y-125081147D01*
X124635773Y-125094678D01*
X124643568Y-125095798D01*
X124770142Y-125058546D01*
X124781510Y-125053953D01*
X124954466Y-124963534D01*
X124964728Y-124956818D01*
X125116820Y-124834532D01*
X125125586Y-124825948D01*
X125251036Y-124676444D01*
X125257960Y-124666333D01*
X125351984Y-124495302D01*
X125356812Y-124484038D01*
X125411555Y-124311465D01*
X125451218Y-124252581D01*
X125516420Y-124224489D01*
X125569336Y-124229330D01*
X125663390Y-124258805D01*
X125676440Y-124261418D01*
X125731332Y-124266462D01*
X125742870Y-124263074D01*
X125744075Y-124261684D01*
X125745746Y-124254001D01*
X125745746Y-122069665D01*
X125741271Y-122054426D01*
X125739881Y-122053221D01*
X125735452Y-122052258D01*
X125676431Y-122057681D01*
X125663395Y-122060292D01*
X125513503Y-122107264D01*
X125499758Y-122113470D01*
X125366172Y-122194373D01*
X125354303Y-122203680D01*
X125243877Y-122314106D01*
X125234570Y-122325975D01*
X125153667Y-122459561D01*
X125147461Y-122473306D01*
X125136589Y-122508000D01*
X125097132Y-122567022D01*
X125032028Y-122595342D01*
X124956427Y-122581157D01*
X124795193Y-122493979D01*
X124783893Y-122489229D01*
X124649107Y-122447505D01*
X124635005Y-122447299D01*
X124631800Y-122454055D01*
X124631800Y-125081147D01*
X124123800Y-125081147D01*
X124123800Y-124043215D01*
X124119325Y-124027976D01*
X124117935Y-124026771D01*
X124110252Y-124025100D01*
X123337915Y-124025100D01*
X123322676Y-124029575D01*
X123321471Y-124030965D01*
X123319800Y-124038648D01*
X123319800Y-124120224D01*
X122680892Y-124120224D01*
X122730435Y-124051277D01*
X122733453Y-124047077D01*
X122741978Y-124029829D01*
X122830136Y-123851453D01*
X122830137Y-123851451D01*
X122832430Y-123846811D01*
X122877711Y-123697775D01*
X122895865Y-123638023D01*
X122895865Y-123638021D01*
X122897370Y-123633069D01*
X122915023Y-123498985D01*
X123319800Y-123498985D01*
X123324275Y-123514224D01*
X123325665Y-123515429D01*
X123333348Y-123517100D01*
X124105685Y-123517100D01*
X124120924Y-123512625D01*
X124122129Y-123511235D01*
X124123800Y-123503552D01*
X124123800Y-122461053D01*
X124119827Y-122447522D01*
X124112032Y-122446402D01*
X123985458Y-122483654D01*
X123974090Y-122488247D01*
X123801134Y-122578666D01*
X123790872Y-122585382D01*
X123638780Y-122707668D01*
X123630014Y-122716252D01*
X123504564Y-122865756D01*
X123497640Y-122875867D01*
X123403616Y-123046898D01*
X123398788Y-123058162D01*
X123339775Y-123244195D01*
X123337227Y-123256184D01*
X123320193Y-123408047D01*
X123319800Y-123415071D01*
X123319800Y-123498985D01*
X122915023Y-123498985D01*
X122926529Y-123411590D01*
X122928156Y-123345000D01*
X122909852Y-123122361D01*
X122855431Y-122905702D01*
X122766354Y-122700840D01*
X122698104Y-122595342D01*
X122647822Y-122517617D01*
X122647820Y-122517614D01*
X122645014Y-122513277D01*
X122494670Y-122348051D01*
X122490619Y-122344852D01*
X122490615Y-122344848D01*
X122323414Y-122212800D01*
X122323410Y-122212798D01*
X122319359Y-122209598D01*
X122278053Y-122186796D01*
X122228084Y-122136364D01*
X122213312Y-122066921D01*
X122238428Y-122000516D01*
X122265780Y-121973909D01*
X122309603Y-121942650D01*
X122444860Y-121846173D01*
X122456427Y-121834647D01*
X122550823Y-121740580D01*
X122603096Y-121688489D01*
X122648214Y-121625701D01*
X122730435Y-121511277D01*
X122733453Y-121507077D01*
X122741978Y-121489829D01*
X122830136Y-121311453D01*
X122830137Y-121311451D01*
X122832430Y-121306811D01*
X122897370Y-121093069D01*
X122926529Y-120871590D01*
X122928156Y-120805000D01*
X122909852Y-120582361D01*
X122855431Y-120365702D01*
X122766354Y-120160840D01*
X122693534Y-120048277D01*
X122647822Y-119977617D01*
X122647820Y-119977614D01*
X122645014Y-119973277D01*
X122494670Y-119808051D01*
X122490619Y-119804852D01*
X122490615Y-119804848D01*
X122323414Y-119672800D01*
X122323410Y-119672798D01*
X122319359Y-119669598D01*
X122277569Y-119646529D01*
X122227598Y-119596097D01*
X122212826Y-119526654D01*
X122237942Y-119460248D01*
X122265294Y-119433641D01*
X122440328Y-119308792D01*
X122448200Y-119302139D01*
X122599052Y-119151812D01*
X122605730Y-119143965D01*
X122730003Y-118971020D01*
X122735313Y-118962183D01*
X122829670Y-118771267D01*
X122833469Y-118761672D01*
X122895377Y-118557910D01*
X122897555Y-118547837D01*
X122898986Y-118536962D01*
X122896775Y-118522778D01*
X122883617Y-118519000D01*
X121437000Y-118519000D01*
X121368879Y-118498998D01*
X121322386Y-118445342D01*
X121311000Y-118393000D01*
X121311000Y-118137000D01*
X121331002Y-118068879D01*
X121384658Y-118022386D01*
X121437000Y-118011000D01*
X122883344Y-118011000D01*
X122896875Y-118007027D01*
X122898180Y-117997947D01*
X122856214Y-117830875D01*
X122852894Y-117821124D01*
X122767972Y-117625814D01*
X122763105Y-117616739D01*
X122647426Y-117437926D01*
X122641136Y-117429757D01*
X122497806Y-117272240D01*
X122490273Y-117265215D01*
X122323139Y-117133222D01*
X122314556Y-117127520D01*
X122277602Y-117107120D01*
X122227631Y-117056687D01*
X122212859Y-116987245D01*
X122237975Y-116920839D01*
X122265327Y-116894232D01*
X122288797Y-116877491D01*
X122444860Y-116766173D01*
X122603096Y-116608489D01*
X122733453Y-116427077D01*
X122741978Y-116409829D01*
X122830136Y-116231453D01*
X122830137Y-116231451D01*
X122832430Y-116226811D01*
X122866700Y-116114017D01*
X122895865Y-116018023D01*
X122895865Y-116018021D01*
X122897370Y-116013069D01*
X122926529Y-115791590D01*
X122928156Y-115725000D01*
X122909852Y-115502361D01*
X122855431Y-115285702D01*
X122766354Y-115080840D01*
X122674206Y-114938401D01*
X122647822Y-114897617D01*
X122647820Y-114897614D01*
X122645014Y-114893277D01*
X122494670Y-114728051D01*
X122490619Y-114724852D01*
X122490615Y-114724848D01*
X122323414Y-114592800D01*
X122323410Y-114592798D01*
X122319359Y-114589598D01*
X122277569Y-114566529D01*
X122227598Y-114516097D01*
X122212826Y-114446654D01*
X122237942Y-114380248D01*
X122265294Y-114353641D01*
X122440328Y-114228792D01*
X122448200Y-114222139D01*
X122599052Y-114071812D01*
X122605730Y-114063965D01*
X122730003Y-113891020D01*
X122735313Y-113882183D01*
X122829670Y-113691267D01*
X122833469Y-113681672D01*
X122895377Y-113477910D01*
X122897555Y-113467837D01*
X122898986Y-113456962D01*
X122896775Y-113442778D01*
X122883617Y-113439000D01*
X121437000Y-113439000D01*
X121368879Y-113418998D01*
X121322386Y-113365342D01*
X121311000Y-113313000D01*
X121311000Y-113057000D01*
X121331002Y-112988879D01*
X121384658Y-112942386D01*
X121437000Y-112931000D01*
X122883344Y-112931000D01*
X122896875Y-112927027D01*
X122898180Y-112917947D01*
X122856214Y-112750875D01*
X122852894Y-112741124D01*
X122767972Y-112545814D01*
X122763105Y-112536739D01*
X122647426Y-112357926D01*
X122641136Y-112349757D01*
X122497806Y-112192240D01*
X122490273Y-112185215D01*
X122323139Y-112053222D01*
X122314556Y-112047520D01*
X122277602Y-112027120D01*
X122227631Y-111976687D01*
X122212859Y-111907245D01*
X122237975Y-111840839D01*
X122265327Y-111814232D01*
X122288797Y-111797491D01*
X122444860Y-111686173D01*
X122603096Y-111528489D01*
X122733453Y-111347077D01*
X122741978Y-111329829D01*
X122830136Y-111151453D01*
X122830137Y-111151451D01*
X122832430Y-111146811D01*
X122866700Y-111034017D01*
X122895865Y-110938023D01*
X122895865Y-110938021D01*
X122897370Y-110933069D01*
X122926529Y-110711590D01*
X122928156Y-110645000D01*
X122909852Y-110422361D01*
X122855431Y-110205702D01*
X122766354Y-110000840D01*
X122660761Y-109837618D01*
X122647822Y-109817617D01*
X122647820Y-109817614D01*
X122645014Y-109813277D01*
X122494670Y-109648051D01*
X122490619Y-109644852D01*
X122490615Y-109644848D01*
X122323414Y-109512800D01*
X122323410Y-109512798D01*
X122319359Y-109509598D01*
X122278053Y-109486796D01*
X122228084Y-109436364D01*
X122213312Y-109366921D01*
X122238428Y-109300516D01*
X122265780Y-109273909D01*
X122333092Y-109225896D01*
X122444860Y-109146173D01*
X122456427Y-109134647D01*
X122566791Y-109024667D01*
X122603096Y-108988489D01*
X122639025Y-108938489D01*
X122730435Y-108811277D01*
X122733453Y-108807077D01*
X122746995Y-108779678D01*
X122830136Y-108611453D01*
X122830137Y-108611451D01*
X122832430Y-108606811D01*
X122897370Y-108393069D01*
X122926529Y-108171590D01*
X122928156Y-108105000D01*
X122909852Y-107882361D01*
X122855431Y-107665702D01*
X122766354Y-107460840D01*
X122691257Y-107344757D01*
X122647822Y-107277617D01*
X122647820Y-107277614D01*
X122645014Y-107273277D01*
X122494670Y-107108051D01*
X122490619Y-107104852D01*
X122490615Y-107104848D01*
X122323414Y-106972800D01*
X122323410Y-106972798D01*
X122319359Y-106969598D01*
X122278053Y-106946796D01*
X122228084Y-106896364D01*
X122213312Y-106826921D01*
X122238428Y-106760516D01*
X122265780Y-106733909D01*
X122333092Y-106685896D01*
X122444860Y-106606173D01*
X122603096Y-106448489D01*
X122639025Y-106398489D01*
X122730435Y-106271277D01*
X122733453Y-106267077D01*
X122741978Y-106249829D01*
X122830136Y-106071453D01*
X122830137Y-106071451D01*
X122832430Y-106066811D01*
X122897370Y-105853069D01*
X122926529Y-105631590D01*
X122928156Y-105565000D01*
X122909852Y-105342361D01*
X122855431Y-105125702D01*
X122766354Y-104920840D01*
X122691697Y-104805438D01*
X122647822Y-104737617D01*
X122647818Y-104737612D01*
X122645014Y-104733277D01*
X122494670Y-104568051D01*
X122490619Y-104564852D01*
X122490615Y-104564848D01*
X122323414Y-104432800D01*
X122323410Y-104432798D01*
X122319359Y-104429598D01*
X122278053Y-104406796D01*
X122228084Y-104356364D01*
X122213312Y-104286921D01*
X122238428Y-104220516D01*
X122265780Y-104193909D01*
X122333092Y-104145896D01*
X122444860Y-104066173D01*
X122603096Y-103908489D01*
X122639025Y-103858489D01*
X122730435Y-103731277D01*
X122733453Y-103727077D01*
X122741978Y-103709829D01*
X122830136Y-103531453D01*
X122830137Y-103531451D01*
X122832430Y-103526811D01*
X122897370Y-103313069D01*
X122926529Y-103091590D01*
X122928156Y-103025000D01*
X122909852Y-102802361D01*
X122855431Y-102585702D01*
X122766354Y-102380840D01*
X122693534Y-102268277D01*
X122647822Y-102197617D01*
X122647820Y-102197614D01*
X122645014Y-102193277D01*
X122494670Y-102028051D01*
X122490619Y-102024852D01*
X122490615Y-102024848D01*
X122323414Y-101892800D01*
X122323410Y-101892798D01*
X122319359Y-101889598D01*
X122277569Y-101866529D01*
X122227598Y-101816097D01*
X122212826Y-101746654D01*
X122237942Y-101680248D01*
X122265294Y-101653641D01*
X122440328Y-101528792D01*
X122448200Y-101522139D01*
X122599052Y-101371812D01*
X122605730Y-101363965D01*
X122730003Y-101191020D01*
X122735313Y-101182183D01*
X122829670Y-100991267D01*
X122833469Y-100981672D01*
X122895377Y-100777910D01*
X122897555Y-100767837D01*
X122898986Y-100756962D01*
X122896775Y-100742778D01*
X122883617Y-100739000D01*
X121437000Y-100739000D01*
X121368879Y-100718998D01*
X121322386Y-100665342D01*
X121311000Y-100613000D01*
X121311000Y-100357000D01*
X121331002Y-100288879D01*
X121384658Y-100242386D01*
X121437000Y-100231000D01*
X122883344Y-100231000D01*
X122896875Y-100227027D01*
X122898180Y-100217947D01*
X122856214Y-100050875D01*
X122852894Y-100041124D01*
X122767972Y-99845814D01*
X122763105Y-99836739D01*
X122647426Y-99657926D01*
X122641136Y-99649757D01*
X122497806Y-99492240D01*
X122490273Y-99485215D01*
X122323139Y-99353222D01*
X122314556Y-99347520D01*
X122277602Y-99327120D01*
X122227631Y-99276687D01*
X122212859Y-99207245D01*
X122237975Y-99140839D01*
X122265327Y-99114232D01*
X122333092Y-99065896D01*
X122444860Y-98986173D01*
X122603096Y-98828489D01*
X122639025Y-98778489D01*
X122730435Y-98651277D01*
X122733453Y-98647077D01*
X122737611Y-98638665D01*
X122830136Y-98451453D01*
X122830137Y-98451451D01*
X122832430Y-98446811D01*
X122897370Y-98233069D01*
X122926529Y-98011590D01*
X122928156Y-97945000D01*
X122909852Y-97722361D01*
X122855431Y-97505702D01*
X122766354Y-97300840D01*
X122697636Y-97194618D01*
X122647822Y-97117617D01*
X122647818Y-97117612D01*
X122645014Y-97113277D01*
X122494670Y-96948051D01*
X122490619Y-96944852D01*
X122490615Y-96944848D01*
X122323414Y-96812800D01*
X122323410Y-96812798D01*
X122319359Y-96809598D01*
X122278053Y-96786796D01*
X122228084Y-96736364D01*
X122213312Y-96666921D01*
X122238428Y-96600516D01*
X122265780Y-96573909D01*
X122333092Y-96525896D01*
X122444860Y-96446173D01*
X122603096Y-96288489D01*
X122639025Y-96238489D01*
X122730435Y-96111277D01*
X122733453Y-96107077D01*
X122755735Y-96061994D01*
X122830136Y-95911453D01*
X122830137Y-95911451D01*
X122832430Y-95906811D01*
X122892314Y-95709710D01*
X122895865Y-95698023D01*
X122895865Y-95698021D01*
X122897370Y-95693069D01*
X122926529Y-95471590D01*
X122928156Y-95405000D01*
X122909852Y-95182361D01*
X122855431Y-94965702D01*
X122766354Y-94760840D01*
X122693534Y-94648277D01*
X122647822Y-94577617D01*
X122647820Y-94577614D01*
X122645014Y-94573277D01*
X122494670Y-94408051D01*
X122490619Y-94404852D01*
X122490615Y-94404848D01*
X122323414Y-94272800D01*
X122323410Y-94272798D01*
X122319359Y-94269598D01*
X122277569Y-94246529D01*
X122227598Y-94196097D01*
X122212826Y-94126654D01*
X122237942Y-94060248D01*
X122265294Y-94033641D01*
X122440328Y-93908792D01*
X122448200Y-93902139D01*
X122599052Y-93751812D01*
X122605730Y-93743965D01*
X122730003Y-93571020D01*
X122735313Y-93562183D01*
X122829670Y-93371267D01*
X122833469Y-93361672D01*
X122895377Y-93157910D01*
X122897555Y-93147837D01*
X122898986Y-93136962D01*
X122896775Y-93122778D01*
X122883617Y-93119000D01*
X121437000Y-93119000D01*
X121368879Y-93098998D01*
X121322386Y-93045342D01*
X121311000Y-92993000D01*
X121311000Y-92737000D01*
X121331002Y-92668879D01*
X121384658Y-92622386D01*
X121437000Y-92611000D01*
X122883344Y-92611000D01*
X122896875Y-92607027D01*
X122898180Y-92597947D01*
X122856214Y-92430875D01*
X122852894Y-92421124D01*
X122767972Y-92225814D01*
X122763105Y-92216739D01*
X122647426Y-92037926D01*
X122641136Y-92029757D01*
X122497806Y-91872240D01*
X122490273Y-91865215D01*
X122323139Y-91733222D01*
X122314556Y-91727520D01*
X122277602Y-91707120D01*
X122227631Y-91656687D01*
X122212859Y-91587245D01*
X122237975Y-91520839D01*
X122265327Y-91494232D01*
X122333092Y-91445896D01*
X122444860Y-91366173D01*
X122603096Y-91208489D01*
X122639025Y-91158489D01*
X122730435Y-91031277D01*
X122733453Y-91027077D01*
X122755735Y-90981994D01*
X122830136Y-90831453D01*
X122830137Y-90831451D01*
X122832430Y-90826811D01*
X122897370Y-90613069D01*
X122926529Y-90391590D01*
X122928156Y-90325000D01*
X122909852Y-90102361D01*
X122855431Y-89885702D01*
X122766354Y-89680840D01*
X122693534Y-89568277D01*
X122647822Y-89497617D01*
X122647820Y-89497614D01*
X122645014Y-89493277D01*
X122494670Y-89328051D01*
X122490619Y-89324852D01*
X122490615Y-89324848D01*
X122323414Y-89192800D01*
X122323410Y-89192798D01*
X122319359Y-89189598D01*
X122278053Y-89166796D01*
X122228084Y-89116364D01*
X122213312Y-89046921D01*
X122238428Y-88980516D01*
X122265780Y-88953909D01*
X122333092Y-88905896D01*
X122444860Y-88826173D01*
X122603096Y-88668489D01*
X122639025Y-88618489D01*
X122730435Y-88491277D01*
X122733453Y-88487077D01*
X122746995Y-88459678D01*
X122830136Y-88291453D01*
X122830137Y-88291451D01*
X122832430Y-88286811D01*
X122897370Y-88073069D01*
X122926529Y-87851590D01*
X122928156Y-87785000D01*
X122909852Y-87562361D01*
X122855431Y-87345702D01*
X122766354Y-87140840D01*
X122696267Y-87032502D01*
X122647822Y-86957617D01*
X122647820Y-86957614D01*
X122645014Y-86953277D01*
X122494670Y-86788051D01*
X122490619Y-86784852D01*
X122490615Y-86784848D01*
X122323414Y-86652800D01*
X122323410Y-86652798D01*
X122319359Y-86649598D01*
X122278053Y-86626796D01*
X122228084Y-86576364D01*
X122213312Y-86506921D01*
X122238428Y-86440516D01*
X122265780Y-86413909D01*
X122333092Y-86365896D01*
X122444860Y-86286173D01*
X122603096Y-86128489D01*
X122639025Y-86078489D01*
X122730435Y-85951277D01*
X122733453Y-85947077D01*
X122755735Y-85901994D01*
X122830136Y-85751453D01*
X122830137Y-85751451D01*
X122832430Y-85746811D01*
X122897370Y-85533069D01*
X122926529Y-85311590D01*
X122928156Y-85245000D01*
X122909852Y-85022361D01*
X122855431Y-84805702D01*
X122766354Y-84600840D01*
X122693157Y-84487694D01*
X122647822Y-84417617D01*
X122647820Y-84417614D01*
X122645014Y-84413277D01*
X122494670Y-84248051D01*
X122490619Y-84244852D01*
X122490615Y-84244848D01*
X122323414Y-84112800D01*
X122323410Y-84112798D01*
X122319359Y-84109598D01*
X122277569Y-84086529D01*
X122227598Y-84036097D01*
X122212826Y-83966654D01*
X122237942Y-83900248D01*
X122265294Y-83873641D01*
X122440328Y-83748792D01*
X122448200Y-83742139D01*
X122599052Y-83591812D01*
X122605730Y-83583965D01*
X122730003Y-83411020D01*
X122735313Y-83402183D01*
X122829670Y-83211267D01*
X122833469Y-83201672D01*
X122895377Y-82997910D01*
X122897555Y-82987837D01*
X122898986Y-82976962D01*
X122896775Y-82962778D01*
X122883617Y-82959000D01*
X121437000Y-82959000D01*
X121368879Y-82938998D01*
X121322386Y-82885342D01*
X121311000Y-82833000D01*
X121311000Y-82577000D01*
X121331002Y-82508879D01*
X121384658Y-82462386D01*
X121437000Y-82451000D01*
X122883344Y-82451000D01*
X122896875Y-82447027D01*
X122898180Y-82437947D01*
X122856214Y-82270875D01*
X122852894Y-82261124D01*
X122767972Y-82065814D01*
X122763105Y-82056739D01*
X122647426Y-81877926D01*
X122641136Y-81869757D01*
X122497806Y-81712240D01*
X122490273Y-81705215D01*
X122323139Y-81573222D01*
X122314556Y-81567520D01*
X122277602Y-81547120D01*
X122227631Y-81496687D01*
X122212859Y-81427245D01*
X122237975Y-81360839D01*
X122265327Y-81334232D01*
X122333092Y-81285896D01*
X122444860Y-81206173D01*
X122603096Y-81048489D01*
X122631586Y-81008841D01*
X122687582Y-80965194D01*
X122758285Y-80958749D01*
X122823003Y-80993273D01*
X124662729Y-82833000D01*
X126484395Y-84654666D01*
X126518421Y-84716978D01*
X126521300Y-84743761D01*
X126521300Y-121911238D01*
X126521298Y-121911898D01*
X126521112Y-121947405D01*
X126500754Y-122015420D01*
X126446855Y-122061631D01*
X126376529Y-122071367D01*
X126357433Y-122066979D01*
X126336095Y-122060292D01*
X126323052Y-122057680D01*
X126268160Y-122052636D01*
X126256622Y-122056024D01*
X126255417Y-122057414D01*
X126253746Y-122065097D01*
X126253746Y-124249433D01*
X126258221Y-124264672D01*
X126259611Y-124265877D01*
X126264040Y-124266840D01*
X126323061Y-124261417D01*
X126336097Y-124258806D01*
X126485989Y-124211834D01*
X126499740Y-124205625D01*
X126555388Y-124171923D01*
X126624017Y-124153743D01*
X126685932Y-124171923D01*
X126743690Y-124206903D01*
X126743695Y-124206905D01*
X126750192Y-124210840D01*
X126757439Y-124213111D01*
X126757441Y-124213112D01*
X126806510Y-124228489D01*
X126911520Y-124261397D01*
X126983915Y-124268049D01*
X126986813Y-124268049D01*
X127230383Y-124268048D01*
X127475576Y-124268048D01*
X127478435Y-124267785D01*
X127478443Y-124267785D01*
X127513944Y-124264523D01*
X127547972Y-124261397D01*
X127556400Y-124258756D01*
X127709300Y-124210840D01*
X127710138Y-124213514D01*
X127767474Y-124205526D01*
X127791270Y-124212515D01*
X127791410Y-124212068D01*
X127942890Y-124259540D01*
X127942893Y-124259541D01*
X127949273Y-124261540D01*
X128020112Y-124268049D01*
X128479380Y-124268049D01*
X128550219Y-124261540D01*
X128556599Y-124259541D01*
X128556602Y-124259540D01*
X128708082Y-124212068D01*
X128708736Y-124214156D01*
X128768208Y-124205863D01*
X128791236Y-124212624D01*
X128791410Y-124212068D01*
X128942890Y-124259540D01*
X128942893Y-124259541D01*
X128949273Y-124261540D01*
X129020112Y-124268049D01*
X129479380Y-124268049D01*
X129550219Y-124261540D01*
X129556599Y-124259541D01*
X129556602Y-124259540D01*
X129708082Y-124212068D01*
X129708666Y-124213931D01*
X129768961Y-124205524D01*
X129789929Y-124211680D01*
X129790192Y-124210840D01*
X129951520Y-124261397D01*
X130023915Y-124268049D01*
X130026813Y-124268049D01*
X130270383Y-124268048D01*
X130515576Y-124268048D01*
X130518435Y-124267785D01*
X130518443Y-124267785D01*
X130553944Y-124264523D01*
X130587972Y-124261397D01*
X130596393Y-124258758D01*
X130742051Y-124213112D01*
X130742053Y-124213111D01*
X130749300Y-124210840D01*
X130755797Y-124206905D01*
X130755802Y-124206903D01*
X130813560Y-124171923D01*
X130882189Y-124153743D01*
X130944104Y-124171923D01*
X130999752Y-124205625D01*
X131013503Y-124211834D01*
X131163390Y-124258805D01*
X131176440Y-124261418D01*
X131231332Y-124266462D01*
X131242870Y-124263074D01*
X131244075Y-124261684D01*
X131245746Y-124254001D01*
X131245746Y-124249433D01*
X131753746Y-124249433D01*
X131758221Y-124264672D01*
X131759611Y-124265877D01*
X131764040Y-124266840D01*
X131823061Y-124261417D01*
X131836099Y-124258806D01*
X131836252Y-124258758D01*
X131836347Y-124258756D01*
X131842649Y-124257494D01*
X131842878Y-124258638D01*
X131907237Y-124257477D01*
X131967646Y-124294778D01*
X131994547Y-124342576D01*
X132033117Y-124470323D01*
X132037792Y-124481665D01*
X132129412Y-124653979D01*
X132136199Y-124664195D01*
X132259547Y-124815435D01*
X132268191Y-124824139D01*
X132418563Y-124948538D01*
X132428731Y-124955397D01*
X132600407Y-125048221D01*
X132611707Y-125052971D01*
X132746493Y-125094695D01*
X132760595Y-125094901D01*
X132763800Y-125088145D01*
X132763800Y-125081147D01*
X133271800Y-125081147D01*
X133275773Y-125094678D01*
X133283568Y-125095798D01*
X133410142Y-125058546D01*
X133421510Y-125053953D01*
X133594466Y-124963534D01*
X133604728Y-124956818D01*
X133756820Y-124834532D01*
X133765586Y-124825948D01*
X133891036Y-124676444D01*
X133897960Y-124666333D01*
X133991984Y-124495302D01*
X133996812Y-124484038D01*
X134055825Y-124298005D01*
X134058373Y-124286016D01*
X134075407Y-124134153D01*
X134075800Y-124127129D01*
X134075800Y-124043215D01*
X134071325Y-124027976D01*
X134069935Y-124026771D01*
X134062252Y-124025100D01*
X133289915Y-124025100D01*
X133274676Y-124029575D01*
X133273471Y-124030965D01*
X133271800Y-124038648D01*
X133271800Y-125081147D01*
X132763800Y-125081147D01*
X132763800Y-123498985D01*
X133271800Y-123498985D01*
X133276275Y-123514224D01*
X133277665Y-123515429D01*
X133285348Y-123517100D01*
X134057685Y-123517100D01*
X134072924Y-123512625D01*
X134074129Y-123511235D01*
X134075800Y-123503552D01*
X134075800Y-123421976D01*
X134075499Y-123415828D01*
X134061273Y-123270739D01*
X134058890Y-123258704D01*
X134002483Y-123071877D01*
X133997808Y-123060535D01*
X133906188Y-122888221D01*
X133899401Y-122878005D01*
X133776053Y-122726765D01*
X133767409Y-122718061D01*
X133617037Y-122593662D01*
X133606869Y-122586803D01*
X133435193Y-122493979D01*
X133423893Y-122489229D01*
X133289107Y-122447505D01*
X133275005Y-122447299D01*
X133271800Y-122454055D01*
X133271800Y-123498985D01*
X132763800Y-123498985D01*
X132763800Y-122461053D01*
X132759827Y-122447522D01*
X132752032Y-122446402D01*
X132625458Y-122483654D01*
X132614090Y-122488247D01*
X132525819Y-122534394D01*
X132456184Y-122548228D01*
X132390123Y-122522218D01*
X132352606Y-122474581D01*
X132345823Y-122459559D01*
X132264922Y-122325975D01*
X132255615Y-122314106D01*
X132145189Y-122203680D01*
X132133320Y-122194373D01*
X131999734Y-122113470D01*
X131985989Y-122107264D01*
X131836102Y-122060293D01*
X131823052Y-122057680D01*
X131768160Y-122052636D01*
X131756622Y-122056024D01*
X131755417Y-122057414D01*
X131753746Y-122065097D01*
X131753746Y-124249433D01*
X131245746Y-124249433D01*
X131245746Y-122069665D01*
X131241271Y-122054426D01*
X131239881Y-122053221D01*
X131235452Y-122052258D01*
X131176431Y-122057681D01*
X131163395Y-122060292D01*
X131013503Y-122107264D01*
X130999752Y-122113473D01*
X130944104Y-122147175D01*
X130875475Y-122165355D01*
X130813560Y-122147175D01*
X130755802Y-122112195D01*
X130755797Y-122112193D01*
X130749300Y-122108258D01*
X130742053Y-122105987D01*
X130742051Y-122105986D01*
X130669849Y-122083360D01*
X130587972Y-122057701D01*
X130588342Y-122056522D01*
X130529886Y-122025226D01*
X129944140Y-121439480D01*
X129938286Y-121433215D01*
X129937891Y-121432762D01*
X129900251Y-121389615D01*
X129847970Y-121352871D01*
X129842676Y-121348939D01*
X129798383Y-121314209D01*
X129792408Y-121309524D01*
X129785492Y-121306401D01*
X129783206Y-121305017D01*
X129768525Y-121296643D01*
X129766165Y-121295378D01*
X129759951Y-121291010D01*
X129752872Y-121288250D01*
X129752870Y-121288249D01*
X129700415Y-121267798D01*
X129694346Y-121265247D01*
X129636117Y-121238955D01*
X129628650Y-121237571D01*
X129626095Y-121236770D01*
X129609842Y-121232141D01*
X129607262Y-121231478D01*
X129600181Y-121228718D01*
X129592650Y-121227727D01*
X129592648Y-121227726D01*
X129563029Y-121223827D01*
X129536829Y-121220378D01*
X129530331Y-121219348D01*
X129467504Y-121207704D01*
X129459924Y-121208141D01*
X129459923Y-121208141D01*
X129405298Y-121211291D01*
X129398044Y-121211500D01*
X128064300Y-121211500D01*
X127996179Y-121191498D01*
X127949686Y-121137842D01*
X127938300Y-121085500D01*
X127938300Y-85232600D01*
X127958302Y-85164479D01*
X128011958Y-85117986D01*
X128064300Y-85106600D01*
X128188801Y-85106600D01*
X128240652Y-85117763D01*
X128269005Y-85130565D01*
X128276469Y-85131949D01*
X128279001Y-85132742D01*
X128295280Y-85137379D01*
X128297860Y-85138042D01*
X128304941Y-85140802D01*
X128312472Y-85141793D01*
X128312474Y-85141794D01*
X128342093Y-85145693D01*
X128368293Y-85149142D01*
X128374791Y-85150172D01*
X128437618Y-85161816D01*
X128445198Y-85161379D01*
X128445199Y-85161379D01*
X128499824Y-85158229D01*
X128507078Y-85158020D01*
X129488656Y-85158020D01*
X129497226Y-85158312D01*
X129547344Y-85161729D01*
X129547348Y-85161729D01*
X129554920Y-85162245D01*
X129562397Y-85160940D01*
X129562398Y-85160940D01*
X129588876Y-85156319D01*
X129617871Y-85151258D01*
X129624389Y-85150297D01*
X129687810Y-85142622D01*
X129694911Y-85139939D01*
X129697520Y-85139298D01*
X129713830Y-85134835D01*
X129716366Y-85134070D01*
X129723852Y-85132763D01*
X129759245Y-85117226D01*
X129809889Y-85106600D01*
X130122988Y-85106600D01*
X130131558Y-85106892D01*
X130181676Y-85110309D01*
X130181680Y-85110309D01*
X130189252Y-85110825D01*
X130196729Y-85109520D01*
X130196730Y-85109520D01*
X130223208Y-85104899D01*
X130252203Y-85099838D01*
X130258721Y-85098877D01*
X130322142Y-85091202D01*
X130329243Y-85088519D01*
X130331852Y-85087878D01*
X130348162Y-85083415D01*
X130350698Y-85082650D01*
X130358184Y-85081343D01*
X130416700Y-85055656D01*
X130422804Y-85053165D01*
X130475448Y-85033273D01*
X130475449Y-85033272D01*
X130482556Y-85030587D01*
X130488819Y-85026283D01*
X130491185Y-85025046D01*
X130505997Y-85016801D01*
X130508251Y-85015468D01*
X130515205Y-85012415D01*
X130565902Y-84973513D01*
X130571232Y-84969641D01*
X130617620Y-84937761D01*
X130617625Y-84937756D01*
X130623881Y-84933457D01*
X130665336Y-84886929D01*
X130670316Y-84881654D01*
X130956565Y-84595405D01*
X131018877Y-84561379D01*
X131045660Y-84558500D01*
X132150400Y-84558500D01*
X132153646Y-84558163D01*
X132153650Y-84558163D01*
X132249308Y-84548238D01*
X132249312Y-84548237D01*
X132256166Y-84547526D01*
X132262702Y-84545345D01*
X132262704Y-84545345D01*
X132416998Y-84493868D01*
X132423946Y-84491550D01*
X132574348Y-84398478D01*
X132699305Y-84273303D01*
X132730602Y-84222530D01*
X132788275Y-84128968D01*
X132788276Y-84128966D01*
X132792115Y-84122738D01*
X132843797Y-83966921D01*
X132845632Y-83961389D01*
X132845632Y-83961387D01*
X132847797Y-83954861D01*
X132849374Y-83939475D01*
X132854938Y-83885165D01*
X132858500Y-83850400D01*
X132858500Y-82331638D01*
X132878502Y-82263517D01*
X132895405Y-82242543D01*
X137486405Y-77651544D01*
X137548717Y-77617518D01*
X137619532Y-77622583D01*
X137676368Y-77665130D01*
X137701179Y-77731650D01*
X137701500Y-77740639D01*
X137701500Y-77985405D01*
X137681498Y-78053526D01*
X137664595Y-78074500D01*
X137492447Y-78246648D01*
X137484161Y-78254188D01*
X137477682Y-78258300D01*
X137472257Y-78264077D01*
X137431057Y-78307951D01*
X137428302Y-78310793D01*
X137408565Y-78330530D01*
X137406085Y-78333727D01*
X137398382Y-78342747D01*
X137368114Y-78374979D01*
X137364295Y-78381925D01*
X137364293Y-78381928D01*
X137358352Y-78392734D01*
X137347501Y-78409253D01*
X137335086Y-78425259D01*
X137331941Y-78432528D01*
X137331938Y-78432532D01*
X137317526Y-78465837D01*
X137312309Y-78476487D01*
X137291005Y-78515240D01*
X137289034Y-78522915D01*
X137289034Y-78522916D01*
X137285967Y-78534862D01*
X137279563Y-78553566D01*
X137271519Y-78572155D01*
X137270280Y-78579978D01*
X137270277Y-78579988D01*
X137264601Y-78615824D01*
X137262195Y-78627444D01*
X137253756Y-78660316D01*
X137251200Y-78670270D01*
X137251200Y-78690524D01*
X137249649Y-78710234D01*
X137246480Y-78730243D01*
X137247226Y-78738135D01*
X137250641Y-78774261D01*
X137251200Y-78786119D01*
X137251200Y-96640933D01*
X137250673Y-96652116D01*
X137248998Y-96659609D01*
X137249247Y-96667535D01*
X137249247Y-96667536D01*
X137251138Y-96727686D01*
X137251200Y-96731645D01*
X137251200Y-96759556D01*
X137251697Y-96763490D01*
X137251697Y-96763491D01*
X137251705Y-96763556D01*
X137252638Y-96775393D01*
X137254027Y-96819589D01*
X137259678Y-96839039D01*
X137263687Y-96858400D01*
X137266226Y-96878497D01*
X137269145Y-96885868D01*
X137269145Y-96885870D01*
X137282504Y-96919612D01*
X137286349Y-96930842D01*
X137298682Y-96973293D01*
X137302715Y-96980112D01*
X137302717Y-96980117D01*
X137308993Y-96990728D01*
X137317688Y-97008476D01*
X137325148Y-97027317D01*
X137329810Y-97033733D01*
X137329810Y-97033734D01*
X137351136Y-97063087D01*
X137357652Y-97073007D01*
X137368532Y-97091403D01*
X137380158Y-97111062D01*
X137394479Y-97125383D01*
X137407319Y-97140416D01*
X137419228Y-97156807D01*
X137452805Y-97184584D01*
X137453305Y-97184998D01*
X137462084Y-97192988D01*
X137709778Y-97440682D01*
X137743804Y-97502994D01*
X137742100Y-97563448D01*
X137720989Y-97639570D01*
X137697251Y-97861695D01*
X137697548Y-97866848D01*
X137697548Y-97866851D01*
X137705894Y-98011590D01*
X137710110Y-98084715D01*
X137711247Y-98089761D01*
X137711248Y-98089767D01*
X137735304Y-98196508D01*
X137759222Y-98302639D01*
X137809979Y-98427639D01*
X137835201Y-98489753D01*
X137843266Y-98509616D01*
X137887611Y-98581980D01*
X137957291Y-98695688D01*
X137959987Y-98700088D01*
X138106250Y-98868938D01*
X138278126Y-99011632D01*
X138348595Y-99052811D01*
X138351445Y-99054476D01*
X138400169Y-99106114D01*
X138413240Y-99175897D01*
X138386509Y-99241669D01*
X138346055Y-99275027D01*
X138333607Y-99281507D01*
X138329474Y-99284610D01*
X138329471Y-99284612D01*
X138162422Y-99410036D01*
X138154965Y-99415635D01*
X138151393Y-99419373D01*
X138059040Y-99516015D01*
X138000629Y-99577138D01*
X137997715Y-99581410D01*
X137997714Y-99581411D01*
X137945730Y-99657617D01*
X137874743Y-99761680D01*
X137830261Y-99857509D01*
X137803185Y-99915840D01*
X137780688Y-99964305D01*
X137720989Y-100179570D01*
X137697251Y-100401695D01*
X137697548Y-100406848D01*
X137697548Y-100406851D01*
X137705894Y-100551590D01*
X137710110Y-100624715D01*
X137711247Y-100629761D01*
X137711248Y-100629767D01*
X137724372Y-100688000D01*
X137759222Y-100842639D01*
X137843266Y-101049616D01*
X137873906Y-101099616D01*
X137956672Y-101234678D01*
X137959987Y-101240088D01*
X138106250Y-101408938D01*
X138278126Y-101551632D01*
X138348595Y-101592811D01*
X138351445Y-101594476D01*
X138400169Y-101646114D01*
X138413240Y-101715897D01*
X138386509Y-101781669D01*
X138346055Y-101815027D01*
X138333607Y-101821507D01*
X138329474Y-101824610D01*
X138329471Y-101824612D01*
X138159100Y-101952530D01*
X138154965Y-101955635D01*
X138110151Y-102002530D01*
X138059751Y-102055271D01*
X138000629Y-102117138D01*
X137997720Y-102121403D01*
X137997714Y-102121411D01*
X137945730Y-102197617D01*
X137874743Y-102301680D01*
X137853921Y-102346538D01*
X137785071Y-102494863D01*
X137780688Y-102504305D01*
X137720989Y-102719570D01*
X137697251Y-102941695D01*
X137697548Y-102946848D01*
X137697548Y-102946851D01*
X137705894Y-103091590D01*
X137710110Y-103164715D01*
X137711247Y-103169761D01*
X137711248Y-103169767D01*
X137735304Y-103276508D01*
X137759222Y-103382639D01*
X137779525Y-103432639D01*
X137825880Y-103546798D01*
X137843266Y-103589616D01*
X137894942Y-103673944D01*
X137957291Y-103775688D01*
X137959987Y-103780088D01*
X138106250Y-103948938D01*
X138278126Y-104091632D01*
X138297690Y-104103064D01*
X138351445Y-104134476D01*
X138400169Y-104186114D01*
X138413240Y-104255897D01*
X138386509Y-104321669D01*
X138346055Y-104355027D01*
X138333607Y-104361507D01*
X138329474Y-104364610D01*
X138329471Y-104364612D01*
X138159100Y-104492530D01*
X138154965Y-104495635D01*
X138110151Y-104542530D01*
X138005956Y-104651564D01*
X138000629Y-104657138D01*
X137997720Y-104661403D01*
X137997714Y-104661411D01*
X137945810Y-104737499D01*
X137874743Y-104841680D01*
X137853921Y-104886538D01*
X137785071Y-105034863D01*
X137780688Y-105044305D01*
X137720989Y-105259570D01*
X137697251Y-105481695D01*
X137697548Y-105486848D01*
X137697548Y-105486851D01*
X137705894Y-105631590D01*
X137710110Y-105704715D01*
X137711247Y-105709761D01*
X137711248Y-105709767D01*
X137735304Y-105816508D01*
X137759222Y-105922639D01*
X137779525Y-105972639D01*
X137825880Y-106086798D01*
X137843266Y-106129616D01*
X137894942Y-106213944D01*
X137957291Y-106315688D01*
X137959987Y-106320088D01*
X138106250Y-106488938D01*
X138278126Y-106631632D01*
X138297690Y-106643064D01*
X138351955Y-106674774D01*
X138400679Y-106726412D01*
X138413750Y-106796195D01*
X138387019Y-106861967D01*
X138346562Y-106895327D01*
X138338457Y-106899546D01*
X138329738Y-106905036D01*
X138159433Y-107032905D01*
X138151726Y-107039748D01*
X138004590Y-107193717D01*
X137998104Y-107201727D01*
X137878098Y-107377649D01*
X137873000Y-107386623D01*
X137783338Y-107579783D01*
X137779775Y-107589470D01*
X137724389Y-107789183D01*
X137725912Y-107797607D01*
X137738292Y-107801000D01*
X139188000Y-107801000D01*
X139256121Y-107821002D01*
X139302614Y-107874658D01*
X139314000Y-107927000D01*
X139314000Y-108183000D01*
X139293998Y-108251121D01*
X139240342Y-108297614D01*
X139188000Y-108309000D01*
X137743225Y-108309000D01*
X137729694Y-108312973D01*
X137728257Y-108322966D01*
X137758565Y-108457446D01*
X137761645Y-108467275D01*
X137841770Y-108664603D01*
X137846413Y-108673794D01*
X137957694Y-108855388D01*
X137963777Y-108863699D01*
X138103213Y-109024667D01*
X138110580Y-109031883D01*
X138274434Y-109167916D01*
X138282876Y-109173828D01*
X138340006Y-109207212D01*
X138388729Y-109258851D01*
X138401800Y-109328634D01*
X138375068Y-109394406D01*
X138317021Y-109435284D01*
X138276435Y-109442000D01*
X137008702Y-109442000D01*
X137007932Y-109441998D01*
X137007078Y-109441993D01*
X136930348Y-109441524D01*
X136921719Y-109443990D01*
X136921714Y-109443991D01*
X136901952Y-109449639D01*
X136885191Y-109453217D01*
X136864848Y-109456130D01*
X136864838Y-109456133D01*
X136855955Y-109457405D01*
X136832605Y-109468021D01*
X136815093Y-109474464D01*
X136802200Y-109478149D01*
X136790435Y-109481512D01*
X136765452Y-109497274D01*
X136750386Y-109505404D01*
X136723490Y-109517633D01*
X136704061Y-109534374D01*
X136689053Y-109545479D01*
X136667369Y-109559160D01*
X136661427Y-109565888D01*
X136647819Y-109581296D01*
X136635627Y-109593340D01*
X136613253Y-109612619D01*
X136608374Y-109620147D01*
X136608371Y-109620150D01*
X136599304Y-109634139D01*
X136588014Y-109649013D01*
X136571044Y-109668228D01*
X136558490Y-109694966D01*
X136550176Y-109709935D01*
X136534107Y-109734727D01*
X136531535Y-109743327D01*
X136526761Y-109759290D01*
X136520099Y-109776736D01*
X136509201Y-109799948D01*
X136507820Y-109808821D01*
X136504658Y-109829128D01*
X136500874Y-109845849D01*
X136494986Y-109865536D01*
X136494985Y-109865539D01*
X136492413Y-109874141D01*
X136492358Y-109883116D01*
X136492358Y-109883117D01*
X136492203Y-109908546D01*
X136492170Y-109909328D01*
X136492000Y-109910423D01*
X136492000Y-109941298D01*
X136491998Y-109942068D01*
X136491849Y-109966538D01*
X136491524Y-110019652D01*
X136491908Y-110020996D01*
X136492000Y-110022341D01*
X136492000Y-125504185D01*
X136490707Y-125522189D01*
X136486776Y-125549418D01*
X136488038Y-125558303D01*
X136488038Y-125558307D01*
X136489517Y-125568716D01*
X136490679Y-125591216D01*
X136478140Y-125921311D01*
X136477066Y-125933617D01*
X136433333Y-126253023D01*
X136428263Y-126290049D01*
X136425990Y-126302189D01*
X136346171Y-126636775D01*
X136342506Y-126652136D01*
X136339052Y-126664000D01*
X136221694Y-127004082D01*
X136217096Y-127015551D01*
X136066994Y-127342499D01*
X136061294Y-127353462D01*
X135879894Y-127664128D01*
X135873147Y-127674481D01*
X135662176Y-127965903D01*
X135654448Y-127975544D01*
X135415959Y-128244886D01*
X135407338Y-128253711D01*
X135143582Y-128498430D01*
X135134146Y-128506359D01*
X134979118Y-128624179D01*
X134847706Y-128724051D01*
X134837513Y-128731036D01*
X134531146Y-128919613D01*
X134520319Y-128925566D01*
X134397881Y-128985263D01*
X134196950Y-129083230D01*
X134185601Y-129088091D01*
X133848319Y-129213332D01*
X133836558Y-129217054D01*
X133488642Y-129308653D01*
X133476559Y-129311207D01*
X133390190Y-129325086D01*
X133121358Y-129368286D01*
X133109077Y-129369646D01*
X132934267Y-129380362D01*
X132786724Y-129389407D01*
X132761146Y-129388369D01*
X132758911Y-129388049D01*
X132758910Y-129388049D01*
X132750024Y-129386776D01*
X132741139Y-129388048D01*
X132741137Y-129388048D01*
X132722419Y-129390728D01*
X132704563Y-129392000D01*
X108403086Y-129392000D01*
X108386776Y-129390940D01*
X108378066Y-129389803D01*
X108355177Y-129386815D01*
X108336016Y-129389803D01*
X108313469Y-129391268D01*
X108138485Y-129386910D01*
X107983986Y-129383061D01*
X107971556Y-129382134D01*
X107615408Y-129337738D01*
X107603119Y-129335585D01*
X107253098Y-129256164D01*
X107241085Y-129252804D01*
X106900643Y-129139139D01*
X106889029Y-129134610D01*
X106698511Y-129049222D01*
X106561505Y-128987816D01*
X106550381Y-128982152D01*
X106239012Y-128803684D01*
X106228502Y-128796948D01*
X105936305Y-128588534D01*
X105926514Y-128580791D01*
X105656378Y-128344491D01*
X105647401Y-128335817D01*
X105566520Y-128249517D01*
X105401968Y-128073942D01*
X105393894Y-128064422D01*
X105282031Y-127918455D01*
X123319800Y-127918455D01*
X123320101Y-127924603D01*
X123334327Y-128069692D01*
X123336710Y-128081727D01*
X123393117Y-128268554D01*
X123397792Y-128279896D01*
X123489412Y-128452210D01*
X123496199Y-128462426D01*
X123619547Y-128613666D01*
X123628191Y-128622370D01*
X123778563Y-128746769D01*
X123788731Y-128753628D01*
X123960407Y-128846452D01*
X123971707Y-128851202D01*
X124106493Y-128892926D01*
X124120595Y-128893132D01*
X124123800Y-128886376D01*
X124123800Y-128879378D01*
X124631800Y-128879378D01*
X124635773Y-128892909D01*
X124643568Y-128894029D01*
X124770142Y-128856777D01*
X124781510Y-128852184D01*
X124954466Y-128761765D01*
X124964728Y-128755049D01*
X125116820Y-128632763D01*
X125125586Y-128624179D01*
X125251036Y-128474675D01*
X125257960Y-128464564D01*
X125351984Y-128293533D01*
X125356812Y-128282269D01*
X125415825Y-128096236D01*
X125418373Y-128084247D01*
X125435407Y-127932384D01*
X125435800Y-127925360D01*
X125435800Y-127868778D01*
X131959800Y-127868778D01*
X131960101Y-127874926D01*
X131974327Y-128020015D01*
X131976710Y-128032050D01*
X132033117Y-128218877D01*
X132037792Y-128230219D01*
X132129412Y-128402533D01*
X132136199Y-128412749D01*
X132259547Y-128563989D01*
X132268191Y-128572693D01*
X132418563Y-128697092D01*
X132428731Y-128703951D01*
X132600407Y-128796775D01*
X132611707Y-128801525D01*
X132746493Y-128843249D01*
X132760595Y-128843455D01*
X132763800Y-128836699D01*
X132763800Y-128829701D01*
X133271800Y-128829701D01*
X133275773Y-128843232D01*
X133283568Y-128844352D01*
X133410142Y-128807100D01*
X133421510Y-128802507D01*
X133594466Y-128712088D01*
X133604728Y-128705372D01*
X133756820Y-128583086D01*
X133765586Y-128574502D01*
X133891036Y-128424998D01*
X133897960Y-128414887D01*
X133991984Y-128243856D01*
X133996812Y-128232592D01*
X134055825Y-128046559D01*
X134058373Y-128034570D01*
X134075407Y-127882707D01*
X134075800Y-127875683D01*
X134075800Y-127791769D01*
X134071325Y-127776530D01*
X134069935Y-127775325D01*
X134062252Y-127773654D01*
X133289915Y-127773654D01*
X133274676Y-127778129D01*
X133273471Y-127779519D01*
X133271800Y-127787202D01*
X133271800Y-128829701D01*
X132763800Y-128829701D01*
X132763800Y-127791769D01*
X132759325Y-127776530D01*
X132757935Y-127775325D01*
X132750252Y-127773654D01*
X131977915Y-127773654D01*
X131962676Y-127778129D01*
X131961471Y-127779519D01*
X131959800Y-127787202D01*
X131959800Y-127868778D01*
X125435800Y-127868778D01*
X125435800Y-127841446D01*
X125431325Y-127826207D01*
X125429935Y-127825002D01*
X125422252Y-127823331D01*
X124649915Y-127823331D01*
X124634676Y-127827806D01*
X124633471Y-127829196D01*
X124631800Y-127836879D01*
X124631800Y-128879378D01*
X124123800Y-128879378D01*
X124123800Y-127841446D01*
X124119325Y-127826207D01*
X124117935Y-127825002D01*
X124110252Y-127823331D01*
X123337915Y-127823331D01*
X123322676Y-127827806D01*
X123321471Y-127829196D01*
X123319800Y-127836879D01*
X123319800Y-127918455D01*
X105282031Y-127918455D01*
X105210413Y-127825002D01*
X105175585Y-127779555D01*
X105168493Y-127769285D01*
X105137773Y-127719711D01*
X104979441Y-127464211D01*
X104973399Y-127453288D01*
X104815456Y-127130994D01*
X104810530Y-127119538D01*
X104767586Y-127004242D01*
X104685258Y-126783211D01*
X104681485Y-126771312D01*
X104656453Y-126676236D01*
X104590104Y-126424226D01*
X104587529Y-126412016D01*
X104579615Y-126362446D01*
X104558143Y-126227966D01*
X106918257Y-126227966D01*
X106948565Y-126362446D01*
X106951645Y-126372275D01*
X107031770Y-126569603D01*
X107036413Y-126578794D01*
X107147694Y-126760388D01*
X107153777Y-126768699D01*
X107293213Y-126929667D01*
X107300580Y-126936883D01*
X107464434Y-127072916D01*
X107472881Y-127078831D01*
X107656756Y-127186279D01*
X107666042Y-127190729D01*
X107865001Y-127266703D01*
X107874899Y-127269579D01*
X107978250Y-127290606D01*
X107992299Y-127289410D01*
X107996000Y-127279065D01*
X107996000Y-126232115D01*
X107991525Y-126216876D01*
X107990135Y-126215671D01*
X107982452Y-126214000D01*
X106933225Y-126214000D01*
X106919694Y-126217973D01*
X106918257Y-126227966D01*
X104558143Y-126227966D01*
X104530942Y-126057602D01*
X104529587Y-126045196D01*
X104524766Y-125963880D01*
X104510518Y-125723556D01*
X104511617Y-125697916D01*
X104511927Y-125695790D01*
X104513223Y-125686904D01*
X104511973Y-125678010D01*
X104509227Y-125658484D01*
X104508000Y-125640940D01*
X104508000Y-77948304D01*
X104509004Y-77932428D01*
X104512028Y-77908620D01*
X104513159Y-77899715D01*
X104510130Y-77880722D01*
X104508588Y-77858081D01*
X104515879Y-77529627D01*
X104516797Y-77516986D01*
X104530310Y-77407522D01*
X104560626Y-77161954D01*
X104562809Y-77149474D01*
X104583009Y-77060590D01*
X104615781Y-76916381D01*
X104642078Y-76800666D01*
X104645504Y-76788464D01*
X104759420Y-76449363D01*
X104764056Y-76437566D01*
X104911457Y-76111638D01*
X104917254Y-76100367D01*
X105096657Y-75790890D01*
X105103557Y-75780259D01*
X105313137Y-75490380D01*
X105321069Y-75480495D01*
X105558729Y-75213116D01*
X105567602Y-75204092D01*
X105603540Y-75171044D01*
X105830909Y-74961954D01*
X105840652Y-74953859D01*
X106126966Y-74739388D01*
X106137472Y-74732315D01*
X106443860Y-74547707D01*
X106455031Y-74541720D01*
X106558609Y-74492749D01*
X106778424Y-74388822D01*
X106790124Y-74383993D01*
X107127272Y-74264348D01*
X107139396Y-74260722D01*
X107486819Y-74175561D01*
X107499267Y-74173166D01*
X107853499Y-74123338D01*
X107866123Y-74122206D01*
X108036895Y-74115523D01*
X108187053Y-74109646D01*
X108212753Y-74111275D01*
X108223575Y-74113084D01*
X108232487Y-74112020D01*
X108258711Y-74108889D01*
X108273648Y-74108000D01*
X136366000Y-74108000D01*
X136434121Y-74128002D01*
G37*
G04 #@! TD.AperFunction*
G04 #@! TA.AperFunction,Conductor*
G36*
X111934684Y-116681261D02*
G01*
X111979540Y-116710144D01*
X112561943Y-117292547D01*
X112569487Y-117300837D01*
X112573600Y-117307318D01*
X112579377Y-117312743D01*
X112623267Y-117353958D01*
X112626109Y-117356713D01*
X112645830Y-117376434D01*
X112649025Y-117378912D01*
X112658047Y-117386618D01*
X112690279Y-117416886D01*
X112697228Y-117420706D01*
X112708032Y-117426646D01*
X112724556Y-117437499D01*
X112740559Y-117449913D01*
X112781143Y-117467476D01*
X112791773Y-117472683D01*
X112830540Y-117493995D01*
X112838217Y-117495966D01*
X112838222Y-117495968D01*
X112850158Y-117499032D01*
X112868866Y-117505437D01*
X112887455Y-117513481D01*
X112895283Y-117514721D01*
X112895290Y-117514723D01*
X112931124Y-117520399D01*
X112942744Y-117522805D01*
X112977889Y-117531828D01*
X112985570Y-117533800D01*
X113005824Y-117533800D01*
X113025534Y-117535351D01*
X113045543Y-117538520D01*
X113053435Y-117537774D01*
X113089561Y-117534359D01*
X113101419Y-117533800D01*
X117669210Y-117533800D01*
X117737331Y-117553802D01*
X117783824Y-117607458D01*
X117793928Y-117677732D01*
X117783498Y-117712850D01*
X117745688Y-117794305D01*
X117685989Y-118009570D01*
X117662251Y-118231695D01*
X117662548Y-118236848D01*
X117662548Y-118236851D01*
X117668011Y-118331590D01*
X117675110Y-118454715D01*
X117676247Y-118459761D01*
X117676248Y-118459767D01*
X117692012Y-118529715D01*
X117724222Y-118672639D01*
X117808266Y-118879616D01*
X117810965Y-118884020D01*
X117908345Y-119042930D01*
X117924987Y-119070088D01*
X118071250Y-119238938D01*
X118243126Y-119381632D01*
X118313595Y-119422811D01*
X118316445Y-119424476D01*
X118365169Y-119476114D01*
X118378240Y-119545897D01*
X118351509Y-119611669D01*
X118311055Y-119645027D01*
X118298607Y-119651507D01*
X118294474Y-119654610D01*
X118294471Y-119654612D01*
X118124100Y-119782530D01*
X118119965Y-119785635D01*
X117965629Y-119947138D01*
X117839743Y-120131680D01*
X117745688Y-120334305D01*
X117685989Y-120549570D01*
X117662251Y-120771695D01*
X117662548Y-120776848D01*
X117662548Y-120776851D01*
X117668011Y-120871590D01*
X117675110Y-120994715D01*
X117676247Y-120999761D01*
X117676248Y-120999767D01*
X117696119Y-121087939D01*
X117724222Y-121212639D01*
X117761733Y-121305017D01*
X117805001Y-121411574D01*
X117808266Y-121419616D01*
X117851292Y-121489829D01*
X117922291Y-121605688D01*
X117924987Y-121610088D01*
X118071250Y-121778938D01*
X118243126Y-121921632D01*
X118313595Y-121962811D01*
X118316445Y-121964476D01*
X118365169Y-122016114D01*
X118378240Y-122085897D01*
X118351509Y-122151669D01*
X118311055Y-122185027D01*
X118298607Y-122191507D01*
X118294474Y-122194610D01*
X118294471Y-122194612D01*
X118135320Y-122314106D01*
X118119965Y-122325635D01*
X118016617Y-122433782D01*
X117955095Y-122469211D01*
X117884183Y-122465754D01*
X117836430Y-122435825D01*
X117235252Y-121834647D01*
X117227712Y-121826361D01*
X117223600Y-121819882D01*
X117173948Y-121773256D01*
X117171107Y-121770502D01*
X117151370Y-121750765D01*
X117148173Y-121748285D01*
X117139151Y-121740580D01*
X117112700Y-121715741D01*
X117106921Y-121710314D01*
X117099975Y-121706495D01*
X117099972Y-121706493D01*
X117089166Y-121700552D01*
X117072647Y-121689701D01*
X117071084Y-121688489D01*
X117056641Y-121677286D01*
X117049372Y-121674141D01*
X117049368Y-121674138D01*
X117016063Y-121659726D01*
X117005413Y-121654509D01*
X116966660Y-121633205D01*
X116947037Y-121628167D01*
X116928334Y-121621763D01*
X116917020Y-121616867D01*
X116917019Y-121616867D01*
X116909745Y-121613719D01*
X116901922Y-121612480D01*
X116901912Y-121612477D01*
X116866076Y-121606801D01*
X116854456Y-121604395D01*
X116819311Y-121595372D01*
X116819310Y-121595372D01*
X116811630Y-121593400D01*
X116791376Y-121593400D01*
X116771665Y-121591849D01*
X116759486Y-121589920D01*
X116751657Y-121588680D01*
X116743765Y-121589426D01*
X116707639Y-121592841D01*
X116695781Y-121593400D01*
X112155678Y-121593400D01*
X112087557Y-121573398D01*
X112041064Y-121519742D01*
X112030960Y-121449468D01*
X112042720Y-121411574D01*
X112050745Y-121395338D01*
X112057430Y-121381811D01*
X112106791Y-121219347D01*
X112120865Y-121173023D01*
X112120865Y-121173021D01*
X112122370Y-121168069D01*
X112151529Y-120946590D01*
X112153156Y-120880000D01*
X112134852Y-120657361D01*
X112080431Y-120440702D01*
X111991354Y-120235840D01*
X111942834Y-120160840D01*
X111872822Y-120052617D01*
X111872820Y-120052614D01*
X111870014Y-120048277D01*
X111719670Y-119883051D01*
X111715619Y-119879852D01*
X111715615Y-119879848D01*
X111548414Y-119747800D01*
X111548410Y-119747798D01*
X111544359Y-119744598D01*
X111502569Y-119721529D01*
X111452598Y-119671097D01*
X111437826Y-119601654D01*
X111462942Y-119535248D01*
X111490294Y-119508641D01*
X111665328Y-119383792D01*
X111673200Y-119377139D01*
X111824052Y-119226812D01*
X111830730Y-119218965D01*
X111955003Y-119046020D01*
X111960313Y-119037183D01*
X112054670Y-118846267D01*
X112058469Y-118836672D01*
X112120377Y-118632910D01*
X112122555Y-118622837D01*
X112123986Y-118611962D01*
X112121775Y-118597778D01*
X112108617Y-118594000D01*
X110662000Y-118594000D01*
X110593879Y-118573998D01*
X110547386Y-118520342D01*
X110536000Y-118468000D01*
X110536000Y-118212000D01*
X110556002Y-118143879D01*
X110609658Y-118097386D01*
X110662000Y-118086000D01*
X112108344Y-118086000D01*
X112121875Y-118082027D01*
X112123180Y-118072947D01*
X112081214Y-117905875D01*
X112077894Y-117896124D01*
X111992972Y-117700814D01*
X111988105Y-117691739D01*
X111872426Y-117512926D01*
X111866136Y-117504757D01*
X111722806Y-117347240D01*
X111715273Y-117340215D01*
X111548139Y-117208222D01*
X111539556Y-117202520D01*
X111502602Y-117182120D01*
X111452631Y-117131687D01*
X111437859Y-117062245D01*
X111462975Y-116995839D01*
X111490327Y-116969232D01*
X111536339Y-116936412D01*
X111669860Y-116841173D01*
X111673517Y-116837529D01*
X111673523Y-116837524D01*
X111801506Y-116709988D01*
X111863877Y-116676072D01*
X111934684Y-116681261D01*
G37*
G04 #@! TD.AperFunction*
G04 #@! TA.AperFunction,Conductor*
G36*
X111934684Y-111601261D02*
G01*
X111979540Y-111630144D01*
X112561943Y-112212547D01*
X112569487Y-112220837D01*
X112573600Y-112227318D01*
X112579377Y-112232743D01*
X112623267Y-112273958D01*
X112626109Y-112276713D01*
X112645830Y-112296434D01*
X112649025Y-112298912D01*
X112658047Y-112306618D01*
X112690279Y-112336886D01*
X112697228Y-112340706D01*
X112708032Y-112346646D01*
X112724556Y-112357499D01*
X112740559Y-112369913D01*
X112781143Y-112387476D01*
X112791773Y-112392683D01*
X112830540Y-112413995D01*
X112838217Y-112415966D01*
X112838222Y-112415968D01*
X112850158Y-112419032D01*
X112868866Y-112425437D01*
X112887455Y-112433481D01*
X112895283Y-112434721D01*
X112895290Y-112434723D01*
X112931124Y-112440399D01*
X112942744Y-112442805D01*
X112977889Y-112451828D01*
X112985570Y-112453800D01*
X113005824Y-112453800D01*
X113025534Y-112455351D01*
X113045543Y-112458520D01*
X113053435Y-112457774D01*
X113089561Y-112454359D01*
X113101419Y-112453800D01*
X117669210Y-112453800D01*
X117737331Y-112473802D01*
X117783824Y-112527458D01*
X117793928Y-112597732D01*
X117783498Y-112632850D01*
X117745688Y-112714305D01*
X117685989Y-112929570D01*
X117662251Y-113151695D01*
X117662548Y-113156848D01*
X117662548Y-113156851D01*
X117668011Y-113251590D01*
X117675110Y-113374715D01*
X117676247Y-113379761D01*
X117676248Y-113379767D01*
X117692012Y-113449715D01*
X117724222Y-113592639D01*
X117785673Y-113743976D01*
X117805000Y-113791572D01*
X117808266Y-113799616D01*
X117810965Y-113804020D01*
X117921652Y-113984645D01*
X117924987Y-113990088D01*
X118071250Y-114158938D01*
X118243126Y-114301632D01*
X118313595Y-114342811D01*
X118316445Y-114344476D01*
X118365169Y-114396114D01*
X118378240Y-114465897D01*
X118351509Y-114531669D01*
X118311055Y-114565027D01*
X118298607Y-114571507D01*
X118294474Y-114574610D01*
X118294471Y-114574612D01*
X118124100Y-114702530D01*
X118119965Y-114705635D01*
X118016617Y-114813782D01*
X117955095Y-114849211D01*
X117884183Y-114845754D01*
X117836430Y-114815825D01*
X117235252Y-114214647D01*
X117227712Y-114206361D01*
X117223600Y-114199882D01*
X117173948Y-114153256D01*
X117171107Y-114150502D01*
X117151370Y-114130765D01*
X117148173Y-114128285D01*
X117139151Y-114120580D01*
X117106921Y-114090314D01*
X117099975Y-114086495D01*
X117099972Y-114086493D01*
X117089166Y-114080552D01*
X117072647Y-114069701D01*
X117071084Y-114068489D01*
X117056641Y-114057286D01*
X117049372Y-114054141D01*
X117049368Y-114054138D01*
X117016063Y-114039726D01*
X117005413Y-114034509D01*
X116966660Y-114013205D01*
X116947037Y-114008167D01*
X116928334Y-114001763D01*
X116917020Y-113996867D01*
X116917019Y-113996867D01*
X116909745Y-113993719D01*
X116901922Y-113992480D01*
X116901912Y-113992477D01*
X116866076Y-113986801D01*
X116854456Y-113984395D01*
X116819311Y-113975372D01*
X116819310Y-113975372D01*
X116811630Y-113973400D01*
X116791376Y-113973400D01*
X116771665Y-113971849D01*
X116759486Y-113969920D01*
X116751657Y-113968680D01*
X116743765Y-113969426D01*
X116707639Y-113972841D01*
X116695781Y-113973400D01*
X112155120Y-113973400D01*
X112086999Y-113953398D01*
X112040506Y-113899742D01*
X112030402Y-113829468D01*
X112042163Y-113791572D01*
X112054672Y-113766262D01*
X112058469Y-113756672D01*
X112120377Y-113552910D01*
X112122555Y-113542837D01*
X112123986Y-113531962D01*
X112121775Y-113517778D01*
X112108617Y-113514000D01*
X110662000Y-113514000D01*
X110593879Y-113493998D01*
X110547386Y-113440342D01*
X110536000Y-113388000D01*
X110536000Y-113132000D01*
X110556002Y-113063879D01*
X110609658Y-113017386D01*
X110662000Y-113006000D01*
X112108344Y-113006000D01*
X112121875Y-113002027D01*
X112123180Y-112992947D01*
X112081214Y-112825875D01*
X112077894Y-112816124D01*
X111992972Y-112620814D01*
X111988105Y-112611739D01*
X111872426Y-112432926D01*
X111866136Y-112424757D01*
X111722806Y-112267240D01*
X111715273Y-112260215D01*
X111548139Y-112128222D01*
X111539556Y-112122520D01*
X111502602Y-112102120D01*
X111452631Y-112051687D01*
X111437859Y-111982245D01*
X111462975Y-111915839D01*
X111490327Y-111889232D01*
X111536339Y-111856412D01*
X111669860Y-111761173D01*
X111673517Y-111757529D01*
X111673523Y-111757524D01*
X111801506Y-111629988D01*
X111863877Y-111596072D01*
X111934684Y-111601261D01*
G37*
G04 #@! TD.AperFunction*
G04 #@! TA.AperFunction,Conductor*
G36*
X109602338Y-113934678D02*
G01*
X109630166Y-113966511D01*
X109687696Y-114060391D01*
X109693771Y-114068692D01*
X109709637Y-114087008D01*
X109739119Y-114151593D01*
X109729004Y-114221866D01*
X109703494Y-114258600D01*
X109247387Y-114714707D01*
X109185075Y-114748733D01*
X109114260Y-114743668D01*
X109080200Y-114724494D01*
X109008414Y-114667800D01*
X109008410Y-114667798D01*
X109004359Y-114664598D01*
X108963053Y-114641796D01*
X108913084Y-114591364D01*
X108898312Y-114521921D01*
X108923428Y-114455516D01*
X108950780Y-114428909D01*
X108997138Y-114395842D01*
X109129860Y-114301173D01*
X109288096Y-114143489D01*
X109317652Y-114102358D01*
X109418453Y-113962077D01*
X109419640Y-113962930D01*
X109466960Y-113919362D01*
X109536897Y-113907145D01*
X109602338Y-113934678D01*
G37*
G04 #@! TD.AperFunction*
G04 #@! TA.AperFunction,Conductor*
G36*
X111934684Y-106521261D02*
G01*
X111979540Y-106550144D01*
X112561943Y-107132547D01*
X112569487Y-107140837D01*
X112573600Y-107147318D01*
X112579377Y-107152743D01*
X112623267Y-107193958D01*
X112626109Y-107196713D01*
X112645830Y-107216434D01*
X112649025Y-107218912D01*
X112658047Y-107226618D01*
X112690279Y-107256886D01*
X112697228Y-107260706D01*
X112708032Y-107266646D01*
X112724556Y-107277499D01*
X112740559Y-107289913D01*
X112781143Y-107307476D01*
X112791773Y-107312683D01*
X112830540Y-107333995D01*
X112838217Y-107335966D01*
X112838222Y-107335968D01*
X112850158Y-107339032D01*
X112868866Y-107345437D01*
X112887455Y-107353481D01*
X112895283Y-107354721D01*
X112895290Y-107354723D01*
X112931124Y-107360399D01*
X112942744Y-107362805D01*
X112974559Y-107370973D01*
X112985570Y-107373800D01*
X113005824Y-107373800D01*
X113025534Y-107375351D01*
X113045543Y-107378520D01*
X113053435Y-107377774D01*
X113089561Y-107374359D01*
X113101419Y-107373800D01*
X117669761Y-107373800D01*
X117737882Y-107393802D01*
X117784375Y-107447458D01*
X117794479Y-107517732D01*
X117784049Y-107552850D01*
X117748339Y-107629783D01*
X117744775Y-107639470D01*
X117689389Y-107839183D01*
X117690912Y-107847607D01*
X117703292Y-107851000D01*
X119153000Y-107851000D01*
X119221121Y-107871002D01*
X119267614Y-107924658D01*
X119279000Y-107977000D01*
X119279000Y-108233000D01*
X119258998Y-108301121D01*
X119205342Y-108347614D01*
X119153000Y-108359000D01*
X117708225Y-108359000D01*
X117694694Y-108362973D01*
X117693257Y-108372966D01*
X117723565Y-108507446D01*
X117726645Y-108517275D01*
X117806770Y-108714603D01*
X117811413Y-108723794D01*
X117922694Y-108905388D01*
X117928777Y-108913699D01*
X118068213Y-109074667D01*
X118075580Y-109081883D01*
X118239434Y-109217916D01*
X118247881Y-109223831D01*
X118316969Y-109264203D01*
X118365693Y-109315842D01*
X118378764Y-109385625D01*
X118352033Y-109451396D01*
X118311584Y-109484752D01*
X118298607Y-109491507D01*
X118294474Y-109494610D01*
X118294471Y-109494612D01*
X118127270Y-109620150D01*
X118119965Y-109625635D01*
X118016617Y-109733782D01*
X117955095Y-109769211D01*
X117884183Y-109765754D01*
X117836430Y-109735825D01*
X117235252Y-109134647D01*
X117227712Y-109126361D01*
X117223600Y-109119882D01*
X117173948Y-109073256D01*
X117171107Y-109070502D01*
X117151370Y-109050765D01*
X117148173Y-109048285D01*
X117139151Y-109040580D01*
X117129890Y-109031883D01*
X117106921Y-109010314D01*
X117099975Y-109006495D01*
X117099972Y-109006493D01*
X117089166Y-109000552D01*
X117072647Y-108989701D01*
X117071084Y-108988489D01*
X117056641Y-108977286D01*
X117049372Y-108974141D01*
X117049368Y-108974138D01*
X117016063Y-108959726D01*
X117005413Y-108954509D01*
X116966660Y-108933205D01*
X116947037Y-108928167D01*
X116928334Y-108921763D01*
X116917020Y-108916867D01*
X116917019Y-108916867D01*
X116909745Y-108913719D01*
X116901922Y-108912480D01*
X116901912Y-108912477D01*
X116866076Y-108906801D01*
X116854456Y-108904395D01*
X116819311Y-108895372D01*
X116819310Y-108895372D01*
X116811630Y-108893400D01*
X116791376Y-108893400D01*
X116771665Y-108891849D01*
X116759486Y-108889920D01*
X116751657Y-108888680D01*
X116743765Y-108889426D01*
X116707639Y-108892841D01*
X116695781Y-108893400D01*
X112155678Y-108893400D01*
X112087557Y-108873398D01*
X112041064Y-108819742D01*
X112030960Y-108749468D01*
X112042720Y-108711574D01*
X112055138Y-108686448D01*
X112057430Y-108681811D01*
X112122370Y-108468069D01*
X112151529Y-108246590D01*
X112153156Y-108180000D01*
X112134852Y-107957361D01*
X112080431Y-107740702D01*
X111991354Y-107535840D01*
X111941152Y-107458240D01*
X111872822Y-107352617D01*
X111872820Y-107352614D01*
X111870014Y-107348277D01*
X111719670Y-107183051D01*
X111715619Y-107179852D01*
X111715615Y-107179848D01*
X111548414Y-107047800D01*
X111548410Y-107047798D01*
X111544359Y-107044598D01*
X111503053Y-107021796D01*
X111453084Y-106971364D01*
X111438312Y-106901921D01*
X111463428Y-106835516D01*
X111490780Y-106808909D01*
X111536757Y-106776114D01*
X111669860Y-106681173D01*
X111673517Y-106677529D01*
X111673523Y-106677524D01*
X111801506Y-106549988D01*
X111863877Y-106516072D01*
X111934684Y-106521261D01*
G37*
G04 #@! TD.AperFunction*
G04 #@! TA.AperFunction,Conductor*
G36*
X109602026Y-106315144D02*
G01*
X109629875Y-106346994D01*
X109689987Y-106445088D01*
X109836250Y-106613938D01*
X110008126Y-106756632D01*
X110072652Y-106794338D01*
X110081445Y-106799476D01*
X110130169Y-106851114D01*
X110143240Y-106920897D01*
X110116509Y-106986669D01*
X110076055Y-107020027D01*
X110063607Y-107026507D01*
X110059474Y-107029610D01*
X110059471Y-107029612D01*
X109895476Y-107152743D01*
X109884965Y-107160635D01*
X109730629Y-107322138D01*
X109727715Y-107326410D01*
X109727714Y-107326411D01*
X109725146Y-107330176D01*
X109643361Y-107450069D01*
X109622898Y-107480066D01*
X109567987Y-107525069D01*
X109497462Y-107533240D01*
X109433715Y-107501986D01*
X109413018Y-107477502D01*
X109332426Y-107352926D01*
X109326136Y-107344757D01*
X109182806Y-107187240D01*
X109175273Y-107180215D01*
X109008139Y-107048222D01*
X108999556Y-107042520D01*
X108962602Y-107022120D01*
X108912631Y-106971687D01*
X108897859Y-106902245D01*
X108922975Y-106835839D01*
X108950327Y-106809232D01*
X108996757Y-106776114D01*
X109129860Y-106681173D01*
X109136282Y-106674774D01*
X109252289Y-106559171D01*
X109288096Y-106523489D01*
X109345005Y-106444292D01*
X109418453Y-106342077D01*
X109419776Y-106343028D01*
X109466645Y-106299857D01*
X109536580Y-106287625D01*
X109602026Y-106315144D01*
G37*
G04 #@! TD.AperFunction*
G04 #@! TA.AperFunction,Conductor*
G36*
X140412026Y-106190144D02*
G01*
X140439875Y-106221994D01*
X140499987Y-106320088D01*
X140646250Y-106488938D01*
X140818126Y-106631632D01*
X140837690Y-106643064D01*
X140891445Y-106674476D01*
X140940169Y-106726114D01*
X140953240Y-106795897D01*
X140926509Y-106861669D01*
X140886055Y-106895027D01*
X140873607Y-106901507D01*
X140869474Y-106904610D01*
X140869471Y-106904612D01*
X140702422Y-107030036D01*
X140694965Y-107035635D01*
X140669541Y-107062240D01*
X140599751Y-107135271D01*
X140540629Y-107197138D01*
X140537715Y-107201410D01*
X140537714Y-107201411D01*
X140486153Y-107276997D01*
X140434569Y-107352617D01*
X140432898Y-107355066D01*
X140377987Y-107400069D01*
X140307462Y-107408240D01*
X140243715Y-107376986D01*
X140223018Y-107352502D01*
X140142426Y-107227926D01*
X140136136Y-107219757D01*
X139992806Y-107062240D01*
X139985273Y-107055215D01*
X139818139Y-106923222D01*
X139809556Y-106917520D01*
X139772602Y-106897120D01*
X139722631Y-106846687D01*
X139707859Y-106777245D01*
X139732975Y-106710839D01*
X139760327Y-106684232D01*
X139807039Y-106650913D01*
X139939860Y-106556173D01*
X139956297Y-106539794D01*
X140094435Y-106402137D01*
X140098096Y-106398489D01*
X140157594Y-106315689D01*
X140228453Y-106217077D01*
X140229776Y-106218028D01*
X140276645Y-106174857D01*
X140346580Y-106162625D01*
X140412026Y-106190144D01*
G37*
G04 #@! TD.AperFunction*
G04 #@! TA.AperFunction,Conductor*
G36*
X112287574Y-98259437D02*
G01*
X112323256Y-98284460D01*
X112376043Y-98337247D01*
X112383587Y-98345537D01*
X112387700Y-98352018D01*
X112393477Y-98357443D01*
X112437367Y-98398658D01*
X112440209Y-98401413D01*
X112459930Y-98421134D01*
X112463125Y-98423612D01*
X112472147Y-98431318D01*
X112504379Y-98461586D01*
X112511328Y-98465406D01*
X112522132Y-98471346D01*
X112538656Y-98482199D01*
X112554659Y-98494613D01*
X112595243Y-98512176D01*
X112605873Y-98517383D01*
X112644640Y-98538695D01*
X112652317Y-98540666D01*
X112652322Y-98540668D01*
X112664258Y-98543732D01*
X112682966Y-98550137D01*
X112701555Y-98558181D01*
X112709383Y-98559421D01*
X112709390Y-98559423D01*
X112745224Y-98565099D01*
X112756844Y-98567505D01*
X112791989Y-98576528D01*
X112799670Y-98578500D01*
X112819924Y-98578500D01*
X112839634Y-98580051D01*
X112859643Y-98583220D01*
X112867535Y-98582474D01*
X112903661Y-98579059D01*
X112915519Y-98578500D01*
X117749274Y-98578500D01*
X117817395Y-98598502D01*
X117856707Y-98638665D01*
X117924987Y-98750088D01*
X118071250Y-98918938D01*
X118218610Y-99041279D01*
X118234507Y-99054476D01*
X118243126Y-99061632D01*
X118250423Y-99065896D01*
X118316445Y-99104476D01*
X118365169Y-99156114D01*
X118378240Y-99225897D01*
X118351509Y-99291669D01*
X118311055Y-99325027D01*
X118298607Y-99331507D01*
X118294474Y-99334610D01*
X118294471Y-99334612D01*
X118156703Y-99438051D01*
X118119965Y-99465635D01*
X118116035Y-99469748D01*
X117992082Y-99599457D01*
X117965629Y-99627138D01*
X117839743Y-99811680D01*
X117745688Y-100014305D01*
X117685989Y-100229570D01*
X117662251Y-100451695D01*
X117662548Y-100456848D01*
X117662548Y-100456851D01*
X117668011Y-100551590D01*
X117675110Y-100674715D01*
X117676247Y-100679761D01*
X117676248Y-100679767D01*
X117692012Y-100749715D01*
X117724222Y-100892639D01*
X117785673Y-101043976D01*
X117806133Y-101094362D01*
X117808266Y-101099616D01*
X117810965Y-101104020D01*
X117908345Y-101262930D01*
X117924987Y-101290088D01*
X118071250Y-101458938D01*
X118218610Y-101581279D01*
X118234507Y-101594476D01*
X118243126Y-101601632D01*
X118292097Y-101630248D01*
X118316445Y-101644476D01*
X118365169Y-101696114D01*
X118378240Y-101765897D01*
X118351509Y-101831669D01*
X118311055Y-101865027D01*
X118298607Y-101871507D01*
X118294474Y-101874610D01*
X118294471Y-101874612D01*
X118160969Y-101974848D01*
X118119965Y-102005635D01*
X118116393Y-102009373D01*
X117992082Y-102139457D01*
X117965629Y-102167138D01*
X117839743Y-102351680D01*
X117824003Y-102385590D01*
X117768884Y-102504334D01*
X117745688Y-102554305D01*
X117685989Y-102769570D01*
X117662251Y-102991695D01*
X117662548Y-102996848D01*
X117662548Y-102996851D01*
X117668011Y-103091590D01*
X117675110Y-103214715D01*
X117676247Y-103219761D01*
X117676248Y-103219767D01*
X117719818Y-103413099D01*
X117715282Y-103483951D01*
X117673160Y-103541102D01*
X117606827Y-103566408D01*
X117596901Y-103566800D01*
X113380195Y-103566800D01*
X113312074Y-103546798D01*
X113291100Y-103529895D01*
X112468952Y-102707747D01*
X112461412Y-102699461D01*
X112457300Y-102692982D01*
X112407648Y-102646356D01*
X112404807Y-102643602D01*
X112385070Y-102623865D01*
X112381873Y-102621385D01*
X112372851Y-102613680D01*
X112340621Y-102583414D01*
X112333675Y-102579595D01*
X112333672Y-102579593D01*
X112322866Y-102573652D01*
X112306347Y-102562801D01*
X112301829Y-102559297D01*
X112290341Y-102550386D01*
X112283072Y-102547241D01*
X112283068Y-102547238D01*
X112249763Y-102532826D01*
X112239113Y-102527609D01*
X112200360Y-102506305D01*
X112180737Y-102501267D01*
X112162034Y-102494863D01*
X112150720Y-102489967D01*
X112150719Y-102489967D01*
X112143445Y-102486819D01*
X112135622Y-102485580D01*
X112135612Y-102485577D01*
X112099776Y-102479901D01*
X112088156Y-102477495D01*
X112053012Y-102468472D01*
X112053009Y-102468472D01*
X112049702Y-102467622D01*
X112045331Y-102466500D01*
X112045643Y-102465285D01*
X111987848Y-102440079D01*
X111962924Y-102411894D01*
X111872822Y-102272617D01*
X111872820Y-102272614D01*
X111870014Y-102268277D01*
X111719670Y-102103051D01*
X111715619Y-102099852D01*
X111715615Y-102099848D01*
X111548414Y-101967800D01*
X111548410Y-101967798D01*
X111544359Y-101964598D01*
X111528123Y-101955635D01*
X111507259Y-101944118D01*
X111502569Y-101941529D01*
X111452598Y-101891097D01*
X111437826Y-101821654D01*
X111462942Y-101755248D01*
X111490294Y-101728641D01*
X111665328Y-101603792D01*
X111673200Y-101597139D01*
X111824052Y-101446812D01*
X111830730Y-101438965D01*
X111955003Y-101266020D01*
X111960313Y-101257183D01*
X112054670Y-101066267D01*
X112058469Y-101056672D01*
X112120377Y-100852910D01*
X112122555Y-100842837D01*
X112123986Y-100831962D01*
X112121775Y-100817778D01*
X112108617Y-100814000D01*
X110662000Y-100814000D01*
X110593879Y-100793998D01*
X110547386Y-100740342D01*
X110536000Y-100688000D01*
X110536000Y-100432000D01*
X110556002Y-100363879D01*
X110609658Y-100317386D01*
X110662000Y-100306000D01*
X112108344Y-100306000D01*
X112121875Y-100302027D01*
X112123180Y-100292947D01*
X112081214Y-100125875D01*
X112077894Y-100116124D01*
X111992972Y-99920814D01*
X111988105Y-99911739D01*
X111872426Y-99732926D01*
X111866136Y-99724757D01*
X111722806Y-99567240D01*
X111715273Y-99560215D01*
X111548139Y-99428222D01*
X111539556Y-99422520D01*
X111502602Y-99402120D01*
X111452631Y-99351687D01*
X111437859Y-99282245D01*
X111462975Y-99215839D01*
X111490327Y-99189232D01*
X111536757Y-99156114D01*
X111669860Y-99061173D01*
X111676282Y-99054774D01*
X111792289Y-98939171D01*
X111828096Y-98903489D01*
X111885005Y-98824292D01*
X111955435Y-98726277D01*
X111958453Y-98722077D01*
X111979320Y-98679857D01*
X112055136Y-98526453D01*
X112055137Y-98526451D01*
X112057430Y-98521811D01*
X112077377Y-98456158D01*
X112113603Y-98336926D01*
X112152544Y-98277562D01*
X112217398Y-98248675D01*
X112287574Y-98259437D01*
G37*
G04 #@! TD.AperFunction*
G04 #@! TA.AperFunction,Conductor*
G36*
X120377338Y-101159678D02*
G01*
X120405166Y-101191511D01*
X120462694Y-101285388D01*
X120468777Y-101293699D01*
X120608213Y-101454667D01*
X120615580Y-101461883D01*
X120779434Y-101597916D01*
X120787881Y-101603831D01*
X120856969Y-101644203D01*
X120905693Y-101695842D01*
X120918764Y-101765625D01*
X120892033Y-101831396D01*
X120851584Y-101864752D01*
X120838607Y-101871507D01*
X120834474Y-101874610D01*
X120834471Y-101874612D01*
X120700969Y-101974848D01*
X120659965Y-102005635D01*
X120656393Y-102009373D01*
X120532082Y-102139457D01*
X120505629Y-102167138D01*
X120398201Y-102324621D01*
X120343293Y-102369621D01*
X120272768Y-102377792D01*
X120209021Y-102346538D01*
X120188324Y-102322054D01*
X120107822Y-102197617D01*
X120107820Y-102197614D01*
X120105014Y-102193277D01*
X119954670Y-102028051D01*
X119950619Y-102024852D01*
X119950615Y-102024848D01*
X119783414Y-101892800D01*
X119783410Y-101892798D01*
X119779359Y-101889598D01*
X119738053Y-101866796D01*
X119688084Y-101816364D01*
X119673312Y-101746921D01*
X119698428Y-101680516D01*
X119725780Y-101653909D01*
X119793092Y-101605896D01*
X119904860Y-101526173D01*
X120063096Y-101368489D01*
X120099025Y-101318489D01*
X120193453Y-101187077D01*
X120194640Y-101187930D01*
X120241960Y-101144362D01*
X120311897Y-101132145D01*
X120377338Y-101159678D01*
G37*
G04 #@! TD.AperFunction*
G04 #@! TA.AperFunction,Conductor*
G36*
X140412338Y-101109678D02*
G01*
X140440166Y-101141511D01*
X140497694Y-101235388D01*
X140503777Y-101243699D01*
X140643213Y-101404667D01*
X140650580Y-101411883D01*
X140814434Y-101547916D01*
X140822881Y-101553831D01*
X140891969Y-101594203D01*
X140940693Y-101645842D01*
X140953764Y-101715625D01*
X140927033Y-101781396D01*
X140886584Y-101814752D01*
X140873607Y-101821507D01*
X140869474Y-101824610D01*
X140869471Y-101824612D01*
X140699100Y-101952530D01*
X140694965Y-101955635D01*
X140650151Y-102002530D01*
X140599751Y-102055271D01*
X140540629Y-102117138D01*
X140433201Y-102274621D01*
X140378293Y-102319621D01*
X140307768Y-102327792D01*
X140244021Y-102296538D01*
X140223324Y-102272054D01*
X140142822Y-102147617D01*
X140142820Y-102147614D01*
X140140014Y-102143277D01*
X139989670Y-101978051D01*
X139985619Y-101974852D01*
X139985615Y-101974848D01*
X139818414Y-101842800D01*
X139818410Y-101842798D01*
X139814359Y-101839598D01*
X139773053Y-101816796D01*
X139723084Y-101766364D01*
X139708312Y-101696921D01*
X139733428Y-101630516D01*
X139760780Y-101603909D01*
X139804603Y-101572650D01*
X139939860Y-101476173D01*
X139957156Y-101458938D01*
X140094435Y-101322137D01*
X140098096Y-101318489D01*
X140157594Y-101235689D01*
X140228453Y-101137077D01*
X140229640Y-101137930D01*
X140276960Y-101094362D01*
X140346897Y-101082145D01*
X140412338Y-101109678D01*
G37*
G04 #@! TD.AperFunction*
G04 #@! TA.AperFunction,Conductor*
G36*
X142710239Y-98810584D02*
G01*
X142767000Y-98853230D01*
X142791694Y-98919794D01*
X142792000Y-98928563D01*
X142792000Y-99401401D01*
X142771998Y-99469522D01*
X142718342Y-99516015D01*
X142648068Y-99526119D01*
X142583488Y-99496625D01*
X142572806Y-99486200D01*
X142532805Y-99442240D01*
X142525273Y-99435215D01*
X142358139Y-99303222D01*
X142349556Y-99297520D01*
X142312602Y-99277120D01*
X142262631Y-99226687D01*
X142247859Y-99157245D01*
X142272975Y-99090839D01*
X142300327Y-99064232D01*
X142323797Y-99047491D01*
X142479860Y-98936173D01*
X142577060Y-98839312D01*
X142639432Y-98805396D01*
X142710239Y-98810584D01*
G37*
G04 #@! TD.AperFunction*
G04 #@! TA.AperFunction,Conductor*
G36*
X111934683Y-91281260D02*
G01*
X111979540Y-91310144D01*
X112280807Y-91611412D01*
X112581853Y-91912458D01*
X112589387Y-91920737D01*
X112593500Y-91927218D01*
X112643151Y-91973843D01*
X112645993Y-91976598D01*
X112665730Y-91996335D01*
X112668927Y-91998815D01*
X112677947Y-92006518D01*
X112710179Y-92036786D01*
X112717125Y-92040605D01*
X112717128Y-92040607D01*
X112727934Y-92046548D01*
X112744453Y-92057399D01*
X112760459Y-92069814D01*
X112767728Y-92072959D01*
X112767732Y-92072962D01*
X112801037Y-92087374D01*
X112811687Y-92092591D01*
X112850440Y-92113895D01*
X112858115Y-92115866D01*
X112858116Y-92115866D01*
X112870062Y-92118933D01*
X112888767Y-92125337D01*
X112907355Y-92133381D01*
X112915178Y-92134620D01*
X112915188Y-92134623D01*
X112951024Y-92140299D01*
X112962644Y-92142705D01*
X112994459Y-92150873D01*
X113005470Y-92153700D01*
X113025724Y-92153700D01*
X113045434Y-92155251D01*
X113065443Y-92158420D01*
X113073335Y-92157674D01*
X113109461Y-92154259D01*
X113121319Y-92153700D01*
X117659973Y-92153700D01*
X117728094Y-92173702D01*
X117774587Y-92227358D01*
X117784691Y-92297632D01*
X117774260Y-92332751D01*
X117747869Y-92389604D01*
X117747865Y-92389616D01*
X117745688Y-92394305D01*
X117685989Y-92609570D01*
X117662251Y-92831695D01*
X117675110Y-93054715D01*
X117676247Y-93059761D01*
X117676248Y-93059767D01*
X117686007Y-93103069D01*
X117724222Y-93272639D01*
X117785673Y-93423976D01*
X117806133Y-93474362D01*
X117808266Y-93479616D01*
X117810965Y-93484020D01*
X117908345Y-93642930D01*
X117924987Y-93670088D01*
X118071250Y-93838938D01*
X118243126Y-93981632D01*
X118292097Y-94010248D01*
X118316445Y-94024476D01*
X118365169Y-94076114D01*
X118378240Y-94145897D01*
X118351509Y-94211669D01*
X118311055Y-94245027D01*
X118298607Y-94251507D01*
X118294474Y-94254610D01*
X118294471Y-94254612D01*
X118160969Y-94354848D01*
X118119965Y-94385635D01*
X118116393Y-94389373D01*
X117992082Y-94519457D01*
X117965629Y-94547138D01*
X117839743Y-94731680D01*
X117824003Y-94765590D01*
X117768884Y-94884334D01*
X117745688Y-94934305D01*
X117685989Y-95149570D01*
X117662251Y-95371695D01*
X117662548Y-95376848D01*
X117662548Y-95376851D01*
X117674204Y-95578996D01*
X117675110Y-95594715D01*
X117676247Y-95599761D01*
X117676248Y-95599767D01*
X117719818Y-95793099D01*
X117715282Y-95863951D01*
X117673160Y-95921102D01*
X117606827Y-95946408D01*
X117596901Y-95946800D01*
X113380195Y-95946800D01*
X113312074Y-95926798D01*
X113291100Y-95909895D01*
X112468952Y-95087747D01*
X112461412Y-95079461D01*
X112457300Y-95072982D01*
X112407648Y-95026356D01*
X112404807Y-95023602D01*
X112385070Y-95003865D01*
X112381873Y-95001385D01*
X112372851Y-94993680D01*
X112340621Y-94963414D01*
X112333675Y-94959595D01*
X112333672Y-94959593D01*
X112322866Y-94953652D01*
X112306347Y-94942801D01*
X112301829Y-94939297D01*
X112290341Y-94930386D01*
X112283072Y-94927241D01*
X112283068Y-94927238D01*
X112249763Y-94912826D01*
X112239113Y-94907609D01*
X112200360Y-94886305D01*
X112180737Y-94881267D01*
X112162034Y-94874863D01*
X112150720Y-94869967D01*
X112150719Y-94869967D01*
X112143445Y-94866819D01*
X112135622Y-94865580D01*
X112135612Y-94865577D01*
X112099776Y-94859901D01*
X112088156Y-94857495D01*
X112053012Y-94848472D01*
X112053009Y-94848472D01*
X112049702Y-94847622D01*
X112045331Y-94846500D01*
X112045643Y-94845285D01*
X111987848Y-94820079D01*
X111962924Y-94791894D01*
X111872822Y-94652617D01*
X111872820Y-94652614D01*
X111870014Y-94648277D01*
X111719670Y-94483051D01*
X111715619Y-94479852D01*
X111715615Y-94479848D01*
X111548414Y-94347800D01*
X111548410Y-94347798D01*
X111544359Y-94344598D01*
X111528123Y-94335635D01*
X111507259Y-94324118D01*
X111502569Y-94321529D01*
X111452598Y-94271097D01*
X111437826Y-94201654D01*
X111462942Y-94135248D01*
X111490294Y-94108641D01*
X111665328Y-93983792D01*
X111673200Y-93977139D01*
X111824052Y-93826812D01*
X111830730Y-93818965D01*
X111955003Y-93646020D01*
X111960313Y-93637183D01*
X112054670Y-93446267D01*
X112058469Y-93436672D01*
X112120377Y-93232910D01*
X112122555Y-93222837D01*
X112123986Y-93211962D01*
X112121775Y-93197778D01*
X112108617Y-93194000D01*
X110662000Y-93194000D01*
X110593879Y-93173998D01*
X110547386Y-93120342D01*
X110536000Y-93068000D01*
X110536000Y-92812000D01*
X110556002Y-92743879D01*
X110609658Y-92697386D01*
X110662000Y-92686000D01*
X112108344Y-92686000D01*
X112121875Y-92682027D01*
X112123180Y-92672947D01*
X112081214Y-92505875D01*
X112077894Y-92496124D01*
X111992972Y-92300814D01*
X111988105Y-92291739D01*
X111872426Y-92112926D01*
X111866136Y-92104757D01*
X111722806Y-91947240D01*
X111715273Y-91940215D01*
X111548139Y-91808222D01*
X111539556Y-91802520D01*
X111502602Y-91782120D01*
X111452631Y-91731687D01*
X111437859Y-91662245D01*
X111462975Y-91595839D01*
X111490327Y-91569232D01*
X111535625Y-91536921D01*
X111669860Y-91441173D01*
X111801505Y-91309988D01*
X111863876Y-91276072D01*
X111934683Y-91281260D01*
G37*
G04 #@! TD.AperFunction*
G04 #@! TA.AperFunction,Conductor*
G36*
X142710238Y-93729876D02*
G01*
X142767000Y-93772522D01*
X142791694Y-93839085D01*
X142792000Y-93847855D01*
X142792000Y-94320657D01*
X142771998Y-94388778D01*
X142718342Y-94435271D01*
X142648068Y-94445375D01*
X142583488Y-94415881D01*
X142572806Y-94405456D01*
X142533151Y-94361876D01*
X142533145Y-94361870D01*
X142529670Y-94358051D01*
X142525619Y-94354852D01*
X142525615Y-94354848D01*
X142358414Y-94222800D01*
X142358410Y-94222798D01*
X142354359Y-94219598D01*
X142340228Y-94211797D01*
X142317270Y-94199124D01*
X142312569Y-94196529D01*
X142262598Y-94146097D01*
X142247826Y-94076654D01*
X142272942Y-94010248D01*
X142300294Y-93983641D01*
X142475328Y-93858792D01*
X142483200Y-93852139D01*
X142577060Y-93758605D01*
X142639431Y-93724688D01*
X142710238Y-93729876D01*
G37*
G04 #@! TD.AperFunction*
G04 #@! TA.AperFunction,Conductor*
G36*
X109602026Y-91075144D02*
G01*
X109629875Y-91106994D01*
X109689987Y-91205088D01*
X109836250Y-91373938D01*
X110008126Y-91516632D01*
X110075830Y-91556195D01*
X110081955Y-91559774D01*
X110130679Y-91611412D01*
X110143750Y-91681195D01*
X110117019Y-91746967D01*
X110076562Y-91780327D01*
X110068457Y-91784546D01*
X110059738Y-91790036D01*
X109889433Y-91917905D01*
X109881726Y-91924748D01*
X109734590Y-92078717D01*
X109728109Y-92086722D01*
X109623498Y-92240074D01*
X109568587Y-92285076D01*
X109498062Y-92293247D01*
X109434315Y-92261993D01*
X109413618Y-92237509D01*
X109332822Y-92112617D01*
X109332820Y-92112614D01*
X109330014Y-92108277D01*
X109179670Y-91943051D01*
X109175619Y-91939852D01*
X109175615Y-91939848D01*
X109008414Y-91807800D01*
X109008410Y-91807798D01*
X109004359Y-91804598D01*
X108963053Y-91781796D01*
X108913084Y-91731364D01*
X108898312Y-91661921D01*
X108923428Y-91595516D01*
X108950780Y-91568909D01*
X109003610Y-91531226D01*
X109129860Y-91441173D01*
X109136282Y-91434774D01*
X109252289Y-91319171D01*
X109288096Y-91283489D01*
X109345005Y-91204292D01*
X109418453Y-91102077D01*
X109419776Y-91103028D01*
X109466645Y-91059857D01*
X109536580Y-91047625D01*
X109602026Y-91075144D01*
G37*
G04 #@! TD.AperFunction*
G04 #@! TA.AperFunction,Conductor*
G36*
X142710239Y-91190584D02*
G01*
X142767000Y-91233230D01*
X142791694Y-91299794D01*
X142792000Y-91308563D01*
X142792000Y-91781401D01*
X142771998Y-91849522D01*
X142718342Y-91896015D01*
X142648068Y-91906119D01*
X142583488Y-91876625D01*
X142572806Y-91866200D01*
X142532805Y-91822240D01*
X142525273Y-91815215D01*
X142358139Y-91683222D01*
X142349556Y-91677520D01*
X142312602Y-91657120D01*
X142262631Y-91606687D01*
X142247859Y-91537245D01*
X142272975Y-91470839D01*
X142300327Y-91444232D01*
X142323797Y-91427491D01*
X142479860Y-91316173D01*
X142577060Y-91219312D01*
X142639432Y-91185396D01*
X142710239Y-91190584D01*
G37*
G04 #@! TD.AperFunction*
G04 #@! TA.AperFunction,Conductor*
G36*
X111934683Y-86201260D02*
G01*
X111979540Y-86230144D01*
X112280806Y-86531411D01*
X112581853Y-86832458D01*
X112589387Y-86840737D01*
X112593500Y-86847218D01*
X112625362Y-86877138D01*
X112643151Y-86893843D01*
X112645993Y-86896598D01*
X112665730Y-86916335D01*
X112668927Y-86918815D01*
X112677947Y-86926518D01*
X112710179Y-86956786D01*
X112717125Y-86960605D01*
X112717128Y-86960607D01*
X112727934Y-86966548D01*
X112744453Y-86977399D01*
X112760459Y-86989814D01*
X112767728Y-86992959D01*
X112767732Y-86992962D01*
X112801037Y-87007374D01*
X112811687Y-87012591D01*
X112850440Y-87033895D01*
X112858115Y-87035866D01*
X112858116Y-87035866D01*
X112870062Y-87038933D01*
X112888767Y-87045337D01*
X112907355Y-87053381D01*
X112915178Y-87054620D01*
X112915188Y-87054623D01*
X112951024Y-87060299D01*
X112962644Y-87062705D01*
X112997789Y-87071728D01*
X113005470Y-87073700D01*
X113025724Y-87073700D01*
X113045434Y-87075251D01*
X113065443Y-87078420D01*
X113073335Y-87077674D01*
X113109461Y-87074259D01*
X113121319Y-87073700D01*
X117660524Y-87073700D01*
X117728645Y-87093702D01*
X117775138Y-87147358D01*
X117785242Y-87217632D01*
X117774812Y-87252750D01*
X117748338Y-87309783D01*
X117744775Y-87319470D01*
X117689389Y-87519183D01*
X117690912Y-87527607D01*
X117703292Y-87531000D01*
X119153000Y-87531000D01*
X119221121Y-87551002D01*
X119267614Y-87604658D01*
X119279000Y-87657000D01*
X119279000Y-87913000D01*
X119258998Y-87981121D01*
X119205342Y-88027614D01*
X119153000Y-88039000D01*
X117708225Y-88039000D01*
X117694694Y-88042973D01*
X117693257Y-88052966D01*
X117723565Y-88187446D01*
X117726645Y-88197275D01*
X117806770Y-88394603D01*
X117811413Y-88403794D01*
X117922694Y-88585388D01*
X117928777Y-88593699D01*
X118068213Y-88754667D01*
X118075580Y-88761883D01*
X118239434Y-88897916D01*
X118247881Y-88903831D01*
X118316969Y-88944203D01*
X118365693Y-88995842D01*
X118378764Y-89065625D01*
X118352033Y-89131396D01*
X118311584Y-89164752D01*
X118298607Y-89171507D01*
X118294474Y-89174610D01*
X118294471Y-89174612D01*
X118160969Y-89274848D01*
X118119965Y-89305635D01*
X118116393Y-89309373D01*
X117992082Y-89439457D01*
X117965629Y-89467138D01*
X117839743Y-89651680D01*
X117824003Y-89685590D01*
X117768884Y-89804334D01*
X117745688Y-89854305D01*
X117685989Y-90069570D01*
X117662251Y-90291695D01*
X117662548Y-90296848D01*
X117662548Y-90296851D01*
X117668011Y-90391590D01*
X117675110Y-90514715D01*
X117676247Y-90519761D01*
X117676248Y-90519767D01*
X117724222Y-90732639D01*
X117721825Y-90733179D01*
X117722952Y-90793950D01*
X117685683Y-90854378D01*
X117621660Y-90885063D01*
X117601418Y-90886700D01*
X113400095Y-90886700D01*
X113331974Y-90866698D01*
X113310999Y-90849795D01*
X112468947Y-90007742D01*
X112461413Y-89999463D01*
X112457300Y-89992982D01*
X112407648Y-89946356D01*
X112404807Y-89943602D01*
X112385070Y-89923865D01*
X112381873Y-89921385D01*
X112372851Y-89913680D01*
X112340621Y-89883414D01*
X112333675Y-89879595D01*
X112333672Y-89879593D01*
X112322866Y-89873652D01*
X112306347Y-89862801D01*
X112301829Y-89859297D01*
X112290341Y-89850386D01*
X112283072Y-89847241D01*
X112283068Y-89847238D01*
X112249763Y-89832826D01*
X112239113Y-89827609D01*
X112200360Y-89806305D01*
X112180737Y-89801267D01*
X112162034Y-89794863D01*
X112150720Y-89789967D01*
X112150719Y-89789967D01*
X112143445Y-89786819D01*
X112135622Y-89785580D01*
X112135612Y-89785577D01*
X112099776Y-89779901D01*
X112088156Y-89777495D01*
X112053012Y-89768472D01*
X112053009Y-89768472D01*
X112049702Y-89767622D01*
X112045331Y-89766500D01*
X112045643Y-89765285D01*
X111987848Y-89740079D01*
X111962924Y-89711894D01*
X111872822Y-89572617D01*
X111872820Y-89572614D01*
X111870014Y-89568277D01*
X111719670Y-89403051D01*
X111715619Y-89399852D01*
X111715615Y-89399848D01*
X111548414Y-89267800D01*
X111548410Y-89267798D01*
X111544359Y-89264598D01*
X111503053Y-89241796D01*
X111453084Y-89191364D01*
X111438312Y-89121921D01*
X111463428Y-89055516D01*
X111490780Y-89028909D01*
X111558588Y-88980542D01*
X111669860Y-88901173D01*
X111676581Y-88894476D01*
X111792669Y-88778792D01*
X111828096Y-88743489D01*
X111885005Y-88664292D01*
X111955435Y-88566277D01*
X111958453Y-88562077D01*
X111971995Y-88534678D01*
X112055136Y-88366453D01*
X112055137Y-88366451D01*
X112057430Y-88361811D01*
X112122370Y-88148069D01*
X112151529Y-87926590D01*
X112153156Y-87860000D01*
X112134852Y-87637361D01*
X112080431Y-87420702D01*
X111991354Y-87215840D01*
X111942834Y-87140840D01*
X111872822Y-87032617D01*
X111872820Y-87032614D01*
X111870014Y-87028277D01*
X111719670Y-86863051D01*
X111715619Y-86859852D01*
X111715615Y-86859848D01*
X111548414Y-86727800D01*
X111548410Y-86727798D01*
X111544359Y-86724598D01*
X111503053Y-86701796D01*
X111453084Y-86651364D01*
X111438312Y-86581921D01*
X111463428Y-86515516D01*
X111490780Y-86488909D01*
X111543610Y-86451226D01*
X111669860Y-86361173D01*
X111801505Y-86229988D01*
X111863876Y-86196072D01*
X111934683Y-86201260D01*
G37*
G04 #@! TD.AperFunction*
G04 #@! TA.AperFunction,Conductor*
G36*
X109601751Y-88534678D02*
G01*
X109629579Y-88566511D01*
X109689987Y-88665088D01*
X109836250Y-88833938D01*
X110008126Y-88976632D01*
X110060213Y-89007069D01*
X110081445Y-89019476D01*
X110130169Y-89071114D01*
X110143240Y-89140897D01*
X110116509Y-89206669D01*
X110076055Y-89240027D01*
X110063607Y-89246507D01*
X110059476Y-89249609D01*
X110059471Y-89249612D01*
X109905289Y-89365375D01*
X109884965Y-89380635D01*
X109730629Y-89542138D01*
X109623201Y-89699621D01*
X109568293Y-89744621D01*
X109497768Y-89752792D01*
X109434021Y-89721538D01*
X109413324Y-89697054D01*
X109332822Y-89572617D01*
X109332820Y-89572614D01*
X109330014Y-89568277D01*
X109179670Y-89403051D01*
X109175619Y-89399852D01*
X109175615Y-89399848D01*
X109008414Y-89267800D01*
X109008410Y-89267798D01*
X109004359Y-89264598D01*
X108988123Y-89255635D01*
X108967259Y-89244118D01*
X108962569Y-89241529D01*
X108912598Y-89191097D01*
X108897826Y-89121654D01*
X108922942Y-89055248D01*
X108950294Y-89028641D01*
X109125328Y-88903792D01*
X109133200Y-88897139D01*
X109284052Y-88746812D01*
X109290730Y-88738965D01*
X109418022Y-88561819D01*
X109419279Y-88562722D01*
X109466373Y-88519362D01*
X109536311Y-88507145D01*
X109601751Y-88534678D01*
G37*
G04 #@! TD.AperFunction*
G04 #@! TA.AperFunction,Conductor*
G36*
X140411751Y-88409678D02*
G01*
X140439579Y-88441511D01*
X140499987Y-88540088D01*
X140646250Y-88708938D01*
X140818126Y-88851632D01*
X140888595Y-88892811D01*
X140891445Y-88894476D01*
X140940169Y-88946114D01*
X140953240Y-89015897D01*
X140926509Y-89081669D01*
X140886055Y-89115027D01*
X140873607Y-89121507D01*
X140869474Y-89124610D01*
X140869471Y-89124612D01*
X140699100Y-89252530D01*
X140694965Y-89255635D01*
X140650151Y-89302530D01*
X140599751Y-89355271D01*
X140540629Y-89417138D01*
X140433201Y-89574621D01*
X140378293Y-89619621D01*
X140307768Y-89627792D01*
X140244021Y-89596538D01*
X140223324Y-89572054D01*
X140142822Y-89447617D01*
X140142820Y-89447614D01*
X140140014Y-89443277D01*
X139989670Y-89278051D01*
X139985619Y-89274852D01*
X139985615Y-89274848D01*
X139818414Y-89142800D01*
X139818410Y-89142798D01*
X139814359Y-89139598D01*
X139800228Y-89131797D01*
X139777259Y-89119118D01*
X139772569Y-89116529D01*
X139722598Y-89066097D01*
X139707826Y-88996654D01*
X139732942Y-88930248D01*
X139760294Y-88903641D01*
X139935328Y-88778792D01*
X139943200Y-88772139D01*
X140094052Y-88621812D01*
X140100730Y-88613965D01*
X140228022Y-88436819D01*
X140229279Y-88437722D01*
X140276373Y-88394362D01*
X140346311Y-88382145D01*
X140411751Y-88409678D01*
G37*
G04 #@! TD.AperFunction*
G04 #@! TA.AperFunction,Conductor*
G36*
X142710239Y-88650584D02*
G01*
X142767000Y-88693230D01*
X142791694Y-88759794D01*
X142792000Y-88768563D01*
X142792000Y-89240657D01*
X142771998Y-89308778D01*
X142718342Y-89355271D01*
X142648068Y-89365375D01*
X142583488Y-89335881D01*
X142572806Y-89325456D01*
X142533151Y-89281876D01*
X142533145Y-89281870D01*
X142529670Y-89278051D01*
X142525619Y-89274852D01*
X142525615Y-89274848D01*
X142358414Y-89142800D01*
X142358410Y-89142798D01*
X142354359Y-89139598D01*
X142313053Y-89116796D01*
X142263084Y-89066364D01*
X142248312Y-88996921D01*
X142273428Y-88930516D01*
X142300780Y-88903909D01*
X142344603Y-88872650D01*
X142479860Y-88776173D01*
X142577060Y-88679312D01*
X142639432Y-88645396D01*
X142710239Y-88650584D01*
G37*
G04 #@! TD.AperFunction*
G04 #@! TA.AperFunction,Conductor*
G36*
X109602026Y-85995144D02*
G01*
X109629875Y-86026994D01*
X109689987Y-86125088D01*
X109836250Y-86293938D01*
X110008126Y-86436632D01*
X110075320Y-86475897D01*
X110081445Y-86479476D01*
X110130169Y-86531114D01*
X110143240Y-86600897D01*
X110116509Y-86666669D01*
X110076055Y-86700027D01*
X110063607Y-86706507D01*
X110059474Y-86709610D01*
X110059471Y-86709612D01*
X109889100Y-86837530D01*
X109884965Y-86840635D01*
X109881393Y-86844373D01*
X109747047Y-86984958D01*
X109730629Y-87002138D01*
X109727715Y-87006410D01*
X109727714Y-87006411D01*
X109622898Y-87160066D01*
X109567987Y-87205069D01*
X109497462Y-87213240D01*
X109433715Y-87181986D01*
X109413018Y-87157502D01*
X109332426Y-87032926D01*
X109326136Y-87024757D01*
X109182806Y-86867240D01*
X109175273Y-86860215D01*
X109008139Y-86728222D01*
X108999556Y-86722520D01*
X108962602Y-86702120D01*
X108912631Y-86651687D01*
X108897859Y-86582245D01*
X108922975Y-86515839D01*
X108950327Y-86489232D01*
X108995625Y-86456921D01*
X109129860Y-86361173D01*
X109136581Y-86354476D01*
X109252289Y-86239171D01*
X109288096Y-86203489D01*
X109345005Y-86124292D01*
X109418453Y-86022077D01*
X109419776Y-86023028D01*
X109466645Y-85979857D01*
X109536580Y-85967625D01*
X109602026Y-85995144D01*
G37*
G04 #@! TD.AperFunction*
G04 #@! TA.AperFunction,Conductor*
G36*
X117548262Y-79517507D02*
G01*
X117571869Y-79526711D01*
X117577934Y-79529260D01*
X117636173Y-79555556D01*
X117643638Y-79556940D01*
X117650891Y-79559213D01*
X117650347Y-79560949D01*
X117705073Y-79588676D01*
X117741004Y-79649909D01*
X117740185Y-79714148D01*
X117685989Y-79909570D01*
X117662251Y-80131695D01*
X117675110Y-80354715D01*
X117676247Y-80359761D01*
X117676248Y-80359767D01*
X117700304Y-80466508D01*
X117724222Y-80572639D01*
X117756723Y-80652680D01*
X117790904Y-80736857D01*
X117808266Y-80779616D01*
X117854226Y-80854616D01*
X117922291Y-80965688D01*
X117924987Y-80970088D01*
X118071250Y-81138938D01*
X118243126Y-81281632D01*
X118250423Y-81285896D01*
X118316445Y-81324476D01*
X118365169Y-81376114D01*
X118378240Y-81445897D01*
X118351509Y-81511669D01*
X118311055Y-81545027D01*
X118298607Y-81551507D01*
X118294474Y-81554610D01*
X118294471Y-81554612D01*
X118157091Y-81657760D01*
X118119965Y-81685635D01*
X118063369Y-81744859D01*
X117992082Y-81819457D01*
X117965629Y-81847138D01*
X117839743Y-82031680D01*
X117745688Y-82234305D01*
X117685989Y-82449570D01*
X117662251Y-82671695D01*
X117675110Y-82894715D01*
X117676247Y-82899761D01*
X117676248Y-82899767D01*
X117686007Y-82943069D01*
X117724222Y-83112639D01*
X117778423Y-83246121D01*
X117806133Y-83314362D01*
X117808266Y-83319616D01*
X117810965Y-83324020D01*
X117908345Y-83482930D01*
X117924987Y-83510088D01*
X118071250Y-83678938D01*
X118243126Y-83821632D01*
X118313595Y-83862811D01*
X118316445Y-83864476D01*
X118365169Y-83916114D01*
X118378240Y-83985897D01*
X118351509Y-84051669D01*
X118311055Y-84085027D01*
X118298607Y-84091507D01*
X118294474Y-84094610D01*
X118294471Y-84094612D01*
X118160969Y-84194848D01*
X118119965Y-84225635D01*
X118116393Y-84229373D01*
X117992082Y-84359457D01*
X117965629Y-84387138D01*
X117839743Y-84571680D01*
X117824003Y-84605590D01*
X117768884Y-84724334D01*
X117745688Y-84774305D01*
X117685989Y-84989570D01*
X117662251Y-85211695D01*
X117662548Y-85216848D01*
X117662548Y-85216851D01*
X117668011Y-85311590D01*
X117675110Y-85434715D01*
X117676247Y-85439761D01*
X117676248Y-85439767D01*
X117724222Y-85652639D01*
X117721825Y-85653179D01*
X117722952Y-85713950D01*
X117685683Y-85774378D01*
X117621660Y-85805063D01*
X117601418Y-85806700D01*
X113400095Y-85806700D01*
X113331974Y-85786698D01*
X113310999Y-85769795D01*
X112468947Y-84927742D01*
X112461413Y-84919463D01*
X112457300Y-84912982D01*
X112407648Y-84866356D01*
X112404807Y-84863602D01*
X112385070Y-84843865D01*
X112381873Y-84841385D01*
X112372851Y-84833680D01*
X112340621Y-84803414D01*
X112333675Y-84799595D01*
X112333672Y-84799593D01*
X112322866Y-84793652D01*
X112306347Y-84782801D01*
X112301829Y-84779297D01*
X112290341Y-84770386D01*
X112283072Y-84767241D01*
X112283068Y-84767238D01*
X112249763Y-84752826D01*
X112239113Y-84747609D01*
X112200360Y-84726305D01*
X112180737Y-84721267D01*
X112162034Y-84714863D01*
X112150720Y-84709967D01*
X112150719Y-84709967D01*
X112143445Y-84706819D01*
X112135622Y-84705580D01*
X112135612Y-84705577D01*
X112099776Y-84699901D01*
X112088156Y-84697495D01*
X112053012Y-84688472D01*
X112053009Y-84688472D01*
X112049702Y-84687622D01*
X112045331Y-84686500D01*
X112045643Y-84685285D01*
X111987848Y-84660079D01*
X111962924Y-84631894D01*
X111872822Y-84492617D01*
X111872820Y-84492614D01*
X111870014Y-84488277D01*
X111719670Y-84323051D01*
X111715619Y-84319852D01*
X111715615Y-84319848D01*
X111548414Y-84187800D01*
X111548410Y-84187798D01*
X111544359Y-84184598D01*
X111528123Y-84175635D01*
X111507259Y-84164118D01*
X111502569Y-84161529D01*
X111452598Y-84111097D01*
X111437826Y-84041654D01*
X111462942Y-83975248D01*
X111490294Y-83948641D01*
X111665328Y-83823792D01*
X111673200Y-83817139D01*
X111824052Y-83666812D01*
X111830730Y-83658965D01*
X111955003Y-83486020D01*
X111960313Y-83477183D01*
X112054670Y-83286267D01*
X112058469Y-83276672D01*
X112120377Y-83072910D01*
X112122555Y-83062837D01*
X112123986Y-83051962D01*
X112121775Y-83037778D01*
X112108617Y-83034000D01*
X110662000Y-83034000D01*
X110593879Y-83013998D01*
X110547386Y-82960342D01*
X110536000Y-82908000D01*
X110536000Y-82652000D01*
X110556002Y-82583879D01*
X110609658Y-82537386D01*
X110662000Y-82526000D01*
X112108344Y-82526000D01*
X112121875Y-82522027D01*
X112123180Y-82512947D01*
X112081214Y-82345875D01*
X112077894Y-82336124D01*
X111992972Y-82140814D01*
X111988105Y-82131739D01*
X111872426Y-81952926D01*
X111866136Y-81944757D01*
X111722806Y-81787240D01*
X111715273Y-81780215D01*
X111548139Y-81648222D01*
X111539556Y-81642520D01*
X111502602Y-81622120D01*
X111452631Y-81571687D01*
X111437859Y-81502245D01*
X111462975Y-81435839D01*
X111490327Y-81409232D01*
X111536757Y-81376114D01*
X111669860Y-81281173D01*
X111676282Y-81274774D01*
X111792289Y-81159171D01*
X111828096Y-81123489D01*
X111885005Y-81044292D01*
X111955435Y-80946277D01*
X111958453Y-80942077D01*
X111979320Y-80899857D01*
X112055136Y-80746453D01*
X112055137Y-80746451D01*
X112057430Y-80741811D01*
X112099701Y-80602680D01*
X112120865Y-80533023D01*
X112120865Y-80533021D01*
X112122370Y-80528069D01*
X112151529Y-80306590D01*
X112153156Y-80240000D01*
X112134852Y-80017361D01*
X112080431Y-79800702D01*
X112071699Y-79780618D01*
X112030184Y-79685143D01*
X112021363Y-79614696D01*
X112052030Y-79550664D01*
X112112446Y-79513376D01*
X112145733Y-79508900D01*
X117502492Y-79508900D01*
X117548262Y-79517507D01*
G37*
G04 #@! TD.AperFunction*
G04 #@! TA.AperFunction,Conductor*
G36*
X109602338Y-83454678D02*
G01*
X109630166Y-83486511D01*
X109687694Y-83580388D01*
X109693777Y-83588699D01*
X109833213Y-83749667D01*
X109840580Y-83756883D01*
X110004434Y-83892916D01*
X110012881Y-83898831D01*
X110081969Y-83939203D01*
X110130693Y-83990842D01*
X110143764Y-84060625D01*
X110117033Y-84126396D01*
X110076584Y-84159752D01*
X110063607Y-84166507D01*
X110059476Y-84169609D01*
X110059471Y-84169612D01*
X109905289Y-84285375D01*
X109884965Y-84300635D01*
X109730629Y-84462138D01*
X109623201Y-84619621D01*
X109568293Y-84664621D01*
X109497768Y-84672792D01*
X109434021Y-84641538D01*
X109413324Y-84617054D01*
X109332822Y-84492617D01*
X109332820Y-84492614D01*
X109330014Y-84488277D01*
X109179670Y-84323051D01*
X109175619Y-84319852D01*
X109175615Y-84319848D01*
X109008414Y-84187800D01*
X109008410Y-84187798D01*
X109004359Y-84184598D01*
X108963053Y-84161796D01*
X108913084Y-84111364D01*
X108898312Y-84041921D01*
X108923428Y-83975516D01*
X108950780Y-83948909D01*
X109003610Y-83911226D01*
X109129860Y-83821173D01*
X109136855Y-83814203D01*
X109254541Y-83696927D01*
X109288096Y-83663489D01*
X109345005Y-83584292D01*
X109418453Y-83482077D01*
X109419640Y-83482930D01*
X109466960Y-83439362D01*
X109536897Y-83427145D01*
X109602338Y-83454678D01*
G37*
G04 #@! TD.AperFunction*
G04 #@! TA.AperFunction,Conductor*
G36*
X142710238Y-83569876D02*
G01*
X142767000Y-83612522D01*
X142791694Y-83679085D01*
X142792000Y-83687855D01*
X142792000Y-84160657D01*
X142771998Y-84228778D01*
X142718342Y-84275271D01*
X142648068Y-84285375D01*
X142583488Y-84255881D01*
X142572806Y-84245456D01*
X142533151Y-84201876D01*
X142533145Y-84201870D01*
X142529670Y-84198051D01*
X142525619Y-84194852D01*
X142525615Y-84194848D01*
X142358414Y-84062800D01*
X142358410Y-84062798D01*
X142354359Y-84059598D01*
X142340228Y-84051797D01*
X142317270Y-84039124D01*
X142312569Y-84036529D01*
X142262598Y-83986097D01*
X142247826Y-83916654D01*
X142272942Y-83850248D01*
X142300294Y-83823641D01*
X142475328Y-83698792D01*
X142483200Y-83692139D01*
X142577060Y-83598605D01*
X142639431Y-83564688D01*
X142710238Y-83569876D01*
G37*
G04 #@! TD.AperFunction*
G04 #@! TA.AperFunction,NonConductor*
G36*
X142734121Y-76128002D02*
G01*
X142780614Y-76181658D01*
X142792000Y-76234000D01*
X142792000Y-76540657D01*
X142771998Y-76608778D01*
X142718342Y-76655271D01*
X142648068Y-76665375D01*
X142583488Y-76635881D01*
X142572806Y-76625456D01*
X142533151Y-76581876D01*
X142533148Y-76581873D01*
X142529670Y-76578051D01*
X142525619Y-76574852D01*
X142525615Y-76574848D01*
X142358414Y-76442800D01*
X142358410Y-76442798D01*
X142354359Y-76439598D01*
X142181741Y-76344308D01*
X142131772Y-76293876D01*
X142117000Y-76224433D01*
X142142116Y-76158028D01*
X142199147Y-76115743D01*
X142242636Y-76108000D01*
X142666000Y-76108000D01*
X142734121Y-76128002D01*
G37*
G04 #@! TD.AperFunction*
G04 #@! TA.AperFunction,NonConductor*
G36*
X142710239Y-78490584D02*
G01*
X142767000Y-78533230D01*
X142791694Y-78599794D01*
X142792000Y-78608563D01*
X142792000Y-79080657D01*
X142771998Y-79148778D01*
X142718342Y-79195271D01*
X142648068Y-79205375D01*
X142583488Y-79175881D01*
X142572806Y-79165456D01*
X142533151Y-79121876D01*
X142533148Y-79121873D01*
X142529670Y-79118051D01*
X142525619Y-79114852D01*
X142525615Y-79114848D01*
X142356408Y-78981216D01*
X142315345Y-78923298D01*
X142308500Y-78882334D01*
X142308500Y-78803297D01*
X142328502Y-78735176D01*
X142361332Y-78700718D01*
X142475656Y-78619172D01*
X142475659Y-78619170D01*
X142479860Y-78616173D01*
X142577060Y-78519312D01*
X142639432Y-78485396D01*
X142710239Y-78490584D01*
G37*
G04 #@! TD.AperFunction*
G04 #@! TA.AperFunction,NonConductor*
G36*
X140583150Y-78488126D02*
G01*
X140617817Y-78516114D01*
X140646250Y-78548938D01*
X140818126Y-78691632D01*
X140829070Y-78698027D01*
X140877793Y-78749664D01*
X140891500Y-78806815D01*
X140891500Y-78885114D01*
X140871498Y-78953235D01*
X140841153Y-78985874D01*
X140714914Y-79080657D01*
X140694965Y-79095635D01*
X140644180Y-79148778D01*
X140599751Y-79195271D01*
X140540629Y-79257138D01*
X140433201Y-79414621D01*
X140378293Y-79459621D01*
X140307768Y-79467792D01*
X140244021Y-79436538D01*
X140223324Y-79412054D01*
X140142822Y-79287617D01*
X140142820Y-79287614D01*
X140140014Y-79283277D01*
X140136532Y-79279450D01*
X139992798Y-79121488D01*
X139961746Y-79057642D01*
X139970141Y-78987143D01*
X140015317Y-78932375D01*
X140041761Y-78918706D01*
X140148297Y-78878767D01*
X140156705Y-78875615D01*
X140273261Y-78788261D01*
X140360615Y-78671705D01*
X140381564Y-78615824D01*
X140404598Y-78554382D01*
X140447240Y-78497618D01*
X140513802Y-78472918D01*
X140583150Y-78488126D01*
G37*
G04 #@! TD.AperFunction*
G04 #@! TA.AperFunction,NonConductor*
G36*
X109773150Y-78613126D02*
G01*
X109807817Y-78641114D01*
X109836250Y-78673938D01*
X110008126Y-78816632D01*
X110019070Y-78823027D01*
X110067793Y-78874664D01*
X110081500Y-78931815D01*
X110081500Y-79010114D01*
X110061498Y-79078235D01*
X110031153Y-79110874D01*
X109918747Y-79195271D01*
X109884965Y-79220635D01*
X109730629Y-79382138D01*
X109623201Y-79539621D01*
X109568293Y-79584621D01*
X109497768Y-79592792D01*
X109434021Y-79561538D01*
X109413324Y-79537054D01*
X109332822Y-79412617D01*
X109332820Y-79412614D01*
X109330014Y-79408277D01*
X109321519Y-79398941D01*
X109182798Y-79246488D01*
X109151746Y-79182642D01*
X109160141Y-79112143D01*
X109205317Y-79057375D01*
X109231761Y-79043706D01*
X109338297Y-79003767D01*
X109346705Y-79000615D01*
X109463261Y-78913261D01*
X109550615Y-78796705D01*
X109575531Y-78730243D01*
X109594598Y-78679382D01*
X109637240Y-78622618D01*
X109703802Y-78597918D01*
X109773150Y-78613126D01*
G37*
G04 #@! TD.AperFunction*
G04 #@! TA.AperFunction,NonConductor*
G36*
X107503069Y-81377051D02*
G01*
X107541445Y-81399476D01*
X107590168Y-81451113D01*
X107603240Y-81520896D01*
X107576509Y-81586669D01*
X107536055Y-81620027D01*
X107533416Y-81621401D01*
X107523607Y-81626507D01*
X107519476Y-81629609D01*
X107515150Y-81632857D01*
X107448664Y-81657760D01*
X107379269Y-81642766D01*
X107328997Y-81592634D01*
X107313500Y-81532094D01*
X107313500Y-81485840D01*
X107333502Y-81417719D01*
X107387158Y-81371226D01*
X107457432Y-81361122D01*
X107503069Y-81377051D01*
G37*
G04 #@! TD.AperFunction*
G04 #@! TA.AperFunction,NonConductor*
G36*
X142710239Y-81030584D02*
G01*
X142767000Y-81073230D01*
X142791694Y-81139794D01*
X142792000Y-81148563D01*
X142792000Y-81621401D01*
X142771998Y-81689522D01*
X142718342Y-81736015D01*
X142648068Y-81746119D01*
X142583488Y-81716625D01*
X142572806Y-81706200D01*
X142532805Y-81662240D01*
X142525273Y-81655215D01*
X142358139Y-81523222D01*
X142349556Y-81517520D01*
X142312602Y-81497120D01*
X142262631Y-81446687D01*
X142247859Y-81377245D01*
X142272975Y-81310839D01*
X142300327Y-81284232D01*
X142323797Y-81267491D01*
X142479860Y-81156173D01*
X142577060Y-81059312D01*
X142639432Y-81025396D01*
X142710239Y-81030584D01*
G37*
G04 #@! TD.AperFunction*
G04 #@! TA.AperFunction,NonConductor*
G36*
X140412026Y-80790144D02*
G01*
X140439875Y-80821994D01*
X140450997Y-80840144D01*
X140499987Y-80920088D01*
X140646250Y-81088938D01*
X140818126Y-81231632D01*
X140891955Y-81274774D01*
X140940679Y-81326412D01*
X140953750Y-81396195D01*
X140927019Y-81461967D01*
X140886562Y-81495327D01*
X140878457Y-81499546D01*
X140869738Y-81505036D01*
X140699433Y-81632905D01*
X140691726Y-81639748D01*
X140544590Y-81793717D01*
X140538109Y-81801722D01*
X140433498Y-81955074D01*
X140378587Y-82000076D01*
X140308062Y-82008247D01*
X140244315Y-81976993D01*
X140223618Y-81952509D01*
X140142822Y-81827617D01*
X140142820Y-81827614D01*
X140140014Y-81823277D01*
X139989670Y-81658051D01*
X139985619Y-81654852D01*
X139985615Y-81654848D01*
X139818414Y-81522800D01*
X139818410Y-81522798D01*
X139814359Y-81519598D01*
X139773053Y-81496796D01*
X139723084Y-81446364D01*
X139708312Y-81376921D01*
X139733428Y-81310516D01*
X139760780Y-81283909D01*
X139804603Y-81252650D01*
X139939860Y-81156173D01*
X139956297Y-81139794D01*
X140094435Y-81002137D01*
X140098096Y-80998489D01*
X140228453Y-80817077D01*
X140229776Y-80818028D01*
X140276645Y-80774857D01*
X140346580Y-80762625D01*
X140412026Y-80790144D01*
G37*
G04 #@! TD.AperFunction*
G04 #@! TA.AperFunction,NonConductor*
G36*
X120377026Y-80840144D02*
G01*
X120404875Y-80871994D01*
X120464987Y-80970088D01*
X120611250Y-81138938D01*
X120783126Y-81281632D01*
X120790423Y-81285896D01*
X120856955Y-81324774D01*
X120905679Y-81376412D01*
X120918750Y-81446195D01*
X120892019Y-81511967D01*
X120851562Y-81545327D01*
X120843457Y-81549546D01*
X120834738Y-81555036D01*
X120664433Y-81682905D01*
X120656726Y-81689748D01*
X120509590Y-81843717D01*
X120503109Y-81851722D01*
X120398498Y-82005074D01*
X120343587Y-82050076D01*
X120273062Y-82058247D01*
X120209315Y-82026993D01*
X120188618Y-82002509D01*
X120107822Y-81877617D01*
X120107820Y-81877614D01*
X120105014Y-81873277D01*
X119954670Y-81708051D01*
X119950619Y-81704852D01*
X119950615Y-81704848D01*
X119783414Y-81572800D01*
X119783410Y-81572798D01*
X119779359Y-81569598D01*
X119738053Y-81546796D01*
X119688084Y-81496364D01*
X119673312Y-81426921D01*
X119698428Y-81360516D01*
X119725780Y-81333909D01*
X119793092Y-81285896D01*
X119904860Y-81206173D01*
X120063096Y-81048489D01*
X120099025Y-80998489D01*
X120193453Y-80867077D01*
X120194776Y-80868028D01*
X120241645Y-80824857D01*
X120311580Y-80812625D01*
X120377026Y-80840144D01*
G37*
G04 #@! TD.AperFunction*
G04 #@! TA.AperFunction,NonConductor*
G36*
X109602026Y-80915144D02*
G01*
X109629875Y-80946994D01*
X109689987Y-81045088D01*
X109836250Y-81213938D01*
X110008126Y-81356632D01*
X110072652Y-81394338D01*
X110081955Y-81399774D01*
X110130679Y-81451412D01*
X110143750Y-81521195D01*
X110117019Y-81586967D01*
X110076562Y-81620327D01*
X110068457Y-81624546D01*
X110059738Y-81630036D01*
X109889433Y-81757905D01*
X109881726Y-81764748D01*
X109734590Y-81918717D01*
X109728109Y-81926722D01*
X109623498Y-82080074D01*
X109568587Y-82125076D01*
X109498062Y-82133247D01*
X109434315Y-82101993D01*
X109413618Y-82077509D01*
X109332822Y-81952617D01*
X109332820Y-81952614D01*
X109330014Y-81948277D01*
X109179670Y-81783051D01*
X109175619Y-81779852D01*
X109175615Y-81779848D01*
X109008414Y-81647800D01*
X109008410Y-81647798D01*
X109004359Y-81644598D01*
X108963053Y-81621796D01*
X108913084Y-81571364D01*
X108898312Y-81501921D01*
X108923428Y-81435516D01*
X108950780Y-81408909D01*
X109003610Y-81371226D01*
X109129860Y-81281173D01*
X109136282Y-81274774D01*
X109252289Y-81159171D01*
X109288096Y-81123489D01*
X109345005Y-81044292D01*
X109418453Y-80942077D01*
X109419776Y-80943028D01*
X109466645Y-80899857D01*
X109536580Y-80887625D01*
X109602026Y-80915144D01*
G37*
G04 #@! TD.AperFunction*
G04 #@! TA.AperFunction,NonConductor*
G36*
X107503069Y-83917051D02*
G01*
X107541445Y-83939476D01*
X107590168Y-83991113D01*
X107603240Y-84060896D01*
X107576509Y-84126669D01*
X107536055Y-84160027D01*
X107523607Y-84166507D01*
X107515150Y-84172857D01*
X107448664Y-84197760D01*
X107379269Y-84182766D01*
X107328997Y-84132634D01*
X107313500Y-84072094D01*
X107313500Y-84025840D01*
X107333502Y-83957719D01*
X107387158Y-83911226D01*
X107457432Y-83901122D01*
X107503069Y-83917051D01*
G37*
G04 #@! TD.AperFunction*
G04 #@! TA.AperFunction,NonConductor*
G36*
X140412338Y-83329678D02*
G01*
X140440166Y-83361511D01*
X140497694Y-83455388D01*
X140503777Y-83463699D01*
X140643213Y-83624667D01*
X140650580Y-83631883D01*
X140814434Y-83767916D01*
X140822881Y-83773831D01*
X140891969Y-83814203D01*
X140940693Y-83865842D01*
X140953764Y-83935625D01*
X140927033Y-84001396D01*
X140886584Y-84034752D01*
X140873607Y-84041507D01*
X140869474Y-84044610D01*
X140869471Y-84044612D01*
X140699100Y-84172530D01*
X140694965Y-84175635D01*
X140650151Y-84222530D01*
X140599751Y-84275271D01*
X140540629Y-84337138D01*
X140433201Y-84494621D01*
X140378293Y-84539621D01*
X140307768Y-84547792D01*
X140244021Y-84516538D01*
X140223324Y-84492054D01*
X140142822Y-84367617D01*
X140142820Y-84367614D01*
X140140014Y-84363277D01*
X139989670Y-84198051D01*
X139985619Y-84194852D01*
X139985615Y-84194848D01*
X139818414Y-84062800D01*
X139818410Y-84062798D01*
X139814359Y-84059598D01*
X139773053Y-84036796D01*
X139723084Y-83986364D01*
X139708312Y-83916921D01*
X139733428Y-83850516D01*
X139760780Y-83823909D01*
X139830987Y-83773831D01*
X139939860Y-83696173D01*
X139950266Y-83685804D01*
X140094435Y-83542137D01*
X140098096Y-83538489D01*
X140228453Y-83357077D01*
X140229640Y-83357930D01*
X140276960Y-83314362D01*
X140346897Y-83302145D01*
X140412338Y-83329678D01*
G37*
G04 #@! TD.AperFunction*
G04 #@! TA.AperFunction,NonConductor*
G36*
X120377338Y-83379678D02*
G01*
X120405166Y-83411511D01*
X120462694Y-83505388D01*
X120468777Y-83513699D01*
X120608213Y-83674667D01*
X120615580Y-83681883D01*
X120779434Y-83817916D01*
X120787881Y-83823831D01*
X120856969Y-83864203D01*
X120905693Y-83915842D01*
X120918764Y-83985625D01*
X120892033Y-84051396D01*
X120851584Y-84084752D01*
X120838607Y-84091507D01*
X120834474Y-84094610D01*
X120834471Y-84094612D01*
X120700969Y-84194848D01*
X120659965Y-84225635D01*
X120656393Y-84229373D01*
X120532082Y-84359457D01*
X120505629Y-84387138D01*
X120398201Y-84544621D01*
X120343293Y-84589621D01*
X120272768Y-84597792D01*
X120209021Y-84566538D01*
X120188324Y-84542054D01*
X120107822Y-84417617D01*
X120107820Y-84417614D01*
X120105014Y-84413277D01*
X119954670Y-84248051D01*
X119950619Y-84244852D01*
X119950615Y-84244848D01*
X119783414Y-84112800D01*
X119783410Y-84112798D01*
X119779359Y-84109598D01*
X119738053Y-84086796D01*
X119688084Y-84036364D01*
X119673312Y-83966921D01*
X119698428Y-83900516D01*
X119725780Y-83873909D01*
X119793092Y-83825896D01*
X119904860Y-83746173D01*
X119953154Y-83698048D01*
X120038979Y-83612522D01*
X120063096Y-83588489D01*
X120066604Y-83583608D01*
X120193453Y-83407077D01*
X120194640Y-83407930D01*
X120241960Y-83364362D01*
X120311897Y-83352145D01*
X120377338Y-83379678D01*
G37*
G04 #@! TD.AperFunction*
G04 #@! TA.AperFunction,NonConductor*
G36*
X107503069Y-86457051D02*
G01*
X107541955Y-86479774D01*
X107590678Y-86531411D01*
X107603750Y-86601194D01*
X107577019Y-86666966D01*
X107536562Y-86700327D01*
X107528457Y-86704546D01*
X107519745Y-86710032D01*
X107515154Y-86713479D01*
X107448669Y-86738385D01*
X107379273Y-86723393D01*
X107328999Y-86673263D01*
X107313500Y-86612719D01*
X107313500Y-86565840D01*
X107333502Y-86497719D01*
X107387158Y-86451226D01*
X107457432Y-86441122D01*
X107503069Y-86457051D01*
G37*
G04 #@! TD.AperFunction*
G04 #@! TA.AperFunction,NonConductor*
G36*
X142710239Y-86110584D02*
G01*
X142767000Y-86153230D01*
X142791694Y-86219794D01*
X142792000Y-86228563D01*
X142792000Y-86700657D01*
X142771998Y-86768778D01*
X142718342Y-86815271D01*
X142648068Y-86825375D01*
X142583488Y-86795881D01*
X142572806Y-86785456D01*
X142533151Y-86741876D01*
X142533148Y-86741873D01*
X142529670Y-86738051D01*
X142525619Y-86734852D01*
X142525615Y-86734848D01*
X142358414Y-86602800D01*
X142358410Y-86602798D01*
X142354359Y-86599598D01*
X142313053Y-86576796D01*
X142263084Y-86526364D01*
X142248312Y-86456921D01*
X142273428Y-86390516D01*
X142300780Y-86363909D01*
X142344603Y-86332650D01*
X142479860Y-86236173D01*
X142577060Y-86139312D01*
X142639432Y-86105396D01*
X142710239Y-86110584D01*
G37*
G04 #@! TD.AperFunction*
G04 #@! TA.AperFunction,NonConductor*
G36*
X140412026Y-85870144D02*
G01*
X140439875Y-85901994D01*
X140499987Y-86000088D01*
X140646250Y-86168938D01*
X140818126Y-86311632D01*
X140888595Y-86352811D01*
X140891445Y-86354476D01*
X140940169Y-86406114D01*
X140953240Y-86475897D01*
X140926509Y-86541669D01*
X140886055Y-86575027D01*
X140873607Y-86581507D01*
X140869474Y-86584610D01*
X140869471Y-86584612D01*
X140699100Y-86712530D01*
X140694965Y-86715635D01*
X140669541Y-86742240D01*
X140599751Y-86815271D01*
X140540629Y-86877138D01*
X140537715Y-86881410D01*
X140537714Y-86881411D01*
X140486297Y-86956786D01*
X140434569Y-87032617D01*
X140432898Y-87035066D01*
X140377987Y-87080069D01*
X140307462Y-87088240D01*
X140243715Y-87056986D01*
X140223018Y-87032502D01*
X140142426Y-86907926D01*
X140136136Y-86899757D01*
X139992806Y-86742240D01*
X139985273Y-86735215D01*
X139818139Y-86603222D01*
X139809556Y-86597520D01*
X139772602Y-86577120D01*
X139722631Y-86526687D01*
X139707859Y-86457245D01*
X139732975Y-86390839D01*
X139760327Y-86364232D01*
X139783797Y-86347491D01*
X139939860Y-86236173D01*
X139956297Y-86219794D01*
X140094435Y-86082137D01*
X140098096Y-86078489D01*
X140228453Y-85897077D01*
X140229776Y-85898028D01*
X140276645Y-85854857D01*
X140346580Y-85842625D01*
X140412026Y-85870144D01*
G37*
G04 #@! TD.AperFunction*
G04 #@! TA.AperFunction,NonConductor*
G36*
X107503071Y-88996472D02*
G01*
X107541970Y-89019203D01*
X107590693Y-89070842D01*
X107603764Y-89140625D01*
X107577032Y-89206397D01*
X107536584Y-89239752D01*
X107523607Y-89246507D01*
X107515150Y-89252857D01*
X107448664Y-89277760D01*
X107379269Y-89262766D01*
X107328997Y-89212634D01*
X107313500Y-89152094D01*
X107313500Y-89105260D01*
X107333502Y-89037139D01*
X107387158Y-88990646D01*
X107457432Y-88980542D01*
X107503071Y-88996472D01*
G37*
G04 #@! TD.AperFunction*
G04 #@! TA.AperFunction,NonConductor*
G36*
X120376751Y-88459678D02*
G01*
X120404579Y-88491511D01*
X120464987Y-88590088D01*
X120611250Y-88758938D01*
X120758610Y-88881279D01*
X120774507Y-88894476D01*
X120783126Y-88901632D01*
X120832097Y-88930248D01*
X120856445Y-88944476D01*
X120905169Y-88996114D01*
X120918240Y-89065897D01*
X120891509Y-89131669D01*
X120851055Y-89165027D01*
X120838607Y-89171507D01*
X120834474Y-89174610D01*
X120834471Y-89174612D01*
X120700969Y-89274848D01*
X120659965Y-89305635D01*
X120656393Y-89309373D01*
X120532082Y-89439457D01*
X120505629Y-89467138D01*
X120398201Y-89624621D01*
X120343293Y-89669621D01*
X120272768Y-89677792D01*
X120209021Y-89646538D01*
X120188324Y-89622054D01*
X120107822Y-89497617D01*
X120107820Y-89497614D01*
X120105014Y-89493277D01*
X119954670Y-89328051D01*
X119950619Y-89324852D01*
X119950615Y-89324848D01*
X119783414Y-89192800D01*
X119783410Y-89192798D01*
X119779359Y-89189598D01*
X119737569Y-89166529D01*
X119687598Y-89116097D01*
X119672826Y-89046654D01*
X119697942Y-88980248D01*
X119725294Y-88953641D01*
X119900328Y-88828792D01*
X119908200Y-88822139D01*
X120059052Y-88671812D01*
X120065730Y-88663965D01*
X120193022Y-88486819D01*
X120194279Y-88487722D01*
X120241373Y-88444362D01*
X120311311Y-88432145D01*
X120376751Y-88459678D01*
G37*
G04 #@! TD.AperFunction*
G04 #@! TA.AperFunction,NonConductor*
G36*
X107503069Y-91537051D02*
G01*
X107541445Y-91559476D01*
X107590168Y-91611113D01*
X107603240Y-91680896D01*
X107576509Y-91746669D01*
X107536055Y-91780027D01*
X107533416Y-91781401D01*
X107523607Y-91786507D01*
X107519476Y-91789609D01*
X107515150Y-91792857D01*
X107448664Y-91817760D01*
X107379269Y-91802766D01*
X107328997Y-91752634D01*
X107313500Y-91692094D01*
X107313500Y-91645840D01*
X107333502Y-91577719D01*
X107387158Y-91531226D01*
X107457432Y-91521122D01*
X107503069Y-91537051D01*
G37*
G04 #@! TD.AperFunction*
G04 #@! TA.AperFunction,NonConductor*
G36*
X140412026Y-90950144D02*
G01*
X140439875Y-90981994D01*
X140499987Y-91080088D01*
X140646250Y-91248938D01*
X140818126Y-91391632D01*
X140891955Y-91434774D01*
X140940679Y-91486412D01*
X140953750Y-91556195D01*
X140927019Y-91621967D01*
X140886562Y-91655327D01*
X140878457Y-91659546D01*
X140869738Y-91665036D01*
X140699433Y-91792905D01*
X140691726Y-91799748D01*
X140544590Y-91953717D01*
X140538109Y-91961722D01*
X140433498Y-92115074D01*
X140378587Y-92160076D01*
X140308062Y-92168247D01*
X140244315Y-92136993D01*
X140223618Y-92112509D01*
X140142822Y-91987617D01*
X140142820Y-91987614D01*
X140140014Y-91983277D01*
X139989670Y-91818051D01*
X139985619Y-91814852D01*
X139985615Y-91814848D01*
X139818414Y-91682800D01*
X139818410Y-91682798D01*
X139814359Y-91679598D01*
X139773053Y-91656796D01*
X139723084Y-91606364D01*
X139708312Y-91536921D01*
X139733428Y-91470516D01*
X139760780Y-91443909D01*
X139804603Y-91412650D01*
X139939860Y-91316173D01*
X139956297Y-91299794D01*
X140094435Y-91162137D01*
X140098096Y-91158489D01*
X140228453Y-90977077D01*
X140229776Y-90978028D01*
X140276645Y-90934857D01*
X140346580Y-90922625D01*
X140412026Y-90950144D01*
G37*
G04 #@! TD.AperFunction*
G04 #@! TA.AperFunction,NonConductor*
G36*
X107503069Y-94077051D02*
G01*
X107541445Y-94099476D01*
X107590168Y-94151113D01*
X107603240Y-94220896D01*
X107576509Y-94286669D01*
X107536055Y-94320027D01*
X107523607Y-94326507D01*
X107515150Y-94332857D01*
X107448664Y-94357760D01*
X107379269Y-94342766D01*
X107328997Y-94292634D01*
X107313500Y-94232094D01*
X107313500Y-94185840D01*
X107333502Y-94117719D01*
X107387158Y-94071226D01*
X107457432Y-94061122D01*
X107503069Y-94077051D01*
G37*
G04 #@! TD.AperFunction*
G04 #@! TA.AperFunction,NonConductor*
G36*
X140412338Y-93489678D02*
G01*
X140440166Y-93521511D01*
X140497694Y-93615388D01*
X140503777Y-93623699D01*
X140643213Y-93784667D01*
X140650580Y-93791883D01*
X140814434Y-93927916D01*
X140822881Y-93933831D01*
X140891969Y-93974203D01*
X140940693Y-94025842D01*
X140953764Y-94095625D01*
X140927033Y-94161396D01*
X140886584Y-94194752D01*
X140873607Y-94201507D01*
X140869474Y-94204610D01*
X140869471Y-94204612D01*
X140699100Y-94332530D01*
X140694965Y-94335635D01*
X140650151Y-94382530D01*
X140599751Y-94435271D01*
X140540629Y-94497138D01*
X140433201Y-94654621D01*
X140378293Y-94699621D01*
X140307768Y-94707792D01*
X140244021Y-94676538D01*
X140223324Y-94652054D01*
X140142822Y-94527617D01*
X140142820Y-94527614D01*
X140140014Y-94523277D01*
X139989670Y-94358051D01*
X139985619Y-94354852D01*
X139985615Y-94354848D01*
X139818414Y-94222800D01*
X139818410Y-94222798D01*
X139814359Y-94219598D01*
X139773053Y-94196796D01*
X139723084Y-94146364D01*
X139708312Y-94076921D01*
X139733428Y-94010516D01*
X139760780Y-93983909D01*
X139830987Y-93933831D01*
X139939860Y-93856173D01*
X139957156Y-93838938D01*
X140094435Y-93702137D01*
X140098096Y-93698489D01*
X140228453Y-93517077D01*
X140229640Y-93517930D01*
X140276960Y-93474362D01*
X140346897Y-93462145D01*
X140412338Y-93489678D01*
G37*
G04 #@! TD.AperFunction*
G04 #@! TA.AperFunction,NonConductor*
G36*
X120377338Y-93539678D02*
G01*
X120405166Y-93571511D01*
X120462694Y-93665388D01*
X120468777Y-93673699D01*
X120608213Y-93834667D01*
X120615580Y-93841883D01*
X120779434Y-93977916D01*
X120787881Y-93983831D01*
X120856969Y-94024203D01*
X120905693Y-94075842D01*
X120918764Y-94145625D01*
X120892033Y-94211396D01*
X120851584Y-94244752D01*
X120838607Y-94251507D01*
X120834474Y-94254610D01*
X120834471Y-94254612D01*
X120700969Y-94354848D01*
X120659965Y-94385635D01*
X120656393Y-94389373D01*
X120532082Y-94519457D01*
X120505629Y-94547138D01*
X120398201Y-94704621D01*
X120343293Y-94749621D01*
X120272768Y-94757792D01*
X120209021Y-94726538D01*
X120188324Y-94702054D01*
X120107822Y-94577617D01*
X120107820Y-94577614D01*
X120105014Y-94573277D01*
X119954670Y-94408051D01*
X119950619Y-94404852D01*
X119950615Y-94404848D01*
X119783414Y-94272800D01*
X119783410Y-94272798D01*
X119779359Y-94269598D01*
X119738053Y-94246796D01*
X119688084Y-94196364D01*
X119673312Y-94126921D01*
X119698428Y-94060516D01*
X119725780Y-94033909D01*
X119793092Y-93985896D01*
X119904860Y-93906173D01*
X120063096Y-93748489D01*
X120099025Y-93698489D01*
X120193453Y-93567077D01*
X120194640Y-93567930D01*
X120241960Y-93524362D01*
X120311897Y-93512145D01*
X120377338Y-93539678D01*
G37*
G04 #@! TD.AperFunction*
G04 #@! TA.AperFunction,NonConductor*
G36*
X109602338Y-93614678D02*
G01*
X109630166Y-93646511D01*
X109687694Y-93740388D01*
X109693777Y-93748699D01*
X109833213Y-93909667D01*
X109840580Y-93916883D01*
X110004434Y-94052916D01*
X110012881Y-94058831D01*
X110081969Y-94099203D01*
X110130693Y-94150842D01*
X110143764Y-94220625D01*
X110117033Y-94286396D01*
X110076584Y-94319752D01*
X110063607Y-94326507D01*
X110059476Y-94329609D01*
X110059471Y-94329612D01*
X109905289Y-94445375D01*
X109884965Y-94460635D01*
X109730629Y-94622138D01*
X109623201Y-94779621D01*
X109568293Y-94824621D01*
X109497768Y-94832792D01*
X109434021Y-94801538D01*
X109413324Y-94777054D01*
X109332822Y-94652617D01*
X109332820Y-94652614D01*
X109330014Y-94648277D01*
X109179670Y-94483051D01*
X109175619Y-94479852D01*
X109175615Y-94479848D01*
X109008414Y-94347800D01*
X109008410Y-94347798D01*
X109004359Y-94344598D01*
X108963053Y-94321796D01*
X108913084Y-94271364D01*
X108898312Y-94201921D01*
X108923428Y-94135516D01*
X108950780Y-94108909D01*
X109003610Y-94071226D01*
X109129860Y-93981173D01*
X109136855Y-93974203D01*
X109252669Y-93858792D01*
X109288096Y-93823489D01*
X109345005Y-93744292D01*
X109418453Y-93642077D01*
X109419640Y-93642930D01*
X109466960Y-93599362D01*
X109536897Y-93587145D01*
X109602338Y-93614678D01*
G37*
G04 #@! TD.AperFunction*
G04 #@! TA.AperFunction,NonConductor*
G36*
X142710239Y-96270584D02*
G01*
X142767000Y-96313230D01*
X142791694Y-96379794D01*
X142792000Y-96388563D01*
X142792000Y-96860657D01*
X142771998Y-96928778D01*
X142718342Y-96975271D01*
X142648068Y-96985375D01*
X142583488Y-96955881D01*
X142572806Y-96945456D01*
X142533151Y-96901876D01*
X142533145Y-96901870D01*
X142529670Y-96898051D01*
X142525619Y-96894852D01*
X142525615Y-96894848D01*
X142358414Y-96762800D01*
X142358410Y-96762798D01*
X142354359Y-96759598D01*
X142313053Y-96736796D01*
X142263084Y-96686364D01*
X142248312Y-96616921D01*
X142273428Y-96550516D01*
X142300780Y-96523909D01*
X142358043Y-96483064D01*
X142479860Y-96396173D01*
X142577060Y-96299312D01*
X142639432Y-96265396D01*
X142710239Y-96270584D01*
G37*
G04 #@! TD.AperFunction*
G04 #@! TA.AperFunction,NonConductor*
G36*
X140412026Y-96030144D02*
G01*
X140439875Y-96061994D01*
X140499987Y-96160088D01*
X140646250Y-96328938D01*
X140818126Y-96471632D01*
X140837690Y-96483064D01*
X140891445Y-96514476D01*
X140940169Y-96566114D01*
X140953240Y-96635897D01*
X140926509Y-96701669D01*
X140886055Y-96735027D01*
X140873607Y-96741507D01*
X140869474Y-96744610D01*
X140869471Y-96744612D01*
X140701631Y-96870630D01*
X140694965Y-96875635D01*
X140647184Y-96925635D01*
X140545956Y-97031564D01*
X140540629Y-97037138D01*
X140433201Y-97194621D01*
X140378293Y-97239621D01*
X140307768Y-97247792D01*
X140244021Y-97216538D01*
X140223324Y-97192054D01*
X140142822Y-97067617D01*
X140142820Y-97067614D01*
X140140014Y-97063277D01*
X139989670Y-96898051D01*
X139985619Y-96894852D01*
X139985615Y-96894848D01*
X139818414Y-96762800D01*
X139818410Y-96762798D01*
X139814359Y-96759598D01*
X139773053Y-96736796D01*
X139723084Y-96686364D01*
X139708312Y-96616921D01*
X139733428Y-96550516D01*
X139760780Y-96523909D01*
X139818043Y-96483064D01*
X139939860Y-96396173D01*
X139956297Y-96379794D01*
X140094435Y-96242137D01*
X140098096Y-96238489D01*
X140228453Y-96057077D01*
X140229776Y-96058028D01*
X140276645Y-96014857D01*
X140346580Y-96002625D01*
X140412026Y-96030144D01*
G37*
G04 #@! TD.AperFunction*
G04 #@! TA.AperFunction,NonConductor*
G36*
X120700218Y-96461952D02*
G01*
X120736671Y-96483064D01*
X120783126Y-96521632D01*
X120790423Y-96525896D01*
X120856445Y-96564476D01*
X120905169Y-96616114D01*
X120918240Y-96685897D01*
X120891509Y-96751669D01*
X120851055Y-96785027D01*
X120838607Y-96791507D01*
X120834474Y-96794610D01*
X120834471Y-96794612D01*
X120664100Y-96922530D01*
X120659965Y-96925635D01*
X120641605Y-96944848D01*
X120530102Y-97061529D01*
X120505629Y-97087138D01*
X120398201Y-97244621D01*
X120343293Y-97289621D01*
X120272768Y-97297792D01*
X120209021Y-97266538D01*
X120188324Y-97242054D01*
X120139388Y-97166411D01*
X120105014Y-97113277D01*
X120102382Y-97110384D01*
X120076800Y-97044545D01*
X120090947Y-96974972D01*
X120113250Y-96944754D01*
X120567091Y-96490913D01*
X120629403Y-96456887D01*
X120700218Y-96461952D01*
G37*
G04 #@! TD.AperFunction*
G04 #@! TA.AperFunction,NonConductor*
G36*
X140412026Y-98570144D02*
G01*
X140439875Y-98601994D01*
X140450997Y-98620144D01*
X140499987Y-98700088D01*
X140646250Y-98868938D01*
X140818126Y-99011632D01*
X140891445Y-99054476D01*
X140891955Y-99054774D01*
X140940679Y-99106412D01*
X140953750Y-99176195D01*
X140927019Y-99241967D01*
X140886562Y-99275327D01*
X140878457Y-99279546D01*
X140869738Y-99285036D01*
X140699433Y-99412905D01*
X140691726Y-99419748D01*
X140544590Y-99573717D01*
X140538109Y-99581722D01*
X140433498Y-99735074D01*
X140378587Y-99780076D01*
X140308062Y-99788247D01*
X140244315Y-99756993D01*
X140223618Y-99732509D01*
X140142822Y-99607617D01*
X140142820Y-99607614D01*
X140140014Y-99603277D01*
X139989670Y-99438051D01*
X139985619Y-99434852D01*
X139985615Y-99434848D01*
X139818414Y-99302800D01*
X139818410Y-99302798D01*
X139814359Y-99299598D01*
X139773053Y-99276796D01*
X139723084Y-99226364D01*
X139708312Y-99156921D01*
X139733428Y-99090516D01*
X139760780Y-99063909D01*
X139804603Y-99032650D01*
X139939860Y-98936173D01*
X139956297Y-98919794D01*
X140094435Y-98782137D01*
X140098096Y-98778489D01*
X140157594Y-98695689D01*
X140228453Y-98597077D01*
X140229776Y-98598028D01*
X140276645Y-98554857D01*
X140346580Y-98542625D01*
X140412026Y-98570144D01*
G37*
G04 #@! TD.AperFunction*
G04 #@! TA.AperFunction,NonConductor*
G36*
X120377026Y-98620144D02*
G01*
X120404875Y-98651994D01*
X120464987Y-98750088D01*
X120611250Y-98918938D01*
X120758610Y-99041279D01*
X120774507Y-99054476D01*
X120783126Y-99061632D01*
X120790423Y-99065896D01*
X120856955Y-99104774D01*
X120905679Y-99156412D01*
X120918750Y-99226195D01*
X120892019Y-99291967D01*
X120851562Y-99325327D01*
X120843457Y-99329546D01*
X120834738Y-99335036D01*
X120664433Y-99462905D01*
X120656726Y-99469748D01*
X120509590Y-99623717D01*
X120503109Y-99631722D01*
X120398498Y-99785074D01*
X120343587Y-99830076D01*
X120273062Y-99838247D01*
X120209315Y-99806993D01*
X120188618Y-99782509D01*
X120107822Y-99657617D01*
X120107820Y-99657614D01*
X120105014Y-99653277D01*
X119954670Y-99488051D01*
X119950619Y-99484852D01*
X119950615Y-99484848D01*
X119783414Y-99352800D01*
X119783410Y-99352798D01*
X119779359Y-99349598D01*
X119738053Y-99326796D01*
X119688084Y-99276364D01*
X119673312Y-99206921D01*
X119698428Y-99140516D01*
X119725780Y-99113909D01*
X119793092Y-99065896D01*
X119904860Y-98986173D01*
X120063096Y-98828489D01*
X120099025Y-98778489D01*
X120193453Y-98647077D01*
X120194776Y-98648028D01*
X120241645Y-98604857D01*
X120311580Y-98592625D01*
X120377026Y-98620144D01*
G37*
G04 #@! TD.AperFunction*
G04 #@! TA.AperFunction,NonConductor*
G36*
X109602026Y-98695144D02*
G01*
X109629875Y-98726994D01*
X109689987Y-98825088D01*
X109836250Y-98993938D01*
X110008126Y-99136632D01*
X110072652Y-99174338D01*
X110081955Y-99179774D01*
X110130679Y-99231412D01*
X110143750Y-99301195D01*
X110117019Y-99366967D01*
X110076562Y-99400327D01*
X110068457Y-99404546D01*
X110059738Y-99410036D01*
X109889433Y-99537905D01*
X109881726Y-99544748D01*
X109734590Y-99698717D01*
X109728109Y-99706722D01*
X109623498Y-99860074D01*
X109568587Y-99905076D01*
X109498062Y-99913247D01*
X109434315Y-99881993D01*
X109413618Y-99857509D01*
X109332822Y-99732617D01*
X109332820Y-99732614D01*
X109330014Y-99728277D01*
X109179670Y-99563051D01*
X109175619Y-99559852D01*
X109175615Y-99559848D01*
X109008414Y-99427800D01*
X109008410Y-99427798D01*
X109004359Y-99424598D01*
X108963053Y-99401796D01*
X108913084Y-99351364D01*
X108898312Y-99281921D01*
X108923428Y-99215516D01*
X108950780Y-99188909D01*
X109018172Y-99140839D01*
X109129860Y-99061173D01*
X109136282Y-99054774D01*
X109252289Y-98939171D01*
X109288096Y-98903489D01*
X109345005Y-98824292D01*
X109418453Y-98722077D01*
X109419776Y-98723028D01*
X109466645Y-98679857D01*
X109536580Y-98667625D01*
X109602026Y-98695144D01*
G37*
G04 #@! TD.AperFunction*
G04 #@! TA.AperFunction,NonConductor*
G36*
X142710238Y-101349876D02*
G01*
X142767000Y-101392522D01*
X142791694Y-101459085D01*
X142792000Y-101467855D01*
X142792000Y-101940657D01*
X142771998Y-102008778D01*
X142718342Y-102055271D01*
X142648068Y-102065375D01*
X142583488Y-102035881D01*
X142572806Y-102025456D01*
X142533151Y-101981876D01*
X142533145Y-101981870D01*
X142529670Y-101978051D01*
X142525619Y-101974852D01*
X142525615Y-101974848D01*
X142358414Y-101842800D01*
X142358410Y-101842798D01*
X142354359Y-101839598D01*
X142340228Y-101831797D01*
X142317259Y-101819118D01*
X142312569Y-101816529D01*
X142262598Y-101766097D01*
X142247826Y-101696654D01*
X142272942Y-101630248D01*
X142300294Y-101603641D01*
X142475328Y-101478792D01*
X142483200Y-101472139D01*
X142577060Y-101378605D01*
X142639431Y-101344688D01*
X142710238Y-101349876D01*
G37*
G04 #@! TD.AperFunction*
G04 #@! TA.AperFunction,NonConductor*
G36*
X109602338Y-101234678D02*
G01*
X109630166Y-101266511D01*
X109687694Y-101360388D01*
X109693777Y-101368699D01*
X109833213Y-101529667D01*
X109840580Y-101536883D01*
X110004434Y-101672916D01*
X110012881Y-101678831D01*
X110081969Y-101719203D01*
X110130693Y-101770842D01*
X110143764Y-101840625D01*
X110117033Y-101906396D01*
X110076584Y-101939752D01*
X110063607Y-101946507D01*
X110059474Y-101949610D01*
X110059471Y-101949612D01*
X109905289Y-102065375D01*
X109884965Y-102080635D01*
X109730629Y-102242138D01*
X109623201Y-102399621D01*
X109568293Y-102444621D01*
X109497768Y-102452792D01*
X109434021Y-102421538D01*
X109413324Y-102397054D01*
X109332822Y-102272617D01*
X109332820Y-102272614D01*
X109330014Y-102268277D01*
X109179670Y-102103051D01*
X109175619Y-102099852D01*
X109175615Y-102099848D01*
X109008414Y-101967800D01*
X109008410Y-101967798D01*
X109004359Y-101964598D01*
X108963053Y-101941796D01*
X108913084Y-101891364D01*
X108898312Y-101821921D01*
X108923428Y-101755516D01*
X108950780Y-101728909D01*
X108997138Y-101695842D01*
X109129860Y-101601173D01*
X109136581Y-101594476D01*
X109252669Y-101478792D01*
X109288096Y-101443489D01*
X109345005Y-101364292D01*
X109418453Y-101262077D01*
X109419640Y-101262930D01*
X109466960Y-101219362D01*
X109536897Y-101207145D01*
X109602338Y-101234678D01*
G37*
G04 #@! TD.AperFunction*
G04 #@! TA.AperFunction,NonConductor*
G36*
X142710239Y-103890584D02*
G01*
X142767000Y-103933230D01*
X142791694Y-103999794D01*
X142792000Y-104008563D01*
X142792000Y-104480657D01*
X142771998Y-104548778D01*
X142718342Y-104595271D01*
X142648068Y-104605375D01*
X142583488Y-104575881D01*
X142572806Y-104565456D01*
X142533151Y-104521876D01*
X142533145Y-104521870D01*
X142529670Y-104518051D01*
X142525619Y-104514852D01*
X142525615Y-104514848D01*
X142358414Y-104382800D01*
X142358410Y-104382798D01*
X142354359Y-104379598D01*
X142313053Y-104356796D01*
X142263084Y-104306364D01*
X142248312Y-104236921D01*
X142273428Y-104170516D01*
X142300780Y-104143909D01*
X142358043Y-104103064D01*
X142479860Y-104016173D01*
X142577060Y-103919312D01*
X142639432Y-103885396D01*
X142710239Y-103890584D01*
G37*
G04 #@! TD.AperFunction*
G04 #@! TA.AperFunction,NonConductor*
G36*
X140412026Y-103650144D02*
G01*
X140439875Y-103681994D01*
X140499987Y-103780088D01*
X140646250Y-103948938D01*
X140818126Y-104091632D01*
X140837690Y-104103064D01*
X140891445Y-104134476D01*
X140940169Y-104186114D01*
X140953240Y-104255897D01*
X140926509Y-104321669D01*
X140886055Y-104355027D01*
X140873607Y-104361507D01*
X140869474Y-104364610D01*
X140869471Y-104364612D01*
X140699100Y-104492530D01*
X140694965Y-104495635D01*
X140650151Y-104542530D01*
X140545956Y-104651564D01*
X140540629Y-104657138D01*
X140433201Y-104814621D01*
X140378293Y-104859621D01*
X140307768Y-104867792D01*
X140244021Y-104836538D01*
X140223324Y-104812054D01*
X140142822Y-104687617D01*
X140142820Y-104687614D01*
X140140014Y-104683277D01*
X139989670Y-104518051D01*
X139985619Y-104514852D01*
X139985615Y-104514848D01*
X139818414Y-104382800D01*
X139818410Y-104382798D01*
X139814359Y-104379598D01*
X139773053Y-104356796D01*
X139723084Y-104306364D01*
X139708312Y-104236921D01*
X139733428Y-104170516D01*
X139760780Y-104143909D01*
X139818043Y-104103064D01*
X139939860Y-104016173D01*
X139956297Y-103999794D01*
X140094435Y-103862137D01*
X140098096Y-103858489D01*
X140157594Y-103775689D01*
X140228453Y-103677077D01*
X140229776Y-103678028D01*
X140276645Y-103634857D01*
X140346580Y-103622625D01*
X140412026Y-103650144D01*
G37*
G04 #@! TD.AperFunction*
G04 #@! TA.AperFunction,NonConductor*
G36*
X120700218Y-104081952D02*
G01*
X120736671Y-104103064D01*
X120783126Y-104141632D01*
X120790423Y-104145896D01*
X120856445Y-104184476D01*
X120905169Y-104236114D01*
X120918240Y-104305897D01*
X120891509Y-104371669D01*
X120851055Y-104405027D01*
X120838607Y-104411507D01*
X120834474Y-104414610D01*
X120834471Y-104414612D01*
X120700969Y-104514848D01*
X120659965Y-104545635D01*
X120641605Y-104564848D01*
X120532082Y-104679457D01*
X120505629Y-104707138D01*
X120398201Y-104864621D01*
X120343293Y-104909621D01*
X120272768Y-104917792D01*
X120209021Y-104886538D01*
X120188324Y-104862054D01*
X120139383Y-104786403D01*
X120105014Y-104733277D01*
X120102382Y-104730384D01*
X120076800Y-104664545D01*
X120090947Y-104594972D01*
X120113250Y-104564754D01*
X120567091Y-104110913D01*
X120629403Y-104076887D01*
X120700218Y-104081952D01*
G37*
G04 #@! TD.AperFunction*
G04 #@! TA.AperFunction,NonConductor*
G36*
X109602026Y-103775144D02*
G01*
X109629875Y-103806994D01*
X109689987Y-103905088D01*
X109836250Y-104073938D01*
X110008126Y-104216632D01*
X110072652Y-104254338D01*
X110081445Y-104259476D01*
X110130169Y-104311114D01*
X110143240Y-104380897D01*
X110116509Y-104446669D01*
X110076055Y-104480027D01*
X110063607Y-104486507D01*
X110059474Y-104489610D01*
X110059471Y-104489612D01*
X109895476Y-104612743D01*
X109884965Y-104620635D01*
X109730629Y-104782138D01*
X109623201Y-104939621D01*
X109568293Y-104984621D01*
X109497768Y-104992792D01*
X109434021Y-104961538D01*
X109413324Y-104937054D01*
X109332822Y-104812617D01*
X109332820Y-104812614D01*
X109330014Y-104808277D01*
X109179670Y-104643051D01*
X109175619Y-104639852D01*
X109175615Y-104639848D01*
X109008414Y-104507800D01*
X109008410Y-104507798D01*
X109004359Y-104504598D01*
X108963053Y-104481796D01*
X108913084Y-104431364D01*
X108898312Y-104361921D01*
X108923428Y-104295516D01*
X108950780Y-104268909D01*
X108996757Y-104236114D01*
X109129860Y-104141173D01*
X109136581Y-104134476D01*
X109252289Y-104019171D01*
X109288096Y-103983489D01*
X109345005Y-103904292D01*
X109418453Y-103802077D01*
X109419776Y-103803028D01*
X109466645Y-103759857D01*
X109536580Y-103747625D01*
X109602026Y-103775144D01*
G37*
G04 #@! TD.AperFunction*
G04 #@! TA.AperFunction,NonConductor*
G36*
X111934684Y-103981261D02*
G01*
X111979540Y-104010144D01*
X112561943Y-104592547D01*
X112569487Y-104600837D01*
X112573600Y-104607318D01*
X112579377Y-104612743D01*
X112623267Y-104653958D01*
X112626109Y-104656713D01*
X112645830Y-104676434D01*
X112649025Y-104678912D01*
X112658047Y-104686618D01*
X112690279Y-104716886D01*
X112697228Y-104720706D01*
X112708032Y-104726646D01*
X112724556Y-104737499D01*
X112740559Y-104749913D01*
X112781143Y-104767476D01*
X112791773Y-104772683D01*
X112830540Y-104793995D01*
X112838217Y-104795966D01*
X112838222Y-104795968D01*
X112850158Y-104799032D01*
X112868866Y-104805437D01*
X112887455Y-104813481D01*
X112895283Y-104814721D01*
X112895290Y-104814723D01*
X112931124Y-104820399D01*
X112942744Y-104822805D01*
X112977889Y-104831828D01*
X112985570Y-104833800D01*
X113005824Y-104833800D01*
X113025534Y-104835351D01*
X113045543Y-104838520D01*
X113053435Y-104837774D01*
X113089561Y-104834359D01*
X113101419Y-104833800D01*
X117669210Y-104833800D01*
X117737331Y-104853802D01*
X117783824Y-104907458D01*
X117793928Y-104977732D01*
X117783498Y-105012850D01*
X117777206Y-105026406D01*
X117745688Y-105094305D01*
X117685989Y-105309570D01*
X117662251Y-105531695D01*
X117662548Y-105536848D01*
X117662548Y-105536851D01*
X117668011Y-105631590D01*
X117675110Y-105754715D01*
X117676247Y-105759761D01*
X117676248Y-105759767D01*
X117719818Y-105953099D01*
X117715282Y-106023951D01*
X117673160Y-106081102D01*
X117606827Y-106106408D01*
X117596901Y-106106800D01*
X113380195Y-106106800D01*
X113312074Y-106086798D01*
X113291100Y-106069895D01*
X112468952Y-105247747D01*
X112461412Y-105239461D01*
X112457300Y-105232982D01*
X112407648Y-105186356D01*
X112404807Y-105183602D01*
X112385070Y-105163865D01*
X112381873Y-105161385D01*
X112372851Y-105153680D01*
X112340621Y-105123414D01*
X112333675Y-105119595D01*
X112333672Y-105119593D01*
X112322866Y-105113652D01*
X112306347Y-105102801D01*
X112301829Y-105099297D01*
X112290341Y-105090386D01*
X112283072Y-105087241D01*
X112283068Y-105087238D01*
X112249763Y-105072826D01*
X112239113Y-105067609D01*
X112200360Y-105046305D01*
X112180737Y-105041267D01*
X112162034Y-105034863D01*
X112150720Y-105029967D01*
X112150719Y-105029967D01*
X112143445Y-105026819D01*
X112135622Y-105025580D01*
X112135612Y-105025577D01*
X112099776Y-105019901D01*
X112088156Y-105017495D01*
X112053012Y-105008472D01*
X112053009Y-105008472D01*
X112049702Y-105007622D01*
X112045331Y-105006500D01*
X112045643Y-105005285D01*
X111987848Y-104980079D01*
X111962924Y-104951894D01*
X111872822Y-104812617D01*
X111872820Y-104812614D01*
X111870014Y-104808277D01*
X111719670Y-104643051D01*
X111715619Y-104639852D01*
X111715615Y-104639848D01*
X111548414Y-104507800D01*
X111548410Y-104507798D01*
X111544359Y-104504598D01*
X111503053Y-104481796D01*
X111453084Y-104431364D01*
X111438312Y-104361921D01*
X111463428Y-104295516D01*
X111490780Y-104268909D01*
X111536757Y-104236114D01*
X111669860Y-104141173D01*
X111673517Y-104137529D01*
X111673523Y-104137524D01*
X111801506Y-104009988D01*
X111863877Y-103976072D01*
X111934684Y-103981261D01*
G37*
G04 #@! TD.AperFunction*
G04 #@! TA.AperFunction,NonConductor*
G36*
X142710239Y-106430584D02*
G01*
X142767000Y-106473230D01*
X142791694Y-106539794D01*
X142792000Y-106548563D01*
X142792000Y-107020657D01*
X142771998Y-107088778D01*
X142718342Y-107135271D01*
X142648068Y-107145375D01*
X142583488Y-107115881D01*
X142572806Y-107105456D01*
X142533151Y-107061876D01*
X142533148Y-107061873D01*
X142529670Y-107058051D01*
X142525619Y-107054852D01*
X142525615Y-107054848D01*
X142358414Y-106922800D01*
X142358410Y-106922798D01*
X142354359Y-106919598D01*
X142313053Y-106896796D01*
X142263084Y-106846364D01*
X142248312Y-106776921D01*
X142273428Y-106710516D01*
X142300780Y-106683909D01*
X142358043Y-106643064D01*
X142479860Y-106556173D01*
X142577060Y-106459312D01*
X142639432Y-106425396D01*
X142710239Y-106430584D01*
G37*
G04 #@! TD.AperFunction*
G04 #@! TA.AperFunction,NonConductor*
G36*
X120700218Y-106621952D02*
G01*
X120736671Y-106643064D01*
X120783126Y-106681632D01*
X120790423Y-106685896D01*
X120856445Y-106724476D01*
X120905169Y-106776114D01*
X120918240Y-106845897D01*
X120891509Y-106911669D01*
X120851055Y-106945027D01*
X120838607Y-106951507D01*
X120834474Y-106954610D01*
X120834471Y-106954612D01*
X120696703Y-107058051D01*
X120659965Y-107085635D01*
X120656393Y-107089373D01*
X120555168Y-107195299D01*
X120505629Y-107247138D01*
X120502715Y-107251410D01*
X120502714Y-107251411D01*
X120490404Y-107269457D01*
X120416601Y-107377649D01*
X120397898Y-107405066D01*
X120342987Y-107450069D01*
X120272462Y-107458240D01*
X120208715Y-107426986D01*
X120188018Y-107402502D01*
X120107427Y-107277926D01*
X120102159Y-107271086D01*
X120076442Y-107204911D01*
X120090585Y-107135337D01*
X120112892Y-107105112D01*
X120567091Y-106650913D01*
X120629403Y-106616887D01*
X120700218Y-106621952D01*
G37*
G04 #@! TD.AperFunction*
G04 #@! TA.AperFunction,NonConductor*
G36*
X140411751Y-108729678D02*
G01*
X140439579Y-108761511D01*
X140499987Y-108860088D01*
X140646250Y-109028938D01*
X140818126Y-109171632D01*
X140830658Y-109178955D01*
X140879014Y-109207212D01*
X140927738Y-109258851D01*
X140940809Y-109328634D01*
X140914078Y-109394405D01*
X140856031Y-109435284D01*
X140815444Y-109442000D01*
X139847790Y-109442000D01*
X139779669Y-109421998D01*
X139733176Y-109368342D01*
X139723072Y-109298068D01*
X139752566Y-109233488D01*
X139774622Y-109213421D01*
X139935328Y-109098792D01*
X139943200Y-109092139D01*
X140094052Y-108941812D01*
X140100730Y-108933965D01*
X140228022Y-108756819D01*
X140229279Y-108757722D01*
X140276373Y-108714362D01*
X140346311Y-108702145D01*
X140411751Y-108729678D01*
G37*
G04 #@! TD.AperFunction*
G04 #@! TA.AperFunction,NonConductor*
G36*
X142710239Y-108970584D02*
G01*
X142767000Y-109013230D01*
X142791694Y-109079794D01*
X142792000Y-109088563D01*
X142792000Y-109316000D01*
X142771998Y-109384121D01*
X142718342Y-109430614D01*
X142666000Y-109442000D01*
X142388651Y-109442000D01*
X142320530Y-109421998D01*
X142274037Y-109368342D01*
X142263933Y-109298068D01*
X142293427Y-109233488D01*
X142315483Y-109213421D01*
X142363803Y-109178955D01*
X142479860Y-109096173D01*
X142577060Y-108999312D01*
X142639432Y-108965396D01*
X142710239Y-108970584D01*
G37*
G04 #@! TD.AperFunction*
G04 #@! TA.AperFunction,NonConductor*
G36*
X109601751Y-108854678D02*
G01*
X109629579Y-108886511D01*
X109689987Y-108985088D01*
X109693367Y-108988990D01*
X109709282Y-109007363D01*
X109738765Y-109071949D01*
X109728649Y-109142221D01*
X109703139Y-109178955D01*
X109247387Y-109634707D01*
X109185075Y-109668733D01*
X109114260Y-109663668D01*
X109080200Y-109644494D01*
X109008414Y-109587800D01*
X109008410Y-109587798D01*
X109004359Y-109584598D01*
X108998378Y-109581296D01*
X108962569Y-109561529D01*
X108912598Y-109511097D01*
X108897826Y-109441654D01*
X108922942Y-109375248D01*
X108950294Y-109348641D01*
X109125328Y-109223792D01*
X109133200Y-109217139D01*
X109284052Y-109066812D01*
X109290730Y-109058965D01*
X109418022Y-108881819D01*
X109419279Y-108882722D01*
X109466373Y-108839362D01*
X109536311Y-108827145D01*
X109601751Y-108854678D01*
G37*
G04 #@! TD.AperFunction*
G04 #@! TA.AperFunction,NonConductor*
G36*
X120376751Y-108779678D02*
G01*
X120404579Y-108811511D01*
X120464987Y-108910088D01*
X120611250Y-109078938D01*
X120783126Y-109221632D01*
X120846819Y-109258851D01*
X120856445Y-109264476D01*
X120905169Y-109316114D01*
X120918240Y-109385897D01*
X120891509Y-109451669D01*
X120851055Y-109485027D01*
X120838607Y-109491507D01*
X120834474Y-109494610D01*
X120834471Y-109494612D01*
X120667270Y-109620150D01*
X120659965Y-109625635D01*
X120623620Y-109663668D01*
X120586286Y-109702736D01*
X120505629Y-109787138D01*
X120398201Y-109944621D01*
X120343293Y-109989621D01*
X120272768Y-109997792D01*
X120209021Y-109966538D01*
X120188324Y-109942054D01*
X120107822Y-109817617D01*
X120107820Y-109817614D01*
X120105014Y-109813277D01*
X119954670Y-109648051D01*
X119950619Y-109644852D01*
X119950615Y-109644848D01*
X119783414Y-109512800D01*
X119783410Y-109512798D01*
X119779359Y-109509598D01*
X119737569Y-109486529D01*
X119687598Y-109436097D01*
X119672826Y-109366654D01*
X119697942Y-109300248D01*
X119725294Y-109273641D01*
X119900328Y-109148792D01*
X119908200Y-109142139D01*
X120059052Y-108991812D01*
X120065730Y-108983965D01*
X120193022Y-108806819D01*
X120194279Y-108807722D01*
X120241373Y-108764362D01*
X120311311Y-108752145D01*
X120376751Y-108779678D01*
G37*
G04 #@! TD.AperFunction*
G04 #@! TA.AperFunction,NonConductor*
G36*
X116485127Y-110180402D02*
G01*
X116506101Y-110197305D01*
X117280501Y-110971705D01*
X117314527Y-111034017D01*
X117309462Y-111104832D01*
X117266915Y-111161668D01*
X117200395Y-111186479D01*
X117191406Y-111186800D01*
X113380195Y-111186800D01*
X113312074Y-111166798D01*
X113291100Y-111149895D01*
X112516700Y-110375495D01*
X112482674Y-110313183D01*
X112487739Y-110242368D01*
X112530286Y-110185532D01*
X112596806Y-110160721D01*
X112605795Y-110160400D01*
X116417006Y-110160400D01*
X116485127Y-110180402D01*
G37*
G04 #@! TD.AperFunction*
G04 #@! TA.AperFunction,NonConductor*
G36*
X120700218Y-111701952D02*
G01*
X120736671Y-111723064D01*
X120783126Y-111761632D01*
X120856955Y-111804774D01*
X120905679Y-111856412D01*
X120918750Y-111926195D01*
X120892019Y-111991967D01*
X120851562Y-112025327D01*
X120843457Y-112029546D01*
X120834738Y-112035036D01*
X120664433Y-112162905D01*
X120656726Y-112169748D01*
X120509590Y-112323717D01*
X120503109Y-112331722D01*
X120398498Y-112485074D01*
X120343587Y-112530076D01*
X120273062Y-112538247D01*
X120209315Y-112506993D01*
X120188618Y-112482509D01*
X120170045Y-112453800D01*
X120105014Y-112353277D01*
X120102382Y-112350384D01*
X120076800Y-112284545D01*
X120090947Y-112214972D01*
X120113250Y-112184754D01*
X120567091Y-111730913D01*
X120629403Y-111696887D01*
X120700218Y-111701952D01*
G37*
G04 #@! TD.AperFunction*
G04 #@! TA.AperFunction,NonConductor*
G36*
X109602026Y-111395144D02*
G01*
X109629875Y-111426994D01*
X109689987Y-111525088D01*
X109836250Y-111693938D01*
X110008126Y-111836632D01*
X110041976Y-111856412D01*
X110081955Y-111879774D01*
X110130679Y-111931412D01*
X110143750Y-112001195D01*
X110117019Y-112066967D01*
X110076562Y-112100327D01*
X110068457Y-112104546D01*
X110059738Y-112110036D01*
X109889433Y-112237905D01*
X109881726Y-112244748D01*
X109734590Y-112398717D01*
X109728109Y-112406722D01*
X109623498Y-112560074D01*
X109568587Y-112605076D01*
X109498062Y-112613247D01*
X109434315Y-112581993D01*
X109413618Y-112557509D01*
X109332822Y-112432617D01*
X109332820Y-112432614D01*
X109330014Y-112428277D01*
X109179670Y-112263051D01*
X109175619Y-112259852D01*
X109175615Y-112259848D01*
X109008414Y-112127800D01*
X109008410Y-112127798D01*
X109004359Y-112124598D01*
X108963053Y-112101796D01*
X108913084Y-112051364D01*
X108898312Y-111981921D01*
X108923428Y-111915516D01*
X108950780Y-111888909D01*
X109018172Y-111840839D01*
X109129860Y-111761173D01*
X109168103Y-111723064D01*
X109284435Y-111607137D01*
X109288096Y-111603489D01*
X109345005Y-111524292D01*
X109418453Y-111422077D01*
X109419776Y-111423028D01*
X109466645Y-111379857D01*
X109536580Y-111367625D01*
X109602026Y-111395144D01*
G37*
G04 #@! TD.AperFunction*
G04 #@! TA.AperFunction,NonConductor*
G36*
X120377338Y-113859678D02*
G01*
X120405166Y-113891511D01*
X120462694Y-113985388D01*
X120468777Y-113993699D01*
X120608213Y-114154667D01*
X120615580Y-114161883D01*
X120779434Y-114297916D01*
X120787881Y-114303831D01*
X120856969Y-114344203D01*
X120905693Y-114395842D01*
X120918764Y-114465625D01*
X120892033Y-114531396D01*
X120851584Y-114564752D01*
X120838607Y-114571507D01*
X120834474Y-114574610D01*
X120834471Y-114574612D01*
X120664100Y-114702530D01*
X120659965Y-114705635D01*
X120505629Y-114867138D01*
X120398201Y-115024621D01*
X120343293Y-115069621D01*
X120272768Y-115077792D01*
X120209021Y-115046538D01*
X120188324Y-115022054D01*
X120107822Y-114897617D01*
X120107820Y-114897614D01*
X120105014Y-114893277D01*
X119954670Y-114728051D01*
X119950619Y-114724852D01*
X119950615Y-114724848D01*
X119783414Y-114592800D01*
X119783410Y-114592798D01*
X119779359Y-114589598D01*
X119738053Y-114566796D01*
X119688084Y-114516364D01*
X119673312Y-114446921D01*
X119698428Y-114380516D01*
X119725780Y-114353909D01*
X119769603Y-114322650D01*
X119904860Y-114226173D01*
X119916427Y-114214647D01*
X120029108Y-114102358D01*
X120063096Y-114068489D01*
X120108214Y-114005701D01*
X120193453Y-113887077D01*
X120194640Y-113887930D01*
X120241960Y-113844362D01*
X120311897Y-113832145D01*
X120377338Y-113859678D01*
G37*
G04 #@! TD.AperFunction*
G04 #@! TA.AperFunction,NonConductor*
G36*
X116485127Y-115260402D02*
G01*
X116506101Y-115277305D01*
X117280501Y-116051705D01*
X117314527Y-116114017D01*
X117309462Y-116184832D01*
X117266915Y-116241668D01*
X117200395Y-116266479D01*
X117191406Y-116266800D01*
X113380195Y-116266800D01*
X113312074Y-116246798D01*
X113291100Y-116229895D01*
X112516700Y-115455495D01*
X112482674Y-115393183D01*
X112487739Y-115322368D01*
X112530286Y-115265532D01*
X112596806Y-115240721D01*
X112605795Y-115240400D01*
X116417006Y-115240400D01*
X116485127Y-115260402D01*
G37*
G04 #@! TD.AperFunction*
G04 #@! TA.AperFunction,NonConductor*
G36*
X120700218Y-116781952D02*
G01*
X120736671Y-116803064D01*
X120783126Y-116841632D01*
X120856955Y-116884774D01*
X120905679Y-116936412D01*
X120918750Y-117006195D01*
X120892019Y-117071967D01*
X120851562Y-117105327D01*
X120843457Y-117109546D01*
X120834738Y-117115036D01*
X120664433Y-117242905D01*
X120656726Y-117249748D01*
X120509590Y-117403717D01*
X120503109Y-117411722D01*
X120398498Y-117565074D01*
X120343587Y-117610076D01*
X120273062Y-117618247D01*
X120209315Y-117586993D01*
X120188618Y-117562509D01*
X120170045Y-117533800D01*
X120105014Y-117433277D01*
X120102382Y-117430384D01*
X120076800Y-117364545D01*
X120090947Y-117294972D01*
X120113250Y-117264754D01*
X120567091Y-116810913D01*
X120629403Y-116776887D01*
X120700218Y-116781952D01*
G37*
G04 #@! TD.AperFunction*
G04 #@! TA.AperFunction,NonConductor*
G36*
X109602026Y-116475144D02*
G01*
X109629875Y-116506994D01*
X109689987Y-116605088D01*
X109836250Y-116773938D01*
X110008126Y-116916632D01*
X110041976Y-116936412D01*
X110081955Y-116959774D01*
X110130679Y-117011412D01*
X110143750Y-117081195D01*
X110117019Y-117146967D01*
X110076562Y-117180327D01*
X110068457Y-117184546D01*
X110059738Y-117190036D01*
X109889433Y-117317905D01*
X109881726Y-117324748D01*
X109734590Y-117478717D01*
X109728109Y-117486722D01*
X109623498Y-117640074D01*
X109568587Y-117685076D01*
X109498062Y-117693247D01*
X109434315Y-117661993D01*
X109413618Y-117637509D01*
X109332822Y-117512617D01*
X109332820Y-117512614D01*
X109330014Y-117508277D01*
X109179670Y-117343051D01*
X109175619Y-117339852D01*
X109175615Y-117339848D01*
X109008414Y-117207800D01*
X109008410Y-117207798D01*
X109004359Y-117204598D01*
X108963053Y-117181796D01*
X108913084Y-117131364D01*
X108898312Y-117061921D01*
X108923428Y-116995516D01*
X108950780Y-116968909D01*
X109018172Y-116920839D01*
X109129860Y-116841173D01*
X109168103Y-116803064D01*
X109284435Y-116687137D01*
X109288096Y-116683489D01*
X109345005Y-116604292D01*
X109418453Y-116502077D01*
X109419776Y-116503028D01*
X109466645Y-116459857D01*
X109536580Y-116447625D01*
X109602026Y-116475144D01*
G37*
G04 #@! TD.AperFunction*
G04 #@! TA.AperFunction,NonConductor*
G36*
X120377338Y-118939678D02*
G01*
X120405166Y-118971511D01*
X120462694Y-119065388D01*
X120468777Y-119073699D01*
X120608213Y-119234667D01*
X120615580Y-119241883D01*
X120779434Y-119377916D01*
X120787881Y-119383831D01*
X120856969Y-119424203D01*
X120905693Y-119475842D01*
X120918764Y-119545625D01*
X120892033Y-119611396D01*
X120851584Y-119644752D01*
X120838607Y-119651507D01*
X120834474Y-119654610D01*
X120834471Y-119654612D01*
X120664100Y-119782530D01*
X120659965Y-119785635D01*
X120505629Y-119947138D01*
X120398201Y-120104621D01*
X120343293Y-120149621D01*
X120272768Y-120157792D01*
X120209021Y-120126538D01*
X120188324Y-120102054D01*
X120107822Y-119977617D01*
X120107820Y-119977614D01*
X120105014Y-119973277D01*
X119954670Y-119808051D01*
X119950619Y-119804852D01*
X119950615Y-119804848D01*
X119783414Y-119672800D01*
X119783410Y-119672798D01*
X119779359Y-119669598D01*
X119738053Y-119646796D01*
X119688084Y-119596364D01*
X119673312Y-119526921D01*
X119698428Y-119460516D01*
X119725780Y-119433909D01*
X119769603Y-119402650D01*
X119904860Y-119306173D01*
X120063096Y-119148489D01*
X120122594Y-119065689D01*
X120193453Y-118967077D01*
X120194640Y-118967930D01*
X120241960Y-118924362D01*
X120311897Y-118912145D01*
X120377338Y-118939678D01*
G37*
G04 #@! TD.AperFunction*
G04 #@! TA.AperFunction,NonConductor*
G36*
X109602338Y-119014678D02*
G01*
X109630166Y-119046511D01*
X109687694Y-119140388D01*
X109693777Y-119148699D01*
X109833213Y-119309667D01*
X109840580Y-119316883D01*
X110004434Y-119452916D01*
X110012881Y-119458831D01*
X110081969Y-119499203D01*
X110130693Y-119550842D01*
X110143764Y-119620625D01*
X110117033Y-119686396D01*
X110076584Y-119719752D01*
X110063607Y-119726507D01*
X110059474Y-119729610D01*
X110059471Y-119729612D01*
X109889100Y-119857530D01*
X109884965Y-119860635D01*
X109730629Y-120022138D01*
X109623201Y-120179621D01*
X109568293Y-120224621D01*
X109497768Y-120232792D01*
X109434021Y-120201538D01*
X109413324Y-120177054D01*
X109332822Y-120052617D01*
X109332820Y-120052614D01*
X109330014Y-120048277D01*
X109179670Y-119883051D01*
X109175619Y-119879852D01*
X109175615Y-119879848D01*
X109008414Y-119747800D01*
X109008410Y-119747798D01*
X109004359Y-119744598D01*
X108963053Y-119721796D01*
X108913084Y-119671364D01*
X108898312Y-119601921D01*
X108923428Y-119535516D01*
X108950780Y-119508909D01*
X108997138Y-119475842D01*
X109129860Y-119381173D01*
X109288096Y-119223489D01*
X109345005Y-119144292D01*
X109418453Y-119042077D01*
X109419640Y-119042930D01*
X109466960Y-118999362D01*
X109536897Y-118987145D01*
X109602338Y-119014678D01*
G37*
G04 #@! TD.AperFunction*
G04 #@! TA.AperFunction,NonConductor*
G36*
X109602026Y-121555144D02*
G01*
X109629875Y-121586994D01*
X109689987Y-121685088D01*
X109693367Y-121688990D01*
X109709282Y-121707363D01*
X109738765Y-121771949D01*
X109728649Y-121842221D01*
X109703139Y-121878955D01*
X109247387Y-122334707D01*
X109185075Y-122368733D01*
X109114260Y-122363668D01*
X109080200Y-122344494D01*
X109008414Y-122287800D01*
X109008410Y-122287798D01*
X109004359Y-122284598D01*
X108963053Y-122261796D01*
X108913084Y-122211364D01*
X108898312Y-122141921D01*
X108923428Y-122075516D01*
X108950780Y-122048909D01*
X109013733Y-122004005D01*
X109129860Y-121921173D01*
X109139168Y-121911898D01*
X109231506Y-121819882D01*
X109288096Y-121763489D01*
X109328427Y-121707363D01*
X109418453Y-121582077D01*
X109419776Y-121583028D01*
X109466645Y-121539857D01*
X109536580Y-121527625D01*
X109602026Y-121555144D01*
G37*
G04 #@! TD.AperFunction*
G04 #@! TA.AperFunction,NonConductor*
G36*
X120377026Y-121480144D02*
G01*
X120404875Y-121511994D01*
X120464987Y-121610088D01*
X120611250Y-121778938D01*
X120783126Y-121921632D01*
X120853595Y-121962811D01*
X120856445Y-121964476D01*
X120905169Y-122016114D01*
X120918240Y-122085897D01*
X120891509Y-122151669D01*
X120851055Y-122185027D01*
X120838607Y-122191507D01*
X120834474Y-122194610D01*
X120834471Y-122194612D01*
X120675320Y-122314106D01*
X120659965Y-122325635D01*
X120505629Y-122487138D01*
X120398201Y-122644621D01*
X120343293Y-122689621D01*
X120272768Y-122697792D01*
X120209021Y-122666538D01*
X120188324Y-122642054D01*
X120107822Y-122517617D01*
X120107820Y-122517614D01*
X120105014Y-122513277D01*
X119954670Y-122348051D01*
X119950619Y-122344852D01*
X119950615Y-122344848D01*
X119783414Y-122212800D01*
X119783410Y-122212798D01*
X119779359Y-122209598D01*
X119738053Y-122186796D01*
X119688084Y-122136364D01*
X119673312Y-122066921D01*
X119698428Y-122000516D01*
X119725780Y-121973909D01*
X119769603Y-121942650D01*
X119904860Y-121846173D01*
X119916427Y-121834647D01*
X120010823Y-121740580D01*
X120063096Y-121688489D01*
X120108214Y-121625701D01*
X120193453Y-121507077D01*
X120194776Y-121508028D01*
X120241645Y-121464857D01*
X120311580Y-121452625D01*
X120377026Y-121480144D01*
G37*
G04 #@! TD.AperFunction*
G04 #@! TA.AperFunction,NonConductor*
G36*
X116485127Y-122880402D02*
G01*
X116506101Y-122897305D01*
X117280501Y-123671705D01*
X117314527Y-123734017D01*
X117309462Y-123804832D01*
X117266915Y-123861668D01*
X117200395Y-123886479D01*
X117191406Y-123886800D01*
X113380195Y-123886800D01*
X113312074Y-123866798D01*
X113291100Y-123849895D01*
X112516700Y-123075495D01*
X112482674Y-123013183D01*
X112487739Y-122942368D01*
X112530286Y-122885532D01*
X112596806Y-122860721D01*
X112605795Y-122860400D01*
X116417006Y-122860400D01*
X116485127Y-122880402D01*
G37*
G04 #@! TD.AperFunction*
G04 #@! TA.AperFunction,NonConductor*
G36*
X120700218Y-124401952D02*
G01*
X120736671Y-124423064D01*
X120783126Y-124461632D01*
X120840746Y-124495302D01*
X120856445Y-124504476D01*
X120905169Y-124556114D01*
X120918240Y-124625897D01*
X120891509Y-124691669D01*
X120851055Y-124725027D01*
X120838607Y-124731507D01*
X120834474Y-124734610D01*
X120834471Y-124734612D01*
X120701390Y-124834532D01*
X120659965Y-124865635D01*
X120656393Y-124869373D01*
X120555168Y-124975299D01*
X120505629Y-125027138D01*
X120502715Y-125031410D01*
X120502714Y-125031411D01*
X120491247Y-125048221D01*
X120420080Y-125152549D01*
X120397898Y-125185066D01*
X120342987Y-125230069D01*
X120272462Y-125238240D01*
X120208715Y-125206986D01*
X120188018Y-125182502D01*
X120107427Y-125057926D01*
X120102159Y-125051086D01*
X120076442Y-124984911D01*
X120090585Y-124915337D01*
X120112892Y-124885112D01*
X120567091Y-124430913D01*
X120629403Y-124396887D01*
X120700218Y-124401952D01*
G37*
G04 #@! TD.AperFunction*
G04 #@! TA.AperFunction,NonConductor*
G36*
X109602026Y-124095144D02*
G01*
X109629875Y-124126994D01*
X109689987Y-124225088D01*
X109836250Y-124393938D01*
X110008126Y-124536632D01*
X110014773Y-124540516D01*
X110081445Y-124579476D01*
X110130169Y-124631114D01*
X110143240Y-124700897D01*
X110116509Y-124766669D01*
X110076055Y-124800027D01*
X110063607Y-124806507D01*
X110059474Y-124809610D01*
X110059471Y-124809612D01*
X109895476Y-124932743D01*
X109884965Y-124940635D01*
X109881393Y-124944373D01*
X109736688Y-125095798D01*
X109730629Y-125102138D01*
X109727715Y-125106410D01*
X109727714Y-125106411D01*
X109725146Y-125110176D01*
X109643361Y-125230069D01*
X109622898Y-125260066D01*
X109567987Y-125305069D01*
X109497462Y-125313240D01*
X109433715Y-125281986D01*
X109413018Y-125257502D01*
X109332426Y-125132926D01*
X109326136Y-125124757D01*
X109182806Y-124967240D01*
X109175273Y-124960215D01*
X109008139Y-124828222D01*
X108999556Y-124822520D01*
X108962602Y-124802120D01*
X108912631Y-124751687D01*
X108897859Y-124682245D01*
X108922975Y-124615839D01*
X108950327Y-124589232D01*
X108996757Y-124556114D01*
X109129860Y-124461173D01*
X109168103Y-124423064D01*
X109284435Y-124307137D01*
X109288096Y-124303489D01*
X109294356Y-124294778D01*
X109418453Y-124122077D01*
X109419776Y-124123028D01*
X109466645Y-124079857D01*
X109536580Y-124067625D01*
X109602026Y-124095144D01*
G37*
G04 #@! TD.AperFunction*
M02*
