%TF.GenerationSoftware,KiCad,Pcbnew,(6.0.0)*%
%TF.CreationDate,2022-02-24T11:08:30-05:00*%
%TF.ProjectId,PI4Adapter,50493441-6461-4707-9465-722e6b696361,0.1a*%
%TF.SameCoordinates,Original*%
%TF.FileFunction,Legend,Top*%
%TF.FilePolarity,Positive*%
%FSLAX46Y46*%
G04 Gerber Fmt 4.6, Leading zero omitted, Abs format (unit mm)*
G04 Created by KiCad (PCBNEW (6.0.0)) date 2022-02-24 11:08:30*
%MOMM*%
%LPD*%
G01*
G04 APERTURE LIST*
%ADD10C,0.300000*%
%ADD11C,0.100000*%
%ADD12C,0.200000*%
%ADD13C,0.150000*%
%ADD14C,0.120000*%
G04 APERTURE END LIST*
D10*
X115985341Y-123951575D02*
X113985341Y-123951575D01*
X113985341Y-123189670D01*
X114080580Y-122999194D01*
X114175818Y-122903956D01*
X114366294Y-122808718D01*
X114652008Y-122808718D01*
X114842484Y-122903956D01*
X114937722Y-122999194D01*
X115032960Y-123189670D01*
X115032960Y-123951575D01*
X115985341Y-121951575D02*
X113985341Y-121951575D01*
X113985341Y-121189670D02*
X113985341Y-119951575D01*
X114747246Y-120618242D01*
X114747246Y-120332527D01*
X114842484Y-120142051D01*
X114937722Y-120046813D01*
X115128199Y-119951575D01*
X115604389Y-119951575D01*
X115794865Y-120046813D01*
X115890103Y-120142051D01*
X115985341Y-120332527D01*
X115985341Y-120903956D01*
X115890103Y-121094432D01*
X115794865Y-121189670D01*
X113890103Y-117665861D02*
X116461532Y-119380146D01*
X115985341Y-116999194D02*
X113985341Y-116999194D01*
X113985341Y-116237289D01*
X114080580Y-116046813D01*
X114175818Y-115951575D01*
X114366294Y-115856337D01*
X114652008Y-115856337D01*
X114842484Y-115951575D01*
X114937722Y-116046813D01*
X115032960Y-116237289D01*
X115032960Y-116999194D01*
X115985341Y-114999194D02*
X113985341Y-114999194D01*
X114652008Y-113189670D02*
X115985341Y-113189670D01*
X113890103Y-113665861D02*
X115318675Y-114142051D01*
X115318675Y-112903956D01*
X115985341Y-110618242D02*
X113985341Y-110618242D01*
X113985341Y-110142051D01*
X114080580Y-109856337D01*
X114271056Y-109665861D01*
X114461532Y-109570623D01*
X114842484Y-109475384D01*
X115128199Y-109475384D01*
X115509151Y-109570623D01*
X115699627Y-109665861D01*
X115890103Y-109856337D01*
X115985341Y-110142051D01*
X115985341Y-110618242D01*
X114652008Y-107761099D02*
X115985341Y-107761099D01*
X114652008Y-108618242D02*
X115699627Y-108618242D01*
X115890103Y-108523004D01*
X115985341Y-108332527D01*
X115985341Y-108046813D01*
X115890103Y-107856337D01*
X115794865Y-107761099D01*
X115890103Y-106046813D02*
X115985341Y-106237289D01*
X115985341Y-106618242D01*
X115890103Y-106808718D01*
X115699627Y-106903956D01*
X114937722Y-106903956D01*
X114747246Y-106808718D01*
X114652008Y-106618242D01*
X114652008Y-106237289D01*
X114747246Y-106046813D01*
X114937722Y-105951575D01*
X115128199Y-105951575D01*
X115318675Y-106903956D01*
X114652008Y-105380146D02*
X114652008Y-104618242D01*
X113985341Y-105094432D02*
X115699627Y-105094432D01*
X115890103Y-104999194D01*
X115985341Y-104808718D01*
X115985341Y-104618242D01*
X113985341Y-102618242D02*
X113985341Y-101380146D01*
X114747246Y-102046813D01*
X114747246Y-101761099D01*
X114842484Y-101570623D01*
X114937722Y-101475384D01*
X115128199Y-101380146D01*
X115604389Y-101380146D01*
X115794865Y-101475384D01*
X115890103Y-101570623D01*
X115985341Y-101761099D01*
X115985341Y-102332527D01*
X115890103Y-102523004D01*
X115794865Y-102618242D01*
X115413913Y-99094432D02*
X115413913Y-98142051D01*
X115985341Y-99284908D02*
X113985341Y-98618242D01*
X115985341Y-97951575D01*
X115985341Y-96427765D02*
X113985341Y-96427765D01*
X115890103Y-96427765D02*
X115985341Y-96618242D01*
X115985341Y-96999194D01*
X115890103Y-97189670D01*
X115794865Y-97284908D01*
X115604389Y-97380146D01*
X115032960Y-97380146D01*
X114842484Y-97284908D01*
X114747246Y-97189670D01*
X114652008Y-96999194D01*
X114652008Y-96618242D01*
X114747246Y-96427765D01*
X115985341Y-94618242D02*
X114937722Y-94618242D01*
X114747246Y-94713480D01*
X114652008Y-94903956D01*
X114652008Y-95284908D01*
X114747246Y-95475384D01*
X115890103Y-94618242D02*
X115985341Y-94808718D01*
X115985341Y-95284908D01*
X115890103Y-95475384D01*
X115699627Y-95570623D01*
X115509151Y-95570623D01*
X115318675Y-95475384D01*
X115223437Y-95284908D01*
X115223437Y-94808718D01*
X115128199Y-94618242D01*
X114652008Y-93665861D02*
X116652008Y-93665861D01*
X114747246Y-93665861D02*
X114652008Y-93475384D01*
X114652008Y-93094432D01*
X114747246Y-92903956D01*
X114842484Y-92808718D01*
X115032960Y-92713480D01*
X115604389Y-92713480D01*
X115794865Y-92808718D01*
X115890103Y-92903956D01*
X115985341Y-93094432D01*
X115985341Y-93475384D01*
X115890103Y-93665861D01*
X114652008Y-92142051D02*
X114652008Y-91380146D01*
X113985341Y-91856337D02*
X115699627Y-91856337D01*
X115890103Y-91761099D01*
X115985341Y-91570623D01*
X115985341Y-91380146D01*
X115890103Y-89951575D02*
X115985341Y-90142051D01*
X115985341Y-90523004D01*
X115890103Y-90713480D01*
X115699627Y-90808718D01*
X114937722Y-90808718D01*
X114747246Y-90713480D01*
X114652008Y-90523004D01*
X114652008Y-90142051D01*
X114747246Y-89951575D01*
X114937722Y-89856337D01*
X115128199Y-89856337D01*
X115318675Y-90808718D01*
X115985341Y-88999194D02*
X114652008Y-88999194D01*
X115032960Y-88999194D02*
X114842484Y-88903956D01*
X114747246Y-88808718D01*
X114652008Y-88618242D01*
X114652008Y-88427765D01*
X114652008Y-86427765D02*
X115985341Y-85951575D01*
X114652008Y-85475384D01*
X113985341Y-84332527D02*
X113985341Y-84142051D01*
X114080580Y-83951575D01*
X114175818Y-83856337D01*
X114366294Y-83761099D01*
X114747246Y-83665861D01*
X115223437Y-83665861D01*
X115604389Y-83761099D01*
X115794865Y-83856337D01*
X115890103Y-83951575D01*
X115985341Y-84142051D01*
X115985341Y-84332527D01*
X115890103Y-84523004D01*
X115794865Y-84618242D01*
X115604389Y-84713480D01*
X115223437Y-84808718D01*
X114747246Y-84808718D01*
X114366294Y-84713480D01*
X114175818Y-84618242D01*
X114080580Y-84523004D01*
X113985341Y-84332527D01*
X115794865Y-82808718D02*
X115890103Y-82713480D01*
X115985341Y-82808718D01*
X115890103Y-82903956D01*
X115794865Y-82808718D01*
X115985341Y-82808718D01*
X115985341Y-80808718D02*
X115985341Y-81951575D01*
X115985341Y-81380146D02*
X113985341Y-81380146D01*
X114271056Y-81570623D01*
X114461532Y-81761099D01*
X114556770Y-81951575D01*
X115985341Y-79094432D02*
X114937722Y-79094432D01*
X114747246Y-79189670D01*
X114652008Y-79380146D01*
X114652008Y-79761099D01*
X114747246Y-79951575D01*
X115890103Y-79094432D02*
X115985341Y-79284908D01*
X115985341Y-79761099D01*
X115890103Y-79951575D01*
X115699627Y-80046813D01*
X115509151Y-80046813D01*
X115318675Y-79951575D01*
X115223437Y-79761099D01*
X115223437Y-79284908D01*
X115128199Y-79094432D01*
D11*
X124278918Y-119966030D02*
X124278918Y-120573173D01*
X124314632Y-120644602D01*
X124350346Y-120680316D01*
X124421775Y-120716030D01*
X124564632Y-120716030D01*
X124636061Y-120680316D01*
X124671775Y-120644602D01*
X124707489Y-120573173D01*
X124707489Y-119966030D01*
X125028918Y-120680316D02*
X125136061Y-120716030D01*
X125314632Y-120716030D01*
X125386061Y-120680316D01*
X125421775Y-120644602D01*
X125457489Y-120573173D01*
X125457489Y-120501745D01*
X125421775Y-120430316D01*
X125386061Y-120394602D01*
X125314632Y-120358887D01*
X125171775Y-120323173D01*
X125100346Y-120287459D01*
X125064632Y-120251745D01*
X125028918Y-120180316D01*
X125028918Y-120108887D01*
X125064632Y-120037459D01*
X125100346Y-120001745D01*
X125171775Y-119966030D01*
X125350346Y-119966030D01*
X125457489Y-120001745D01*
X126028918Y-120323173D02*
X126136061Y-120358887D01*
X126171775Y-120394602D01*
X126207489Y-120466030D01*
X126207489Y-120573173D01*
X126171775Y-120644602D01*
X126136061Y-120680316D01*
X126064632Y-120716030D01*
X125778918Y-120716030D01*
X125778918Y-119966030D01*
X126028918Y-119966030D01*
X126100346Y-120001745D01*
X126136061Y-120037459D01*
X126171775Y-120108887D01*
X126171775Y-120180316D01*
X126136061Y-120251745D01*
X126100346Y-120287459D01*
X126028918Y-120323173D01*
X125778918Y-120323173D01*
X127528918Y-120644602D02*
X127493203Y-120680316D01*
X127386061Y-120716030D01*
X127314632Y-120716030D01*
X127207489Y-120680316D01*
X127136061Y-120608887D01*
X127100346Y-120537459D01*
X127064632Y-120394602D01*
X127064632Y-120287459D01*
X127100346Y-120144602D01*
X127136061Y-120073173D01*
X127207489Y-120001745D01*
X127314632Y-119966030D01*
X127386061Y-119966030D01*
X127493203Y-120001745D01*
X127528918Y-120037459D01*
X124403918Y-121923530D02*
X124403918Y-121173530D01*
X124689632Y-121173530D01*
X124761061Y-121209245D01*
X124796775Y-121244959D01*
X124832489Y-121316387D01*
X124832489Y-121423530D01*
X124796775Y-121494959D01*
X124761061Y-121530673D01*
X124689632Y-121566387D01*
X124403918Y-121566387D01*
X125261061Y-121923530D02*
X125189632Y-121887816D01*
X125153918Y-121852102D01*
X125118203Y-121780673D01*
X125118203Y-121566387D01*
X125153918Y-121494959D01*
X125189632Y-121459245D01*
X125261061Y-121423530D01*
X125368203Y-121423530D01*
X125439632Y-121459245D01*
X125475346Y-121494959D01*
X125511061Y-121566387D01*
X125511061Y-121780673D01*
X125475346Y-121852102D01*
X125439632Y-121887816D01*
X125368203Y-121923530D01*
X125261061Y-121923530D01*
X125761061Y-121423530D02*
X125903918Y-121923530D01*
X126046775Y-121566387D01*
X126189632Y-121923530D01*
X126332489Y-121423530D01*
X126903918Y-121887816D02*
X126832489Y-121923530D01*
X126689632Y-121923530D01*
X126618203Y-121887816D01*
X126582489Y-121816387D01*
X126582489Y-121530673D01*
X126618203Y-121459245D01*
X126689632Y-121423530D01*
X126832489Y-121423530D01*
X126903918Y-121459245D01*
X126939632Y-121530673D01*
X126939632Y-121602102D01*
X126582489Y-121673530D01*
X127261061Y-121923530D02*
X127261061Y-121423530D01*
X127261061Y-121566387D02*
X127296775Y-121494959D01*
X127332489Y-121459245D01*
X127403918Y-121423530D01*
X127475346Y-121423530D01*
D10*
X134302295Y-83163936D02*
X136207056Y-83163936D01*
X135254676Y-84116317D02*
X135254676Y-82211555D01*
D12*
X127925392Y-110609118D02*
X127996820Y-110680546D01*
X128068249Y-110894832D01*
X128068249Y-111037689D01*
X127996820Y-111251975D01*
X127853963Y-111394832D01*
X127711106Y-111466261D01*
X127425392Y-111537689D01*
X127211106Y-111537689D01*
X126925392Y-111466261D01*
X126782535Y-111394832D01*
X126639678Y-111251975D01*
X126568249Y-111037689D01*
X126568249Y-110894832D01*
X126639678Y-110680546D01*
X126711106Y-110609118D01*
X127925392Y-109109118D02*
X127996820Y-109180546D01*
X128068249Y-109394832D01*
X128068249Y-109537689D01*
X127996820Y-109751975D01*
X127853963Y-109894832D01*
X127711106Y-109966261D01*
X127425392Y-110037689D01*
X127211106Y-110037689D01*
X126925392Y-109966261D01*
X126782535Y-109894832D01*
X126639678Y-109751975D01*
X126568249Y-109537689D01*
X126568249Y-109394832D01*
X126639678Y-109180546D01*
X126711106Y-109109118D01*
X127282535Y-106823403D02*
X127353963Y-106609118D01*
X127425392Y-106537689D01*
X127568249Y-106466261D01*
X127782535Y-106466261D01*
X127925392Y-106537689D01*
X127996820Y-106609118D01*
X128068249Y-106751975D01*
X128068249Y-107323403D01*
X126568249Y-107323403D01*
X126568249Y-106823403D01*
X126639678Y-106680546D01*
X126711106Y-106609118D01*
X126853963Y-106537689D01*
X126996820Y-106537689D01*
X127139678Y-106609118D01*
X127211106Y-106680546D01*
X127282535Y-106823403D01*
X127282535Y-107323403D01*
X127353963Y-105537689D02*
X128068249Y-105537689D01*
X126568249Y-106037689D02*
X127353963Y-105537689D01*
X126568249Y-105037689D01*
X127496820Y-104537689D02*
X127496820Y-103394832D01*
X127996820Y-102751975D02*
X128068249Y-102537689D01*
X128068249Y-102180546D01*
X127996820Y-102037689D01*
X127925392Y-101966261D01*
X127782535Y-101894832D01*
X127639678Y-101894832D01*
X127496820Y-101966261D01*
X127425392Y-102037689D01*
X127353963Y-102180546D01*
X127282535Y-102466261D01*
X127211106Y-102609118D01*
X127139678Y-102680546D01*
X126996820Y-102751975D01*
X126853963Y-102751975D01*
X126711106Y-102680546D01*
X126639678Y-102609118D01*
X126568249Y-102466261D01*
X126568249Y-102109118D01*
X126639678Y-101894832D01*
X127639678Y-101323403D02*
X127639678Y-100609118D01*
X128068249Y-101466261D02*
X126568249Y-100966261D01*
X128068249Y-100466261D01*
X127068249Y-98180546D02*
X128068249Y-98180546D01*
X126496820Y-98537689D02*
X127568249Y-98894832D01*
X127568249Y-97966261D01*
X127925392Y-97394832D02*
X127996820Y-97323403D01*
X128068249Y-97394832D01*
X127996820Y-97466261D01*
X127925392Y-97394832D01*
X128068249Y-97394832D01*
X126568249Y-96394832D02*
X126568249Y-96251975D01*
X126639678Y-96109118D01*
X126711106Y-96037689D01*
X126853963Y-95966261D01*
X127139678Y-95894832D01*
X127496820Y-95894832D01*
X127782535Y-95966261D01*
X127925392Y-96037689D01*
X127996820Y-96109118D01*
X128068249Y-96251975D01*
X128068249Y-96394832D01*
X127996820Y-96537689D01*
X127925392Y-96609118D01*
X127782535Y-96680546D01*
X127496820Y-96751975D01*
X127139678Y-96751975D01*
X126853963Y-96680546D01*
X126711106Y-96609118D01*
X126639678Y-96537689D01*
X126568249Y-96394832D01*
D10*
X125821428Y-75914285D02*
X125821428Y-75200000D01*
X125107142Y-75128571D01*
X125178571Y-75200000D01*
X125250000Y-75342857D01*
X125250000Y-75700000D01*
X125178571Y-75842857D01*
X125107142Y-75914285D01*
X124964285Y-75985714D01*
X124607142Y-75985714D01*
X124464285Y-75914285D01*
X124392857Y-75842857D01*
X124321428Y-75700000D01*
X124321428Y-75342857D01*
X124392857Y-75200000D01*
X124464285Y-75128571D01*
X125321428Y-76485714D02*
X124321428Y-76842857D01*
X125321428Y-77200000D01*
X124321428Y-78414285D02*
X125821428Y-78414285D01*
X124392857Y-78414285D02*
X124321428Y-78271428D01*
X124321428Y-77985714D01*
X124392857Y-77842857D01*
X124464285Y-77771428D01*
X124607142Y-77700000D01*
X125035714Y-77700000D01*
X125178571Y-77771428D01*
X125250000Y-77842857D01*
X125321428Y-77985714D01*
X125321428Y-78271428D01*
X125250000Y-78414285D01*
X124392857Y-79771428D02*
X124321428Y-79628571D01*
X124321428Y-79342857D01*
X124392857Y-79200000D01*
X124464285Y-79128571D01*
X124607142Y-79057142D01*
X125035714Y-79057142D01*
X125178571Y-79128571D01*
X125250000Y-79200000D01*
X125321428Y-79342857D01*
X125321428Y-79628571D01*
X125250000Y-79771428D01*
D13*
%TO.C,U1*%
X128265567Y-121010728D02*
X128265567Y-121820252D01*
X128313186Y-121915490D01*
X128360805Y-121963109D01*
X128456043Y-122010728D01*
X128646519Y-122010728D01*
X128741757Y-121963109D01*
X128789376Y-121915490D01*
X128836995Y-121820252D01*
X128836995Y-121010728D01*
X129836995Y-122010728D02*
X129265567Y-122010728D01*
X129551281Y-122010728D02*
X129551281Y-121010728D01*
X129456043Y-121153586D01*
X129360805Y-121248824D01*
X129265567Y-121296443D01*
%TO.C,J2*%
X119916666Y-74702380D02*
X119916666Y-75416666D01*
X119869047Y-75559523D01*
X119773809Y-75654761D01*
X119630952Y-75702380D01*
X119535714Y-75702380D01*
X120345238Y-74797619D02*
X120392857Y-74750000D01*
X120488095Y-74702380D01*
X120726190Y-74702380D01*
X120821428Y-74750000D01*
X120869047Y-74797619D01*
X120916666Y-74892857D01*
X120916666Y-74988095D01*
X120869047Y-75130952D01*
X120297619Y-75702380D01*
X120916666Y-75702380D01*
%TO.C,J4*%
X128459844Y-86118087D02*
X128459844Y-86832373D01*
X128412225Y-86975230D01*
X128316987Y-87070468D01*
X128174130Y-87118087D01*
X128078892Y-87118087D01*
X129364606Y-86451421D02*
X129364606Y-87118087D01*
X129126511Y-86070468D02*
X128888416Y-86784754D01*
X129507463Y-86784754D01*
%TO.C,J1*%
X109066666Y-74702380D02*
X109066666Y-75416666D01*
X109019047Y-75559523D01*
X108923809Y-75654761D01*
X108780952Y-75702380D01*
X108685714Y-75702380D01*
X110066666Y-75702380D02*
X109495238Y-75702380D01*
X109780952Y-75702380D02*
X109780952Y-74702380D01*
X109685714Y-74845238D01*
X109590476Y-74940476D01*
X109495238Y-74988095D01*
%TO.C,J3*%
X136016666Y-76352380D02*
X136016666Y-77066666D01*
X135969047Y-77209523D01*
X135873809Y-77304761D01*
X135730952Y-77352380D01*
X135635714Y-77352380D01*
X136397619Y-76352380D02*
X137016666Y-76352380D01*
X136683333Y-76733333D01*
X136826190Y-76733333D01*
X136921428Y-76780952D01*
X136969047Y-76828571D01*
X137016666Y-76923809D01*
X137016666Y-77161904D01*
X136969047Y-77257142D01*
X136921428Y-77304761D01*
X136826190Y-77352380D01*
X136540476Y-77352380D01*
X136445238Y-77304761D01*
X136397619Y-77257142D01*
D14*
%TO.C,U1*%
X124295622Y-122321094D02*
X124295622Y-129876263D01*
X133235622Y-122321094D02*
X133235622Y-129876263D01*
X124295622Y-129876263D02*
X133235622Y-129876263D01*
X124367669Y-122321094D02*
X133235622Y-122321094D01*
%TO.C,J2*%
X120295000Y-76295000D02*
X122895000Y-76295000D01*
X117695000Y-78895000D02*
X120295000Y-78895000D01*
X117695000Y-78895000D02*
X117695000Y-127215000D01*
X117695000Y-127215000D02*
X122895000Y-127215000D01*
X117695000Y-76295000D02*
X119025000Y-76295000D01*
X117695000Y-77625000D02*
X117695000Y-76295000D01*
X122895000Y-76295000D02*
X122895000Y-127215000D01*
X120295000Y-78895000D02*
X120295000Y-76295000D01*
%TO.C,J4*%
X126440000Y-85460000D02*
X127860000Y-85460000D01*
X127860000Y-85460000D02*
X127860000Y-80960000D01*
X131750000Y-79850000D02*
X131750000Y-74350000D01*
X131750000Y-74350000D02*
X131250000Y-74350000D01*
X131500000Y-84550000D02*
X131800000Y-85150000D01*
X131800000Y-85150000D02*
X131200000Y-85150000D01*
X131250000Y-79850000D02*
X131750000Y-79850000D01*
X130250000Y-73740000D02*
X126440000Y-73740000D01*
X127860000Y-80960000D02*
X130250000Y-80960000D01*
X132640000Y-80960000D02*
X130250000Y-80960000D01*
X129250000Y-79850000D02*
X129250000Y-74350000D01*
X128750000Y-79850000D02*
X129250000Y-79850000D01*
X131200000Y-85150000D02*
X131500000Y-84550000D01*
X134060000Y-73740000D02*
X134060000Y-85460000D01*
X128750000Y-74350000D02*
X128750000Y-79850000D01*
X132640000Y-85460000D02*
X132640000Y-80960000D01*
X126440000Y-73740000D02*
X126440000Y-85460000D01*
X131250000Y-74350000D02*
X131250000Y-79850000D01*
X129250000Y-74350000D02*
X128750000Y-74350000D01*
X134060000Y-85460000D02*
X132640000Y-85460000D01*
X130250000Y-73740000D02*
X134060000Y-73740000D01*
%TD*%
M02*
