  0
SECTION
  2
HEADER
  9
$ANGBASE
  50
0.0
  9
$ANGDIR
  70
1
  9
$MEASUREMENT
  70
1
  0
ENDSEC
  0
SECTION
  2
TABLES
  0
TABLE
  2
LTYPE
  70
4
  0
LTYPE
  5
40F
  2
CONTINUOUS
  70
0
  3
Solid line
  72
65
  73
0
  40
0.0
  0
LTYPE
  5
410
  2
DASHDOT
 70
0
  3
Dash Dot ____ _ ____ _
 72
65
 73
4
 40
2.0
 49
1.25
 49
-0.25
 49
0.25
 49
-0.25
  0
LTYPE
  5
411
  2
DASHED
 70
0
  3
Dashed __ __ __ __ __
 72
65
 73
2
 40
0.75
 49
0.5
 49
-0.25
  0
LTYPE
  5
43B
  2
DOTTED
 70
0
  3
Dotted .  .  .  .
 72
65
 73
2
 40
0.2
 49
0.0
 49
-0.2
  0
ENDTAB
  0
TABLE
  2
STYLE
  70
4
  0
STYLE
  2
KICAD
  70
0
  40
0
  41
1
  42
1
  50
0
  71
0
  3
isocp.shx
  0
STYLE
  2
KICADB
  70
0
  40
0
  41
1
  42
1
  50
0
  71
0
  3
isocp.shx
  0
STYLE
  2
KICADI
  70
0
  40
0
  41
1
  42
1
  50
15
  71
0
  3
isocp.shx
  0
STYLE
  2
KICADBI
  70
0
  40
0
  41
1
  42
1
  50
15
  71
0
  3
isocp.shx
  0
ENDTAB
  0
TABLE
  2
LAYER
  70
1
  0
LAYER
  2
BLACK
  70
0
  62
7
  6
CONTINUOUS
  0
ENDTAB
  0
ENDSEC
  0
SECTION
  2
ENTITIES
0
LINE
8
BLACK
6
CONTINUOUS
10
137
20
-75.6
11
143.3
21
-75.6
0
LINE
8
BLACK
6
CONTINUOUS
10
108.236
20
-73.6
11
137
21
-73.6
0
ARC
8
BLACK
10
132.698
20
-125.598
40
4.30263
50
-89.3027
51
0.635048
0
LINE
8
BLACK
6
CONTINUOUS
10
143.3
20
-109.95
11
137
21
-109.95
0
LINE
8
BLACK
6
CONTINUOUS
10
143.3
20
-75.6
11
143.3
21
-109.95
0
ARC
8
BLACK
10
108.257
20
-125.644
40
4.25682
50
-179.447
51
-88.5874
0
LINE
8
BLACK
6
CONTINUOUS
10
104
20
-125.686
11
104
21
-77.9079
0
LINE
8
BLACK
6
CONTINUOUS
10
132.75
20
-129.9
11
108.362
21
-129.9
0
LINE
8
BLACK
6
CONTINUOUS
10
137
20
-73.6
11
137
21
-75.6
0
ARC
8
BLACK
10
108.189
20
-77.7901
40
4.19032
50
-270.642
51
-178.389
0
LINE
8
BLACK
6
CONTINUOUS
10
137
20
-109.95
11
137
21
-125.55
0
LINE
8
BLACK
6
CONTINUOUS
10
106.525
20
-133.056
11
106.525
21
-131.056
0
LINE
8
BLACK
6
CONTINUOUS
10
106.525
20
-131.056
11
107.001
21
-131.056
0
LINE
8
BLACK
6
CONTINUOUS
10
107.001
20
-131.056
11
107.286
21
-131.151
0
LINE
8
BLACK
6
CONTINUOUS
10
107.286
20
-131.151
11
107.477
21
-131.342
0
LINE
8
BLACK
6
CONTINUOUS
10
107.477
20
-131.342
11
107.572
21
-131.532
0
LINE
8
BLACK
6
CONTINUOUS
10
107.572
20
-131.532
11
107.667
21
-131.913
0
LINE
8
BLACK
6
CONTINUOUS
10
107.667
20
-131.913
11
107.667
21
-132.199
0
LINE
8
BLACK
6
CONTINUOUS
10
107.667
20
-132.199
11
107.572
21
-132.58
0
LINE
8
BLACK
6
CONTINUOUS
10
107.572
20
-132.58
11
107.477
21
-132.77
0
LINE
8
BLACK
6
CONTINUOUS
10
107.477
20
-132.77
11
107.286
21
-132.961
0
LINE
8
BLACK
6
CONTINUOUS
10
107.286
20
-132.961
11
107.001
21
-133.056
0
LINE
8
BLACK
6
CONTINUOUS
10
107.001
20
-133.056
11
106.525
21
-133.056
0
LINE
8
BLACK
6
CONTINUOUS
10
108.525
20
-133.056
11
108.525
21
-131.723
0
LINE
8
BLACK
6
CONTINUOUS
10
108.525
20
-132.104
11
108.62
21
-131.913
0
LINE
8
BLACK
6
CONTINUOUS
10
108.62
20
-131.913
11
108.715
21
-131.818
0
LINE
8
BLACK
6
CONTINUOUS
10
108.715
20
-131.818
11
108.905
21
-131.723
0
LINE
8
BLACK
6
CONTINUOUS
10
108.905
20
-131.723
11
109.096
21
-131.723
0
LINE
8
BLACK
6
CONTINUOUS
10
109.763
20
-133.056
11
109.763
21
-131.723
0
LINE
8
BLACK
6
CONTINUOUS
10
109.763
20
-131.056
11
109.667
21
-131.151
0
LINE
8
BLACK
6
CONTINUOUS
10
109.667
20
-131.151
11
109.763
21
-131.247
0
LINE
8
BLACK
6
CONTINUOUS
10
109.763
20
-131.247
11
109.858
21
-131.151
0
LINE
8
BLACK
6
CONTINUOUS
10
109.858
20
-131.151
11
109.763
21
-131.056
0
LINE
8
BLACK
6
CONTINUOUS
10
109.763
20
-131.056
11
109.763
21
-131.247
0
LINE
8
BLACK
6
CONTINUOUS
10
111.001
20
-133.056
11
110.81
21
-132.961
0
LINE
8
BLACK
6
CONTINUOUS
10
110.81
20
-132.961
11
110.715
21
-132.77
0
LINE
8
BLACK
6
CONTINUOUS
10
110.715
20
-132.77
11
110.715
21
-131.056
0
LINE
8
BLACK
6
CONTINUOUS
10
112.048
20
-133.056
11
111.858
21
-132.961
0
LINE
8
BLACK
6
CONTINUOUS
10
111.858
20
-132.961
11
111.763
21
-132.77
0
LINE
8
BLACK
6
CONTINUOUS
10
111.763
20
-132.77
11
111.763
21
-131.056
0
LINE
8
BLACK
6
CONTINUOUS
10
114.334
20
-133.056
11
114.334
21
-131.056
0
LINE
8
BLACK
6
CONTINUOUS
10
114.334
20
-131.056
11
115.001
21
-132.485
0
LINE
8
BLACK
6
CONTINUOUS
10
115.001
20
-132.485
11
115.667
21
-131.056
0
LINE
8
BLACK
6
CONTINUOUS
10
115.667
20
-131.056
11
115.667
21
-133.056
0
LINE
8
BLACK
6
CONTINUOUS
10
117.477
20
-133.056
11
117.477
21
-132.008
0
LINE
8
BLACK
6
CONTINUOUS
10
117.477
20
-132.008
11
117.382
21
-131.818
0
LINE
8
BLACK
6
CONTINUOUS
10
117.382
20
-131.818
11
117.191
21
-131.723
0
LINE
8
BLACK
6
CONTINUOUS
10
117.191
20
-131.723
11
116.81
21
-131.723
0
LINE
8
BLACK
6
CONTINUOUS
10
116.81
20
-131.723
11
116.62
21
-131.818
0
LINE
8
BLACK
6
CONTINUOUS
10
117.477
20
-132.961
11
117.286
21
-133.056
0
LINE
8
BLACK
6
CONTINUOUS
10
117.286
20
-133.056
11
116.81
21
-133.056
0
LINE
8
BLACK
6
CONTINUOUS
10
116.81
20
-133.056
11
116.62
21
-132.961
0
LINE
8
BLACK
6
CONTINUOUS
10
116.62
20
-132.961
11
116.525
21
-132.77
0
LINE
8
BLACK
6
CONTINUOUS
10
116.525
20
-132.77
11
116.525
21
-132.58
0
LINE
8
BLACK
6
CONTINUOUS
10
116.525
20
-132.58
11
116.62
21
-132.389
0
LINE
8
BLACK
6
CONTINUOUS
10
116.62
20
-132.389
11
116.81
21
-132.294
0
LINE
8
BLACK
6
CONTINUOUS
10
116.81
20
-132.294
11
117.286
21
-132.294
0
LINE
8
BLACK
6
CONTINUOUS
10
117.286
20
-132.294
11
117.477
21
-132.199
0
LINE
8
BLACK
6
CONTINUOUS
10
118.429
20
-131.723
11
118.429
21
-133.723
0
LINE
8
BLACK
6
CONTINUOUS
10
118.429
20
-131.818
11
118.62
21
-131.723
0
LINE
8
BLACK
6
CONTINUOUS
10
118.62
20
-131.723
11
119.001
21
-131.723
0
LINE
8
BLACK
6
CONTINUOUS
10
119.001
20
-131.723
11
119.191
21
-131.818
0
LINE
8
BLACK
6
CONTINUOUS
10
119.191
20
-131.818
11
119.286
21
-131.913
0
LINE
8
BLACK
6
CONTINUOUS
10
119.286
20
-131.913
11
119.382
21
-132.104
0
LINE
8
BLACK
6
CONTINUOUS
10
119.382
20
-132.104
11
119.382
21
-132.675
0
LINE
8
BLACK
6
CONTINUOUS
10
119.382
20
-132.675
11
119.286
21
-132.866
0
LINE
8
BLACK
6
CONTINUOUS
10
119.286
20
-132.866
11
119.191
21
-132.961
0
LINE
8
BLACK
6
CONTINUOUS
10
119.191
20
-132.961
11
119.001
21
-133.056
0
LINE
8
BLACK
6
CONTINUOUS
10
119.001
20
-133.056
11
118.62
21
-133.056
0
LINE
8
BLACK
6
CONTINUOUS
10
118.62
20
-133.056
11
118.429
21
-132.961
0
LINE
8
BLACK
6
CONTINUOUS
10
120.239
20
-132.866
11
120.334
21
-132.961
0
LINE
8
BLACK
6
CONTINUOUS
10
120.334
20
-132.961
11
120.239
21
-133.056
0
LINE
8
BLACK
6
CONTINUOUS
10
120.239
20
-133.056
11
120.144
21
-132.961
0
LINE
8
BLACK
6
CONTINUOUS
10
120.144
20
-132.961
11
120.239
21
-132.866
0
LINE
8
BLACK
6
CONTINUOUS
10
120.239
20
-132.866
11
120.239
21
-133.056
0
LINE
8
BLACK
6
CONTINUOUS
10
120.239
20
-131.818
11
120.334
21
-131.913
0
LINE
8
BLACK
6
CONTINUOUS
10
120.334
20
-131.913
11
120.239
21
-132.008
0
LINE
8
BLACK
6
CONTINUOUS
10
120.239
20
-132.008
11
120.144
21
-131.913
0
LINE
8
BLACK
6
CONTINUOUS
10
120.144
20
-131.913
11
120.239
21
-131.818
0
LINE
8
BLACK
6
CONTINUOUS
10
120.239
20
-131.818
11
120.239
21
-132.008
  0
ENDSEC
  0
EOF
