G04 #@! TF.GenerationSoftware,KiCad,Pcbnew,7.0.5*
G04 #@! TF.CreationDate,2023-06-11T09:32:39-04:00*
G04 #@! TF.ProjectId,PI4Adapter,50493441-6461-4707-9465-722e6b696361,0.1b*
G04 #@! TF.SameCoordinates,Original*
G04 #@! TF.FileFunction,Copper,L1,Top*
G04 #@! TF.FilePolarity,Positive*
%FSLAX46Y46*%
G04 Gerber Fmt 4.6, Leading zero omitted, Abs format (unit mm)*
G04 Created by KiCad (PCBNEW 7.0.5) date 2023-06-11 09:32:39*
%MOMM*%
%LPD*%
G01*
G04 APERTURE LIST*
G04 Aperture macros list*
%AMRoundRect*
0 Rectangle with rounded corners*
0 $1 Rounding radius*
0 $2 $3 $4 $5 $6 $7 $8 $9 X,Y pos of 4 corners*
0 Add a 4 corners polygon primitive as box body*
4,1,4,$2,$3,$4,$5,$6,$7,$8,$9,$2,$3,0*
0 Add four circle primitives for the rounded corners*
1,1,$1+$1,$2,$3*
1,1,$1+$1,$4,$5*
1,1,$1+$1,$6,$7*
1,1,$1+$1,$8,$9*
0 Add four rect primitives between the rounded corners*
20,1,$1+$1,$2,$3,$4,$5,0*
20,1,$1+$1,$4,$5,$6,$7,0*
20,1,$1+$1,$6,$7,$8,$9,0*
20,1,$1+$1,$8,$9,$2,$3,0*%
G04 Aperture macros list end*
G04 #@! TA.AperFunction,ComponentPad*
%ADD10R,1.700000X1.700000*%
G04 #@! TD*
G04 #@! TA.AperFunction,ComponentPad*
%ADD11O,1.700000X1.700000*%
G04 #@! TD*
G04 #@! TA.AperFunction,SMDPad,CuDef*
%ADD12R,0.700000X1.200000*%
G04 #@! TD*
G04 #@! TA.AperFunction,SMDPad,CuDef*
%ADD13R,0.760000X1.200000*%
G04 #@! TD*
G04 #@! TA.AperFunction,SMDPad,CuDef*
%ADD14R,0.800000X1.200000*%
G04 #@! TD*
G04 #@! TA.AperFunction,SMDPad,CuDef*
%ADD15R,1.800000X1.350000*%
G04 #@! TD*
G04 #@! TA.AperFunction,SMDPad,CuDef*
%ADD16R,1.800000X1.500000*%
G04 #@! TD*
G04 #@! TA.AperFunction,ComponentPad*
%ADD17RoundRect,0.250000X0.600000X0.750000X-0.600000X0.750000X-0.600000X-0.750000X0.600000X-0.750000X0*%
G04 #@! TD*
G04 #@! TA.AperFunction,ComponentPad*
%ADD18O,1.700000X2.000000*%
G04 #@! TD*
G04 #@! TA.AperFunction,Conductor*
%ADD19C,0.500000*%
G04 #@! TD*
G04 #@! TA.AperFunction,Conductor*
%ADD20C,0.250000*%
G04 #@! TD*
G04 #@! TA.AperFunction,Conductor*
%ADD21C,0.400000*%
G04 #@! TD*
G04 #@! TA.AperFunction,Profile*
%ADD22C,0.100000*%
G04 #@! TD*
G04 APERTURE END LIST*
D10*
X115570000Y-77625000D03*
D11*
X118110000Y-77625000D03*
X115570000Y-80165000D03*
X118110000Y-80165000D03*
X115570000Y-82705000D03*
X118110000Y-82705000D03*
X115570000Y-85245000D03*
X118110000Y-85245000D03*
X115570000Y-87785000D03*
X118110000Y-87785000D03*
X115570000Y-90325000D03*
X118110000Y-90325000D03*
X115570000Y-92865000D03*
X118110000Y-92865000D03*
X115570000Y-95405000D03*
X118110000Y-95405000D03*
X115570000Y-97945000D03*
X118110000Y-97945000D03*
X115570000Y-100485000D03*
X118110000Y-100485000D03*
X115570000Y-103025000D03*
X118110000Y-103025000D03*
X115570000Y-105565000D03*
X118110000Y-105565000D03*
X115570000Y-108105000D03*
X118110000Y-108105000D03*
X115570000Y-110645000D03*
X118110000Y-110645000D03*
X115570000Y-113185000D03*
X118110000Y-113185000D03*
X115570000Y-115725000D03*
X118110000Y-115725000D03*
X115570000Y-118265000D03*
X118110000Y-118265000D03*
X115570000Y-120805000D03*
X118110000Y-120805000D03*
X115570000Y-123345000D03*
X118110000Y-123345000D03*
X115570000Y-125885000D03*
X118110000Y-125885000D03*
D12*
X128405000Y-123332500D03*
D13*
X130425000Y-123332500D03*
D14*
X131655000Y-123332500D03*
D12*
X129405000Y-123332500D03*
D13*
X127385000Y-123332500D03*
D14*
X126155000Y-123332500D03*
D15*
X123780000Y-123387500D03*
D16*
X123780000Y-126967500D03*
D15*
X134030000Y-123387500D03*
D16*
X134030000Y-126967500D03*
D17*
X129520000Y-83050000D03*
D18*
X127020000Y-83050000D03*
D10*
X108250000Y-77700000D03*
D11*
X110790000Y-77700000D03*
X108250000Y-80240000D03*
X110790000Y-80240000D03*
X108250000Y-82780000D03*
X110790000Y-82780000D03*
X108250000Y-85320000D03*
X110790000Y-85320000D03*
X108250000Y-87860000D03*
X110790000Y-87860000D03*
X108250000Y-90400000D03*
X110790000Y-90400000D03*
X108250000Y-92940000D03*
X110790000Y-92940000D03*
X108250000Y-95480000D03*
X110790000Y-95480000D03*
X108250000Y-98020000D03*
X110790000Y-98020000D03*
X108250000Y-100560000D03*
X110790000Y-100560000D03*
X108250000Y-103100000D03*
X110790000Y-103100000D03*
X108250000Y-105640000D03*
X110790000Y-105640000D03*
X108250000Y-108180000D03*
X110790000Y-108180000D03*
X108250000Y-110720000D03*
X110790000Y-110720000D03*
X108250000Y-113260000D03*
X110790000Y-113260000D03*
X108250000Y-115800000D03*
X110790000Y-115800000D03*
X108250000Y-118340000D03*
X110790000Y-118340000D03*
X108250000Y-120880000D03*
X110790000Y-120880000D03*
X108250000Y-123420000D03*
X110790000Y-123420000D03*
X108250000Y-125960000D03*
X110790000Y-125960000D03*
D10*
X139060000Y-77575000D03*
D11*
X141600000Y-77575000D03*
X139060000Y-80115000D03*
X141600000Y-80115000D03*
X139060000Y-82655000D03*
X141600000Y-82655000D03*
X139060000Y-85195000D03*
X141600000Y-85195000D03*
X139060000Y-87735000D03*
X141600000Y-87735000D03*
X139060000Y-90275000D03*
X141600000Y-90275000D03*
X139060000Y-92815000D03*
X141600000Y-92815000D03*
X139060000Y-95355000D03*
X141600000Y-95355000D03*
X139060000Y-97895000D03*
X141600000Y-97895000D03*
X139060000Y-100435000D03*
X141600000Y-100435000D03*
X139060000Y-102975000D03*
X141600000Y-102975000D03*
X139060000Y-105515000D03*
X141600000Y-105515000D03*
X139060000Y-108055000D03*
X141600000Y-108055000D03*
D19*
X110790000Y-78105000D02*
X110790000Y-76325000D01*
X116870000Y-76325000D02*
X118110000Y-77565000D01*
X110790000Y-76325000D02*
X116870000Y-76325000D01*
X118110000Y-77565000D02*
X118110000Y-80165000D01*
X128040000Y-121750600D02*
X129520000Y-121750600D01*
X127385000Y-122405600D02*
X128040000Y-121750600D01*
X129520000Y-121750600D02*
X129520000Y-83050000D01*
X130175000Y-122405600D02*
X129520000Y-121750600D01*
D20*
X116933100Y-121170800D02*
X116933100Y-120805000D01*
X116103600Y-122000300D02*
X116933100Y-121170800D01*
X113087200Y-122000300D02*
X116103600Y-122000300D01*
X111966900Y-120880000D02*
X113087200Y-122000300D01*
X110790000Y-120880000D02*
X111966900Y-120880000D01*
X118110000Y-120805000D02*
X116933100Y-120805000D01*
X113091200Y-116924300D02*
X111966900Y-115800000D01*
X116101600Y-116924300D02*
X113091200Y-116924300D01*
X116933100Y-116092800D02*
X116101600Y-116924300D01*
X116933100Y-115725000D02*
X116933100Y-116092800D01*
X118110000Y-115725000D02*
X116933100Y-115725000D01*
X110790000Y-115800000D02*
X111966900Y-115800000D01*
X116933100Y-105930800D02*
X116933100Y-105565000D01*
X116103600Y-106760300D02*
X116933100Y-105930800D01*
X113087200Y-106760300D02*
X116103600Y-106760300D01*
X111966900Y-105640000D02*
X113087200Y-106760300D01*
X110790000Y-105640000D02*
X111966900Y-105640000D01*
X118110000Y-105565000D02*
X116933100Y-105565000D01*
X116933100Y-103390800D02*
X116933100Y-103025000D01*
X116103600Y-104220300D02*
X116933100Y-103390800D01*
X113087200Y-104220300D02*
X116103600Y-104220300D01*
X111966900Y-103100000D02*
X113087200Y-104220300D01*
X110790000Y-103100000D02*
X111966900Y-103100000D01*
X118110000Y-103025000D02*
X116933100Y-103025000D01*
X116933100Y-98310800D02*
X116933100Y-97945000D01*
X116103600Y-99140300D02*
X116933100Y-98310800D01*
X113087200Y-99140300D02*
X116103600Y-99140300D01*
X111966900Y-98020000D02*
X113087200Y-99140300D01*
X110790000Y-98020000D02*
X111966900Y-98020000D01*
X118110000Y-97945000D02*
X116933100Y-97945000D01*
X113070000Y-96583100D02*
X111966900Y-95480000D01*
X116122800Y-96583100D02*
X113070000Y-96583100D01*
X116933100Y-95772800D02*
X116122800Y-96583100D01*
X116933100Y-95405000D02*
X116933100Y-95772800D01*
X118110000Y-95405000D02*
X116933100Y-95405000D01*
X110790000Y-95480000D02*
X111966900Y-95480000D01*
X116933100Y-90690800D02*
X116933100Y-90325000D01*
X116103600Y-91520300D02*
X116933100Y-90690800D01*
X113087200Y-91520300D02*
X116103600Y-91520300D01*
X111966900Y-90400000D02*
X113087200Y-91520300D01*
X110790000Y-90400000D02*
X111966900Y-90400000D01*
X118110000Y-90325000D02*
X116933100Y-90325000D01*
X118475800Y-94041900D02*
X118110000Y-94041900D01*
X119304000Y-94870100D02*
X118475800Y-94041900D01*
X119304000Y-98481900D02*
X119304000Y-94870100D01*
X118477800Y-99308100D02*
X119304000Y-98481900D01*
X118110000Y-99308100D02*
X118477800Y-99308100D01*
X118110000Y-100485000D02*
X118110000Y-99308100D01*
X139060000Y-108055000D02*
X139060000Y-107466500D01*
X110790000Y-82780000D02*
X110790000Y-83368400D01*
X131655000Y-123332500D02*
X131655000Y-123795900D01*
X109613100Y-115025300D02*
X110790000Y-113848400D01*
X109613100Y-116354100D02*
X109613100Y-115025300D01*
X110422100Y-117163100D02*
X109613100Y-116354100D01*
X110790000Y-117163100D02*
X110422100Y-117163100D01*
X110790000Y-118340000D02*
X110790000Y-117163100D01*
X108250000Y-125960000D02*
X108250000Y-124783100D01*
X110790000Y-118340000D02*
X110790000Y-119516900D01*
X118110000Y-92865000D02*
X118110000Y-93928500D01*
X118110000Y-93928500D02*
X118110000Y-94040400D01*
X110790000Y-113260000D02*
X110790000Y-113554200D01*
X110790000Y-113554200D02*
X110790000Y-113848400D01*
X108250000Y-108180000D02*
X108250000Y-108768400D01*
X108250000Y-108768400D02*
X108250000Y-109356900D01*
X110424200Y-101736900D02*
X110790000Y-101736900D01*
X109520000Y-102641100D02*
X110424200Y-101736900D01*
X109520000Y-107498400D02*
X109520000Y-102641100D01*
X108250000Y-108768400D02*
X109520000Y-107498400D01*
X118110000Y-94040400D02*
X118110000Y-94041900D01*
X110790000Y-92940000D02*
X110790000Y-92427400D01*
X112497600Y-94135000D02*
X110790000Y-92427400D01*
X118015400Y-94135000D02*
X112497600Y-94135000D01*
X118110000Y-94040400D02*
X118015400Y-94135000D01*
X108615800Y-89036900D02*
X108250000Y-89036900D01*
X109520000Y-89941100D02*
X108615800Y-89036900D01*
X109520000Y-91157400D02*
X109520000Y-89941100D01*
X110790000Y-92427400D02*
X109520000Y-91157400D01*
X108250000Y-87860000D02*
X108250000Y-88448400D01*
X108250000Y-88448400D02*
X108250000Y-89036900D01*
X115570000Y-125885000D02*
X114393100Y-125885000D01*
X113198100Y-124690000D02*
X114393100Y-125885000D01*
X110142800Y-124690000D02*
X113198100Y-124690000D01*
X109426900Y-123974100D02*
X110142800Y-124690000D01*
X108617900Y-124783100D02*
X109426900Y-123974100D01*
X108250000Y-124783100D02*
X108617900Y-124783100D01*
X110424200Y-119516900D02*
X110790000Y-119516900D01*
X109426900Y-120514200D02*
X110424200Y-119516900D01*
X109426900Y-123974100D02*
X109426900Y-120514200D01*
X115570000Y-108105000D02*
X115570000Y-108693400D01*
X109520000Y-112284200D02*
X109520000Y-110261100D01*
X110790000Y-113554200D02*
X109520000Y-112284200D01*
X108615800Y-109356900D02*
X108250000Y-109356900D01*
X109520000Y-110261100D02*
X108615800Y-109356900D01*
X118110000Y-113185000D02*
X118110000Y-112008100D01*
X115507900Y-108755500D02*
X115570000Y-108693400D01*
X115507900Y-108838000D02*
X115507900Y-108755500D01*
X114819200Y-109526700D02*
X115507900Y-108838000D01*
X110254400Y-109526700D02*
X114819200Y-109526700D01*
X109520000Y-110261100D02*
X110254400Y-109526700D01*
X117744200Y-112008100D02*
X118110000Y-112008100D01*
X116840000Y-111103900D02*
X117744200Y-112008100D01*
X116840000Y-110170100D02*
X116840000Y-111103900D01*
X115507900Y-108838000D02*
X116840000Y-110170100D01*
X110790000Y-100560000D02*
X110790000Y-101586000D01*
X110790000Y-101586000D02*
X110790000Y-101660400D01*
X110790000Y-101660400D02*
X110790000Y-101736900D01*
X116933100Y-100850800D02*
X116933100Y-100485000D01*
X116028900Y-101755000D02*
X116933100Y-100850800D01*
X110884600Y-101755000D02*
X116028900Y-101755000D01*
X110790000Y-101660400D02*
X110884600Y-101755000D01*
X118110000Y-100485000D02*
X116933100Y-100485000D01*
X115570000Y-87785000D02*
X114393100Y-87785000D01*
X112219900Y-85611800D02*
X114393100Y-87785000D01*
X112219900Y-84798300D02*
X112219900Y-85611800D01*
X110790000Y-83368400D02*
X112219900Y-84798300D01*
X110152100Y-86546300D02*
X108250000Y-88448400D01*
X111285400Y-86546300D02*
X110152100Y-86546300D01*
X112219900Y-85611800D02*
X111285400Y-86546300D01*
X115935800Y-86608100D02*
X115570000Y-86608100D01*
X116933100Y-85610800D02*
X115935800Y-86608100D01*
X116933100Y-84690900D02*
X116933100Y-85610800D01*
X117742100Y-83881900D02*
X116933100Y-84690900D01*
X118110000Y-83881900D02*
X117742100Y-83881900D01*
X118110000Y-82705000D02*
X118110000Y-83881900D01*
X115570000Y-87785000D02*
X115570000Y-86608100D01*
X126155000Y-123332500D02*
X126155000Y-123795900D01*
X141234200Y-101611900D02*
X141600000Y-101611900D01*
X140330000Y-102516100D02*
X141234200Y-101611900D01*
X140330000Y-106196500D02*
X140330000Y-102516100D01*
X139060000Y-107466500D02*
X140330000Y-106196500D01*
X141600000Y-101023400D02*
X141600000Y-101611900D01*
X141600000Y-101023400D02*
X141600000Y-100435000D01*
X141965800Y-93991900D02*
X141600000Y-93991900D01*
X142794000Y-94820100D02*
X141965800Y-93991900D01*
X142794000Y-98431900D02*
X142794000Y-94820100D01*
X141967800Y-99258100D02*
X142794000Y-98431900D01*
X141600000Y-99258100D02*
X141967800Y-99258100D01*
X141600000Y-100435000D02*
X141600000Y-99258100D01*
X141600000Y-92815000D02*
X141600000Y-93403400D01*
X141600000Y-93403400D02*
X141600000Y-93991900D01*
X139425800Y-88911900D02*
X139060000Y-88911900D01*
X140330000Y-89816100D02*
X139425800Y-88911900D01*
X140330000Y-92133400D02*
X140330000Y-89816100D01*
X141600000Y-93403400D02*
X140330000Y-92133400D01*
X139060000Y-87735000D02*
X139060000Y-88323400D01*
X139060000Y-88323400D02*
X139060000Y-88911900D01*
X141234200Y-83831900D02*
X141600000Y-83831900D01*
X140330000Y-84736100D02*
X141234200Y-83831900D01*
X140330000Y-87053400D02*
X140330000Y-84736100D01*
X139060000Y-88323400D02*
X140330000Y-87053400D01*
X141600000Y-82655000D02*
X141600000Y-83831900D01*
X109426900Y-82414200D02*
X109426900Y-82780000D01*
X110256400Y-81584700D02*
X109426900Y-82414200D01*
X113272800Y-81584700D02*
X110256400Y-81584700D01*
X114393100Y-82705000D02*
X113272800Y-81584700D01*
X115570000Y-82705000D02*
X114393100Y-82705000D01*
X108250000Y-82780000D02*
X109426900Y-82780000D01*
D21*
X141600000Y-80115000D02*
X141600000Y-77575000D01*
D19*
X127385000Y-123332500D02*
X127385000Y-122405600D01*
X130425000Y-123332500D02*
X130425000Y-122405600D01*
X110790000Y-80240000D02*
X110790000Y-78895000D01*
X110790000Y-78895000D02*
X110790000Y-77700000D01*
X126635000Y-80165000D02*
X118110000Y-80165000D01*
X129520000Y-83050000D02*
X126635000Y-80165000D01*
D20*
X107882100Y-78876900D02*
X108250000Y-78876900D01*
X107073100Y-79685900D02*
X107882100Y-78876900D01*
X107073100Y-96034000D02*
X107073100Y-79685900D01*
X107882200Y-96843100D02*
X107073100Y-96034000D01*
X108250000Y-96843100D02*
X107882200Y-96843100D01*
X108250000Y-98020000D02*
X108250000Y-96843100D01*
X108250000Y-77700000D02*
X108250000Y-78876900D01*
X138692100Y-78751900D02*
X139060000Y-78751900D01*
X137883100Y-79560900D02*
X138692100Y-78751900D01*
X137883100Y-95909000D02*
X137883100Y-79560900D01*
X138692200Y-96718100D02*
X137883100Y-95909000D01*
X139060000Y-96718100D02*
X138692200Y-96718100D01*
X139060000Y-97895000D02*
X139060000Y-96718100D01*
X139060000Y-77575000D02*
X139060000Y-78751900D01*
G04 #@! TA.AperFunction,Conductor*
G36*
X109601905Y-121553515D02*
G01*
X109623804Y-121578787D01*
X109714278Y-121717268D01*
X109714283Y-121717273D01*
X109714284Y-121717276D01*
X109866756Y-121882902D01*
X109866761Y-121882907D01*
X109889362Y-121900498D01*
X110044424Y-122021189D01*
X110044429Y-122021191D01*
X110044431Y-122021193D01*
X110080930Y-122040946D01*
X110130520Y-122090165D01*
X110145628Y-122158382D01*
X110121457Y-122223937D01*
X110080930Y-122259054D01*
X110044431Y-122278806D01*
X110044422Y-122278812D01*
X109866761Y-122417092D01*
X109866756Y-122417097D01*
X109714284Y-122582723D01*
X109714276Y-122582734D01*
X109623808Y-122721206D01*
X109570662Y-122766562D01*
X109501431Y-122775986D01*
X109438095Y-122746484D01*
X109416192Y-122721206D01*
X109325723Y-122582734D01*
X109325715Y-122582723D01*
X109173243Y-122417097D01*
X109173238Y-122417092D01*
X108995577Y-122278812D01*
X108995578Y-122278812D01*
X108995576Y-122278811D01*
X108959070Y-122259055D01*
X108909479Y-122209836D01*
X108894371Y-122141619D01*
X108918541Y-122076064D01*
X108959070Y-122040945D01*
X108959084Y-122040936D01*
X108995576Y-122021189D01*
X109173240Y-121882906D01*
X109325722Y-121717268D01*
X109416193Y-121578790D01*
X109469338Y-121533437D01*
X109538569Y-121524013D01*
X109601905Y-121553515D01*
G37*
G04 #@! TD.AperFunction*
G04 #@! TA.AperFunction,Conductor*
G36*
X109601905Y-116473515D02*
G01*
X109623804Y-116498787D01*
X109714278Y-116637268D01*
X109714283Y-116637273D01*
X109714284Y-116637276D01*
X109866756Y-116802902D01*
X109866761Y-116802907D01*
X109925981Y-116849000D01*
X110044424Y-116941189D01*
X110044425Y-116941189D01*
X110044427Y-116941191D01*
X110145819Y-116996061D01*
X110242426Y-117048342D01*
X110455365Y-117121444D01*
X110677431Y-117158500D01*
X110902569Y-117158500D01*
X111124635Y-117121444D01*
X111337574Y-117048342D01*
X111535576Y-116941189D01*
X111713240Y-116802906D01*
X111798587Y-116710195D01*
X111858471Y-116674207D01*
X111928309Y-116676307D01*
X111977495Y-116706499D01*
X112584110Y-117313114D01*
X112594016Y-117325478D01*
X112594226Y-117325305D01*
X112599200Y-117331318D01*
X112649602Y-117378648D01*
X112650976Y-117379980D01*
X112671430Y-117400434D01*
X112677002Y-117404756D01*
X112681442Y-117408549D01*
X112715878Y-117440886D01*
X112733767Y-117450720D01*
X112750033Y-117461404D01*
X112766159Y-117473913D01*
X112809498Y-117492667D01*
X112814745Y-117495237D01*
X112856140Y-117517995D01*
X112875918Y-117523073D01*
X112894319Y-117529373D01*
X112913055Y-117537481D01*
X112957562Y-117544529D01*
X112959703Y-117544869D01*
X112965412Y-117546051D01*
X113011170Y-117557800D01*
X113031584Y-117557800D01*
X113050983Y-117559327D01*
X113071143Y-117562520D01*
X113118165Y-117558075D01*
X113124004Y-117557800D01*
X114206965Y-117557800D01*
X114274004Y-117577485D01*
X114319759Y-117630289D01*
X114329703Y-117699447D01*
X114320521Y-117731610D01*
X114280703Y-117822385D01*
X114225436Y-118040628D01*
X114225434Y-118040640D01*
X114206844Y-118264994D01*
X114206844Y-118265005D01*
X114225434Y-118489359D01*
X114225436Y-118489371D01*
X114280703Y-118707614D01*
X114371140Y-118913792D01*
X114494276Y-119102265D01*
X114494284Y-119102276D01*
X114563328Y-119177276D01*
X114646760Y-119267906D01*
X114824424Y-119406189D01*
X114824429Y-119406191D01*
X114824431Y-119406193D01*
X114860930Y-119425946D01*
X114910520Y-119475165D01*
X114925628Y-119543382D01*
X114901457Y-119608937D01*
X114860930Y-119644054D01*
X114824431Y-119663806D01*
X114824422Y-119663812D01*
X114646761Y-119802092D01*
X114646756Y-119802097D01*
X114494284Y-119967723D01*
X114494276Y-119967734D01*
X114371140Y-120156207D01*
X114280703Y-120362385D01*
X114225436Y-120580628D01*
X114225434Y-120580640D01*
X114206844Y-120804994D01*
X114206844Y-120805005D01*
X114225434Y-121029359D01*
X114225436Y-121029371D01*
X114271776Y-121212360D01*
X114269151Y-121282180D01*
X114229195Y-121339497D01*
X114164594Y-121366114D01*
X114151570Y-121366800D01*
X113400967Y-121366800D01*
X113333928Y-121347115D01*
X113313286Y-121330481D01*
X112473988Y-120491183D01*
X112464087Y-120478823D01*
X112463877Y-120478998D01*
X112458901Y-120472984D01*
X112458900Y-120472982D01*
X112408514Y-120425667D01*
X112407139Y-120424334D01*
X112386668Y-120403863D01*
X112384692Y-120402331D01*
X112381083Y-120399531D01*
X112376650Y-120395744D01*
X112342221Y-120363414D01*
X112342219Y-120363412D01*
X112324331Y-120353578D01*
X112308070Y-120342897D01*
X112291939Y-120330384D01*
X112248593Y-120311627D01*
X112243345Y-120309056D01*
X112216151Y-120294106D01*
X112201960Y-120286305D01*
X112198560Y-120285432D01*
X112182187Y-120281228D01*
X112163781Y-120274926D01*
X112145044Y-120266818D01*
X112145046Y-120266818D01*
X112098396Y-120259430D01*
X112092681Y-120258246D01*
X112068019Y-120251914D01*
X112039372Y-120244559D01*
X112040006Y-120242087D01*
X111987382Y-120219137D01*
X111963157Y-120191867D01*
X111865723Y-120042734D01*
X111865715Y-120042723D01*
X111713243Y-119877097D01*
X111713238Y-119877092D01*
X111535577Y-119738812D01*
X111535572Y-119738808D01*
X111337580Y-119631661D01*
X111337577Y-119631659D01*
X111337574Y-119631658D01*
X111337571Y-119631657D01*
X111337569Y-119631656D01*
X111124637Y-119558556D01*
X110902569Y-119521500D01*
X110677431Y-119521500D01*
X110455362Y-119558556D01*
X110242430Y-119631656D01*
X110242419Y-119631661D01*
X110044427Y-119738808D01*
X110044422Y-119738812D01*
X109866761Y-119877092D01*
X109866756Y-119877097D01*
X109714284Y-120042723D01*
X109714276Y-120042734D01*
X109623808Y-120181206D01*
X109570662Y-120226562D01*
X109501431Y-120235986D01*
X109438095Y-120206484D01*
X109416192Y-120181206D01*
X109325723Y-120042734D01*
X109325715Y-120042723D01*
X109173243Y-119877097D01*
X109173238Y-119877092D01*
X108995577Y-119738812D01*
X108995572Y-119738808D01*
X108959068Y-119719053D01*
X108909478Y-119669833D01*
X108894371Y-119601616D01*
X108918542Y-119536061D01*
X108959069Y-119500945D01*
X108995576Y-119481189D01*
X109173240Y-119342906D01*
X109325722Y-119177268D01*
X109448860Y-118988791D01*
X109539296Y-118782616D01*
X109594564Y-118564368D01*
X109613156Y-118340000D01*
X109606941Y-118265000D01*
X109594565Y-118115640D01*
X109594563Y-118115628D01*
X109539296Y-117897385D01*
X109506398Y-117822385D01*
X109448860Y-117691209D01*
X109325722Y-117502732D01*
X109325719Y-117502729D01*
X109325715Y-117502723D01*
X109173243Y-117337097D01*
X109173238Y-117337092D01*
X108995577Y-117198812D01*
X108995572Y-117198808D01*
X108959068Y-117179053D01*
X108909478Y-117129833D01*
X108894371Y-117061616D01*
X108918542Y-116996061D01*
X108959069Y-116960945D01*
X108995576Y-116941189D01*
X109173240Y-116802906D01*
X109325722Y-116637268D01*
X109416193Y-116498790D01*
X109469338Y-116453437D01*
X109538569Y-116444013D01*
X109601905Y-116473515D01*
G37*
G04 #@! TD.AperFunction*
G04 #@! TA.AperFunction,Conductor*
G36*
X111928309Y-106516307D02*
G01*
X111977495Y-106546499D01*
X112580110Y-107149114D01*
X112590016Y-107161478D01*
X112590226Y-107161305D01*
X112595200Y-107167318D01*
X112645602Y-107214648D01*
X112646976Y-107215980D01*
X112667430Y-107236434D01*
X112673002Y-107240756D01*
X112677442Y-107244549D01*
X112711878Y-107276886D01*
X112729767Y-107286720D01*
X112746033Y-107297404D01*
X112762159Y-107309913D01*
X112805498Y-107328667D01*
X112810745Y-107331237D01*
X112852140Y-107353995D01*
X112871918Y-107359073D01*
X112890321Y-107365374D01*
X112909052Y-107373480D01*
X112909053Y-107373480D01*
X112909055Y-107373481D01*
X112936450Y-107377819D01*
X112955697Y-107380868D01*
X112961413Y-107382051D01*
X113007170Y-107393800D01*
X113027590Y-107393800D01*
X113046989Y-107395327D01*
X113067141Y-107398518D01*
X113067142Y-107398519D01*
X113067142Y-107398518D01*
X113067143Y-107398519D01*
X113114158Y-107394075D01*
X113119996Y-107393800D01*
X116019966Y-107393800D01*
X116035713Y-107395538D01*
X116035739Y-107395268D01*
X116043506Y-107396002D01*
X116043508Y-107396001D01*
X116043509Y-107396002D01*
X116052859Y-107395708D01*
X116112591Y-107393831D01*
X116114539Y-107393800D01*
X116143457Y-107393800D01*
X116144822Y-107393627D01*
X116150462Y-107392914D01*
X116156285Y-107392456D01*
X116182308Y-107391638D01*
X116203490Y-107390973D01*
X116213281Y-107388127D01*
X116223081Y-107385280D01*
X116242138Y-107381332D01*
X116262397Y-107378774D01*
X116306321Y-107361382D01*
X116311821Y-107359499D01*
X116357193Y-107346318D01*
X116374765Y-107335925D01*
X116392232Y-107327368D01*
X116411217Y-107319852D01*
X116449426Y-107292090D01*
X116454304Y-107288885D01*
X116494962Y-107264842D01*
X116509402Y-107250400D01*
X116524192Y-107237770D01*
X116540707Y-107225772D01*
X116570822Y-107189367D01*
X116574726Y-107185076D01*
X117112219Y-106647583D01*
X117173540Y-106614100D01*
X117243232Y-106619084D01*
X117276061Y-106637413D01*
X117300190Y-106656193D01*
X117364424Y-106706189D01*
X117364429Y-106706191D01*
X117364431Y-106706193D01*
X117400930Y-106725946D01*
X117450520Y-106775165D01*
X117465628Y-106843382D01*
X117441457Y-106908937D01*
X117400930Y-106944054D01*
X117364431Y-106963806D01*
X117364422Y-106963812D01*
X117186761Y-107102092D01*
X117186756Y-107102097D01*
X117034284Y-107267723D01*
X117034276Y-107267734D01*
X116911140Y-107456207D01*
X116820703Y-107662385D01*
X116765436Y-107880628D01*
X116765434Y-107880640D01*
X116746844Y-108104994D01*
X116746844Y-108105005D01*
X116765434Y-108329359D01*
X116765436Y-108329371D01*
X116820703Y-108547614D01*
X116911140Y-108753792D01*
X117034276Y-108942265D01*
X117034284Y-108942276D01*
X117140731Y-109057906D01*
X117186760Y-109107906D01*
X117364424Y-109246189D01*
X117364429Y-109246191D01*
X117364431Y-109246193D01*
X117400930Y-109265946D01*
X117450520Y-109315165D01*
X117465628Y-109383382D01*
X117441457Y-109448937D01*
X117400930Y-109484054D01*
X117364431Y-109503806D01*
X117364422Y-109503812D01*
X117186761Y-109642092D01*
X117186756Y-109642097D01*
X117034284Y-109807723D01*
X117034276Y-109807734D01*
X116943808Y-109946206D01*
X116890662Y-109991562D01*
X116821431Y-110000986D01*
X116758095Y-109971484D01*
X116736192Y-109946206D01*
X116645723Y-109807734D01*
X116645715Y-109807723D01*
X116493243Y-109642097D01*
X116493238Y-109642092D01*
X116374797Y-109549905D01*
X116315576Y-109503811D01*
X116315575Y-109503810D01*
X116315572Y-109503808D01*
X116117580Y-109396661D01*
X116117577Y-109396659D01*
X116117574Y-109396658D01*
X116117571Y-109396657D01*
X116117569Y-109396656D01*
X115904637Y-109323556D01*
X115682569Y-109286500D01*
X115457431Y-109286500D01*
X115235362Y-109323556D01*
X115022430Y-109396656D01*
X115022419Y-109396661D01*
X114824427Y-109503808D01*
X114824422Y-109503812D01*
X114646761Y-109642092D01*
X114646756Y-109642097D01*
X114494284Y-109807723D01*
X114494276Y-109807734D01*
X114371140Y-109996207D01*
X114280703Y-110202385D01*
X114225436Y-110420628D01*
X114225434Y-110420640D01*
X114206844Y-110644994D01*
X114206844Y-110645005D01*
X114225434Y-110869359D01*
X114225436Y-110869371D01*
X114280703Y-111087614D01*
X114371140Y-111293792D01*
X114494276Y-111482265D01*
X114494284Y-111482276D01*
X114563328Y-111557276D01*
X114646760Y-111647906D01*
X114824424Y-111786189D01*
X114824429Y-111786191D01*
X114824431Y-111786193D01*
X114860930Y-111805946D01*
X114910520Y-111855165D01*
X114925628Y-111923382D01*
X114901457Y-111988937D01*
X114860930Y-112024054D01*
X114824431Y-112043806D01*
X114824422Y-112043812D01*
X114646761Y-112182092D01*
X114646756Y-112182097D01*
X114494284Y-112347723D01*
X114494276Y-112347734D01*
X114371140Y-112536207D01*
X114280703Y-112742385D01*
X114225436Y-112960628D01*
X114225434Y-112960640D01*
X114206844Y-113184994D01*
X114206844Y-113185005D01*
X114225434Y-113409359D01*
X114225436Y-113409371D01*
X114280703Y-113627614D01*
X114371140Y-113833792D01*
X114494276Y-114022265D01*
X114494284Y-114022276D01*
X114563328Y-114097276D01*
X114646760Y-114187906D01*
X114824424Y-114326189D01*
X114860930Y-114345945D01*
X114910519Y-114395162D01*
X114925629Y-114463378D01*
X114901459Y-114528934D01*
X114860932Y-114564052D01*
X114824432Y-114583805D01*
X114824422Y-114583812D01*
X114646761Y-114722092D01*
X114646756Y-114722097D01*
X114494284Y-114887723D01*
X114494276Y-114887734D01*
X114371140Y-115076207D01*
X114280703Y-115282385D01*
X114225436Y-115500628D01*
X114225434Y-115500640D01*
X114206844Y-115724994D01*
X114206844Y-115725005D01*
X114225434Y-115949359D01*
X114225436Y-115949371D01*
X114272789Y-116136360D01*
X114270164Y-116206180D01*
X114230208Y-116263497D01*
X114165607Y-116290114D01*
X114152583Y-116290800D01*
X113404967Y-116290800D01*
X113337928Y-116271115D01*
X113317286Y-116254481D01*
X112473988Y-115411183D01*
X112464087Y-115398823D01*
X112463877Y-115398998D01*
X112458901Y-115392984D01*
X112458900Y-115392982D01*
X112408514Y-115345667D01*
X112407139Y-115344334D01*
X112386668Y-115323863D01*
X112384692Y-115322331D01*
X112381083Y-115319531D01*
X112376650Y-115315744D01*
X112342221Y-115283414D01*
X112342219Y-115283412D01*
X112324331Y-115273578D01*
X112308070Y-115262897D01*
X112291939Y-115250384D01*
X112248593Y-115231627D01*
X112243345Y-115229056D01*
X112216151Y-115214106D01*
X112201960Y-115206305D01*
X112198560Y-115205432D01*
X112182187Y-115201228D01*
X112163781Y-115194926D01*
X112145044Y-115186818D01*
X112145046Y-115186818D01*
X112098396Y-115179430D01*
X112092681Y-115178246D01*
X112068019Y-115171914D01*
X112039372Y-115164559D01*
X112040006Y-115162087D01*
X111987382Y-115139137D01*
X111963157Y-115111867D01*
X111865723Y-114962734D01*
X111865715Y-114962723D01*
X111713243Y-114797097D01*
X111713238Y-114797092D01*
X111535577Y-114658812D01*
X111535572Y-114658808D01*
X111337580Y-114551661D01*
X111337577Y-114551659D01*
X111337574Y-114551658D01*
X111337571Y-114551657D01*
X111337569Y-114551656D01*
X111124637Y-114478556D01*
X110902569Y-114441500D01*
X110677431Y-114441500D01*
X110455362Y-114478556D01*
X110242430Y-114551656D01*
X110242419Y-114551661D01*
X110044427Y-114658808D01*
X110044422Y-114658812D01*
X109866761Y-114797092D01*
X109866756Y-114797097D01*
X109714284Y-114962723D01*
X109714276Y-114962734D01*
X109623808Y-115101206D01*
X109570662Y-115146562D01*
X109501431Y-115155986D01*
X109438095Y-115126484D01*
X109416192Y-115101206D01*
X109325723Y-114962734D01*
X109325715Y-114962723D01*
X109173243Y-114797097D01*
X109173238Y-114797092D01*
X108995577Y-114658812D01*
X108995578Y-114658812D01*
X108995576Y-114658811D01*
X108959070Y-114639055D01*
X108909479Y-114589836D01*
X108894371Y-114521619D01*
X108918541Y-114456064D01*
X108959070Y-114420945D01*
X108959084Y-114420936D01*
X108995576Y-114401189D01*
X109173240Y-114262906D01*
X109325722Y-114097268D01*
X109448860Y-113908791D01*
X109539296Y-113702616D01*
X109594564Y-113484368D01*
X109613156Y-113260000D01*
X109606941Y-113185000D01*
X109594565Y-113035640D01*
X109594563Y-113035628D01*
X109539296Y-112817385D01*
X109506398Y-112742385D01*
X109448860Y-112611209D01*
X109325722Y-112422732D01*
X109325719Y-112422729D01*
X109325715Y-112422723D01*
X109173243Y-112257097D01*
X109173238Y-112257092D01*
X108995577Y-112118812D01*
X108995578Y-112118812D01*
X108995576Y-112118811D01*
X108959070Y-112099055D01*
X108909479Y-112049836D01*
X108894371Y-111981619D01*
X108918541Y-111916064D01*
X108959070Y-111880945D01*
X108959084Y-111880936D01*
X108995576Y-111861189D01*
X109173240Y-111722906D01*
X109325722Y-111557268D01*
X109416193Y-111418790D01*
X109469338Y-111373437D01*
X109538569Y-111364013D01*
X109601905Y-111393515D01*
X109623804Y-111418787D01*
X109714278Y-111557268D01*
X109714283Y-111557273D01*
X109714284Y-111557276D01*
X109866756Y-111722902D01*
X109866760Y-111722906D01*
X110044424Y-111861189D01*
X110044425Y-111861189D01*
X110044427Y-111861191D01*
X110143858Y-111915000D01*
X110242426Y-111968342D01*
X110455365Y-112041444D01*
X110677431Y-112078500D01*
X110902569Y-112078500D01*
X111124635Y-112041444D01*
X111337574Y-111968342D01*
X111535576Y-111861189D01*
X111713240Y-111722906D01*
X111865722Y-111557268D01*
X111988860Y-111368791D01*
X112079296Y-111162616D01*
X112134564Y-110944368D01*
X112153156Y-110720000D01*
X112146941Y-110645000D01*
X112134565Y-110495640D01*
X112134563Y-110495628D01*
X112079296Y-110277385D01*
X112046398Y-110202385D01*
X111988860Y-110071209D01*
X111972706Y-110046484D01*
X111923706Y-109971484D01*
X111865722Y-109882732D01*
X111865719Y-109882729D01*
X111865715Y-109882723D01*
X111713243Y-109717097D01*
X111713238Y-109717092D01*
X111535577Y-109578812D01*
X111535578Y-109578812D01*
X111535576Y-109578811D01*
X111499070Y-109559055D01*
X111449479Y-109509836D01*
X111434371Y-109441619D01*
X111458541Y-109376064D01*
X111499070Y-109340945D01*
X111499084Y-109340936D01*
X111535576Y-109321189D01*
X111713240Y-109182906D01*
X111828312Y-109057906D01*
X111865715Y-109017276D01*
X111865716Y-109017274D01*
X111865722Y-109017268D01*
X111988860Y-108828791D01*
X112079296Y-108622616D01*
X112134564Y-108404368D01*
X112153156Y-108180000D01*
X112146941Y-108105000D01*
X112134565Y-107955640D01*
X112134563Y-107955628D01*
X112102910Y-107830632D01*
X112079296Y-107737384D01*
X111988860Y-107531209D01*
X111865722Y-107342732D01*
X111865719Y-107342729D01*
X111865715Y-107342723D01*
X111713243Y-107177097D01*
X111713238Y-107177092D01*
X111594797Y-107084905D01*
X111535576Y-107038811D01*
X111499070Y-107019055D01*
X111449479Y-106969836D01*
X111434371Y-106901619D01*
X111458541Y-106836064D01*
X111499070Y-106800945D01*
X111499084Y-106800936D01*
X111535576Y-106781189D01*
X111713240Y-106642906D01*
X111798587Y-106550195D01*
X111858471Y-106514207D01*
X111928309Y-106516307D01*
G37*
G04 #@! TD.AperFunction*
G04 #@! TA.AperFunction,Conductor*
G36*
X109601905Y-103773515D02*
G01*
X109623804Y-103798787D01*
X109714278Y-103937268D01*
X109714283Y-103937273D01*
X109714284Y-103937276D01*
X109866756Y-104102902D01*
X109866761Y-104102907D01*
X109883823Y-104116187D01*
X110044424Y-104241189D01*
X110080930Y-104260945D01*
X110130519Y-104310162D01*
X110145629Y-104378378D01*
X110121459Y-104443934D01*
X110080932Y-104479052D01*
X110044432Y-104498805D01*
X110044422Y-104498812D01*
X109866761Y-104637092D01*
X109866756Y-104637097D01*
X109714284Y-104802723D01*
X109714276Y-104802734D01*
X109623808Y-104941206D01*
X109570662Y-104986562D01*
X109501431Y-104995986D01*
X109438095Y-104966484D01*
X109416192Y-104941206D01*
X109325723Y-104802734D01*
X109325715Y-104802723D01*
X109173243Y-104637097D01*
X109173238Y-104637092D01*
X109054797Y-104544905D01*
X108995576Y-104498811D01*
X108959070Y-104479055D01*
X108909479Y-104429836D01*
X108894371Y-104361619D01*
X108918541Y-104296064D01*
X108959070Y-104260945D01*
X108959084Y-104260936D01*
X108995576Y-104241189D01*
X109173240Y-104102906D01*
X109288312Y-103977906D01*
X109325715Y-103937276D01*
X109325715Y-103937275D01*
X109325722Y-103937268D01*
X109416193Y-103798790D01*
X109469338Y-103753437D01*
X109538569Y-103744013D01*
X109601905Y-103773515D01*
G37*
G04 #@! TD.AperFunction*
G04 #@! TA.AperFunction,Conductor*
G36*
X109601905Y-98693515D02*
G01*
X109623804Y-98718787D01*
X109714278Y-98857268D01*
X109714283Y-98857273D01*
X109714284Y-98857276D01*
X109866756Y-99022902D01*
X109866761Y-99022907D01*
X109883823Y-99036187D01*
X110044424Y-99161189D01*
X110044425Y-99161189D01*
X110044427Y-99161191D01*
X110162034Y-99224836D01*
X110242426Y-99268342D01*
X110455365Y-99341444D01*
X110677431Y-99378500D01*
X110902569Y-99378500D01*
X111124635Y-99341444D01*
X111337574Y-99268342D01*
X111535576Y-99161189D01*
X111713240Y-99022906D01*
X111798587Y-98930195D01*
X111858471Y-98894207D01*
X111928309Y-98896307D01*
X111977495Y-98926499D01*
X112580110Y-99529114D01*
X112590016Y-99541478D01*
X112590226Y-99541305D01*
X112595200Y-99547318D01*
X112645602Y-99594648D01*
X112646976Y-99595980D01*
X112667430Y-99616434D01*
X112673002Y-99620756D01*
X112677442Y-99624549D01*
X112711878Y-99656886D01*
X112729767Y-99666720D01*
X112746033Y-99677404D01*
X112762159Y-99689913D01*
X112805498Y-99708667D01*
X112810745Y-99711237D01*
X112852140Y-99733995D01*
X112871918Y-99739073D01*
X112890321Y-99745374D01*
X112909052Y-99753480D01*
X112909053Y-99753480D01*
X112909055Y-99753481D01*
X112936450Y-99757819D01*
X112955697Y-99760868D01*
X112961413Y-99762051D01*
X113007170Y-99773800D01*
X113027590Y-99773800D01*
X113046989Y-99775327D01*
X113067141Y-99778518D01*
X113067142Y-99778519D01*
X113067142Y-99778518D01*
X113067143Y-99778519D01*
X113114158Y-99774075D01*
X113119996Y-99773800D01*
X114208719Y-99773800D01*
X114275758Y-99793485D01*
X114321513Y-99846289D01*
X114331457Y-99915447D01*
X114322275Y-99947609D01*
X114280705Y-100042381D01*
X114280703Y-100042385D01*
X114225436Y-100260628D01*
X114225434Y-100260640D01*
X114206844Y-100484994D01*
X114206844Y-100485005D01*
X114225434Y-100709359D01*
X114225436Y-100709371D01*
X114280703Y-100927614D01*
X114371140Y-101133792D01*
X114494276Y-101322265D01*
X114494284Y-101322276D01*
X114600731Y-101437906D01*
X114646760Y-101487906D01*
X114824424Y-101626189D01*
X114860930Y-101645945D01*
X114910519Y-101695162D01*
X114925629Y-101763378D01*
X114901459Y-101828934D01*
X114860932Y-101864052D01*
X114824432Y-101883805D01*
X114824422Y-101883812D01*
X114646761Y-102022092D01*
X114646756Y-102022097D01*
X114494284Y-102187723D01*
X114494276Y-102187734D01*
X114371140Y-102376207D01*
X114280703Y-102582385D01*
X114225436Y-102800628D01*
X114225434Y-102800640D01*
X114206844Y-103024994D01*
X114206844Y-103025005D01*
X114225434Y-103249359D01*
X114225436Y-103249371D01*
X114271776Y-103432360D01*
X114269151Y-103502180D01*
X114229195Y-103559497D01*
X114164594Y-103586114D01*
X114151570Y-103586800D01*
X113400967Y-103586800D01*
X113333928Y-103567115D01*
X113313286Y-103550481D01*
X112473988Y-102711183D01*
X112464087Y-102698823D01*
X112463877Y-102698998D01*
X112458901Y-102692984D01*
X112458900Y-102692982D01*
X112408514Y-102645667D01*
X112407139Y-102644334D01*
X112386668Y-102623863D01*
X112384692Y-102622331D01*
X112381083Y-102619531D01*
X112376650Y-102615744D01*
X112342221Y-102583414D01*
X112342219Y-102583412D01*
X112324331Y-102573578D01*
X112308070Y-102562897D01*
X112291939Y-102550384D01*
X112248593Y-102531627D01*
X112243345Y-102529056D01*
X112216151Y-102514106D01*
X112201960Y-102506305D01*
X112198560Y-102505432D01*
X112182187Y-102501228D01*
X112163781Y-102494926D01*
X112145044Y-102486818D01*
X112145046Y-102486818D01*
X112098396Y-102479430D01*
X112092681Y-102478246D01*
X112068019Y-102471914D01*
X112039372Y-102464559D01*
X112040006Y-102462087D01*
X111987382Y-102439137D01*
X111963157Y-102411867D01*
X111907192Y-102326206D01*
X111865722Y-102262732D01*
X111865719Y-102262729D01*
X111865715Y-102262723D01*
X111713243Y-102097097D01*
X111713238Y-102097092D01*
X111594797Y-102004905D01*
X111535576Y-101958811D01*
X111535575Y-101958810D01*
X111535572Y-101958808D01*
X111337580Y-101851661D01*
X111337577Y-101851659D01*
X111337574Y-101851658D01*
X111337571Y-101851657D01*
X111337569Y-101851656D01*
X111124637Y-101778556D01*
X110902569Y-101741500D01*
X110677431Y-101741500D01*
X110455362Y-101778556D01*
X110242430Y-101851656D01*
X110242419Y-101851661D01*
X110044427Y-101958808D01*
X110044422Y-101958812D01*
X109866761Y-102097092D01*
X109866756Y-102097097D01*
X109714284Y-102262723D01*
X109714276Y-102262734D01*
X109623808Y-102401206D01*
X109570662Y-102446562D01*
X109501431Y-102455986D01*
X109438095Y-102426484D01*
X109416192Y-102401206D01*
X109325723Y-102262734D01*
X109325715Y-102262723D01*
X109173243Y-102097097D01*
X109173238Y-102097092D01*
X109054797Y-102004905D01*
X108995576Y-101958811D01*
X108995575Y-101958810D01*
X108995572Y-101958808D01*
X108959068Y-101939053D01*
X108909478Y-101889833D01*
X108894371Y-101821616D01*
X108918542Y-101756061D01*
X108959069Y-101720945D01*
X108995576Y-101701189D01*
X109173240Y-101562906D01*
X109288312Y-101437906D01*
X109325715Y-101397276D01*
X109325716Y-101397274D01*
X109325722Y-101397268D01*
X109448860Y-101208791D01*
X109539296Y-101002616D01*
X109594564Y-100784368D01*
X109613156Y-100560000D01*
X109606941Y-100485000D01*
X109594565Y-100335640D01*
X109594563Y-100335628D01*
X109562910Y-100210632D01*
X109539296Y-100117384D01*
X109448860Y-99911209D01*
X109325722Y-99722732D01*
X109325719Y-99722729D01*
X109325715Y-99722723D01*
X109173243Y-99557097D01*
X109173238Y-99557092D01*
X109054797Y-99464905D01*
X108995576Y-99418811D01*
X108959070Y-99399055D01*
X108909479Y-99349836D01*
X108894371Y-99281619D01*
X108918541Y-99216064D01*
X108959070Y-99180945D01*
X108959084Y-99180936D01*
X108995576Y-99161189D01*
X109173240Y-99022906D01*
X109288312Y-98897906D01*
X109325715Y-98857276D01*
X109325715Y-98857275D01*
X109325722Y-98857268D01*
X109416193Y-98718790D01*
X109469338Y-98673437D01*
X109538569Y-98664013D01*
X109601905Y-98693515D01*
G37*
G04 #@! TD.AperFunction*
G04 #@! TA.AperFunction,Conductor*
G36*
X109601905Y-91073515D02*
G01*
X109623804Y-91098787D01*
X109714278Y-91237268D01*
X109714283Y-91237273D01*
X109714284Y-91237276D01*
X109866756Y-91402902D01*
X109866761Y-91402907D01*
X109883823Y-91416187D01*
X110044424Y-91541189D01*
X110044425Y-91541189D01*
X110044427Y-91541191D01*
X110162034Y-91604836D01*
X110242426Y-91648342D01*
X110455365Y-91721444D01*
X110677431Y-91758500D01*
X110902569Y-91758500D01*
X111124635Y-91721444D01*
X111337574Y-91648342D01*
X111535576Y-91541189D01*
X111713240Y-91402906D01*
X111798587Y-91310195D01*
X111858471Y-91274207D01*
X111928309Y-91276307D01*
X111977495Y-91306499D01*
X112580110Y-91909114D01*
X112590016Y-91921478D01*
X112590226Y-91921305D01*
X112595200Y-91927318D01*
X112645602Y-91974648D01*
X112646976Y-91975980D01*
X112667430Y-91996434D01*
X112673002Y-92000756D01*
X112677442Y-92004549D01*
X112711878Y-92036886D01*
X112729767Y-92046720D01*
X112746033Y-92057404D01*
X112762159Y-92069913D01*
X112805498Y-92088667D01*
X112810745Y-92091237D01*
X112852140Y-92113995D01*
X112871918Y-92119073D01*
X112890321Y-92125374D01*
X112909052Y-92133480D01*
X112909053Y-92133480D01*
X112909055Y-92133481D01*
X112936450Y-92137819D01*
X112955697Y-92140868D01*
X112961413Y-92142051D01*
X113007170Y-92153800D01*
X113027590Y-92153800D01*
X113046989Y-92155327D01*
X113067141Y-92158518D01*
X113067142Y-92158519D01*
X113067142Y-92158518D01*
X113067143Y-92158519D01*
X113114158Y-92154075D01*
X113119996Y-92153800D01*
X114208719Y-92153800D01*
X114275758Y-92173485D01*
X114321513Y-92226289D01*
X114331457Y-92295447D01*
X114322275Y-92327609D01*
X114280705Y-92422381D01*
X114280703Y-92422385D01*
X114225436Y-92640628D01*
X114225434Y-92640640D01*
X114206844Y-92864994D01*
X114206844Y-92865005D01*
X114225434Y-93089359D01*
X114225436Y-93089371D01*
X114280703Y-93307614D01*
X114371140Y-93513792D01*
X114494276Y-93702265D01*
X114494284Y-93702276D01*
X114600731Y-93817906D01*
X114646760Y-93867906D01*
X114824424Y-94006189D01*
X114824429Y-94006191D01*
X114824431Y-94006193D01*
X114860930Y-94025946D01*
X114910520Y-94075165D01*
X114925628Y-94143382D01*
X114901457Y-94208937D01*
X114860930Y-94244054D01*
X114824431Y-94263806D01*
X114824422Y-94263812D01*
X114646761Y-94402092D01*
X114646756Y-94402097D01*
X114494284Y-94567723D01*
X114494276Y-94567734D01*
X114371140Y-94756207D01*
X114280703Y-94962385D01*
X114225436Y-95180628D01*
X114225434Y-95180640D01*
X114206844Y-95404994D01*
X114206844Y-95405005D01*
X114225434Y-95629359D01*
X114225436Y-95629371D01*
X114267420Y-95795160D01*
X114264795Y-95864980D01*
X114224839Y-95922298D01*
X114160237Y-95948914D01*
X114147214Y-95949600D01*
X113383766Y-95949600D01*
X113316727Y-95929915D01*
X113296085Y-95913281D01*
X112473988Y-95091183D01*
X112464087Y-95078823D01*
X112463877Y-95078998D01*
X112458902Y-95072986D01*
X112458900Y-95072982D01*
X112408521Y-95025673D01*
X112407153Y-95024348D01*
X112386670Y-95003865D01*
X112386669Y-95003864D01*
X112386667Y-95003862D01*
X112384150Y-95001910D01*
X112381083Y-94999531D01*
X112376650Y-94995744D01*
X112342221Y-94963414D01*
X112342219Y-94963412D01*
X112324331Y-94953578D01*
X112308070Y-94942897D01*
X112291939Y-94930384D01*
X112248593Y-94911627D01*
X112243345Y-94909056D01*
X112216151Y-94894106D01*
X112201960Y-94886305D01*
X112198560Y-94885432D01*
X112182187Y-94881228D01*
X112163781Y-94874926D01*
X112145044Y-94866818D01*
X112145046Y-94866818D01*
X112098396Y-94859430D01*
X112092681Y-94858246D01*
X112068019Y-94851914D01*
X112039372Y-94844559D01*
X112040006Y-94842087D01*
X111987382Y-94819137D01*
X111963157Y-94791867D01*
X111907192Y-94706206D01*
X111865722Y-94642732D01*
X111865719Y-94642729D01*
X111865715Y-94642723D01*
X111713243Y-94477097D01*
X111713238Y-94477092D01*
X111594797Y-94384905D01*
X111535576Y-94338811D01*
X111535575Y-94338810D01*
X111535572Y-94338808D01*
X111337580Y-94231661D01*
X111337577Y-94231659D01*
X111337574Y-94231658D01*
X111337571Y-94231657D01*
X111337569Y-94231656D01*
X111124637Y-94158556D01*
X110902569Y-94121500D01*
X110677431Y-94121500D01*
X110455362Y-94158556D01*
X110242430Y-94231656D01*
X110242419Y-94231661D01*
X110044427Y-94338808D01*
X110044422Y-94338812D01*
X109866761Y-94477092D01*
X109866756Y-94477097D01*
X109714284Y-94642723D01*
X109714276Y-94642734D01*
X109623808Y-94781206D01*
X109570662Y-94826562D01*
X109501431Y-94835986D01*
X109438095Y-94806484D01*
X109416192Y-94781206D01*
X109325723Y-94642734D01*
X109325715Y-94642723D01*
X109173243Y-94477097D01*
X109173238Y-94477092D01*
X109054797Y-94384905D01*
X108995576Y-94338811D01*
X108959070Y-94319055D01*
X108909479Y-94269836D01*
X108894371Y-94201619D01*
X108918541Y-94136064D01*
X108959070Y-94100945D01*
X108959084Y-94100936D01*
X108995576Y-94081189D01*
X109173240Y-93942906D01*
X109288312Y-93817906D01*
X109325715Y-93777276D01*
X109325716Y-93777274D01*
X109325722Y-93777268D01*
X109448860Y-93588791D01*
X109539296Y-93382616D01*
X109594564Y-93164368D01*
X109613156Y-92940000D01*
X109606941Y-92865000D01*
X109594565Y-92715640D01*
X109594563Y-92715628D01*
X109562910Y-92590632D01*
X109539296Y-92497384D01*
X109448860Y-92291209D01*
X109325722Y-92102732D01*
X109325719Y-92102729D01*
X109325715Y-92102723D01*
X109173243Y-91937097D01*
X109173238Y-91937092D01*
X109054797Y-91844905D01*
X108995576Y-91798811D01*
X108959070Y-91779055D01*
X108909479Y-91729836D01*
X108894371Y-91661619D01*
X108918541Y-91596064D01*
X108959070Y-91560945D01*
X108959084Y-91560936D01*
X108995576Y-91541189D01*
X109173240Y-91402906D01*
X109288312Y-91277906D01*
X109325715Y-91237276D01*
X109325715Y-91237275D01*
X109325722Y-91237268D01*
X109416193Y-91098790D01*
X109469338Y-91053437D01*
X109538569Y-91044013D01*
X109601905Y-91073515D01*
G37*
G04 #@! TD.AperFunction*
G04 #@! TA.AperFunction,Conductor*
G36*
X113026073Y-82237885D02*
G01*
X113046715Y-82254519D01*
X113886010Y-83093814D01*
X113895916Y-83106178D01*
X113896126Y-83106005D01*
X113901100Y-83112018D01*
X113951502Y-83159348D01*
X113952876Y-83160680D01*
X113973330Y-83181134D01*
X113978902Y-83185456D01*
X113983342Y-83189249D01*
X114017778Y-83221586D01*
X114035667Y-83231420D01*
X114051931Y-83242103D01*
X114068059Y-83254613D01*
X114108236Y-83271999D01*
X114111398Y-83273367D01*
X114116645Y-83275937D01*
X114158040Y-83298695D01*
X114177818Y-83303773D01*
X114196221Y-83310074D01*
X114214952Y-83318180D01*
X114214953Y-83318180D01*
X114214955Y-83318181D01*
X114242350Y-83322519D01*
X114261597Y-83325568D01*
X114267313Y-83326751D01*
X114313070Y-83338500D01*
X114313072Y-83338500D01*
X114320627Y-83340440D01*
X114319992Y-83342911D01*
X114372617Y-83365862D01*
X114396842Y-83393132D01*
X114494276Y-83542265D01*
X114494284Y-83542276D01*
X114600731Y-83657906D01*
X114646760Y-83707906D01*
X114824424Y-83846189D01*
X114824429Y-83846191D01*
X114824431Y-83846193D01*
X114860930Y-83865946D01*
X114910520Y-83915165D01*
X114925628Y-83983382D01*
X114901457Y-84048937D01*
X114860930Y-84084054D01*
X114824431Y-84103806D01*
X114824422Y-84103812D01*
X114646761Y-84242092D01*
X114646756Y-84242097D01*
X114494284Y-84407723D01*
X114494276Y-84407734D01*
X114371140Y-84596207D01*
X114280703Y-84802385D01*
X114225436Y-85020628D01*
X114225434Y-85020640D01*
X114206844Y-85244994D01*
X114206844Y-85245005D01*
X114225434Y-85469359D01*
X114225436Y-85469371D01*
X114280703Y-85687614D01*
X114371140Y-85893792D01*
X114494276Y-86082265D01*
X114494284Y-86082276D01*
X114600731Y-86197906D01*
X114646760Y-86247906D01*
X114824424Y-86386189D01*
X114824425Y-86386189D01*
X114824427Y-86386191D01*
X114925824Y-86441064D01*
X115022426Y-86493342D01*
X115235365Y-86566444D01*
X115457431Y-86603500D01*
X115682569Y-86603500D01*
X115904635Y-86566444D01*
X116117574Y-86493342D01*
X116315576Y-86386189D01*
X116493240Y-86247906D01*
X116645722Y-86082268D01*
X116736193Y-85943790D01*
X116789338Y-85898437D01*
X116858569Y-85889013D01*
X116921905Y-85918515D01*
X116943804Y-85943787D01*
X117034278Y-86082268D01*
X117034283Y-86082273D01*
X117034284Y-86082276D01*
X117140731Y-86197906D01*
X117186760Y-86247906D01*
X117364424Y-86386189D01*
X117364429Y-86386191D01*
X117364431Y-86386193D01*
X117400930Y-86405946D01*
X117450520Y-86455165D01*
X117465628Y-86523382D01*
X117441457Y-86588937D01*
X117400930Y-86624054D01*
X117364431Y-86643806D01*
X117364422Y-86643812D01*
X117186761Y-86782092D01*
X117186756Y-86782097D01*
X117034284Y-86947723D01*
X117034276Y-86947734D01*
X116911140Y-87136207D01*
X116820703Y-87342385D01*
X116765436Y-87560628D01*
X116765434Y-87560640D01*
X116746844Y-87784994D01*
X116746844Y-87785005D01*
X116765434Y-88009359D01*
X116765436Y-88009371D01*
X116820703Y-88227614D01*
X116911140Y-88433792D01*
X117034276Y-88622265D01*
X117034284Y-88622276D01*
X117140731Y-88737906D01*
X117186760Y-88787906D01*
X117364424Y-88926189D01*
X117364429Y-88926191D01*
X117364431Y-88926193D01*
X117400930Y-88945946D01*
X117450520Y-88995165D01*
X117465628Y-89063382D01*
X117441457Y-89128937D01*
X117400930Y-89164054D01*
X117364431Y-89183806D01*
X117364422Y-89183812D01*
X117186761Y-89322092D01*
X117186756Y-89322097D01*
X117034284Y-89487723D01*
X117034276Y-89487734D01*
X116943808Y-89626206D01*
X116890662Y-89671562D01*
X116821431Y-89680986D01*
X116758095Y-89651484D01*
X116736192Y-89626206D01*
X116645723Y-89487734D01*
X116645715Y-89487723D01*
X116493243Y-89322097D01*
X116493238Y-89322092D01*
X116374797Y-89229905D01*
X116315576Y-89183811D01*
X116315575Y-89183810D01*
X116315572Y-89183808D01*
X116117580Y-89076661D01*
X116117577Y-89076659D01*
X116117574Y-89076658D01*
X116117571Y-89076657D01*
X116117569Y-89076656D01*
X115904637Y-89003556D01*
X115682569Y-88966500D01*
X115457431Y-88966500D01*
X115235362Y-89003556D01*
X115022430Y-89076656D01*
X115022419Y-89076661D01*
X114824427Y-89183808D01*
X114824422Y-89183812D01*
X114646761Y-89322092D01*
X114646756Y-89322097D01*
X114494284Y-89487723D01*
X114494276Y-89487734D01*
X114371140Y-89676207D01*
X114280703Y-89882385D01*
X114225436Y-90100628D01*
X114225434Y-90100640D01*
X114206844Y-90324994D01*
X114206844Y-90325005D01*
X114225434Y-90549359D01*
X114225436Y-90549371D01*
X114271776Y-90732360D01*
X114269151Y-90802180D01*
X114229195Y-90859497D01*
X114164594Y-90886114D01*
X114151570Y-90886800D01*
X113400967Y-90886800D01*
X113333928Y-90867115D01*
X113313286Y-90850481D01*
X112473988Y-90011183D01*
X112464087Y-89998823D01*
X112463877Y-89998998D01*
X112458901Y-89992984D01*
X112458900Y-89992982D01*
X112408514Y-89945667D01*
X112407139Y-89944334D01*
X112386668Y-89923863D01*
X112384692Y-89922331D01*
X112381083Y-89919531D01*
X112376650Y-89915744D01*
X112342221Y-89883414D01*
X112342219Y-89883412D01*
X112324331Y-89873578D01*
X112308070Y-89862897D01*
X112291939Y-89850384D01*
X112248593Y-89831627D01*
X112243345Y-89829056D01*
X112216151Y-89814106D01*
X112201960Y-89806305D01*
X112198560Y-89805432D01*
X112182187Y-89801228D01*
X112163781Y-89794926D01*
X112145044Y-89786818D01*
X112145046Y-89786818D01*
X112098396Y-89779430D01*
X112092681Y-89778246D01*
X112068019Y-89771914D01*
X112039372Y-89764559D01*
X112040006Y-89762087D01*
X111987382Y-89739137D01*
X111963157Y-89711867D01*
X111907192Y-89626206D01*
X111865722Y-89562732D01*
X111865719Y-89562729D01*
X111865715Y-89562723D01*
X111713243Y-89397097D01*
X111713238Y-89397092D01*
X111594797Y-89304905D01*
X111535576Y-89258811D01*
X111499070Y-89239055D01*
X111449479Y-89189836D01*
X111434371Y-89121619D01*
X111458541Y-89056064D01*
X111499070Y-89020945D01*
X111499084Y-89020936D01*
X111535576Y-89001189D01*
X111713240Y-88862906D01*
X111828312Y-88737906D01*
X111865715Y-88697276D01*
X111865716Y-88697274D01*
X111865722Y-88697268D01*
X111988860Y-88508791D01*
X112079296Y-88302616D01*
X112134564Y-88084368D01*
X112153156Y-87860000D01*
X112146941Y-87785000D01*
X112134565Y-87635640D01*
X112134563Y-87635628D01*
X112102910Y-87510632D01*
X112079296Y-87417384D01*
X111988860Y-87211209D01*
X111865722Y-87022732D01*
X111865719Y-87022729D01*
X111865715Y-87022723D01*
X111713243Y-86857097D01*
X111713238Y-86857092D01*
X111567228Y-86743447D01*
X111535576Y-86718811D01*
X111499070Y-86699055D01*
X111449479Y-86649836D01*
X111434371Y-86581619D01*
X111458541Y-86516064D01*
X111499070Y-86480945D01*
X111499084Y-86480936D01*
X111535576Y-86461189D01*
X111713240Y-86322906D01*
X111828312Y-86197906D01*
X111865715Y-86157276D01*
X111865717Y-86157273D01*
X111865722Y-86157268D01*
X111988860Y-85968791D01*
X112079296Y-85762616D01*
X112134564Y-85544368D01*
X112153156Y-85320000D01*
X112146941Y-85245000D01*
X112134565Y-85095640D01*
X112134563Y-85095628D01*
X112102910Y-84970632D01*
X112079296Y-84877384D01*
X111988860Y-84671209D01*
X111972706Y-84646484D01*
X111914990Y-84558143D01*
X111865722Y-84482732D01*
X111865719Y-84482729D01*
X111865715Y-84482723D01*
X111713243Y-84317097D01*
X111713238Y-84317092D01*
X111594797Y-84224905D01*
X111535576Y-84178811D01*
X111535575Y-84178810D01*
X111535572Y-84178808D01*
X111337580Y-84071661D01*
X111337577Y-84071659D01*
X111337574Y-84071658D01*
X111337571Y-84071657D01*
X111337569Y-84071656D01*
X111124637Y-83998556D01*
X110902569Y-83961500D01*
X110677431Y-83961500D01*
X110455362Y-83998556D01*
X110242430Y-84071656D01*
X110242419Y-84071661D01*
X110044427Y-84178808D01*
X110044422Y-84178812D01*
X109866761Y-84317092D01*
X109866756Y-84317097D01*
X109714284Y-84482723D01*
X109714276Y-84482734D01*
X109623808Y-84621206D01*
X109570662Y-84666562D01*
X109501431Y-84675986D01*
X109438095Y-84646484D01*
X109416192Y-84621206D01*
X109325723Y-84482734D01*
X109325715Y-84482723D01*
X109173243Y-84317097D01*
X109173238Y-84317092D01*
X109054797Y-84224905D01*
X108995576Y-84178811D01*
X108959070Y-84159055D01*
X108909479Y-84109836D01*
X108894371Y-84041619D01*
X108918541Y-83976064D01*
X108959070Y-83940945D01*
X108959084Y-83940936D01*
X108995576Y-83921189D01*
X109173240Y-83782906D01*
X109288312Y-83657906D01*
X109325715Y-83617276D01*
X109325715Y-83617274D01*
X109325722Y-83617268D01*
X109425373Y-83464739D01*
X109478519Y-83419384D01*
X109521395Y-83408807D01*
X109546550Y-83407225D01*
X109554562Y-83404621D01*
X109577343Y-83399528D01*
X109585697Y-83398474D01*
X109639785Y-83377058D01*
X109643435Y-83375744D01*
X109698775Y-83357764D01*
X109705885Y-83353251D01*
X109726684Y-83342652D01*
X109734517Y-83339552D01*
X109781586Y-83305353D01*
X109784785Y-83303180D01*
X109833918Y-83272000D01*
X109839689Y-83265853D01*
X109857194Y-83250421D01*
X109864007Y-83245472D01*
X109901105Y-83200625D01*
X109903626Y-83197766D01*
X109943486Y-83155321D01*
X109947542Y-83147940D01*
X109960659Y-83128638D01*
X109966033Y-83122144D01*
X109990812Y-83069484D01*
X109992556Y-83066060D01*
X110020595Y-83015060D01*
X110022690Y-83006897D01*
X110030601Y-82984929D01*
X110034183Y-82977318D01*
X110045088Y-82920148D01*
X110045921Y-82916417D01*
X110060400Y-82860030D01*
X110060400Y-82851605D01*
X110062596Y-82828374D01*
X110064175Y-82820094D01*
X110060521Y-82762018D01*
X110060400Y-82758146D01*
X110060400Y-82727966D01*
X110080085Y-82660927D01*
X110096719Y-82640285D01*
X110482485Y-82254519D01*
X110543808Y-82221034D01*
X110570166Y-82218200D01*
X112959034Y-82218200D01*
X113026073Y-82237885D01*
G37*
G04 #@! TD.AperFunction*
G04 #@! TA.AperFunction,Conductor*
G36*
X109601905Y-85993515D02*
G01*
X109623804Y-86018787D01*
X109714278Y-86157268D01*
X109714283Y-86157273D01*
X109714284Y-86157276D01*
X109866756Y-86322902D01*
X109866760Y-86322906D01*
X110044424Y-86461189D01*
X110044429Y-86461191D01*
X110044431Y-86461193D01*
X110080930Y-86480946D01*
X110130520Y-86530165D01*
X110145628Y-86598382D01*
X110121457Y-86663937D01*
X110080930Y-86699054D01*
X110044431Y-86718806D01*
X110044422Y-86718812D01*
X109866761Y-86857092D01*
X109866756Y-86857097D01*
X109714284Y-87022723D01*
X109714276Y-87022734D01*
X109591140Y-87211207D01*
X109500703Y-87417385D01*
X109445436Y-87635628D01*
X109445434Y-87635640D01*
X109426844Y-87859994D01*
X109426844Y-87860005D01*
X109445434Y-88084359D01*
X109445436Y-88084371D01*
X109500703Y-88302614D01*
X109591140Y-88508792D01*
X109714276Y-88697265D01*
X109714284Y-88697276D01*
X109866756Y-88862902D01*
X109866760Y-88862906D01*
X110044424Y-89001189D01*
X110044429Y-89001191D01*
X110044431Y-89001193D01*
X110080930Y-89020946D01*
X110130520Y-89070165D01*
X110145628Y-89138382D01*
X110121457Y-89203937D01*
X110080930Y-89239054D01*
X110044431Y-89258806D01*
X110044422Y-89258812D01*
X109866761Y-89397092D01*
X109866756Y-89397097D01*
X109714284Y-89562723D01*
X109714276Y-89562734D01*
X109623808Y-89701206D01*
X109570662Y-89746562D01*
X109501431Y-89755986D01*
X109438095Y-89726484D01*
X109416192Y-89701206D01*
X109325723Y-89562734D01*
X109325715Y-89562723D01*
X109173243Y-89397097D01*
X109173238Y-89397092D01*
X109054797Y-89304905D01*
X108995576Y-89258811D01*
X108995575Y-89258810D01*
X108995572Y-89258808D01*
X108797580Y-89151661D01*
X108797577Y-89151659D01*
X108797574Y-89151658D01*
X108797571Y-89151657D01*
X108797569Y-89151656D01*
X108584637Y-89078556D01*
X108362569Y-89041500D01*
X108137431Y-89041500D01*
X107915362Y-89078556D01*
X107870863Y-89093833D01*
X107801064Y-89096983D01*
X107740643Y-89061897D01*
X107708782Y-88999714D01*
X107706600Y-88976552D01*
X107706600Y-86743447D01*
X107726285Y-86676408D01*
X107779089Y-86630653D01*
X107848247Y-86620709D01*
X107870855Y-86626163D01*
X107915365Y-86641444D01*
X108137431Y-86678500D01*
X108362569Y-86678500D01*
X108584635Y-86641444D01*
X108797574Y-86568342D01*
X108995576Y-86461189D01*
X109173240Y-86322906D01*
X109288312Y-86197906D01*
X109325715Y-86157276D01*
X109325715Y-86157275D01*
X109325722Y-86157268D01*
X109416193Y-86018790D01*
X109469338Y-85973437D01*
X109538569Y-85964013D01*
X109601905Y-85993515D01*
G37*
G04 #@! TD.AperFunction*
G04 #@! TA.AperFunction,Conductor*
G36*
X140411905Y-103648515D02*
G01*
X140433804Y-103673787D01*
X140524278Y-103812268D01*
X140524283Y-103812273D01*
X140524284Y-103812276D01*
X140675288Y-103976307D01*
X140676760Y-103977906D01*
X140854424Y-104116189D01*
X140854429Y-104116191D01*
X140854431Y-104116193D01*
X140890930Y-104135946D01*
X140940520Y-104185165D01*
X140955628Y-104253382D01*
X140931457Y-104318937D01*
X140890930Y-104354054D01*
X140854431Y-104373806D01*
X140854422Y-104373812D01*
X140676761Y-104512092D01*
X140676756Y-104512097D01*
X140524284Y-104677723D01*
X140524276Y-104677734D01*
X140433808Y-104816206D01*
X140380662Y-104861562D01*
X140311431Y-104870986D01*
X140248095Y-104841484D01*
X140226192Y-104816206D01*
X140150764Y-104700756D01*
X140135722Y-104677732D01*
X140135719Y-104677729D01*
X140135715Y-104677723D01*
X139983243Y-104512097D01*
X139983238Y-104512092D01*
X139844432Y-104404054D01*
X139805576Y-104373811D01*
X139769070Y-104354055D01*
X139719479Y-104304836D01*
X139704371Y-104236619D01*
X139728541Y-104171064D01*
X139769070Y-104135945D01*
X139769084Y-104135936D01*
X139805576Y-104116189D01*
X139983240Y-103977906D01*
X140135722Y-103812268D01*
X140226193Y-103673790D01*
X140279338Y-103628437D01*
X140348569Y-103619013D01*
X140411905Y-103648515D01*
G37*
G04 #@! TD.AperFunction*
G04 #@! TA.AperFunction,Conductor*
G36*
X140411905Y-85868515D02*
G01*
X140433804Y-85893787D01*
X140524278Y-86032268D01*
X140524283Y-86032273D01*
X140524284Y-86032276D01*
X140639354Y-86157273D01*
X140676760Y-86197906D01*
X140854424Y-86336189D01*
X140890930Y-86355945D01*
X140940519Y-86405162D01*
X140955629Y-86473378D01*
X140931459Y-86538934D01*
X140890932Y-86574052D01*
X140854432Y-86593805D01*
X140854422Y-86593812D01*
X140676761Y-86732092D01*
X140676756Y-86732097D01*
X140524284Y-86897723D01*
X140524276Y-86897734D01*
X140401140Y-87086207D01*
X140310703Y-87292385D01*
X140255436Y-87510628D01*
X140255434Y-87510640D01*
X140236844Y-87734994D01*
X140236844Y-87735005D01*
X140255434Y-87959359D01*
X140255436Y-87959371D01*
X140310703Y-88177614D01*
X140401140Y-88383792D01*
X140524276Y-88572265D01*
X140524284Y-88572276D01*
X140639357Y-88697276D01*
X140676760Y-88737906D01*
X140854424Y-88876189D01*
X140854429Y-88876191D01*
X140854431Y-88876193D01*
X140890930Y-88895946D01*
X140940520Y-88945165D01*
X140955628Y-89013382D01*
X140931457Y-89078937D01*
X140890930Y-89114054D01*
X140854431Y-89133806D01*
X140854422Y-89133812D01*
X140676761Y-89272092D01*
X140676756Y-89272097D01*
X140524284Y-89437723D01*
X140524276Y-89437734D01*
X140433808Y-89576206D01*
X140380662Y-89621562D01*
X140311431Y-89630986D01*
X140248095Y-89601484D01*
X140226192Y-89576206D01*
X140135723Y-89437734D01*
X140135715Y-89437723D01*
X139983243Y-89272097D01*
X139983238Y-89272092D01*
X139828509Y-89151661D01*
X139805576Y-89133811D01*
X139805575Y-89133810D01*
X139805572Y-89133808D01*
X139607580Y-89026661D01*
X139607577Y-89026659D01*
X139607574Y-89026658D01*
X139607571Y-89026657D01*
X139607569Y-89026656D01*
X139394637Y-88953556D01*
X139172569Y-88916500D01*
X138947431Y-88916500D01*
X138725362Y-88953556D01*
X138680863Y-88968833D01*
X138611064Y-88971983D01*
X138550643Y-88936897D01*
X138518782Y-88874714D01*
X138516600Y-88851552D01*
X138516600Y-86618447D01*
X138536285Y-86551408D01*
X138589089Y-86505653D01*
X138658247Y-86495709D01*
X138680855Y-86501163D01*
X138725365Y-86516444D01*
X138947431Y-86553500D01*
X139172569Y-86553500D01*
X139394635Y-86516444D01*
X139607574Y-86443342D01*
X139805576Y-86336189D01*
X139983240Y-86197906D01*
X140135722Y-86032268D01*
X140226193Y-85893790D01*
X140279338Y-85848437D01*
X140348569Y-85839013D01*
X140411905Y-85868515D01*
G37*
G04 #@! TD.AperFunction*
G04 #@! TA.AperFunction,Conductor*
G36*
X143642539Y-73620185D02*
G01*
X143688294Y-73672989D01*
X143699500Y-73724500D01*
X143699500Y-112225500D01*
X143679815Y-112292539D01*
X143627011Y-112338294D01*
X143575500Y-112349500D01*
X137024760Y-112349500D01*
X137024554Y-112349459D01*
X136999998Y-112349459D01*
X136999909Y-112349496D01*
X136999619Y-112349615D01*
X136999615Y-112349618D01*
X136999459Y-112349999D01*
X136999476Y-112374616D01*
X136999471Y-112374616D01*
X136999500Y-112374759D01*
X136999500Y-125505517D01*
X136999069Y-125506982D01*
X136999486Y-125548605D01*
X136999451Y-125551401D01*
X136993639Y-125716971D01*
X136984697Y-125951743D01*
X136984239Y-125957264D01*
X136959978Y-126146639D01*
X136931043Y-126357957D01*
X136930125Y-126363063D01*
X136887125Y-126555580D01*
X136839037Y-126757162D01*
X136837734Y-126761815D01*
X136776512Y-126951568D01*
X136776115Y-126952755D01*
X136709503Y-127145793D01*
X136707892Y-127149967D01*
X136628898Y-127334523D01*
X136628245Y-127335995D01*
X136543607Y-127520352D01*
X136541767Y-127524033D01*
X136445756Y-127701141D01*
X136444791Y-127702856D01*
X136342855Y-127877433D01*
X136340863Y-127880618D01*
X136228675Y-128048504D01*
X136227347Y-128050413D01*
X136109072Y-128213792D01*
X136107004Y-128216490D01*
X135979646Y-128373521D01*
X135977911Y-128375568D01*
X135844338Y-128526425D01*
X135842266Y-128528652D01*
X135700908Y-128673336D01*
X135698730Y-128675459D01*
X135551033Y-128812496D01*
X135549027Y-128814278D01*
X135394990Y-128945264D01*
X135392340Y-128947395D01*
X135231785Y-129069416D01*
X135229908Y-129070788D01*
X135064637Y-129186881D01*
X135061498Y-129188947D01*
X134889397Y-129294881D01*
X134887705Y-129295886D01*
X134712833Y-129396017D01*
X134709196Y-129397943D01*
X134526828Y-129486860D01*
X134525372Y-129487547D01*
X134342750Y-129570791D01*
X134338616Y-129572498D01*
X134147153Y-129643594D01*
X134145975Y-129644018D01*
X133957715Y-129709630D01*
X133953095Y-129711041D01*
X133752631Y-129763821D01*
X133561225Y-129811274D01*
X133556141Y-129812311D01*
X133345489Y-129846162D01*
X133156828Y-129874807D01*
X133151312Y-129875394D01*
X132907010Y-129890372D01*
X132752570Y-129899394D01*
X132748953Y-129899500D01*
X108412551Y-129899500D01*
X108408689Y-129898366D01*
X108362976Y-129899465D01*
X108360123Y-129899468D01*
X108189680Y-129895721D01*
X107960362Y-129890013D01*
X107954772Y-129889620D01*
X107759709Y-129867037D01*
X107553786Y-129841369D01*
X107548616Y-129840501D01*
X107352266Y-129798948D01*
X107153805Y-129753918D01*
X107149100Y-129752654D01*
X107048147Y-129721223D01*
X106956278Y-129692620D01*
X106955073Y-129692232D01*
X106764098Y-129628470D01*
X106759867Y-129626884D01*
X106572613Y-129548791D01*
X106571121Y-129548146D01*
X106435912Y-129487547D01*
X106388271Y-129466194D01*
X106384550Y-129464374D01*
X106204893Y-129368917D01*
X106203153Y-129367957D01*
X106029776Y-129268581D01*
X106026542Y-129266594D01*
X105856341Y-129154676D01*
X105854420Y-129153360D01*
X105691917Y-129037453D01*
X105689181Y-129035385D01*
X105529996Y-128907979D01*
X105527917Y-128906239D01*
X105422788Y-128814278D01*
X105377801Y-128774926D01*
X105375580Y-128772884D01*
X105228899Y-128631151D01*
X105226766Y-128628985D01*
X105090368Y-128483449D01*
X105088577Y-128481452D01*
X104955771Y-128326715D01*
X104953627Y-128324071D01*
X104832206Y-128165631D01*
X104830843Y-128163780D01*
X104713135Y-127997495D01*
X104711046Y-127994343D01*
X104605774Y-127824464D01*
X104604754Y-127822758D01*
X104503196Y-127646492D01*
X104501257Y-127642850D01*
X104413060Y-127462876D01*
X104412410Y-127461507D01*
X104327889Y-127276933D01*
X104326187Y-127272829D01*
X104255897Y-127084115D01*
X104255517Y-127083062D01*
X104188860Y-126892288D01*
X104187433Y-126887622D01*
X104175840Y-126843591D01*
X104135624Y-126690838D01*
X104087350Y-126495989D01*
X104086316Y-126490903D01*
X104053606Y-126286033D01*
X104024329Y-126091760D01*
X104023749Y-126086225D01*
X104011821Y-125885005D01*
X104010230Y-125858159D01*
X104000598Y-125687257D01*
X104000500Y-125683767D01*
X104000500Y-79665842D01*
X106434880Y-79665842D01*
X106439325Y-79712866D01*
X106439600Y-79718704D01*
X106439600Y-95950366D01*
X106437861Y-95966113D01*
X106438132Y-95966139D01*
X106437397Y-95973906D01*
X106439569Y-96042990D01*
X106439600Y-96044938D01*
X106439600Y-96073859D01*
X106440484Y-96080856D01*
X106440942Y-96086679D01*
X106442426Y-96133889D01*
X106442427Y-96133891D01*
X106448122Y-96153495D01*
X106452067Y-96172542D01*
X106454626Y-96192797D01*
X106454627Y-96192800D01*
X106454628Y-96192803D01*
X106472014Y-96236716D01*
X106473906Y-96242244D01*
X106487081Y-96287592D01*
X106497472Y-96305162D01*
X106506032Y-96322635D01*
X106513547Y-96341617D01*
X106541309Y-96379827D01*
X106544516Y-96384710D01*
X106568558Y-96425362D01*
X106568562Y-96425366D01*
X106582989Y-96439793D01*
X106595626Y-96454588D01*
X106607628Y-96471107D01*
X106644031Y-96501222D01*
X106648331Y-96505135D01*
X106914854Y-96771658D01*
X107163220Y-97020024D01*
X107196705Y-97081347D01*
X107191721Y-97151039D01*
X107176604Y-97178125D01*
X107177083Y-97178438D01*
X107051139Y-97371209D01*
X106960703Y-97577385D01*
X106905436Y-97795628D01*
X106905434Y-97795640D01*
X106886844Y-98019994D01*
X106886844Y-98020005D01*
X106905434Y-98244359D01*
X106905436Y-98244371D01*
X106960703Y-98462614D01*
X107051140Y-98668792D01*
X107174276Y-98857265D01*
X107174284Y-98857276D01*
X107326756Y-99022902D01*
X107326761Y-99022907D01*
X107343823Y-99036187D01*
X107504424Y-99161189D01*
X107504429Y-99161191D01*
X107504431Y-99161193D01*
X107540930Y-99180946D01*
X107590520Y-99230165D01*
X107605628Y-99298382D01*
X107581457Y-99363937D01*
X107540930Y-99399054D01*
X107504431Y-99418806D01*
X107504422Y-99418812D01*
X107326761Y-99557092D01*
X107326756Y-99557097D01*
X107174284Y-99722723D01*
X107174276Y-99722734D01*
X107051140Y-99911207D01*
X106960703Y-100117385D01*
X106905436Y-100335628D01*
X106905434Y-100335640D01*
X106886844Y-100559994D01*
X106886844Y-100560005D01*
X106905434Y-100784359D01*
X106905436Y-100784371D01*
X106960703Y-101002614D01*
X107051140Y-101208792D01*
X107174276Y-101397265D01*
X107174284Y-101397276D01*
X107326756Y-101562902D01*
X107326760Y-101562906D01*
X107504424Y-101701189D01*
X107540930Y-101720945D01*
X107590519Y-101770162D01*
X107605629Y-101838378D01*
X107581459Y-101903934D01*
X107540932Y-101939052D01*
X107504432Y-101958805D01*
X107504422Y-101958812D01*
X107326761Y-102097092D01*
X107326756Y-102097097D01*
X107174284Y-102262723D01*
X107174276Y-102262734D01*
X107051140Y-102451207D01*
X106960703Y-102657385D01*
X106905436Y-102875628D01*
X106905434Y-102875640D01*
X106886844Y-103099994D01*
X106886844Y-103100005D01*
X106905434Y-103324359D01*
X106905436Y-103324371D01*
X106960703Y-103542614D01*
X107051140Y-103748792D01*
X107174276Y-103937265D01*
X107174284Y-103937276D01*
X107326756Y-104102902D01*
X107326761Y-104102907D01*
X107343823Y-104116187D01*
X107504424Y-104241189D01*
X107504429Y-104241191D01*
X107504431Y-104241193D01*
X107540930Y-104260946D01*
X107590520Y-104310165D01*
X107605628Y-104378382D01*
X107581457Y-104443937D01*
X107540930Y-104479054D01*
X107504431Y-104498806D01*
X107504422Y-104498812D01*
X107326761Y-104637092D01*
X107326756Y-104637097D01*
X107174284Y-104802723D01*
X107174276Y-104802734D01*
X107051140Y-104991207D01*
X106960703Y-105197385D01*
X106905436Y-105415628D01*
X106905434Y-105415640D01*
X106886844Y-105639994D01*
X106886844Y-105640005D01*
X106905434Y-105864359D01*
X106905436Y-105864371D01*
X106960703Y-106082614D01*
X107051140Y-106288792D01*
X107174276Y-106477265D01*
X107174284Y-106477276D01*
X107326756Y-106642902D01*
X107326761Y-106642907D01*
X107343823Y-106656187D01*
X107504424Y-106781189D01*
X107504425Y-106781189D01*
X107504427Y-106781191D01*
X107619347Y-106843382D01*
X107702426Y-106888342D01*
X107915365Y-106961444D01*
X108137431Y-106998500D01*
X108362569Y-106998500D01*
X108584635Y-106961444D01*
X108797574Y-106888342D01*
X108995576Y-106781189D01*
X109173240Y-106642906D01*
X109288312Y-106517906D01*
X109325715Y-106477276D01*
X109325715Y-106477275D01*
X109325722Y-106477268D01*
X109416193Y-106338790D01*
X109469338Y-106293437D01*
X109538569Y-106284013D01*
X109601905Y-106313515D01*
X109623804Y-106338787D01*
X109714278Y-106477268D01*
X109714283Y-106477273D01*
X109714284Y-106477276D01*
X109866756Y-106642902D01*
X109866761Y-106642907D01*
X109883823Y-106656187D01*
X110044424Y-106781189D01*
X110044429Y-106781191D01*
X110044431Y-106781193D01*
X110080930Y-106800946D01*
X110130520Y-106850165D01*
X110145628Y-106918382D01*
X110121457Y-106983937D01*
X110080930Y-107019054D01*
X110044431Y-107038806D01*
X110044422Y-107038812D01*
X109866761Y-107177092D01*
X109866756Y-107177097D01*
X109714284Y-107342723D01*
X109714276Y-107342734D01*
X109591140Y-107531207D01*
X109500703Y-107737385D01*
X109445436Y-107955628D01*
X109445434Y-107955640D01*
X109426844Y-108179994D01*
X109426844Y-108180005D01*
X109445434Y-108404359D01*
X109445436Y-108404371D01*
X109500703Y-108622614D01*
X109591140Y-108828792D01*
X109714276Y-109017265D01*
X109714284Y-109017276D01*
X109866756Y-109182902D01*
X109866760Y-109182906D01*
X110044424Y-109321189D01*
X110044429Y-109321191D01*
X110044431Y-109321193D01*
X110080930Y-109340946D01*
X110130520Y-109390165D01*
X110145628Y-109458382D01*
X110121457Y-109523937D01*
X110080930Y-109559054D01*
X110044431Y-109578806D01*
X110044422Y-109578812D01*
X109866761Y-109717092D01*
X109866756Y-109717097D01*
X109714284Y-109882723D01*
X109714276Y-109882734D01*
X109623808Y-110021206D01*
X109570662Y-110066562D01*
X109501431Y-110075986D01*
X109438095Y-110046484D01*
X109416192Y-110021206D01*
X109325723Y-109882734D01*
X109325715Y-109882723D01*
X109173243Y-109717097D01*
X109173238Y-109717092D01*
X108995577Y-109578812D01*
X108995572Y-109578808D01*
X108797580Y-109471661D01*
X108797577Y-109471659D01*
X108797574Y-109471658D01*
X108797571Y-109471657D01*
X108797569Y-109471656D01*
X108584637Y-109398556D01*
X108362569Y-109361500D01*
X108137431Y-109361500D01*
X107915362Y-109398556D01*
X107702430Y-109471656D01*
X107702419Y-109471661D01*
X107504427Y-109578808D01*
X107504422Y-109578812D01*
X107326761Y-109717092D01*
X107326756Y-109717097D01*
X107174284Y-109882723D01*
X107174276Y-109882734D01*
X107051140Y-110071207D01*
X106960703Y-110277385D01*
X106905436Y-110495628D01*
X106905434Y-110495640D01*
X106886844Y-110719994D01*
X106886844Y-110720005D01*
X106905434Y-110944359D01*
X106905436Y-110944371D01*
X106960703Y-111162614D01*
X107051140Y-111368792D01*
X107174276Y-111557265D01*
X107174284Y-111557276D01*
X107326756Y-111722902D01*
X107326760Y-111722906D01*
X107504424Y-111861189D01*
X107504429Y-111861191D01*
X107504431Y-111861193D01*
X107540930Y-111880946D01*
X107590520Y-111930165D01*
X107605628Y-111998382D01*
X107581457Y-112063937D01*
X107540930Y-112099054D01*
X107504431Y-112118806D01*
X107504422Y-112118812D01*
X107326761Y-112257092D01*
X107326756Y-112257097D01*
X107174284Y-112422723D01*
X107174276Y-112422734D01*
X107051140Y-112611207D01*
X106960703Y-112817385D01*
X106905436Y-113035628D01*
X106905434Y-113035640D01*
X106886844Y-113259994D01*
X106886844Y-113260005D01*
X106905434Y-113484359D01*
X106905436Y-113484371D01*
X106960703Y-113702614D01*
X107051140Y-113908792D01*
X107174276Y-114097265D01*
X107174284Y-114097276D01*
X107326756Y-114262902D01*
X107326760Y-114262906D01*
X107504424Y-114401189D01*
X107504429Y-114401191D01*
X107504431Y-114401193D01*
X107540930Y-114420946D01*
X107590520Y-114470165D01*
X107605628Y-114538382D01*
X107581457Y-114603937D01*
X107540930Y-114639054D01*
X107504431Y-114658806D01*
X107504422Y-114658812D01*
X107326761Y-114797092D01*
X107326756Y-114797097D01*
X107174284Y-114962723D01*
X107174276Y-114962734D01*
X107051140Y-115151207D01*
X106960703Y-115357385D01*
X106905436Y-115575628D01*
X106905434Y-115575640D01*
X106886844Y-115799994D01*
X106886844Y-115800005D01*
X106905434Y-116024359D01*
X106905436Y-116024371D01*
X106960703Y-116242614D01*
X107051140Y-116448792D01*
X107174276Y-116637265D01*
X107174284Y-116637276D01*
X107326756Y-116802902D01*
X107326761Y-116802907D01*
X107385981Y-116849000D01*
X107504424Y-116941189D01*
X107504429Y-116941191D01*
X107504431Y-116941193D01*
X107540930Y-116960946D01*
X107590520Y-117010165D01*
X107605628Y-117078382D01*
X107581457Y-117143937D01*
X107540930Y-117179054D01*
X107504431Y-117198806D01*
X107504422Y-117198812D01*
X107326761Y-117337092D01*
X107326756Y-117337097D01*
X107174284Y-117502723D01*
X107174276Y-117502734D01*
X107051140Y-117691207D01*
X106960703Y-117897385D01*
X106905436Y-118115628D01*
X106905434Y-118115640D01*
X106886844Y-118339994D01*
X106886844Y-118340005D01*
X106905434Y-118564359D01*
X106905436Y-118564371D01*
X106960703Y-118782614D01*
X107051140Y-118988792D01*
X107174276Y-119177265D01*
X107174284Y-119177276D01*
X107326756Y-119342902D01*
X107326760Y-119342906D01*
X107504424Y-119481189D01*
X107504429Y-119481191D01*
X107504431Y-119481193D01*
X107540930Y-119500946D01*
X107590520Y-119550165D01*
X107605628Y-119618382D01*
X107581457Y-119683937D01*
X107540930Y-119719054D01*
X107504431Y-119738806D01*
X107504422Y-119738812D01*
X107326761Y-119877092D01*
X107326756Y-119877097D01*
X107174284Y-120042723D01*
X107174276Y-120042734D01*
X107051140Y-120231207D01*
X106960703Y-120437385D01*
X106905436Y-120655628D01*
X106905434Y-120655640D01*
X106886844Y-120879994D01*
X106886844Y-120880005D01*
X106905434Y-121104359D01*
X106905436Y-121104371D01*
X106960703Y-121322614D01*
X107051140Y-121528792D01*
X107174276Y-121717265D01*
X107174284Y-121717276D01*
X107326756Y-121882902D01*
X107326761Y-121882907D01*
X107349362Y-121900498D01*
X107504424Y-122021189D01*
X107504429Y-122021191D01*
X107504431Y-122021193D01*
X107540930Y-122040946D01*
X107590520Y-122090165D01*
X107605628Y-122158382D01*
X107581457Y-122223937D01*
X107540930Y-122259054D01*
X107504431Y-122278806D01*
X107504422Y-122278812D01*
X107326761Y-122417092D01*
X107326756Y-122417097D01*
X107174284Y-122582723D01*
X107174276Y-122582734D01*
X107051140Y-122771207D01*
X106960703Y-122977385D01*
X106905436Y-123195628D01*
X106905434Y-123195640D01*
X106886844Y-123419994D01*
X106886844Y-123420005D01*
X106905434Y-123644359D01*
X106905436Y-123644371D01*
X106960703Y-123862614D01*
X107051140Y-124068792D01*
X107174276Y-124257265D01*
X107174284Y-124257276D01*
X107326756Y-124422902D01*
X107326761Y-124422907D01*
X107350007Y-124441000D01*
X107504424Y-124561189D01*
X107504425Y-124561189D01*
X107504427Y-124561191D01*
X107603858Y-124615000D01*
X107702426Y-124668342D01*
X107915365Y-124741444D01*
X108137431Y-124778500D01*
X108362569Y-124778500D01*
X108584635Y-124741444D01*
X108797574Y-124668342D01*
X108995576Y-124561189D01*
X109173240Y-124422906D01*
X109325722Y-124257268D01*
X109416193Y-124118790D01*
X109469338Y-124073437D01*
X109538569Y-124064013D01*
X109601905Y-124093515D01*
X109623804Y-124118787D01*
X109714278Y-124257268D01*
X109714283Y-124257273D01*
X109714284Y-124257276D01*
X109866756Y-124422902D01*
X109866761Y-124422907D01*
X109890007Y-124441000D01*
X110044424Y-124561189D01*
X110044429Y-124561191D01*
X110044431Y-124561193D01*
X110080930Y-124580946D01*
X110130520Y-124630165D01*
X110145628Y-124698382D01*
X110121457Y-124763937D01*
X110080930Y-124799054D01*
X110044431Y-124818806D01*
X110044422Y-124818812D01*
X109866761Y-124957092D01*
X109866756Y-124957097D01*
X109714284Y-125122723D01*
X109714276Y-125122734D01*
X109591140Y-125311207D01*
X109500703Y-125517385D01*
X109445436Y-125735628D01*
X109445434Y-125735640D01*
X109426844Y-125959994D01*
X109426844Y-125960005D01*
X109445434Y-126184359D01*
X109445436Y-126184371D01*
X109500703Y-126402614D01*
X109591140Y-126608792D01*
X109714276Y-126797265D01*
X109714284Y-126797276D01*
X109857415Y-126952755D01*
X109866760Y-126962906D01*
X110044424Y-127101189D01*
X110044425Y-127101189D01*
X110044427Y-127101191D01*
X110126845Y-127145793D01*
X110242426Y-127208342D01*
X110455365Y-127281444D01*
X110677431Y-127318500D01*
X110902569Y-127318500D01*
X111124635Y-127281444D01*
X111337574Y-127208342D01*
X111535576Y-127101189D01*
X111713240Y-126962906D01*
X111865722Y-126797268D01*
X111988860Y-126608791D01*
X112079296Y-126402616D01*
X112134564Y-126184368D01*
X112134565Y-126184359D01*
X112153156Y-125960005D01*
X112153156Y-125959994D01*
X112134565Y-125735640D01*
X112134563Y-125735628D01*
X112121767Y-125685097D01*
X112079296Y-125517384D01*
X111988860Y-125311209D01*
X111865722Y-125122732D01*
X111865719Y-125122729D01*
X111865715Y-125122723D01*
X111713243Y-124957097D01*
X111713238Y-124957092D01*
X111535577Y-124818812D01*
X111535578Y-124818812D01*
X111535576Y-124818811D01*
X111499070Y-124799055D01*
X111449479Y-124749836D01*
X111434371Y-124681619D01*
X111458541Y-124616064D01*
X111499070Y-124580945D01*
X111499084Y-124580936D01*
X111535576Y-124561189D01*
X111713240Y-124422906D01*
X111865722Y-124257268D01*
X111988860Y-124068791D01*
X112079296Y-123862616D01*
X112134564Y-123644368D01*
X112153156Y-123420000D01*
X112146941Y-123345000D01*
X112134565Y-123195640D01*
X112134563Y-123195628D01*
X112079296Y-122977385D01*
X112046398Y-122902385D01*
X111988860Y-122771209D01*
X111972706Y-122746484D01*
X111911947Y-122653485D01*
X111865722Y-122582732D01*
X111865719Y-122582729D01*
X111865715Y-122582723D01*
X111713243Y-122417097D01*
X111713238Y-122417092D01*
X111535577Y-122278812D01*
X111535578Y-122278812D01*
X111535576Y-122278811D01*
X111499070Y-122259055D01*
X111449479Y-122209836D01*
X111434371Y-122141619D01*
X111458541Y-122076064D01*
X111499070Y-122040945D01*
X111499084Y-122040936D01*
X111535576Y-122021189D01*
X111713240Y-121882906D01*
X111798587Y-121790195D01*
X111858471Y-121754207D01*
X111928309Y-121756307D01*
X111977495Y-121786499D01*
X112580110Y-122389114D01*
X112590016Y-122401478D01*
X112590226Y-122401305D01*
X112595200Y-122407318D01*
X112645602Y-122454648D01*
X112646976Y-122455980D01*
X112667430Y-122476434D01*
X112673002Y-122480756D01*
X112677442Y-122484549D01*
X112711878Y-122516886D01*
X112729767Y-122526720D01*
X112746033Y-122537404D01*
X112762159Y-122549913D01*
X112805498Y-122568667D01*
X112810745Y-122571237D01*
X112852140Y-122593995D01*
X112871918Y-122599073D01*
X112890321Y-122605374D01*
X112909052Y-122613480D01*
X112909053Y-122613480D01*
X112909055Y-122613481D01*
X112936450Y-122617819D01*
X112955697Y-122620868D01*
X112961413Y-122622051D01*
X113007170Y-122633800D01*
X113027590Y-122633800D01*
X113046989Y-122635327D01*
X113067141Y-122638518D01*
X113067142Y-122638519D01*
X113067142Y-122638518D01*
X113067143Y-122638519D01*
X113114158Y-122634075D01*
X113119996Y-122633800D01*
X114208719Y-122633800D01*
X114275758Y-122653485D01*
X114321513Y-122706289D01*
X114331457Y-122775447D01*
X114322275Y-122807609D01*
X114280705Y-122902381D01*
X114280703Y-122902385D01*
X114225436Y-123120628D01*
X114225434Y-123120640D01*
X114206844Y-123344994D01*
X114206844Y-123345005D01*
X114225434Y-123569359D01*
X114225436Y-123569371D01*
X114280703Y-123787614D01*
X114371140Y-123993792D01*
X114494276Y-124182265D01*
X114494284Y-124182276D01*
X114646756Y-124347902D01*
X114646760Y-124347906D01*
X114824424Y-124486189D01*
X114824425Y-124486189D01*
X114824427Y-124486191D01*
X114925824Y-124541064D01*
X115022426Y-124593342D01*
X115235365Y-124666444D01*
X115457431Y-124703500D01*
X115682569Y-124703500D01*
X115904635Y-124666444D01*
X116117574Y-124593342D01*
X116315576Y-124486189D01*
X116493240Y-124347906D01*
X116645722Y-124182268D01*
X116736193Y-124043790D01*
X116789338Y-123998437D01*
X116858569Y-123989013D01*
X116921905Y-124018515D01*
X116943804Y-124043787D01*
X117034278Y-124182268D01*
X117034283Y-124182273D01*
X117034284Y-124182276D01*
X117186756Y-124347902D01*
X117186760Y-124347906D01*
X117364424Y-124486189D01*
X117364429Y-124486191D01*
X117364431Y-124486193D01*
X117400930Y-124505946D01*
X117450520Y-124555165D01*
X117465628Y-124623382D01*
X117441457Y-124688937D01*
X117400930Y-124724054D01*
X117364431Y-124743806D01*
X117364422Y-124743812D01*
X117186761Y-124882092D01*
X117186756Y-124882097D01*
X117034284Y-125047723D01*
X117034276Y-125047734D01*
X116911140Y-125236207D01*
X116820703Y-125442385D01*
X116765436Y-125660628D01*
X116765434Y-125660640D01*
X116746844Y-125884994D01*
X116746844Y-125885005D01*
X116765434Y-126109359D01*
X116765436Y-126109371D01*
X116820703Y-126327614D01*
X116911140Y-126533792D01*
X117034276Y-126722265D01*
X117034284Y-126722276D01*
X117186756Y-126887902D01*
X117186760Y-126887906D01*
X117364424Y-127026189D01*
X117364425Y-127026189D01*
X117364427Y-127026191D01*
X117469352Y-127082973D01*
X117562426Y-127133342D01*
X117775365Y-127206444D01*
X117997431Y-127243500D01*
X118222569Y-127243500D01*
X118444635Y-127206444D01*
X118657574Y-127133342D01*
X118855576Y-127026189D01*
X119033240Y-126887906D01*
X119149316Y-126761815D01*
X119185715Y-126722276D01*
X119185716Y-126722274D01*
X119185722Y-126722268D01*
X119308860Y-126533791D01*
X119399296Y-126327616D01*
X119454564Y-126109368D01*
X119466941Y-125960005D01*
X119473156Y-125885005D01*
X119473156Y-125884994D01*
X119454565Y-125660640D01*
X119454563Y-125660628D01*
X119426550Y-125550006D01*
X119399296Y-125442384D01*
X119308860Y-125236209D01*
X119185722Y-125047732D01*
X119185719Y-125047729D01*
X119185715Y-125047723D01*
X119033243Y-124882097D01*
X119033238Y-124882092D01*
X118900144Y-124778500D01*
X118855576Y-124743811D01*
X118819070Y-124724055D01*
X118769479Y-124674836D01*
X118754371Y-124606619D01*
X118778541Y-124541064D01*
X118819070Y-124505945D01*
X118819084Y-124505936D01*
X118855576Y-124486189D01*
X119033240Y-124347906D01*
X119185722Y-124182268D01*
X119308860Y-123993791D01*
X119399296Y-123787616D01*
X119454564Y-123569368D01*
X119466941Y-123420005D01*
X119473156Y-123345005D01*
X119473156Y-123344994D01*
X119454565Y-123120640D01*
X119454563Y-123120628D01*
X119418289Y-122977385D01*
X119399296Y-122902384D01*
X119308860Y-122696209D01*
X119300793Y-122683862D01*
X119213280Y-122549913D01*
X119185722Y-122507732D01*
X119185719Y-122507729D01*
X119185715Y-122507723D01*
X119033243Y-122342097D01*
X119033238Y-122342092D01*
X118888564Y-122229487D01*
X118855576Y-122203811D01*
X118819070Y-122184055D01*
X118769479Y-122134836D01*
X118754371Y-122066619D01*
X118778541Y-122001064D01*
X118819070Y-121965945D01*
X118819084Y-121965936D01*
X118855576Y-121946189D01*
X119033240Y-121807906D01*
X119175348Y-121653537D01*
X119185715Y-121642276D01*
X119185716Y-121642274D01*
X119185722Y-121642268D01*
X119308860Y-121453791D01*
X119399296Y-121247616D01*
X119454564Y-121029368D01*
X119454565Y-121029359D01*
X119473156Y-120805005D01*
X119473156Y-120804994D01*
X119454565Y-120580640D01*
X119454563Y-120580628D01*
X119431912Y-120491183D01*
X119399296Y-120362384D01*
X119308860Y-120156209D01*
X119276191Y-120106206D01*
X119185723Y-119967734D01*
X119185715Y-119967723D01*
X119033243Y-119802097D01*
X119033238Y-119802092D01*
X118914797Y-119709905D01*
X118855576Y-119663811D01*
X118855575Y-119663810D01*
X118855572Y-119663808D01*
X118657580Y-119556661D01*
X118657577Y-119556659D01*
X118657574Y-119556658D01*
X118657571Y-119556657D01*
X118657569Y-119556656D01*
X118444637Y-119483556D01*
X118222569Y-119446500D01*
X117997431Y-119446500D01*
X117775362Y-119483556D01*
X117562430Y-119556656D01*
X117562419Y-119556661D01*
X117364427Y-119663808D01*
X117364422Y-119663812D01*
X117186761Y-119802092D01*
X117186756Y-119802097D01*
X117034284Y-119967723D01*
X117034276Y-119967734D01*
X116943807Y-120106206D01*
X116890660Y-120151563D01*
X116821429Y-120160986D01*
X116758093Y-120131483D01*
X116736191Y-120106206D01*
X116645722Y-119967732D01*
X116645717Y-119967727D01*
X116645715Y-119967723D01*
X116493243Y-119802097D01*
X116493238Y-119802092D01*
X116374797Y-119709905D01*
X116315576Y-119663811D01*
X116279070Y-119644055D01*
X116229479Y-119594836D01*
X116214371Y-119526619D01*
X116238541Y-119461064D01*
X116279070Y-119425945D01*
X116279084Y-119425936D01*
X116315576Y-119406189D01*
X116493240Y-119267906D01*
X116645722Y-119102268D01*
X116768860Y-118913791D01*
X116859296Y-118707616D01*
X116914564Y-118489368D01*
X116926941Y-118340005D01*
X116933156Y-118265005D01*
X116933156Y-118264994D01*
X116914565Y-118040640D01*
X116914563Y-118040628D01*
X116878289Y-117897385D01*
X116859296Y-117822384D01*
X116768860Y-117616209D01*
X116743560Y-117577485D01*
X116688146Y-117492667D01*
X116645722Y-117427732D01*
X116645721Y-117427731D01*
X116642917Y-117423439D01*
X116644143Y-117422637D01*
X116620962Y-117363860D01*
X116634536Y-117295322D01*
X116656775Y-117265027D01*
X117113344Y-116808458D01*
X117174665Y-116774975D01*
X117244357Y-116779959D01*
X117277184Y-116798286D01*
X117364424Y-116866189D01*
X117364426Y-116866190D01*
X117364429Y-116866192D01*
X117479535Y-116928484D01*
X117562426Y-116973342D01*
X117775365Y-117046444D01*
X117997431Y-117083500D01*
X118222569Y-117083500D01*
X118444635Y-117046444D01*
X118657574Y-116973342D01*
X118855576Y-116866189D01*
X119033240Y-116727906D01*
X119185722Y-116562268D01*
X119308860Y-116373791D01*
X119399296Y-116167616D01*
X119454564Y-115949368D01*
X119466941Y-115800005D01*
X119473156Y-115725005D01*
X119473156Y-115724994D01*
X119454565Y-115500640D01*
X119454563Y-115500628D01*
X119431912Y-115411183D01*
X119399296Y-115282384D01*
X119308860Y-115076209D01*
X119292706Y-115051484D01*
X119185723Y-114887734D01*
X119185715Y-114887723D01*
X119033243Y-114722097D01*
X119033238Y-114722092D01*
X118914797Y-114629905D01*
X118855576Y-114583811D01*
X118855575Y-114583810D01*
X118855572Y-114583808D01*
X118657580Y-114476661D01*
X118657577Y-114476659D01*
X118657574Y-114476658D01*
X118657571Y-114476657D01*
X118657569Y-114476656D01*
X118444637Y-114403556D01*
X118222569Y-114366500D01*
X117997431Y-114366500D01*
X117775362Y-114403556D01*
X117562430Y-114476656D01*
X117562419Y-114476661D01*
X117364427Y-114583808D01*
X117364422Y-114583812D01*
X117186761Y-114722092D01*
X117186756Y-114722097D01*
X117034284Y-114887723D01*
X117034276Y-114887734D01*
X116943808Y-115026206D01*
X116890662Y-115071562D01*
X116821431Y-115080986D01*
X116758095Y-115051484D01*
X116736192Y-115026206D01*
X116645723Y-114887734D01*
X116645715Y-114887723D01*
X116493243Y-114722097D01*
X116493238Y-114722092D01*
X116374797Y-114629905D01*
X116315576Y-114583811D01*
X116315575Y-114583810D01*
X116315572Y-114583808D01*
X116279068Y-114564053D01*
X116229478Y-114514833D01*
X116214371Y-114446616D01*
X116238542Y-114381061D01*
X116279069Y-114345945D01*
X116315576Y-114326189D01*
X116493240Y-114187906D01*
X116645722Y-114022268D01*
X116768860Y-113833791D01*
X116859296Y-113627616D01*
X116914564Y-113409368D01*
X116926941Y-113260005D01*
X116933156Y-113185005D01*
X116933156Y-113184994D01*
X116914565Y-112960640D01*
X116914563Y-112960628D01*
X116878289Y-112817385D01*
X116859296Y-112742384D01*
X116768860Y-112536209D01*
X116645722Y-112347732D01*
X116645719Y-112347729D01*
X116645715Y-112347723D01*
X116493243Y-112182097D01*
X116493238Y-112182092D01*
X116360144Y-112078500D01*
X116315576Y-112043811D01*
X116279070Y-112024055D01*
X116229479Y-111974836D01*
X116214371Y-111906619D01*
X116238541Y-111841064D01*
X116279070Y-111805945D01*
X116279084Y-111805936D01*
X116315576Y-111786189D01*
X116493240Y-111647906D01*
X116645722Y-111482268D01*
X116736193Y-111343790D01*
X116789338Y-111298437D01*
X116858569Y-111289013D01*
X116921905Y-111318515D01*
X116943804Y-111343787D01*
X117034278Y-111482268D01*
X117034283Y-111482273D01*
X117034284Y-111482276D01*
X117103328Y-111557276D01*
X117186760Y-111647906D01*
X117364424Y-111786189D01*
X117364425Y-111786189D01*
X117364427Y-111786191D01*
X117465824Y-111841064D01*
X117562426Y-111893342D01*
X117775365Y-111966444D01*
X117997431Y-112003500D01*
X118222569Y-112003500D01*
X118444635Y-111966444D01*
X118657574Y-111893342D01*
X118855576Y-111786189D01*
X119033240Y-111647906D01*
X119185722Y-111482268D01*
X119308860Y-111293791D01*
X119399296Y-111087616D01*
X119454564Y-110869368D01*
X119466941Y-110720005D01*
X119473156Y-110645005D01*
X119473156Y-110644994D01*
X119454565Y-110420640D01*
X119454563Y-110420628D01*
X119418289Y-110277385D01*
X119399296Y-110202384D01*
X119308860Y-109996209D01*
X119292706Y-109971484D01*
X119185723Y-109807734D01*
X119185715Y-109807723D01*
X119033243Y-109642097D01*
X119033238Y-109642092D01*
X118914797Y-109549905D01*
X118855576Y-109503811D01*
X118819070Y-109484055D01*
X118769479Y-109434836D01*
X118754371Y-109366619D01*
X118778541Y-109301064D01*
X118819070Y-109265945D01*
X118819084Y-109265936D01*
X118855576Y-109246189D01*
X119033240Y-109107906D01*
X119185722Y-108942268D01*
X119308860Y-108753791D01*
X119399296Y-108547616D01*
X119454564Y-108329368D01*
X119466941Y-108180005D01*
X119473156Y-108105005D01*
X119473156Y-108104994D01*
X119454565Y-107880640D01*
X119454563Y-107880628D01*
X119418289Y-107737385D01*
X119399296Y-107662384D01*
X119308860Y-107456209D01*
X119276193Y-107406209D01*
X119213280Y-107309913D01*
X119185722Y-107267732D01*
X119185719Y-107267729D01*
X119185715Y-107267723D01*
X119033243Y-107102097D01*
X119033238Y-107102092D01*
X118900144Y-106998500D01*
X118855576Y-106963811D01*
X118819070Y-106944055D01*
X118769479Y-106894836D01*
X118754371Y-106826619D01*
X118778541Y-106761064D01*
X118819070Y-106725945D01*
X118820511Y-106725165D01*
X118855576Y-106706189D01*
X119033240Y-106567906D01*
X119185722Y-106402268D01*
X119308860Y-106213791D01*
X119399296Y-106007616D01*
X119454564Y-105789368D01*
X119466941Y-105640005D01*
X119473156Y-105565005D01*
X119473156Y-105564994D01*
X119454565Y-105340640D01*
X119454563Y-105340628D01*
X119431912Y-105251183D01*
X119399296Y-105122384D01*
X119308860Y-104916209D01*
X119292706Y-104891484D01*
X119213280Y-104769913D01*
X119185722Y-104727732D01*
X119185719Y-104727729D01*
X119185715Y-104727723D01*
X119033243Y-104562097D01*
X119033238Y-104562092D01*
X118914797Y-104469905D01*
X118855576Y-104423811D01*
X118819070Y-104404055D01*
X118769479Y-104354836D01*
X118754371Y-104286619D01*
X118778541Y-104221064D01*
X118819070Y-104185945D01*
X118820511Y-104185165D01*
X118855576Y-104166189D01*
X119033240Y-104027906D01*
X119185722Y-103862268D01*
X119308860Y-103673791D01*
X119399296Y-103467616D01*
X119454564Y-103249368D01*
X119466941Y-103100005D01*
X119473156Y-103025005D01*
X119473156Y-103024994D01*
X119454565Y-102800640D01*
X119454563Y-102800628D01*
X119431912Y-102711183D01*
X119399296Y-102582384D01*
X119308860Y-102376209D01*
X119292706Y-102351484D01*
X119185723Y-102187734D01*
X119185715Y-102187723D01*
X119033243Y-102022097D01*
X119033238Y-102022092D01*
X118855577Y-101883812D01*
X118855572Y-101883808D01*
X118657580Y-101776661D01*
X118657577Y-101776659D01*
X118657574Y-101776658D01*
X118657571Y-101776657D01*
X118657569Y-101776656D01*
X118444637Y-101703556D01*
X118222569Y-101666500D01*
X117997431Y-101666500D01*
X117775362Y-101703556D01*
X117562430Y-101776656D01*
X117562419Y-101776661D01*
X117364427Y-101883808D01*
X117364422Y-101883812D01*
X117186761Y-102022092D01*
X117186756Y-102022097D01*
X117034284Y-102187723D01*
X117034276Y-102187734D01*
X116943808Y-102326206D01*
X116890662Y-102371562D01*
X116821431Y-102380986D01*
X116758095Y-102351484D01*
X116736192Y-102326206D01*
X116645723Y-102187734D01*
X116645715Y-102187723D01*
X116493243Y-102022097D01*
X116493238Y-102022092D01*
X116315577Y-101883812D01*
X116315572Y-101883808D01*
X116279068Y-101864053D01*
X116229478Y-101814833D01*
X116214371Y-101746616D01*
X116238542Y-101681061D01*
X116279069Y-101645945D01*
X116315576Y-101626189D01*
X116493240Y-101487906D01*
X116645722Y-101322268D01*
X116768860Y-101133791D01*
X116859296Y-100927616D01*
X116914564Y-100709368D01*
X116926941Y-100560005D01*
X116933156Y-100485005D01*
X116933156Y-100484994D01*
X116914565Y-100260640D01*
X116914563Y-100260628D01*
X116878289Y-100117385D01*
X116859296Y-100042384D01*
X116768860Y-99836209D01*
X116736193Y-99786209D01*
X116658127Y-99666720D01*
X116645722Y-99647732D01*
X116645721Y-99647731D01*
X116642917Y-99643439D01*
X116643805Y-99642858D01*
X116620088Y-99582762D01*
X116633648Y-99514221D01*
X116655899Y-99483903D01*
X117112219Y-99027583D01*
X117173540Y-98994100D01*
X117243232Y-98999084D01*
X117276061Y-99017413D01*
X117300190Y-99036193D01*
X117364424Y-99086189D01*
X117364425Y-99086189D01*
X117364427Y-99086191D01*
X117470026Y-99143338D01*
X117562426Y-99193342D01*
X117775365Y-99266444D01*
X117997431Y-99303500D01*
X118222569Y-99303500D01*
X118444635Y-99266444D01*
X118657574Y-99193342D01*
X118855576Y-99086189D01*
X119033240Y-98947906D01*
X119185722Y-98782268D01*
X119308860Y-98593791D01*
X119399296Y-98387616D01*
X119454564Y-98169368D01*
X119466941Y-98020005D01*
X119473156Y-97945005D01*
X119473156Y-97944994D01*
X119454565Y-97720640D01*
X119454563Y-97720628D01*
X119431912Y-97631183D01*
X119399296Y-97502384D01*
X119308860Y-97296209D01*
X119304208Y-97289089D01*
X119215976Y-97154039D01*
X119185722Y-97107732D01*
X119185719Y-97107729D01*
X119185715Y-97107723D01*
X119033243Y-96942097D01*
X119033238Y-96942092D01*
X118914797Y-96849905D01*
X118855576Y-96803811D01*
X118855575Y-96803810D01*
X118855572Y-96803808D01*
X118819068Y-96784053D01*
X118769478Y-96734833D01*
X118754371Y-96666616D01*
X118778542Y-96601061D01*
X118819069Y-96565945D01*
X118855576Y-96546189D01*
X119033240Y-96407906D01*
X119169664Y-96259712D01*
X119185715Y-96242276D01*
X119185716Y-96242274D01*
X119185722Y-96242268D01*
X119308860Y-96053791D01*
X119399296Y-95847616D01*
X119454564Y-95629368D01*
X119473156Y-95405000D01*
X119469013Y-95355005D01*
X119454565Y-95180640D01*
X119454563Y-95180628D01*
X119431912Y-95091183D01*
X119399296Y-94962384D01*
X119308860Y-94756209D01*
X119292706Y-94731484D01*
X119185723Y-94567734D01*
X119185715Y-94567723D01*
X119033243Y-94402097D01*
X119033238Y-94402092D01*
X118855577Y-94263812D01*
X118855572Y-94263808D01*
X118657580Y-94156661D01*
X118657577Y-94156659D01*
X118657574Y-94156658D01*
X118657571Y-94156657D01*
X118657569Y-94156656D01*
X118444637Y-94083556D01*
X118222569Y-94046500D01*
X117997431Y-94046500D01*
X117775362Y-94083556D01*
X117562430Y-94156656D01*
X117562419Y-94156661D01*
X117364427Y-94263808D01*
X117364422Y-94263812D01*
X117186761Y-94402092D01*
X117186756Y-94402097D01*
X117034284Y-94567723D01*
X117034276Y-94567734D01*
X116943808Y-94706206D01*
X116890662Y-94751562D01*
X116821431Y-94760986D01*
X116758095Y-94731484D01*
X116736192Y-94706206D01*
X116645723Y-94567734D01*
X116645715Y-94567723D01*
X116493243Y-94402097D01*
X116493238Y-94402092D01*
X116315577Y-94263812D01*
X116315578Y-94263812D01*
X116315576Y-94263811D01*
X116279070Y-94244055D01*
X116229479Y-94194836D01*
X116214371Y-94126619D01*
X116238541Y-94061064D01*
X116279070Y-94025945D01*
X116279084Y-94025936D01*
X116315576Y-94006189D01*
X116493240Y-93867906D01*
X116645722Y-93702268D01*
X116768860Y-93513791D01*
X116859296Y-93307616D01*
X116914564Y-93089368D01*
X116926941Y-92940005D01*
X116933156Y-92865005D01*
X116933156Y-92864994D01*
X116914565Y-92640640D01*
X116914563Y-92640628D01*
X116878289Y-92497385D01*
X116859296Y-92422384D01*
X116768860Y-92216209D01*
X116736193Y-92166209D01*
X116658127Y-92046720D01*
X116645722Y-92027732D01*
X116645721Y-92027731D01*
X116642917Y-92023439D01*
X116643805Y-92022858D01*
X116620088Y-91962762D01*
X116633648Y-91894221D01*
X116655899Y-91863903D01*
X117112219Y-91407583D01*
X117173540Y-91374100D01*
X117243232Y-91379084D01*
X117276061Y-91397413D01*
X117325567Y-91435945D01*
X117364424Y-91466189D01*
X117364425Y-91466189D01*
X117364427Y-91466191D01*
X117373432Y-91471064D01*
X117562426Y-91573342D01*
X117775365Y-91646444D01*
X117997431Y-91683500D01*
X118222569Y-91683500D01*
X118444635Y-91646444D01*
X118657574Y-91573342D01*
X118855576Y-91466189D01*
X119033240Y-91327906D01*
X119185722Y-91162268D01*
X119308860Y-90973791D01*
X119399296Y-90767616D01*
X119454564Y-90549368D01*
X119473156Y-90325000D01*
X119469013Y-90275005D01*
X119454565Y-90100640D01*
X119454563Y-90100628D01*
X119431912Y-90011183D01*
X119399296Y-89882384D01*
X119308860Y-89676209D01*
X119292706Y-89651484D01*
X119185723Y-89487734D01*
X119185715Y-89487723D01*
X119033243Y-89322097D01*
X119033238Y-89322092D01*
X118914797Y-89229905D01*
X118855576Y-89183811D01*
X118819070Y-89164055D01*
X118769479Y-89114836D01*
X118754371Y-89046619D01*
X118778541Y-88981064D01*
X118819070Y-88945945D01*
X118820511Y-88945165D01*
X118855576Y-88926189D01*
X119033240Y-88787906D01*
X119185722Y-88622268D01*
X119308860Y-88433791D01*
X119399296Y-88227616D01*
X119454564Y-88009368D01*
X119466941Y-87860005D01*
X119473156Y-87785005D01*
X119473156Y-87784994D01*
X119454565Y-87560640D01*
X119454563Y-87560628D01*
X119418289Y-87417385D01*
X119399296Y-87342384D01*
X119308860Y-87136209D01*
X119276193Y-87086209D01*
X119185723Y-86947734D01*
X119185715Y-86947723D01*
X119033243Y-86782097D01*
X119033238Y-86782092D01*
X118897456Y-86676408D01*
X118855576Y-86643811D01*
X118819070Y-86624055D01*
X118769479Y-86574836D01*
X118754371Y-86506619D01*
X118778541Y-86441064D01*
X118819070Y-86405945D01*
X118820517Y-86405162D01*
X118855576Y-86386189D01*
X119033240Y-86247906D01*
X119185722Y-86082268D01*
X119308860Y-85893791D01*
X119399296Y-85687616D01*
X119454564Y-85469368D01*
X119466941Y-85320005D01*
X119473156Y-85245005D01*
X119473156Y-85244994D01*
X119454565Y-85020640D01*
X119454563Y-85020628D01*
X119418289Y-84877385D01*
X119399296Y-84802384D01*
X119308860Y-84596209D01*
X119292706Y-84571484D01*
X119185723Y-84407734D01*
X119185715Y-84407723D01*
X119033243Y-84242097D01*
X119033238Y-84242092D01*
X118855577Y-84103812D01*
X118855572Y-84103808D01*
X118657580Y-83996661D01*
X118657577Y-83996659D01*
X118657574Y-83996658D01*
X118657571Y-83996657D01*
X118657569Y-83996656D01*
X118444637Y-83923556D01*
X118222569Y-83886500D01*
X117997431Y-83886500D01*
X117775362Y-83923556D01*
X117562430Y-83996656D01*
X117562419Y-83996661D01*
X117364427Y-84103808D01*
X117364422Y-84103812D01*
X117186761Y-84242092D01*
X117186756Y-84242097D01*
X117034284Y-84407723D01*
X117034276Y-84407734D01*
X116943808Y-84546206D01*
X116890662Y-84591562D01*
X116821431Y-84600986D01*
X116758095Y-84571484D01*
X116736192Y-84546206D01*
X116645723Y-84407734D01*
X116645715Y-84407723D01*
X116493243Y-84242097D01*
X116493238Y-84242092D01*
X116315577Y-84103812D01*
X116315578Y-84103812D01*
X116315576Y-84103811D01*
X116279070Y-84084055D01*
X116229479Y-84034836D01*
X116214371Y-83966619D01*
X116238541Y-83901064D01*
X116279070Y-83865945D01*
X116279084Y-83865936D01*
X116315576Y-83846189D01*
X116493240Y-83707906D01*
X116645722Y-83542268D01*
X116768860Y-83353791D01*
X116859296Y-83147616D01*
X116914564Y-82929368D01*
X116915326Y-82920176D01*
X116933156Y-82705005D01*
X116933156Y-82704994D01*
X116914565Y-82480640D01*
X116914563Y-82480628D01*
X116859296Y-82262385D01*
X116853620Y-82249446D01*
X116768860Y-82056209D01*
X116736193Y-82006209D01*
X116645723Y-81867734D01*
X116645715Y-81867723D01*
X116493243Y-81702097D01*
X116493238Y-81702092D01*
X116315577Y-81563812D01*
X116315578Y-81563812D01*
X116315576Y-81563811D01*
X116279070Y-81544055D01*
X116229479Y-81494836D01*
X116214371Y-81426619D01*
X116238541Y-81361064D01*
X116279070Y-81325945D01*
X116279084Y-81325936D01*
X116315576Y-81306189D01*
X116493240Y-81167906D01*
X116615511Y-81035086D01*
X116645715Y-81002276D01*
X116645715Y-81002275D01*
X116645722Y-81002268D01*
X116736193Y-80863790D01*
X116789338Y-80818437D01*
X116858569Y-80809013D01*
X116921905Y-80838515D01*
X116943804Y-80863787D01*
X117034278Y-81002268D01*
X117034283Y-81002273D01*
X117034284Y-81002276D01*
X117186756Y-81167902D01*
X117186761Y-81167907D01*
X117206824Y-81183523D01*
X117364424Y-81306189D01*
X117364425Y-81306189D01*
X117364427Y-81306191D01*
X117465824Y-81361064D01*
X117562426Y-81413342D01*
X117775365Y-81486444D01*
X117997431Y-81523500D01*
X118222569Y-81523500D01*
X118444635Y-81486444D01*
X118657574Y-81413342D01*
X118855576Y-81306189D01*
X119033240Y-81167906D01*
X119155511Y-81035086D01*
X119185715Y-81002276D01*
X119185717Y-81002273D01*
X119185722Y-81002268D01*
X119200482Y-80979675D01*
X119253628Y-80934321D01*
X119304289Y-80923500D01*
X126269457Y-80923500D01*
X126336496Y-80943185D01*
X126357138Y-80959819D01*
X128125181Y-82727862D01*
X128158666Y-82789185D01*
X128161500Y-82815543D01*
X128161500Y-83850537D01*
X128161501Y-83850553D01*
X128172113Y-83954427D01*
X128210484Y-84070225D01*
X128227885Y-84122738D01*
X128320970Y-84273652D01*
X128446348Y-84399030D01*
X128597262Y-84492115D01*
X128676504Y-84518372D01*
X128733947Y-84558143D01*
X128760772Y-84622658D01*
X128761500Y-84636078D01*
X128761500Y-120868100D01*
X128741815Y-120935139D01*
X128689011Y-120980894D01*
X128637500Y-120992100D01*
X128104294Y-120992100D01*
X128086324Y-120990791D01*
X128062206Y-120987258D01*
X128016651Y-120991245D01*
X128009573Y-120991864D01*
X128004172Y-120992100D01*
X127995817Y-120992100D01*
X127969869Y-120995132D01*
X127963780Y-120995844D01*
X127962019Y-120996024D01*
X127940974Y-120997865D01*
X127885574Y-121002712D01*
X127878506Y-121004172D01*
X127878496Y-121004128D01*
X127870906Y-121005810D01*
X127870917Y-121005854D01*
X127863886Y-121007520D01*
X127791805Y-121033756D01*
X127790104Y-121034347D01*
X127717262Y-121058485D01*
X127710720Y-121061536D01*
X127710700Y-121061494D01*
X127703696Y-121064885D01*
X127703717Y-121064926D01*
X127697264Y-121068166D01*
X127633147Y-121110336D01*
X127631627Y-121111305D01*
X127566346Y-121151572D01*
X127560683Y-121156050D01*
X127560653Y-121156013D01*
X127554627Y-121160922D01*
X127554657Y-121160957D01*
X127549127Y-121165597D01*
X127496434Y-121221447D01*
X127495178Y-121222739D01*
X126894122Y-121823795D01*
X126880495Y-121835573D01*
X126860941Y-121850131D01*
X126826977Y-121890606D01*
X126823330Y-121894587D01*
X126817421Y-121900498D01*
X126797425Y-121925785D01*
X126796288Y-121927179D01*
X126746967Y-121985960D01*
X126743001Y-121991991D01*
X126742963Y-121991966D01*
X126738782Y-121998528D01*
X126738821Y-121998552D01*
X126735035Y-122004688D01*
X126727340Y-122021190D01*
X126702587Y-122074270D01*
X126701816Y-122075863D01*
X126667391Y-122144410D01*
X126664923Y-122151193D01*
X126664878Y-122151176D01*
X126662322Y-122158532D01*
X126662366Y-122158547D01*
X126660096Y-122165393D01*
X126644576Y-122240555D01*
X126644186Y-122242313D01*
X126626499Y-122316944D01*
X126625661Y-122324119D01*
X126625613Y-122324113D01*
X126624823Y-122331845D01*
X126624870Y-122331850D01*
X126624240Y-122339042D01*
X126624482Y-122347347D01*
X126606753Y-122414930D01*
X126599802Y-122425259D01*
X126554111Y-122486295D01*
X126503011Y-122623295D01*
X126503011Y-122623297D01*
X126496500Y-122683845D01*
X126496500Y-123981154D01*
X126503011Y-124041702D01*
X126503011Y-124041704D01*
X126531765Y-124118793D01*
X126554111Y-124178704D01*
X126641739Y-124295761D01*
X126758796Y-124383389D01*
X126895799Y-124434489D01*
X126923050Y-124437418D01*
X126956345Y-124440999D01*
X126956362Y-124441000D01*
X127813638Y-124441000D01*
X127813654Y-124440999D01*
X127845589Y-124437564D01*
X127874201Y-124434489D01*
X127874211Y-124434485D01*
X127881481Y-124432768D01*
X127938519Y-124432768D01*
X127945790Y-124434485D01*
X127945799Y-124434489D01*
X127969642Y-124437052D01*
X128006345Y-124440999D01*
X128006362Y-124441000D01*
X128803638Y-124441000D01*
X128803654Y-124440999D01*
X128862396Y-124434683D01*
X128864201Y-124434489D01*
X128864202Y-124434488D01*
X128871751Y-124432705D01*
X128872218Y-124434683D01*
X128931334Y-124430444D01*
X128942272Y-124433655D01*
X128945799Y-124434489D01*
X129006345Y-124440999D01*
X129006362Y-124441000D01*
X129803638Y-124441000D01*
X129803654Y-124440999D01*
X129835589Y-124437564D01*
X129864201Y-124434489D01*
X129864211Y-124434485D01*
X129871481Y-124432768D01*
X129928517Y-124432768D01*
X129935797Y-124434488D01*
X129935799Y-124434489D01*
X129937604Y-124434683D01*
X129996345Y-124440999D01*
X129996362Y-124441000D01*
X130853638Y-124441000D01*
X130853654Y-124440999D01*
X130880692Y-124438091D01*
X130914201Y-124434489D01*
X131051204Y-124383389D01*
X131168261Y-124295761D01*
X131255889Y-124178704D01*
X131306989Y-124041701D01*
X131312140Y-123993791D01*
X131313499Y-123981154D01*
X131313500Y-123981137D01*
X131313500Y-122683862D01*
X131313499Y-122683845D01*
X131308282Y-122635327D01*
X131306989Y-122623299D01*
X131306524Y-122622053D01*
X131272720Y-122531422D01*
X131255889Y-122486296D01*
X131207417Y-122421544D01*
X131183523Y-122361631D01*
X131183499Y-122361434D01*
X131183500Y-122361420D01*
X131168079Y-122229487D01*
X131127649Y-122118407D01*
X131107436Y-122062870D01*
X131107435Y-122062868D01*
X131010001Y-121914726D01*
X130881029Y-121793047D01*
X130881028Y-121793046D01*
X130881025Y-121793044D01*
X130727474Y-121704392D01*
X130727473Y-121704391D01*
X130727472Y-121704391D01*
X130630192Y-121675267D01*
X130557610Y-121653538D01*
X130557604Y-121653537D01*
X130538886Y-121652447D01*
X130473105Y-121628896D01*
X130458419Y-121616338D01*
X130314818Y-121472737D01*
X130281333Y-121411414D01*
X130278499Y-121385056D01*
X130278499Y-84636078D01*
X130298184Y-84569039D01*
X130350988Y-84523284D01*
X130363484Y-84518376D01*
X130442738Y-84492115D01*
X130593652Y-84399030D01*
X130719030Y-84273652D01*
X130812115Y-84122738D01*
X130867887Y-83954426D01*
X130878500Y-83850545D01*
X130878499Y-82249456D01*
X130867887Y-82145574D01*
X130812115Y-81977262D01*
X130719030Y-81826348D01*
X130593652Y-81700970D01*
X130492870Y-81638807D01*
X130442740Y-81607886D01*
X130442735Y-81607884D01*
X130274427Y-81552113D01*
X130170552Y-81541500D01*
X130170545Y-81541500D01*
X129135543Y-81541500D01*
X129068504Y-81521815D01*
X129047862Y-81505181D01*
X127216804Y-79674123D01*
X127205022Y-79660490D01*
X127190472Y-79640946D01*
X127190471Y-79640945D01*
X127190469Y-79640942D01*
X127189595Y-79640208D01*
X127149987Y-79606972D01*
X127145998Y-79603317D01*
X127140102Y-79597421D01*
X127140097Y-79597417D01*
X127132243Y-79591207D01*
X127114805Y-79577418D01*
X127113409Y-79576280D01*
X127071176Y-79540843D01*
X127071175Y-79540842D01*
X137244880Y-79540842D01*
X137249325Y-79587866D01*
X137249600Y-79593704D01*
X137249600Y-95825366D01*
X137247861Y-95841113D01*
X137248132Y-95841139D01*
X137247397Y-95848906D01*
X137249569Y-95917990D01*
X137249600Y-95919938D01*
X137249600Y-95948859D01*
X137250484Y-95955856D01*
X137250942Y-95961679D01*
X137252426Y-96008889D01*
X137252427Y-96008891D01*
X137258122Y-96028495D01*
X137262067Y-96047542D01*
X137264626Y-96067797D01*
X137264627Y-96067800D01*
X137264628Y-96067803D01*
X137282014Y-96111716D01*
X137283906Y-96117244D01*
X137297081Y-96162592D01*
X137307472Y-96180162D01*
X137316032Y-96197635D01*
X137323547Y-96216617D01*
X137351309Y-96254827D01*
X137354518Y-96259712D01*
X137371006Y-96287593D01*
X137378558Y-96300362D01*
X137378562Y-96300366D01*
X137392989Y-96314793D01*
X137405626Y-96329588D01*
X137417628Y-96346107D01*
X137454031Y-96376222D01*
X137458331Y-96380135D01*
X137719139Y-96640943D01*
X137973220Y-96895024D01*
X138006705Y-96956347D01*
X138001721Y-97026039D01*
X137986604Y-97053125D01*
X137987083Y-97053438D01*
X137861139Y-97246209D01*
X137770703Y-97452385D01*
X137715436Y-97670628D01*
X137715434Y-97670640D01*
X137696844Y-97894994D01*
X137696844Y-97895005D01*
X137715434Y-98119359D01*
X137715436Y-98119371D01*
X137770703Y-98337614D01*
X137861140Y-98543792D01*
X137984276Y-98732265D01*
X137984284Y-98732276D01*
X138135288Y-98896307D01*
X138136760Y-98897906D01*
X138314424Y-99036189D01*
X138314429Y-99036191D01*
X138314431Y-99036193D01*
X138350930Y-99055946D01*
X138400520Y-99105165D01*
X138415628Y-99173382D01*
X138391457Y-99238937D01*
X138350930Y-99274054D01*
X138314431Y-99293806D01*
X138314422Y-99293812D01*
X138136761Y-99432092D01*
X138136756Y-99432097D01*
X137984284Y-99597723D01*
X137984276Y-99597734D01*
X137861140Y-99786207D01*
X137770703Y-99992385D01*
X137715436Y-100210628D01*
X137715434Y-100210640D01*
X137696844Y-100434994D01*
X137696844Y-100435005D01*
X137715434Y-100659359D01*
X137715436Y-100659371D01*
X137770703Y-100877614D01*
X137861140Y-101083792D01*
X137984276Y-101272265D01*
X137984284Y-101272276D01*
X138099357Y-101397276D01*
X138136760Y-101437906D01*
X138314424Y-101576189D01*
X138314429Y-101576191D01*
X138314431Y-101576193D01*
X138350930Y-101595946D01*
X138400520Y-101645165D01*
X138415628Y-101713382D01*
X138391457Y-101778937D01*
X138350930Y-101814054D01*
X138314431Y-101833806D01*
X138314422Y-101833812D01*
X138136761Y-101972092D01*
X138136756Y-101972097D01*
X137984284Y-102137723D01*
X137984276Y-102137734D01*
X137861141Y-102326206D01*
X137770703Y-102532385D01*
X137715436Y-102750628D01*
X137715434Y-102750640D01*
X137696844Y-102974994D01*
X137696844Y-102975005D01*
X137715434Y-103199359D01*
X137715436Y-103199371D01*
X137770703Y-103417614D01*
X137861140Y-103623792D01*
X137984276Y-103812265D01*
X137984284Y-103812276D01*
X138135288Y-103976307D01*
X138136760Y-103977906D01*
X138314424Y-104116189D01*
X138314429Y-104116191D01*
X138314431Y-104116193D01*
X138350930Y-104135946D01*
X138400520Y-104185165D01*
X138415628Y-104253382D01*
X138391457Y-104318937D01*
X138350930Y-104354054D01*
X138314431Y-104373806D01*
X138314422Y-104373812D01*
X138136761Y-104512092D01*
X138136756Y-104512097D01*
X137984284Y-104677723D01*
X137984276Y-104677734D01*
X137861141Y-104866206D01*
X137770703Y-105072385D01*
X137715436Y-105290628D01*
X137715434Y-105290640D01*
X137696844Y-105514994D01*
X137696844Y-105515005D01*
X137715434Y-105739359D01*
X137715436Y-105739371D01*
X137770703Y-105957614D01*
X137861140Y-106163792D01*
X137984276Y-106352265D01*
X137984284Y-106352276D01*
X138135288Y-106516307D01*
X138136760Y-106517906D01*
X138314424Y-106656189D01*
X138314425Y-106656189D01*
X138314427Y-106656191D01*
X138415824Y-106711064D01*
X138512426Y-106763342D01*
X138725365Y-106836444D01*
X138947431Y-106873500D01*
X139172569Y-106873500D01*
X139394635Y-106836444D01*
X139607574Y-106763342D01*
X139805576Y-106656189D01*
X139983240Y-106517906D01*
X140135722Y-106352268D01*
X140226193Y-106213790D01*
X140279338Y-106168437D01*
X140348569Y-106159013D01*
X140411905Y-106188515D01*
X140433804Y-106213787D01*
X140524278Y-106352268D01*
X140524283Y-106352273D01*
X140524284Y-106352276D01*
X140675288Y-106516307D01*
X140676760Y-106517906D01*
X140854424Y-106656189D01*
X140854429Y-106656191D01*
X140854431Y-106656193D01*
X140890930Y-106675946D01*
X140940520Y-106725165D01*
X140955628Y-106793382D01*
X140931457Y-106858937D01*
X140890930Y-106894054D01*
X140854431Y-106913806D01*
X140854422Y-106913812D01*
X140676761Y-107052092D01*
X140676756Y-107052097D01*
X140524284Y-107217723D01*
X140524276Y-107217734D01*
X140401140Y-107406207D01*
X140310703Y-107612385D01*
X140255436Y-107830628D01*
X140255434Y-107830640D01*
X140236844Y-108054994D01*
X140236844Y-108055005D01*
X140255434Y-108279359D01*
X140255436Y-108279371D01*
X140310703Y-108497614D01*
X140401140Y-108703792D01*
X140524276Y-108892265D01*
X140524284Y-108892276D01*
X140639357Y-109017276D01*
X140676760Y-109057906D01*
X140854424Y-109196189D01*
X140854425Y-109196189D01*
X140854427Y-109196191D01*
X140981135Y-109264761D01*
X141052426Y-109303342D01*
X141265365Y-109376444D01*
X141487431Y-109413500D01*
X141712569Y-109413500D01*
X141934635Y-109376444D01*
X142147574Y-109303342D01*
X142345576Y-109196189D01*
X142523240Y-109057906D01*
X142675722Y-108892268D01*
X142798860Y-108703791D01*
X142889296Y-108497616D01*
X142944564Y-108279368D01*
X142952799Y-108179994D01*
X142963156Y-108055005D01*
X142963156Y-108054994D01*
X142944565Y-107830640D01*
X142944563Y-107830628D01*
X142889296Y-107612385D01*
X142853689Y-107531209D01*
X142798860Y-107406209D01*
X142793835Y-107398518D01*
X142708390Y-107267734D01*
X142675722Y-107217732D01*
X142675719Y-107217729D01*
X142675715Y-107217723D01*
X142523243Y-107052097D01*
X142523238Y-107052092D01*
X142384432Y-106944054D01*
X142345576Y-106913811D01*
X142309070Y-106894055D01*
X142259479Y-106844836D01*
X142244371Y-106776619D01*
X142268541Y-106711064D01*
X142309070Y-106675945D01*
X142309084Y-106675936D01*
X142345576Y-106656189D01*
X142523240Y-106517906D01*
X142675722Y-106352268D01*
X142798860Y-106163791D01*
X142889296Y-105957616D01*
X142944564Y-105739368D01*
X142952799Y-105639994D01*
X142963156Y-105515005D01*
X142963156Y-105514994D01*
X142944565Y-105290640D01*
X142944563Y-105290628D01*
X142931444Y-105238823D01*
X142889296Y-105072384D01*
X142832982Y-104944001D01*
X142798859Y-104866206D01*
X142690764Y-104700756D01*
X142675722Y-104677732D01*
X142675719Y-104677729D01*
X142675715Y-104677723D01*
X142523243Y-104512097D01*
X142523238Y-104512092D01*
X142384432Y-104404054D01*
X142345576Y-104373811D01*
X142345575Y-104373810D01*
X142345572Y-104373808D01*
X142309068Y-104354053D01*
X142259478Y-104304833D01*
X142244371Y-104236616D01*
X142268542Y-104171061D01*
X142309069Y-104135945D01*
X142345576Y-104116189D01*
X142523240Y-103977906D01*
X142675722Y-103812268D01*
X142798860Y-103623791D01*
X142889296Y-103417616D01*
X142944564Y-103199368D01*
X142952799Y-103099994D01*
X142963156Y-102975005D01*
X142963156Y-102974994D01*
X142944565Y-102750640D01*
X142944563Y-102750628D01*
X142931444Y-102698823D01*
X142889296Y-102532384D01*
X142832982Y-102404001D01*
X142798859Y-102326206D01*
X142675723Y-102137734D01*
X142675715Y-102137723D01*
X142523243Y-101972097D01*
X142523238Y-101972092D01*
X142368509Y-101851661D01*
X142345576Y-101833811D01*
X142345575Y-101833810D01*
X142345572Y-101833808D01*
X142147580Y-101726661D01*
X142147577Y-101726659D01*
X142147574Y-101726658D01*
X142147571Y-101726657D01*
X142147569Y-101726656D01*
X141934637Y-101653556D01*
X141712569Y-101616500D01*
X141487431Y-101616500D01*
X141265362Y-101653556D01*
X141052430Y-101726656D01*
X141052419Y-101726661D01*
X140854427Y-101833808D01*
X140854422Y-101833812D01*
X140676761Y-101972092D01*
X140676756Y-101972097D01*
X140524284Y-102137723D01*
X140524276Y-102137734D01*
X140433808Y-102276206D01*
X140380662Y-102321562D01*
X140311431Y-102330986D01*
X140248095Y-102301484D01*
X140226192Y-102276206D01*
X140135723Y-102137734D01*
X140135715Y-102137723D01*
X139983243Y-101972097D01*
X139983238Y-101972092D01*
X139828509Y-101851661D01*
X139805576Y-101833811D01*
X139769070Y-101814055D01*
X139719479Y-101764836D01*
X139704371Y-101696619D01*
X139728541Y-101631064D01*
X139769070Y-101595945D01*
X139769084Y-101595936D01*
X139805576Y-101576189D01*
X139983240Y-101437906D01*
X140135722Y-101272268D01*
X140258860Y-101083791D01*
X140349296Y-100877616D01*
X140404564Y-100659368D01*
X140412799Y-100559994D01*
X140423156Y-100435005D01*
X140423156Y-100434994D01*
X140404565Y-100210640D01*
X140404563Y-100210628D01*
X140349296Y-99992385D01*
X140315548Y-99915447D01*
X140258860Y-99786209D01*
X140253835Y-99778518D01*
X140174369Y-99656886D01*
X140135722Y-99597732D01*
X140135719Y-99597729D01*
X140135715Y-99597723D01*
X139983243Y-99432097D01*
X139983238Y-99432092D01*
X139864797Y-99339905D01*
X139805576Y-99293811D01*
X139769070Y-99274055D01*
X139719479Y-99224836D01*
X139704371Y-99156619D01*
X139728541Y-99091064D01*
X139769070Y-99055945D01*
X139769084Y-99055936D01*
X139805576Y-99036189D01*
X139983240Y-98897906D01*
X140135722Y-98732268D01*
X140226193Y-98593790D01*
X140279338Y-98548437D01*
X140348569Y-98539013D01*
X140411905Y-98568515D01*
X140433804Y-98593787D01*
X140524278Y-98732268D01*
X140524283Y-98732273D01*
X140524284Y-98732276D01*
X140675288Y-98896307D01*
X140676760Y-98897906D01*
X140854424Y-99036189D01*
X140854425Y-99036189D01*
X140854427Y-99036191D01*
X140946812Y-99086187D01*
X141052426Y-99143342D01*
X141265365Y-99216444D01*
X141487431Y-99253500D01*
X141712569Y-99253500D01*
X141934635Y-99216444D01*
X142147574Y-99143342D01*
X142345576Y-99036189D01*
X142523240Y-98897906D01*
X142675722Y-98732268D01*
X142798860Y-98543791D01*
X142889296Y-98337616D01*
X142944564Y-98119368D01*
X142952799Y-98019994D01*
X142963156Y-97895005D01*
X142963156Y-97894994D01*
X142944565Y-97670640D01*
X142944563Y-97670628D01*
X142931444Y-97618823D01*
X142889296Y-97452384D01*
X142832982Y-97324001D01*
X142798859Y-97246206D01*
X142680702Y-97065355D01*
X142675722Y-97057732D01*
X142675719Y-97057729D01*
X142675715Y-97057723D01*
X142523243Y-96892097D01*
X142523238Y-96892092D01*
X142383663Y-96783456D01*
X142345576Y-96753811D01*
X142345575Y-96753810D01*
X142345572Y-96753808D01*
X142309068Y-96734053D01*
X142259478Y-96684833D01*
X142244371Y-96616616D01*
X142268542Y-96551061D01*
X142309069Y-96515945D01*
X142345576Y-96496189D01*
X142523240Y-96357906D01*
X142653307Y-96216617D01*
X142675715Y-96192276D01*
X142675717Y-96192273D01*
X142675722Y-96192268D01*
X142798860Y-96003791D01*
X142889296Y-95797616D01*
X142944564Y-95579368D01*
X142944565Y-95579359D01*
X142963156Y-95355005D01*
X142963156Y-95354994D01*
X142944565Y-95130640D01*
X142944563Y-95130628D01*
X142917818Y-95025015D01*
X142889296Y-94912384D01*
X142832982Y-94784001D01*
X142798859Y-94706206D01*
X142675723Y-94517734D01*
X142675715Y-94517723D01*
X142523243Y-94352097D01*
X142523238Y-94352092D01*
X142368509Y-94231661D01*
X142345576Y-94213811D01*
X142345575Y-94213810D01*
X142345572Y-94213808D01*
X142147580Y-94106661D01*
X142147577Y-94106659D01*
X142147574Y-94106658D01*
X142147571Y-94106657D01*
X142147569Y-94106656D01*
X141934637Y-94033556D01*
X141712569Y-93996500D01*
X141487431Y-93996500D01*
X141265362Y-94033556D01*
X141052430Y-94106656D01*
X141052419Y-94106661D01*
X140854427Y-94213808D01*
X140854422Y-94213812D01*
X140676761Y-94352092D01*
X140676756Y-94352097D01*
X140524284Y-94517723D01*
X140524276Y-94517734D01*
X140433808Y-94656206D01*
X140380662Y-94701562D01*
X140311431Y-94710986D01*
X140248095Y-94681484D01*
X140226192Y-94656206D01*
X140135723Y-94517734D01*
X140135715Y-94517723D01*
X139983243Y-94352097D01*
X139983238Y-94352092D01*
X139828509Y-94231661D01*
X139805576Y-94213811D01*
X139769070Y-94194055D01*
X139719479Y-94144836D01*
X139704371Y-94076619D01*
X139728541Y-94011064D01*
X139769070Y-93975945D01*
X139769084Y-93975936D01*
X139805576Y-93956189D01*
X139983240Y-93817906D01*
X140135722Y-93652268D01*
X140258860Y-93463791D01*
X140349296Y-93257616D01*
X140404564Y-93039368D01*
X140412799Y-92939994D01*
X140423156Y-92815005D01*
X140423156Y-92814994D01*
X140404565Y-92590640D01*
X140404563Y-92590628D01*
X140349296Y-92372385D01*
X140315548Y-92295447D01*
X140258860Y-92166209D01*
X140253835Y-92158518D01*
X140174369Y-92036886D01*
X140135722Y-91977732D01*
X140135719Y-91977729D01*
X140135715Y-91977723D01*
X139983243Y-91812097D01*
X139983238Y-91812092D01*
X139864797Y-91719905D01*
X139805576Y-91673811D01*
X139769070Y-91654055D01*
X139719479Y-91604836D01*
X139704371Y-91536619D01*
X139728541Y-91471064D01*
X139769070Y-91435945D01*
X139769084Y-91435936D01*
X139805576Y-91416189D01*
X139983240Y-91277906D01*
X140135722Y-91112268D01*
X140226193Y-90973790D01*
X140279338Y-90928437D01*
X140348569Y-90919013D01*
X140411905Y-90948515D01*
X140433804Y-90973787D01*
X140524278Y-91112268D01*
X140524283Y-91112273D01*
X140524284Y-91112276D01*
X140675288Y-91276307D01*
X140676760Y-91277906D01*
X140854424Y-91416189D01*
X140854425Y-91416189D01*
X140854427Y-91416191D01*
X140890930Y-91435945D01*
X141052426Y-91523342D01*
X141265365Y-91596444D01*
X141487431Y-91633500D01*
X141712569Y-91633500D01*
X141934635Y-91596444D01*
X142147574Y-91523342D01*
X142345576Y-91416189D01*
X142523240Y-91277906D01*
X142675722Y-91112268D01*
X142798860Y-90923791D01*
X142889296Y-90717616D01*
X142944564Y-90499368D01*
X142944565Y-90499359D01*
X142963156Y-90275005D01*
X142963156Y-90274994D01*
X142944565Y-90050640D01*
X142944563Y-90050628D01*
X142931444Y-89998823D01*
X142889296Y-89832384D01*
X142832982Y-89704001D01*
X142798859Y-89626206D01*
X142675723Y-89437734D01*
X142675715Y-89437723D01*
X142523243Y-89272097D01*
X142523238Y-89272092D01*
X142368509Y-89151661D01*
X142345576Y-89133811D01*
X142309070Y-89114055D01*
X142259479Y-89064836D01*
X142244371Y-88996619D01*
X142268541Y-88931064D01*
X142309070Y-88895945D01*
X142309084Y-88895936D01*
X142345576Y-88876189D01*
X142523240Y-88737906D01*
X142675722Y-88572268D01*
X142798860Y-88383791D01*
X142889296Y-88177616D01*
X142944564Y-87959368D01*
X142952799Y-87859994D01*
X142963156Y-87735005D01*
X142963156Y-87734994D01*
X142944565Y-87510640D01*
X142944563Y-87510628D01*
X142889296Y-87292385D01*
X142853689Y-87211209D01*
X142798860Y-87086209D01*
X142757388Y-87022732D01*
X142708390Y-86947734D01*
X142675722Y-86897732D01*
X142675719Y-86897729D01*
X142675715Y-86897723D01*
X142523243Y-86732097D01*
X142523238Y-86732092D01*
X142377228Y-86618447D01*
X142345576Y-86593811D01*
X142345575Y-86593810D01*
X142345572Y-86593808D01*
X142309068Y-86574053D01*
X142259478Y-86524833D01*
X142244371Y-86456616D01*
X142268542Y-86391061D01*
X142309069Y-86355945D01*
X142345576Y-86336189D01*
X142523240Y-86197906D01*
X142675722Y-86032268D01*
X142798860Y-85843791D01*
X142889296Y-85637616D01*
X142944564Y-85419368D01*
X142952799Y-85319994D01*
X142963156Y-85195005D01*
X142963156Y-85194994D01*
X142944565Y-84970640D01*
X142944563Y-84970628D01*
X142901958Y-84802384D01*
X142889296Y-84752384D01*
X142832393Y-84622658D01*
X142798859Y-84546206D01*
X142675723Y-84357734D01*
X142675715Y-84357723D01*
X142523243Y-84192097D01*
X142523238Y-84192092D01*
X142368509Y-84071661D01*
X142345576Y-84053811D01*
X142345575Y-84053810D01*
X142345572Y-84053808D01*
X142147580Y-83946661D01*
X142147577Y-83946659D01*
X142147574Y-83946658D01*
X142147571Y-83946657D01*
X142147569Y-83946656D01*
X141934637Y-83873556D01*
X141712569Y-83836500D01*
X141487431Y-83836500D01*
X141265362Y-83873556D01*
X141052430Y-83946656D01*
X141052419Y-83946661D01*
X140854427Y-84053808D01*
X140854422Y-84053812D01*
X140676761Y-84192092D01*
X140676756Y-84192097D01*
X140524284Y-84357723D01*
X140524276Y-84357734D01*
X140433808Y-84496206D01*
X140380662Y-84541562D01*
X140311431Y-84550986D01*
X140248095Y-84521484D01*
X140226192Y-84496206D01*
X140135723Y-84357734D01*
X140135715Y-84357723D01*
X139983243Y-84192097D01*
X139983238Y-84192092D01*
X139828509Y-84071661D01*
X139805576Y-84053811D01*
X139769070Y-84034055D01*
X139719479Y-83984836D01*
X139704371Y-83916619D01*
X139728541Y-83851064D01*
X139769070Y-83815945D01*
X139769084Y-83815936D01*
X139805576Y-83796189D01*
X139983240Y-83657906D01*
X140135722Y-83492268D01*
X140258860Y-83303791D01*
X140349296Y-83097616D01*
X140404564Y-82879368D01*
X140404565Y-82879359D01*
X140423156Y-82655005D01*
X140423156Y-82654994D01*
X140404565Y-82430640D01*
X140404563Y-82430628D01*
X140349296Y-82212385D01*
X140319990Y-82145574D01*
X140258860Y-82006209D01*
X140239949Y-81977264D01*
X140168390Y-81867734D01*
X140135722Y-81817732D01*
X140135719Y-81817729D01*
X140135715Y-81817723D01*
X139983243Y-81652097D01*
X139983238Y-81652092D01*
X139841150Y-81541500D01*
X139805576Y-81513811D01*
X139769070Y-81494055D01*
X139719479Y-81444836D01*
X139704371Y-81376619D01*
X139728541Y-81311064D01*
X139769070Y-81275945D01*
X139769084Y-81275936D01*
X139805576Y-81256189D01*
X139983240Y-81117906D01*
X140089689Y-81002273D01*
X140135715Y-80952276D01*
X140135715Y-80952275D01*
X140135722Y-80952268D01*
X140226193Y-80813790D01*
X140279338Y-80768437D01*
X140348569Y-80759013D01*
X140411905Y-80788515D01*
X140433804Y-80813787D01*
X140524278Y-80952268D01*
X140524283Y-80952273D01*
X140524284Y-80952276D01*
X140660685Y-81100444D01*
X140676760Y-81117906D01*
X140854424Y-81256189D01*
X140854425Y-81256189D01*
X140854427Y-81256191D01*
X140955824Y-81311064D01*
X141052426Y-81363342D01*
X141265365Y-81436444D01*
X141487431Y-81473500D01*
X141712569Y-81473500D01*
X141934635Y-81436444D01*
X142147574Y-81363342D01*
X142345576Y-81256189D01*
X142523240Y-81117906D01*
X142629689Y-81002273D01*
X142675715Y-80952276D01*
X142675717Y-80952273D01*
X142675722Y-80952268D01*
X142798860Y-80763791D01*
X142889296Y-80557616D01*
X142944564Y-80339368D01*
X142952799Y-80239994D01*
X142963156Y-80115005D01*
X142963156Y-80114994D01*
X142944565Y-79890640D01*
X142944563Y-79890628D01*
X142899547Y-79712866D01*
X142889296Y-79672384D01*
X142836722Y-79552528D01*
X142798859Y-79466206D01*
X142678438Y-79281889D01*
X142675722Y-79277732D01*
X142675719Y-79277729D01*
X142675715Y-79277723D01*
X142523243Y-79112097D01*
X142523238Y-79112092D01*
X142356337Y-78982186D01*
X142315524Y-78925475D01*
X142308500Y-78884333D01*
X142308500Y-78805665D01*
X142328185Y-78738626D01*
X142356336Y-78707813D01*
X142523240Y-78577906D01*
X142675722Y-78412268D01*
X142798860Y-78223791D01*
X142889296Y-78017616D01*
X142944564Y-77799368D01*
X142952799Y-77699994D01*
X142963156Y-77575005D01*
X142963156Y-77574994D01*
X142944565Y-77350640D01*
X142944563Y-77350628D01*
X142901958Y-77182384D01*
X142889296Y-77132384D01*
X142798860Y-76926209D01*
X142781824Y-76900134D01*
X142708390Y-76787734D01*
X142675722Y-76737732D01*
X142675719Y-76737729D01*
X142675715Y-76737723D01*
X142523243Y-76572097D01*
X142523238Y-76572092D01*
X142345577Y-76433812D01*
X142345572Y-76433808D01*
X142147580Y-76326661D01*
X142147577Y-76326659D01*
X142147574Y-76326658D01*
X142147571Y-76326657D01*
X142147569Y-76326656D01*
X141934637Y-76253556D01*
X141712569Y-76216500D01*
X141487431Y-76216500D01*
X141265362Y-76253556D01*
X141052430Y-76326656D01*
X141052419Y-76326661D01*
X140854427Y-76433808D01*
X140854422Y-76433812D01*
X140676761Y-76572092D01*
X140613548Y-76640760D01*
X140553661Y-76676750D01*
X140483823Y-76674649D01*
X140426207Y-76635124D01*
X140406138Y-76600110D01*
X140360889Y-76478796D01*
X140327214Y-76433812D01*
X140273261Y-76361739D01*
X140156204Y-76274111D01*
X140151051Y-76272189D01*
X140019203Y-76223011D01*
X139958654Y-76216500D01*
X139958638Y-76216500D01*
X138161362Y-76216500D01*
X138161345Y-76216500D01*
X138100797Y-76223011D01*
X138100795Y-76223011D01*
X137963795Y-76274111D01*
X137846739Y-76361739D01*
X137759111Y-76478795D01*
X137708011Y-76615795D01*
X137708011Y-76615797D01*
X137701500Y-76676345D01*
X137701500Y-78473654D01*
X137708011Y-78534202D01*
X137708011Y-78534204D01*
X137762210Y-78679512D01*
X137759407Y-78680557D01*
X137771076Y-78734180D01*
X137746662Y-78799646D01*
X137735072Y-78813022D01*
X137494282Y-79053812D01*
X137481920Y-79063716D01*
X137482094Y-79063926D01*
X137476083Y-79068898D01*
X137428772Y-79119278D01*
X137427419Y-79120674D01*
X137406973Y-79141121D01*
X137406957Y-79141139D01*
X137402631Y-79146714D01*
X137398847Y-79151144D01*
X137366519Y-79185571D01*
X137366512Y-79185581D01*
X137356679Y-79203467D01*
X137346003Y-79219720D01*
X137333486Y-79235857D01*
X137333485Y-79235859D01*
X137314725Y-79279210D01*
X137312155Y-79284456D01*
X137289403Y-79325841D01*
X137289403Y-79325842D01*
X137284325Y-79345620D01*
X137278025Y-79364022D01*
X137269918Y-79382757D01*
X137262531Y-79429395D01*
X137261346Y-79435116D01*
X137249600Y-79480865D01*
X137249600Y-79501284D01*
X137248073Y-79520683D01*
X137244880Y-79540841D01*
X137244880Y-79540842D01*
X127071175Y-79540842D01*
X127054640Y-79526968D01*
X127054635Y-79526965D01*
X127048605Y-79522999D01*
X127048630Y-79522959D01*
X127042069Y-79518779D01*
X127042045Y-79518820D01*
X127035900Y-79515029D01*
X126966343Y-79482594D01*
X126964721Y-79481808D01*
X126896185Y-79447389D01*
X126889401Y-79444920D01*
X126889416Y-79444876D01*
X126882071Y-79442322D01*
X126882057Y-79442367D01*
X126875205Y-79440096D01*
X126800043Y-79424576D01*
X126798284Y-79424186D01*
X126723653Y-79406499D01*
X126716482Y-79405661D01*
X126716487Y-79405612D01*
X126708757Y-79404822D01*
X126708753Y-79404870D01*
X126701562Y-79404240D01*
X126624806Y-79406474D01*
X126623003Y-79406500D01*
X119304289Y-79406500D01*
X119237250Y-79386815D01*
X119200482Y-79350324D01*
X119185722Y-79327732D01*
X119185718Y-79327728D01*
X119185715Y-79327723D01*
X119033243Y-79162097D01*
X119033238Y-79162092D01*
X118916337Y-79071103D01*
X118875524Y-79014392D01*
X118868500Y-78973250D01*
X118868500Y-78816748D01*
X118888185Y-78749709D01*
X118916338Y-78718895D01*
X118936878Y-78702908D01*
X119033240Y-78627906D01*
X119165356Y-78484391D01*
X119185715Y-78462276D01*
X119185716Y-78462274D01*
X119185722Y-78462268D01*
X119308860Y-78273791D01*
X119399296Y-78067616D01*
X119454564Y-77849368D01*
X119466941Y-77700005D01*
X119473156Y-77625005D01*
X119473156Y-77624994D01*
X119454565Y-77400640D01*
X119454563Y-77400628D01*
X119441901Y-77350628D01*
X119399296Y-77182384D01*
X119308860Y-76976209D01*
X119276193Y-76926209D01*
X119194616Y-76801345D01*
X119185722Y-76787732D01*
X119185719Y-76787729D01*
X119185715Y-76787723D01*
X119033243Y-76622097D01*
X119033238Y-76622092D01*
X118855577Y-76483812D01*
X118855572Y-76483808D01*
X118657580Y-76376661D01*
X118657577Y-76376659D01*
X118657574Y-76376658D01*
X118657571Y-76376657D01*
X118657569Y-76376656D01*
X118444637Y-76303556D01*
X118222569Y-76266500D01*
X117997431Y-76266500D01*
X117997428Y-76266500D01*
X117963329Y-76272189D01*
X117893964Y-76263805D01*
X117855242Y-76237561D01*
X117451804Y-75834123D01*
X117440022Y-75820490D01*
X117425472Y-75800946D01*
X117425471Y-75800945D01*
X117425469Y-75800942D01*
X117424595Y-75800208D01*
X117384987Y-75766972D01*
X117380998Y-75763317D01*
X117375102Y-75757421D01*
X117375097Y-75757417D01*
X117349805Y-75737418D01*
X117348409Y-75736280D01*
X117289642Y-75686970D01*
X117289640Y-75686968D01*
X117289635Y-75686965D01*
X117283605Y-75682999D01*
X117283630Y-75682959D01*
X117277069Y-75678779D01*
X117277045Y-75678820D01*
X117270900Y-75675029D01*
X117201343Y-75642594D01*
X117199721Y-75641808D01*
X117131185Y-75607389D01*
X117124401Y-75604920D01*
X117124416Y-75604876D01*
X117117071Y-75602322D01*
X117117057Y-75602367D01*
X117110205Y-75600096D01*
X117035043Y-75584576D01*
X117033284Y-75584186D01*
X116958653Y-75566499D01*
X116951482Y-75565661D01*
X116951487Y-75565612D01*
X116943757Y-75564822D01*
X116943753Y-75564870D01*
X116936562Y-75564240D01*
X116859806Y-75566474D01*
X116858003Y-75566500D01*
X110813876Y-75566500D01*
X110810274Y-75566395D01*
X110745597Y-75562628D01*
X110745594Y-75562628D01*
X110681808Y-75573875D01*
X110678241Y-75574398D01*
X110613884Y-75581921D01*
X110613879Y-75581922D01*
X110603122Y-75585837D01*
X110582258Y-75591428D01*
X110570985Y-75593416D01*
X110570976Y-75593419D01*
X110544553Y-75604817D01*
X110511494Y-75619076D01*
X110508153Y-75620404D01*
X110447272Y-75642562D01*
X110447263Y-75642567D01*
X110437691Y-75648862D01*
X110418683Y-75659111D01*
X110408175Y-75663644D01*
X110408167Y-75663648D01*
X110356218Y-75702322D01*
X110353265Y-75704390D01*
X110299128Y-75739997D01*
X110291265Y-75748331D01*
X110275128Y-75762691D01*
X110265943Y-75769529D01*
X110224306Y-75819148D01*
X110221910Y-75821841D01*
X110177447Y-75868969D01*
X110171719Y-75878892D01*
X110159324Y-75896593D01*
X110151967Y-75905360D01*
X110151966Y-75905361D01*
X110122900Y-75963236D01*
X110121189Y-75966409D01*
X110088792Y-76022522D01*
X110088790Y-76022528D01*
X110085503Y-76033507D01*
X110077528Y-76053581D01*
X110072390Y-76063811D01*
X110057454Y-76126830D01*
X110056521Y-76130312D01*
X110037937Y-76192392D01*
X110037271Y-76203829D01*
X110034141Y-76225198D01*
X110031500Y-76236344D01*
X110031500Y-76301123D01*
X110031395Y-76304725D01*
X110027628Y-76369403D01*
X110028908Y-76376661D01*
X110029616Y-76380676D01*
X110031500Y-76402209D01*
X110031500Y-76508250D01*
X110011815Y-76575289D01*
X109983663Y-76606103D01*
X109866761Y-76697092D01*
X109803548Y-76765760D01*
X109743661Y-76801750D01*
X109673823Y-76799649D01*
X109616207Y-76760124D01*
X109596138Y-76725110D01*
X109550889Y-76603796D01*
X109527157Y-76572094D01*
X109463261Y-76486739D01*
X109346204Y-76399111D01*
X109346203Y-76399110D01*
X109209203Y-76348011D01*
X109148654Y-76341500D01*
X109148638Y-76341500D01*
X107351362Y-76341500D01*
X107351345Y-76341500D01*
X107290797Y-76348011D01*
X107290795Y-76348011D01*
X107153795Y-76399111D01*
X107036739Y-76486739D01*
X106949111Y-76603795D01*
X106898011Y-76740795D01*
X106898011Y-76740797D01*
X106891500Y-76801345D01*
X106891500Y-78598654D01*
X106898011Y-78659202D01*
X106898011Y-78659204D01*
X106952210Y-78804512D01*
X106949407Y-78805557D01*
X106961076Y-78859180D01*
X106936662Y-78924646D01*
X106925072Y-78938022D01*
X106684282Y-79178812D01*
X106671920Y-79188716D01*
X106672094Y-79188926D01*
X106666083Y-79193898D01*
X106618772Y-79244278D01*
X106617419Y-79245674D01*
X106596973Y-79266121D01*
X106596957Y-79266139D01*
X106592631Y-79271714D01*
X106588847Y-79276144D01*
X106556519Y-79310571D01*
X106556512Y-79310581D01*
X106546679Y-79328467D01*
X106536003Y-79344720D01*
X106523486Y-79360857D01*
X106523485Y-79360859D01*
X106504725Y-79404210D01*
X106502155Y-79409456D01*
X106479403Y-79450841D01*
X106479403Y-79450842D01*
X106474325Y-79470620D01*
X106468025Y-79489022D01*
X106459918Y-79507757D01*
X106452531Y-79554395D01*
X106451346Y-79560116D01*
X106439600Y-79605865D01*
X106439600Y-79626284D01*
X106438073Y-79645683D01*
X106434880Y-79665841D01*
X106434880Y-79665842D01*
X104000500Y-79665842D01*
X104000500Y-77958726D01*
X104001800Y-77954296D01*
X104000541Y-77909361D01*
X104000528Y-77906454D01*
X104003746Y-77739129D01*
X104008908Y-77506722D01*
X104009291Y-77501108D01*
X104031401Y-77307908D01*
X104057031Y-77100292D01*
X104057897Y-77095116D01*
X104099216Y-76899976D01*
X104144543Y-76700521D01*
X104145801Y-76695856D01*
X104205875Y-76503948D01*
X104206207Y-76502925D01*
X104270599Y-76311246D01*
X104272193Y-76307024D01*
X104350566Y-76120662D01*
X104351120Y-76119393D01*
X104433989Y-75936156D01*
X104435849Y-75932392D01*
X104488618Y-75834123D01*
X104531719Y-75753857D01*
X104532655Y-75752180D01*
X104633215Y-75578711D01*
X104635182Y-75575549D01*
X104747741Y-75406530D01*
X104749021Y-75404687D01*
X104866292Y-75242484D01*
X104868366Y-75239780D01*
X104996485Y-75082064D01*
X104998210Y-75080034D01*
X105131064Y-74930566D01*
X105133134Y-74928352D01*
X105275659Y-74783394D01*
X105277821Y-74781303D01*
X105425035Y-74645924D01*
X105427068Y-74644136D01*
X105582539Y-74513412D01*
X105585227Y-74511276D01*
X105745463Y-74391247D01*
X105747310Y-74389919D01*
X105914334Y-74274561D01*
X105917481Y-74272529D01*
X106089225Y-74169047D01*
X106090835Y-74168112D01*
X106267802Y-74069189D01*
X106271471Y-74067299D01*
X106453275Y-73981344D01*
X106454625Y-73980727D01*
X106639589Y-73899232D01*
X106643770Y-73897573D01*
X106834355Y-73829939D01*
X106835296Y-73829615D01*
X107026167Y-73766300D01*
X107030857Y-73764949D01*
X107229590Y-73716235D01*
X107423906Y-73671642D01*
X107429115Y-73670681D01*
X107439787Y-73669179D01*
X107636191Y-73641551D01*
X107829018Y-73616171D01*
X107834663Y-73615690D01*
X108067706Y-73606569D01*
X108234139Y-73600549D01*
X108236950Y-73600513D01*
X108282617Y-73600970D01*
X108287091Y-73600500D01*
X143575500Y-73600500D01*
X143642539Y-73620185D01*
G37*
G04 #@! TD.AperFunction*
D22*
X108235592Y-73600000D02*
X143700000Y-73600000D01*
X132750001Y-129900045D02*
G75*
G03*
X137000000Y-125550000I-52401J4302345D01*
G01*
X143700000Y-112350000D02*
X137000000Y-112350000D01*
X143700000Y-73600000D02*
X143700000Y-112350000D01*
X104000004Y-125685592D02*
G75*
G03*
X108361560Y-129900000I4256596J41092D01*
G01*
X104000000Y-125685592D02*
X104000000Y-77907877D01*
X132750000Y-129900000D02*
X108361560Y-129900000D01*
X108235592Y-73599997D02*
G75*
G03*
X104000001Y-77907877I-46932J-4190053D01*
G01*
X137000000Y-112350000D02*
X137000000Y-125550000D01*
M02*
