M48
; DRILL file {KiCad 7.0.5} date Sun Jun 11 09:32:42 2023
; FORMAT={-:-/ absolute / metric / decimal}
; #@! TF.CreationDate,2023-06-11T09:32:42-04:00
; #@! TF.GenerationSoftware,Kicad,Pcbnew,7.0.5
; #@! TF.FileFunction,Plated,1,2,PTH
FMAT,2
METRIC
; #@! TA.AperFunction,Plated,PTH,ComponentDrill
T1C1.000
%
G90
G05
T1
X108.25Y-77.7
X108.25Y-80.24
X108.25Y-82.78
X108.25Y-85.32
X108.25Y-87.86
X108.25Y-90.4
X108.25Y-92.94
X108.25Y-95.48
X108.25Y-98.02
X108.25Y-100.56
X108.25Y-103.1
X108.25Y-105.64
X108.25Y-108.18
X108.25Y-110.72
X108.25Y-113.26
X108.25Y-115.8
X108.25Y-118.34
X108.25Y-120.88
X108.25Y-123.42
X108.25Y-125.96
X110.79Y-77.7
X110.79Y-80.24
X110.79Y-82.78
X110.79Y-85.32
X110.79Y-87.86
X110.79Y-90.4
X110.79Y-92.94
X110.79Y-95.48
X110.79Y-98.02
X110.79Y-100.56
X110.79Y-103.1
X110.79Y-105.64
X110.79Y-108.18
X110.79Y-110.72
X110.79Y-113.26
X110.79Y-115.8
X110.79Y-118.34
X110.79Y-120.88
X110.79Y-123.42
X110.79Y-125.96
X115.57Y-77.625
X115.57Y-80.165
X115.57Y-82.705
X115.57Y-85.245
X115.57Y-87.785
X115.57Y-90.325
X115.57Y-92.865
X115.57Y-95.405
X115.57Y-97.945
X115.57Y-100.485
X115.57Y-103.025
X115.57Y-105.565
X115.57Y-108.105
X115.57Y-110.645
X115.57Y-113.185
X115.57Y-115.725
X115.57Y-118.265
X115.57Y-120.805
X115.57Y-123.345
X115.57Y-125.885
X118.11Y-77.625
X118.11Y-80.165
X118.11Y-82.705
X118.11Y-85.245
X118.11Y-87.785
X118.11Y-90.325
X118.11Y-92.865
X118.11Y-95.405
X118.11Y-97.945
X118.11Y-100.485
X118.11Y-103.025
X118.11Y-105.565
X118.11Y-108.105
X118.11Y-110.645
X118.11Y-113.185
X118.11Y-115.725
X118.11Y-118.265
X118.11Y-120.805
X118.11Y-123.345
X118.11Y-125.885
X127.02Y-83.05
X129.52Y-83.05
X139.06Y-77.575
X139.06Y-80.115
X139.06Y-82.655
X139.06Y-85.195
X139.06Y-87.735
X139.06Y-90.275
X139.06Y-92.815
X139.06Y-95.355
X139.06Y-97.895
X139.06Y-100.435
X139.06Y-102.975
X139.06Y-105.515
X139.06Y-108.055
X141.6Y-77.575
X141.6Y-80.115
X141.6Y-82.655
X141.6Y-85.195
X141.6Y-87.735
X141.6Y-90.275
X141.6Y-92.815
X141.6Y-95.355
X141.6Y-97.895
X141.6Y-100.435
X141.6Y-102.975
X141.6Y-105.515
X141.6Y-108.055
T0
M30
