G04 #@! TF.GenerationSoftware,KiCad,Pcbnew,(6.0.0)*
G04 #@! TF.CreationDate,2022-05-07T15:13:21-04:00*
G04 #@! TF.ProjectId,PI4Adapter,50493441-6461-4707-9465-722e6b696361,0.1b*
G04 #@! TF.SameCoordinates,Original*
G04 #@! TF.FileFunction,Copper,L2,Bot*
G04 #@! TF.FilePolarity,Positive*
%FSLAX46Y46*%
G04 Gerber Fmt 4.6, Leading zero omitted, Abs format (unit mm)*
G04 Created by KiCad (PCBNEW (6.0.0)) date 2022-05-07 15:13:21*
%MOMM*%
%LPD*%
G01*
G04 APERTURE LIST*
G04 Aperture macros list*
%AMRoundRect*
0 Rectangle with rounded corners*
0 $1 Rounding radius*
0 $2 $3 $4 $5 $6 $7 $8 $9 X,Y pos of 4 corners*
0 Add a 4 corners polygon primitive as box body*
4,1,4,$2,$3,$4,$5,$6,$7,$8,$9,$2,$3,0*
0 Add four circle primitives for the rounded corners*
1,1,$1+$1,$2,$3*
1,1,$1+$1,$4,$5*
1,1,$1+$1,$6,$7*
1,1,$1+$1,$8,$9*
0 Add four rect primitives between the rounded corners*
20,1,$1+$1,$2,$3,$4,$5,0*
20,1,$1+$1,$4,$5,$6,$7,0*
20,1,$1+$1,$6,$7,$8,$9,0*
20,1,$1+$1,$8,$9,$2,$3,0*%
G04 Aperture macros list end*
G04 #@! TA.AperFunction,Profile*
%ADD10C,0.100000*%
G04 #@! TD*
G04 #@! TA.AperFunction,ComponentPad*
%ADD11R,1.700000X1.700000*%
G04 #@! TD*
G04 #@! TA.AperFunction,ComponentPad*
%ADD12O,1.700000X1.700000*%
G04 #@! TD*
G04 #@! TA.AperFunction,ComponentPad*
%ADD13RoundRect,0.250000X0.600000X0.750000X-0.600000X0.750000X-0.600000X-0.750000X0.600000X-0.750000X0*%
G04 #@! TD*
G04 #@! TA.AperFunction,ComponentPad*
%ADD14O,1.700000X2.000000*%
G04 #@! TD*
G04 #@! TA.AperFunction,ComponentPad*
%ADD15O,1.100000X1.700000*%
G04 #@! TD*
G04 #@! TA.AperFunction,ViaPad*
%ADD16C,0.800000*%
G04 #@! TD*
G04 #@! TA.AperFunction,Conductor*
%ADD17C,0.250000*%
G04 #@! TD*
G04 APERTURE END LIST*
D10*
X137000000Y-75600000D02*
X143300000Y-75600000D01*
X108235592Y-73600000D02*
X137000000Y-73600000D01*
X132750000Y-129899999D02*
G75*
G03*
X137000000Y-125550000I-52366J4302311D01*
G01*
X143300000Y-109950000D02*
X137000000Y-109950000D01*
X143300000Y-75600000D02*
X143300000Y-109950000D01*
X104000000Y-125685592D02*
G75*
G03*
X108361560Y-129900000I4256623J41120D01*
G01*
X104000000Y-125685592D02*
X104000000Y-77907877D01*
X132750000Y-129900000D02*
X108361560Y-129900000D01*
X137000000Y-73600000D02*
X137000000Y-75600000D01*
X108235592Y-73600000D02*
G75*
G03*
X104000000Y-77907877I-46932J-4190054D01*
G01*
X137000000Y-109950000D02*
X137000000Y-125550000D01*
D11*
X139060000Y-77575000D03*
D12*
X141600000Y-77575000D03*
X139060000Y-80115000D03*
X141600000Y-80115000D03*
X139060000Y-82655000D03*
X141600000Y-82655000D03*
X139060000Y-85195000D03*
X141600000Y-85195000D03*
X139060000Y-87735000D03*
X141600000Y-87735000D03*
X139060000Y-90275000D03*
X141600000Y-90275000D03*
X139060000Y-92815000D03*
X141600000Y-92815000D03*
X139060000Y-95355000D03*
X141600000Y-95355000D03*
X139060000Y-97895000D03*
X141600000Y-97895000D03*
X139060000Y-100435000D03*
X141600000Y-100435000D03*
X139060000Y-102975000D03*
X141600000Y-102975000D03*
X139060000Y-105515000D03*
X141600000Y-105515000D03*
X139060000Y-108055000D03*
X141600000Y-108055000D03*
D11*
X119025000Y-77625000D03*
D12*
X121565000Y-77625000D03*
X119025000Y-80165000D03*
X121565000Y-80165000D03*
X119025000Y-82705000D03*
X121565000Y-82705000D03*
X119025000Y-85245000D03*
X121565000Y-85245000D03*
X119025000Y-87785000D03*
X121565000Y-87785000D03*
X119025000Y-90325000D03*
X121565000Y-90325000D03*
X119025000Y-92865000D03*
X121565000Y-92865000D03*
X119025000Y-95405000D03*
X121565000Y-95405000D03*
X119025000Y-97945000D03*
X121565000Y-97945000D03*
X119025000Y-100485000D03*
X121565000Y-100485000D03*
X119025000Y-103025000D03*
X121565000Y-103025000D03*
X119025000Y-105565000D03*
X121565000Y-105565000D03*
X119025000Y-108105000D03*
X121565000Y-108105000D03*
X119025000Y-110645000D03*
X121565000Y-110645000D03*
X119025000Y-113185000D03*
X121565000Y-113185000D03*
X119025000Y-115725000D03*
X121565000Y-115725000D03*
X119025000Y-118265000D03*
X121565000Y-118265000D03*
X119025000Y-120805000D03*
X121565000Y-120805000D03*
X119025000Y-123345000D03*
X121565000Y-123345000D03*
X119025000Y-125885000D03*
X121565000Y-125885000D03*
D13*
X131500000Y-83050000D03*
D14*
X129000000Y-83050000D03*
D15*
X124377800Y-127569331D03*
X133017800Y-127519654D03*
X124377800Y-123771100D03*
X133017800Y-123771100D03*
D11*
X108250000Y-77700000D03*
D12*
X110790000Y-77700000D03*
X108250000Y-80240000D03*
X110790000Y-80240000D03*
X108250000Y-82780000D03*
X110790000Y-82780000D03*
X108250000Y-85320000D03*
X110790000Y-85320000D03*
X108250000Y-87860000D03*
X110790000Y-87860000D03*
X108250000Y-90400000D03*
X110790000Y-90400000D03*
X108250000Y-92940000D03*
X110790000Y-92940000D03*
X108250000Y-95480000D03*
X110790000Y-95480000D03*
X108250000Y-98020000D03*
X110790000Y-98020000D03*
X108250000Y-100560000D03*
X110790000Y-100560000D03*
X108250000Y-103100000D03*
X110790000Y-103100000D03*
X108250000Y-105640000D03*
X110790000Y-105640000D03*
X108250000Y-108180000D03*
X110790000Y-108180000D03*
X108250000Y-110720000D03*
X110790000Y-110720000D03*
X108250000Y-113260000D03*
X110790000Y-113260000D03*
X108250000Y-115800000D03*
X110790000Y-115800000D03*
X108250000Y-118340000D03*
X110790000Y-118340000D03*
X108250000Y-120880000D03*
X110790000Y-120880000D03*
X108250000Y-123420000D03*
X110790000Y-123420000D03*
X108250000Y-125960000D03*
X110790000Y-125960000D03*
D16*
X106680000Y-119380000D03*
X106680000Y-114300000D03*
D17*
X131171907Y-86419511D02*
X120199511Y-86419511D01*
X120199511Y-86419511D02*
X119025000Y-85245000D01*
X132396418Y-85195000D02*
X131171907Y-86419511D01*
X139060000Y-85195000D02*
X132396418Y-85195000D01*
X139602400Y-88924600D02*
X140792000Y-87735000D01*
X136533117Y-88924600D02*
X139602400Y-88924600D01*
X136308697Y-88700180D02*
X136533117Y-88924600D01*
X140792000Y-87735000D02*
X141600000Y-87735000D01*
X122480180Y-88700180D02*
X136308697Y-88700180D01*
X121565000Y-87785000D02*
X122480180Y-88700180D01*
X137786593Y-91449511D02*
X135936302Y-89599220D01*
X140367489Y-91449511D02*
X137786593Y-91449511D01*
X122290780Y-89599220D02*
X121565000Y-90325000D01*
X141542000Y-90275000D02*
X140367489Y-91449511D01*
X141600000Y-90275000D02*
X141542000Y-90275000D01*
X135936302Y-89599220D02*
X122290780Y-89599220D01*
X137247800Y-90275000D02*
X139060000Y-90275000D01*
X120200300Y-89149700D02*
X136122500Y-89149700D01*
X136122500Y-89149700D02*
X137247800Y-90275000D01*
X119025000Y-90325000D02*
X120200300Y-89149700D01*
X120390489Y-94230489D02*
X119025000Y-92865000D01*
X122051499Y-94230489D02*
X120390489Y-94230489D01*
X134706344Y-97261920D02*
X125082930Y-97261920D01*
X125082930Y-97261920D02*
X122051499Y-94230489D01*
X139060000Y-92908264D02*
X134706344Y-97261920D01*
X139060000Y-92815000D02*
X139060000Y-92908264D01*
X123871440Y-97711440D02*
X121565000Y-95405000D01*
X134892542Y-97711440D02*
X123871440Y-97711440D01*
X138431582Y-94172400D02*
X134892542Y-97711440D01*
X140417400Y-94172400D02*
X138431582Y-94172400D01*
X141600000Y-95355000D02*
X140417400Y-94172400D01*
X119832900Y-95405000D02*
X119025000Y-95405000D01*
X122051499Y-96770489D02*
X121198389Y-96770489D01*
X123441970Y-98160960D02*
X122051499Y-96770489D01*
X121198389Y-96770489D02*
X119832900Y-95405000D01*
X135078740Y-98160960D02*
X123441970Y-98160960D01*
X137884700Y-95355000D02*
X135078740Y-98160960D01*
X139060000Y-95355000D02*
X137884700Y-95355000D01*
X136058998Y-98610480D02*
X122230480Y-98610480D01*
X136518029Y-99069511D02*
X136058998Y-98610480D01*
X122230480Y-98610480D02*
X121565000Y-97945000D01*
X140792000Y-97895000D02*
X139617489Y-99069511D01*
X139617489Y-99069511D02*
X136518029Y-99069511D01*
X141600000Y-97895000D02*
X140792000Y-97895000D01*
X122111010Y-99060000D02*
X135872800Y-99060000D01*
X122051499Y-99119511D02*
X122111010Y-99060000D01*
X135872800Y-99060000D02*
X137247800Y-100435000D01*
X137247800Y-100435000D02*
X139060000Y-100435000D01*
X121018990Y-99060000D02*
X121078501Y-99119511D01*
X121078501Y-99119511D02*
X122051499Y-99119511D01*
X120450000Y-99060000D02*
X121018990Y-99060000D01*
X119025000Y-100485000D02*
X120450000Y-99060000D01*
X136233990Y-104140000D02*
X123855300Y-104140000D01*
X122740300Y-103025000D02*
X121565000Y-103025000D01*
X138573501Y-101800489D02*
X136233990Y-104140000D01*
X139546499Y-101800489D02*
X138573501Y-101800489D01*
X141160505Y-103414495D02*
X139546499Y-101800489D01*
X123855300Y-104140000D02*
X122740300Y-103025000D01*
X141600000Y-102975000D02*
X141160505Y-103414495D01*
X124579140Y-105515840D02*
X123263600Y-104200300D01*
X136519160Y-105515840D02*
X124579140Y-105515840D01*
X120200300Y-104200300D02*
X119025000Y-103025000D01*
X139060000Y-102975000D02*
X136519160Y-105515840D01*
X123263600Y-104200300D02*
X120200300Y-104200300D01*
X121965360Y-105965360D02*
X121565000Y-105565000D01*
X136948630Y-105965360D02*
X121965360Y-105965360D01*
X138573990Y-104340000D02*
X136948630Y-105965360D01*
X140412000Y-104340000D02*
X138573990Y-104340000D01*
X140999000Y-104927500D02*
X140412000Y-104340000D01*
X120200300Y-106740300D02*
X119025000Y-105565000D01*
X123794702Y-106414880D02*
X123469282Y-106740300D01*
X123469282Y-106740300D02*
X120200300Y-106740300D01*
X139060000Y-105515000D02*
X138160120Y-106414880D01*
X138160120Y-106414880D02*
X123794702Y-106414880D01*
X120757100Y-125885000D02*
X121565000Y-125885000D01*
X119581800Y-124709700D02*
X120757100Y-125885000D01*
X111965300Y-125960000D02*
X113215600Y-124709700D01*
X110790000Y-125960000D02*
X111965300Y-125960000D01*
X113215600Y-124709700D02*
X119581800Y-124709700D01*
X113215600Y-119629700D02*
X120389700Y-119629700D01*
X111965300Y-120880000D02*
X113215600Y-119629700D01*
X110790000Y-120880000D02*
X111965300Y-120880000D01*
X120389700Y-119629700D02*
X121565000Y-120805000D01*
X119581800Y-106929700D02*
X120757100Y-108105000D01*
X113215600Y-106929700D02*
X119581800Y-106929700D01*
X111965300Y-108180000D02*
X113215600Y-106929700D01*
X110790000Y-108180000D02*
X111965300Y-108180000D01*
X120757100Y-108105000D02*
X121565000Y-108105000D01*
X113215600Y-96769700D02*
X119581800Y-96769700D01*
X111965300Y-98020000D02*
X113215600Y-96769700D01*
X119581800Y-96769700D02*
X120757100Y-97945000D01*
X110790000Y-98020000D02*
X111965300Y-98020000D01*
X120757100Y-97945000D02*
X121565000Y-97945000D01*
X120757100Y-87785000D02*
X121565000Y-87785000D01*
X111965300Y-87860000D02*
X113215600Y-86609700D01*
X113215600Y-86609700D02*
X119581800Y-86609700D01*
X110790000Y-87860000D02*
X111965300Y-87860000D01*
X119581800Y-86609700D02*
X120757100Y-87785000D01*
X120200300Y-81529700D02*
X119025000Y-82705000D01*
X137884700Y-82655000D02*
X136759400Y-81529700D01*
X136759400Y-81529700D02*
X120200300Y-81529700D01*
X139060000Y-82655000D02*
X137884700Y-82655000D01*
X119832900Y-80165000D02*
X119025000Y-80165000D01*
X121008200Y-78989700D02*
X119832900Y-80165000D01*
X136759400Y-78989700D02*
X121008200Y-78989700D01*
X137884700Y-80115000D02*
X136759400Y-78989700D01*
X139060000Y-80115000D02*
X137884700Y-80115000D01*
X120200300Y-76449700D02*
X119025000Y-77625000D01*
X136759400Y-76449700D02*
X120200300Y-76449700D01*
X137884700Y-77575000D02*
X136759400Y-76449700D01*
X139060000Y-77575000D02*
X137884700Y-77575000D01*
X131710700Y-85245000D02*
X121565000Y-85245000D01*
X132937600Y-84018100D02*
X131710700Y-85245000D01*
X140423100Y-84018100D02*
X132937600Y-84018100D01*
X141600000Y-85195000D02*
X140423100Y-84018100D01*
X122740300Y-108105000D02*
X121565000Y-108105000D01*
X123980900Y-106864400D02*
X122740300Y-108105000D01*
X140409400Y-106864400D02*
X123980900Y-106864400D01*
X141600000Y-108055000D02*
X140409400Y-106864400D01*
X109615489Y-83954511D02*
X110790000Y-82780000D01*
X106680000Y-84768990D02*
X107494479Y-83954511D01*
X107494479Y-83954511D02*
X109615489Y-83954511D01*
X106680000Y-86290000D02*
X106680000Y-84768990D01*
X108250000Y-87860000D02*
X106680000Y-86290000D01*
X106814511Y-119514511D02*
X106680000Y-119380000D01*
X109615489Y-119514511D02*
X106814511Y-119514511D01*
X110790000Y-118340000D02*
X109615489Y-119514511D01*
X109425300Y-85685300D02*
X109425300Y-85320000D01*
X109425300Y-85320000D02*
X108250000Y-85320000D01*
X110234511Y-86494511D02*
X109425300Y-85685300D01*
X111276499Y-86494511D02*
X110234511Y-86494511D01*
X117139700Y-85955000D02*
X111816010Y-85955000D01*
X117849700Y-85245000D02*
X117139700Y-85955000D01*
X119025000Y-85245000D02*
X117849700Y-85245000D01*
X111816010Y-85955000D02*
X111276499Y-86494511D01*
X116595500Y-122059200D02*
X117849700Y-120805000D01*
X110237200Y-122059200D02*
X116595500Y-122059200D01*
X109425300Y-121247300D02*
X110237200Y-122059200D01*
X109425300Y-120880000D02*
X109425300Y-121247300D01*
X108250000Y-120880000D02*
X109425300Y-120880000D01*
X119025000Y-120805000D02*
X117849700Y-120805000D01*
X116729500Y-117144800D02*
X117849700Y-118265000D01*
X110253200Y-117144800D02*
X116729500Y-117144800D01*
X109425300Y-117972700D02*
X110253200Y-117144800D01*
X109425300Y-118340000D02*
X109425300Y-117972700D01*
X108250000Y-118340000D02*
X109425300Y-118340000D01*
X119025000Y-118265000D02*
X117849700Y-118265000D01*
X116729500Y-112064800D02*
X117849700Y-113185000D01*
X110253200Y-112064800D02*
X116729500Y-112064800D01*
X109425300Y-112892700D02*
X110253200Y-112064800D01*
X109425300Y-113260000D02*
X109425300Y-112892700D01*
X108250000Y-113260000D02*
X109425300Y-113260000D01*
X119025000Y-113185000D02*
X117849700Y-113185000D01*
X140999000Y-104927500D02*
X141586000Y-105515000D01*
X141012500Y-104927500D02*
X141600000Y-105515000D01*
X140999000Y-104927500D02*
X141012500Y-104927500D01*
X116729500Y-104444800D02*
X117849700Y-105565000D01*
X110253200Y-104444800D02*
X116729500Y-104444800D01*
X109425300Y-105272700D02*
X110253200Y-104444800D01*
X109425300Y-105640000D02*
X109425300Y-105272700D01*
X108250000Y-105640000D02*
X109425300Y-105640000D01*
X119025000Y-105565000D02*
X117849700Y-105565000D01*
X116729500Y-101904800D02*
X117849700Y-103025000D01*
X110253200Y-101904800D02*
X116729500Y-101904800D01*
X109425300Y-102732700D02*
X110253200Y-101904800D01*
X109425300Y-103100000D02*
X109425300Y-102732700D01*
X108250000Y-103100000D02*
X109425300Y-103100000D01*
X119025000Y-103025000D02*
X117849700Y-103025000D01*
X116729500Y-99364800D02*
X117849700Y-100485000D01*
X110253200Y-99364800D02*
X116729500Y-99364800D01*
X109425300Y-100192700D02*
X110253200Y-99364800D01*
X109425300Y-100560000D02*
X109425300Y-100192700D01*
X108250000Y-100560000D02*
X109425300Y-100560000D01*
X119025000Y-100485000D02*
X117849700Y-100485000D01*
X116729500Y-94284800D02*
X117849700Y-95405000D01*
X110253200Y-94284800D02*
X116729500Y-94284800D01*
X109425300Y-95112700D02*
X110253200Y-94284800D01*
X109425300Y-95480000D02*
X109425300Y-95112700D01*
X108250000Y-95480000D02*
X109425300Y-95480000D01*
X119025000Y-95405000D02*
X117849700Y-95405000D01*
X116729500Y-91744800D02*
X117849700Y-92865000D01*
X110253200Y-91744800D02*
X116729500Y-91744800D01*
X109425300Y-92572700D02*
X110253200Y-91744800D01*
X109425300Y-92940000D02*
X109425300Y-92572700D01*
X108250000Y-92940000D02*
X109425300Y-92940000D01*
X119025000Y-92865000D02*
X117849700Y-92865000D01*
X116729500Y-89204800D02*
X117849700Y-90325000D01*
X110253200Y-89204800D02*
X116729500Y-89204800D01*
X109425300Y-90032700D02*
X110253200Y-89204800D01*
X109425300Y-90400000D02*
X109425300Y-90032700D01*
X108250000Y-90400000D02*
X109425300Y-90400000D01*
X119025000Y-90325000D02*
X117849700Y-90325000D01*
X116729500Y-81584800D02*
X117849700Y-82705000D01*
X110253200Y-81584800D02*
X116729500Y-81584800D01*
X109425300Y-82412700D02*
X110253200Y-81584800D01*
X109425300Y-82780000D02*
X109425300Y-82412700D01*
X108250000Y-82780000D02*
X109425300Y-82780000D01*
X119025000Y-82705000D02*
X117849700Y-82705000D01*
X116729500Y-79044800D02*
X117849700Y-80165000D01*
X110253200Y-79044800D02*
X116729500Y-79044800D01*
X109425300Y-79872700D02*
X110253200Y-79044800D01*
X109425300Y-80240000D02*
X109425300Y-79872700D01*
X108250000Y-80240000D02*
X109425300Y-80240000D01*
X119025000Y-80165000D02*
X117849700Y-80165000D01*
X116710100Y-76485400D02*
X117849700Y-77625000D01*
X110272600Y-76485400D02*
X116710100Y-76485400D01*
X109425300Y-77332700D02*
X110272600Y-76485400D01*
X109425300Y-77700000D02*
X109425300Y-77332700D01*
X108250000Y-77700000D02*
X109425300Y-77700000D01*
X119025000Y-77625000D02*
X117849700Y-77625000D01*
G04 #@! TA.AperFunction,Conductor*
G36*
X136434121Y-74128002D02*
G01*
X136480614Y-74181658D01*
X136492000Y-74234000D01*
X136492000Y-75591298D01*
X136491998Y-75592068D01*
X136491524Y-75669652D01*
X136493014Y-75674866D01*
X136482708Y-75743306D01*
X136435858Y-75796650D01*
X136368446Y-75816200D01*
X120279067Y-75816200D01*
X120267884Y-75815673D01*
X120260391Y-75813998D01*
X120252465Y-75814247D01*
X120252464Y-75814247D01*
X120192314Y-75816138D01*
X120188355Y-75816200D01*
X120160444Y-75816200D01*
X120156510Y-75816697D01*
X120156509Y-75816697D01*
X120156444Y-75816705D01*
X120144607Y-75817638D01*
X120112790Y-75818638D01*
X120108329Y-75818778D01*
X120100410Y-75819027D01*
X120082754Y-75824156D01*
X120080958Y-75824678D01*
X120061606Y-75828686D01*
X120054535Y-75829580D01*
X120041503Y-75831226D01*
X120034134Y-75834143D01*
X120034132Y-75834144D01*
X120000397Y-75847500D01*
X119989169Y-75851345D01*
X119946707Y-75863682D01*
X119939885Y-75867716D01*
X119939879Y-75867719D01*
X119929268Y-75873994D01*
X119911518Y-75882690D01*
X119900056Y-75887228D01*
X119900051Y-75887231D01*
X119892683Y-75890148D01*
X119875270Y-75902799D01*
X119856925Y-75916127D01*
X119847007Y-75922643D01*
X119841588Y-75925848D01*
X119808937Y-75945158D01*
X119794613Y-75959482D01*
X119779581Y-75972321D01*
X119763193Y-75984228D01*
X119744486Y-76006841D01*
X119735012Y-76018293D01*
X119727022Y-76027073D01*
X119524500Y-76229595D01*
X119462188Y-76263621D01*
X119435405Y-76266500D01*
X118126866Y-76266500D01*
X118064684Y-76273255D01*
X117928295Y-76324385D01*
X117811739Y-76411739D01*
X117806358Y-76418919D01*
X117779205Y-76455149D01*
X117722346Y-76497664D01*
X117651527Y-76502690D01*
X117589284Y-76468679D01*
X117213752Y-76093147D01*
X117206212Y-76084861D01*
X117202100Y-76078382D01*
X117152448Y-76031756D01*
X117149607Y-76029002D01*
X117129870Y-76009265D01*
X117126673Y-76006785D01*
X117117651Y-75999080D01*
X117101835Y-75984228D01*
X117085421Y-75968814D01*
X117078475Y-75964995D01*
X117078472Y-75964993D01*
X117067666Y-75959052D01*
X117051147Y-75948201D01*
X117042024Y-75941125D01*
X117035141Y-75935786D01*
X117027872Y-75932641D01*
X117027868Y-75932638D01*
X116994563Y-75918226D01*
X116983913Y-75913009D01*
X116945160Y-75891705D01*
X116925537Y-75886667D01*
X116906834Y-75880263D01*
X116895520Y-75875367D01*
X116895519Y-75875367D01*
X116888245Y-75872219D01*
X116880422Y-75870980D01*
X116880412Y-75870977D01*
X116844576Y-75865301D01*
X116832956Y-75862895D01*
X116797811Y-75853872D01*
X116797810Y-75853872D01*
X116790130Y-75851900D01*
X116769876Y-75851900D01*
X116750165Y-75850349D01*
X116737986Y-75848420D01*
X116730157Y-75847180D01*
X116700886Y-75849947D01*
X116686139Y-75851341D01*
X116674281Y-75851900D01*
X110351367Y-75851900D01*
X110340184Y-75851373D01*
X110332691Y-75849698D01*
X110324765Y-75849947D01*
X110324764Y-75849947D01*
X110264614Y-75851838D01*
X110260655Y-75851900D01*
X110232744Y-75851900D01*
X110228810Y-75852397D01*
X110228809Y-75852397D01*
X110228744Y-75852405D01*
X110216907Y-75853338D01*
X110185090Y-75854338D01*
X110180629Y-75854478D01*
X110172710Y-75854727D01*
X110155054Y-75859856D01*
X110153258Y-75860378D01*
X110133906Y-75864386D01*
X110126835Y-75865280D01*
X110113803Y-75866926D01*
X110106434Y-75869843D01*
X110106432Y-75869844D01*
X110072697Y-75883200D01*
X110061469Y-75887045D01*
X110019007Y-75899382D01*
X110012184Y-75903417D01*
X110012182Y-75903418D01*
X110001572Y-75909693D01*
X109983824Y-75918388D01*
X109964983Y-75925848D01*
X109958567Y-75930510D01*
X109958566Y-75930510D01*
X109929213Y-75951836D01*
X109919293Y-75958352D01*
X109888065Y-75976820D01*
X109888062Y-75976822D01*
X109881238Y-75980858D01*
X109866917Y-75995179D01*
X109851884Y-76008019D01*
X109835493Y-76019928D01*
X109830442Y-76026033D01*
X109830437Y-76026038D01*
X109807301Y-76054004D01*
X109799313Y-76062782D01*
X109487505Y-76374590D01*
X109425193Y-76408616D01*
X109354378Y-76403551D01*
X109348953Y-76401070D01*
X109346705Y-76399385D01*
X109338746Y-76396401D01*
X109338741Y-76396399D01*
X109246284Y-76361739D01*
X109210316Y-76348255D01*
X109148134Y-76341500D01*
X107351866Y-76341500D01*
X107289684Y-76348255D01*
X107153295Y-76399385D01*
X107036739Y-76486739D01*
X106949385Y-76603295D01*
X106898255Y-76739684D01*
X106891500Y-76801866D01*
X106891500Y-78598134D01*
X106898255Y-78660316D01*
X106949385Y-78796705D01*
X107036739Y-78913261D01*
X107153295Y-79000615D01*
X107161704Y-79003767D01*
X107161705Y-79003768D01*
X107270451Y-79044535D01*
X107327216Y-79087176D01*
X107351916Y-79153738D01*
X107336709Y-79223087D01*
X107317316Y-79249568D01*
X107190629Y-79382138D01*
X107064743Y-79566680D01*
X106970688Y-79769305D01*
X106910989Y-79984570D01*
X106887251Y-80206695D01*
X106887548Y-80211848D01*
X106887548Y-80211851D01*
X106893011Y-80306590D01*
X106900110Y-80429715D01*
X106901247Y-80434761D01*
X106901248Y-80434767D01*
X106917583Y-80507247D01*
X106949222Y-80647639D01*
X107000951Y-80775033D01*
X107021272Y-80825077D01*
X107033266Y-80854616D01*
X107070439Y-80915277D01*
X107123667Y-81002137D01*
X107149987Y-81045088D01*
X107296250Y-81213938D01*
X107468126Y-81356632D01*
X107532652Y-81394338D01*
X107541445Y-81399476D01*
X107590169Y-81451114D01*
X107603240Y-81520897D01*
X107576509Y-81586669D01*
X107536055Y-81620027D01*
X107533416Y-81621401D01*
X107523607Y-81626507D01*
X107519474Y-81629610D01*
X107519471Y-81629612D01*
X107349100Y-81757530D01*
X107344965Y-81760635D01*
X107190629Y-81922138D01*
X107187715Y-81926410D01*
X107187714Y-81926411D01*
X107153209Y-81976993D01*
X107064743Y-82106680D01*
X106970688Y-82309305D01*
X106910989Y-82524570D01*
X106887251Y-82746695D01*
X106887548Y-82751848D01*
X106887548Y-82751851D01*
X106890094Y-82796000D01*
X106900110Y-82969715D01*
X106901247Y-82974761D01*
X106901248Y-82974767D01*
X106910329Y-83015060D01*
X106949222Y-83187639D01*
X106995117Y-83300666D01*
X107029707Y-83385850D01*
X107033266Y-83394616D01*
X107043619Y-83411511D01*
X107136523Y-83563116D01*
X107149987Y-83585088D01*
X107296250Y-83753938D01*
X107468126Y-83896632D01*
X107520213Y-83927069D01*
X107541445Y-83939476D01*
X107590169Y-83991114D01*
X107603240Y-84060897D01*
X107576509Y-84126669D01*
X107536055Y-84160027D01*
X107523607Y-84166507D01*
X107519474Y-84169610D01*
X107519471Y-84169612D01*
X107373086Y-84279521D01*
X107344965Y-84300635D01*
X107341393Y-84304373D01*
X107253520Y-84396327D01*
X107190629Y-84462138D01*
X107187720Y-84466403D01*
X107187714Y-84466411D01*
X107105930Y-84586302D01*
X107064743Y-84646680D01*
X107031659Y-84717953D01*
X107000242Y-84785637D01*
X106970688Y-84849305D01*
X106910989Y-85064570D01*
X106887251Y-85286695D01*
X106887548Y-85291848D01*
X106887548Y-85291851D01*
X106889092Y-85318621D01*
X106900110Y-85509715D01*
X106901247Y-85514761D01*
X106901248Y-85514767D01*
X106925304Y-85621508D01*
X106949222Y-85727639D01*
X107033266Y-85934616D01*
X107035965Y-85939020D01*
X107123667Y-86082137D01*
X107149987Y-86125088D01*
X107296250Y-86293938D01*
X107468126Y-86436632D01*
X107535320Y-86475897D01*
X107541955Y-86479774D01*
X107590679Y-86531412D01*
X107603750Y-86601195D01*
X107577019Y-86666967D01*
X107536562Y-86700327D01*
X107528457Y-86704546D01*
X107519738Y-86710036D01*
X107349433Y-86837905D01*
X107341726Y-86844748D01*
X107194590Y-86998717D01*
X107188104Y-87006727D01*
X107068098Y-87182649D01*
X107063000Y-87191623D01*
X106973338Y-87384783D01*
X106969775Y-87394470D01*
X106914389Y-87594183D01*
X106915912Y-87602607D01*
X106928292Y-87606000D01*
X108378000Y-87606000D01*
X108446121Y-87626002D01*
X108492614Y-87679658D01*
X108504000Y-87732000D01*
X108504000Y-87988000D01*
X108483998Y-88056121D01*
X108430342Y-88102614D01*
X108378000Y-88114000D01*
X106933225Y-88114000D01*
X106919694Y-88117973D01*
X106918257Y-88127966D01*
X106948565Y-88262446D01*
X106951645Y-88272275D01*
X107031770Y-88469603D01*
X107036413Y-88478794D01*
X107147694Y-88660388D01*
X107153777Y-88668699D01*
X107293213Y-88829667D01*
X107300580Y-88836883D01*
X107464434Y-88972916D01*
X107472881Y-88978831D01*
X107541969Y-89019203D01*
X107590693Y-89070842D01*
X107603764Y-89140625D01*
X107577033Y-89206396D01*
X107536584Y-89239752D01*
X107523607Y-89246507D01*
X107519474Y-89249610D01*
X107519471Y-89249612D01*
X107372335Y-89360085D01*
X107344965Y-89380635D01*
X107190629Y-89542138D01*
X107064743Y-89726680D01*
X106970688Y-89929305D01*
X106910989Y-90144570D01*
X106887251Y-90366695D01*
X106887548Y-90371848D01*
X106887548Y-90371851D01*
X106893011Y-90466590D01*
X106900110Y-90589715D01*
X106901247Y-90594761D01*
X106901248Y-90594767D01*
X106921119Y-90682939D01*
X106949222Y-90807639D01*
X106994317Y-90918695D01*
X107027390Y-91000144D01*
X107033266Y-91014616D01*
X107080257Y-91091298D01*
X107099252Y-91122295D01*
X107149987Y-91205088D01*
X107296250Y-91373938D01*
X107468126Y-91516632D01*
X107501466Y-91536114D01*
X107541445Y-91559476D01*
X107590169Y-91611114D01*
X107603240Y-91680897D01*
X107576509Y-91746669D01*
X107536055Y-91780027D01*
X107533416Y-91781401D01*
X107523607Y-91786507D01*
X107519474Y-91789610D01*
X107519471Y-91789612D01*
X107349100Y-91917530D01*
X107344965Y-91920635D01*
X107297869Y-91969918D01*
X107221799Y-92049521D01*
X107190629Y-92082138D01*
X107064743Y-92266680D01*
X107062564Y-92271375D01*
X106988527Y-92430875D01*
X106970688Y-92469305D01*
X106910989Y-92684570D01*
X106887251Y-92906695D01*
X106900110Y-93129715D01*
X106901247Y-93134761D01*
X106901248Y-93134767D01*
X106910329Y-93175060D01*
X106949222Y-93347639D01*
X106994317Y-93458695D01*
X107021272Y-93525077D01*
X107033266Y-93554616D01*
X107079026Y-93629290D01*
X107133030Y-93717416D01*
X107149987Y-93745088D01*
X107296250Y-93913938D01*
X107468126Y-94056632D01*
X107501466Y-94076114D01*
X107541445Y-94099476D01*
X107590169Y-94151114D01*
X107603240Y-94220897D01*
X107576509Y-94286669D01*
X107536055Y-94320027D01*
X107523607Y-94326507D01*
X107519474Y-94329610D01*
X107519471Y-94329612D01*
X107365289Y-94445375D01*
X107344965Y-94460635D01*
X107190629Y-94622138D01*
X107064743Y-94806680D01*
X106970688Y-95009305D01*
X106910989Y-95224570D01*
X106887251Y-95446695D01*
X106887548Y-95451848D01*
X106887548Y-95451851D01*
X106893011Y-95546590D01*
X106900110Y-95669715D01*
X106901247Y-95674761D01*
X106901248Y-95674767D01*
X106921119Y-95762939D01*
X106949222Y-95887639D01*
X107033266Y-96094616D01*
X107070691Y-96155688D01*
X107147291Y-96280688D01*
X107149987Y-96285088D01*
X107296250Y-96453938D01*
X107372846Y-96517529D01*
X107461963Y-96591515D01*
X107468126Y-96596632D01*
X107522525Y-96628420D01*
X107541445Y-96639476D01*
X107590169Y-96691114D01*
X107603240Y-96760897D01*
X107576509Y-96826669D01*
X107536055Y-96860027D01*
X107523607Y-96866507D01*
X107519474Y-96869610D01*
X107519471Y-96869612D01*
X107365289Y-96985375D01*
X107344965Y-97000635D01*
X107190629Y-97162138D01*
X107064743Y-97346680D01*
X106970688Y-97549305D01*
X106910989Y-97764570D01*
X106887251Y-97986695D01*
X106887548Y-97991848D01*
X106887548Y-97991851D01*
X106895764Y-98134345D01*
X106900110Y-98209715D01*
X106901247Y-98214761D01*
X106901248Y-98214767D01*
X106902027Y-98218222D01*
X106949222Y-98427639D01*
X107033266Y-98634616D01*
X107080257Y-98711298D01*
X107099252Y-98742295D01*
X107149987Y-98825088D01*
X107296250Y-98993938D01*
X107468126Y-99136632D01*
X107501466Y-99156114D01*
X107541445Y-99179476D01*
X107590169Y-99231114D01*
X107603240Y-99300897D01*
X107576509Y-99366669D01*
X107536055Y-99400027D01*
X107533416Y-99401401D01*
X107523607Y-99406507D01*
X107519474Y-99409610D01*
X107519471Y-99409612D01*
X107353141Y-99534496D01*
X107344965Y-99540635D01*
X107190629Y-99702138D01*
X107187715Y-99706410D01*
X107187714Y-99706411D01*
X107168032Y-99735264D01*
X107064743Y-99886680D01*
X107062564Y-99891375D01*
X106988527Y-100050875D01*
X106970688Y-100089305D01*
X106910989Y-100304570D01*
X106887251Y-100526695D01*
X106900110Y-100749715D01*
X106901247Y-100754761D01*
X106901248Y-100754767D01*
X106910329Y-100795060D01*
X106949222Y-100967639D01*
X107000951Y-101095033D01*
X107021272Y-101145077D01*
X107033266Y-101174616D01*
X107043619Y-101191511D01*
X107135333Y-101341174D01*
X107149987Y-101365088D01*
X107296250Y-101533938D01*
X107468126Y-101676632D01*
X107520213Y-101707069D01*
X107541445Y-101719476D01*
X107590169Y-101771114D01*
X107603240Y-101840897D01*
X107576509Y-101906669D01*
X107536055Y-101940027D01*
X107523607Y-101946507D01*
X107519474Y-101949610D01*
X107519471Y-101949612D01*
X107365289Y-102065375D01*
X107344965Y-102080635D01*
X107190629Y-102242138D01*
X107187715Y-102246410D01*
X107187714Y-102246411D01*
X107106764Y-102365079D01*
X107064743Y-102426680D01*
X107024284Y-102513841D01*
X106978464Y-102612554D01*
X106970688Y-102629305D01*
X106910989Y-102844570D01*
X106887251Y-103066695D01*
X106887548Y-103071848D01*
X106887548Y-103071851D01*
X106893011Y-103166590D01*
X106900110Y-103289715D01*
X106901247Y-103294761D01*
X106901248Y-103294767D01*
X106921119Y-103382939D01*
X106949222Y-103507639D01*
X106994317Y-103618695D01*
X107028058Y-103701789D01*
X107033266Y-103714616D01*
X107080257Y-103791298D01*
X107099252Y-103822295D01*
X107149987Y-103905088D01*
X107296250Y-104073938D01*
X107468126Y-104216632D01*
X107532652Y-104254338D01*
X107541445Y-104259476D01*
X107590169Y-104311114D01*
X107603240Y-104380897D01*
X107576509Y-104446669D01*
X107536055Y-104480027D01*
X107523607Y-104486507D01*
X107519474Y-104489610D01*
X107519471Y-104489612D01*
X107365289Y-104605375D01*
X107344965Y-104620635D01*
X107190629Y-104782138D01*
X107187715Y-104786410D01*
X107187714Y-104786411D01*
X107102556Y-104911249D01*
X107064743Y-104966680D01*
X106970688Y-105169305D01*
X106910989Y-105384570D01*
X106887251Y-105606695D01*
X106887548Y-105611848D01*
X106887548Y-105611851D01*
X106893011Y-105706590D01*
X106900110Y-105829715D01*
X106901247Y-105834761D01*
X106901248Y-105834767D01*
X106921119Y-105922939D01*
X106949222Y-106047639D01*
X107033266Y-106254616D01*
X107077929Y-106327500D01*
X107147291Y-106440688D01*
X107149987Y-106445088D01*
X107296250Y-106613938D01*
X107468126Y-106756632D01*
X107541445Y-106799476D01*
X107541955Y-106799774D01*
X107590679Y-106851412D01*
X107603750Y-106921195D01*
X107577019Y-106986967D01*
X107536562Y-107020327D01*
X107528457Y-107024546D01*
X107519738Y-107030036D01*
X107349433Y-107157905D01*
X107341726Y-107164748D01*
X107194590Y-107318717D01*
X107188104Y-107326727D01*
X107068098Y-107502649D01*
X107063000Y-107511623D01*
X106973338Y-107704783D01*
X106969775Y-107714470D01*
X106914389Y-107914183D01*
X106915912Y-107922607D01*
X106928292Y-107926000D01*
X108378000Y-107926000D01*
X108446121Y-107946002D01*
X108492614Y-107999658D01*
X108504000Y-108052000D01*
X108504000Y-108308000D01*
X108483998Y-108376121D01*
X108430342Y-108422614D01*
X108378000Y-108434000D01*
X106933225Y-108434000D01*
X106919694Y-108437973D01*
X106918257Y-108447966D01*
X106948565Y-108582446D01*
X106951645Y-108592275D01*
X107031770Y-108789603D01*
X107036413Y-108798794D01*
X107147694Y-108980388D01*
X107153777Y-108988699D01*
X107293213Y-109149667D01*
X107300580Y-109156883D01*
X107464434Y-109292916D01*
X107472881Y-109298831D01*
X107541969Y-109339203D01*
X107590693Y-109390842D01*
X107603764Y-109460625D01*
X107577033Y-109526396D01*
X107536584Y-109559752D01*
X107523607Y-109566507D01*
X107519474Y-109569610D01*
X107519471Y-109569612D01*
X107349100Y-109697530D01*
X107344965Y-109700635D01*
X107190629Y-109862138D01*
X107187720Y-109866403D01*
X107187714Y-109866411D01*
X107112702Y-109976375D01*
X107064743Y-110046680D01*
X107049003Y-110080590D01*
X106978827Y-110231772D01*
X106970688Y-110249305D01*
X106910989Y-110464570D01*
X106887251Y-110686695D01*
X106887548Y-110691848D01*
X106887548Y-110691851D01*
X106893011Y-110786590D01*
X106900110Y-110909715D01*
X106901247Y-110914761D01*
X106901248Y-110914767D01*
X106921119Y-111002939D01*
X106949222Y-111127639D01*
X106987461Y-111221811D01*
X107027390Y-111320144D01*
X107033266Y-111334616D01*
X107080257Y-111411298D01*
X107099252Y-111442295D01*
X107149987Y-111525088D01*
X107296250Y-111693938D01*
X107468126Y-111836632D01*
X107501466Y-111856114D01*
X107541445Y-111879476D01*
X107590169Y-111931114D01*
X107603240Y-112000897D01*
X107576509Y-112066669D01*
X107536055Y-112100027D01*
X107523607Y-112106507D01*
X107519474Y-112109610D01*
X107519471Y-112109612D01*
X107349100Y-112237530D01*
X107344965Y-112240635D01*
X107190629Y-112402138D01*
X107064743Y-112586680D01*
X107062564Y-112591375D01*
X106988527Y-112750875D01*
X106970688Y-112789305D01*
X106910989Y-113004570D01*
X106887251Y-113226695D01*
X106900110Y-113449715D01*
X106901247Y-113454761D01*
X106901248Y-113454767D01*
X106910329Y-113495060D01*
X106949222Y-113667639D01*
X106994317Y-113778695D01*
X107021272Y-113845077D01*
X107033266Y-113874616D01*
X107149987Y-114065088D01*
X107296250Y-114233938D01*
X107468126Y-114376632D01*
X107520213Y-114407069D01*
X107541445Y-114419476D01*
X107590169Y-114471114D01*
X107603240Y-114540897D01*
X107576509Y-114606669D01*
X107536055Y-114640027D01*
X107523607Y-114646507D01*
X107519474Y-114649610D01*
X107519471Y-114649612D01*
X107349100Y-114777530D01*
X107344965Y-114780635D01*
X107190629Y-114942138D01*
X107187720Y-114946403D01*
X107187714Y-114946411D01*
X107112702Y-115056375D01*
X107064743Y-115126680D01*
X106970688Y-115329305D01*
X106910989Y-115544570D01*
X106887251Y-115766695D01*
X106887548Y-115771848D01*
X106887548Y-115771851D01*
X106893011Y-115866590D01*
X106900110Y-115989715D01*
X106901247Y-115994761D01*
X106901248Y-115994767D01*
X106921119Y-116082939D01*
X106949222Y-116207639D01*
X106987461Y-116301811D01*
X107027390Y-116400144D01*
X107033266Y-116414616D01*
X107080257Y-116491298D01*
X107099252Y-116522295D01*
X107149987Y-116605088D01*
X107296250Y-116773938D01*
X107468126Y-116916632D01*
X107501466Y-116936114D01*
X107541445Y-116959476D01*
X107590169Y-117011114D01*
X107603240Y-117080897D01*
X107576509Y-117146669D01*
X107536055Y-117180027D01*
X107523607Y-117186507D01*
X107519474Y-117189610D01*
X107519471Y-117189612D01*
X107349100Y-117317530D01*
X107344965Y-117320635D01*
X107190629Y-117482138D01*
X107064743Y-117666680D01*
X107062564Y-117671375D01*
X106988527Y-117830875D01*
X106970688Y-117869305D01*
X106910989Y-118084570D01*
X106887251Y-118306695D01*
X106900110Y-118529715D01*
X106901247Y-118534761D01*
X106901248Y-118534767D01*
X106910329Y-118575060D01*
X106949222Y-118747639D01*
X107033266Y-118954616D01*
X107060481Y-118999027D01*
X107146552Y-119139482D01*
X107149987Y-119145088D01*
X107296250Y-119313938D01*
X107468126Y-119456632D01*
X107520213Y-119487069D01*
X107541445Y-119499476D01*
X107590169Y-119551114D01*
X107603240Y-119620897D01*
X107576509Y-119686669D01*
X107536055Y-119720027D01*
X107523607Y-119726507D01*
X107519474Y-119729610D01*
X107519471Y-119729612D01*
X107349100Y-119857530D01*
X107344965Y-119860635D01*
X107190629Y-120022138D01*
X107064743Y-120206680D01*
X107029223Y-120283202D01*
X107011310Y-120321793D01*
X106970688Y-120409305D01*
X106910989Y-120624570D01*
X106887251Y-120846695D01*
X106887548Y-120851848D01*
X106887548Y-120851851D01*
X106899812Y-121064547D01*
X106900110Y-121069715D01*
X106901247Y-121074761D01*
X106901248Y-121074767D01*
X106925304Y-121181508D01*
X106949222Y-121287639D01*
X106998937Y-121410073D01*
X107027390Y-121480144D01*
X107033266Y-121494616D01*
X107149987Y-121685088D01*
X107296250Y-121853938D01*
X107468126Y-121996632D01*
X107474773Y-122000516D01*
X107541445Y-122039476D01*
X107590169Y-122091114D01*
X107603240Y-122160897D01*
X107576509Y-122226669D01*
X107536055Y-122260027D01*
X107523607Y-122266507D01*
X107519474Y-122269610D01*
X107519471Y-122269612D01*
X107349100Y-122397530D01*
X107344965Y-122400635D01*
X107341393Y-122404373D01*
X107260303Y-122489229D01*
X107190629Y-122562138D01*
X107187715Y-122566410D01*
X107187714Y-122566411D01*
X107113807Y-122674755D01*
X107064743Y-122746680D01*
X106970688Y-122949305D01*
X106910989Y-123164570D01*
X106887251Y-123386695D01*
X106887548Y-123391848D01*
X106887548Y-123391851D01*
X106894770Y-123517100D01*
X106900110Y-123609715D01*
X106901247Y-123614761D01*
X106901248Y-123614767D01*
X106921119Y-123702939D01*
X106949222Y-123827639D01*
X106987461Y-123921811D01*
X107030081Y-124026771D01*
X107033266Y-124034616D01*
X107077929Y-124107500D01*
X107147291Y-124220688D01*
X107149987Y-124225088D01*
X107296250Y-124393938D01*
X107468126Y-124536632D01*
X107474773Y-124540516D01*
X107541955Y-124579774D01*
X107590679Y-124631412D01*
X107603750Y-124701195D01*
X107577019Y-124766967D01*
X107536562Y-124800327D01*
X107528457Y-124804546D01*
X107519738Y-124810036D01*
X107349433Y-124937905D01*
X107341726Y-124944748D01*
X107194590Y-125098717D01*
X107188104Y-125106727D01*
X107068098Y-125282649D01*
X107063000Y-125291623D01*
X106973338Y-125484783D01*
X106969775Y-125494470D01*
X106914389Y-125694183D01*
X106915912Y-125702607D01*
X106928292Y-125706000D01*
X108378000Y-125706000D01*
X108446121Y-125726002D01*
X108492614Y-125779658D01*
X108504000Y-125832000D01*
X108504000Y-127278517D01*
X108508064Y-127292359D01*
X108521478Y-127294393D01*
X108528184Y-127293534D01*
X108538262Y-127291392D01*
X108742255Y-127230191D01*
X108751842Y-127226433D01*
X108943095Y-127132739D01*
X108951945Y-127127464D01*
X109125328Y-127003792D01*
X109133200Y-126997139D01*
X109284052Y-126846812D01*
X109290730Y-126838965D01*
X109418022Y-126661819D01*
X109419279Y-126662722D01*
X109466373Y-126619362D01*
X109536311Y-126607145D01*
X109601751Y-126634678D01*
X109629579Y-126666511D01*
X109689987Y-126765088D01*
X109836250Y-126933938D01*
X110008126Y-127076632D01*
X110201000Y-127189338D01*
X110205825Y-127191180D01*
X110205826Y-127191181D01*
X110278612Y-127218975D01*
X110409692Y-127269030D01*
X110414760Y-127270061D01*
X110414763Y-127270062D01*
X110509862Y-127289410D01*
X110628597Y-127313567D01*
X110633772Y-127313757D01*
X110633774Y-127313757D01*
X110846673Y-127321564D01*
X110846677Y-127321564D01*
X110851837Y-127321753D01*
X110856957Y-127321097D01*
X110856959Y-127321097D01*
X111043378Y-127297216D01*
X123319800Y-127297216D01*
X123324275Y-127312455D01*
X123325665Y-127313660D01*
X123333348Y-127315331D01*
X124105685Y-127315331D01*
X124120924Y-127310856D01*
X124122129Y-127309466D01*
X124123800Y-127301783D01*
X124123800Y-127297216D01*
X124631800Y-127297216D01*
X124636275Y-127312455D01*
X124637665Y-127313660D01*
X124645348Y-127315331D01*
X125417685Y-127315331D01*
X125432924Y-127310856D01*
X125434129Y-127309466D01*
X125435800Y-127301783D01*
X125435800Y-127247539D01*
X131959800Y-127247539D01*
X131964275Y-127262778D01*
X131965665Y-127263983D01*
X131973348Y-127265654D01*
X132745685Y-127265654D01*
X132760924Y-127261179D01*
X132762129Y-127259789D01*
X132763800Y-127252106D01*
X132763800Y-127247539D01*
X133271800Y-127247539D01*
X133276275Y-127262778D01*
X133277665Y-127263983D01*
X133285348Y-127265654D01*
X134057685Y-127265654D01*
X134072924Y-127261179D01*
X134074129Y-127259789D01*
X134075800Y-127252106D01*
X134075800Y-127170530D01*
X134075499Y-127164382D01*
X134061273Y-127019293D01*
X134058890Y-127007258D01*
X134002483Y-126820431D01*
X133997808Y-126809089D01*
X133906188Y-126636775D01*
X133899401Y-126626559D01*
X133776053Y-126475319D01*
X133767409Y-126466615D01*
X133617037Y-126342216D01*
X133606869Y-126335357D01*
X133435193Y-126242533D01*
X133423893Y-126237783D01*
X133289107Y-126196059D01*
X133275005Y-126195853D01*
X133271800Y-126202609D01*
X133271800Y-127247539D01*
X132763800Y-127247539D01*
X132763800Y-126209607D01*
X132759827Y-126196076D01*
X132752032Y-126194956D01*
X132625458Y-126232208D01*
X132614090Y-126236801D01*
X132441134Y-126327220D01*
X132430872Y-126333936D01*
X132278780Y-126456222D01*
X132270014Y-126464806D01*
X132144564Y-126614310D01*
X132137640Y-126624421D01*
X132043616Y-126795452D01*
X132038788Y-126806716D01*
X131979775Y-126992749D01*
X131977227Y-127004738D01*
X131960193Y-127156601D01*
X131959800Y-127163625D01*
X131959800Y-127247539D01*
X125435800Y-127247539D01*
X125435800Y-127220207D01*
X125435499Y-127214059D01*
X125421273Y-127068970D01*
X125418890Y-127056935D01*
X125362483Y-126870108D01*
X125357808Y-126858766D01*
X125266188Y-126686452D01*
X125259401Y-126676236D01*
X125136053Y-126524996D01*
X125127409Y-126516292D01*
X124977037Y-126391893D01*
X124966869Y-126385034D01*
X124795193Y-126292210D01*
X124783893Y-126287460D01*
X124649107Y-126245736D01*
X124635005Y-126245530D01*
X124631800Y-126252286D01*
X124631800Y-127297216D01*
X124123800Y-127297216D01*
X124123800Y-126259284D01*
X124119827Y-126245753D01*
X124112032Y-126244633D01*
X123985458Y-126281885D01*
X123974090Y-126286478D01*
X123801134Y-126376897D01*
X123790872Y-126383613D01*
X123638780Y-126505899D01*
X123630014Y-126514483D01*
X123504564Y-126663987D01*
X123497640Y-126674098D01*
X123403616Y-126845129D01*
X123398788Y-126856393D01*
X123339775Y-127042426D01*
X123337227Y-127054415D01*
X123320193Y-127206278D01*
X123319800Y-127213302D01*
X123319800Y-127297216D01*
X111043378Y-127297216D01*
X111068288Y-127294025D01*
X111068289Y-127294025D01*
X111073416Y-127293368D01*
X111078366Y-127291883D01*
X111282429Y-127230661D01*
X111282434Y-127230659D01*
X111287384Y-127229174D01*
X111487994Y-127130896D01*
X111669860Y-127001173D01*
X111678314Y-126992749D01*
X111809279Y-126862240D01*
X111828096Y-126843489D01*
X111885005Y-126764292D01*
X111955435Y-126666277D01*
X111958453Y-126662077D01*
X111960746Y-126657438D01*
X111963405Y-126653012D01*
X111965108Y-126654035D01*
X112007420Y-126608097D01*
X112052584Y-126591663D01*
X112057262Y-126590922D01*
X112065189Y-126590673D01*
X112084643Y-126585021D01*
X112104000Y-126581013D01*
X112116230Y-126579468D01*
X112116231Y-126579468D01*
X112124097Y-126578474D01*
X112131468Y-126575555D01*
X112131470Y-126575555D01*
X112165212Y-126562196D01*
X112176442Y-126558351D01*
X112211283Y-126548229D01*
X112211284Y-126548229D01*
X112218893Y-126546018D01*
X112225712Y-126541985D01*
X112225717Y-126541983D01*
X112236328Y-126535707D01*
X112254076Y-126527012D01*
X112272917Y-126519552D01*
X112308687Y-126493564D01*
X112318607Y-126487048D01*
X112349835Y-126468580D01*
X112349838Y-126468578D01*
X112356662Y-126464542D01*
X112370983Y-126450221D01*
X112386017Y-126437380D01*
X112395994Y-126430131D01*
X112402407Y-126425472D01*
X112430598Y-126391395D01*
X112438588Y-126382616D01*
X112668238Y-126152966D01*
X117693257Y-126152966D01*
X117723565Y-126287446D01*
X117726645Y-126297275D01*
X117806770Y-126494603D01*
X117811413Y-126503794D01*
X117922694Y-126685388D01*
X117928777Y-126693699D01*
X118068213Y-126854667D01*
X118075580Y-126861883D01*
X118239434Y-126997916D01*
X118247881Y-127003831D01*
X118431756Y-127111279D01*
X118441042Y-127115729D01*
X118640001Y-127191703D01*
X118649899Y-127194579D01*
X118753250Y-127215606D01*
X118767299Y-127214410D01*
X118771000Y-127204065D01*
X118771000Y-126157115D01*
X118766525Y-126141876D01*
X118765135Y-126140671D01*
X118757452Y-126139000D01*
X117708225Y-126139000D01*
X117694694Y-126142973D01*
X117693257Y-126152966D01*
X112668238Y-126152966D01*
X113441099Y-125380105D01*
X113503411Y-125346079D01*
X113530194Y-125343200D01*
X117600228Y-125343200D01*
X117668349Y-125363202D01*
X117714842Y-125416858D01*
X117724946Y-125487132D01*
X117721645Y-125502872D01*
X117689389Y-125619183D01*
X117690912Y-125627607D01*
X117703292Y-125631000D01*
X119153000Y-125631000D01*
X119221121Y-125651002D01*
X119267614Y-125704658D01*
X119279000Y-125757000D01*
X119279000Y-127203517D01*
X119283064Y-127217359D01*
X119296478Y-127219393D01*
X119303184Y-127218534D01*
X119313262Y-127216392D01*
X119517255Y-127155191D01*
X119526842Y-127151433D01*
X119718095Y-127057739D01*
X119726945Y-127052464D01*
X119900328Y-126928792D01*
X119908200Y-126922139D01*
X120059052Y-126771812D01*
X120065730Y-126763965D01*
X120193022Y-126586819D01*
X120194279Y-126587722D01*
X120241373Y-126544362D01*
X120311311Y-126532145D01*
X120376751Y-126559678D01*
X120404579Y-126591511D01*
X120464987Y-126690088D01*
X120611250Y-126858938D01*
X120783126Y-127001632D01*
X120976000Y-127114338D01*
X121184692Y-127194030D01*
X121189760Y-127195061D01*
X121189763Y-127195062D01*
X121244892Y-127206278D01*
X121403597Y-127238567D01*
X121408772Y-127238757D01*
X121408774Y-127238757D01*
X121621673Y-127246564D01*
X121621677Y-127246564D01*
X121626837Y-127246753D01*
X121631957Y-127246097D01*
X121631959Y-127246097D01*
X121843288Y-127219025D01*
X121843289Y-127219025D01*
X121848416Y-127218368D01*
X121853366Y-127216883D01*
X122057429Y-127155661D01*
X122057434Y-127155659D01*
X122062384Y-127154174D01*
X122262994Y-127055896D01*
X122444860Y-126926173D01*
X122603096Y-126768489D01*
X122670923Y-126674098D01*
X122730435Y-126591277D01*
X122733453Y-126587077D01*
X122739148Y-126575555D01*
X122830136Y-126391453D01*
X122830137Y-126391451D01*
X122832430Y-126386811D01*
X122884060Y-126216876D01*
X122895865Y-126178023D01*
X122895865Y-126178021D01*
X122897370Y-126173069D01*
X122926529Y-125951590D01*
X122928156Y-125885000D01*
X122909852Y-125662361D01*
X122855431Y-125445702D01*
X122766354Y-125240840D01*
X122691257Y-125124757D01*
X122647822Y-125057617D01*
X122647820Y-125057614D01*
X122645014Y-125053277D01*
X122494670Y-124888051D01*
X122490619Y-124884852D01*
X122490615Y-124884848D01*
X122323414Y-124752800D01*
X122323410Y-124752798D01*
X122319359Y-124749598D01*
X122278053Y-124726796D01*
X122228084Y-124676364D01*
X122213312Y-124606921D01*
X122238428Y-124540516D01*
X122265780Y-124513909D01*
X122326885Y-124470323D01*
X122444860Y-124386173D01*
X122603096Y-124228489D01*
X122664749Y-124142690D01*
X122680892Y-124120224D01*
X123319800Y-124120224D01*
X123320101Y-124126372D01*
X123334327Y-124271461D01*
X123336710Y-124283496D01*
X123393117Y-124470323D01*
X123397792Y-124481665D01*
X123489412Y-124653979D01*
X123496199Y-124664195D01*
X123619547Y-124815435D01*
X123628191Y-124824139D01*
X123778563Y-124948538D01*
X123788731Y-124955397D01*
X123960407Y-125048221D01*
X123971707Y-125052971D01*
X124106493Y-125094695D01*
X124120595Y-125094901D01*
X124123800Y-125088145D01*
X124123800Y-125081147D01*
X124631800Y-125081147D01*
X124635773Y-125094678D01*
X124643568Y-125095798D01*
X124770142Y-125058546D01*
X124781510Y-125053953D01*
X124954466Y-124963534D01*
X124964728Y-124956818D01*
X125116820Y-124834532D01*
X125125586Y-124825948D01*
X125251036Y-124676444D01*
X125257960Y-124666333D01*
X125351984Y-124495302D01*
X125356812Y-124484038D01*
X125415825Y-124298005D01*
X125418373Y-124286016D01*
X125435407Y-124134153D01*
X125435800Y-124127129D01*
X125435800Y-124120224D01*
X131959800Y-124120224D01*
X131960101Y-124126372D01*
X131974327Y-124271461D01*
X131976710Y-124283496D01*
X132033117Y-124470323D01*
X132037792Y-124481665D01*
X132129412Y-124653979D01*
X132136199Y-124664195D01*
X132259547Y-124815435D01*
X132268191Y-124824139D01*
X132418563Y-124948538D01*
X132428731Y-124955397D01*
X132600407Y-125048221D01*
X132611707Y-125052971D01*
X132746493Y-125094695D01*
X132760595Y-125094901D01*
X132763800Y-125088145D01*
X132763800Y-125081147D01*
X133271800Y-125081147D01*
X133275773Y-125094678D01*
X133283568Y-125095798D01*
X133410142Y-125058546D01*
X133421510Y-125053953D01*
X133594466Y-124963534D01*
X133604728Y-124956818D01*
X133756820Y-124834532D01*
X133765586Y-124825948D01*
X133891036Y-124676444D01*
X133897960Y-124666333D01*
X133991984Y-124495302D01*
X133996812Y-124484038D01*
X134055825Y-124298005D01*
X134058373Y-124286016D01*
X134075407Y-124134153D01*
X134075800Y-124127129D01*
X134075800Y-124043215D01*
X134071325Y-124027976D01*
X134069935Y-124026771D01*
X134062252Y-124025100D01*
X133289915Y-124025100D01*
X133274676Y-124029575D01*
X133273471Y-124030965D01*
X133271800Y-124038648D01*
X133271800Y-125081147D01*
X132763800Y-125081147D01*
X132763800Y-124043215D01*
X132759325Y-124027976D01*
X132757935Y-124026771D01*
X132750252Y-124025100D01*
X131977915Y-124025100D01*
X131962676Y-124029575D01*
X131961471Y-124030965D01*
X131959800Y-124038648D01*
X131959800Y-124120224D01*
X125435800Y-124120224D01*
X125435800Y-124043215D01*
X125431325Y-124027976D01*
X125429935Y-124026771D01*
X125422252Y-124025100D01*
X124649915Y-124025100D01*
X124634676Y-124029575D01*
X124633471Y-124030965D01*
X124631800Y-124038648D01*
X124631800Y-125081147D01*
X124123800Y-125081147D01*
X124123800Y-124043215D01*
X124119325Y-124027976D01*
X124117935Y-124026771D01*
X124110252Y-124025100D01*
X123337915Y-124025100D01*
X123322676Y-124029575D01*
X123321471Y-124030965D01*
X123319800Y-124038648D01*
X123319800Y-124120224D01*
X122680892Y-124120224D01*
X122730435Y-124051277D01*
X122733453Y-124047077D01*
X122741978Y-124029829D01*
X122830136Y-123851453D01*
X122830137Y-123851451D01*
X122832430Y-123846811D01*
X122897370Y-123633069D01*
X122915023Y-123498985D01*
X123319800Y-123498985D01*
X123324275Y-123514224D01*
X123325665Y-123515429D01*
X123333348Y-123517100D01*
X124105685Y-123517100D01*
X124120924Y-123512625D01*
X124122129Y-123511235D01*
X124123800Y-123503552D01*
X124123800Y-123498985D01*
X124631800Y-123498985D01*
X124636275Y-123514224D01*
X124637665Y-123515429D01*
X124645348Y-123517100D01*
X125417685Y-123517100D01*
X125432924Y-123512625D01*
X125434129Y-123511235D01*
X125435800Y-123503552D01*
X125435800Y-123498985D01*
X131959800Y-123498985D01*
X131964275Y-123514224D01*
X131965665Y-123515429D01*
X131973348Y-123517100D01*
X132745685Y-123517100D01*
X132760924Y-123512625D01*
X132762129Y-123511235D01*
X132763800Y-123503552D01*
X132763800Y-123498985D01*
X133271800Y-123498985D01*
X133276275Y-123514224D01*
X133277665Y-123515429D01*
X133285348Y-123517100D01*
X134057685Y-123517100D01*
X134072924Y-123512625D01*
X134074129Y-123511235D01*
X134075800Y-123503552D01*
X134075800Y-123421976D01*
X134075499Y-123415828D01*
X134061273Y-123270739D01*
X134058890Y-123258704D01*
X134002483Y-123071877D01*
X133997808Y-123060535D01*
X133906188Y-122888221D01*
X133899401Y-122878005D01*
X133776053Y-122726765D01*
X133767409Y-122718061D01*
X133617037Y-122593662D01*
X133606869Y-122586803D01*
X133435193Y-122493979D01*
X133423893Y-122489229D01*
X133289107Y-122447505D01*
X133275005Y-122447299D01*
X133271800Y-122454055D01*
X133271800Y-123498985D01*
X132763800Y-123498985D01*
X132763800Y-122461053D01*
X132759827Y-122447522D01*
X132752032Y-122446402D01*
X132625458Y-122483654D01*
X132614090Y-122488247D01*
X132441134Y-122578666D01*
X132430872Y-122585382D01*
X132278780Y-122707668D01*
X132270014Y-122716252D01*
X132144564Y-122865756D01*
X132137640Y-122875867D01*
X132043616Y-123046898D01*
X132038788Y-123058162D01*
X131979775Y-123244195D01*
X131977227Y-123256184D01*
X131960193Y-123408047D01*
X131959800Y-123415071D01*
X131959800Y-123498985D01*
X125435800Y-123498985D01*
X125435800Y-123421976D01*
X125435499Y-123415828D01*
X125421273Y-123270739D01*
X125418890Y-123258704D01*
X125362483Y-123071877D01*
X125357808Y-123060535D01*
X125266188Y-122888221D01*
X125259401Y-122878005D01*
X125136053Y-122726765D01*
X125127409Y-122718061D01*
X124977037Y-122593662D01*
X124966869Y-122586803D01*
X124795193Y-122493979D01*
X124783893Y-122489229D01*
X124649107Y-122447505D01*
X124635005Y-122447299D01*
X124631800Y-122454055D01*
X124631800Y-123498985D01*
X124123800Y-123498985D01*
X124123800Y-122461053D01*
X124119827Y-122447522D01*
X124112032Y-122446402D01*
X123985458Y-122483654D01*
X123974090Y-122488247D01*
X123801134Y-122578666D01*
X123790872Y-122585382D01*
X123638780Y-122707668D01*
X123630014Y-122716252D01*
X123504564Y-122865756D01*
X123497640Y-122875867D01*
X123403616Y-123046898D01*
X123398788Y-123058162D01*
X123339775Y-123244195D01*
X123337227Y-123256184D01*
X123320193Y-123408047D01*
X123319800Y-123415071D01*
X123319800Y-123498985D01*
X122915023Y-123498985D01*
X122926529Y-123411590D01*
X122928156Y-123345000D01*
X122909852Y-123122361D01*
X122855431Y-122905702D01*
X122766354Y-122700840D01*
X122710233Y-122614090D01*
X122647822Y-122517617D01*
X122647820Y-122517614D01*
X122645014Y-122513277D01*
X122494670Y-122348051D01*
X122490619Y-122344852D01*
X122490615Y-122344848D01*
X122323414Y-122212800D01*
X122323410Y-122212798D01*
X122319359Y-122209598D01*
X122278053Y-122186796D01*
X122228084Y-122136364D01*
X122213312Y-122066921D01*
X122238428Y-122000516D01*
X122265780Y-121973909D01*
X122328349Y-121929279D01*
X122444860Y-121846173D01*
X122603096Y-121688489D01*
X122733453Y-121507077D01*
X122741978Y-121489829D01*
X122830136Y-121311453D01*
X122830137Y-121311451D01*
X122832430Y-121306811D01*
X122897370Y-121093069D01*
X122926529Y-120871590D01*
X122928156Y-120805000D01*
X122909852Y-120582361D01*
X122855431Y-120365702D01*
X122766354Y-120160840D01*
X122693534Y-120048277D01*
X122647822Y-119977617D01*
X122647820Y-119977614D01*
X122645014Y-119973277D01*
X122494670Y-119808051D01*
X122490619Y-119804852D01*
X122490615Y-119804848D01*
X122323414Y-119672800D01*
X122323410Y-119672798D01*
X122319359Y-119669598D01*
X122277569Y-119646529D01*
X122227598Y-119596097D01*
X122212826Y-119526654D01*
X122237942Y-119460248D01*
X122265294Y-119433641D01*
X122440328Y-119308792D01*
X122448200Y-119302139D01*
X122599052Y-119151812D01*
X122605730Y-119143965D01*
X122730003Y-118971020D01*
X122735313Y-118962183D01*
X122829670Y-118771267D01*
X122833469Y-118761672D01*
X122895377Y-118557910D01*
X122897555Y-118547837D01*
X122898986Y-118536962D01*
X122896775Y-118522778D01*
X122883617Y-118519000D01*
X121437000Y-118519000D01*
X121368879Y-118498998D01*
X121322386Y-118445342D01*
X121311000Y-118393000D01*
X121311000Y-118137000D01*
X121331002Y-118068879D01*
X121384658Y-118022386D01*
X121437000Y-118011000D01*
X122883344Y-118011000D01*
X122896875Y-118007027D01*
X122898180Y-117997947D01*
X122856214Y-117830875D01*
X122852894Y-117821124D01*
X122767972Y-117625814D01*
X122763105Y-117616739D01*
X122647426Y-117437926D01*
X122641136Y-117429757D01*
X122497806Y-117272240D01*
X122490273Y-117265215D01*
X122323139Y-117133222D01*
X122314556Y-117127520D01*
X122277602Y-117107120D01*
X122227631Y-117056687D01*
X122212859Y-116987245D01*
X122237975Y-116920839D01*
X122265327Y-116894232D01*
X122288797Y-116877491D01*
X122444860Y-116766173D01*
X122467348Y-116743764D01*
X122532045Y-116679292D01*
X122603096Y-116608489D01*
X122649723Y-116543601D01*
X122730435Y-116431277D01*
X122733453Y-116427077D01*
X122741978Y-116409829D01*
X122830136Y-116231453D01*
X122830137Y-116231451D01*
X122832430Y-116226811D01*
X122897370Y-116013069D01*
X122926529Y-115791590D01*
X122928156Y-115725000D01*
X122909852Y-115502361D01*
X122855431Y-115285702D01*
X122766354Y-115080840D01*
X122693534Y-114968277D01*
X122647822Y-114897617D01*
X122647820Y-114897614D01*
X122645014Y-114893277D01*
X122494670Y-114728051D01*
X122490619Y-114724852D01*
X122490615Y-114724848D01*
X122323414Y-114592800D01*
X122323410Y-114592798D01*
X122319359Y-114589598D01*
X122277569Y-114566529D01*
X122227598Y-114516097D01*
X122212826Y-114446654D01*
X122237942Y-114380248D01*
X122265294Y-114353641D01*
X122440328Y-114228792D01*
X122448200Y-114222139D01*
X122599052Y-114071812D01*
X122605730Y-114063965D01*
X122730003Y-113891020D01*
X122735313Y-113882183D01*
X122829670Y-113691267D01*
X122833469Y-113681672D01*
X122895377Y-113477910D01*
X122897555Y-113467837D01*
X122898986Y-113456962D01*
X122896775Y-113442778D01*
X122883617Y-113439000D01*
X121437000Y-113439000D01*
X121368879Y-113418998D01*
X121322386Y-113365342D01*
X121311000Y-113313000D01*
X121311000Y-113057000D01*
X121331002Y-112988879D01*
X121384658Y-112942386D01*
X121437000Y-112931000D01*
X122883344Y-112931000D01*
X122896875Y-112927027D01*
X122898180Y-112917947D01*
X122856214Y-112750875D01*
X122852894Y-112741124D01*
X122767972Y-112545814D01*
X122763105Y-112536739D01*
X122647426Y-112357926D01*
X122641136Y-112349757D01*
X122497806Y-112192240D01*
X122490273Y-112185215D01*
X122323139Y-112053222D01*
X122314556Y-112047520D01*
X122277602Y-112027120D01*
X122227631Y-111976687D01*
X122212859Y-111907245D01*
X122237975Y-111840839D01*
X122265327Y-111814232D01*
X122288797Y-111797491D01*
X122444860Y-111686173D01*
X122467348Y-111663764D01*
X122532045Y-111599292D01*
X122603096Y-111528489D01*
X122649723Y-111463601D01*
X122730435Y-111351277D01*
X122733453Y-111347077D01*
X122741978Y-111329829D01*
X122830136Y-111151453D01*
X122830137Y-111151451D01*
X122832430Y-111146811D01*
X122897370Y-110933069D01*
X122926529Y-110711590D01*
X122928156Y-110645000D01*
X122909852Y-110422361D01*
X122855431Y-110205702D01*
X122766354Y-110000840D01*
X122693534Y-109888277D01*
X122647822Y-109817617D01*
X122647820Y-109817614D01*
X122645014Y-109813277D01*
X122494670Y-109648051D01*
X122490619Y-109644852D01*
X122490615Y-109644848D01*
X122323414Y-109512800D01*
X122323410Y-109512798D01*
X122319359Y-109509598D01*
X122278053Y-109486796D01*
X122228084Y-109436364D01*
X122213312Y-109366921D01*
X122238428Y-109300516D01*
X122265780Y-109273909D01*
X122333092Y-109225896D01*
X122444860Y-109146173D01*
X122603096Y-108988489D01*
X122639025Y-108938489D01*
X122730435Y-108811277D01*
X122733453Y-108807077D01*
X122735746Y-108802438D01*
X122738405Y-108798012D01*
X122740108Y-108799035D01*
X122782420Y-108753097D01*
X122827584Y-108736663D01*
X122832262Y-108735922D01*
X122840189Y-108735673D01*
X122859643Y-108730021D01*
X122879000Y-108726013D01*
X122891230Y-108724468D01*
X122891231Y-108724468D01*
X122899097Y-108723474D01*
X122906468Y-108720555D01*
X122906470Y-108720555D01*
X122940212Y-108707196D01*
X122951442Y-108703351D01*
X122986283Y-108693229D01*
X122986284Y-108693229D01*
X122993893Y-108691018D01*
X123000712Y-108686985D01*
X123000717Y-108686983D01*
X123011328Y-108680707D01*
X123029076Y-108672012D01*
X123047917Y-108664552D01*
X123083687Y-108638564D01*
X123093607Y-108632048D01*
X123124835Y-108613580D01*
X123124838Y-108613578D01*
X123131662Y-108609542D01*
X123145983Y-108595221D01*
X123161017Y-108582380D01*
X123170994Y-108575131D01*
X123177407Y-108570472D01*
X123205598Y-108536395D01*
X123213588Y-108527616D01*
X124206399Y-107534805D01*
X124268711Y-107500779D01*
X124295494Y-107497900D01*
X137639471Y-107497900D01*
X137707592Y-107517902D01*
X137754085Y-107571558D01*
X137764189Y-107641832D01*
X137760888Y-107657572D01*
X137724389Y-107789183D01*
X137725912Y-107797607D01*
X137738292Y-107801000D01*
X139188000Y-107801000D01*
X139256121Y-107821002D01*
X139302614Y-107874658D01*
X139314000Y-107927000D01*
X139314000Y-108183000D01*
X139293998Y-108251121D01*
X139240342Y-108297614D01*
X139188000Y-108309000D01*
X137743225Y-108309000D01*
X137729694Y-108312973D01*
X137728257Y-108322966D01*
X137758565Y-108457446D01*
X137761645Y-108467275D01*
X137841770Y-108664603D01*
X137846413Y-108673794D01*
X137957694Y-108855388D01*
X137963777Y-108863699D01*
X138103213Y-109024667D01*
X138110580Y-109031883D01*
X138274434Y-109167916D01*
X138282876Y-109173828D01*
X138340006Y-109207212D01*
X138388729Y-109258851D01*
X138401800Y-109328634D01*
X138375068Y-109394406D01*
X138317021Y-109435284D01*
X138276435Y-109442000D01*
X137008702Y-109442000D01*
X137007932Y-109441998D01*
X137007078Y-109441993D01*
X136930348Y-109441524D01*
X136921719Y-109443990D01*
X136921714Y-109443991D01*
X136901952Y-109449639D01*
X136885191Y-109453217D01*
X136864848Y-109456130D01*
X136864838Y-109456133D01*
X136855955Y-109457405D01*
X136832605Y-109468021D01*
X136815093Y-109474464D01*
X136802200Y-109478149D01*
X136790435Y-109481512D01*
X136765452Y-109497274D01*
X136750386Y-109505404D01*
X136723490Y-109517633D01*
X136704061Y-109534374D01*
X136689053Y-109545479D01*
X136667369Y-109559160D01*
X136661427Y-109565888D01*
X136647819Y-109581296D01*
X136635627Y-109593340D01*
X136613253Y-109612619D01*
X136608374Y-109620147D01*
X136608371Y-109620150D01*
X136599304Y-109634139D01*
X136588014Y-109649013D01*
X136571044Y-109668228D01*
X136558490Y-109694966D01*
X136550176Y-109709935D01*
X136534107Y-109734727D01*
X136531535Y-109743327D01*
X136526761Y-109759290D01*
X136520099Y-109776736D01*
X136509201Y-109799948D01*
X136507820Y-109808821D01*
X136504658Y-109829128D01*
X136500874Y-109845849D01*
X136494986Y-109865536D01*
X136494985Y-109865539D01*
X136492413Y-109874141D01*
X136492358Y-109883116D01*
X136492358Y-109883117D01*
X136492203Y-109908546D01*
X136492170Y-109909328D01*
X136492000Y-109910423D01*
X136492000Y-109941298D01*
X136491998Y-109942068D01*
X136491849Y-109966538D01*
X136491524Y-110019652D01*
X136491908Y-110020996D01*
X136492000Y-110022341D01*
X136492000Y-125504185D01*
X136490707Y-125522189D01*
X136486776Y-125549418D01*
X136488038Y-125558303D01*
X136488038Y-125558307D01*
X136489517Y-125568716D01*
X136490679Y-125591216D01*
X136478140Y-125921311D01*
X136477066Y-125933617D01*
X136433434Y-126252286D01*
X136428263Y-126290049D01*
X136425990Y-126302189D01*
X136346171Y-126636775D01*
X136342506Y-126652136D01*
X136339052Y-126664000D01*
X136221694Y-127004082D01*
X136217096Y-127015551D01*
X136066994Y-127342499D01*
X136061294Y-127353462D01*
X135879894Y-127664128D01*
X135873147Y-127674481D01*
X135662176Y-127965903D01*
X135654448Y-127975544D01*
X135415959Y-128244886D01*
X135407338Y-128253711D01*
X135143582Y-128498430D01*
X135134146Y-128506359D01*
X134979118Y-128624179D01*
X134847706Y-128724051D01*
X134837513Y-128731036D01*
X134531146Y-128919613D01*
X134520319Y-128925566D01*
X134397881Y-128985263D01*
X134196950Y-129083230D01*
X134185601Y-129088091D01*
X133848319Y-129213332D01*
X133836558Y-129217054D01*
X133488642Y-129308653D01*
X133476559Y-129311207D01*
X133390190Y-129325086D01*
X133121358Y-129368286D01*
X133109077Y-129369646D01*
X132934267Y-129380362D01*
X132786724Y-129389407D01*
X132761146Y-129388369D01*
X132758911Y-129388049D01*
X132758910Y-129388049D01*
X132750024Y-129386776D01*
X132741139Y-129388048D01*
X132741137Y-129388048D01*
X132722419Y-129390728D01*
X132704563Y-129392000D01*
X108403086Y-129392000D01*
X108386776Y-129390940D01*
X108378066Y-129389803D01*
X108355177Y-129386815D01*
X108336016Y-129389803D01*
X108313469Y-129391268D01*
X108138485Y-129386910D01*
X107983986Y-129383061D01*
X107971556Y-129382134D01*
X107615408Y-129337738D01*
X107603119Y-129335585D01*
X107253098Y-129256164D01*
X107241085Y-129252804D01*
X106900643Y-129139139D01*
X106889029Y-129134610D01*
X106698511Y-129049222D01*
X106561505Y-128987816D01*
X106550381Y-128982152D01*
X106239012Y-128803684D01*
X106228502Y-128796948D01*
X105936305Y-128588534D01*
X105926514Y-128580791D01*
X105656378Y-128344491D01*
X105647401Y-128335817D01*
X105566520Y-128249517D01*
X105401968Y-128073942D01*
X105393894Y-128064422D01*
X105282031Y-127918455D01*
X123319800Y-127918455D01*
X123320101Y-127924603D01*
X123334327Y-128069692D01*
X123336710Y-128081727D01*
X123393117Y-128268554D01*
X123397792Y-128279896D01*
X123489412Y-128452210D01*
X123496199Y-128462426D01*
X123619547Y-128613666D01*
X123628191Y-128622370D01*
X123778563Y-128746769D01*
X123788731Y-128753628D01*
X123960407Y-128846452D01*
X123971707Y-128851202D01*
X124106493Y-128892926D01*
X124120595Y-128893132D01*
X124123800Y-128886376D01*
X124123800Y-128879378D01*
X124631800Y-128879378D01*
X124635773Y-128892909D01*
X124643568Y-128894029D01*
X124770142Y-128856777D01*
X124781510Y-128852184D01*
X124954466Y-128761765D01*
X124964728Y-128755049D01*
X125116820Y-128632763D01*
X125125586Y-128624179D01*
X125251036Y-128474675D01*
X125257960Y-128464564D01*
X125351984Y-128293533D01*
X125356812Y-128282269D01*
X125415825Y-128096236D01*
X125418373Y-128084247D01*
X125435407Y-127932384D01*
X125435800Y-127925360D01*
X125435800Y-127868778D01*
X131959800Y-127868778D01*
X131960101Y-127874926D01*
X131974327Y-128020015D01*
X131976710Y-128032050D01*
X132033117Y-128218877D01*
X132037792Y-128230219D01*
X132129412Y-128402533D01*
X132136199Y-128412749D01*
X132259547Y-128563989D01*
X132268191Y-128572693D01*
X132418563Y-128697092D01*
X132428731Y-128703951D01*
X132600407Y-128796775D01*
X132611707Y-128801525D01*
X132746493Y-128843249D01*
X132760595Y-128843455D01*
X132763800Y-128836699D01*
X132763800Y-128829701D01*
X133271800Y-128829701D01*
X133275773Y-128843232D01*
X133283568Y-128844352D01*
X133410142Y-128807100D01*
X133421510Y-128802507D01*
X133594466Y-128712088D01*
X133604728Y-128705372D01*
X133756820Y-128583086D01*
X133765586Y-128574502D01*
X133891036Y-128424998D01*
X133897960Y-128414887D01*
X133991984Y-128243856D01*
X133996812Y-128232592D01*
X134055825Y-128046559D01*
X134058373Y-128034570D01*
X134075407Y-127882707D01*
X134075800Y-127875683D01*
X134075800Y-127791769D01*
X134071325Y-127776530D01*
X134069935Y-127775325D01*
X134062252Y-127773654D01*
X133289915Y-127773654D01*
X133274676Y-127778129D01*
X133273471Y-127779519D01*
X133271800Y-127787202D01*
X133271800Y-128829701D01*
X132763800Y-128829701D01*
X132763800Y-127791769D01*
X132759325Y-127776530D01*
X132757935Y-127775325D01*
X132750252Y-127773654D01*
X131977915Y-127773654D01*
X131962676Y-127778129D01*
X131961471Y-127779519D01*
X131959800Y-127787202D01*
X131959800Y-127868778D01*
X125435800Y-127868778D01*
X125435800Y-127841446D01*
X125431325Y-127826207D01*
X125429935Y-127825002D01*
X125422252Y-127823331D01*
X124649915Y-127823331D01*
X124634676Y-127827806D01*
X124633471Y-127829196D01*
X124631800Y-127836879D01*
X124631800Y-128879378D01*
X124123800Y-128879378D01*
X124123800Y-127841446D01*
X124119325Y-127826207D01*
X124117935Y-127825002D01*
X124110252Y-127823331D01*
X123337915Y-127823331D01*
X123322676Y-127827806D01*
X123321471Y-127829196D01*
X123319800Y-127836879D01*
X123319800Y-127918455D01*
X105282031Y-127918455D01*
X105210413Y-127825002D01*
X105175585Y-127779555D01*
X105168493Y-127769285D01*
X105137773Y-127719711D01*
X104979441Y-127464211D01*
X104973399Y-127453288D01*
X104815456Y-127130994D01*
X104810530Y-127119538D01*
X104767586Y-127004242D01*
X104685258Y-126783211D01*
X104681485Y-126771312D01*
X104656453Y-126676236D01*
X104590104Y-126424226D01*
X104587529Y-126412016D01*
X104579615Y-126362446D01*
X104558143Y-126227966D01*
X106918257Y-126227966D01*
X106948565Y-126362446D01*
X106951645Y-126372275D01*
X107031770Y-126569603D01*
X107036413Y-126578794D01*
X107147694Y-126760388D01*
X107153777Y-126768699D01*
X107293213Y-126929667D01*
X107300580Y-126936883D01*
X107464434Y-127072916D01*
X107472881Y-127078831D01*
X107656756Y-127186279D01*
X107666042Y-127190729D01*
X107865001Y-127266703D01*
X107874899Y-127269579D01*
X107978250Y-127290606D01*
X107992299Y-127289410D01*
X107996000Y-127279065D01*
X107996000Y-126232115D01*
X107991525Y-126216876D01*
X107990135Y-126215671D01*
X107982452Y-126214000D01*
X106933225Y-126214000D01*
X106919694Y-126217973D01*
X106918257Y-126227966D01*
X104558143Y-126227966D01*
X104530942Y-126057602D01*
X104529587Y-126045196D01*
X104524234Y-125954908D01*
X104510518Y-125723556D01*
X104511617Y-125697916D01*
X104511927Y-125695790D01*
X104513223Y-125686904D01*
X104511973Y-125678010D01*
X104509227Y-125658484D01*
X104508000Y-125640940D01*
X104508000Y-77948304D01*
X104509004Y-77932428D01*
X104512028Y-77908620D01*
X104513159Y-77899715D01*
X104510130Y-77880722D01*
X104508588Y-77858081D01*
X104515879Y-77529627D01*
X104516797Y-77516986D01*
X104530310Y-77407522D01*
X104560626Y-77161954D01*
X104562809Y-77149474D01*
X104569484Y-77120105D01*
X104615781Y-76916381D01*
X104642078Y-76800666D01*
X104645504Y-76788464D01*
X104759420Y-76449363D01*
X104764056Y-76437566D01*
X104911457Y-76111638D01*
X104917254Y-76100367D01*
X105096657Y-75790890D01*
X105103557Y-75780259D01*
X105313137Y-75490380D01*
X105321069Y-75480495D01*
X105558729Y-75213116D01*
X105567602Y-75204092D01*
X105603540Y-75171044D01*
X105830909Y-74961954D01*
X105840652Y-74953859D01*
X106126966Y-74739388D01*
X106137472Y-74732315D01*
X106443860Y-74547707D01*
X106455031Y-74541720D01*
X106558609Y-74492749D01*
X106778424Y-74388822D01*
X106790124Y-74383993D01*
X107127272Y-74264348D01*
X107139396Y-74260722D01*
X107486819Y-74175561D01*
X107499267Y-74173166D01*
X107853499Y-74123338D01*
X107866123Y-74122206D01*
X108036895Y-74115523D01*
X108187053Y-74109646D01*
X108212753Y-74111275D01*
X108223575Y-74113084D01*
X108232487Y-74112020D01*
X108258711Y-74108889D01*
X108273648Y-74108000D01*
X136366000Y-74108000D01*
X136434121Y-74128002D01*
G37*
G04 #@! TD.AperFunction*
G04 #@! TA.AperFunction,Conductor*
G36*
X109602338Y-119014678D02*
G01*
X109630166Y-119046511D01*
X109687694Y-119140388D01*
X109693777Y-119148699D01*
X109833213Y-119309667D01*
X109840580Y-119316883D01*
X110004434Y-119452916D01*
X110012881Y-119458831D01*
X110081969Y-119499203D01*
X110130693Y-119550842D01*
X110143764Y-119620625D01*
X110117033Y-119686396D01*
X110076584Y-119719752D01*
X110063607Y-119726507D01*
X110059474Y-119729610D01*
X110059471Y-119729612D01*
X109889100Y-119857530D01*
X109884965Y-119860635D01*
X109730629Y-120022138D01*
X109623201Y-120179621D01*
X109568293Y-120224621D01*
X109497768Y-120232792D01*
X109434021Y-120201538D01*
X109413324Y-120177054D01*
X109332822Y-120052617D01*
X109332820Y-120052614D01*
X109330014Y-120048277D01*
X109179670Y-119883051D01*
X109175619Y-119879852D01*
X109175615Y-119879848D01*
X109008414Y-119747800D01*
X109008410Y-119747798D01*
X109004359Y-119744598D01*
X108963053Y-119721796D01*
X108913084Y-119671364D01*
X108898312Y-119601921D01*
X108923428Y-119535516D01*
X108950780Y-119508909D01*
X109019000Y-119460248D01*
X109129860Y-119381173D01*
X109288096Y-119223489D01*
X109345240Y-119143965D01*
X109418453Y-119042077D01*
X109419640Y-119042930D01*
X109466960Y-118999362D01*
X109536897Y-118987145D01*
X109602338Y-119014678D01*
G37*
G04 #@! TD.AperFunction*
G04 #@! TA.AperFunction,Conductor*
G36*
X116483026Y-117798302D02*
G01*
X116504001Y-117815205D01*
X116953795Y-118265000D01*
X117346053Y-118657258D01*
X117353587Y-118665537D01*
X117357700Y-118672018D01*
X117385014Y-118697667D01*
X117407351Y-118718643D01*
X117410193Y-118721398D01*
X117429930Y-118741135D01*
X117433127Y-118743615D01*
X117442149Y-118751320D01*
X117470933Y-118778350D01*
X117506898Y-118839563D01*
X117504060Y-118910503D01*
X117463320Y-118968647D01*
X117397612Y-118995535D01*
X117384680Y-118996200D01*
X113294367Y-118996200D01*
X113283184Y-118995673D01*
X113275691Y-118993998D01*
X113267765Y-118994247D01*
X113267764Y-118994247D01*
X113207614Y-118996138D01*
X113203655Y-118996200D01*
X113175744Y-118996200D01*
X113171810Y-118996697D01*
X113171809Y-118996697D01*
X113171744Y-118996705D01*
X113159907Y-118997638D01*
X113128090Y-118998638D01*
X113123629Y-118998778D01*
X113115710Y-118999027D01*
X113098054Y-119004156D01*
X113096258Y-119004678D01*
X113076906Y-119008686D01*
X113069835Y-119009580D01*
X113056803Y-119011226D01*
X113049434Y-119014143D01*
X113049432Y-119014144D01*
X113015697Y-119027500D01*
X113004469Y-119031345D01*
X112962007Y-119043682D01*
X112955185Y-119047716D01*
X112955179Y-119047719D01*
X112944568Y-119053994D01*
X112926818Y-119062690D01*
X112915356Y-119067228D01*
X112915351Y-119067231D01*
X112907983Y-119070148D01*
X112890570Y-119082799D01*
X112872225Y-119096127D01*
X112862307Y-119102643D01*
X112844602Y-119113114D01*
X112824237Y-119125158D01*
X112809913Y-119139482D01*
X112794881Y-119152321D01*
X112778493Y-119164228D01*
X112769817Y-119174716D01*
X112750312Y-119198293D01*
X112742322Y-119207073D01*
X111978229Y-119971166D01*
X111915917Y-120005192D01*
X111845102Y-120000127D01*
X111795940Y-119966870D01*
X111723151Y-119886876D01*
X111723145Y-119886870D01*
X111719670Y-119883051D01*
X111715619Y-119879852D01*
X111715615Y-119879848D01*
X111548414Y-119747800D01*
X111548410Y-119747798D01*
X111544359Y-119744598D01*
X111502569Y-119721529D01*
X111452598Y-119671097D01*
X111437826Y-119601654D01*
X111462942Y-119535248D01*
X111490294Y-119508641D01*
X111665328Y-119383792D01*
X111673200Y-119377139D01*
X111824052Y-119226812D01*
X111830730Y-119218965D01*
X111955003Y-119046020D01*
X111960313Y-119037183D01*
X112054670Y-118846267D01*
X112058469Y-118836672D01*
X112120377Y-118632910D01*
X112122555Y-118622837D01*
X112123986Y-118611962D01*
X112121775Y-118597778D01*
X112108617Y-118594000D01*
X110662000Y-118594000D01*
X110593879Y-118573998D01*
X110547386Y-118520342D01*
X110536000Y-118468000D01*
X110536000Y-118212000D01*
X110556002Y-118143879D01*
X110609658Y-118097386D01*
X110662000Y-118086000D01*
X112108344Y-118086000D01*
X112121875Y-118082027D01*
X112123180Y-118072947D01*
X112088529Y-117934996D01*
X112091333Y-117864055D01*
X112132046Y-117805891D01*
X112197741Y-117778972D01*
X112210733Y-117778300D01*
X116414905Y-117778300D01*
X116483026Y-117798302D01*
G37*
G04 #@! TD.AperFunction*
G04 #@! TA.AperFunction,Conductor*
G36*
X116483026Y-112718302D02*
G01*
X116504001Y-112735205D01*
X116953795Y-113185000D01*
X117346053Y-113577258D01*
X117353587Y-113585537D01*
X117357700Y-113592018D01*
X117385014Y-113617667D01*
X117407351Y-113638643D01*
X117410193Y-113641398D01*
X117429930Y-113661135D01*
X117433127Y-113663615D01*
X117442147Y-113671318D01*
X117474379Y-113701586D01*
X117481325Y-113705405D01*
X117481328Y-113705407D01*
X117492134Y-113711348D01*
X117508653Y-113722199D01*
X117524659Y-113734614D01*
X117531928Y-113737759D01*
X117531932Y-113737762D01*
X117565237Y-113752174D01*
X117575887Y-113757391D01*
X117614640Y-113778695D01*
X117622315Y-113780666D01*
X117622316Y-113780666D01*
X117634262Y-113783733D01*
X117652967Y-113790137D01*
X117671555Y-113798181D01*
X117679378Y-113799420D01*
X117679388Y-113799423D01*
X117715224Y-113805099D01*
X117726844Y-113807505D01*
X117761985Y-113816527D01*
X117764336Y-113817130D01*
X117764337Y-113817131D01*
X117769669Y-113818500D01*
X117769448Y-113819360D01*
X117828425Y-113845077D01*
X117854996Y-113875873D01*
X117922287Y-113985683D01*
X117922291Y-113985688D01*
X117924987Y-113990088D01*
X118071250Y-114158938D01*
X118243126Y-114301632D01*
X118313595Y-114342811D01*
X118316445Y-114344476D01*
X118365169Y-114396114D01*
X118378240Y-114465897D01*
X118351509Y-114531669D01*
X118311055Y-114565027D01*
X118298607Y-114571507D01*
X118294474Y-114574610D01*
X118294471Y-114574612D01*
X118124100Y-114702530D01*
X118119965Y-114705635D01*
X117965629Y-114867138D01*
X117839743Y-115051680D01*
X117745688Y-115254305D01*
X117685989Y-115469570D01*
X117662251Y-115691695D01*
X117662548Y-115696848D01*
X117662548Y-115696851D01*
X117668011Y-115791590D01*
X117675110Y-115914715D01*
X117676247Y-115919761D01*
X117676248Y-115919767D01*
X117692012Y-115989715D01*
X117724222Y-116132639D01*
X117762461Y-116226811D01*
X117790904Y-116296857D01*
X117808266Y-116339616D01*
X117851292Y-116409829D01*
X117922291Y-116525688D01*
X117924987Y-116530088D01*
X118071250Y-116698938D01*
X118243126Y-116841632D01*
X118313595Y-116882811D01*
X118316445Y-116884476D01*
X118365169Y-116936114D01*
X118378240Y-117005897D01*
X118351509Y-117071669D01*
X118311055Y-117105027D01*
X118298607Y-117111507D01*
X118294474Y-117114610D01*
X118294471Y-117114612D01*
X118174621Y-117204598D01*
X118119965Y-117245635D01*
X118016617Y-117353782D01*
X117955095Y-117389211D01*
X117884183Y-117385754D01*
X117836429Y-117355825D01*
X117577243Y-117096638D01*
X117233147Y-116752542D01*
X117225613Y-116744263D01*
X117221500Y-116737782D01*
X117171848Y-116691156D01*
X117169007Y-116688402D01*
X117149270Y-116668665D01*
X117146073Y-116666185D01*
X117137051Y-116658480D01*
X117110600Y-116633641D01*
X117104821Y-116628214D01*
X117097875Y-116624395D01*
X117097872Y-116624393D01*
X117087066Y-116618452D01*
X117070547Y-116607601D01*
X117066281Y-116604292D01*
X117054541Y-116595186D01*
X117047272Y-116592041D01*
X117047268Y-116592038D01*
X117013963Y-116577626D01*
X117003313Y-116572409D01*
X116964560Y-116551105D01*
X116944937Y-116546067D01*
X116926234Y-116539663D01*
X116914920Y-116534767D01*
X116914919Y-116534767D01*
X116907645Y-116531619D01*
X116899822Y-116530380D01*
X116899812Y-116530377D01*
X116863976Y-116524701D01*
X116852356Y-116522295D01*
X116817211Y-116513272D01*
X116817210Y-116513272D01*
X116809530Y-116511300D01*
X116789276Y-116511300D01*
X116769565Y-116509749D01*
X116757386Y-116507820D01*
X116749557Y-116506580D01*
X116741665Y-116507326D01*
X116705539Y-116510741D01*
X116693681Y-116511300D01*
X112156716Y-116511300D01*
X112088595Y-116491298D01*
X112042102Y-116437642D01*
X112031998Y-116367368D01*
X112043758Y-116329474D01*
X112055138Y-116306448D01*
X112057430Y-116301811D01*
X112089900Y-116194940D01*
X112120865Y-116093023D01*
X112120865Y-116093021D01*
X112122370Y-116088069D01*
X112151529Y-115866590D01*
X112153156Y-115800000D01*
X112134852Y-115577361D01*
X112080431Y-115360702D01*
X111991354Y-115155840D01*
X111942834Y-115080840D01*
X111872822Y-114972617D01*
X111872820Y-114972614D01*
X111870014Y-114968277D01*
X111719670Y-114803051D01*
X111715619Y-114799852D01*
X111715615Y-114799848D01*
X111548414Y-114667800D01*
X111548410Y-114667798D01*
X111544359Y-114664598D01*
X111502569Y-114641529D01*
X111452598Y-114591097D01*
X111437826Y-114521654D01*
X111462942Y-114455248D01*
X111490294Y-114428641D01*
X111665328Y-114303792D01*
X111673200Y-114297139D01*
X111824052Y-114146812D01*
X111830730Y-114138965D01*
X111955003Y-113966020D01*
X111960313Y-113957183D01*
X112054670Y-113766267D01*
X112058469Y-113756672D01*
X112120377Y-113552910D01*
X112122555Y-113542837D01*
X112123986Y-113531962D01*
X112121775Y-113517778D01*
X112108617Y-113514000D01*
X110662000Y-113514000D01*
X110593879Y-113493998D01*
X110547386Y-113440342D01*
X110536000Y-113388000D01*
X110536000Y-113132000D01*
X110556002Y-113063879D01*
X110609658Y-113017386D01*
X110662000Y-113006000D01*
X112108344Y-113006000D01*
X112121875Y-113002027D01*
X112123180Y-112992947D01*
X112088529Y-112854996D01*
X112091333Y-112784055D01*
X112132046Y-112725891D01*
X112197741Y-112698972D01*
X112210733Y-112698300D01*
X116414905Y-112698300D01*
X116483026Y-112718302D01*
G37*
G04 #@! TD.AperFunction*
G04 #@! TA.AperFunction,Conductor*
G36*
X117668349Y-107583202D02*
G01*
X117714842Y-107636858D01*
X117724946Y-107707132D01*
X117721645Y-107722872D01*
X117689389Y-107839183D01*
X117690912Y-107847607D01*
X117703292Y-107851000D01*
X119153000Y-107851000D01*
X119221121Y-107871002D01*
X119267614Y-107924658D01*
X119279000Y-107977000D01*
X119279000Y-108233000D01*
X119258998Y-108301121D01*
X119205342Y-108347614D01*
X119153000Y-108359000D01*
X117708225Y-108359000D01*
X117694694Y-108362973D01*
X117693257Y-108372966D01*
X117723565Y-108507446D01*
X117726645Y-108517275D01*
X117806770Y-108714603D01*
X117811413Y-108723794D01*
X117922694Y-108905388D01*
X117928777Y-108913699D01*
X118068213Y-109074667D01*
X118075580Y-109081883D01*
X118239434Y-109217916D01*
X118247881Y-109223831D01*
X118316969Y-109264203D01*
X118365693Y-109315842D01*
X118378764Y-109385625D01*
X118352033Y-109451396D01*
X118311584Y-109484752D01*
X118298607Y-109491507D01*
X118294474Y-109494610D01*
X118294471Y-109494612D01*
X118127270Y-109620150D01*
X118119965Y-109625635D01*
X118079262Y-109668228D01*
X118046286Y-109702736D01*
X117965629Y-109787138D01*
X117962720Y-109791403D01*
X117962714Y-109791411D01*
X117911558Y-109866403D01*
X117839743Y-109971680D01*
X117745688Y-110174305D01*
X117685989Y-110389570D01*
X117662251Y-110611695D01*
X117662548Y-110616848D01*
X117662548Y-110616851D01*
X117668011Y-110711590D01*
X117675110Y-110834715D01*
X117676247Y-110839761D01*
X117676248Y-110839767D01*
X117692012Y-110909715D01*
X117724222Y-111052639D01*
X117762461Y-111146811D01*
X117790904Y-111216857D01*
X117808266Y-111259616D01*
X117851292Y-111329829D01*
X117922291Y-111445688D01*
X117924987Y-111450088D01*
X118071250Y-111618938D01*
X118243126Y-111761632D01*
X118313595Y-111802811D01*
X118316445Y-111804476D01*
X118365169Y-111856114D01*
X118378240Y-111925897D01*
X118351509Y-111991669D01*
X118311055Y-112025027D01*
X118298607Y-112031507D01*
X118294474Y-112034610D01*
X118294471Y-112034612D01*
X118174621Y-112124598D01*
X118119965Y-112165635D01*
X118016617Y-112273782D01*
X117955095Y-112309211D01*
X117884183Y-112305754D01*
X117836429Y-112275825D01*
X117577243Y-112016638D01*
X117233147Y-111672542D01*
X117225613Y-111664263D01*
X117221500Y-111657782D01*
X117171848Y-111611156D01*
X117169007Y-111608402D01*
X117149270Y-111588665D01*
X117146073Y-111586185D01*
X117137051Y-111578480D01*
X117110600Y-111553641D01*
X117104821Y-111548214D01*
X117097875Y-111544395D01*
X117097872Y-111544393D01*
X117087066Y-111538452D01*
X117070547Y-111527601D01*
X117066281Y-111524292D01*
X117054541Y-111515186D01*
X117047272Y-111512041D01*
X117047268Y-111512038D01*
X117013963Y-111497626D01*
X117003313Y-111492409D01*
X116964560Y-111471105D01*
X116944937Y-111466067D01*
X116926234Y-111459663D01*
X116914920Y-111454767D01*
X116914919Y-111454767D01*
X116907645Y-111451619D01*
X116899822Y-111450380D01*
X116899812Y-111450377D01*
X116863976Y-111444701D01*
X116852356Y-111442295D01*
X116817211Y-111433272D01*
X116817210Y-111433272D01*
X116809530Y-111431300D01*
X116789276Y-111431300D01*
X116769565Y-111429749D01*
X116757386Y-111427820D01*
X116749557Y-111426580D01*
X116741665Y-111427326D01*
X116705539Y-111430741D01*
X116693681Y-111431300D01*
X112156716Y-111431300D01*
X112088595Y-111411298D01*
X112042102Y-111357642D01*
X112031998Y-111287368D01*
X112043758Y-111249474D01*
X112055138Y-111226448D01*
X112057430Y-111221811D01*
X112089900Y-111114940D01*
X112120865Y-111013023D01*
X112120865Y-111013021D01*
X112122370Y-111008069D01*
X112151529Y-110786590D01*
X112153156Y-110720000D01*
X112134852Y-110497361D01*
X112080431Y-110280702D01*
X111991354Y-110075840D01*
X111942834Y-110000840D01*
X111872822Y-109892617D01*
X111872820Y-109892614D01*
X111870014Y-109888277D01*
X111719670Y-109723051D01*
X111715619Y-109719852D01*
X111715615Y-109719848D01*
X111548414Y-109587800D01*
X111548410Y-109587798D01*
X111544359Y-109584598D01*
X111503053Y-109561796D01*
X111453084Y-109511364D01*
X111438312Y-109441921D01*
X111463428Y-109375516D01*
X111490780Y-109348909D01*
X111537138Y-109315842D01*
X111669860Y-109221173D01*
X111719575Y-109171632D01*
X111792669Y-109098792D01*
X111828096Y-109063489D01*
X111885005Y-108984292D01*
X111955435Y-108886277D01*
X111958453Y-108882077D01*
X111960746Y-108877438D01*
X111963405Y-108873012D01*
X111965108Y-108874035D01*
X112007420Y-108828097D01*
X112052584Y-108811663D01*
X112057262Y-108810922D01*
X112065189Y-108810673D01*
X112084643Y-108805021D01*
X112104000Y-108801013D01*
X112116230Y-108799468D01*
X112116231Y-108799468D01*
X112124097Y-108798474D01*
X112131468Y-108795555D01*
X112131470Y-108795555D01*
X112165212Y-108782196D01*
X112176442Y-108778351D01*
X112211283Y-108768229D01*
X112211284Y-108768229D01*
X112218893Y-108766018D01*
X112225712Y-108761985D01*
X112225717Y-108761983D01*
X112236328Y-108755707D01*
X112254076Y-108747012D01*
X112272917Y-108739552D01*
X112308687Y-108713564D01*
X112318607Y-108707048D01*
X112349835Y-108688580D01*
X112349838Y-108688578D01*
X112356662Y-108684542D01*
X112370983Y-108670221D01*
X112386017Y-108657380D01*
X112395994Y-108650131D01*
X112402407Y-108645472D01*
X112430598Y-108611395D01*
X112438588Y-108602616D01*
X113441099Y-107600105D01*
X113503411Y-107566079D01*
X113530194Y-107563200D01*
X117600228Y-107563200D01*
X117668349Y-107583202D01*
G37*
G04 #@! TD.AperFunction*
G04 #@! TA.AperFunction,Conductor*
G36*
X135626327Y-99713502D02*
G01*
X135647301Y-99730405D01*
X136744143Y-100827247D01*
X136751687Y-100835537D01*
X136755800Y-100842018D01*
X136761577Y-100847443D01*
X136805467Y-100888658D01*
X136808309Y-100891413D01*
X136828031Y-100911135D01*
X136831155Y-100913558D01*
X136831159Y-100913562D01*
X136831224Y-100913612D01*
X136840245Y-100921317D01*
X136872479Y-100951586D01*
X136879427Y-100955405D01*
X136879429Y-100955407D01*
X136890232Y-100961346D01*
X136906759Y-100972202D01*
X136916498Y-100979757D01*
X136916500Y-100979758D01*
X136922760Y-100984614D01*
X136963340Y-101002174D01*
X136973988Y-101007391D01*
X137000924Y-101022199D01*
X137012740Y-101028695D01*
X137020416Y-101030666D01*
X137020419Y-101030667D01*
X137032362Y-101033733D01*
X137051067Y-101040137D01*
X137069655Y-101048181D01*
X137077478Y-101049420D01*
X137077488Y-101049423D01*
X137113324Y-101055099D01*
X137124944Y-101057505D01*
X137160089Y-101066528D01*
X137167770Y-101068500D01*
X137188024Y-101068500D01*
X137207734Y-101070051D01*
X137227743Y-101073220D01*
X137235635Y-101072474D01*
X137271761Y-101069059D01*
X137283619Y-101068500D01*
X137784274Y-101068500D01*
X137852395Y-101088502D01*
X137891707Y-101128665D01*
X137939800Y-101207145D01*
X137959987Y-101240088D01*
X137963368Y-101243991D01*
X138012233Y-101300403D01*
X138041715Y-101364989D01*
X138031600Y-101435261D01*
X138006090Y-101471995D01*
X136008490Y-103469595D01*
X135946178Y-103503621D01*
X135919395Y-103506500D01*
X124169895Y-103506500D01*
X124101774Y-103486498D01*
X124080799Y-103469595D01*
X123672767Y-103061562D01*
X123243947Y-102632742D01*
X123236413Y-102624463D01*
X123232300Y-102617982D01*
X123182648Y-102571356D01*
X123179807Y-102568602D01*
X123160070Y-102548865D01*
X123156873Y-102546385D01*
X123147851Y-102538680D01*
X123115621Y-102508414D01*
X123108675Y-102504595D01*
X123108672Y-102504593D01*
X123097866Y-102498652D01*
X123081347Y-102487801D01*
X123080883Y-102487441D01*
X123065341Y-102475386D01*
X123058072Y-102472241D01*
X123058068Y-102472238D01*
X123024763Y-102457826D01*
X123014113Y-102452609D01*
X122975360Y-102431305D01*
X122955737Y-102426267D01*
X122937034Y-102419863D01*
X122925720Y-102414967D01*
X122925719Y-102414967D01*
X122918445Y-102411819D01*
X122910622Y-102410580D01*
X122910612Y-102410577D01*
X122874776Y-102404901D01*
X122863156Y-102402495D01*
X122828012Y-102393472D01*
X122828009Y-102393472D01*
X122824702Y-102392622D01*
X122820331Y-102391500D01*
X122820643Y-102390285D01*
X122762848Y-102365079D01*
X122737924Y-102336894D01*
X122647822Y-102197617D01*
X122647820Y-102197614D01*
X122645014Y-102193277D01*
X122494670Y-102028051D01*
X122490619Y-102024852D01*
X122490615Y-102024848D01*
X122323414Y-101892800D01*
X122323410Y-101892798D01*
X122319359Y-101889598D01*
X122277569Y-101866529D01*
X122227598Y-101816097D01*
X122212826Y-101746654D01*
X122237942Y-101680248D01*
X122265294Y-101653641D01*
X122440328Y-101528792D01*
X122448200Y-101522139D01*
X122599052Y-101371812D01*
X122605730Y-101363965D01*
X122730003Y-101191020D01*
X122735313Y-101182183D01*
X122829670Y-100991267D01*
X122833469Y-100981672D01*
X122895377Y-100777910D01*
X122897555Y-100767837D01*
X122898986Y-100756962D01*
X122896775Y-100742778D01*
X122883617Y-100739000D01*
X121437000Y-100739000D01*
X121368879Y-100718998D01*
X121322386Y-100665342D01*
X121311000Y-100613000D01*
X121311000Y-100357000D01*
X121331002Y-100288879D01*
X121384658Y-100242386D01*
X121437000Y-100231000D01*
X122883344Y-100231000D01*
X122896875Y-100227027D01*
X122898180Y-100217947D01*
X122856214Y-100050875D01*
X122852894Y-100041124D01*
X122778376Y-99869742D01*
X122769556Y-99799295D01*
X122800223Y-99735264D01*
X122860640Y-99697976D01*
X122893926Y-99693500D01*
X135558206Y-99693500D01*
X135626327Y-99713502D01*
G37*
G04 #@! TD.AperFunction*
G04 #@! TA.AperFunction,Conductor*
G36*
X116483026Y-100018302D02*
G01*
X116504001Y-100035205D01*
X116953795Y-100485000D01*
X117346053Y-100877258D01*
X117353587Y-100885537D01*
X117357700Y-100892018D01*
X117384571Y-100917251D01*
X117407351Y-100938643D01*
X117410193Y-100941398D01*
X117429930Y-100961135D01*
X117433127Y-100963615D01*
X117442147Y-100971318D01*
X117474379Y-101001586D01*
X117481325Y-101005405D01*
X117481328Y-101005407D01*
X117492134Y-101011348D01*
X117508653Y-101022199D01*
X117524659Y-101034614D01*
X117531928Y-101037759D01*
X117531932Y-101037762D01*
X117565237Y-101052174D01*
X117575887Y-101057391D01*
X117614640Y-101078695D01*
X117622315Y-101080666D01*
X117622316Y-101080666D01*
X117634262Y-101083733D01*
X117652966Y-101090137D01*
X117662730Y-101094362D01*
X117671555Y-101098181D01*
X117679378Y-101099420D01*
X117679388Y-101099423D01*
X117715224Y-101105099D01*
X117726844Y-101107505D01*
X117761985Y-101116527D01*
X117764336Y-101117130D01*
X117764337Y-101117131D01*
X117769669Y-101118500D01*
X117769448Y-101119360D01*
X117828425Y-101145077D01*
X117854996Y-101175873D01*
X117922287Y-101285683D01*
X117922291Y-101285688D01*
X117924987Y-101290088D01*
X118071250Y-101458938D01*
X118243126Y-101601632D01*
X118292097Y-101630248D01*
X118316445Y-101644476D01*
X118365169Y-101696114D01*
X118378240Y-101765897D01*
X118351509Y-101831669D01*
X118311055Y-101865027D01*
X118298607Y-101871507D01*
X118294474Y-101874610D01*
X118294471Y-101874612D01*
X118174621Y-101964598D01*
X118119965Y-102005635D01*
X118016617Y-102113782D01*
X117955095Y-102149211D01*
X117884183Y-102145754D01*
X117836429Y-102115825D01*
X117577243Y-101856638D01*
X117233147Y-101512542D01*
X117225613Y-101504263D01*
X117221500Y-101497782D01*
X117171848Y-101451156D01*
X117169007Y-101448402D01*
X117149270Y-101428665D01*
X117146073Y-101426185D01*
X117137051Y-101418480D01*
X117119492Y-101401991D01*
X117104821Y-101388214D01*
X117097875Y-101384395D01*
X117097872Y-101384393D01*
X117087066Y-101378452D01*
X117070547Y-101367601D01*
X117065859Y-101363965D01*
X117054541Y-101355186D01*
X117047272Y-101352041D01*
X117047268Y-101352038D01*
X117013963Y-101337626D01*
X117003313Y-101332409D01*
X116964560Y-101311105D01*
X116944937Y-101306067D01*
X116926234Y-101299663D01*
X116914920Y-101294767D01*
X116914919Y-101294767D01*
X116907645Y-101291619D01*
X116899822Y-101290380D01*
X116899812Y-101290377D01*
X116863976Y-101284701D01*
X116852356Y-101282295D01*
X116817211Y-101273272D01*
X116817210Y-101273272D01*
X116809530Y-101271300D01*
X116789276Y-101271300D01*
X116769565Y-101269749D01*
X116757386Y-101267820D01*
X116749557Y-101266580D01*
X116741665Y-101267326D01*
X116705539Y-101270741D01*
X116693681Y-101271300D01*
X112156158Y-101271300D01*
X112088037Y-101251298D01*
X112041544Y-101197642D01*
X112031440Y-101127368D01*
X112043201Y-101089473D01*
X112054670Y-101066267D01*
X112058469Y-101056672D01*
X112120377Y-100852910D01*
X112122555Y-100842837D01*
X112123986Y-100831962D01*
X112121775Y-100817778D01*
X112108617Y-100814000D01*
X110662000Y-100814000D01*
X110593879Y-100793998D01*
X110547386Y-100740342D01*
X110536000Y-100688000D01*
X110536000Y-100432000D01*
X110556002Y-100363879D01*
X110609658Y-100317386D01*
X110662000Y-100306000D01*
X112108344Y-100306000D01*
X112121875Y-100302027D01*
X112123180Y-100292947D01*
X112088529Y-100154996D01*
X112091333Y-100084055D01*
X112132046Y-100025891D01*
X112197741Y-99998972D01*
X112210733Y-99998300D01*
X116414905Y-99998300D01*
X116483026Y-100018302D01*
G37*
G04 #@! TD.AperFunction*
G04 #@! TA.AperFunction,Conductor*
G36*
X135689829Y-90252722D02*
G01*
X135710803Y-90269625D01*
X137282936Y-91841758D01*
X137290480Y-91850048D01*
X137294593Y-91856529D01*
X137300370Y-91861954D01*
X137344260Y-91903169D01*
X137347102Y-91905924D01*
X137366824Y-91925646D01*
X137369948Y-91928069D01*
X137369952Y-91928073D01*
X137370017Y-91928123D01*
X137379038Y-91935828D01*
X137411272Y-91966097D01*
X137418220Y-91969916D01*
X137418222Y-91969918D01*
X137429025Y-91975857D01*
X137445552Y-91986713D01*
X137455291Y-91994268D01*
X137455293Y-91994269D01*
X137461553Y-91999125D01*
X137502133Y-92016685D01*
X137512781Y-92021902D01*
X137541929Y-92037926D01*
X137551533Y-92043206D01*
X137559209Y-92045177D01*
X137559212Y-92045178D01*
X137571155Y-92048244D01*
X137589860Y-92054648D01*
X137608448Y-92062692D01*
X137616271Y-92063931D01*
X137616281Y-92063934D01*
X137652117Y-92069610D01*
X137663737Y-92072016D01*
X137698881Y-92081039D01*
X137698884Y-92081039D01*
X137706563Y-92083011D01*
X137714492Y-92083011D01*
X137720477Y-92083767D01*
X137785554Y-92112149D01*
X137824956Y-92171208D01*
X137826173Y-92242194D01*
X137818974Y-92261824D01*
X137780688Y-92344305D01*
X137720989Y-92559570D01*
X137697251Y-92781695D01*
X137697548Y-92786848D01*
X137697548Y-92786851D01*
X137705231Y-92920091D01*
X137710110Y-93004715D01*
X137711247Y-93009761D01*
X137711248Y-93009767D01*
X137724372Y-93068000D01*
X137758342Y-93218734D01*
X137758342Y-93218735D01*
X137759222Y-93222639D01*
X137758416Y-93222821D01*
X137759616Y-93289382D01*
X137727195Y-93345164D01*
X134480844Y-96591515D01*
X134418532Y-96625541D01*
X134391749Y-96628420D01*
X125397524Y-96628420D01*
X125329403Y-96608418D01*
X125308429Y-96591515D01*
X122620857Y-93903942D01*
X122586831Y-93841630D01*
X122591896Y-93770814D01*
X122607629Y-93741321D01*
X122730009Y-93571011D01*
X122735313Y-93562183D01*
X122829670Y-93371267D01*
X122833469Y-93361672D01*
X122895377Y-93157910D01*
X122897555Y-93147837D01*
X122898986Y-93136962D01*
X122896775Y-93122778D01*
X122883617Y-93119000D01*
X121437000Y-93119000D01*
X121368879Y-93098998D01*
X121322386Y-93045342D01*
X121311000Y-92993000D01*
X121311000Y-92737000D01*
X121331002Y-92668879D01*
X121384658Y-92622386D01*
X121437000Y-92611000D01*
X122883344Y-92611000D01*
X122896875Y-92607027D01*
X122898180Y-92597947D01*
X122856214Y-92430875D01*
X122852894Y-92421124D01*
X122767972Y-92225814D01*
X122763105Y-92216739D01*
X122647426Y-92037926D01*
X122641136Y-92029757D01*
X122497806Y-91872240D01*
X122490273Y-91865215D01*
X122323139Y-91733222D01*
X122314556Y-91727520D01*
X122277602Y-91707120D01*
X122227631Y-91656687D01*
X122212859Y-91587245D01*
X122237975Y-91520839D01*
X122265327Y-91494232D01*
X122333092Y-91445896D01*
X122444860Y-91366173D01*
X122467348Y-91343764D01*
X122532045Y-91279292D01*
X122603096Y-91208489D01*
X122639025Y-91158489D01*
X122730435Y-91031277D01*
X122733453Y-91027077D01*
X122738991Y-91015873D01*
X122830136Y-90831453D01*
X122830137Y-90831451D01*
X122832430Y-90826811D01*
X122897370Y-90613069D01*
X122926529Y-90391590D01*
X122927407Y-90355642D01*
X122949066Y-90288031D01*
X123003841Y-90242863D01*
X123053369Y-90232720D01*
X135621708Y-90232720D01*
X135689829Y-90252722D01*
G37*
G04 #@! TD.AperFunction*
G04 #@! TA.AperFunction,Conductor*
G36*
X116483026Y-92398302D02*
G01*
X116504001Y-92415205D01*
X116953795Y-92865000D01*
X117346053Y-93257258D01*
X117353587Y-93265537D01*
X117357700Y-93272018D01*
X117376191Y-93289382D01*
X117407351Y-93318643D01*
X117410193Y-93321398D01*
X117429930Y-93341135D01*
X117433127Y-93343615D01*
X117442147Y-93351318D01*
X117474379Y-93381586D01*
X117481325Y-93385405D01*
X117481328Y-93385407D01*
X117492134Y-93391348D01*
X117508653Y-93402199D01*
X117524659Y-93414614D01*
X117531928Y-93417759D01*
X117531932Y-93417762D01*
X117565237Y-93432174D01*
X117575887Y-93437391D01*
X117614640Y-93458695D01*
X117622315Y-93460666D01*
X117622316Y-93460666D01*
X117634262Y-93463733D01*
X117652967Y-93470137D01*
X117671555Y-93478181D01*
X117679378Y-93479420D01*
X117679388Y-93479423D01*
X117715224Y-93485099D01*
X117726844Y-93487505D01*
X117761985Y-93496527D01*
X117764336Y-93497130D01*
X117764337Y-93497131D01*
X117769669Y-93498500D01*
X117769448Y-93499360D01*
X117828425Y-93525077D01*
X117854996Y-93555873D01*
X117922287Y-93665683D01*
X117922291Y-93665688D01*
X117924987Y-93670088D01*
X118071250Y-93838938D01*
X118243126Y-93981632D01*
X118292097Y-94010248D01*
X118316445Y-94024476D01*
X118365169Y-94076114D01*
X118378240Y-94145897D01*
X118351509Y-94211669D01*
X118311055Y-94245027D01*
X118298607Y-94251507D01*
X118294474Y-94254610D01*
X118294471Y-94254612D01*
X118174621Y-94344598D01*
X118119965Y-94385635D01*
X118016617Y-94493782D01*
X117955095Y-94529211D01*
X117884183Y-94525754D01*
X117836429Y-94495825D01*
X117577243Y-94236638D01*
X117233147Y-93892542D01*
X117225613Y-93884263D01*
X117221500Y-93877782D01*
X117171848Y-93831156D01*
X117169007Y-93828402D01*
X117149270Y-93808665D01*
X117146073Y-93806185D01*
X117137051Y-93798480D01*
X117104821Y-93768214D01*
X117097875Y-93764395D01*
X117097872Y-93764393D01*
X117087066Y-93758452D01*
X117070547Y-93747601D01*
X117067307Y-93745088D01*
X117054541Y-93735186D01*
X117047272Y-93732041D01*
X117047268Y-93732038D01*
X117013963Y-93717626D01*
X117003313Y-93712409D01*
X116964560Y-93691105D01*
X116944937Y-93686067D01*
X116926234Y-93679663D01*
X116914920Y-93674767D01*
X116914919Y-93674767D01*
X116907645Y-93671619D01*
X116899822Y-93670380D01*
X116899812Y-93670377D01*
X116863976Y-93664701D01*
X116852356Y-93662295D01*
X116817211Y-93653272D01*
X116817210Y-93653272D01*
X116809530Y-93651300D01*
X116789276Y-93651300D01*
X116769565Y-93649749D01*
X116757386Y-93647820D01*
X116749557Y-93646580D01*
X116741665Y-93647326D01*
X116705539Y-93650741D01*
X116693681Y-93651300D01*
X112156158Y-93651300D01*
X112088037Y-93631298D01*
X112041544Y-93577642D01*
X112031440Y-93507368D01*
X112043201Y-93469473D01*
X112054670Y-93446267D01*
X112058469Y-93436672D01*
X112120377Y-93232910D01*
X112122555Y-93222837D01*
X112123986Y-93211962D01*
X112121775Y-93197778D01*
X112108617Y-93194000D01*
X110662000Y-93194000D01*
X110593879Y-93173998D01*
X110547386Y-93120342D01*
X110536000Y-93068000D01*
X110536000Y-92812000D01*
X110556002Y-92743879D01*
X110609658Y-92697386D01*
X110662000Y-92686000D01*
X112108344Y-92686000D01*
X112121875Y-92682027D01*
X112123180Y-92672947D01*
X112088529Y-92534996D01*
X112091333Y-92464055D01*
X112132046Y-92405891D01*
X112197741Y-92378972D01*
X112210733Y-92378300D01*
X116414905Y-92378300D01*
X116483026Y-92398302D01*
G37*
G04 #@! TD.AperFunction*
G04 #@! TA.AperFunction,Conductor*
G36*
X117668349Y-87263202D02*
G01*
X117714842Y-87316858D01*
X117724946Y-87387132D01*
X117721645Y-87402872D01*
X117689389Y-87519183D01*
X117690912Y-87527607D01*
X117703292Y-87531000D01*
X119153000Y-87531000D01*
X119221121Y-87551002D01*
X119267614Y-87604658D01*
X119279000Y-87657000D01*
X119279000Y-87913000D01*
X119258998Y-87981121D01*
X119205342Y-88027614D01*
X119153000Y-88039000D01*
X117708225Y-88039000D01*
X117694694Y-88042973D01*
X117693257Y-88052966D01*
X117723565Y-88187446D01*
X117726645Y-88197275D01*
X117806770Y-88394603D01*
X117811413Y-88403794D01*
X117922694Y-88585388D01*
X117928777Y-88593699D01*
X118068213Y-88754667D01*
X118075580Y-88761883D01*
X118239434Y-88897916D01*
X118247881Y-88903831D01*
X118316969Y-88944203D01*
X118365693Y-88995842D01*
X118378764Y-89065625D01*
X118352033Y-89131396D01*
X118311584Y-89164752D01*
X118298607Y-89171507D01*
X118294474Y-89174610D01*
X118294471Y-89174612D01*
X118174621Y-89264598D01*
X118119965Y-89305635D01*
X118016617Y-89413782D01*
X117955095Y-89449211D01*
X117884183Y-89445754D01*
X117836429Y-89415825D01*
X117577243Y-89156638D01*
X117233147Y-88812542D01*
X117225613Y-88804263D01*
X117221500Y-88797782D01*
X117171848Y-88751156D01*
X117169007Y-88748402D01*
X117149270Y-88728665D01*
X117146073Y-88726185D01*
X117137051Y-88718480D01*
X117110600Y-88693641D01*
X117104821Y-88688214D01*
X117097875Y-88684395D01*
X117097872Y-88684393D01*
X117087066Y-88678452D01*
X117070547Y-88667601D01*
X117061633Y-88660687D01*
X117054541Y-88655186D01*
X117047272Y-88652041D01*
X117047268Y-88652038D01*
X117013963Y-88637626D01*
X117003313Y-88632409D01*
X116964560Y-88611105D01*
X116944937Y-88606067D01*
X116926234Y-88599663D01*
X116914920Y-88594767D01*
X116914919Y-88594767D01*
X116907645Y-88591619D01*
X116899822Y-88590380D01*
X116899812Y-88590377D01*
X116863976Y-88584701D01*
X116852356Y-88582295D01*
X116817211Y-88573272D01*
X116817210Y-88573272D01*
X116809530Y-88571300D01*
X116789276Y-88571300D01*
X116769565Y-88569749D01*
X116757386Y-88567820D01*
X116749557Y-88566580D01*
X116741665Y-88567326D01*
X116705539Y-88570741D01*
X116693681Y-88571300D01*
X112454094Y-88571300D01*
X112385973Y-88551298D01*
X112339480Y-88497642D01*
X112329376Y-88427368D01*
X112358870Y-88362788D01*
X112364999Y-88356205D01*
X112370983Y-88350221D01*
X112386017Y-88337380D01*
X112395994Y-88330131D01*
X112402407Y-88325472D01*
X112430598Y-88291395D01*
X112438588Y-88282616D01*
X113441099Y-87280105D01*
X113503411Y-87246079D01*
X113530194Y-87243200D01*
X117600228Y-87243200D01*
X117668349Y-87263202D01*
G37*
G04 #@! TD.AperFunction*
G04 #@! TA.AperFunction,Conductor*
G36*
X137852395Y-85848502D02*
G01*
X137891707Y-85888665D01*
X137959987Y-86000088D01*
X138106250Y-86168938D01*
X138278126Y-86311632D01*
X138298494Y-86323534D01*
X138351955Y-86354774D01*
X138400679Y-86406412D01*
X138413750Y-86476195D01*
X138387019Y-86541967D01*
X138346562Y-86575327D01*
X138338457Y-86579546D01*
X138329738Y-86585036D01*
X138159433Y-86712905D01*
X138151726Y-86719748D01*
X138004590Y-86873717D01*
X137998104Y-86881727D01*
X137878098Y-87057649D01*
X137873000Y-87066623D01*
X137783338Y-87259783D01*
X137779775Y-87269470D01*
X137724389Y-87469183D01*
X137725912Y-87477607D01*
X137738292Y-87481000D01*
X139188000Y-87481000D01*
X139256121Y-87501002D01*
X139302614Y-87554658D01*
X139314000Y-87607000D01*
X139314000Y-87863000D01*
X139293998Y-87931121D01*
X139240342Y-87977614D01*
X139188000Y-87989000D01*
X137743225Y-87989000D01*
X137729694Y-87992973D01*
X137728257Y-88002966D01*
X137758554Y-88137399D01*
X137754018Y-88208250D01*
X137711897Y-88265402D01*
X137645563Y-88290708D01*
X137635637Y-88291100D01*
X136848388Y-88291100D01*
X136780267Y-88271098D01*
X136762136Y-88256951D01*
X136751046Y-88246537D01*
X136748203Y-88243781D01*
X136728467Y-88224045D01*
X136725270Y-88221565D01*
X136716248Y-88213860D01*
X136689797Y-88189021D01*
X136684018Y-88183594D01*
X136677072Y-88179775D01*
X136677069Y-88179773D01*
X136666263Y-88173832D01*
X136649744Y-88162981D01*
X136649280Y-88162621D01*
X136633738Y-88150566D01*
X136626469Y-88147421D01*
X136626465Y-88147418D01*
X136593160Y-88133006D01*
X136582510Y-88127789D01*
X136543757Y-88106485D01*
X136524134Y-88101447D01*
X136505431Y-88095043D01*
X136494117Y-88090147D01*
X136494116Y-88090147D01*
X136486842Y-88086999D01*
X136479019Y-88085760D01*
X136479009Y-88085757D01*
X136443173Y-88080081D01*
X136431553Y-88077675D01*
X136396408Y-88068652D01*
X136396407Y-88068652D01*
X136388727Y-88066680D01*
X136368473Y-88066680D01*
X136348762Y-88065129D01*
X136336583Y-88063200D01*
X136328754Y-88061960D01*
X136320862Y-88062706D01*
X136284736Y-88066121D01*
X136272878Y-88066680D01*
X123041887Y-88066680D01*
X122973766Y-88046678D01*
X122927273Y-87993022D01*
X122916965Y-87924233D01*
X122926092Y-87854908D01*
X122926529Y-87851590D01*
X122928156Y-87785000D01*
X122909852Y-87562361D01*
X122855431Y-87345702D01*
X122804797Y-87229252D01*
X122795977Y-87158807D01*
X122826644Y-87094775D01*
X122887060Y-87057487D01*
X122920347Y-87053011D01*
X131093140Y-87053011D01*
X131104323Y-87053538D01*
X131111816Y-87055213D01*
X131119742Y-87054964D01*
X131119743Y-87054964D01*
X131179893Y-87053073D01*
X131183852Y-87053011D01*
X131211763Y-87053011D01*
X131215698Y-87052514D01*
X131215763Y-87052506D01*
X131227600Y-87051573D01*
X131259858Y-87050559D01*
X131263877Y-87050433D01*
X131271796Y-87050184D01*
X131291250Y-87044532D01*
X131310607Y-87040524D01*
X131322837Y-87038979D01*
X131322838Y-87038979D01*
X131330704Y-87037985D01*
X131338075Y-87035066D01*
X131338077Y-87035066D01*
X131371819Y-87021707D01*
X131383049Y-87017862D01*
X131417890Y-87007740D01*
X131417891Y-87007740D01*
X131425500Y-87005529D01*
X131432319Y-87001496D01*
X131432324Y-87001494D01*
X131442935Y-86995218D01*
X131460683Y-86986523D01*
X131479524Y-86979063D01*
X131515294Y-86953075D01*
X131525214Y-86946559D01*
X131556442Y-86928091D01*
X131556445Y-86928089D01*
X131563269Y-86924053D01*
X131577590Y-86909732D01*
X131592624Y-86896891D01*
X131602601Y-86889642D01*
X131609014Y-86884983D01*
X131637205Y-86850906D01*
X131645185Y-86842137D01*
X132621920Y-85865403D01*
X132684230Y-85831379D01*
X132711013Y-85828500D01*
X137784274Y-85828500D01*
X137852395Y-85848502D01*
G37*
G04 #@! TD.AperFunction*
G04 #@! TA.AperFunction,Conductor*
G36*
X116483026Y-82238302D02*
G01*
X116504001Y-82255205D01*
X116953795Y-82705000D01*
X117346053Y-83097258D01*
X117353587Y-83105537D01*
X117357700Y-83112018D01*
X117384571Y-83137251D01*
X117407351Y-83158643D01*
X117410193Y-83161398D01*
X117429930Y-83181135D01*
X117433127Y-83183615D01*
X117442147Y-83191318D01*
X117474379Y-83221586D01*
X117481325Y-83225405D01*
X117481328Y-83225407D01*
X117492134Y-83231348D01*
X117508653Y-83242199D01*
X117524659Y-83254614D01*
X117531928Y-83257759D01*
X117531932Y-83257762D01*
X117565237Y-83272174D01*
X117575887Y-83277391D01*
X117614640Y-83298695D01*
X117622315Y-83300666D01*
X117622316Y-83300666D01*
X117634262Y-83303733D01*
X117652967Y-83310137D01*
X117671555Y-83318181D01*
X117679378Y-83319420D01*
X117679388Y-83319423D01*
X117715224Y-83325099D01*
X117726844Y-83327505D01*
X117761985Y-83336527D01*
X117764336Y-83337130D01*
X117764337Y-83337131D01*
X117769669Y-83338500D01*
X117769448Y-83339360D01*
X117828425Y-83365077D01*
X117854996Y-83395873D01*
X117922287Y-83505683D01*
X117922291Y-83505688D01*
X117924987Y-83510088D01*
X118071250Y-83678938D01*
X118243126Y-83821632D01*
X118292097Y-83850248D01*
X118316445Y-83864476D01*
X118365169Y-83916114D01*
X118378240Y-83985897D01*
X118351509Y-84051669D01*
X118311055Y-84085027D01*
X118298607Y-84091507D01*
X118294474Y-84094610D01*
X118294471Y-84094612D01*
X118124100Y-84222530D01*
X118119965Y-84225635D01*
X117965629Y-84387138D01*
X117856035Y-84547797D01*
X117847905Y-84559715D01*
X117792994Y-84604717D01*
X117763531Y-84613158D01*
X117757729Y-84614077D01*
X117749811Y-84614326D01*
X117742203Y-84616536D01*
X117742199Y-84616537D01*
X117730352Y-84619979D01*
X117710993Y-84623988D01*
X117709683Y-84624154D01*
X117690903Y-84626526D01*
X117683537Y-84629442D01*
X117683531Y-84629444D01*
X117649798Y-84642800D01*
X117638568Y-84646645D01*
X117603717Y-84656770D01*
X117596107Y-84658981D01*
X117589284Y-84663016D01*
X117578666Y-84669295D01*
X117560913Y-84677992D01*
X117554352Y-84680590D01*
X117542083Y-84685448D01*
X117535668Y-84690109D01*
X117506312Y-84711437D01*
X117496395Y-84717951D01*
X117458338Y-84740458D01*
X117444017Y-84754779D01*
X117428984Y-84767619D01*
X117412593Y-84779528D01*
X117386216Y-84811413D01*
X117384412Y-84813593D01*
X117376422Y-84822374D01*
X116914199Y-85284596D01*
X116851887Y-85318621D01*
X116825104Y-85321500D01*
X112269345Y-85321500D01*
X112201224Y-85301498D01*
X112154731Y-85247842D01*
X112143769Y-85205824D01*
X112135276Y-85102522D01*
X112134852Y-85097361D01*
X112080431Y-84880702D01*
X111991354Y-84675840D01*
X111942834Y-84600840D01*
X111872822Y-84492617D01*
X111872820Y-84492614D01*
X111870014Y-84488277D01*
X111719670Y-84323051D01*
X111715619Y-84319852D01*
X111715615Y-84319848D01*
X111548414Y-84187800D01*
X111548410Y-84187798D01*
X111544359Y-84184598D01*
X111502569Y-84161529D01*
X111452598Y-84111097D01*
X111437826Y-84041654D01*
X111462942Y-83975248D01*
X111490294Y-83948641D01*
X111665328Y-83823792D01*
X111673200Y-83817139D01*
X111824052Y-83666812D01*
X111830730Y-83658965D01*
X111955003Y-83486020D01*
X111960313Y-83477183D01*
X112054670Y-83286267D01*
X112058469Y-83276672D01*
X112120377Y-83072910D01*
X112122555Y-83062837D01*
X112123986Y-83051962D01*
X112121775Y-83037778D01*
X112108617Y-83034000D01*
X110662000Y-83034000D01*
X110593879Y-83013998D01*
X110547386Y-82960342D01*
X110536000Y-82908000D01*
X110536000Y-82652000D01*
X110556002Y-82583879D01*
X110609658Y-82537386D01*
X110662000Y-82526000D01*
X112108344Y-82526000D01*
X112121875Y-82522027D01*
X112123180Y-82512947D01*
X112088529Y-82374996D01*
X112091333Y-82304055D01*
X112132046Y-82245891D01*
X112197741Y-82218972D01*
X112210733Y-82218300D01*
X116414905Y-82218300D01*
X116483026Y-82238302D01*
G37*
G04 #@! TD.AperFunction*
G04 #@! TA.AperFunction,Conductor*
G36*
X109602338Y-83454678D02*
G01*
X109630166Y-83486511D01*
X109687694Y-83580388D01*
X109693777Y-83588699D01*
X109833213Y-83749667D01*
X109840580Y-83756883D01*
X110004434Y-83892916D01*
X110012881Y-83898831D01*
X110081969Y-83939203D01*
X110130693Y-83990842D01*
X110143764Y-84060625D01*
X110117033Y-84126396D01*
X110076584Y-84159752D01*
X110063607Y-84166507D01*
X110059474Y-84169610D01*
X110059471Y-84169612D01*
X109913086Y-84279521D01*
X109884965Y-84300635D01*
X109881393Y-84304373D01*
X109793520Y-84396327D01*
X109730629Y-84462138D01*
X109623201Y-84619621D01*
X109568293Y-84664621D01*
X109497768Y-84672792D01*
X109434021Y-84641538D01*
X109413324Y-84617054D01*
X109332822Y-84492617D01*
X109332820Y-84492614D01*
X109330014Y-84488277D01*
X109179670Y-84323051D01*
X109175619Y-84319852D01*
X109175615Y-84319848D01*
X109008414Y-84187800D01*
X109008410Y-84187798D01*
X109004359Y-84184598D01*
X108963053Y-84161796D01*
X108913084Y-84111364D01*
X108898312Y-84041921D01*
X108923428Y-83975516D01*
X108950780Y-83948909D01*
X108997138Y-83915842D01*
X109129860Y-83821173D01*
X109288096Y-83663489D01*
X109345005Y-83584292D01*
X109418453Y-83482077D01*
X109419640Y-83482930D01*
X109466960Y-83439362D01*
X109536897Y-83427145D01*
X109602338Y-83454678D01*
G37*
G04 #@! TD.AperFunction*
G04 #@! TA.AperFunction,Conductor*
G36*
X127711060Y-82183202D02*
G01*
X127757553Y-82236858D01*
X127767657Y-82307132D01*
X127761378Y-82332191D01*
X127685969Y-82539941D01*
X127683198Y-82550208D01*
X127643877Y-82767655D01*
X127642944Y-82775884D01*
X127642732Y-82780376D01*
X127646475Y-82793124D01*
X127647865Y-82794329D01*
X127655548Y-82796000D01*
X129128000Y-82796000D01*
X129196121Y-82816002D01*
X129242614Y-82869658D01*
X129254000Y-82922000D01*
X129254000Y-83178000D01*
X129233998Y-83246121D01*
X129180342Y-83292614D01*
X129128000Y-83304000D01*
X127664030Y-83304000D01*
X127649352Y-83308310D01*
X127647289Y-83320193D01*
X127656124Y-83424325D01*
X127657914Y-83434797D01*
X127713130Y-83647535D01*
X127716665Y-83657575D01*
X127806937Y-83857970D01*
X127812106Y-83867256D01*
X127934850Y-84049575D01*
X127941519Y-84057870D01*
X128093228Y-84216900D01*
X128101186Y-84223941D01*
X128277525Y-84355141D01*
X128286567Y-84360748D01*
X128311027Y-84373184D01*
X128362684Y-84421887D01*
X128379810Y-84490787D01*
X128356967Y-84558009D01*
X128301408Y-84602209D01*
X128253921Y-84611500D01*
X122841805Y-84611500D01*
X122773684Y-84591498D01*
X122736013Y-84553940D01*
X122647822Y-84417617D01*
X122647820Y-84417614D01*
X122645014Y-84413277D01*
X122494670Y-84248051D01*
X122490619Y-84244852D01*
X122490615Y-84244848D01*
X122323414Y-84112800D01*
X122323410Y-84112798D01*
X122319359Y-84109598D01*
X122277569Y-84086529D01*
X122227598Y-84036097D01*
X122212826Y-83966654D01*
X122237942Y-83900248D01*
X122265294Y-83873641D01*
X122440328Y-83748792D01*
X122448200Y-83742139D01*
X122599052Y-83591812D01*
X122605730Y-83583965D01*
X122730003Y-83411020D01*
X122735313Y-83402183D01*
X122829670Y-83211267D01*
X122833469Y-83201672D01*
X122895377Y-82997910D01*
X122897555Y-82987837D01*
X122898986Y-82976962D01*
X122896775Y-82962778D01*
X122883617Y-82959000D01*
X121437000Y-82959000D01*
X121368879Y-82938998D01*
X121322386Y-82885342D01*
X121311000Y-82833000D01*
X121311000Y-82577000D01*
X121331002Y-82508879D01*
X121384658Y-82462386D01*
X121437000Y-82451000D01*
X122883344Y-82451000D01*
X122896875Y-82447027D01*
X122898180Y-82437947D01*
X122868527Y-82319896D01*
X122871331Y-82248955D01*
X122912043Y-82190791D01*
X122977739Y-82163872D01*
X122990731Y-82163200D01*
X127642939Y-82163200D01*
X127711060Y-82183202D01*
G37*
G04 #@! TD.AperFunction*
G04 #@! TA.AperFunction,NonConductor*
G36*
X137875205Y-76128002D02*
G01*
X137921698Y-76181658D01*
X137931802Y-76251932D01*
X137902308Y-76316512D01*
X137882649Y-76334826D01*
X137846739Y-76361739D01*
X137841358Y-76368919D01*
X137814205Y-76405149D01*
X137757346Y-76447664D01*
X137686527Y-76452690D01*
X137624284Y-76418679D01*
X137528700Y-76323095D01*
X137494674Y-76260783D01*
X137499739Y-76189968D01*
X137542286Y-76133132D01*
X137608806Y-76108321D01*
X137617795Y-76108000D01*
X137807084Y-76108000D01*
X137875205Y-76128002D01*
G37*
G04 #@! TD.AperFunction*
G04 #@! TA.AperFunction,NonConductor*
G36*
X142734121Y-76128002D02*
G01*
X142780614Y-76181658D01*
X142792000Y-76234000D01*
X142792000Y-76540657D01*
X142771998Y-76608778D01*
X142718342Y-76655271D01*
X142648068Y-76665375D01*
X142583488Y-76635881D01*
X142572806Y-76625456D01*
X142533151Y-76581876D01*
X142533148Y-76581873D01*
X142529670Y-76578051D01*
X142525619Y-76574852D01*
X142525615Y-76574848D01*
X142358414Y-76442800D01*
X142358410Y-76442798D01*
X142354359Y-76439598D01*
X142181741Y-76344308D01*
X142131772Y-76293876D01*
X142117000Y-76224433D01*
X142142116Y-76158028D01*
X142199147Y-76115743D01*
X142242636Y-76108000D01*
X142666000Y-76108000D01*
X142734121Y-76128002D01*
G37*
G04 #@! TD.AperFunction*
G04 #@! TA.AperFunction,NonConductor*
G36*
X141029051Y-76128002D02*
G01*
X141075544Y-76181658D01*
X141085648Y-76251932D01*
X141056154Y-76316512D01*
X141019111Y-76345762D01*
X140963734Y-76374590D01*
X140879040Y-76418679D01*
X140873607Y-76421507D01*
X140869474Y-76424610D01*
X140869471Y-76424612D01*
X140699100Y-76552530D01*
X140694965Y-76555635D01*
X140628243Y-76625456D01*
X140614283Y-76640064D01*
X140552759Y-76675494D01*
X140481846Y-76672037D01*
X140424060Y-76630791D01*
X140405207Y-76597243D01*
X140366182Y-76493146D01*
X140360615Y-76478295D01*
X140273261Y-76361739D01*
X140237351Y-76334826D01*
X140194836Y-76277967D01*
X140189810Y-76207148D01*
X140223870Y-76144855D01*
X140286201Y-76110865D01*
X140312916Y-76108000D01*
X140960930Y-76108000D01*
X141029051Y-76128002D01*
G37*
G04 #@! TD.AperFunction*
G04 #@! TA.AperFunction,NonConductor*
G36*
X142710239Y-78490584D02*
G01*
X142767000Y-78533230D01*
X142791694Y-78599794D01*
X142792000Y-78608563D01*
X142792000Y-79080657D01*
X142771998Y-79148778D01*
X142718342Y-79195271D01*
X142648068Y-79205375D01*
X142583488Y-79175881D01*
X142572806Y-79165456D01*
X142533151Y-79121876D01*
X142533148Y-79121873D01*
X142529670Y-79118051D01*
X142525619Y-79114852D01*
X142525615Y-79114848D01*
X142358414Y-78982800D01*
X142358410Y-78982798D01*
X142354359Y-78979598D01*
X142313053Y-78956796D01*
X142263084Y-78906364D01*
X142248312Y-78836921D01*
X142273428Y-78770516D01*
X142300780Y-78743909D01*
X142344603Y-78712650D01*
X142479860Y-78616173D01*
X142577060Y-78519312D01*
X142639432Y-78485396D01*
X142710239Y-78490584D01*
G37*
G04 #@! TD.AperFunction*
G04 #@! TA.AperFunction,NonConductor*
G36*
X136512927Y-77103202D02*
G01*
X136533901Y-77120105D01*
X137381043Y-77967247D01*
X137388587Y-77975537D01*
X137392700Y-77982018D01*
X137398477Y-77987443D01*
X137442367Y-78028658D01*
X137445209Y-78031413D01*
X137464931Y-78051135D01*
X137468055Y-78053558D01*
X137468059Y-78053562D01*
X137468124Y-78053612D01*
X137477145Y-78061317D01*
X137509379Y-78091586D01*
X137516327Y-78095405D01*
X137516329Y-78095407D01*
X137527132Y-78101346D01*
X137543659Y-78112202D01*
X137553398Y-78119757D01*
X137553400Y-78119758D01*
X137559660Y-78124614D01*
X137600240Y-78142174D01*
X137610883Y-78147388D01*
X137618086Y-78151348D01*
X137636203Y-78161308D01*
X137686260Y-78211654D01*
X137701500Y-78271722D01*
X137701500Y-78473134D01*
X137708255Y-78535316D01*
X137759385Y-78671705D01*
X137846739Y-78788261D01*
X137963295Y-78875615D01*
X137971704Y-78878767D01*
X137971705Y-78878768D01*
X138080451Y-78919535D01*
X138137216Y-78962176D01*
X138161916Y-79028738D01*
X138146709Y-79098087D01*
X138127316Y-79124568D01*
X138051617Y-79203782D01*
X137990095Y-79239211D01*
X137919183Y-79235754D01*
X137871429Y-79205825D01*
X137599105Y-78933500D01*
X137263047Y-78597442D01*
X137255513Y-78589163D01*
X137251400Y-78582682D01*
X137201748Y-78536056D01*
X137198907Y-78533302D01*
X137179170Y-78513565D01*
X137175973Y-78511085D01*
X137166951Y-78503380D01*
X137134721Y-78473114D01*
X137127775Y-78469295D01*
X137127772Y-78469293D01*
X137116966Y-78463352D01*
X137100447Y-78452501D01*
X137096106Y-78449134D01*
X137084441Y-78440086D01*
X137077172Y-78436941D01*
X137077168Y-78436938D01*
X137043863Y-78422526D01*
X137033213Y-78417309D01*
X136994460Y-78396005D01*
X136974837Y-78390967D01*
X136956134Y-78384563D01*
X136944820Y-78379667D01*
X136944819Y-78379667D01*
X136937545Y-78376519D01*
X136929722Y-78375280D01*
X136929712Y-78375277D01*
X136893876Y-78369601D01*
X136882256Y-78367195D01*
X136847111Y-78358172D01*
X136847110Y-78358172D01*
X136839430Y-78356200D01*
X136819176Y-78356200D01*
X136799465Y-78354649D01*
X136787286Y-78352720D01*
X136779457Y-78351480D01*
X136771565Y-78352226D01*
X136735439Y-78355641D01*
X136723581Y-78356200D01*
X122921881Y-78356200D01*
X122853760Y-78336198D01*
X122807267Y-78282542D01*
X122797163Y-78212268D01*
X122808923Y-78174374D01*
X122823672Y-78144531D01*
X122832430Y-78126811D01*
X122897370Y-77913069D01*
X122926529Y-77691590D01*
X122928156Y-77625000D01*
X122909852Y-77402361D01*
X122874270Y-77260702D01*
X122869044Y-77239895D01*
X122871848Y-77168954D01*
X122912561Y-77110791D01*
X122978257Y-77083872D01*
X122991248Y-77083200D01*
X136444806Y-77083200D01*
X136512927Y-77103202D01*
G37*
G04 #@! TD.AperFunction*
G04 #@! TA.AperFunction,NonConductor*
G36*
X116463626Y-77138902D02*
G01*
X116484601Y-77155805D01*
X117346053Y-78017258D01*
X117353587Y-78025537D01*
X117357700Y-78032018D01*
X117384571Y-78057251D01*
X117407351Y-78078643D01*
X117410193Y-78081398D01*
X117429930Y-78101135D01*
X117433127Y-78103615D01*
X117442147Y-78111318D01*
X117474379Y-78141586D01*
X117481325Y-78145405D01*
X117481328Y-78145407D01*
X117492134Y-78151348D01*
X117508653Y-78162199D01*
X117524659Y-78174614D01*
X117531928Y-78177759D01*
X117531932Y-78177762D01*
X117565237Y-78192174D01*
X117575896Y-78197396D01*
X117601199Y-78211306D01*
X117651259Y-78261650D01*
X117666500Y-78321721D01*
X117666500Y-78523134D01*
X117673255Y-78585316D01*
X117724385Y-78721705D01*
X117811739Y-78838261D01*
X117928295Y-78925615D01*
X117936704Y-78928767D01*
X117936705Y-78928768D01*
X118045451Y-78969535D01*
X118102216Y-79012176D01*
X118126916Y-79078738D01*
X118111709Y-79148087D01*
X118092316Y-79174568D01*
X118016617Y-79253782D01*
X117955095Y-79289211D01*
X117884183Y-79285754D01*
X117836429Y-79255825D01*
X117575834Y-78995229D01*
X117233147Y-78652542D01*
X117225613Y-78644263D01*
X117221500Y-78637782D01*
X117171848Y-78591156D01*
X117169007Y-78588402D01*
X117149270Y-78568665D01*
X117146073Y-78566185D01*
X117137051Y-78558480D01*
X117110600Y-78533641D01*
X117104821Y-78528214D01*
X117097875Y-78524395D01*
X117097872Y-78524393D01*
X117087066Y-78518452D01*
X117070547Y-78507601D01*
X117065105Y-78503380D01*
X117054541Y-78495186D01*
X117047272Y-78492041D01*
X117047268Y-78492038D01*
X117013963Y-78477626D01*
X117003313Y-78472409D01*
X116964560Y-78451105D01*
X116944937Y-78446067D01*
X116926234Y-78439663D01*
X116914920Y-78434767D01*
X116914919Y-78434767D01*
X116907645Y-78431619D01*
X116899822Y-78430380D01*
X116899812Y-78430377D01*
X116863976Y-78424701D01*
X116852356Y-78422295D01*
X116817211Y-78413272D01*
X116817210Y-78413272D01*
X116809530Y-78411300D01*
X116789276Y-78411300D01*
X116769565Y-78409749D01*
X116757386Y-78407820D01*
X116749557Y-78406580D01*
X116741665Y-78407326D01*
X116705539Y-78410741D01*
X116693681Y-78411300D01*
X112156716Y-78411300D01*
X112088595Y-78391298D01*
X112042102Y-78337642D01*
X112031998Y-78267368D01*
X112043758Y-78229474D01*
X112055138Y-78206448D01*
X112057430Y-78201811D01*
X112094851Y-78078643D01*
X112120865Y-77993023D01*
X112120865Y-77993021D01*
X112122370Y-77988069D01*
X112151529Y-77766590D01*
X112153156Y-77700000D01*
X112134852Y-77477361D01*
X112084172Y-77275596D01*
X112086976Y-77204654D01*
X112127689Y-77146491D01*
X112193384Y-77119572D01*
X112206376Y-77118900D01*
X116395505Y-77118900D01*
X116463626Y-77138902D01*
G37*
G04 #@! TD.AperFunction*
G04 #@! TA.AperFunction,NonConductor*
G36*
X140583150Y-78488126D02*
G01*
X140617817Y-78516114D01*
X140646250Y-78548938D01*
X140818126Y-78691632D01*
X140869590Y-78721705D01*
X140891445Y-78734476D01*
X140940169Y-78786114D01*
X140953240Y-78855897D01*
X140926509Y-78921669D01*
X140886055Y-78955027D01*
X140873607Y-78961507D01*
X140869474Y-78964610D01*
X140869471Y-78964612D01*
X140707122Y-79086507D01*
X140694965Y-79095635D01*
X140667316Y-79124568D01*
X140599751Y-79195271D01*
X140540629Y-79257138D01*
X140433201Y-79414621D01*
X140378293Y-79459621D01*
X140307768Y-79467792D01*
X140244021Y-79436538D01*
X140223324Y-79412054D01*
X140142822Y-79287617D01*
X140142820Y-79287614D01*
X140140014Y-79283277D01*
X140136532Y-79279450D01*
X139992798Y-79121488D01*
X139961746Y-79057642D01*
X139970141Y-78987143D01*
X140015317Y-78932375D01*
X140041761Y-78918706D01*
X140148297Y-78878767D01*
X140156705Y-78875615D01*
X140273261Y-78788261D01*
X140360615Y-78671705D01*
X140380309Y-78619171D01*
X140404598Y-78554382D01*
X140447240Y-78497618D01*
X140513802Y-78472918D01*
X140583150Y-78488126D01*
G37*
G04 #@! TD.AperFunction*
G04 #@! TA.AperFunction,NonConductor*
G36*
X109602026Y-80915144D02*
G01*
X109629875Y-80946994D01*
X109656906Y-80991105D01*
X109689987Y-81045088D01*
X109693364Y-81048986D01*
X109693368Y-81048992D01*
X109699759Y-81056369D01*
X109709282Y-81067362D01*
X109738765Y-81131946D01*
X109728651Y-81202218D01*
X109703140Y-81238955D01*
X109247388Y-81694707D01*
X109185076Y-81728733D01*
X109114261Y-81723668D01*
X109080201Y-81704494D01*
X109052389Y-81682530D01*
X109004359Y-81644598D01*
X108963053Y-81621796D01*
X108913084Y-81571364D01*
X108898312Y-81501921D01*
X108923428Y-81435516D01*
X108950780Y-81408909D01*
X108996757Y-81376114D01*
X109129860Y-81281173D01*
X109136282Y-81274774D01*
X109253497Y-81157967D01*
X109288096Y-81123489D01*
X109347594Y-81040689D01*
X109418453Y-80942077D01*
X109419776Y-80943028D01*
X109466645Y-80899857D01*
X109536580Y-80887625D01*
X109602026Y-80915144D01*
G37*
G04 #@! TD.AperFunction*
G04 #@! TA.AperFunction,NonConductor*
G36*
X142710239Y-81030584D02*
G01*
X142767000Y-81073230D01*
X142791694Y-81139794D01*
X142792000Y-81148563D01*
X142792000Y-81621401D01*
X142771998Y-81689522D01*
X142718342Y-81736015D01*
X142648068Y-81746119D01*
X142583488Y-81716625D01*
X142572806Y-81706200D01*
X142532805Y-81662240D01*
X142525273Y-81655215D01*
X142358139Y-81523222D01*
X142349556Y-81517520D01*
X142312602Y-81497120D01*
X142262631Y-81446687D01*
X142247859Y-81377245D01*
X142272975Y-81310839D01*
X142300327Y-81284232D01*
X142363803Y-81238955D01*
X142479860Y-81156173D01*
X142577060Y-81059312D01*
X142639432Y-81025396D01*
X142710239Y-81030584D01*
G37*
G04 #@! TD.AperFunction*
G04 #@! TA.AperFunction,NonConductor*
G36*
X136512927Y-79643202D02*
G01*
X136533901Y-79660105D01*
X137381043Y-80507247D01*
X137388587Y-80515537D01*
X137392700Y-80522018D01*
X137398477Y-80527443D01*
X137442367Y-80568658D01*
X137445209Y-80571413D01*
X137464931Y-80591135D01*
X137468055Y-80593558D01*
X137468059Y-80593562D01*
X137468124Y-80593612D01*
X137477145Y-80601317D01*
X137509379Y-80631586D01*
X137516327Y-80635405D01*
X137516329Y-80635407D01*
X137527132Y-80641346D01*
X137543659Y-80652202D01*
X137553398Y-80659757D01*
X137553400Y-80659758D01*
X137559660Y-80664614D01*
X137600240Y-80682174D01*
X137610888Y-80687391D01*
X137637824Y-80702199D01*
X137649640Y-80708695D01*
X137657316Y-80710666D01*
X137657319Y-80710667D01*
X137669262Y-80713733D01*
X137687967Y-80720137D01*
X137706555Y-80728181D01*
X137714378Y-80729420D01*
X137714388Y-80729423D01*
X137750224Y-80735099D01*
X137761844Y-80737505D01*
X137796985Y-80746527D01*
X137799336Y-80747130D01*
X137799337Y-80747131D01*
X137804669Y-80748500D01*
X137804448Y-80749360D01*
X137863425Y-80775077D01*
X137889996Y-80805873D01*
X137957287Y-80915683D01*
X137957291Y-80915688D01*
X137959987Y-80920088D01*
X138106250Y-81088938D01*
X138278126Y-81231632D01*
X138290658Y-81238955D01*
X138351445Y-81274476D01*
X138400169Y-81326114D01*
X138413240Y-81395897D01*
X138386509Y-81461669D01*
X138346055Y-81495027D01*
X138333607Y-81501507D01*
X138329474Y-81504610D01*
X138329471Y-81504612D01*
X138159100Y-81632530D01*
X138154965Y-81635635D01*
X138051617Y-81743782D01*
X137990095Y-81779211D01*
X137919183Y-81775754D01*
X137871429Y-81745825D01*
X137602358Y-81476753D01*
X137263047Y-81137442D01*
X137255513Y-81129163D01*
X137251400Y-81122682D01*
X137201748Y-81076056D01*
X137198907Y-81073302D01*
X137179170Y-81053565D01*
X137175973Y-81051085D01*
X137166951Y-81043380D01*
X137134721Y-81013114D01*
X137127775Y-81009295D01*
X137127772Y-81009293D01*
X137116966Y-81003352D01*
X137100447Y-80992501D01*
X137096106Y-80989134D01*
X137084441Y-80980086D01*
X137077172Y-80976941D01*
X137077168Y-80976938D01*
X137043863Y-80962526D01*
X137033213Y-80957309D01*
X136994460Y-80936005D01*
X136974837Y-80930967D01*
X136956134Y-80924563D01*
X136944820Y-80919667D01*
X136944819Y-80919667D01*
X136937545Y-80916519D01*
X136929722Y-80915280D01*
X136929712Y-80915277D01*
X136893876Y-80909601D01*
X136882256Y-80907195D01*
X136847111Y-80898172D01*
X136847110Y-80898172D01*
X136839430Y-80896200D01*
X136819176Y-80896200D01*
X136799465Y-80894649D01*
X136787286Y-80892720D01*
X136779457Y-80891480D01*
X136771565Y-80892226D01*
X136735439Y-80895641D01*
X136723581Y-80896200D01*
X122921881Y-80896200D01*
X122853760Y-80876198D01*
X122807267Y-80822542D01*
X122797163Y-80752268D01*
X122808923Y-80714374D01*
X122823672Y-80684531D01*
X122832430Y-80666811D01*
X122897370Y-80453069D01*
X122926529Y-80231590D01*
X122928156Y-80165000D01*
X122909852Y-79942361D01*
X122874270Y-79800702D01*
X122869044Y-79779895D01*
X122871848Y-79708954D01*
X122912561Y-79650791D01*
X122978257Y-79623872D01*
X122991248Y-79623200D01*
X136444806Y-79623200D01*
X136512927Y-79643202D01*
G37*
G04 #@! TD.AperFunction*
G04 #@! TA.AperFunction,NonConductor*
G36*
X116483026Y-79698302D02*
G01*
X116504001Y-79715205D01*
X117346053Y-80557258D01*
X117353587Y-80565537D01*
X117357700Y-80572018D01*
X117384571Y-80597251D01*
X117407351Y-80618643D01*
X117410193Y-80621398D01*
X117429930Y-80641135D01*
X117433127Y-80643615D01*
X117442147Y-80651318D01*
X117474379Y-80681586D01*
X117481325Y-80685405D01*
X117481328Y-80685407D01*
X117492134Y-80691348D01*
X117508653Y-80702199D01*
X117524659Y-80714614D01*
X117531928Y-80717759D01*
X117531932Y-80717762D01*
X117565237Y-80732174D01*
X117575887Y-80737391D01*
X117614640Y-80758695D01*
X117622315Y-80760666D01*
X117622316Y-80760666D01*
X117634262Y-80763733D01*
X117652966Y-80770137D01*
X117663874Y-80774857D01*
X117671555Y-80778181D01*
X117679378Y-80779420D01*
X117679388Y-80779423D01*
X117715224Y-80785099D01*
X117726844Y-80787505D01*
X117761985Y-80796527D01*
X117764336Y-80797130D01*
X117764337Y-80797131D01*
X117769669Y-80798500D01*
X117769448Y-80799360D01*
X117828425Y-80825077D01*
X117854996Y-80855873D01*
X117922287Y-80965683D01*
X117922291Y-80965688D01*
X117924987Y-80970088D01*
X118071250Y-81138938D01*
X118191721Y-81238955D01*
X118234507Y-81274476D01*
X118243126Y-81281632D01*
X118250423Y-81285896D01*
X118316445Y-81324476D01*
X118365169Y-81376114D01*
X118378240Y-81445897D01*
X118351509Y-81511669D01*
X118311055Y-81545027D01*
X118298607Y-81551507D01*
X118294474Y-81554610D01*
X118294471Y-81554612D01*
X118156703Y-81658051D01*
X118119965Y-81685635D01*
X118016617Y-81793782D01*
X117955095Y-81829211D01*
X117884183Y-81825754D01*
X117836429Y-81795825D01*
X117577243Y-81536638D01*
X117233147Y-81192542D01*
X117225613Y-81184263D01*
X117221500Y-81177782D01*
X117171848Y-81131156D01*
X117169007Y-81128402D01*
X117149270Y-81108665D01*
X117146073Y-81106185D01*
X117137051Y-81098480D01*
X117110600Y-81073641D01*
X117104821Y-81068214D01*
X117097875Y-81064395D01*
X117097872Y-81064393D01*
X117087066Y-81058452D01*
X117070547Y-81047601D01*
X117065105Y-81043380D01*
X117054541Y-81035186D01*
X117047272Y-81032041D01*
X117047268Y-81032038D01*
X117013963Y-81017626D01*
X117003313Y-81012409D01*
X116964560Y-80991105D01*
X116944937Y-80986067D01*
X116926234Y-80979663D01*
X116914920Y-80974767D01*
X116914919Y-80974767D01*
X116907645Y-80971619D01*
X116899822Y-80970380D01*
X116899812Y-80970377D01*
X116863976Y-80964701D01*
X116852356Y-80962295D01*
X116817211Y-80953272D01*
X116817210Y-80953272D01*
X116809530Y-80951300D01*
X116789276Y-80951300D01*
X116769565Y-80949749D01*
X116757386Y-80947820D01*
X116749557Y-80946580D01*
X116741665Y-80947326D01*
X116705539Y-80950741D01*
X116693681Y-80951300D01*
X112156716Y-80951300D01*
X112088595Y-80931298D01*
X112042102Y-80877642D01*
X112031998Y-80807368D01*
X112043758Y-80769474D01*
X112045377Y-80766199D01*
X112057430Y-80741811D01*
X112099701Y-80602680D01*
X112120865Y-80533023D01*
X112120865Y-80533021D01*
X112122370Y-80528069D01*
X112151529Y-80306590D01*
X112153156Y-80240000D01*
X112134852Y-80017361D01*
X112089045Y-79834996D01*
X112091849Y-79764054D01*
X112132562Y-79705891D01*
X112198257Y-79678972D01*
X112211249Y-79678300D01*
X116414905Y-79678300D01*
X116483026Y-79698302D01*
G37*
G04 #@! TD.AperFunction*
G04 #@! TA.AperFunction,NonConductor*
G36*
X140412026Y-80790144D02*
G01*
X140439875Y-80821994D01*
X140499987Y-80920088D01*
X140646250Y-81088938D01*
X140818126Y-81231632D01*
X140830658Y-81238955D01*
X140891955Y-81274774D01*
X140940679Y-81326412D01*
X140953750Y-81396195D01*
X140927019Y-81461967D01*
X140886562Y-81495327D01*
X140878457Y-81499546D01*
X140869738Y-81505036D01*
X140699433Y-81632905D01*
X140691726Y-81639748D01*
X140544590Y-81793717D01*
X140538109Y-81801722D01*
X140433498Y-81955074D01*
X140378587Y-82000076D01*
X140308062Y-82008247D01*
X140244315Y-81976993D01*
X140223618Y-81952509D01*
X140142822Y-81827617D01*
X140142820Y-81827614D01*
X140140014Y-81823277D01*
X139989670Y-81658051D01*
X139985619Y-81654852D01*
X139985615Y-81654848D01*
X139818414Y-81522800D01*
X139818410Y-81522798D01*
X139814359Y-81519598D01*
X139773053Y-81496796D01*
X139723084Y-81446364D01*
X139708312Y-81376921D01*
X139733428Y-81310516D01*
X139760780Y-81283909D01*
X139823803Y-81238955D01*
X139939860Y-81156173D01*
X139956297Y-81139794D01*
X140055750Y-81040687D01*
X140098096Y-80998489D01*
X140107831Y-80984942D01*
X140228453Y-80817077D01*
X140229776Y-80818028D01*
X140276645Y-80774857D01*
X140346580Y-80762625D01*
X140412026Y-80790144D01*
G37*
G04 #@! TD.AperFunction*
G04 #@! TA.AperFunction,NonConductor*
G36*
X136512927Y-82183202D02*
G01*
X136533901Y-82200105D01*
X137381043Y-83047247D01*
X137388587Y-83055537D01*
X137392700Y-83062018D01*
X137398477Y-83067443D01*
X137442367Y-83108658D01*
X137445209Y-83111413D01*
X137464931Y-83131135D01*
X137468055Y-83133558D01*
X137468059Y-83133562D01*
X137468124Y-83133612D01*
X137477145Y-83141317D01*
X137504228Y-83166749D01*
X137540194Y-83227961D01*
X137537357Y-83298901D01*
X137496617Y-83357046D01*
X137430910Y-83383934D01*
X137417976Y-83384600D01*
X133016368Y-83384600D01*
X133005185Y-83384073D01*
X132997692Y-83382398D01*
X132989765Y-83382647D01*
X132989763Y-83382647D01*
X132988455Y-83382688D01*
X132987458Y-83382429D01*
X132981874Y-83381901D01*
X132981959Y-83381000D01*
X132919740Y-83364834D01*
X132871586Y-83312664D01*
X132858500Y-83256750D01*
X132858500Y-82289200D01*
X132878502Y-82221079D01*
X132932158Y-82174586D01*
X132984500Y-82163200D01*
X136444806Y-82163200D01*
X136512927Y-82183202D01*
G37*
G04 #@! TD.AperFunction*
G04 #@! TA.AperFunction,NonConductor*
G36*
X142710238Y-83569876D02*
G01*
X142767000Y-83612522D01*
X142791694Y-83679085D01*
X142792000Y-83687855D01*
X142792000Y-84160657D01*
X142771998Y-84228778D01*
X142718342Y-84275271D01*
X142648068Y-84285375D01*
X142583488Y-84255881D01*
X142572806Y-84245456D01*
X142533151Y-84201876D01*
X142533148Y-84201873D01*
X142529670Y-84198051D01*
X142525619Y-84194852D01*
X142525615Y-84194848D01*
X142358414Y-84062800D01*
X142358410Y-84062798D01*
X142354359Y-84059598D01*
X142340228Y-84051797D01*
X142312569Y-84036529D01*
X142262598Y-83986097D01*
X142247826Y-83916654D01*
X142272942Y-83850248D01*
X142300294Y-83823641D01*
X142475328Y-83698792D01*
X142483200Y-83692139D01*
X142577060Y-83598605D01*
X142639431Y-83564688D01*
X142710238Y-83569876D01*
G37*
G04 #@! TD.AperFunction*
G04 #@! TA.AperFunction,NonConductor*
G36*
X120377338Y-83379678D02*
G01*
X120405166Y-83411511D01*
X120462694Y-83505388D01*
X120468777Y-83513699D01*
X120608213Y-83674667D01*
X120615580Y-83681883D01*
X120779434Y-83817916D01*
X120787881Y-83823831D01*
X120856969Y-83864203D01*
X120905693Y-83915842D01*
X120918764Y-83985625D01*
X120892033Y-84051396D01*
X120851584Y-84084752D01*
X120838607Y-84091507D01*
X120834474Y-84094610D01*
X120834471Y-84094612D01*
X120664100Y-84222530D01*
X120659965Y-84225635D01*
X120505629Y-84387138D01*
X120398201Y-84544621D01*
X120343293Y-84589621D01*
X120272768Y-84597792D01*
X120209021Y-84566538D01*
X120188324Y-84542054D01*
X120107822Y-84417617D01*
X120107820Y-84417614D01*
X120105014Y-84413277D01*
X119954670Y-84248051D01*
X119950619Y-84244852D01*
X119950615Y-84244848D01*
X119783414Y-84112800D01*
X119783410Y-84112798D01*
X119779359Y-84109598D01*
X119738053Y-84086796D01*
X119688084Y-84036364D01*
X119673312Y-83966921D01*
X119698428Y-83900516D01*
X119725780Y-83873909D01*
X119780097Y-83835165D01*
X119904860Y-83746173D01*
X120063096Y-83588489D01*
X120193453Y-83407077D01*
X120194640Y-83407930D01*
X120241960Y-83364362D01*
X120311897Y-83352145D01*
X120377338Y-83379678D01*
G37*
G04 #@! TD.AperFunction*
G04 #@! TA.AperFunction,NonConductor*
G36*
X130196770Y-84109248D02*
G01*
X130210969Y-84128017D01*
X130301522Y-84274348D01*
X130405136Y-84377781D01*
X130423714Y-84396327D01*
X130457793Y-84458609D01*
X130452790Y-84529429D01*
X130410293Y-84586302D01*
X130343794Y-84611171D01*
X130334696Y-84611500D01*
X129742215Y-84611500D01*
X129674094Y-84591498D01*
X129627601Y-84537842D01*
X129617497Y-84467568D01*
X129646991Y-84402988D01*
X129676849Y-84377781D01*
X129798462Y-84303984D01*
X129807052Y-84297720D01*
X129973052Y-84153673D01*
X129980470Y-84146044D01*
X130006391Y-84114431D01*
X130065051Y-84074436D01*
X130136021Y-84072504D01*
X130196770Y-84109248D01*
G37*
G04 #@! TD.AperFunction*
G04 #@! TA.AperFunction,NonConductor*
G36*
X142710239Y-86110584D02*
G01*
X142767000Y-86153230D01*
X142791694Y-86219794D01*
X142792000Y-86228563D01*
X142792000Y-86700657D01*
X142771998Y-86768778D01*
X142718342Y-86815271D01*
X142648068Y-86825375D01*
X142583488Y-86795881D01*
X142572806Y-86785456D01*
X142533151Y-86741876D01*
X142533148Y-86741873D01*
X142529670Y-86738051D01*
X142525619Y-86734852D01*
X142525615Y-86734848D01*
X142358414Y-86602800D01*
X142358410Y-86602798D01*
X142354359Y-86599598D01*
X142313053Y-86576796D01*
X142263084Y-86526364D01*
X142248312Y-86456921D01*
X142273428Y-86390516D01*
X142300780Y-86363909D01*
X142357384Y-86323534D01*
X142479860Y-86236173D01*
X142577060Y-86139312D01*
X142639432Y-86105396D01*
X142710239Y-86110584D01*
G37*
G04 #@! TD.AperFunction*
G04 #@! TA.AperFunction,NonConductor*
G36*
X140412026Y-85870144D02*
G01*
X140439875Y-85901994D01*
X140499987Y-86000088D01*
X140646250Y-86168938D01*
X140818126Y-86311632D01*
X140838494Y-86323534D01*
X140891445Y-86354476D01*
X140940169Y-86406114D01*
X140953240Y-86475897D01*
X140926509Y-86541669D01*
X140886055Y-86575027D01*
X140873607Y-86581507D01*
X140869474Y-86584610D01*
X140869471Y-86584612D01*
X140712965Y-86702120D01*
X140694965Y-86715635D01*
X140669541Y-86742240D01*
X140599751Y-86815271D01*
X140540629Y-86877138D01*
X140537715Y-86881410D01*
X140537714Y-86881411D01*
X140522798Y-86903277D01*
X140457694Y-86998717D01*
X140432898Y-87035066D01*
X140377987Y-87080069D01*
X140307462Y-87088240D01*
X140243715Y-87056986D01*
X140223018Y-87032502D01*
X140142426Y-86907926D01*
X140136136Y-86899757D01*
X139992806Y-86742240D01*
X139985273Y-86735215D01*
X139818139Y-86603222D01*
X139809556Y-86597520D01*
X139772602Y-86577120D01*
X139722631Y-86526687D01*
X139707859Y-86457245D01*
X139732975Y-86390839D01*
X139760327Y-86364232D01*
X139783797Y-86347491D01*
X139939860Y-86236173D01*
X139956297Y-86219794D01*
X140094435Y-86082137D01*
X140098096Y-86078489D01*
X140228453Y-85897077D01*
X140229776Y-85898028D01*
X140276645Y-85854857D01*
X140346580Y-85842625D01*
X140412026Y-85870144D01*
G37*
G04 #@! TD.AperFunction*
G04 #@! TA.AperFunction,NonConductor*
G36*
X109223118Y-86385129D02*
G01*
X109249299Y-86405203D01*
X109703673Y-86859577D01*
X109737699Y-86921889D01*
X109732634Y-86992704D01*
X109718670Y-87019669D01*
X109622896Y-87160069D01*
X109567987Y-87205069D01*
X109497462Y-87213240D01*
X109433715Y-87181986D01*
X109413018Y-87157502D01*
X109332426Y-87032926D01*
X109326136Y-87024757D01*
X109182806Y-86867240D01*
X109175273Y-86860215D01*
X109008139Y-86728222D01*
X108999556Y-86722520D01*
X108962602Y-86702120D01*
X108912631Y-86651687D01*
X108897859Y-86582245D01*
X108922975Y-86515839D01*
X108950327Y-86489232D01*
X109087036Y-86391719D01*
X109154109Y-86368445D01*
X109223118Y-86385129D01*
G37*
G04 #@! TD.AperFunction*
G04 #@! TA.AperFunction,NonConductor*
G36*
X109601751Y-88534678D02*
G01*
X109629579Y-88566511D01*
X109640157Y-88583773D01*
X109689987Y-88665088D01*
X109693364Y-88668986D01*
X109693368Y-88668992D01*
X109701563Y-88678452D01*
X109709282Y-88687362D01*
X109738765Y-88751946D01*
X109728651Y-88822218D01*
X109703140Y-88858955D01*
X109247388Y-89314707D01*
X109185076Y-89348733D01*
X109114261Y-89343668D01*
X109080201Y-89324494D01*
X109052389Y-89302530D01*
X109004359Y-89264598D01*
X108988123Y-89255635D01*
X108962569Y-89241529D01*
X108912598Y-89191097D01*
X108897826Y-89121654D01*
X108922942Y-89055248D01*
X108950294Y-89028641D01*
X109125328Y-88903792D01*
X109133200Y-88897139D01*
X109284052Y-88746812D01*
X109290730Y-88738965D01*
X109418022Y-88561819D01*
X109419279Y-88562722D01*
X109466373Y-88519362D01*
X109536311Y-88507145D01*
X109601751Y-88534678D01*
G37*
G04 #@! TD.AperFunction*
G04 #@! TA.AperFunction,NonConductor*
G36*
X142710239Y-88650584D02*
G01*
X142767000Y-88693230D01*
X142791694Y-88759794D01*
X142792000Y-88768563D01*
X142792000Y-89240657D01*
X142771998Y-89308778D01*
X142718342Y-89355271D01*
X142648068Y-89365375D01*
X142583488Y-89335881D01*
X142572806Y-89325456D01*
X142533151Y-89281876D01*
X142533148Y-89281873D01*
X142529670Y-89278051D01*
X142525619Y-89274852D01*
X142525615Y-89274848D01*
X142358414Y-89142800D01*
X142358410Y-89142798D01*
X142354359Y-89139598D01*
X142313053Y-89116796D01*
X142263084Y-89066364D01*
X142248312Y-88996921D01*
X142273428Y-88930516D01*
X142300780Y-88903909D01*
X142363803Y-88858955D01*
X142479860Y-88776173D01*
X142577060Y-88679312D01*
X142639432Y-88645396D01*
X142710239Y-88650584D01*
G37*
G04 #@! TD.AperFunction*
G04 #@! TA.AperFunction,NonConductor*
G36*
X140735163Y-88791907D02*
G01*
X140771616Y-88813018D01*
X140818126Y-88851632D01*
X140830658Y-88858955D01*
X140891445Y-88894476D01*
X140940169Y-88946114D01*
X140953240Y-89015897D01*
X140926509Y-89081669D01*
X140886055Y-89115027D01*
X140873607Y-89121507D01*
X140869474Y-89124610D01*
X140869471Y-89124612D01*
X140699100Y-89252530D01*
X140694965Y-89255635D01*
X140650151Y-89302530D01*
X140599751Y-89355271D01*
X140540629Y-89417138D01*
X140433201Y-89574621D01*
X140378293Y-89619621D01*
X140307768Y-89627792D01*
X140244021Y-89596538D01*
X140223324Y-89572054D01*
X140142825Y-89447622D01*
X140142824Y-89447621D01*
X140140014Y-89443277D01*
X140137345Y-89440344D01*
X140111756Y-89374496D01*
X140125900Y-89304922D01*
X140148206Y-89274698D01*
X140602036Y-88820868D01*
X140664348Y-88786842D01*
X140735163Y-88791907D01*
G37*
G04 #@! TD.AperFunction*
G04 #@! TA.AperFunction,NonConductor*
G36*
X109602026Y-91075144D02*
G01*
X109629875Y-91106994D01*
X109656906Y-91151105D01*
X109689987Y-91205088D01*
X109693364Y-91208986D01*
X109693368Y-91208992D01*
X109701563Y-91218452D01*
X109709282Y-91227362D01*
X109738765Y-91291946D01*
X109728651Y-91362218D01*
X109703140Y-91398955D01*
X109247388Y-91854707D01*
X109185076Y-91888733D01*
X109114261Y-91883668D01*
X109080201Y-91864494D01*
X109051412Y-91841758D01*
X109004359Y-91804598D01*
X108963053Y-91781796D01*
X108913084Y-91731364D01*
X108898312Y-91661921D01*
X108923428Y-91595516D01*
X108950780Y-91568909D01*
X109018172Y-91520839D01*
X109129860Y-91441173D01*
X109288096Y-91283489D01*
X109345005Y-91204292D01*
X109418453Y-91102077D01*
X109419776Y-91103028D01*
X109466645Y-91059857D01*
X109536580Y-91047625D01*
X109602026Y-91075144D01*
G37*
G04 #@! TD.AperFunction*
G04 #@! TA.AperFunction,NonConductor*
G36*
X142710239Y-91190584D02*
G01*
X142767000Y-91233230D01*
X142791694Y-91299794D01*
X142792000Y-91308563D01*
X142792000Y-91781401D01*
X142771998Y-91849522D01*
X142718342Y-91896015D01*
X142648068Y-91906119D01*
X142583488Y-91876625D01*
X142572806Y-91866200D01*
X142532805Y-91822240D01*
X142525273Y-91815215D01*
X142358139Y-91683222D01*
X142349556Y-91677520D01*
X142312602Y-91657120D01*
X142262631Y-91606687D01*
X142247859Y-91537245D01*
X142272975Y-91470839D01*
X142300327Y-91444232D01*
X142363803Y-91398955D01*
X142479860Y-91316173D01*
X142577060Y-91219312D01*
X142639432Y-91185396D01*
X142710239Y-91190584D01*
G37*
G04 #@! TD.AperFunction*
G04 #@! TA.AperFunction,NonConductor*
G36*
X116483026Y-89858302D02*
G01*
X116504001Y-89875205D01*
X116953795Y-90325000D01*
X117346053Y-90717258D01*
X117353587Y-90725537D01*
X117357700Y-90732018D01*
X117407351Y-90778643D01*
X117410193Y-90781398D01*
X117429930Y-90801135D01*
X117433127Y-90803615D01*
X117442147Y-90811318D01*
X117474379Y-90841586D01*
X117481325Y-90845405D01*
X117481328Y-90845407D01*
X117492134Y-90851348D01*
X117508653Y-90862199D01*
X117524659Y-90874614D01*
X117531928Y-90877759D01*
X117531932Y-90877762D01*
X117565237Y-90892174D01*
X117575887Y-90897391D01*
X117614640Y-90918695D01*
X117622315Y-90920666D01*
X117622316Y-90920666D01*
X117634262Y-90923733D01*
X117652967Y-90930137D01*
X117671555Y-90938181D01*
X117679378Y-90939420D01*
X117679388Y-90939423D01*
X117715224Y-90945099D01*
X117726844Y-90947505D01*
X117761985Y-90956527D01*
X117764336Y-90957130D01*
X117764337Y-90957131D01*
X117769669Y-90958500D01*
X117769448Y-90959360D01*
X117828425Y-90985077D01*
X117854996Y-91015873D01*
X117922287Y-91125683D01*
X117922291Y-91125688D01*
X117924987Y-91130088D01*
X118071250Y-91298938D01*
X118243126Y-91441632D01*
X118250423Y-91445896D01*
X118316445Y-91484476D01*
X118365169Y-91536114D01*
X118378240Y-91605897D01*
X118351509Y-91671669D01*
X118311055Y-91705027D01*
X118298607Y-91711507D01*
X118294474Y-91714610D01*
X118294471Y-91714612D01*
X118124100Y-91842530D01*
X118119965Y-91845635D01*
X118016617Y-91953782D01*
X117955095Y-91989211D01*
X117884183Y-91985754D01*
X117836429Y-91955825D01*
X117577243Y-91696638D01*
X117233147Y-91352542D01*
X117225613Y-91344263D01*
X117221500Y-91337782D01*
X117171848Y-91291156D01*
X117169007Y-91288402D01*
X117149270Y-91268665D01*
X117146073Y-91266185D01*
X117137051Y-91258480D01*
X117110600Y-91233641D01*
X117104821Y-91228214D01*
X117097875Y-91224395D01*
X117097872Y-91224393D01*
X117087066Y-91218452D01*
X117070547Y-91207601D01*
X117066281Y-91204292D01*
X117054541Y-91195186D01*
X117047272Y-91192041D01*
X117047268Y-91192038D01*
X117013963Y-91177626D01*
X117003313Y-91172409D01*
X116964560Y-91151105D01*
X116944937Y-91146067D01*
X116926234Y-91139663D01*
X116914920Y-91134767D01*
X116914919Y-91134767D01*
X116907645Y-91131619D01*
X116899822Y-91130380D01*
X116899812Y-91130377D01*
X116863976Y-91124701D01*
X116852356Y-91122295D01*
X116817211Y-91113272D01*
X116817210Y-91113272D01*
X116809530Y-91111300D01*
X116789276Y-91111300D01*
X116769565Y-91109749D01*
X116757386Y-91107820D01*
X116749557Y-91106580D01*
X116741665Y-91107326D01*
X116705539Y-91110741D01*
X116693681Y-91111300D01*
X112156716Y-91111300D01*
X112088595Y-91091298D01*
X112042102Y-91037642D01*
X112031998Y-90967368D01*
X112043758Y-90929474D01*
X112045377Y-90926199D01*
X112057430Y-90901811D01*
X112122370Y-90688069D01*
X112151529Y-90466590D01*
X112153156Y-90400000D01*
X112134852Y-90177361D01*
X112089045Y-89994996D01*
X112091849Y-89924054D01*
X112132562Y-89865891D01*
X112198257Y-89838972D01*
X112211249Y-89838300D01*
X116414905Y-89838300D01*
X116483026Y-89858302D01*
G37*
G04 #@! TD.AperFunction*
G04 #@! TA.AperFunction,NonConductor*
G36*
X120377026Y-91000144D02*
G01*
X120404875Y-91031994D01*
X120464987Y-91130088D01*
X120611250Y-91298938D01*
X120783126Y-91441632D01*
X120790423Y-91445896D01*
X120856955Y-91484774D01*
X120905679Y-91536412D01*
X120918750Y-91606195D01*
X120892019Y-91671967D01*
X120851562Y-91705327D01*
X120843457Y-91709546D01*
X120834738Y-91715036D01*
X120664433Y-91842905D01*
X120656726Y-91849748D01*
X120509590Y-92003717D01*
X120503109Y-92011722D01*
X120398498Y-92165074D01*
X120343587Y-92210076D01*
X120273062Y-92218247D01*
X120209315Y-92186993D01*
X120188618Y-92162509D01*
X120107822Y-92037617D01*
X120107820Y-92037614D01*
X120105014Y-92033277D01*
X119954670Y-91868051D01*
X119950619Y-91864852D01*
X119950615Y-91864848D01*
X119783414Y-91732800D01*
X119783410Y-91732798D01*
X119779359Y-91729598D01*
X119738053Y-91706796D01*
X119688084Y-91656364D01*
X119673312Y-91586921D01*
X119698428Y-91520516D01*
X119725780Y-91493909D01*
X119793092Y-91445896D01*
X119904860Y-91366173D01*
X119927348Y-91343764D01*
X119992045Y-91279292D01*
X120063096Y-91208489D01*
X120099025Y-91158489D01*
X120193453Y-91027077D01*
X120194776Y-91028028D01*
X120241645Y-90984857D01*
X120311580Y-90972625D01*
X120377026Y-91000144D01*
G37*
G04 #@! TD.AperFunction*
G04 #@! TA.AperFunction,NonConductor*
G36*
X109602338Y-93614678D02*
G01*
X109630166Y-93646511D01*
X109687694Y-93740388D01*
X109693777Y-93748699D01*
X109709637Y-93767008D01*
X109739120Y-93831593D01*
X109729005Y-93901865D01*
X109703495Y-93938600D01*
X109247388Y-94394707D01*
X109185076Y-94428733D01*
X109114261Y-94423668D01*
X109080201Y-94404494D01*
X109052389Y-94382530D01*
X109004359Y-94344598D01*
X108963053Y-94321796D01*
X108913084Y-94271364D01*
X108898312Y-94201921D01*
X108923428Y-94135516D01*
X108950780Y-94108909D01*
X108996757Y-94076114D01*
X109129860Y-93981173D01*
X109288096Y-93823489D01*
X109319161Y-93780258D01*
X109418453Y-93642077D01*
X109419640Y-93642930D01*
X109466960Y-93599362D01*
X109536897Y-93587145D01*
X109602338Y-93614678D01*
G37*
G04 #@! TD.AperFunction*
G04 #@! TA.AperFunction,NonConductor*
G36*
X142710238Y-93729876D02*
G01*
X142767000Y-93772522D01*
X142791694Y-93839085D01*
X142792000Y-93847855D01*
X142792000Y-94320657D01*
X142771998Y-94388778D01*
X142718342Y-94435271D01*
X142648068Y-94445375D01*
X142583488Y-94415881D01*
X142572806Y-94405456D01*
X142533151Y-94361876D01*
X142533148Y-94361873D01*
X142529670Y-94358051D01*
X142525619Y-94354852D01*
X142525615Y-94354848D01*
X142358414Y-94222800D01*
X142358410Y-94222798D01*
X142354359Y-94219598D01*
X142340228Y-94211797D01*
X142312569Y-94196529D01*
X142262598Y-94146097D01*
X142247826Y-94076654D01*
X142272942Y-94010248D01*
X142300294Y-93983641D01*
X142475328Y-93858792D01*
X142483200Y-93852139D01*
X142577060Y-93758605D01*
X142639431Y-93724688D01*
X142710238Y-93729876D01*
G37*
G04 #@! TD.AperFunction*
G04 #@! TA.AperFunction,NonConductor*
G36*
X142710239Y-96270584D02*
G01*
X142767000Y-96313230D01*
X142791694Y-96379794D01*
X142792000Y-96388563D01*
X142792000Y-96860657D01*
X142771998Y-96928778D01*
X142718342Y-96975271D01*
X142648068Y-96985375D01*
X142583488Y-96955881D01*
X142572806Y-96945456D01*
X142533151Y-96901876D01*
X142533145Y-96901870D01*
X142529670Y-96898051D01*
X142525619Y-96894852D01*
X142525615Y-96894848D01*
X142358414Y-96762800D01*
X142358410Y-96762798D01*
X142354359Y-96759598D01*
X142313053Y-96736796D01*
X142263084Y-96686364D01*
X142248312Y-96616921D01*
X142273428Y-96550516D01*
X142300780Y-96523909D01*
X142344603Y-96492650D01*
X142479860Y-96396173D01*
X142577060Y-96299312D01*
X142639432Y-96265396D01*
X142710239Y-96270584D01*
G37*
G04 #@! TD.AperFunction*
G04 #@! TA.AperFunction,NonConductor*
G36*
X116483026Y-94938302D02*
G01*
X116504001Y-94955205D01*
X117346053Y-95797258D01*
X117353587Y-95805537D01*
X117357700Y-95812018D01*
X117390352Y-95842680D01*
X117407351Y-95858643D01*
X117410193Y-95861398D01*
X117429930Y-95881135D01*
X117433127Y-95883615D01*
X117442149Y-95891320D01*
X117470933Y-95918350D01*
X117506898Y-95979563D01*
X117504060Y-96050503D01*
X117463320Y-96108647D01*
X117397612Y-96135535D01*
X117384680Y-96136200D01*
X113294367Y-96136200D01*
X113283184Y-96135673D01*
X113275691Y-96133998D01*
X113267765Y-96134247D01*
X113267764Y-96134247D01*
X113207614Y-96136138D01*
X113203655Y-96136200D01*
X113175744Y-96136200D01*
X113171810Y-96136697D01*
X113171809Y-96136697D01*
X113171744Y-96136705D01*
X113159907Y-96137638D01*
X113128090Y-96138638D01*
X113123629Y-96138778D01*
X113115710Y-96139027D01*
X113098054Y-96144156D01*
X113096258Y-96144678D01*
X113076906Y-96148686D01*
X113069835Y-96149580D01*
X113056803Y-96151226D01*
X113049434Y-96154143D01*
X113049432Y-96154144D01*
X113015697Y-96167500D01*
X113004469Y-96171345D01*
X112962007Y-96183682D01*
X112955185Y-96187716D01*
X112955179Y-96187719D01*
X112944568Y-96193994D01*
X112926818Y-96202690D01*
X112915356Y-96207228D01*
X112915351Y-96207231D01*
X112907983Y-96210148D01*
X112901568Y-96214809D01*
X112872225Y-96236127D01*
X112862307Y-96242643D01*
X112843619Y-96253695D01*
X112824237Y-96265158D01*
X112809913Y-96279482D01*
X112794881Y-96292321D01*
X112778493Y-96304228D01*
X112755319Y-96332241D01*
X112750312Y-96338293D01*
X112742322Y-96347073D01*
X111978229Y-97111166D01*
X111915917Y-97145192D01*
X111845102Y-97140127D01*
X111795940Y-97106870D01*
X111723151Y-97026876D01*
X111723145Y-97026870D01*
X111719670Y-97023051D01*
X111715619Y-97019852D01*
X111715615Y-97019848D01*
X111548414Y-96887800D01*
X111548410Y-96887798D01*
X111544359Y-96884598D01*
X111503053Y-96861796D01*
X111453084Y-96811364D01*
X111438312Y-96741921D01*
X111463428Y-96675516D01*
X111490780Y-96648909D01*
X111547546Y-96608418D01*
X111669860Y-96521173D01*
X111676581Y-96514476D01*
X111792289Y-96399171D01*
X111828096Y-96363489D01*
X111887594Y-96280689D01*
X111955435Y-96186277D01*
X111958453Y-96182077D01*
X111964576Y-96169689D01*
X112055136Y-95986453D01*
X112055137Y-95986451D01*
X112057430Y-95981811D01*
X112122370Y-95768069D01*
X112151529Y-95546590D01*
X112153156Y-95480000D01*
X112134852Y-95257361D01*
X112089045Y-95074996D01*
X112091849Y-95004054D01*
X112132562Y-94945891D01*
X112198257Y-94918972D01*
X112211249Y-94918300D01*
X116414905Y-94918300D01*
X116483026Y-94938302D01*
G37*
G04 #@! TD.AperFunction*
G04 #@! TA.AperFunction,NonConductor*
G36*
X140412026Y-96030144D02*
G01*
X140439875Y-96061994D01*
X140499987Y-96160088D01*
X140646250Y-96328938D01*
X140818126Y-96471632D01*
X140888595Y-96512811D01*
X140891445Y-96514476D01*
X140940169Y-96566114D01*
X140953240Y-96635897D01*
X140926509Y-96701669D01*
X140886055Y-96735027D01*
X140873607Y-96741507D01*
X140869474Y-96744610D01*
X140869471Y-96744612D01*
X140699100Y-96872530D01*
X140694965Y-96875635D01*
X140644180Y-96928778D01*
X140550436Y-97026876D01*
X140540629Y-97037138D01*
X140433201Y-97194621D01*
X140378293Y-97239621D01*
X140307768Y-97247792D01*
X140244021Y-97216538D01*
X140223324Y-97192054D01*
X140142822Y-97067617D01*
X140142820Y-97067614D01*
X140140014Y-97063277D01*
X139989670Y-96898051D01*
X139985619Y-96894852D01*
X139985615Y-96894848D01*
X139818414Y-96762800D01*
X139818410Y-96762798D01*
X139814359Y-96759598D01*
X139773053Y-96736796D01*
X139723084Y-96686364D01*
X139708312Y-96616921D01*
X139733428Y-96550516D01*
X139760780Y-96523909D01*
X139804603Y-96492650D01*
X139939860Y-96396173D01*
X139956297Y-96379794D01*
X140037060Y-96299312D01*
X140098096Y-96238489D01*
X140149107Y-96167500D01*
X140228453Y-96057077D01*
X140229776Y-96058028D01*
X140276645Y-96014857D01*
X140346580Y-96002625D01*
X140412026Y-96030144D01*
G37*
G04 #@! TD.AperFunction*
G04 #@! TA.AperFunction,NonConductor*
G36*
X109602026Y-96155144D02*
G01*
X109629875Y-96186994D01*
X109644064Y-96210148D01*
X109689987Y-96285088D01*
X109836250Y-96453938D01*
X109912846Y-96517529D01*
X110001963Y-96591515D01*
X110008126Y-96596632D01*
X110062525Y-96628420D01*
X110081445Y-96639476D01*
X110130169Y-96691114D01*
X110143240Y-96760897D01*
X110116509Y-96826669D01*
X110076055Y-96860027D01*
X110063607Y-96866507D01*
X110059474Y-96869610D01*
X110059471Y-96869612D01*
X109905289Y-96985375D01*
X109884965Y-97000635D01*
X109730629Y-97162138D01*
X109623201Y-97319621D01*
X109568293Y-97364621D01*
X109497768Y-97372792D01*
X109434021Y-97341538D01*
X109413324Y-97317054D01*
X109332822Y-97192617D01*
X109332820Y-97192614D01*
X109330014Y-97188277D01*
X109179670Y-97023051D01*
X109175619Y-97019852D01*
X109175615Y-97019848D01*
X109008414Y-96887800D01*
X109008410Y-96887798D01*
X109004359Y-96884598D01*
X108963053Y-96861796D01*
X108913084Y-96811364D01*
X108898312Y-96741921D01*
X108923428Y-96675516D01*
X108950780Y-96648909D01*
X109007546Y-96608418D01*
X109129860Y-96521173D01*
X109136581Y-96514476D01*
X109252289Y-96399171D01*
X109288096Y-96363489D01*
X109347594Y-96280689D01*
X109418453Y-96182077D01*
X109419776Y-96183028D01*
X109466645Y-96139857D01*
X109536580Y-96127625D01*
X109602026Y-96155144D01*
G37*
G04 #@! TD.AperFunction*
G04 #@! TA.AperFunction,NonConductor*
G36*
X138004612Y-96235158D02*
G01*
X138055815Y-96270715D01*
X138106250Y-96328938D01*
X138278126Y-96471632D01*
X138348595Y-96512811D01*
X138351445Y-96514476D01*
X138400169Y-96566114D01*
X138413240Y-96635897D01*
X138386509Y-96701669D01*
X138346055Y-96735027D01*
X138333607Y-96741507D01*
X138329474Y-96744610D01*
X138329471Y-96744612D01*
X138159100Y-96872530D01*
X138154965Y-96875635D01*
X138104180Y-96928778D01*
X138010436Y-97026876D01*
X138000629Y-97037138D01*
X137997720Y-97041403D01*
X137997714Y-97041411D01*
X137930375Y-97140127D01*
X137874743Y-97221680D01*
X137830472Y-97317054D01*
X137790485Y-97403200D01*
X137780688Y-97424305D01*
X137720989Y-97639570D01*
X137697251Y-97861695D01*
X137697548Y-97866848D01*
X137697548Y-97866851D01*
X137706193Y-98016785D01*
X137710110Y-98084715D01*
X137711247Y-98089762D01*
X137711248Y-98089766D01*
X137720213Y-98129547D01*
X137738281Y-98209715D01*
X137754641Y-98282310D01*
X137750105Y-98353161D01*
X137707984Y-98410313D01*
X137641650Y-98435619D01*
X137631724Y-98436011D01*
X136832624Y-98436011D01*
X136764503Y-98416009D01*
X136743528Y-98399106D01*
X136562645Y-98218222D01*
X136555111Y-98209943D01*
X136550998Y-98203462D01*
X136501346Y-98156836D01*
X136498505Y-98154082D01*
X136478768Y-98134345D01*
X136475571Y-98131865D01*
X136466549Y-98124160D01*
X136440098Y-98099321D01*
X136434319Y-98093894D01*
X136427373Y-98090075D01*
X136427370Y-98090073D01*
X136416564Y-98084132D01*
X136400045Y-98073281D01*
X136399581Y-98072921D01*
X136384039Y-98060866D01*
X136376770Y-98057721D01*
X136376766Y-98057718D01*
X136343461Y-98043306D01*
X136332800Y-98038083D01*
X136328028Y-98035460D01*
X136277975Y-97985108D01*
X136263090Y-97915690D01*
X136288099Y-97849244D01*
X136299647Y-97835957D01*
X137871485Y-96264119D01*
X137933797Y-96230093D01*
X138004612Y-96235158D01*
G37*
G04 #@! TD.AperFunction*
G04 #@! TA.AperFunction,NonConductor*
G36*
X109602026Y-98695144D02*
G01*
X109629875Y-98726994D01*
X109640157Y-98743773D01*
X109689987Y-98825088D01*
X109693364Y-98828986D01*
X109693368Y-98828992D01*
X109701563Y-98838452D01*
X109709282Y-98847362D01*
X109738765Y-98911946D01*
X109728651Y-98982218D01*
X109703140Y-99018955D01*
X109247388Y-99474707D01*
X109185076Y-99508733D01*
X109114261Y-99503668D01*
X109080201Y-99484494D01*
X109052389Y-99462530D01*
X109004359Y-99424598D01*
X108963053Y-99401796D01*
X108913084Y-99351364D01*
X108898312Y-99281921D01*
X108923428Y-99215516D01*
X108950780Y-99188909D01*
X108996757Y-99156114D01*
X109129860Y-99061173D01*
X109136282Y-99054774D01*
X109239060Y-98952354D01*
X109288096Y-98903489D01*
X109347594Y-98820689D01*
X109418453Y-98722077D01*
X109419776Y-98723028D01*
X109466645Y-98679857D01*
X109536580Y-98667625D01*
X109602026Y-98695144D01*
G37*
G04 #@! TD.AperFunction*
G04 #@! TA.AperFunction,NonConductor*
G36*
X142710239Y-98810584D02*
G01*
X142767000Y-98853230D01*
X142791694Y-98919794D01*
X142792000Y-98928563D01*
X142792000Y-99401401D01*
X142771998Y-99469522D01*
X142718342Y-99516015D01*
X142648068Y-99526119D01*
X142583488Y-99496625D01*
X142572806Y-99486200D01*
X142532805Y-99442240D01*
X142525273Y-99435215D01*
X142358139Y-99303222D01*
X142349556Y-99297520D01*
X142312602Y-99277120D01*
X142262631Y-99226687D01*
X142247859Y-99157245D01*
X142272975Y-99090839D01*
X142300327Y-99064232D01*
X142363803Y-99018955D01*
X142479860Y-98936173D01*
X142577060Y-98839312D01*
X142639432Y-98805396D01*
X142710239Y-98810584D01*
G37*
G04 #@! TD.AperFunction*
G04 #@! TA.AperFunction,NonConductor*
G36*
X117667830Y-97423202D02*
G01*
X117714323Y-97476858D01*
X117724427Y-97547132D01*
X117721127Y-97562867D01*
X117685989Y-97689570D01*
X117662251Y-97911695D01*
X117662548Y-97916848D01*
X117662548Y-97916851D01*
X117668310Y-98016785D01*
X117675110Y-98134715D01*
X117724222Y-98352639D01*
X117808266Y-98559616D01*
X117827289Y-98590659D01*
X117913474Y-98731300D01*
X117924987Y-98750088D01*
X118071250Y-98918938D01*
X118243126Y-99061632D01*
X118250423Y-99065896D01*
X118316445Y-99104476D01*
X118365169Y-99156114D01*
X118378240Y-99225897D01*
X118351509Y-99291669D01*
X118311055Y-99325027D01*
X118298607Y-99331507D01*
X118294474Y-99334610D01*
X118294471Y-99334612D01*
X118151124Y-99442240D01*
X118119965Y-99465635D01*
X118016617Y-99573782D01*
X117955095Y-99609211D01*
X117884183Y-99605754D01*
X117836429Y-99575825D01*
X117577243Y-99316638D01*
X117233147Y-98972542D01*
X117225613Y-98964263D01*
X117221500Y-98957782D01*
X117171848Y-98911156D01*
X117169007Y-98908402D01*
X117149270Y-98888665D01*
X117146073Y-98886185D01*
X117137051Y-98878480D01*
X117110600Y-98853641D01*
X117104821Y-98848214D01*
X117097875Y-98844395D01*
X117097872Y-98844393D01*
X117087066Y-98838452D01*
X117070547Y-98827601D01*
X117067307Y-98825088D01*
X117054541Y-98815186D01*
X117047272Y-98812041D01*
X117047268Y-98812038D01*
X117013963Y-98797626D01*
X117003313Y-98792409D01*
X116964560Y-98771105D01*
X116944937Y-98766067D01*
X116926234Y-98759663D01*
X116914920Y-98754767D01*
X116914919Y-98754767D01*
X116907645Y-98751619D01*
X116899822Y-98750380D01*
X116899812Y-98750377D01*
X116863976Y-98744701D01*
X116852356Y-98742295D01*
X116817211Y-98733272D01*
X116817210Y-98733272D01*
X116809530Y-98731300D01*
X116789276Y-98731300D01*
X116769565Y-98729749D01*
X116757386Y-98727820D01*
X116749557Y-98726580D01*
X116741665Y-98727326D01*
X116705539Y-98730741D01*
X116693681Y-98731300D01*
X112454094Y-98731300D01*
X112385973Y-98711298D01*
X112339480Y-98657642D01*
X112329376Y-98587368D01*
X112358870Y-98522788D01*
X112364999Y-98516205D01*
X112370983Y-98510221D01*
X112386017Y-98497380D01*
X112395994Y-98490131D01*
X112402407Y-98485472D01*
X112430598Y-98451395D01*
X112438588Y-98442616D01*
X113441099Y-97440105D01*
X113503411Y-97406079D01*
X113530194Y-97403200D01*
X117599709Y-97403200D01*
X117667830Y-97423202D01*
G37*
G04 #@! TD.AperFunction*
G04 #@! TA.AperFunction,NonConductor*
G36*
X140735163Y-98951907D02*
G01*
X140771616Y-98973018D01*
X140818126Y-99011632D01*
X140830658Y-99018955D01*
X140891955Y-99054774D01*
X140940679Y-99106412D01*
X140953750Y-99176195D01*
X140927019Y-99241967D01*
X140886562Y-99275327D01*
X140878457Y-99279546D01*
X140869738Y-99285036D01*
X140699433Y-99412905D01*
X140691726Y-99419748D01*
X140544590Y-99573717D01*
X140538109Y-99581722D01*
X140433498Y-99735074D01*
X140378587Y-99780076D01*
X140308062Y-99788247D01*
X140244315Y-99756993D01*
X140223618Y-99732509D01*
X140142825Y-99607621D01*
X140142820Y-99607615D01*
X140140014Y-99603277D01*
X140137345Y-99600344D01*
X140111756Y-99534496D01*
X140125900Y-99464922D01*
X140148206Y-99434698D01*
X140602036Y-98980868D01*
X140664348Y-98946842D01*
X140735163Y-98951907D01*
G37*
G04 #@! TD.AperFunction*
G04 #@! TA.AperFunction,NonConductor*
G36*
X140412338Y-101109678D02*
G01*
X140440166Y-101141511D01*
X140497694Y-101235388D01*
X140503777Y-101243699D01*
X140643213Y-101404667D01*
X140650580Y-101411883D01*
X140814434Y-101547916D01*
X140822881Y-101553831D01*
X140891969Y-101594203D01*
X140940693Y-101645842D01*
X140953764Y-101715625D01*
X140927033Y-101781396D01*
X140886584Y-101814752D01*
X140873607Y-101821507D01*
X140726760Y-101931763D01*
X140660275Y-101956668D01*
X140590879Y-101941675D01*
X140562012Y-101920097D01*
X140116216Y-101474301D01*
X140082190Y-101411989D01*
X140087255Y-101341174D01*
X140102986Y-101311684D01*
X140228453Y-101137077D01*
X140229640Y-101137930D01*
X140276960Y-101094362D01*
X140346897Y-101082145D01*
X140412338Y-101109678D01*
G37*
G04 #@! TD.AperFunction*
G04 #@! TA.AperFunction,NonConductor*
G36*
X109602338Y-101234678D02*
G01*
X109630166Y-101266511D01*
X109687694Y-101360388D01*
X109693777Y-101368699D01*
X109709637Y-101387008D01*
X109739120Y-101451593D01*
X109729005Y-101521865D01*
X109703495Y-101558600D01*
X109247388Y-102014707D01*
X109185076Y-102048733D01*
X109114261Y-102043668D01*
X109080201Y-102024494D01*
X109052389Y-102002530D01*
X109004359Y-101964598D01*
X108963053Y-101941796D01*
X108913084Y-101891364D01*
X108898312Y-101821921D01*
X108923428Y-101755516D01*
X108950780Y-101728909D01*
X108997138Y-101695842D01*
X109129860Y-101601173D01*
X109136855Y-101594203D01*
X109269279Y-101462240D01*
X109288096Y-101443489D01*
X109294009Y-101435261D01*
X109418453Y-101262077D01*
X109419640Y-101262930D01*
X109466960Y-101219362D01*
X109536897Y-101207145D01*
X109602338Y-101234678D01*
G37*
G04 #@! TD.AperFunction*
G04 #@! TA.AperFunction,NonConductor*
G36*
X142710238Y-101349876D02*
G01*
X142767000Y-101392522D01*
X142791694Y-101459085D01*
X142792000Y-101467855D01*
X142792000Y-101940657D01*
X142771998Y-102008778D01*
X142718342Y-102055271D01*
X142648068Y-102065375D01*
X142583488Y-102035881D01*
X142572806Y-102025456D01*
X142533151Y-101981876D01*
X142533148Y-101981873D01*
X142529670Y-101978051D01*
X142525619Y-101974852D01*
X142525615Y-101974848D01*
X142358414Y-101842800D01*
X142358410Y-101842798D01*
X142354359Y-101839598D01*
X142340228Y-101831797D01*
X142312569Y-101816529D01*
X142262598Y-101766097D01*
X142247826Y-101696654D01*
X142272942Y-101630248D01*
X142300294Y-101603641D01*
X142475328Y-101478792D01*
X142483200Y-101472139D01*
X142577060Y-101378605D01*
X142639431Y-101344688D01*
X142710238Y-101349876D01*
G37*
G04 #@! TD.AperFunction*
G04 #@! TA.AperFunction,NonConductor*
G36*
X120377338Y-101159678D02*
G01*
X120405166Y-101191511D01*
X120462694Y-101285388D01*
X120468777Y-101293699D01*
X120608213Y-101454667D01*
X120615580Y-101461883D01*
X120779434Y-101597916D01*
X120787881Y-101603831D01*
X120856969Y-101644203D01*
X120905693Y-101695842D01*
X120918764Y-101765625D01*
X120892033Y-101831396D01*
X120851584Y-101864752D01*
X120838607Y-101871507D01*
X120834474Y-101874610D01*
X120834471Y-101874612D01*
X120714621Y-101964598D01*
X120659965Y-102005635D01*
X120505629Y-102167138D01*
X120398201Y-102324621D01*
X120343293Y-102369621D01*
X120272768Y-102377792D01*
X120209021Y-102346538D01*
X120188324Y-102322054D01*
X120107822Y-102197617D01*
X120107820Y-102197614D01*
X120105014Y-102193277D01*
X119954670Y-102028051D01*
X119950619Y-102024852D01*
X119950615Y-102024848D01*
X119783414Y-101892800D01*
X119783410Y-101892798D01*
X119779359Y-101889598D01*
X119738053Y-101866796D01*
X119688084Y-101816364D01*
X119673312Y-101746921D01*
X119698428Y-101680516D01*
X119725780Y-101653909D01*
X119780097Y-101615165D01*
X119904860Y-101526173D01*
X119927348Y-101503764D01*
X119996090Y-101435261D01*
X120063096Y-101368489D01*
X120099025Y-101318489D01*
X120193453Y-101187077D01*
X120194640Y-101187930D01*
X120241960Y-101144362D01*
X120311897Y-101132145D01*
X120377338Y-101159678D01*
G37*
G04 #@! TD.AperFunction*
G04 #@! TA.AperFunction,NonConductor*
G36*
X109602026Y-103775144D02*
G01*
X109629875Y-103806994D01*
X109656906Y-103851105D01*
X109689987Y-103905088D01*
X109693364Y-103908986D01*
X109693368Y-103908992D01*
X109701563Y-103918452D01*
X109709282Y-103927362D01*
X109738765Y-103991946D01*
X109728651Y-104062218D01*
X109703140Y-104098955D01*
X109247388Y-104554707D01*
X109185076Y-104588733D01*
X109114261Y-104583668D01*
X109080201Y-104564494D01*
X109052389Y-104542530D01*
X109004359Y-104504598D01*
X108963053Y-104481796D01*
X108913084Y-104431364D01*
X108898312Y-104361921D01*
X108923428Y-104295516D01*
X108950780Y-104268909D01*
X108996757Y-104236114D01*
X109129860Y-104141173D01*
X109288096Y-103983489D01*
X109347594Y-103900689D01*
X109418453Y-103802077D01*
X109419776Y-103803028D01*
X109466645Y-103759857D01*
X109536580Y-103747625D01*
X109602026Y-103775144D01*
G37*
G04 #@! TD.AperFunction*
G04 #@! TA.AperFunction,NonConductor*
G36*
X142710239Y-103890584D02*
G01*
X142767000Y-103933230D01*
X142791694Y-103999794D01*
X142792000Y-104008563D01*
X142792000Y-104480657D01*
X142771998Y-104548778D01*
X142718342Y-104595271D01*
X142648068Y-104605375D01*
X142583488Y-104575881D01*
X142572806Y-104565456D01*
X142533151Y-104521876D01*
X142533148Y-104521873D01*
X142529670Y-104518051D01*
X142525619Y-104514852D01*
X142525615Y-104514848D01*
X142358414Y-104382800D01*
X142358410Y-104382798D01*
X142354359Y-104379598D01*
X142313053Y-104356796D01*
X142263084Y-104306364D01*
X142248312Y-104236921D01*
X142273428Y-104170516D01*
X142300780Y-104143909D01*
X142363803Y-104098955D01*
X142479860Y-104016173D01*
X142577060Y-103919312D01*
X142639432Y-103885396D01*
X142710239Y-103890584D01*
G37*
G04 #@! TD.AperFunction*
G04 #@! TA.AperFunction,NonConductor*
G36*
X116483026Y-102558302D02*
G01*
X116504001Y-102575205D01*
X117346053Y-103417258D01*
X117353587Y-103425537D01*
X117357700Y-103432018D01*
X117397716Y-103469595D01*
X117407351Y-103478643D01*
X117410193Y-103481398D01*
X117429930Y-103501135D01*
X117433127Y-103503615D01*
X117442147Y-103511318D01*
X117474379Y-103541586D01*
X117481325Y-103545405D01*
X117481328Y-103545407D01*
X117492134Y-103551348D01*
X117508653Y-103562199D01*
X117524659Y-103574614D01*
X117531928Y-103577759D01*
X117531932Y-103577762D01*
X117565237Y-103592174D01*
X117575887Y-103597391D01*
X117614640Y-103618695D01*
X117622315Y-103620666D01*
X117622316Y-103620666D01*
X117634262Y-103623733D01*
X117652967Y-103630137D01*
X117671555Y-103638181D01*
X117679378Y-103639420D01*
X117679388Y-103639423D01*
X117715224Y-103645099D01*
X117726844Y-103647505D01*
X117761985Y-103656527D01*
X117764336Y-103657130D01*
X117764337Y-103657131D01*
X117769669Y-103658500D01*
X117769448Y-103659360D01*
X117828425Y-103685077D01*
X117854996Y-103715873D01*
X117922287Y-103825683D01*
X117922291Y-103825688D01*
X117924987Y-103830088D01*
X118071250Y-103998938D01*
X118243126Y-104141632D01*
X118250423Y-104145896D01*
X118316445Y-104184476D01*
X118365169Y-104236114D01*
X118378240Y-104305897D01*
X118351509Y-104371669D01*
X118311055Y-104405027D01*
X118298607Y-104411507D01*
X118294474Y-104414610D01*
X118294471Y-104414612D01*
X118174621Y-104504598D01*
X118119965Y-104545635D01*
X118016617Y-104653782D01*
X117955095Y-104689211D01*
X117884183Y-104685754D01*
X117836429Y-104655825D01*
X117577243Y-104396638D01*
X117233147Y-104052542D01*
X117225613Y-104044263D01*
X117221500Y-104037782D01*
X117171848Y-103991156D01*
X117169007Y-103988402D01*
X117149270Y-103968665D01*
X117146073Y-103966185D01*
X117137051Y-103958480D01*
X117110600Y-103933641D01*
X117104821Y-103928214D01*
X117097875Y-103924395D01*
X117097872Y-103924393D01*
X117087066Y-103918452D01*
X117070547Y-103907601D01*
X117067307Y-103905088D01*
X117054541Y-103895186D01*
X117047272Y-103892041D01*
X117047268Y-103892038D01*
X117013963Y-103877626D01*
X117003313Y-103872409D01*
X116964560Y-103851105D01*
X116944937Y-103846067D01*
X116926234Y-103839663D01*
X116914920Y-103834767D01*
X116914919Y-103834767D01*
X116907645Y-103831619D01*
X116899822Y-103830380D01*
X116899812Y-103830377D01*
X116863976Y-103824701D01*
X116852356Y-103822295D01*
X116817211Y-103813272D01*
X116817210Y-103813272D01*
X116809530Y-103811300D01*
X116789276Y-103811300D01*
X116769565Y-103809749D01*
X116757386Y-103807820D01*
X116749557Y-103806580D01*
X116741665Y-103807326D01*
X116705539Y-103810741D01*
X116693681Y-103811300D01*
X112156716Y-103811300D01*
X112088595Y-103791298D01*
X112042102Y-103737642D01*
X112031998Y-103667368D01*
X112043758Y-103629474D01*
X112045377Y-103626199D01*
X112057430Y-103601811D01*
X112122370Y-103388069D01*
X112151529Y-103166590D01*
X112153156Y-103100000D01*
X112134852Y-102877361D01*
X112089045Y-102694996D01*
X112091849Y-102624054D01*
X112132562Y-102565891D01*
X112198257Y-102538972D01*
X112211249Y-102538300D01*
X116414905Y-102538300D01*
X116483026Y-102558302D01*
G37*
G04 #@! TD.AperFunction*
G04 #@! TA.AperFunction,NonConductor*
G36*
X123017127Y-104853802D02*
G01*
X123038101Y-104870705D01*
X123284161Y-105116765D01*
X123318187Y-105179077D01*
X123313122Y-105249892D01*
X123270575Y-105306728D01*
X123204055Y-105331539D01*
X123195066Y-105331860D01*
X123005479Y-105331860D01*
X122937358Y-105311858D01*
X122890865Y-105258202D01*
X122883275Y-105236555D01*
X122882884Y-105234996D01*
X122855431Y-105125702D01*
X122805140Y-105010041D01*
X122796320Y-104939596D01*
X122826987Y-104875564D01*
X122887403Y-104838276D01*
X122920690Y-104833800D01*
X122949006Y-104833800D01*
X123017127Y-104853802D01*
G37*
G04 #@! TD.AperFunction*
G04 #@! TA.AperFunction,NonConductor*
G36*
X142710239Y-106430584D02*
G01*
X142767000Y-106473230D01*
X142791694Y-106539794D01*
X142792000Y-106548563D01*
X142792000Y-107020657D01*
X142771998Y-107088778D01*
X142718342Y-107135271D01*
X142648068Y-107145375D01*
X142583488Y-107115881D01*
X142572806Y-107105456D01*
X142533151Y-107061876D01*
X142533148Y-107061873D01*
X142529670Y-107058051D01*
X142525619Y-107054852D01*
X142525615Y-107054848D01*
X142358414Y-106922800D01*
X142358410Y-106922798D01*
X142354359Y-106919598D01*
X142313053Y-106896796D01*
X142263084Y-106846364D01*
X142248312Y-106776921D01*
X142273428Y-106710516D01*
X142300780Y-106683909D01*
X142344603Y-106652650D01*
X142479860Y-106556173D01*
X142577060Y-106459312D01*
X142639432Y-106425396D01*
X142710239Y-106430584D01*
G37*
G04 #@! TD.AperFunction*
G04 #@! TA.AperFunction,NonConductor*
G36*
X116483026Y-105098302D02*
G01*
X116504001Y-105115205D01*
X117346053Y-105957258D01*
X117353587Y-105965537D01*
X117357700Y-105972018D01*
X117390352Y-106002680D01*
X117407351Y-106018643D01*
X117410193Y-106021398D01*
X117429930Y-106041135D01*
X117433127Y-106043615D01*
X117442149Y-106051320D01*
X117470933Y-106078350D01*
X117506898Y-106139563D01*
X117504060Y-106210503D01*
X117463320Y-106268647D01*
X117397612Y-106295535D01*
X117384680Y-106296200D01*
X113294367Y-106296200D01*
X113283184Y-106295673D01*
X113275691Y-106293998D01*
X113267765Y-106294247D01*
X113267764Y-106294247D01*
X113207614Y-106296138D01*
X113203655Y-106296200D01*
X113175744Y-106296200D01*
X113171810Y-106296697D01*
X113171809Y-106296697D01*
X113171744Y-106296705D01*
X113159907Y-106297638D01*
X113128090Y-106298638D01*
X113123629Y-106298778D01*
X113115710Y-106299027D01*
X113098054Y-106304156D01*
X113096258Y-106304678D01*
X113076906Y-106308686D01*
X113069835Y-106309580D01*
X113056803Y-106311226D01*
X113049434Y-106314143D01*
X113049432Y-106314144D01*
X113015697Y-106327500D01*
X113004469Y-106331345D01*
X112962007Y-106343682D01*
X112955185Y-106347716D01*
X112955179Y-106347719D01*
X112944568Y-106353994D01*
X112926818Y-106362690D01*
X112915356Y-106367228D01*
X112915351Y-106367231D01*
X112907983Y-106370148D01*
X112901568Y-106374809D01*
X112872225Y-106396127D01*
X112862307Y-106402643D01*
X112843619Y-106413695D01*
X112824237Y-106425158D01*
X112809913Y-106439482D01*
X112794881Y-106452321D01*
X112778493Y-106464228D01*
X112750312Y-106498293D01*
X112742322Y-106507073D01*
X111978229Y-107271166D01*
X111915917Y-107305192D01*
X111845102Y-107300127D01*
X111795940Y-107266870D01*
X111723151Y-107186876D01*
X111723148Y-107186873D01*
X111719670Y-107183051D01*
X111715619Y-107179852D01*
X111715615Y-107179848D01*
X111548414Y-107047800D01*
X111548410Y-107047798D01*
X111544359Y-107044598D01*
X111503053Y-107021796D01*
X111453084Y-106971364D01*
X111438312Y-106901921D01*
X111463428Y-106835516D01*
X111490780Y-106808909D01*
X111535625Y-106776921D01*
X111669860Y-106681173D01*
X111828096Y-106523489D01*
X111887594Y-106440689D01*
X111955435Y-106346277D01*
X111958453Y-106342077D01*
X111964576Y-106329689D01*
X112055136Y-106146453D01*
X112055137Y-106146451D01*
X112057430Y-106141811D01*
X112122370Y-105928069D01*
X112151529Y-105706590D01*
X112153156Y-105640000D01*
X112134852Y-105417361D01*
X112089045Y-105234996D01*
X112091849Y-105164054D01*
X112132562Y-105105891D01*
X112198257Y-105078972D01*
X112211249Y-105078300D01*
X116414905Y-105078300D01*
X116483026Y-105098302D01*
G37*
G04 #@! TD.AperFunction*
G04 #@! TA.AperFunction,NonConductor*
G36*
X109602026Y-106315144D02*
G01*
X109629875Y-106346994D01*
X109644064Y-106370148D01*
X109689987Y-106445088D01*
X109836250Y-106613938D01*
X110008126Y-106756632D01*
X110078595Y-106797811D01*
X110081445Y-106799476D01*
X110130169Y-106851114D01*
X110143240Y-106920897D01*
X110116509Y-106986669D01*
X110076055Y-107020027D01*
X110063607Y-107026507D01*
X110059474Y-107029610D01*
X110059471Y-107029612D01*
X109905289Y-107145375D01*
X109884965Y-107160635D01*
X109730629Y-107322138D01*
X109727715Y-107326410D01*
X109727714Y-107326411D01*
X109622898Y-107480066D01*
X109567987Y-107525069D01*
X109497462Y-107533240D01*
X109433715Y-107501986D01*
X109413018Y-107477502D01*
X109332426Y-107352926D01*
X109326136Y-107344757D01*
X109182806Y-107187240D01*
X109175273Y-107180215D01*
X109008139Y-107048222D01*
X108999556Y-107042520D01*
X108962602Y-107022120D01*
X108912631Y-106971687D01*
X108897859Y-106902245D01*
X108922975Y-106835839D01*
X108950327Y-106809232D01*
X108995625Y-106776921D01*
X109129860Y-106681173D01*
X109288096Y-106523489D01*
X109347594Y-106440689D01*
X109418453Y-106342077D01*
X109419776Y-106343028D01*
X109466645Y-106299857D01*
X109536580Y-106287625D01*
X109602026Y-106315144D01*
G37*
G04 #@! TD.AperFunction*
G04 #@! TA.AperFunction,NonConductor*
G36*
X142710239Y-108970584D02*
G01*
X142767000Y-109013230D01*
X142791694Y-109079794D01*
X142792000Y-109088563D01*
X142792000Y-109316000D01*
X142771998Y-109384121D01*
X142718342Y-109430614D01*
X142666000Y-109442000D01*
X142388651Y-109442000D01*
X142320530Y-109421998D01*
X142274037Y-109368342D01*
X142263933Y-109298068D01*
X142293427Y-109233488D01*
X142315483Y-109213421D01*
X142324188Y-109207212D01*
X142479860Y-109096173D01*
X142577060Y-108999312D01*
X142639432Y-108965396D01*
X142710239Y-108970584D01*
G37*
G04 #@! TD.AperFunction*
G04 #@! TA.AperFunction,NonConductor*
G36*
X140411751Y-108729678D02*
G01*
X140439579Y-108761511D01*
X140499987Y-108860088D01*
X140646250Y-109028938D01*
X140818126Y-109171632D01*
X140867825Y-109200674D01*
X140879014Y-109207212D01*
X140927738Y-109258851D01*
X140940809Y-109328634D01*
X140914078Y-109394405D01*
X140856031Y-109435284D01*
X140815444Y-109442000D01*
X139847790Y-109442000D01*
X139779669Y-109421998D01*
X139733176Y-109368342D01*
X139723072Y-109298068D01*
X139752566Y-109233488D01*
X139774622Y-109213421D01*
X139935328Y-109098792D01*
X139943200Y-109092139D01*
X140094052Y-108941812D01*
X140100730Y-108933965D01*
X140228022Y-108756819D01*
X140229279Y-108757722D01*
X140276373Y-108714362D01*
X140346311Y-108702145D01*
X140411751Y-108729678D01*
G37*
G04 #@! TD.AperFunction*
G04 #@! TA.AperFunction,NonConductor*
G36*
X120376751Y-108779678D02*
G01*
X120404579Y-108811511D01*
X120464987Y-108910088D01*
X120611250Y-109078938D01*
X120783126Y-109221632D01*
X120846819Y-109258851D01*
X120856445Y-109264476D01*
X120905169Y-109316114D01*
X120918240Y-109385897D01*
X120891509Y-109451669D01*
X120851055Y-109485027D01*
X120838607Y-109491507D01*
X120834474Y-109494610D01*
X120834471Y-109494612D01*
X120667270Y-109620150D01*
X120659965Y-109625635D01*
X120619262Y-109668228D01*
X120586286Y-109702736D01*
X120505629Y-109787138D01*
X120398201Y-109944621D01*
X120343293Y-109989621D01*
X120272768Y-109997792D01*
X120209021Y-109966538D01*
X120188324Y-109942054D01*
X120107822Y-109817617D01*
X120107820Y-109817614D01*
X120105014Y-109813277D01*
X119954670Y-109648051D01*
X119950619Y-109644852D01*
X119950615Y-109644848D01*
X119783414Y-109512800D01*
X119783410Y-109512798D01*
X119779359Y-109509598D01*
X119737569Y-109486529D01*
X119687598Y-109436097D01*
X119672826Y-109366654D01*
X119697942Y-109300248D01*
X119725294Y-109273641D01*
X119900328Y-109148792D01*
X119908200Y-109142139D01*
X120059052Y-108991812D01*
X120065730Y-108983965D01*
X120193022Y-108806819D01*
X120194279Y-108807722D01*
X120241373Y-108764362D01*
X120311311Y-108752145D01*
X120376751Y-108779678D01*
G37*
G04 #@! TD.AperFunction*
G04 #@! TA.AperFunction,NonConductor*
G36*
X109601751Y-108854678D02*
G01*
X109629579Y-108886511D01*
X109689987Y-108985088D01*
X109836250Y-109153938D01*
X110008126Y-109296632D01*
X110055259Y-109324174D01*
X110081445Y-109339476D01*
X110130169Y-109391114D01*
X110143240Y-109460897D01*
X110116509Y-109526669D01*
X110076055Y-109560027D01*
X110063607Y-109566507D01*
X110059474Y-109569610D01*
X110059471Y-109569612D01*
X109889100Y-109697530D01*
X109884965Y-109700635D01*
X109730629Y-109862138D01*
X109623201Y-110019621D01*
X109568293Y-110064621D01*
X109497768Y-110072792D01*
X109434021Y-110041538D01*
X109413324Y-110017054D01*
X109332822Y-109892617D01*
X109332820Y-109892614D01*
X109330014Y-109888277D01*
X109179670Y-109723051D01*
X109175619Y-109719852D01*
X109175615Y-109719848D01*
X109008414Y-109587800D01*
X109008410Y-109587798D01*
X109004359Y-109584598D01*
X108998378Y-109581296D01*
X108967259Y-109564118D01*
X108962569Y-109561529D01*
X108912598Y-109511097D01*
X108897826Y-109441654D01*
X108922942Y-109375248D01*
X108950294Y-109348641D01*
X109125328Y-109223792D01*
X109133200Y-109217139D01*
X109284052Y-109066812D01*
X109290730Y-109058965D01*
X109418022Y-108881819D01*
X109419279Y-108882722D01*
X109466373Y-108839362D01*
X109536311Y-108827145D01*
X109601751Y-108854678D01*
G37*
G04 #@! TD.AperFunction*
G04 #@! TA.AperFunction,NonConductor*
G36*
X109602026Y-111395144D02*
G01*
X109629875Y-111426994D01*
X109640157Y-111443773D01*
X109689987Y-111525088D01*
X109693364Y-111528986D01*
X109693368Y-111528992D01*
X109701563Y-111538452D01*
X109709282Y-111547362D01*
X109738765Y-111611946D01*
X109728651Y-111682218D01*
X109703140Y-111718955D01*
X109247388Y-112174707D01*
X109185076Y-112208733D01*
X109114261Y-112203668D01*
X109080201Y-112184494D01*
X109052389Y-112162530D01*
X109004359Y-112124598D01*
X108963053Y-112101796D01*
X108913084Y-112051364D01*
X108898312Y-111981921D01*
X108923428Y-111915516D01*
X108950780Y-111888909D01*
X109018172Y-111840839D01*
X109129860Y-111761173D01*
X109288096Y-111603489D01*
X109345005Y-111524292D01*
X109418453Y-111422077D01*
X109419776Y-111423028D01*
X109466645Y-111379857D01*
X109536580Y-111367625D01*
X109602026Y-111395144D01*
G37*
G04 #@! TD.AperFunction*
G04 #@! TA.AperFunction,NonConductor*
G36*
X120377026Y-111320144D02*
G01*
X120404875Y-111351994D01*
X120464987Y-111450088D01*
X120611250Y-111618938D01*
X120783126Y-111761632D01*
X120856445Y-111804476D01*
X120856955Y-111804774D01*
X120905679Y-111856412D01*
X120918750Y-111926195D01*
X120892019Y-111991967D01*
X120851562Y-112025327D01*
X120843457Y-112029546D01*
X120834738Y-112035036D01*
X120664433Y-112162905D01*
X120656726Y-112169748D01*
X120509590Y-112323717D01*
X120503109Y-112331722D01*
X120398498Y-112485074D01*
X120343587Y-112530076D01*
X120273062Y-112538247D01*
X120209315Y-112506993D01*
X120188618Y-112482509D01*
X120107822Y-112357617D01*
X120107820Y-112357614D01*
X120105014Y-112353277D01*
X119954670Y-112188051D01*
X119950619Y-112184852D01*
X119950615Y-112184848D01*
X119783414Y-112052800D01*
X119783410Y-112052798D01*
X119779359Y-112049598D01*
X119738053Y-112026796D01*
X119688084Y-111976364D01*
X119673312Y-111906921D01*
X119698428Y-111840516D01*
X119725780Y-111813909D01*
X119769603Y-111782650D01*
X119904860Y-111686173D01*
X119927348Y-111663764D01*
X119992045Y-111599292D01*
X120063096Y-111528489D01*
X120109723Y-111463601D01*
X120193453Y-111347077D01*
X120194776Y-111348028D01*
X120241645Y-111304857D01*
X120311580Y-111292625D01*
X120377026Y-111320144D01*
G37*
G04 #@! TD.AperFunction*
G04 #@! TA.AperFunction,NonConductor*
G36*
X120377338Y-113859678D02*
G01*
X120405166Y-113891511D01*
X120462694Y-113985388D01*
X120468777Y-113993699D01*
X120608213Y-114154667D01*
X120615580Y-114161883D01*
X120779434Y-114297916D01*
X120787881Y-114303831D01*
X120856969Y-114344203D01*
X120905693Y-114395842D01*
X120918764Y-114465625D01*
X120892033Y-114531396D01*
X120851584Y-114564752D01*
X120838607Y-114571507D01*
X120834474Y-114574610D01*
X120834471Y-114574612D01*
X120664100Y-114702530D01*
X120659965Y-114705635D01*
X120505629Y-114867138D01*
X120398201Y-115024621D01*
X120343293Y-115069621D01*
X120272768Y-115077792D01*
X120209021Y-115046538D01*
X120188324Y-115022054D01*
X120107822Y-114897617D01*
X120107820Y-114897614D01*
X120105014Y-114893277D01*
X119954670Y-114728051D01*
X119950619Y-114724852D01*
X119950615Y-114724848D01*
X119783414Y-114592800D01*
X119783410Y-114592798D01*
X119779359Y-114589598D01*
X119738053Y-114566796D01*
X119688084Y-114516364D01*
X119673312Y-114446921D01*
X119698428Y-114380516D01*
X119725780Y-114353909D01*
X119769603Y-114322650D01*
X119904860Y-114226173D01*
X120063096Y-114068489D01*
X120193453Y-113887077D01*
X120194640Y-113887930D01*
X120241960Y-113844362D01*
X120311897Y-113832145D01*
X120377338Y-113859678D01*
G37*
G04 #@! TD.AperFunction*
G04 #@! TA.AperFunction,NonConductor*
G36*
X109602338Y-113934678D02*
G01*
X109630166Y-113966511D01*
X109687694Y-114060388D01*
X109693777Y-114068699D01*
X109833213Y-114229667D01*
X109840580Y-114236883D01*
X110004434Y-114372916D01*
X110012881Y-114378831D01*
X110081969Y-114419203D01*
X110130693Y-114470842D01*
X110143764Y-114540625D01*
X110117033Y-114606396D01*
X110076584Y-114639752D01*
X110063607Y-114646507D01*
X110059474Y-114649610D01*
X110059471Y-114649612D01*
X109889100Y-114777530D01*
X109884965Y-114780635D01*
X109730629Y-114942138D01*
X109623201Y-115099621D01*
X109568293Y-115144621D01*
X109497768Y-115152792D01*
X109434021Y-115121538D01*
X109413324Y-115097054D01*
X109332822Y-114972617D01*
X109332820Y-114972614D01*
X109330014Y-114968277D01*
X109179670Y-114803051D01*
X109175619Y-114799852D01*
X109175615Y-114799848D01*
X109008414Y-114667800D01*
X109008410Y-114667798D01*
X109004359Y-114664598D01*
X108963053Y-114641796D01*
X108913084Y-114591364D01*
X108898312Y-114521921D01*
X108923428Y-114455516D01*
X108950780Y-114428909D01*
X108997138Y-114395842D01*
X109129860Y-114301173D01*
X109288096Y-114143489D01*
X109345005Y-114064292D01*
X109418453Y-113962077D01*
X109419640Y-113962930D01*
X109466960Y-113919362D01*
X109536897Y-113907145D01*
X109602338Y-113934678D01*
G37*
G04 #@! TD.AperFunction*
G04 #@! TA.AperFunction,NonConductor*
G36*
X109602026Y-116475144D02*
G01*
X109629875Y-116506994D01*
X109640157Y-116523773D01*
X109689987Y-116605088D01*
X109693364Y-116608986D01*
X109693368Y-116608992D01*
X109701563Y-116618452D01*
X109709282Y-116627362D01*
X109738765Y-116691946D01*
X109728651Y-116762218D01*
X109703140Y-116798955D01*
X109247388Y-117254707D01*
X109185076Y-117288733D01*
X109114261Y-117283668D01*
X109080201Y-117264494D01*
X109052389Y-117242530D01*
X109004359Y-117204598D01*
X108963053Y-117181796D01*
X108913084Y-117131364D01*
X108898312Y-117061921D01*
X108923428Y-116995516D01*
X108950780Y-116968909D01*
X109018172Y-116920839D01*
X109129860Y-116841173D01*
X109288096Y-116683489D01*
X109345005Y-116604292D01*
X109418453Y-116502077D01*
X109419776Y-116503028D01*
X109466645Y-116459857D01*
X109536580Y-116447625D01*
X109602026Y-116475144D01*
G37*
G04 #@! TD.AperFunction*
G04 #@! TA.AperFunction,NonConductor*
G36*
X120377026Y-116400144D02*
G01*
X120404875Y-116431994D01*
X120464987Y-116530088D01*
X120611250Y-116698938D01*
X120783126Y-116841632D01*
X120856445Y-116884476D01*
X120856955Y-116884774D01*
X120905679Y-116936412D01*
X120918750Y-117006195D01*
X120892019Y-117071967D01*
X120851562Y-117105327D01*
X120843457Y-117109546D01*
X120834738Y-117115036D01*
X120664433Y-117242905D01*
X120656726Y-117249748D01*
X120509590Y-117403717D01*
X120503109Y-117411722D01*
X120398498Y-117565074D01*
X120343587Y-117610076D01*
X120273062Y-117618247D01*
X120209315Y-117586993D01*
X120188618Y-117562509D01*
X120107822Y-117437617D01*
X120107820Y-117437614D01*
X120105014Y-117433277D01*
X119954670Y-117268051D01*
X119950619Y-117264852D01*
X119950615Y-117264848D01*
X119783414Y-117132800D01*
X119783410Y-117132798D01*
X119779359Y-117129598D01*
X119738053Y-117106796D01*
X119688084Y-117056364D01*
X119673312Y-116986921D01*
X119698428Y-116920516D01*
X119725780Y-116893909D01*
X119769603Y-116862650D01*
X119904860Y-116766173D01*
X119927348Y-116743764D01*
X119992045Y-116679292D01*
X120063096Y-116608489D01*
X120109723Y-116543601D01*
X120193453Y-116427077D01*
X120194776Y-116428028D01*
X120241645Y-116384857D01*
X120311580Y-116372625D01*
X120377026Y-116400144D01*
G37*
G04 #@! TD.AperFunction*
G04 #@! TA.AperFunction,NonConductor*
G36*
X117259527Y-120283202D02*
G01*
X117306020Y-120336858D01*
X117316124Y-120407132D01*
X117286630Y-120471712D01*
X117280516Y-120478280D01*
X116369998Y-121388797D01*
X116307688Y-121422821D01*
X116280905Y-121425700D01*
X112619694Y-121425700D01*
X112551573Y-121405698D01*
X112505080Y-121352042D01*
X112494976Y-121281768D01*
X112524470Y-121217188D01*
X112530599Y-121210605D01*
X113441099Y-120300105D01*
X113503411Y-120266079D01*
X113530194Y-120263200D01*
X117191406Y-120263200D01*
X117259527Y-120283202D01*
G37*
G04 #@! TD.AperFunction*
G04 #@! TA.AperFunction,NonConductor*
G36*
X120377026Y-121480144D02*
G01*
X120404875Y-121511994D01*
X120464987Y-121610088D01*
X120611250Y-121778938D01*
X120783126Y-121921632D01*
X120853595Y-121962811D01*
X120856445Y-121964476D01*
X120905169Y-122016114D01*
X120918240Y-122085897D01*
X120891509Y-122151669D01*
X120851055Y-122185027D01*
X120838607Y-122191507D01*
X120834474Y-122194610D01*
X120834471Y-122194612D01*
X120664100Y-122322530D01*
X120659965Y-122325635D01*
X120656393Y-122329373D01*
X120533763Y-122457698D01*
X120505629Y-122487138D01*
X120398201Y-122644621D01*
X120343293Y-122689621D01*
X120272768Y-122697792D01*
X120209021Y-122666538D01*
X120188324Y-122642054D01*
X120107822Y-122517617D01*
X120107820Y-122517614D01*
X120105014Y-122513277D01*
X119954670Y-122348051D01*
X119950619Y-122344852D01*
X119950615Y-122344848D01*
X119783414Y-122212800D01*
X119783410Y-122212798D01*
X119779359Y-122209598D01*
X119738053Y-122186796D01*
X119688084Y-122136364D01*
X119673312Y-122066921D01*
X119698428Y-122000516D01*
X119725780Y-121973909D01*
X119788349Y-121929279D01*
X119904860Y-121846173D01*
X120063096Y-121688489D01*
X120193453Y-121507077D01*
X120194776Y-121508028D01*
X120241645Y-121464857D01*
X120311580Y-121452625D01*
X120377026Y-121480144D01*
G37*
G04 #@! TD.AperFunction*
G04 #@! TA.AperFunction,NonConductor*
G36*
X109221950Y-121945962D02*
G01*
X109248131Y-121966036D01*
X109702861Y-122420766D01*
X109736887Y-122483078D01*
X109731822Y-122553893D01*
X109717857Y-122580861D01*
X109623201Y-122719621D01*
X109568293Y-122764621D01*
X109497769Y-122772792D01*
X109434022Y-122741538D01*
X109413324Y-122717054D01*
X109332822Y-122592617D01*
X109332820Y-122592614D01*
X109330014Y-122588277D01*
X109179670Y-122423051D01*
X109175619Y-122419852D01*
X109175615Y-122419848D01*
X109008414Y-122287800D01*
X109008410Y-122287798D01*
X109004359Y-122284598D01*
X108963053Y-122261796D01*
X108913084Y-122211364D01*
X108898312Y-122141921D01*
X108923428Y-122075516D01*
X108950780Y-122048909D01*
X109085868Y-121952552D01*
X109152941Y-121929279D01*
X109221950Y-121945962D01*
G37*
G04 #@! TD.AperFunction*
G04 #@! TA.AperFunction,NonConductor*
G36*
X120377026Y-124020144D02*
G01*
X120404875Y-124051994D01*
X120464987Y-124150088D01*
X120611250Y-124318938D01*
X120783126Y-124461632D01*
X120840746Y-124495302D01*
X120856445Y-124504476D01*
X120905169Y-124556114D01*
X120918240Y-124625897D01*
X120891509Y-124691669D01*
X120851055Y-124725027D01*
X120838607Y-124731507D01*
X120834474Y-124734610D01*
X120834471Y-124734612D01*
X120732364Y-124811276D01*
X120665879Y-124836182D01*
X120596483Y-124821189D01*
X120567616Y-124799611D01*
X120110941Y-124342936D01*
X120076915Y-124280624D01*
X120081980Y-124209809D01*
X120097713Y-124180315D01*
X120193453Y-124047077D01*
X120194776Y-124048028D01*
X120241645Y-124004857D01*
X120311580Y-123992625D01*
X120377026Y-124020144D01*
G37*
G04 #@! TD.AperFunction*
G04 #@! TA.AperFunction,NonConductor*
G36*
X117969612Y-121685158D02*
G01*
X118020815Y-121720715D01*
X118071250Y-121778938D01*
X118243126Y-121921632D01*
X118313595Y-121962811D01*
X118316445Y-121964476D01*
X118365169Y-122016114D01*
X118378240Y-122085897D01*
X118351509Y-122151669D01*
X118311055Y-122185027D01*
X118298607Y-122191507D01*
X118294474Y-122194610D01*
X118294471Y-122194612D01*
X118124100Y-122322530D01*
X118119965Y-122325635D01*
X118116393Y-122329373D01*
X117993763Y-122457698D01*
X117965629Y-122487138D01*
X117839743Y-122671680D01*
X117745688Y-122874305D01*
X117685989Y-123089570D01*
X117662251Y-123311695D01*
X117662548Y-123316848D01*
X117662548Y-123316851D01*
X117673998Y-123515429D01*
X117675110Y-123534715D01*
X117676247Y-123539761D01*
X117676248Y-123539767D01*
X117692012Y-123609715D01*
X117724222Y-123752639D01*
X117762461Y-123846811D01*
X117785194Y-123902796D01*
X117792290Y-123973437D01*
X117760068Y-124036701D01*
X117698758Y-124072501D01*
X117668451Y-124076200D01*
X113294367Y-124076200D01*
X113283184Y-124075673D01*
X113275691Y-124073998D01*
X113267765Y-124074247D01*
X113267764Y-124074247D01*
X113207614Y-124076138D01*
X113203655Y-124076200D01*
X113175744Y-124076200D01*
X113171810Y-124076697D01*
X113171809Y-124076697D01*
X113171744Y-124076705D01*
X113159907Y-124077638D01*
X113128090Y-124078638D01*
X113123629Y-124078778D01*
X113115710Y-124079027D01*
X113098054Y-124084156D01*
X113096258Y-124084678D01*
X113076906Y-124088686D01*
X113069835Y-124089580D01*
X113056803Y-124091226D01*
X113049434Y-124094143D01*
X113049432Y-124094144D01*
X113015697Y-124107500D01*
X113004469Y-124111345D01*
X112962007Y-124123682D01*
X112955185Y-124127716D01*
X112955179Y-124127719D01*
X112944568Y-124133994D01*
X112926818Y-124142690D01*
X112915356Y-124147228D01*
X112915351Y-124147231D01*
X112907983Y-124150148D01*
X112901568Y-124154809D01*
X112872225Y-124176127D01*
X112862307Y-124182643D01*
X112843619Y-124193695D01*
X112824237Y-124205158D01*
X112809913Y-124219482D01*
X112794881Y-124232321D01*
X112778493Y-124244228D01*
X112755964Y-124271461D01*
X112750312Y-124278293D01*
X112742322Y-124287073D01*
X111978229Y-125051166D01*
X111915917Y-125085192D01*
X111845102Y-125080127D01*
X111795940Y-125046870D01*
X111723151Y-124966876D01*
X111723148Y-124966873D01*
X111719670Y-124963051D01*
X111715619Y-124959852D01*
X111715615Y-124959848D01*
X111548414Y-124827800D01*
X111548410Y-124827798D01*
X111544359Y-124824598D01*
X111503053Y-124801796D01*
X111453084Y-124751364D01*
X111438312Y-124681921D01*
X111463428Y-124615516D01*
X111490780Y-124588909D01*
X111536757Y-124556114D01*
X111669860Y-124461173D01*
X111828096Y-124303489D01*
X111885005Y-124224292D01*
X111955435Y-124126277D01*
X111958453Y-124122077D01*
X111964576Y-124109689D01*
X112055136Y-123926453D01*
X112055137Y-123926451D01*
X112057430Y-123921811D01*
X112089900Y-123814940D01*
X112120865Y-123713023D01*
X112120865Y-123713021D01*
X112122370Y-123708069D01*
X112151529Y-123486590D01*
X112153156Y-123420000D01*
X112134852Y-123197361D01*
X112080431Y-122980702D01*
X112031836Y-122868942D01*
X112023016Y-122798496D01*
X112053683Y-122734464D01*
X112114100Y-122697176D01*
X112147386Y-122692700D01*
X116516733Y-122692700D01*
X116527916Y-122693227D01*
X116535409Y-122694902D01*
X116543335Y-122694653D01*
X116543336Y-122694653D01*
X116603486Y-122692762D01*
X116607445Y-122692700D01*
X116635356Y-122692700D01*
X116639291Y-122692203D01*
X116639356Y-122692195D01*
X116651193Y-122691262D01*
X116683451Y-122690248D01*
X116687470Y-122690122D01*
X116695389Y-122689873D01*
X116714843Y-122684221D01*
X116734200Y-122680213D01*
X116746430Y-122678668D01*
X116746431Y-122678668D01*
X116754297Y-122677674D01*
X116761668Y-122674755D01*
X116761670Y-122674755D01*
X116795412Y-122661396D01*
X116806642Y-122657551D01*
X116841483Y-122647429D01*
X116841484Y-122647429D01*
X116849093Y-122645218D01*
X116855912Y-122641185D01*
X116855917Y-122641183D01*
X116866528Y-122634907D01*
X116884276Y-122626212D01*
X116903117Y-122618752D01*
X116938887Y-122592764D01*
X116948807Y-122586248D01*
X116980035Y-122567780D01*
X116980038Y-122567778D01*
X116986862Y-122563742D01*
X117001183Y-122549421D01*
X117016217Y-122536580D01*
X117026194Y-122529331D01*
X117032607Y-122524672D01*
X117060798Y-122490595D01*
X117068788Y-122481816D01*
X117836485Y-121714119D01*
X117898797Y-121680093D01*
X117969612Y-121685158D01*
G37*
G04 #@! TD.AperFunction*
G04 #@! TA.AperFunction,NonConductor*
G36*
X109602026Y-124095144D02*
G01*
X109629875Y-124126994D01*
X109639494Y-124142690D01*
X109689987Y-124225088D01*
X109836250Y-124393938D01*
X110008126Y-124536632D01*
X110014773Y-124540516D01*
X110081445Y-124579476D01*
X110130169Y-124631114D01*
X110143240Y-124700897D01*
X110116509Y-124766669D01*
X110076055Y-124800027D01*
X110063607Y-124806507D01*
X110059474Y-124809610D01*
X110059471Y-124809612D01*
X109889100Y-124937530D01*
X109884965Y-124940635D01*
X109859541Y-124967240D01*
X109736688Y-125095798D01*
X109730629Y-125102138D01*
X109727715Y-125106410D01*
X109727714Y-125106411D01*
X109622898Y-125260066D01*
X109567987Y-125305069D01*
X109497462Y-125313240D01*
X109433715Y-125281986D01*
X109413018Y-125257502D01*
X109332426Y-125132926D01*
X109326136Y-125124757D01*
X109182806Y-124967240D01*
X109175273Y-124960215D01*
X109008139Y-124828222D01*
X108999556Y-124822520D01*
X108962602Y-124802120D01*
X108912631Y-124751687D01*
X108897859Y-124682245D01*
X108922975Y-124615839D01*
X108950327Y-124589232D01*
X108996757Y-124556114D01*
X109129860Y-124461173D01*
X109288096Y-124303489D01*
X109345005Y-124224292D01*
X109418453Y-124122077D01*
X109419776Y-124123028D01*
X109466645Y-124079857D01*
X109536580Y-124067625D01*
X109602026Y-124095144D01*
G37*
G04 #@! TD.AperFunction*
M02*
