  0
SECTION
  2
HEADER
  9
$ANGBASE
  50
0.0
  9
$ANGDIR
  70
1
  9
$MEASUREMENT
  70
1
  0
ENDSEC
  0
SECTION
  2
TABLES
  0
TABLE
  2
LTYPE
  70
4
  0
LTYPE
  5
40F
  2
CONTINUOUS
  70
0
  3
Solid line
  72
65
  73
0
  40
0.0
  0
LTYPE
  5
410
  2
DASHDOT
 70
0
  3
Dash Dot ____ _ ____ _
 72
65
 73
4
 40
2.0
 49
1.25
 49
-0.25
 49
0.25
 49
-0.25
  0
LTYPE
  5
411
  2
DASHED
 70
0
  3
Dashed __ __ __ __ __
 72
65
 73
2
 40
0.75
 49
0.5
 49
-0.25
  0
LTYPE
  5
43B
  2
DOTTED
 70
0
  3
Dotted .  .  .  .
 72
65
 73
2
 40
0.2
 49
0.0
 49
-0.2
  0
ENDTAB
  0
TABLE
  2
STYLE
  70
4
  0
STYLE
  2
KICAD
  70
0
  40
0
  41
1
  42
1
  50
0
  71
0
  3
isocp.shx
  0
STYLE
  2
KICADB
  70
0
  40
0
  41
1
  42
1
  50
0
  71
0
  3
isocp.shx
  0
STYLE
  2
KICADI
  70
0
  40
0
  41
1
  42
1
  50
15
  71
0
  3
isocp.shx
  0
STYLE
  2
KICADBI
  70
0
  40
0
  41
1
  42
1
  50
15
  71
0
  3
isocp.shx
  0
ENDTAB
  0
TABLE
  2
LAYER
  70
1
  0
LAYER
  2
BLACK
  70
0
  62
7
  6
CONTINUOUS
  0
ENDTAB
  0
ENDSEC
  0
SECTION
  2
ENTITIES
0
LINE
8
BLACK
6
CONTINUOUS
10
137
20
-75.6
11
143.3
21
-75.6
0
LINE
8
BLACK
6
CONTINUOUS
10
108.236
20
-73.6
11
137
21
-73.6
0
ARC
8
BLACK
10
132.698
20
-125.598
40
4.30263
50
-89.3027
51
0.635048
0
LINE
8
BLACK
6
CONTINUOUS
10
143.3
20
-109.95
11
137
21
-109.95
0
LINE
8
BLACK
6
CONTINUOUS
10
143.3
20
-75.6
11
143.3
21
-109.95
0
ARC
8
BLACK
10
108.257
20
-125.644
40
4.25682
50
-179.447
51
-88.5874
0
LINE
8
BLACK
6
CONTINUOUS
10
104
20
-125.686
11
104
21
-77.9079
0
LINE
8
BLACK
6
CONTINUOUS
10
132.75
20
-129.9
11
108.362
21
-129.9
0
LINE
8
BLACK
6
CONTINUOUS
10
137
20
-73.6
11
137
21
-75.6
0
ARC
8
BLACK
10
108.189
20
-77.7901
40
4.19032
50
-270.642
51
-178.389
0
LINE
8
BLACK
6
CONTINUOUS
10
137
20
-109.95
11
137
21
-125.55
0
LINE
8
BLACK
6
CONTINUOUS
10
114.855
20
-100.368
11
115.255
21
-100.768
0
LINE
8
BLACK
6
CONTINUOUS
10
115.255
20
-100.368
11
114.855
21
-100.768
0
LINE
8
BLACK
6
CONTINUOUS
10
114.919
20
-113.152
11
115.319
21
-113.552
0
LINE
8
BLACK
6
CONTINUOUS
10
115.319
20
-113.152
11
114.919
21
-113.552
0
LINE
8
BLACK
6
CONTINUOUS
10
115.064
20
-107.978
11
115.464
21
-108.378
0
LINE
8
BLACK
6
CONTINUOUS
10
115.464
20
-107.978
11
115.064
21
-108.378
0
LINE
8
BLACK
6
CONTINUOUS
10
115.138
20
-92.8171
11
115.538
21
-93.2171
0
LINE
8
BLACK
6
CONTINUOUS
10
115.538
20
-92.8171
11
115.138
21
-93.2171
0
LINE
8
BLACK
6
CONTINUOUS
10
116.879
20
-82.6159
11
117.279
21
-83.0159
0
LINE
8
BLACK
6
CONTINUOUS
10
117.279
20
-82.6159
11
116.879
21
-83.0159
0
LINE
8
BLACK
6
CONTINUOUS
10
116.992
20
-117.5
11
117.392
21
-117.9
0
LINE
8
BLACK
6
CONTINUOUS
10
117.392
20
-117.5
11
116.992
21
-117.9
0
LINE
8
BLACK
6
CONTINUOUS
10
123.152
20
-109.741
11
123.552
21
-110.141
0
LINE
8
BLACK
6
CONTINUOUS
10
123.552
20
-109.741
11
123.152
21
-110.141
0
LINE
8
BLACK
6
CONTINUOUS
10
123.563
20
-90.1616
11
123.963
21
-90.5616
0
LINE
8
BLACK
6
CONTINUOUS
10
123.963
20
-90.1616
11
123.563
21
-90.5616
0
LINE
8
BLACK
6
CONTINUOUS
10
125.049
20
-82.0589
11
125.449
21
-82.4589
0
LINE
8
BLACK
6
CONTINUOUS
10
125.449
20
-82.0589
11
125.049
21
-82.4589
0
LINE
8
BLACK
6
CONTINUOUS
10
127.69
20
-120.869
11
128.09
21
-121.269
0
LINE
8
BLACK
6
CONTINUOUS
10
128.09
20
-120.869
11
127.69
21
-121.269
0
LINE
8
BLACK
6
CONTINUOUS
10
128.571
20
-120.21
11
128.971
21
-120.61
0
LINE
8
BLACK
6
CONTINUOUS
10
128.971
20
-120.21
11
128.571
21
-120.61
0
LINE
8
BLACK
6
CONTINUOUS
10
131.299
20
-90.0999
11
131.699
21
-90.4999
0
LINE
8
BLACK
6
CONTINUOUS
10
131.699
20
-90.0999
11
131.299
21
-90.4999
0
LINE
8
BLACK
6
CONTINUOUS
10
131.302
20
-86.9581
11
131.702
21
-87.3581
0
LINE
8
BLACK
6
CONTINUOUS
10
131.702
20
-86.9581
11
131.302
21
-87.3581
0
LINE
8
BLACK
6
CONTINUOUS
10
131.302
20
-87.9324
11
131.702
21
-88.3324
0
LINE
8
BLACK
6
CONTINUOUS
10
131.702
20
-87.9324
11
131.302
21
-88.3324
0
LINE
8
BLACK
6
CONTINUOUS
10
131.314
20
-90.9493
11
131.714
21
-91.3493
0
LINE
8
BLACK
6
CONTINUOUS
10
131.714
20
-90.9493
11
131.314
21
-91.3493
0
LINE
8
BLACK
6
CONTINUOUS
10
131.342
20
-100.946
11
131.742
21
-101.346
0
LINE
8
BLACK
6
CONTINUOUS
10
131.742
20
-100.946
11
131.342
21
-101.346
0
LINE
8
BLACK
6
CONTINUOUS
10
131.347
20
-98.5556
11
131.747
21
-98.9556
0
LINE
8
BLACK
6
CONTINUOUS
10
131.747
20
-98.5556
11
131.347
21
-98.9556
0
LINE
8
BLACK
6
CONTINUOUS
10
131.36
20
-107.277
11
131.76
21
-107.677
0
LINE
8
BLACK
6
CONTINUOUS
10
131.76
20
-107.277
11
131.36
21
-107.677
0
LINE
8
BLACK
6
CONTINUOUS
10
131.361
20
-102.474
11
131.761
21
-102.874
0
LINE
8
BLACK
6
CONTINUOUS
10
131.761
20
-102.474
11
131.361
21
-102.874
0
LINE
8
BLACK
6
CONTINUOUS
10
131.361
20
-103.277
11
131.761
21
-103.677
0
LINE
8
BLACK
6
CONTINUOUS
10
131.761
20
-103.277
11
131.361
21
-103.677
0
LINE
8
BLACK
6
CONTINUOUS
10
131.379
20
-106.465
11
131.779
21
-106.865
0
LINE
8
BLACK
6
CONTINUOUS
10
131.779
20
-106.465
11
131.379
21
-106.865
0
LINE
8
BLACK
6
CONTINUOUS
10
131.387
20
-94.3442
11
131.787
21
-94.7442
0
LINE
8
BLACK
6
CONTINUOUS
10
131.787
20
-94.3442
11
131.387
21
-94.7442
0
LINE
8
BLACK
6
CONTINUOUS
10
131.387
20
-95.6883
11
131.787
21
-96.0883
0
LINE
8
BLACK
6
CONTINUOUS
10
131.787
20
-95.6883
11
131.387
21
-96.0883
0
LINE
8
BLACK
6
CONTINUOUS
10
131.387
20
-97.5868
11
131.787
21
-97.9868
0
LINE
8
BLACK
6
CONTINUOUS
10
131.787
20
-97.5868
11
131.387
21
-97.9868
0
LINE
8
BLACK
6
CONTINUOUS
10
134.514
20
-103.159
11
134.914
21
-103.559
0
LINE
8
BLACK
6
CONTINUOUS
10
134.914
20
-103.159
11
134.514
21
-103.559
0
LINE
8
BLACK
6
CONTINUOUS
10
134.76
20
-87.4484
11
135.16
21
-87.8484
0
LINE
8
BLACK
6
CONTINUOUS
10
135.16
20
-87.4484
11
134.76
21
-87.8484
0
LINE
8
BLACK
6
CONTINUOUS
10
135.482
20
-90.1638
11
135.882
21
-90.5638
0
LINE
8
BLACK
6
CONTINUOUS
10
135.882
20
-90.1638
11
135.482
21
-90.5638
0
LINE
8
BLACK
6
CONTINUOUS
10
136.484
20
-107.789
11
136.884
21
-108.189
0
LINE
8
BLACK
6
CONTINUOUS
10
136.884
20
-107.789
11
136.484
21
-108.189
0
LINE
8
BLACK
6
CONTINUOUS
10
137.637
20
-93.9026
11
138.037
21
-94.3026
0
LINE
8
BLACK
6
CONTINUOUS
10
138.037
20
-93.9026
11
137.637
21
-94.3026
0
LINE
8
BLACK
6
CONTINUOUS
10
140.15
20
-93.8937
11
140.55
21
-94.2937
0
LINE
8
BLACK
6
CONTINUOUS
10
140.55
20
-93.8937
11
140.15
21
-94.2937
0
CIRCLE
8
BLACK
10
124.378
20
-123.771
40
0.3
0
LINE
8
BLACK
6
CONTINUOUS
10
124.078
20
-123.321
11
124.078
21
-124.221
0
LINE
8
BLACK
6
CONTINUOUS
10
124.678
20
-123.321
11
124.678
21
-124.221
0
ARC
8
BLACK
10
124.378
20
-124.221
40
0.3
50
180
51
360
0
ARC
8
BLACK
10
124.378
20
-123.321
40
0.3
50
0
51
180
0
CIRCLE
8
BLACK
10
124.378
20
-127.569
40
0.3
0
LINE
8
BLACK
6
CONTINUOUS
10
124.078
20
-127.119
11
124.078
21
-128.019
0
LINE
8
BLACK
6
CONTINUOUS
10
124.678
20
-127.119
11
124.678
21
-128.019
0
ARC
8
BLACK
10
124.378
20
-128.019
40
0.3
50
180
51
360
0
ARC
8
BLACK
10
124.378
20
-127.119
40
0.3
50
0
51
180
0
CIRCLE
8
BLACK
10
133.018
20
-123.771
40
0.3
0
LINE
8
BLACK
6
CONTINUOUS
10
132.718
20
-123.321
11
132.718
21
-124.221
0
LINE
8
BLACK
6
CONTINUOUS
10
133.318
20
-123.321
11
133.318
21
-124.221
0
ARC
8
BLACK
10
133.018
20
-124.221
40
0.3
50
180
51
360
0
ARC
8
BLACK
10
133.018
20
-123.321
40
0.3
50
0
51
180
0
CIRCLE
8
BLACK
10
133.018
20
-127.52
40
0.3
0
LINE
8
BLACK
6
CONTINUOUS
10
132.718
20
-127.07
11
132.718
21
-127.97
0
LINE
8
BLACK
6
CONTINUOUS
10
133.318
20
-127.07
11
133.318
21
-127.97
0
ARC
8
BLACK
10
133.018
20
-127.97
40
0.3
50
180
51
360
0
ARC
8
BLACK
10
133.018
20
-127.07
40
0.3
50
0
51
180
0
LINE
8
BLACK
6
CONTINUOUS
10
108.25
20
-77.2
11
108.25
21
-78.2
0
LINE
8
BLACK
6
CONTINUOUS
10
107.75
20
-77.7
11
108.75
21
-77.7
0
LINE
8
BLACK
6
CONTINUOUS
10
108.25
20
-79.74
11
108.25
21
-80.74
0
LINE
8
BLACK
6
CONTINUOUS
10
107.75
20
-80.24
11
108.75
21
-80.24
0
LINE
8
BLACK
6
CONTINUOUS
10
108.25
20
-82.28
11
108.25
21
-83.28
0
LINE
8
BLACK
6
CONTINUOUS
10
107.75
20
-82.78
11
108.75
21
-82.78
0
LINE
8
BLACK
6
CONTINUOUS
10
108.25
20
-84.82
11
108.25
21
-85.82
0
LINE
8
BLACK
6
CONTINUOUS
10
107.75
20
-85.32
11
108.75
21
-85.32
0
LINE
8
BLACK
6
CONTINUOUS
10
108.25
20
-87.36
11
108.25
21
-88.36
0
LINE
8
BLACK
6
CONTINUOUS
10
107.75
20
-87.86
11
108.75
21
-87.86
0
LINE
8
BLACK
6
CONTINUOUS
10
108.25
20
-89.9
11
108.25
21
-90.9
0
LINE
8
BLACK
6
CONTINUOUS
10
107.75
20
-90.4
11
108.75
21
-90.4
0
LINE
8
BLACK
6
CONTINUOUS
10
108.25
20
-92.44
11
108.25
21
-93.44
0
LINE
8
BLACK
6
CONTINUOUS
10
107.75
20
-92.94
11
108.75
21
-92.94
0
LINE
8
BLACK
6
CONTINUOUS
10
108.25
20
-94.98
11
108.25
21
-95.98
0
LINE
8
BLACK
6
CONTINUOUS
10
107.75
20
-95.48
11
108.75
21
-95.48
0
LINE
8
BLACK
6
CONTINUOUS
10
108.25
20
-97.52
11
108.25
21
-98.52
0
LINE
8
BLACK
6
CONTINUOUS
10
107.75
20
-98.02
11
108.75
21
-98.02
0
LINE
8
BLACK
6
CONTINUOUS
10
108.25
20
-100.06
11
108.25
21
-101.06
0
LINE
8
BLACK
6
CONTINUOUS
10
107.75
20
-100.56
11
108.75
21
-100.56
0
LINE
8
BLACK
6
CONTINUOUS
10
108.25
20
-102.6
11
108.25
21
-103.6
0
LINE
8
BLACK
6
CONTINUOUS
10
107.75
20
-103.1
11
108.75
21
-103.1
0
LINE
8
BLACK
6
CONTINUOUS
10
108.25
20
-105.14
11
108.25
21
-106.14
0
LINE
8
BLACK
6
CONTINUOUS
10
107.75
20
-105.64
11
108.75
21
-105.64
0
LINE
8
BLACK
6
CONTINUOUS
10
108.25
20
-107.68
11
108.25
21
-108.68
0
LINE
8
BLACK
6
CONTINUOUS
10
107.75
20
-108.18
11
108.75
21
-108.18
0
LINE
8
BLACK
6
CONTINUOUS
10
108.25
20
-110.22
11
108.25
21
-111.22
0
LINE
8
BLACK
6
CONTINUOUS
10
107.75
20
-110.72
11
108.75
21
-110.72
0
LINE
8
BLACK
6
CONTINUOUS
10
108.25
20
-112.76
11
108.25
21
-113.76
0
LINE
8
BLACK
6
CONTINUOUS
10
107.75
20
-113.26
11
108.75
21
-113.26
0
LINE
8
BLACK
6
CONTINUOUS
10
108.25
20
-115.3
11
108.25
21
-116.3
0
LINE
8
BLACK
6
CONTINUOUS
10
107.75
20
-115.8
11
108.75
21
-115.8
0
LINE
8
BLACK
6
CONTINUOUS
10
108.25
20
-117.84
11
108.25
21
-118.84
0
LINE
8
BLACK
6
CONTINUOUS
10
107.75
20
-118.34
11
108.75
21
-118.34
0
LINE
8
BLACK
6
CONTINUOUS
10
108.25
20
-120.38
11
108.25
21
-121.38
0
LINE
8
BLACK
6
CONTINUOUS
10
107.75
20
-120.88
11
108.75
21
-120.88
0
LINE
8
BLACK
6
CONTINUOUS
10
108.25
20
-122.92
11
108.25
21
-123.92
0
LINE
8
BLACK
6
CONTINUOUS
10
107.75
20
-123.42
11
108.75
21
-123.42
0
LINE
8
BLACK
6
CONTINUOUS
10
108.25
20
-125.46
11
108.25
21
-126.46
0
LINE
8
BLACK
6
CONTINUOUS
10
107.75
20
-125.96
11
108.75
21
-125.96
0
LINE
8
BLACK
6
CONTINUOUS
10
110.79
20
-77.2
11
110.79
21
-78.2
0
LINE
8
BLACK
6
CONTINUOUS
10
110.29
20
-77.7
11
111.29
21
-77.7
0
LINE
8
BLACK
6
CONTINUOUS
10
110.79
20
-79.74
11
110.79
21
-80.74
0
LINE
8
BLACK
6
CONTINUOUS
10
110.29
20
-80.24
11
111.29
21
-80.24
0
LINE
8
BLACK
6
CONTINUOUS
10
110.79
20
-82.28
11
110.79
21
-83.28
0
LINE
8
BLACK
6
CONTINUOUS
10
110.29
20
-82.78
11
111.29
21
-82.78
0
LINE
8
BLACK
6
CONTINUOUS
10
110.79
20
-84.82
11
110.79
21
-85.82
0
LINE
8
BLACK
6
CONTINUOUS
10
110.29
20
-85.32
11
111.29
21
-85.32
0
LINE
8
BLACK
6
CONTINUOUS
10
110.79
20
-87.36
11
110.79
21
-88.36
0
LINE
8
BLACK
6
CONTINUOUS
10
110.29
20
-87.86
11
111.29
21
-87.86
0
LINE
8
BLACK
6
CONTINUOUS
10
110.79
20
-89.9
11
110.79
21
-90.9
0
LINE
8
BLACK
6
CONTINUOUS
10
110.29
20
-90.4
11
111.29
21
-90.4
0
LINE
8
BLACK
6
CONTINUOUS
10
110.79
20
-92.44
11
110.79
21
-93.44
0
LINE
8
BLACK
6
CONTINUOUS
10
110.29
20
-92.94
11
111.29
21
-92.94
0
LINE
8
BLACK
6
CONTINUOUS
10
110.79
20
-94.98
11
110.79
21
-95.98
0
LINE
8
BLACK
6
CONTINUOUS
10
110.29
20
-95.48
11
111.29
21
-95.48
0
LINE
8
BLACK
6
CONTINUOUS
10
110.79
20
-97.52
11
110.79
21
-98.52
0
LINE
8
BLACK
6
CONTINUOUS
10
110.29
20
-98.02
11
111.29
21
-98.02
0
LINE
8
BLACK
6
CONTINUOUS
10
110.79
20
-100.06
11
110.79
21
-101.06
0
LINE
8
BLACK
6
CONTINUOUS
10
110.29
20
-100.56
11
111.29
21
-100.56
0
LINE
8
BLACK
6
CONTINUOUS
10
110.79
20
-102.6
11
110.79
21
-103.6
0
LINE
8
BLACK
6
CONTINUOUS
10
110.29
20
-103.1
11
111.29
21
-103.1
0
LINE
8
BLACK
6
CONTINUOUS
10
110.79
20
-105.14
11
110.79
21
-106.14
0
LINE
8
BLACK
6
CONTINUOUS
10
110.29
20
-105.64
11
111.29
21
-105.64
0
LINE
8
BLACK
6
CONTINUOUS
10
110.79
20
-107.68
11
110.79
21
-108.68
0
LINE
8
BLACK
6
CONTINUOUS
10
110.29
20
-108.18
11
111.29
21
-108.18
0
LINE
8
BLACK
6
CONTINUOUS
10
110.79
20
-110.22
11
110.79
21
-111.22
0
LINE
8
BLACK
6
CONTINUOUS
10
110.29
20
-110.72
11
111.29
21
-110.72
0
LINE
8
BLACK
6
CONTINUOUS
10
110.79
20
-112.76
11
110.79
21
-113.76
0
LINE
8
BLACK
6
CONTINUOUS
10
110.29
20
-113.26
11
111.29
21
-113.26
0
LINE
8
BLACK
6
CONTINUOUS
10
110.79
20
-115.3
11
110.79
21
-116.3
0
LINE
8
BLACK
6
CONTINUOUS
10
110.29
20
-115.8
11
111.29
21
-115.8
0
LINE
8
BLACK
6
CONTINUOUS
10
110.79
20
-117.84
11
110.79
21
-118.84
0
LINE
8
BLACK
6
CONTINUOUS
10
110.29
20
-118.34
11
111.29
21
-118.34
0
LINE
8
BLACK
6
CONTINUOUS
10
110.79
20
-120.38
11
110.79
21
-121.38
0
LINE
8
BLACK
6
CONTINUOUS
10
110.29
20
-120.88
11
111.29
21
-120.88
0
LINE
8
BLACK
6
CONTINUOUS
10
110.79
20
-122.92
11
110.79
21
-123.92
0
LINE
8
BLACK
6
CONTINUOUS
10
110.29
20
-123.42
11
111.29
21
-123.42
0
LINE
8
BLACK
6
CONTINUOUS
10
110.79
20
-125.46
11
110.79
21
-126.46
0
LINE
8
BLACK
6
CONTINUOUS
10
110.29
20
-125.96
11
111.29
21
-125.96
0
LINE
8
BLACK
6
CONTINUOUS
10
119.025
20
-77.125
11
119.025
21
-78.125
0
LINE
8
BLACK
6
CONTINUOUS
10
118.525
20
-77.625
11
119.525
21
-77.625
0
LINE
8
BLACK
6
CONTINUOUS
10
119.025
20
-79.665
11
119.025
21
-80.665
0
LINE
8
BLACK
6
CONTINUOUS
10
118.525
20
-80.165
11
119.525
21
-80.165
0
LINE
8
BLACK
6
CONTINUOUS
10
119.025
20
-82.205
11
119.025
21
-83.205
0
LINE
8
BLACK
6
CONTINUOUS
10
118.525
20
-82.705
11
119.525
21
-82.705
0
LINE
8
BLACK
6
CONTINUOUS
10
119.025
20
-84.745
11
119.025
21
-85.745
0
LINE
8
BLACK
6
CONTINUOUS
10
118.525
20
-85.245
11
119.525
21
-85.245
0
LINE
8
BLACK
6
CONTINUOUS
10
119.025
20
-87.285
11
119.025
21
-88.285
0
LINE
8
BLACK
6
CONTINUOUS
10
118.525
20
-87.785
11
119.525
21
-87.785
0
LINE
8
BLACK
6
CONTINUOUS
10
119.025
20
-89.825
11
119.025
21
-90.825
0
LINE
8
BLACK
6
CONTINUOUS
10
118.525
20
-90.325
11
119.525
21
-90.325
0
LINE
8
BLACK
6
CONTINUOUS
10
119.025
20
-92.365
11
119.025
21
-93.365
0
LINE
8
BLACK
6
CONTINUOUS
10
118.525
20
-92.865
11
119.525
21
-92.865
0
LINE
8
BLACK
6
CONTINUOUS
10
119.025
20
-94.905
11
119.025
21
-95.905
0
LINE
8
BLACK
6
CONTINUOUS
10
118.525
20
-95.405
11
119.525
21
-95.405
0
LINE
8
BLACK
6
CONTINUOUS
10
119.025
20
-97.445
11
119.025
21
-98.445
0
LINE
8
BLACK
6
CONTINUOUS
10
118.525
20
-97.945
11
119.525
21
-97.945
0
LINE
8
BLACK
6
CONTINUOUS
10
119.025
20
-99.985
11
119.025
21
-100.985
0
LINE
8
BLACK
6
CONTINUOUS
10
118.525
20
-100.485
11
119.525
21
-100.485
0
LINE
8
BLACK
6
CONTINUOUS
10
119.025
20
-102.525
11
119.025
21
-103.525
0
LINE
8
BLACK
6
CONTINUOUS
10
118.525
20
-103.025
11
119.525
21
-103.025
0
LINE
8
BLACK
6
CONTINUOUS
10
119.025
20
-105.065
11
119.025
21
-106.065
0
LINE
8
BLACK
6
CONTINUOUS
10
118.525
20
-105.565
11
119.525
21
-105.565
0
LINE
8
BLACK
6
CONTINUOUS
10
119.025
20
-107.605
11
119.025
21
-108.605
0
LINE
8
BLACK
6
CONTINUOUS
10
118.525
20
-108.105
11
119.525
21
-108.105
0
LINE
8
BLACK
6
CONTINUOUS
10
119.025
20
-110.145
11
119.025
21
-111.145
0
LINE
8
BLACK
6
CONTINUOUS
10
118.525
20
-110.645
11
119.525
21
-110.645
0
LINE
8
BLACK
6
CONTINUOUS
10
119.025
20
-112.685
11
119.025
21
-113.685
0
LINE
8
BLACK
6
CONTINUOUS
10
118.525
20
-113.185
11
119.525
21
-113.185
0
LINE
8
BLACK
6
CONTINUOUS
10
119.025
20
-115.225
11
119.025
21
-116.225
0
LINE
8
BLACK
6
CONTINUOUS
10
118.525
20
-115.725
11
119.525
21
-115.725
0
LINE
8
BLACK
6
CONTINUOUS
10
119.025
20
-117.765
11
119.025
21
-118.765
0
LINE
8
BLACK
6
CONTINUOUS
10
118.525
20
-118.265
11
119.525
21
-118.265
0
LINE
8
BLACK
6
CONTINUOUS
10
119.025
20
-120.305
11
119.025
21
-121.305
0
LINE
8
BLACK
6
CONTINUOUS
10
118.525
20
-120.805
11
119.525
21
-120.805
0
LINE
8
BLACK
6
CONTINUOUS
10
119.025
20
-122.845
11
119.025
21
-123.845
0
LINE
8
BLACK
6
CONTINUOUS
10
118.525
20
-123.345
11
119.525
21
-123.345
0
LINE
8
BLACK
6
CONTINUOUS
10
119.025
20
-125.385
11
119.025
21
-126.385
0
LINE
8
BLACK
6
CONTINUOUS
10
118.525
20
-125.885
11
119.525
21
-125.885
0
LINE
8
BLACK
6
CONTINUOUS
10
121.565
20
-77.125
11
121.565
21
-78.125
0
LINE
8
BLACK
6
CONTINUOUS
10
121.065
20
-77.625
11
122.065
21
-77.625
0
LINE
8
BLACK
6
CONTINUOUS
10
121.565
20
-79.665
11
121.565
21
-80.665
0
LINE
8
BLACK
6
CONTINUOUS
10
121.065
20
-80.165
11
122.065
21
-80.165
0
LINE
8
BLACK
6
CONTINUOUS
10
121.565
20
-82.205
11
121.565
21
-83.205
0
LINE
8
BLACK
6
CONTINUOUS
10
121.065
20
-82.705
11
122.065
21
-82.705
0
LINE
8
BLACK
6
CONTINUOUS
10
121.565
20
-84.745
11
121.565
21
-85.745
0
LINE
8
BLACK
6
CONTINUOUS
10
121.065
20
-85.245
11
122.065
21
-85.245
0
LINE
8
BLACK
6
CONTINUOUS
10
121.565
20
-87.285
11
121.565
21
-88.285
0
LINE
8
BLACK
6
CONTINUOUS
10
121.065
20
-87.785
11
122.065
21
-87.785
0
LINE
8
BLACK
6
CONTINUOUS
10
121.565
20
-89.825
11
121.565
21
-90.825
0
LINE
8
BLACK
6
CONTINUOUS
10
121.065
20
-90.325
11
122.065
21
-90.325
0
LINE
8
BLACK
6
CONTINUOUS
10
121.565
20
-92.365
11
121.565
21
-93.365
0
LINE
8
BLACK
6
CONTINUOUS
10
121.065
20
-92.865
11
122.065
21
-92.865
0
LINE
8
BLACK
6
CONTINUOUS
10
121.565
20
-94.905
11
121.565
21
-95.905
0
LINE
8
BLACK
6
CONTINUOUS
10
121.065
20
-95.405
11
122.065
21
-95.405
0
LINE
8
BLACK
6
CONTINUOUS
10
121.565
20
-97.445
11
121.565
21
-98.445
0
LINE
8
BLACK
6
CONTINUOUS
10
121.065
20
-97.945
11
122.065
21
-97.945
0
LINE
8
BLACK
6
CONTINUOUS
10
121.565
20
-99.985
11
121.565
21
-100.985
0
LINE
8
BLACK
6
CONTINUOUS
10
121.065
20
-100.485
11
122.065
21
-100.485
0
LINE
8
BLACK
6
CONTINUOUS
10
121.565
20
-102.525
11
121.565
21
-103.525
0
LINE
8
BLACK
6
CONTINUOUS
10
121.065
20
-103.025
11
122.065
21
-103.025
0
LINE
8
BLACK
6
CONTINUOUS
10
121.565
20
-105.065
11
121.565
21
-106.065
0
LINE
8
BLACK
6
CONTINUOUS
10
121.065
20
-105.565
11
122.065
21
-105.565
0
LINE
8
BLACK
6
CONTINUOUS
10
121.565
20
-107.605
11
121.565
21
-108.605
0
LINE
8
BLACK
6
CONTINUOUS
10
121.065
20
-108.105
11
122.065
21
-108.105
0
LINE
8
BLACK
6
CONTINUOUS
10
121.565
20
-110.145
11
121.565
21
-111.145
0
LINE
8
BLACK
6
CONTINUOUS
10
121.065
20
-110.645
11
122.065
21
-110.645
0
LINE
8
BLACK
6
CONTINUOUS
10
121.565
20
-112.685
11
121.565
21
-113.685
0
LINE
8
BLACK
6
CONTINUOUS
10
121.065
20
-113.185
11
122.065
21
-113.185
0
LINE
8
BLACK
6
CONTINUOUS
10
121.565
20
-115.225
11
121.565
21
-116.225
0
LINE
8
BLACK
6
CONTINUOUS
10
121.065
20
-115.725
11
122.065
21
-115.725
0
LINE
8
BLACK
6
CONTINUOUS
10
121.565
20
-117.765
11
121.565
21
-118.765
0
LINE
8
BLACK
6
CONTINUOUS
10
121.065
20
-118.265
11
122.065
21
-118.265
0
LINE
8
BLACK
6
CONTINUOUS
10
121.565
20
-120.305
11
121.565
21
-121.305
0
LINE
8
BLACK
6
CONTINUOUS
10
121.065
20
-120.805
11
122.065
21
-120.805
0
LINE
8
BLACK
6
CONTINUOUS
10
121.565
20
-122.845
11
121.565
21
-123.845
0
LINE
8
BLACK
6
CONTINUOUS
10
121.065
20
-123.345
11
122.065
21
-123.345
0
LINE
8
BLACK
6
CONTINUOUS
10
121.565
20
-125.385
11
121.565
21
-126.385
0
LINE
8
BLACK
6
CONTINUOUS
10
121.065
20
-125.885
11
122.065
21
-125.885
0
LINE
8
BLACK
6
CONTINUOUS
10
129
20
-82.55
11
129
21
-83.55
0
LINE
8
BLACK
6
CONTINUOUS
10
128.5
20
-83.05
11
129.5
21
-83.05
0
LINE
8
BLACK
6
CONTINUOUS
10
131.5
20
-82.55
11
131.5
21
-83.55
0
LINE
8
BLACK
6
CONTINUOUS
10
131
20
-83.05
11
132
21
-83.05
0
LINE
8
BLACK
6
CONTINUOUS
10
139.06
20
-77.075
11
139.06
21
-78.075
0
LINE
8
BLACK
6
CONTINUOUS
10
138.56
20
-77.575
11
139.56
21
-77.575
0
LINE
8
BLACK
6
CONTINUOUS
10
139.06
20
-79.615
11
139.06
21
-80.615
0
LINE
8
BLACK
6
CONTINUOUS
10
138.56
20
-80.115
11
139.56
21
-80.115
0
LINE
8
BLACK
6
CONTINUOUS
10
139.06
20
-82.155
11
139.06
21
-83.155
0
LINE
8
BLACK
6
CONTINUOUS
10
138.56
20
-82.655
11
139.56
21
-82.655
0
LINE
8
BLACK
6
CONTINUOUS
10
139.06
20
-84.695
11
139.06
21
-85.695
0
LINE
8
BLACK
6
CONTINUOUS
10
138.56
20
-85.195
11
139.56
21
-85.195
0
LINE
8
BLACK
6
CONTINUOUS
10
139.06
20
-87.235
11
139.06
21
-88.235
0
LINE
8
BLACK
6
CONTINUOUS
10
138.56
20
-87.735
11
139.56
21
-87.735
0
LINE
8
BLACK
6
CONTINUOUS
10
139.06
20
-89.775
11
139.06
21
-90.775
0
LINE
8
BLACK
6
CONTINUOUS
10
138.56
20
-90.275
11
139.56
21
-90.275
0
LINE
8
BLACK
6
CONTINUOUS
10
139.06
20
-92.315
11
139.06
21
-93.315
0
LINE
8
BLACK
6
CONTINUOUS
10
138.56
20
-92.815
11
139.56
21
-92.815
0
LINE
8
BLACK
6
CONTINUOUS
10
139.06
20
-94.855
11
139.06
21
-95.855
0
LINE
8
BLACK
6
CONTINUOUS
10
138.56
20
-95.355
11
139.56
21
-95.355
0
LINE
8
BLACK
6
CONTINUOUS
10
139.06
20
-97.395
11
139.06
21
-98.395
0
LINE
8
BLACK
6
CONTINUOUS
10
138.56
20
-97.895
11
139.56
21
-97.895
0
LINE
8
BLACK
6
CONTINUOUS
10
139.06
20
-99.935
11
139.06
21
-100.935
0
LINE
8
BLACK
6
CONTINUOUS
10
138.56
20
-100.435
11
139.56
21
-100.435
0
LINE
8
BLACK
6
CONTINUOUS
10
139.06
20
-102.475
11
139.06
21
-103.475
0
LINE
8
BLACK
6
CONTINUOUS
10
138.56
20
-102.975
11
139.56
21
-102.975
0
LINE
8
BLACK
6
CONTINUOUS
10
139.06
20
-105.015
11
139.06
21
-106.015
0
LINE
8
BLACK
6
CONTINUOUS
10
138.56
20
-105.515
11
139.56
21
-105.515
0
LINE
8
BLACK
6
CONTINUOUS
10
139.06
20
-107.555
11
139.06
21
-108.555
0
LINE
8
BLACK
6
CONTINUOUS
10
138.56
20
-108.055
11
139.56
21
-108.055
0
LINE
8
BLACK
6
CONTINUOUS
10
141.6
20
-77.075
11
141.6
21
-78.075
0
LINE
8
BLACK
6
CONTINUOUS
10
141.1
20
-77.575
11
142.1
21
-77.575
0
LINE
8
BLACK
6
CONTINUOUS
10
141.6
20
-79.615
11
141.6
21
-80.615
0
LINE
8
BLACK
6
CONTINUOUS
10
141.1
20
-80.115
11
142.1
21
-80.115
0
LINE
8
BLACK
6
CONTINUOUS
10
141.6
20
-82.155
11
141.6
21
-83.155
0
LINE
8
BLACK
6
CONTINUOUS
10
141.1
20
-82.655
11
142.1
21
-82.655
0
LINE
8
BLACK
6
CONTINUOUS
10
141.6
20
-84.695
11
141.6
21
-85.695
0
LINE
8
BLACK
6
CONTINUOUS
10
141.1
20
-85.195
11
142.1
21
-85.195
0
LINE
8
BLACK
6
CONTINUOUS
10
141.6
20
-87.235
11
141.6
21
-88.235
0
LINE
8
BLACK
6
CONTINUOUS
10
141.1
20
-87.735
11
142.1
21
-87.735
0
LINE
8
BLACK
6
CONTINUOUS
10
141.6
20
-89.775
11
141.6
21
-90.775
0
LINE
8
BLACK
6
CONTINUOUS
10
141.1
20
-90.275
11
142.1
21
-90.275
0
LINE
8
BLACK
6
CONTINUOUS
10
141.6
20
-92.315
11
141.6
21
-93.315
0
LINE
8
BLACK
6
CONTINUOUS
10
141.1
20
-92.815
11
142.1
21
-92.815
0
LINE
8
BLACK
6
CONTINUOUS
10
141.6
20
-94.855
11
141.6
21
-95.855
0
LINE
8
BLACK
6
CONTINUOUS
10
141.1
20
-95.355
11
142.1
21
-95.355
0
LINE
8
BLACK
6
CONTINUOUS
10
141.6
20
-97.395
11
141.6
21
-98.395
0
LINE
8
BLACK
6
CONTINUOUS
10
141.1
20
-97.895
11
142.1
21
-97.895
0
LINE
8
BLACK
6
CONTINUOUS
10
141.6
20
-99.935
11
141.6
21
-100.935
0
LINE
8
BLACK
6
CONTINUOUS
10
141.1
20
-100.435
11
142.1
21
-100.435
0
LINE
8
BLACK
6
CONTINUOUS
10
141.6
20
-102.475
11
141.6
21
-103.475
0
LINE
8
BLACK
6
CONTINUOUS
10
141.1
20
-102.975
11
142.1
21
-102.975
0
LINE
8
BLACK
6
CONTINUOUS
10
141.6
20
-105.015
11
141.6
21
-106.015
0
LINE
8
BLACK
6
CONTINUOUS
10
141.1
20
-105.515
11
142.1
21
-105.515
0
LINE
8
BLACK
6
CONTINUOUS
10
141.6
20
-107.555
11
141.6
21
-108.555
0
LINE
8
BLACK
6
CONTINUOUS
10
141.1
20
-108.055
11
142.1
21
-108.055
0
LINE
8
BLACK
6
CONTINUOUS
10
106.525
20
-133.056
11
106.525
21
-131.056
0
LINE
8
BLACK
6
CONTINUOUS
10
106.525
20
-131.056
11
107.001
21
-131.056
0
LINE
8
BLACK
6
CONTINUOUS
10
107.001
20
-131.056
11
107.286
21
-131.151
0
LINE
8
BLACK
6
CONTINUOUS
10
107.286
20
-131.151
11
107.477
21
-131.342
0
LINE
8
BLACK
6
CONTINUOUS
10
107.477
20
-131.342
11
107.572
21
-131.532
0
LINE
8
BLACK
6
CONTINUOUS
10
107.572
20
-131.532
11
107.667
21
-131.913
0
LINE
8
BLACK
6
CONTINUOUS
10
107.667
20
-131.913
11
107.667
21
-132.199
0
LINE
8
BLACK
6
CONTINUOUS
10
107.667
20
-132.199
11
107.572
21
-132.58
0
LINE
8
BLACK
6
CONTINUOUS
10
107.572
20
-132.58
11
107.477
21
-132.77
0
LINE
8
BLACK
6
CONTINUOUS
10
107.477
20
-132.77
11
107.286
21
-132.961
0
LINE
8
BLACK
6
CONTINUOUS
10
107.286
20
-132.961
11
107.001
21
-133.056
0
LINE
8
BLACK
6
CONTINUOUS
10
107.001
20
-133.056
11
106.525
21
-133.056
0
LINE
8
BLACK
6
CONTINUOUS
10
108.525
20
-133.056
11
108.525
21
-131.723
0
LINE
8
BLACK
6
CONTINUOUS
10
108.525
20
-132.104
11
108.62
21
-131.913
0
LINE
8
BLACK
6
CONTINUOUS
10
108.62
20
-131.913
11
108.715
21
-131.818
0
LINE
8
BLACK
6
CONTINUOUS
10
108.715
20
-131.818
11
108.905
21
-131.723
0
LINE
8
BLACK
6
CONTINUOUS
10
108.905
20
-131.723
11
109.096
21
-131.723
0
LINE
8
BLACK
6
CONTINUOUS
10
109.763
20
-133.056
11
109.763
21
-131.723
0
LINE
8
BLACK
6
CONTINUOUS
10
109.763
20
-131.056
11
109.667
21
-131.151
0
LINE
8
BLACK
6
CONTINUOUS
10
109.667
20
-131.151
11
109.763
21
-131.247
0
LINE
8
BLACK
6
CONTINUOUS
10
109.763
20
-131.247
11
109.858
21
-131.151
0
LINE
8
BLACK
6
CONTINUOUS
10
109.858
20
-131.151
11
109.763
21
-131.056
0
LINE
8
BLACK
6
CONTINUOUS
10
109.763
20
-131.056
11
109.763
21
-131.247
0
LINE
8
BLACK
6
CONTINUOUS
10
111.001
20
-133.056
11
110.81
21
-132.961
0
LINE
8
BLACK
6
CONTINUOUS
10
110.81
20
-132.961
11
110.715
21
-132.77
0
LINE
8
BLACK
6
CONTINUOUS
10
110.715
20
-132.77
11
110.715
21
-131.056
0
LINE
8
BLACK
6
CONTINUOUS
10
112.048
20
-133.056
11
111.858
21
-132.961
0
LINE
8
BLACK
6
CONTINUOUS
10
111.858
20
-132.961
11
111.763
21
-132.77
0
LINE
8
BLACK
6
CONTINUOUS
10
111.763
20
-132.77
11
111.763
21
-131.056
0
LINE
8
BLACK
6
CONTINUOUS
10
114.334
20
-133.056
11
114.334
21
-131.056
0
LINE
8
BLACK
6
CONTINUOUS
10
114.334
20
-131.056
11
115.001
21
-132.485
0
LINE
8
BLACK
6
CONTINUOUS
10
115.001
20
-132.485
11
115.667
21
-131.056
0
LINE
8
BLACK
6
CONTINUOUS
10
115.667
20
-131.056
11
115.667
21
-133.056
0
LINE
8
BLACK
6
CONTINUOUS
10
117.477
20
-133.056
11
117.477
21
-132.008
0
LINE
8
BLACK
6
CONTINUOUS
10
117.477
20
-132.008
11
117.382
21
-131.818
0
LINE
8
BLACK
6
CONTINUOUS
10
117.382
20
-131.818
11
117.191
21
-131.723
0
LINE
8
BLACK
6
CONTINUOUS
10
117.191
20
-131.723
11
116.81
21
-131.723
0
LINE
8
BLACK
6
CONTINUOUS
10
116.81
20
-131.723
11
116.62
21
-131.818
0
LINE
8
BLACK
6
CONTINUOUS
10
117.477
20
-132.961
11
117.286
21
-133.056
0
LINE
8
BLACK
6
CONTINUOUS
10
117.286
20
-133.056
11
116.81
21
-133.056
0
LINE
8
BLACK
6
CONTINUOUS
10
116.81
20
-133.056
11
116.62
21
-132.961
0
LINE
8
BLACK
6
CONTINUOUS
10
116.62
20
-132.961
11
116.525
21
-132.77
0
LINE
8
BLACK
6
CONTINUOUS
10
116.525
20
-132.77
11
116.525
21
-132.58
0
LINE
8
BLACK
6
CONTINUOUS
10
116.525
20
-132.58
11
116.62
21
-132.389
0
LINE
8
BLACK
6
CONTINUOUS
10
116.62
20
-132.389
11
116.81
21
-132.294
0
LINE
8
BLACK
6
CONTINUOUS
10
116.81
20
-132.294
11
117.286
21
-132.294
0
LINE
8
BLACK
6
CONTINUOUS
10
117.286
20
-132.294
11
117.477
21
-132.199
0
LINE
8
BLACK
6
CONTINUOUS
10
118.429
20
-131.723
11
118.429
21
-133.723
0
LINE
8
BLACK
6
CONTINUOUS
10
118.429
20
-131.818
11
118.62
21
-131.723
0
LINE
8
BLACK
6
CONTINUOUS
10
118.62
20
-131.723
11
119.001
21
-131.723
0
LINE
8
BLACK
6
CONTINUOUS
10
119.001
20
-131.723
11
119.191
21
-131.818
0
LINE
8
BLACK
6
CONTINUOUS
10
119.191
20
-131.818
11
119.286
21
-131.913
0
LINE
8
BLACK
6
CONTINUOUS
10
119.286
20
-131.913
11
119.382
21
-132.104
0
LINE
8
BLACK
6
CONTINUOUS
10
119.382
20
-132.104
11
119.382
21
-132.675
0
LINE
8
BLACK
6
CONTINUOUS
10
119.382
20
-132.675
11
119.286
21
-132.866
0
LINE
8
BLACK
6
CONTINUOUS
10
119.286
20
-132.866
11
119.191
21
-132.961
0
LINE
8
BLACK
6
CONTINUOUS
10
119.191
20
-132.961
11
119.001
21
-133.056
0
LINE
8
BLACK
6
CONTINUOUS
10
119.001
20
-133.056
11
118.62
21
-133.056
0
LINE
8
BLACK
6
CONTINUOUS
10
118.62
20
-133.056
11
118.429
21
-132.961
0
LINE
8
BLACK
6
CONTINUOUS
10
120.239
20
-132.866
11
120.334
21
-132.961
0
LINE
8
BLACK
6
CONTINUOUS
10
120.334
20
-132.961
11
120.239
21
-133.056
0
LINE
8
BLACK
6
CONTINUOUS
10
120.239
20
-133.056
11
120.144
21
-132.961
0
LINE
8
BLACK
6
CONTINUOUS
10
120.144
20
-132.961
11
120.239
21
-132.866
0
LINE
8
BLACK
6
CONTINUOUS
10
120.239
20
-132.866
11
120.239
21
-133.056
0
LINE
8
BLACK
6
CONTINUOUS
10
120.239
20
-131.818
11
120.334
21
-131.913
0
LINE
8
BLACK
6
CONTINUOUS
10
120.334
20
-131.913
11
120.239
21
-132.008
0
LINE
8
BLACK
6
CONTINUOUS
10
120.239
20
-132.008
11
120.144
21
-131.913
0
LINE
8
BLACK
6
CONTINUOUS
10
120.144
20
-131.913
11
120.239
21
-131.818
0
LINE
8
BLACK
6
CONTINUOUS
10
120.239
20
-131.818
11
120.239
21
-132.008
0
LINE
8
BLACK
6
CONTINUOUS
10
103.548
20
-136.151
11
103.948
21
-136.551
0
LINE
8
BLACK
6
CONTINUOUS
10
103.948
20
-136.151
11
103.548
21
-136.551
0
LINE
8
BLACK
6
CONTINUOUS
10
106.905
20
-135.256
11
107.096
21
-135.256
0
LINE
8
BLACK
6
CONTINUOUS
10
107.096
20
-135.256
11
107.286
21
-135.351
0
LINE
8
BLACK
6
CONTINUOUS
10
107.286
20
-135.351
11
107.382
21
-135.447
0
LINE
8
BLACK
6
CONTINUOUS
10
107.382
20
-135.447
11
107.477
21
-135.637
0
LINE
8
BLACK
6
CONTINUOUS
10
107.477
20
-135.637
11
107.572
21
-136.018
0
LINE
8
BLACK
6
CONTINUOUS
10
107.572
20
-136.018
11
107.572
21
-136.494
0
LINE
8
BLACK
6
CONTINUOUS
10
107.572
20
-136.494
11
107.477
21
-136.875
0
LINE
8
BLACK
6
CONTINUOUS
10
107.477
20
-136.875
11
107.382
21
-137.066
0
LINE
8
BLACK
6
CONTINUOUS
10
107.382
20
-137.066
11
107.286
21
-137.161
0
LINE
8
BLACK
6
CONTINUOUS
10
107.286
20
-137.161
11
107.096
21
-137.256
0
LINE
8
BLACK
6
CONTINUOUS
10
107.096
20
-137.256
11
106.905
21
-137.256
0
LINE
8
BLACK
6
CONTINUOUS
10
106.905
20
-137.256
11
106.715
21
-137.161
0
LINE
8
BLACK
6
CONTINUOUS
10
106.715
20
-137.161
11
106.62
21
-137.066
0
LINE
8
BLACK
6
CONTINUOUS
10
106.62
20
-137.066
11
106.525
21
-136.875
0
LINE
8
BLACK
6
CONTINUOUS
10
106.525
20
-136.875
11
106.429
21
-136.494
0
LINE
8
BLACK
6
CONTINUOUS
10
106.429
20
-136.494
11
106.429
21
-136.018
0
LINE
8
BLACK
6
CONTINUOUS
10
106.429
20
-136.018
11
106.525
21
-135.637
0
LINE
8
BLACK
6
CONTINUOUS
10
106.525
20
-135.637
11
106.62
21
-135.447
0
LINE
8
BLACK
6
CONTINUOUS
10
106.62
20
-135.447
11
106.715
21
-135.351
0
LINE
8
BLACK
6
CONTINUOUS
10
106.715
20
-135.351
11
106.905
21
-135.256
0
LINE
8
BLACK
6
CONTINUOUS
10
108.429
20
-137.066
11
108.525
21
-137.161
0
LINE
8
BLACK
6
CONTINUOUS
10
108.525
20
-137.161
11
108.429
21
-137.256
0
LINE
8
BLACK
6
CONTINUOUS
10
108.429
20
-137.256
11
108.334
21
-137.161
0
LINE
8
BLACK
6
CONTINUOUS
10
108.334
20
-137.161
11
108.429
21
-137.066
0
LINE
8
BLACK
6
CONTINUOUS
10
108.429
20
-137.066
11
108.429
21
-137.256
0
LINE
8
BLACK
6
CONTINUOUS
10
110.239
20
-135.923
11
110.239
21
-137.256
0
LINE
8
BLACK
6
CONTINUOUS
10
109.763
20
-135.161
11
109.286
21
-136.589
0
LINE
8
BLACK
6
CONTINUOUS
10
109.286
20
-136.589
11
110.525
21
-136.589
0
LINE
8
BLACK
6
CONTINUOUS
10
111.667
20
-135.256
11
111.858
21
-135.256
0
LINE
8
BLACK
6
CONTINUOUS
10
111.858
20
-135.256
11
112.048
21
-135.351
0
LINE
8
BLACK
6
CONTINUOUS
10
112.048
20
-135.351
11
112.144
21
-135.447
0
LINE
8
BLACK
6
CONTINUOUS
10
112.144
20
-135.447
11
112.239
21
-135.637
0
LINE
8
BLACK
6
CONTINUOUS
10
112.239
20
-135.637
11
112.334
21
-136.018
0
LINE
8
BLACK
6
CONTINUOUS
10
112.334
20
-136.018
11
112.334
21
-136.494
0
LINE
8
BLACK
6
CONTINUOUS
10
112.334
20
-136.494
11
112.239
21
-136.875
0
LINE
8
BLACK
6
CONTINUOUS
10
112.239
20
-136.875
11
112.144
21
-137.066
0
LINE
8
BLACK
6
CONTINUOUS
10
112.144
20
-137.066
11
112.048
21
-137.161
0
LINE
8
BLACK
6
CONTINUOUS
10
112.048
20
-137.161
11
111.858
21
-137.256
0
LINE
8
BLACK
6
CONTINUOUS
10
111.858
20
-137.256
11
111.667
21
-137.256
0
LINE
8
BLACK
6
CONTINUOUS
10
111.667
20
-137.256
11
111.477
21
-137.161
0
LINE
8
BLACK
6
CONTINUOUS
10
111.477
20
-137.161
11
111.382
21
-137.066
0
LINE
8
BLACK
6
CONTINUOUS
10
111.382
20
-137.066
11
111.286
21
-136.875
0
LINE
8
BLACK
6
CONTINUOUS
10
111.286
20
-136.875
11
111.191
21
-136.494
0
LINE
8
BLACK
6
CONTINUOUS
10
111.191
20
-136.494
11
111.191
21
-136.018
0
LINE
8
BLACK
6
CONTINUOUS
10
111.191
20
-136.018
11
111.286
21
-135.637
0
LINE
8
BLACK
6
CONTINUOUS
10
111.286
20
-135.637
11
111.382
21
-135.447
0
LINE
8
BLACK
6
CONTINUOUS
10
111.382
20
-135.447
11
111.477
21
-135.351
0
LINE
8
BLACK
6
CONTINUOUS
10
111.477
20
-135.351
11
111.667
21
-135.256
0
LINE
8
BLACK
6
CONTINUOUS
10
113.572
20
-135.256
11
113.763
21
-135.256
0
LINE
8
BLACK
6
CONTINUOUS
10
113.763
20
-135.256
11
113.953
21
-135.351
0
LINE
8
BLACK
6
CONTINUOUS
10
113.953
20
-135.351
11
114.048
21
-135.447
0
LINE
8
BLACK
6
CONTINUOUS
10
114.048
20
-135.447
11
114.144
21
-135.637
0
LINE
8
BLACK
6
CONTINUOUS
10
114.144
20
-135.637
11
114.239
21
-136.018
0
LINE
8
BLACK
6
CONTINUOUS
10
114.239
20
-136.018
11
114.239
21
-136.494
0
LINE
8
BLACK
6
CONTINUOUS
10
114.239
20
-136.494
11
114.144
21
-136.875
0
LINE
8
BLACK
6
CONTINUOUS
10
114.144
20
-136.875
11
114.048
21
-137.066
0
LINE
8
BLACK
6
CONTINUOUS
10
114.048
20
-137.066
11
113.953
21
-137.161
0
LINE
8
BLACK
6
CONTINUOUS
10
113.953
20
-137.161
11
113.763
21
-137.256
0
LINE
8
BLACK
6
CONTINUOUS
10
113.763
20
-137.256
11
113.572
21
-137.256
0
LINE
8
BLACK
6
CONTINUOUS
10
113.572
20
-137.256
11
113.382
21
-137.161
0
LINE
8
BLACK
6
CONTINUOUS
10
113.382
20
-137.161
11
113.286
21
-137.066
0
LINE
8
BLACK
6
CONTINUOUS
10
113.286
20
-137.066
11
113.191
21
-136.875
0
LINE
8
BLACK
6
CONTINUOUS
10
113.191
20
-136.875
11
113.096
21
-136.494
0
LINE
8
BLACK
6
CONTINUOUS
10
113.096
20
-136.494
11
113.096
21
-136.018
0
LINE
8
BLACK
6
CONTINUOUS
10
113.096
20
-136.018
11
113.191
21
-135.637
0
LINE
8
BLACK
6
CONTINUOUS
10
113.191
20
-135.637
11
113.286
21
-135.447
0
LINE
8
BLACK
6
CONTINUOUS
10
113.286
20
-135.447
11
113.382
21
-135.351
0
LINE
8
BLACK
6
CONTINUOUS
10
113.382
20
-135.351
11
113.572
21
-135.256
0
LINE
8
BLACK
6
CONTINUOUS
10
115.096
20
-137.256
11
115.096
21
-135.923
0
LINE
8
BLACK
6
CONTINUOUS
10
115.096
20
-136.113
11
115.191
21
-136.018
0
LINE
8
BLACK
6
CONTINUOUS
10
115.191
20
-136.018
11
115.382
21
-135.923
0
LINE
8
BLACK
6
CONTINUOUS
10
115.382
20
-135.923
11
115.667
21
-135.923
0
LINE
8
BLACK
6
CONTINUOUS
10
115.667
20
-135.923
11
115.858
21
-136.018
0
LINE
8
BLACK
6
CONTINUOUS
10
115.858
20
-136.018
11
115.953
21
-136.208
0
LINE
8
BLACK
6
CONTINUOUS
10
115.953
20
-136.208
11
115.953
21
-137.256
0
LINE
8
BLACK
6
CONTINUOUS
10
115.953
20
-136.208
11
116.048
21
-136.018
0
LINE
8
BLACK
6
CONTINUOUS
10
116.048
20
-136.018
11
116.239
21
-135.923
0
LINE
8
BLACK
6
CONTINUOUS
10
116.239
20
-135.923
11
116.525
21
-135.923
0
LINE
8
BLACK
6
CONTINUOUS
10
116.525
20
-135.923
11
116.715
21
-136.018
0
LINE
8
BLACK
6
CONTINUOUS
10
116.715
20
-136.018
11
116.81
21
-136.208
0
LINE
8
BLACK
6
CONTINUOUS
10
116.81
20
-136.208
11
116.81
21
-137.256
0
LINE
8
BLACK
6
CONTINUOUS
10
117.763
20
-137.256
11
117.763
21
-135.923
0
LINE
8
BLACK
6
CONTINUOUS
10
117.763
20
-136.113
11
117.858
21
-136.018
0
LINE
8
BLACK
6
CONTINUOUS
10
117.858
20
-136.018
11
118.048
21
-135.923
0
LINE
8
BLACK
6
CONTINUOUS
10
118.048
20
-135.923
11
118.334
21
-135.923
0
LINE
8
BLACK
6
CONTINUOUS
10
118.334
20
-135.923
11
118.525
21
-136.018
0
LINE
8
BLACK
6
CONTINUOUS
10
118.525
20
-136.018
11
118.62
21
-136.208
0
LINE
8
BLACK
6
CONTINUOUS
10
118.62
20
-136.208
11
118.62
21
-137.256
0
LINE
8
BLACK
6
CONTINUOUS
10
118.62
20
-136.208
11
118.715
21
-136.018
0
LINE
8
BLACK
6
CONTINUOUS
10
118.715
20
-136.018
11
118.905
21
-135.923
0
LINE
8
BLACK
6
CONTINUOUS
10
118.905
20
-135.923
11
119.191
21
-135.923
0
LINE
8
BLACK
6
CONTINUOUS
10
119.191
20
-135.923
11
119.382
21
-136.018
0
LINE
8
BLACK
6
CONTINUOUS
10
119.382
20
-136.018
11
119.477
21
-136.208
0
LINE
8
BLACK
6
CONTINUOUS
10
119.477
20
-136.208
11
119.477
21
-137.256
0
LINE
8
BLACK
6
CONTINUOUS
10
123.382
20
-135.161
11
121.667
21
-137.732
0
LINE
8
BLACK
6
CONTINUOUS
10
125.953
20
-135.256
11
126.144
21
-135.256
0
LINE
8
BLACK
6
CONTINUOUS
10
126.144
20
-135.256
11
126.334
21
-135.351
0
LINE
8
BLACK
6
CONTINUOUS
10
126.334
20
-135.351
11
126.429
21
-135.447
0
LINE
8
BLACK
6
CONTINUOUS
10
126.429
20
-135.447
11
126.525
21
-135.637
0
LINE
8
BLACK
6
CONTINUOUS
10
126.525
20
-135.637
11
126.62
21
-136.018
0
LINE
8
BLACK
6
CONTINUOUS
10
126.62
20
-136.018
11
126.62
21
-136.494
0
LINE
8
BLACK
6
CONTINUOUS
10
126.62
20
-136.494
11
126.525
21
-136.875
0
LINE
8
BLACK
6
CONTINUOUS
10
126.525
20
-136.875
11
126.429
21
-137.066
0
LINE
8
BLACK
6
CONTINUOUS
10
126.429
20
-137.066
11
126.334
21
-137.161
0
LINE
8
BLACK
6
CONTINUOUS
10
126.334
20
-137.161
11
126.144
21
-137.256
0
LINE
8
BLACK
6
CONTINUOUS
10
126.144
20
-137.256
11
125.953
21
-137.256
0
LINE
8
BLACK
6
CONTINUOUS
10
125.953
20
-137.256
11
125.763
21
-137.161
0
LINE
8
BLACK
6
CONTINUOUS
10
125.763
20
-137.161
11
125.667
21
-137.066
0
LINE
8
BLACK
6
CONTINUOUS
10
125.667
20
-137.066
11
125.572
21
-136.875
0
LINE
8
BLACK
6
CONTINUOUS
10
125.572
20
-136.875
11
125.477
21
-136.494
0
LINE
8
BLACK
6
CONTINUOUS
10
125.477
20
-136.494
11
125.477
21
-136.018
0
LINE
8
BLACK
6
CONTINUOUS
10
125.477
20
-136.018
11
125.572
21
-135.637
0
LINE
8
BLACK
6
CONTINUOUS
10
125.572
20
-135.637
11
125.667
21
-135.447
0
LINE
8
BLACK
6
CONTINUOUS
10
125.667
20
-135.447
11
125.763
21
-135.351
0
LINE
8
BLACK
6
CONTINUOUS
10
125.763
20
-135.351
11
125.953
21
-135.256
0
LINE
8
BLACK
6
CONTINUOUS
10
127.477
20
-137.066
11
127.572
21
-137.161
0
LINE
8
BLACK
6
CONTINUOUS
10
127.572
20
-137.161
11
127.477
21
-137.256
0
LINE
8
BLACK
6
CONTINUOUS
10
127.477
20
-137.256
11
127.382
21
-137.161
0
LINE
8
BLACK
6
CONTINUOUS
10
127.382
20
-137.161
11
127.477
21
-137.066
0
LINE
8
BLACK
6
CONTINUOUS
10
127.477
20
-137.066
11
127.477
21
-137.256
0
LINE
8
BLACK
6
CONTINUOUS
10
128.81
20
-135.256
11
129.001
21
-135.256
0
LINE
8
BLACK
6
CONTINUOUS
10
129.001
20
-135.256
11
129.191
21
-135.351
0
LINE
8
BLACK
6
CONTINUOUS
10
129.191
20
-135.351
11
129.286
21
-135.447
0
LINE
8
BLACK
6
CONTINUOUS
10
129.286
20
-135.447
11
129.382
21
-135.637
0
LINE
8
BLACK
6
CONTINUOUS
10
129.382
20
-135.637
11
129.477
21
-136.018
0
LINE
8
BLACK
6
CONTINUOUS
10
129.477
20
-136.018
11
129.477
21
-136.494
0
LINE
8
BLACK
6
CONTINUOUS
10
129.477
20
-136.494
11
129.382
21
-136.875
0
LINE
8
BLACK
6
CONTINUOUS
10
129.382
20
-136.875
11
129.286
21
-137.066
0
LINE
8
BLACK
6
CONTINUOUS
10
129.286
20
-137.066
11
129.191
21
-137.161
0
LINE
8
BLACK
6
CONTINUOUS
10
129.191
20
-137.161
11
129.001
21
-137.256
0
LINE
8
BLACK
6
CONTINUOUS
10
129.001
20
-137.256
11
128.81
21
-137.256
0
LINE
8
BLACK
6
CONTINUOUS
10
128.81
20
-137.256
11
128.62
21
-137.161
0
LINE
8
BLACK
6
CONTINUOUS
10
128.62
20
-137.161
11
128.525
21
-137.066
0
LINE
8
BLACK
6
CONTINUOUS
10
128.525
20
-137.066
11
128.429
21
-136.875
0
LINE
8
BLACK
6
CONTINUOUS
10
128.429
20
-136.875
11
128.334
21
-136.494
0
LINE
8
BLACK
6
CONTINUOUS
10
128.334
20
-136.494
11
128.334
21
-136.018
0
LINE
8
BLACK
6
CONTINUOUS
10
128.334
20
-136.018
11
128.429
21
-135.637
0
LINE
8
BLACK
6
CONTINUOUS
10
128.429
20
-135.637
11
128.525
21
-135.447
0
LINE
8
BLACK
6
CONTINUOUS
10
128.525
20
-135.447
11
128.62
21
-135.351
0
LINE
8
BLACK
6
CONTINUOUS
10
128.62
20
-135.351
11
128.81
21
-135.256
0
LINE
8
BLACK
6
CONTINUOUS
10
131.382
20
-137.256
11
130.239
21
-137.256
0
LINE
8
BLACK
6
CONTINUOUS
10
130.81
20
-137.256
11
130.81
21
-135.256
0
LINE
8
BLACK
6
CONTINUOUS
10
130.81
20
-135.256
11
130.62
21
-135.542
0
LINE
8
BLACK
6
CONTINUOUS
10
130.62
20
-135.542
11
130.429
21
-135.732
0
LINE
8
BLACK
6
CONTINUOUS
10
130.429
20
-135.732
11
130.239
21
-135.827
0
LINE
8
BLACK
6
CONTINUOUS
10
133.191
20
-135.256
11
132.239
21
-135.256
0
LINE
8
BLACK
6
CONTINUOUS
10
132.239
20
-135.256
11
132.144
21
-136.208
0
LINE
8
BLACK
6
CONTINUOUS
10
132.144
20
-136.208
11
132.239
21
-136.113
0
LINE
8
BLACK
6
CONTINUOUS
10
132.239
20
-136.113
11
132.429
21
-136.018
0
LINE
8
BLACK
6
CONTINUOUS
10
132.429
20
-136.018
11
132.905
21
-136.018
0
LINE
8
BLACK
6
CONTINUOUS
10
132.905
20
-136.018
11
133.096
21
-136.113
0
LINE
8
BLACK
6
CONTINUOUS
10
133.096
20
-136.113
11
133.191
21
-136.208
0
LINE
8
BLACK
6
CONTINUOUS
10
133.191
20
-136.208
11
133.286
21
-136.399
0
LINE
8
BLACK
6
CONTINUOUS
10
133.286
20
-136.399
11
133.286
21
-136.875
0
LINE
8
BLACK
6
CONTINUOUS
10
133.286
20
-136.875
11
133.191
21
-137.066
0
LINE
8
BLACK
6
CONTINUOUS
10
133.191
20
-137.066
11
133.096
21
-137.161
0
LINE
8
BLACK
6
CONTINUOUS
10
133.096
20
-137.161
11
132.905
21
-137.256
0
LINE
8
BLACK
6
CONTINUOUS
10
132.905
20
-137.256
11
132.429
21
-137.256
0
LINE
8
BLACK
6
CONTINUOUS
10
132.429
20
-137.256
11
132.239
21
-137.161
0
LINE
8
BLACK
6
CONTINUOUS
10
132.239
20
-137.161
11
132.144
21
-137.066
0
LINE
8
BLACK
6
CONTINUOUS
10
133.953
20
-135.256
11
135.286
21
-135.256
0
LINE
8
BLACK
6
CONTINUOUS
10
135.286
20
-135.256
11
134.429
21
-137.256
0
LINE
8
BLACK
6
CONTINUOUS
10
135.953
20
-135.256
11
135.953
21
-135.637
0
LINE
8
BLACK
6
CONTINUOUS
10
136.715
20
-135.256
11
136.715
21
-135.637
0
LINE
8
BLACK
6
CONTINUOUS
10
139.667
20
-138.018
11
139.572
21
-137.923
0
LINE
8
BLACK
6
CONTINUOUS
10
139.572
20
-137.923
11
139.382
21
-137.637
0
LINE
8
BLACK
6
CONTINUOUS
10
139.382
20
-137.637
11
139.286
21
-137.447
0
LINE
8
BLACK
6
CONTINUOUS
10
139.286
20
-137.447
11
139.191
21
-137.161
0
LINE
8
BLACK
6
CONTINUOUS
10
139.191
20
-137.161
11
139.096
21
-136.685
0
LINE
8
BLACK
6
CONTINUOUS
10
139.096
20
-136.685
11
139.096
21
-136.304
0
LINE
8
BLACK
6
CONTINUOUS
10
139.096
20
-136.304
11
139.191
21
-135.827
0
LINE
8
BLACK
6
CONTINUOUS
10
139.191
20
-135.827
11
139.286
21
-135.542
0
LINE
8
BLACK
6
CONTINUOUS
10
139.286
20
-135.542
11
139.382
21
-135.351
0
LINE
8
BLACK
6
CONTINUOUS
10
139.382
20
-135.351
11
139.572
21
-135.066
0
LINE
8
BLACK
6
CONTINUOUS
10
139.572
20
-135.066
11
139.667
21
-134.97
0
LINE
8
BLACK
6
CONTINUOUS
10
140.239
20
-135.256
11
141.477
21
-135.256
0
LINE
8
BLACK
6
CONTINUOUS
10
141.477
20
-135.256
11
140.81
21
-136.018
0
LINE
8
BLACK
6
CONTINUOUS
10
140.81
20
-136.018
11
141.096
21
-136.018
0
LINE
8
BLACK
6
CONTINUOUS
10
141.096
20
-136.018
11
141.286
21
-136.113
0
LINE
8
BLACK
6
CONTINUOUS
10
141.286
20
-136.113
11
141.382
21
-136.208
0
LINE
8
BLACK
6
CONTINUOUS
10
141.382
20
-136.208
11
141.477
21
-136.399
0
LINE
8
BLACK
6
CONTINUOUS
10
141.477
20
-136.399
11
141.477
21
-136.875
0
LINE
8
BLACK
6
CONTINUOUS
10
141.477
20
-136.875
11
141.382
21
-137.066
0
LINE
8
BLACK
6
CONTINUOUS
10
141.382
20
-137.066
11
141.286
21
-137.161
0
LINE
8
BLACK
6
CONTINUOUS
10
141.286
20
-137.161
11
141.096
21
-137.256
0
LINE
8
BLACK
6
CONTINUOUS
10
141.096
20
-137.256
11
140.525
21
-137.256
0
LINE
8
BLACK
6
CONTINUOUS
10
140.525
20
-137.256
11
140.334
21
-137.161
0
LINE
8
BLACK
6
CONTINUOUS
10
140.334
20
-137.161
11
140.239
21
-137.066
0
LINE
8
BLACK
6
CONTINUOUS
10
142.715
20
-135.256
11
142.905
21
-135.256
0
LINE
8
BLACK
6
CONTINUOUS
10
142.905
20
-135.256
11
143.096
21
-135.351
0
LINE
8
BLACK
6
CONTINUOUS
10
143.096
20
-135.351
11
143.191
21
-135.447
0
LINE
8
BLACK
6
CONTINUOUS
10
143.191
20
-135.447
11
143.286
21
-135.637
0
LINE
8
BLACK
6
CONTINUOUS
10
143.286
20
-135.637
11
143.382
21
-136.018
0
LINE
8
BLACK
6
CONTINUOUS
10
143.382
20
-136.018
11
143.382
21
-136.494
0
LINE
8
BLACK
6
CONTINUOUS
10
143.382
20
-136.494
11
143.286
21
-136.875
0
LINE
8
BLACK
6
CONTINUOUS
10
143.286
20
-136.875
11
143.191
21
-137.066
0
LINE
8
BLACK
6
CONTINUOUS
10
143.191
20
-137.066
11
143.096
21
-137.161
0
LINE
8
BLACK
6
CONTINUOUS
10
143.096
20
-137.161
11
142.905
21
-137.256
0
LINE
8
BLACK
6
CONTINUOUS
10
142.905
20
-137.256
11
142.715
21
-137.256
0
LINE
8
BLACK
6
CONTINUOUS
10
142.715
20
-137.256
11
142.525
21
-137.161
0
LINE
8
BLACK
6
CONTINUOUS
10
142.525
20
-137.161
11
142.429
21
-137.066
0
LINE
8
BLACK
6
CONTINUOUS
10
142.429
20
-137.066
11
142.334
21
-136.875
0
LINE
8
BLACK
6
CONTINUOUS
10
142.334
20
-136.875
11
142.239
21
-136.494
0
LINE
8
BLACK
6
CONTINUOUS
10
142.239
20
-136.494
11
142.239
21
-136.018
0
LINE
8
BLACK
6
CONTINUOUS
10
142.239
20
-136.018
11
142.334
21
-135.637
0
LINE
8
BLACK
6
CONTINUOUS
10
142.334
20
-135.637
11
142.429
21
-135.447
0
LINE
8
BLACK
6
CONTINUOUS
10
142.429
20
-135.447
11
142.525
21
-135.351
0
LINE
8
BLACK
6
CONTINUOUS
10
142.525
20
-135.351
11
142.715
21
-135.256
0
LINE
8
BLACK
6
CONTINUOUS
10
145.763
20
-137.256
11
145.763
21
-135.256
0
LINE
8
BLACK
6
CONTINUOUS
10
146.62
20
-137.256
11
146.62
21
-136.208
0
LINE
8
BLACK
6
CONTINUOUS
10
146.62
20
-136.208
11
146.525
21
-136.018
0
LINE
8
BLACK
6
CONTINUOUS
10
146.525
20
-136.018
11
146.334
21
-135.923
0
LINE
8
BLACK
6
CONTINUOUS
10
146.334
20
-135.923
11
146.048
21
-135.923
0
LINE
8
BLACK
6
CONTINUOUS
10
146.048
20
-135.923
11
145.858
21
-136.018
0
LINE
8
BLACK
6
CONTINUOUS
10
145.858
20
-136.018
11
145.763
21
-136.113
0
LINE
8
BLACK
6
CONTINUOUS
10
147.858
20
-137.256
11
147.667
21
-137.161
0
LINE
8
BLACK
6
CONTINUOUS
10
147.667
20
-137.161
11
147.572
21
-137.066
0
LINE
8
BLACK
6
CONTINUOUS
10
147.572
20
-137.066
11
147.477
21
-136.875
0
LINE
8
BLACK
6
CONTINUOUS
10
147.477
20
-136.875
11
147.477
21
-136.304
0
LINE
8
BLACK
6
CONTINUOUS
10
147.477
20
-136.304
11
147.572
21
-136.113
0
LINE
8
BLACK
6
CONTINUOUS
10
147.572
20
-136.113
11
147.667
21
-136.018
0
LINE
8
BLACK
6
CONTINUOUS
10
147.667
20
-136.018
11
147.858
21
-135.923
0
LINE
8
BLACK
6
CONTINUOUS
10
147.858
20
-135.923
11
148.144
21
-135.923
0
LINE
8
BLACK
6
CONTINUOUS
10
148.144
20
-135.923
11
148.334
21
-136.018
0
LINE
8
BLACK
6
CONTINUOUS
10
148.334
20
-136.018
11
148.429
21
-136.113
0
LINE
8
BLACK
6
CONTINUOUS
10
148.429
20
-136.113
11
148.525
21
-136.304
0
LINE
8
BLACK
6
CONTINUOUS
10
148.525
20
-136.304
11
148.525
21
-136.875
0
LINE
8
BLACK
6
CONTINUOUS
10
148.525
20
-136.875
11
148.429
21
-137.066
0
LINE
8
BLACK
6
CONTINUOUS
10
148.429
20
-137.066
11
148.334
21
-137.161
0
LINE
8
BLACK
6
CONTINUOUS
10
148.334
20
-137.161
11
148.144
21
-137.256
0
LINE
8
BLACK
6
CONTINUOUS
10
148.144
20
-137.256
11
147.858
21
-137.256
0
LINE
8
BLACK
6
CONTINUOUS
10
149.667
20
-137.256
11
149.477
21
-137.161
0
LINE
8
BLACK
6
CONTINUOUS
10
149.477
20
-137.161
11
149.382
21
-136.97
0
LINE
8
BLACK
6
CONTINUOUS
10
149.382
20
-136.97
11
149.382
21
-135.256
0
LINE
8
BLACK
6
CONTINUOUS
10
151.191
20
-137.161
11
151.001
21
-137.256
0
LINE
8
BLACK
6
CONTINUOUS
10
151.001
20
-137.256
11
150.62
21
-137.256
0
LINE
8
BLACK
6
CONTINUOUS
10
150.62
20
-137.256
11
150.429
21
-137.161
0
LINE
8
BLACK
6
CONTINUOUS
10
150.429
20
-137.161
11
150.334
21
-136.97
0
LINE
8
BLACK
6
CONTINUOUS
10
150.334
20
-136.97
11
150.334
21
-136.208
0
LINE
8
BLACK
6
CONTINUOUS
10
150.334
20
-136.208
11
150.429
21
-136.018
0
LINE
8
BLACK
6
CONTINUOUS
10
150.429
20
-136.018
11
150.62
21
-135.923
0
LINE
8
BLACK
6
CONTINUOUS
10
150.62
20
-135.923
11
151.001
21
-135.923
0
LINE
8
BLACK
6
CONTINUOUS
10
151.001
20
-135.923
11
151.191
21
-136.018
0
LINE
8
BLACK
6
CONTINUOUS
10
151.191
20
-136.018
11
151.286
21
-136.208
0
LINE
8
BLACK
6
CONTINUOUS
10
151.286
20
-136.208
11
151.286
21
-136.399
0
LINE
8
BLACK
6
CONTINUOUS
10
151.286
20
-136.399
11
150.334
21
-136.589
0
LINE
8
BLACK
6
CONTINUOUS
10
152.048
20
-137.161
11
152.239
21
-137.256
0
LINE
8
BLACK
6
CONTINUOUS
10
152.239
20
-137.256
11
152.62
21
-137.256
0
LINE
8
BLACK
6
CONTINUOUS
10
152.62
20
-137.256
11
152.81
21
-137.161
0
LINE
8
BLACK
6
CONTINUOUS
10
152.81
20
-137.161
11
152.905
21
-136.97
0
LINE
8
BLACK
6
CONTINUOUS
10
152.905
20
-136.97
11
152.905
21
-136.875
0
LINE
8
BLACK
6
CONTINUOUS
10
152.905
20
-136.875
11
152.81
21
-136.685
0
LINE
8
BLACK
6
CONTINUOUS
10
152.81
20
-136.685
11
152.62
21
-136.589
0
LINE
8
BLACK
6
CONTINUOUS
10
152.62
20
-136.589
11
152.334
21
-136.589
0
LINE
8
BLACK
6
CONTINUOUS
10
152.334
20
-136.589
11
152.144
21
-136.494
0
LINE
8
BLACK
6
CONTINUOUS
10
152.144
20
-136.494
11
152.048
21
-136.304
0
LINE
8
BLACK
6
CONTINUOUS
10
152.048
20
-136.304
11
152.048
21
-136.208
0
LINE
8
BLACK
6
CONTINUOUS
10
152.048
20
-136.208
11
152.144
21
-136.018
0
LINE
8
BLACK
6
CONTINUOUS
10
152.144
20
-136.018
11
152.334
21
-135.923
0
LINE
8
BLACK
6
CONTINUOUS
10
152.334
20
-135.923
11
152.62
21
-135.923
0
LINE
8
BLACK
6
CONTINUOUS
10
152.62
20
-135.923
11
152.81
21
-136.018
0
LINE
8
BLACK
6
CONTINUOUS
10
153.572
20
-138.018
11
153.667
21
-137.923
0
LINE
8
BLACK
6
CONTINUOUS
10
153.667
20
-137.923
11
153.858
21
-137.637
0
LINE
8
BLACK
6
CONTINUOUS
10
153.858
20
-137.637
11
153.953
21
-137.447
0
LINE
8
BLACK
6
CONTINUOUS
10
153.953
20
-137.447
11
154.048
21
-137.161
0
LINE
8
BLACK
6
CONTINUOUS
10
154.048
20
-137.161
11
154.144
21
-136.685
0
LINE
8
BLACK
6
CONTINUOUS
10
154.144
20
-136.685
11
154.144
21
-136.304
0
LINE
8
BLACK
6
CONTINUOUS
10
154.144
20
-136.304
11
154.048
21
-135.827
0
LINE
8
BLACK
6
CONTINUOUS
10
154.048
20
-135.827
11
153.953
21
-135.542
0
LINE
8
BLACK
6
CONTINUOUS
10
153.953
20
-135.542
11
153.858
21
-135.351
0
LINE
8
BLACK
6
CONTINUOUS
10
153.858
20
-135.351
11
153.667
21
-135.066
0
LINE
8
BLACK
6
CONTINUOUS
10
153.667
20
-135.066
11
153.572
21
-134.97
0
CIRCLE
8
BLACK
10
103.648
20
-138.991
40
0.3
0
LINE
8
BLACK
6
CONTINUOUS
10
106.905
20
-137.896
11
107.096
21
-137.896
0
LINE
8
BLACK
6
CONTINUOUS
10
107.096
20
-137.896
11
107.286
21
-137.991
0
LINE
8
BLACK
6
CONTINUOUS
10
107.286
20
-137.991
11
107.382
21
-138.087
0
LINE
8
BLACK
6
CONTINUOUS
10
107.382
20
-138.087
11
107.477
21
-138.277
0
LINE
8
BLACK
6
CONTINUOUS
10
107.477
20
-138.277
11
107.572
21
-138.658
0
LINE
8
BLACK
6
CONTINUOUS
10
107.572
20
-138.658
11
107.572
21
-139.134
0
LINE
8
BLACK
6
CONTINUOUS
10
107.572
20
-139.134
11
107.477
21
-139.515
0
LINE
8
BLACK
6
CONTINUOUS
10
107.477
20
-139.515
11
107.382
21
-139.706
0
LINE
8
BLACK
6
CONTINUOUS
10
107.382
20
-139.706
11
107.286
21
-139.801
0
LINE
8
BLACK
6
CONTINUOUS
10
107.286
20
-139.801
11
107.096
21
-139.896
0
LINE
8
BLACK
6
CONTINUOUS
10
107.096
20
-139.896
11
106.905
21
-139.896
0
LINE
8
BLACK
6
CONTINUOUS
10
106.905
20
-139.896
11
106.715
21
-139.801
0
LINE
8
BLACK
6
CONTINUOUS
10
106.715
20
-139.801
11
106.62
21
-139.706
0
LINE
8
BLACK
6
CONTINUOUS
10
106.62
20
-139.706
11
106.525
21
-139.515
0
LINE
8
BLACK
6
CONTINUOUS
10
106.525
20
-139.515
11
106.429
21
-139.134
0
LINE
8
BLACK
6
CONTINUOUS
10
106.429
20
-139.134
11
106.429
21
-138.658
0
LINE
8
BLACK
6
CONTINUOUS
10
106.429
20
-138.658
11
106.525
21
-138.277
0
LINE
8
BLACK
6
CONTINUOUS
10
106.525
20
-138.277
11
106.62
21
-138.087
0
LINE
8
BLACK
6
CONTINUOUS
10
106.62
20
-138.087
11
106.715
21
-137.991
0
LINE
8
BLACK
6
CONTINUOUS
10
106.715
20
-137.991
11
106.905
21
-137.896
0
LINE
8
BLACK
6
CONTINUOUS
10
108.429
20
-139.706
11
108.525
21
-139.801
0
LINE
8
BLACK
6
CONTINUOUS
10
108.525
20
-139.801
11
108.429
21
-139.896
0
LINE
8
BLACK
6
CONTINUOUS
10
108.429
20
-139.896
11
108.334
21
-139.801
0
LINE
8
BLACK
6
CONTINUOUS
10
108.334
20
-139.801
11
108.429
21
-139.706
0
LINE
8
BLACK
6
CONTINUOUS
10
108.429
20
-139.706
11
108.429
21
-139.896
0
LINE
8
BLACK
6
CONTINUOUS
10
110.239
20
-137.896
11
109.858
21
-137.896
0
LINE
8
BLACK
6
CONTINUOUS
10
109.858
20
-137.896
11
109.667
21
-137.991
0
LINE
8
BLACK
6
CONTINUOUS
10
109.667
20
-137.991
11
109.572
21
-138.087
0
LINE
8
BLACK
6
CONTINUOUS
10
109.572
20
-138.087
11
109.382
21
-138.372
0
LINE
8
BLACK
6
CONTINUOUS
10
109.382
20
-138.372
11
109.286
21
-138.753
0
LINE
8
BLACK
6
CONTINUOUS
10
109.286
20
-138.753
11
109.286
21
-139.515
0
LINE
8
BLACK
6
CONTINUOUS
10
109.286
20
-139.515
11
109.382
21
-139.706
0
LINE
8
BLACK
6
CONTINUOUS
10
109.382
20
-139.706
11
109.477
21
-139.801
0
LINE
8
BLACK
6
CONTINUOUS
10
109.477
20
-139.801
11
109.667
21
-139.896
0
LINE
8
BLACK
6
CONTINUOUS
10
109.667
20
-139.896
11
110.048
21
-139.896
0
LINE
8
BLACK
6
CONTINUOUS
10
110.048
20
-139.896
11
110.239
21
-139.801
0
LINE
8
BLACK
6
CONTINUOUS
10
110.239
20
-139.801
11
110.334
21
-139.706
0
LINE
8
BLACK
6
CONTINUOUS
10
110.334
20
-139.706
11
110.429
21
-139.515
0
LINE
8
BLACK
6
CONTINUOUS
10
110.429
20
-139.515
11
110.429
21
-139.039
0
LINE
8
BLACK
6
CONTINUOUS
10
110.429
20
-139.039
11
110.334
21
-138.848
0
LINE
8
BLACK
6
CONTINUOUS
10
110.334
20
-138.848
11
110.239
21
-138.753
0
LINE
8
BLACK
6
CONTINUOUS
10
110.239
20
-138.753
11
110.048
21
-138.658
0
LINE
8
BLACK
6
CONTINUOUS
10
110.048
20
-138.658
11
109.667
21
-138.658
0
LINE
8
BLACK
6
CONTINUOUS
10
109.667
20
-138.658
11
109.477
21
-138.753
0
LINE
8
BLACK
6
CONTINUOUS
10
109.477
20
-138.753
11
109.382
21
-138.848
0
LINE
8
BLACK
6
CONTINUOUS
10
109.382
20
-138.848
11
109.286
21
-139.039
0
LINE
8
BLACK
6
CONTINUOUS
10
111.667
20
-137.896
11
111.858
21
-137.896
0
LINE
8
BLACK
6
CONTINUOUS
10
111.858
20
-137.896
11
112.048
21
-137.991
0
LINE
8
BLACK
6
CONTINUOUS
10
112.048
20
-137.991
11
112.144
21
-138.087
0
LINE
8
BLACK
6
CONTINUOUS
10
112.144
20
-138.087
11
112.239
21
-138.277
0
LINE
8
BLACK
6
CONTINUOUS
10
112.239
20
-138.277
11
112.334
21
-138.658
0
LINE
8
BLACK
6
CONTINUOUS
10
112.334
20
-138.658
11
112.334
21
-139.134
0
LINE
8
BLACK
6
CONTINUOUS
10
112.334
20
-139.134
11
112.239
21
-139.515
0
LINE
8
BLACK
6
CONTINUOUS
10
112.239
20
-139.515
11
112.144
21
-139.706
0
LINE
8
BLACK
6
CONTINUOUS
10
112.144
20
-139.706
11
112.048
21
-139.801
0
LINE
8
BLACK
6
CONTINUOUS
10
112.048
20
-139.801
11
111.858
21
-139.896
0
LINE
8
BLACK
6
CONTINUOUS
10
111.858
20
-139.896
11
111.667
21
-139.896
0
LINE
8
BLACK
6
CONTINUOUS
10
111.667
20
-139.896
11
111.477
21
-139.801
0
LINE
8
BLACK
6
CONTINUOUS
10
111.477
20
-139.801
11
111.382
21
-139.706
0
LINE
8
BLACK
6
CONTINUOUS
10
111.382
20
-139.706
11
111.286
21
-139.515
0
LINE
8
BLACK
6
CONTINUOUS
10
111.286
20
-139.515
11
111.191
21
-139.134
0
LINE
8
BLACK
6
CONTINUOUS
10
111.191
20
-139.134
11
111.191
21
-138.658
0
LINE
8
BLACK
6
CONTINUOUS
10
111.191
20
-138.658
11
111.286
21
-138.277
0
LINE
8
BLACK
6
CONTINUOUS
10
111.286
20
-138.277
11
111.382
21
-138.087
0
LINE
8
BLACK
6
CONTINUOUS
10
111.382
20
-138.087
11
111.477
21
-137.991
0
LINE
8
BLACK
6
CONTINUOUS
10
111.477
20
-137.991
11
111.667
21
-137.896
0
LINE
8
BLACK
6
CONTINUOUS
10
113.572
20
-137.896
11
113.763
21
-137.896
0
LINE
8
BLACK
6
CONTINUOUS
10
113.763
20
-137.896
11
113.953
21
-137.991
0
LINE
8
BLACK
6
CONTINUOUS
10
113.953
20
-137.991
11
114.048
21
-138.087
0
LINE
8
BLACK
6
CONTINUOUS
10
114.048
20
-138.087
11
114.144
21
-138.277
0
LINE
8
BLACK
6
CONTINUOUS
10
114.144
20
-138.277
11
114.239
21
-138.658
0
LINE
8
BLACK
6
CONTINUOUS
10
114.239
20
-138.658
11
114.239
21
-139.134
0
LINE
8
BLACK
6
CONTINUOUS
10
114.239
20
-139.134
11
114.144
21
-139.515
0
LINE
8
BLACK
6
CONTINUOUS
10
114.144
20
-139.515
11
114.048
21
-139.706
0
LINE
8
BLACK
6
CONTINUOUS
10
114.048
20
-139.706
11
113.953
21
-139.801
0
LINE
8
BLACK
6
CONTINUOUS
10
113.953
20
-139.801
11
113.763
21
-139.896
0
LINE
8
BLACK
6
CONTINUOUS
10
113.763
20
-139.896
11
113.572
21
-139.896
0
LINE
8
BLACK
6
CONTINUOUS
10
113.572
20
-139.896
11
113.382
21
-139.801
0
LINE
8
BLACK
6
CONTINUOUS
10
113.382
20
-139.801
11
113.286
21
-139.706
0
LINE
8
BLACK
6
CONTINUOUS
10
113.286
20
-139.706
11
113.191
21
-139.515
0
LINE
8
BLACK
6
CONTINUOUS
10
113.191
20
-139.515
11
113.096
21
-139.134
0
LINE
8
BLACK
6
CONTINUOUS
10
113.096
20
-139.134
11
113.096
21
-138.658
0
LINE
8
BLACK
6
CONTINUOUS
10
113.096
20
-138.658
11
113.191
21
-138.277
0
LINE
8
BLACK
6
CONTINUOUS
10
113.191
20
-138.277
11
113.286
21
-138.087
0
LINE
8
BLACK
6
CONTINUOUS
10
113.286
20
-138.087
11
113.382
21
-137.991
0
LINE
8
BLACK
6
CONTINUOUS
10
113.382
20
-137.991
11
113.572
21
-137.896
0
LINE
8
BLACK
6
CONTINUOUS
10
115.096
20
-139.896
11
115.096
21
-138.563
0
LINE
8
BLACK
6
CONTINUOUS
10
115.096
20
-138.753
11
115.191
21
-138.658
0
LINE
8
BLACK
6
CONTINUOUS
10
115.191
20
-138.658
11
115.382
21
-138.563
0
LINE
8
BLACK
6
CONTINUOUS
10
115.382
20
-138.563
11
115.667
21
-138.563
0
LINE
8
BLACK
6
CONTINUOUS
10
115.667
20
-138.563
11
115.858
21
-138.658
0
LINE
8
BLACK
6
CONTINUOUS
10
115.858
20
-138.658
11
115.953
21
-138.848
0
LINE
8
BLACK
6
CONTINUOUS
10
115.953
20
-138.848
11
115.953
21
-139.896
0
LINE
8
BLACK
6
CONTINUOUS
10
115.953
20
-138.848
11
116.048
21
-138.658
0
LINE
8
BLACK
6
CONTINUOUS
10
116.048
20
-138.658
11
116.239
21
-138.563
0
LINE
8
BLACK
6
CONTINUOUS
10
116.239
20
-138.563
11
116.525
21
-138.563
0
LINE
8
BLACK
6
CONTINUOUS
10
116.525
20
-138.563
11
116.715
21
-138.658
0
LINE
8
BLACK
6
CONTINUOUS
10
116.715
20
-138.658
11
116.81
21
-138.848
0
LINE
8
BLACK
6
CONTINUOUS
10
116.81
20
-138.848
11
116.81
21
-139.896
0
LINE
8
BLACK
6
CONTINUOUS
10
117.763
20
-139.896
11
117.763
21
-138.563
0
LINE
8
BLACK
6
CONTINUOUS
10
117.763
20
-138.753
11
117.858
21
-138.658
0
LINE
8
BLACK
6
CONTINUOUS
10
117.858
20
-138.658
11
118.048
21
-138.563
0
LINE
8
BLACK
6
CONTINUOUS
10
118.048
20
-138.563
11
118.334
21
-138.563
0
LINE
8
BLACK
6
CONTINUOUS
10
118.334
20
-138.563
11
118.525
21
-138.658
0
LINE
8
BLACK
6
CONTINUOUS
10
118.525
20
-138.658
11
118.62
21
-138.848
0
LINE
8
BLACK
6
CONTINUOUS
10
118.62
20
-138.848
11
118.62
21
-139.896
0
LINE
8
BLACK
6
CONTINUOUS
10
118.62
20
-138.848
11
118.715
21
-138.658
0
LINE
8
BLACK
6
CONTINUOUS
10
118.715
20
-138.658
11
118.905
21
-138.563
0
LINE
8
BLACK
6
CONTINUOUS
10
118.905
20
-138.563
11
119.191
21
-138.563
0
LINE
8
BLACK
6
CONTINUOUS
10
119.191
20
-138.563
11
119.382
21
-138.658
0
LINE
8
BLACK
6
CONTINUOUS
10
119.382
20
-138.658
11
119.477
21
-138.848
0
LINE
8
BLACK
6
CONTINUOUS
10
119.477
20
-138.848
11
119.477
21
-139.896
0
LINE
8
BLACK
6
CONTINUOUS
10
123.382
20
-137.801
11
121.667
21
-140.372
0
LINE
8
BLACK
6
CONTINUOUS
10
125.953
20
-137.896
11
126.144
21
-137.896
0
LINE
8
BLACK
6
CONTINUOUS
10
126.144
20
-137.896
11
126.334
21
-137.991
0
LINE
8
BLACK
6
CONTINUOUS
10
126.334
20
-137.991
11
126.429
21
-138.087
0
LINE
8
BLACK
6
CONTINUOUS
10
126.429
20
-138.087
11
126.525
21
-138.277
0
LINE
8
BLACK
6
CONTINUOUS
10
126.525
20
-138.277
11
126.62
21
-138.658
0
LINE
8
BLACK
6
CONTINUOUS
10
126.62
20
-138.658
11
126.62
21
-139.134
0
LINE
8
BLACK
6
CONTINUOUS
10
126.62
20
-139.134
11
126.525
21
-139.515
0
LINE
8
BLACK
6
CONTINUOUS
10
126.525
20
-139.515
11
126.429
21
-139.706
0
LINE
8
BLACK
6
CONTINUOUS
10
126.429
20
-139.706
11
126.334
21
-139.801
0
LINE
8
BLACK
6
CONTINUOUS
10
126.334
20
-139.801
11
126.144
21
-139.896
0
LINE
8
BLACK
6
CONTINUOUS
10
126.144
20
-139.896
11
125.953
21
-139.896
0
LINE
8
BLACK
6
CONTINUOUS
10
125.953
20
-139.896
11
125.763
21
-139.801
0
LINE
8
BLACK
6
CONTINUOUS
10
125.763
20
-139.801
11
125.667
21
-139.706
0
LINE
8
BLACK
6
CONTINUOUS
10
125.667
20
-139.706
11
125.572
21
-139.515
0
LINE
8
BLACK
6
CONTINUOUS
10
125.572
20
-139.515
11
125.477
21
-139.134
0
LINE
8
BLACK
6
CONTINUOUS
10
125.477
20
-139.134
11
125.477
21
-138.658
0
LINE
8
BLACK
6
CONTINUOUS
10
125.477
20
-138.658
11
125.572
21
-138.277
0
LINE
8
BLACK
6
CONTINUOUS
10
125.572
20
-138.277
11
125.667
21
-138.087
0
LINE
8
BLACK
6
CONTINUOUS
10
125.667
20
-138.087
11
125.763
21
-137.991
0
LINE
8
BLACK
6
CONTINUOUS
10
125.763
20
-137.991
11
125.953
21
-137.896
0
LINE
8
BLACK
6
CONTINUOUS
10
127.477
20
-139.706
11
127.572
21
-139.801
0
LINE
8
BLACK
6
CONTINUOUS
10
127.572
20
-139.801
11
127.477
21
-139.896
0
LINE
8
BLACK
6
CONTINUOUS
10
127.477
20
-139.896
11
127.382
21
-139.801
0
LINE
8
BLACK
6
CONTINUOUS
10
127.382
20
-139.801
11
127.477
21
-139.706
0
LINE
8
BLACK
6
CONTINUOUS
10
127.477
20
-139.706
11
127.477
21
-139.896
0
LINE
8
BLACK
6
CONTINUOUS
10
128.81
20
-137.896
11
129.001
21
-137.896
0
LINE
8
BLACK
6
CONTINUOUS
10
129.001
20
-137.896
11
129.191
21
-137.991
0
LINE
8
BLACK
6
CONTINUOUS
10
129.191
20
-137.991
11
129.286
21
-138.087
0
LINE
8
BLACK
6
CONTINUOUS
10
129.286
20
-138.087
11
129.382
21
-138.277
0
LINE
8
BLACK
6
CONTINUOUS
10
129.382
20
-138.277
11
129.477
21
-138.658
0
LINE
8
BLACK
6
CONTINUOUS
10
129.477
20
-138.658
11
129.477
21
-139.134
0
LINE
8
BLACK
6
CONTINUOUS
10
129.477
20
-139.134
11
129.382
21
-139.515
0
LINE
8
BLACK
6
CONTINUOUS
10
129.382
20
-139.515
11
129.286
21
-139.706
0
LINE
8
BLACK
6
CONTINUOUS
10
129.286
20
-139.706
11
129.191
21
-139.801
0
LINE
8
BLACK
6
CONTINUOUS
10
129.191
20
-139.801
11
129.001
21
-139.896
0
LINE
8
BLACK
6
CONTINUOUS
10
129.001
20
-139.896
11
128.81
21
-139.896
0
LINE
8
BLACK
6
CONTINUOUS
10
128.81
20
-139.896
11
128.62
21
-139.801
0
LINE
8
BLACK
6
CONTINUOUS
10
128.62
20
-139.801
11
128.525
21
-139.706
0
LINE
8
BLACK
6
CONTINUOUS
10
128.525
20
-139.706
11
128.429
21
-139.515
0
LINE
8
BLACK
6
CONTINUOUS
10
128.429
20
-139.515
11
128.334
21
-139.134
0
LINE
8
BLACK
6
CONTINUOUS
10
128.334
20
-139.134
11
128.334
21
-138.658
0
LINE
8
BLACK
6
CONTINUOUS
10
128.334
20
-138.658
11
128.429
21
-138.277
0
LINE
8
BLACK
6
CONTINUOUS
10
128.429
20
-138.277
11
128.525
21
-138.087
0
LINE
8
BLACK
6
CONTINUOUS
10
128.525
20
-138.087
11
128.62
21
-137.991
0
LINE
8
BLACK
6
CONTINUOUS
10
128.62
20
-137.991
11
128.81
21
-137.896
0
LINE
8
BLACK
6
CONTINUOUS
10
130.239
20
-138.087
11
130.334
21
-137.991
0
LINE
8
BLACK
6
CONTINUOUS
10
130.334
20
-137.991
11
130.525
21
-137.896
0
LINE
8
BLACK
6
CONTINUOUS
10
130.525
20
-137.896
11
131.001
21
-137.896
0
LINE
8
BLACK
6
CONTINUOUS
10
131.001
20
-137.896
11
131.191
21
-137.991
0
LINE
8
BLACK
6
CONTINUOUS
10
131.191
20
-137.991
11
131.286
21
-138.087
0
LINE
8
BLACK
6
CONTINUOUS
10
131.286
20
-138.087
11
131.382
21
-138.277
0
LINE
8
BLACK
6
CONTINUOUS
10
131.382
20
-138.277
11
131.382
21
-138.467
0
LINE
8
BLACK
6
CONTINUOUS
10
131.382
20
-138.467
11
131.286
21
-138.753
0
LINE
8
BLACK
6
CONTINUOUS
10
131.286
20
-138.753
11
130.144
21
-139.896
0
LINE
8
BLACK
6
CONTINUOUS
10
130.144
20
-139.896
11
131.382
21
-139.896
0
LINE
8
BLACK
6
CONTINUOUS
10
132.048
20
-137.896
11
133.286
21
-137.896
0
LINE
8
BLACK
6
CONTINUOUS
10
133.286
20
-137.896
11
132.62
21
-138.658
0
LINE
8
BLACK
6
CONTINUOUS
10
132.62
20
-138.658
11
132.905
21
-138.658
0
LINE
8
BLACK
6
CONTINUOUS
10
132.905
20
-138.658
11
133.096
21
-138.753
0
LINE
8
BLACK
6
CONTINUOUS
10
133.096
20
-138.753
11
133.191
21
-138.848
0
LINE
8
BLACK
6
CONTINUOUS
10
133.191
20
-138.848
11
133.286
21
-139.039
0
LINE
8
BLACK
6
CONTINUOUS
10
133.286
20
-139.039
11
133.286
21
-139.515
0
LINE
8
BLACK
6
CONTINUOUS
10
133.286
20
-139.515
11
133.191
21
-139.706
0
LINE
8
BLACK
6
CONTINUOUS
10
133.191
20
-139.706
11
133.096
21
-139.801
0
LINE
8
BLACK
6
CONTINUOUS
10
133.096
20
-139.801
11
132.905
21
-139.896
0
LINE
8
BLACK
6
CONTINUOUS
10
132.905
20
-139.896
11
132.334
21
-139.896
0
LINE
8
BLACK
6
CONTINUOUS
10
132.334
20
-139.896
11
132.144
21
-139.801
0
LINE
8
BLACK
6
CONTINUOUS
10
132.144
20
-139.801
11
132.048
21
-139.706
0
LINE
8
BLACK
6
CONTINUOUS
10
135.001
20
-137.896
11
134.62
21
-137.896
0
LINE
8
BLACK
6
CONTINUOUS
10
134.62
20
-137.896
11
134.429
21
-137.991
0
LINE
8
BLACK
6
CONTINUOUS
10
134.429
20
-137.991
11
134.334
21
-138.087
0
LINE
8
BLACK
6
CONTINUOUS
10
134.334
20
-138.087
11
134.144
21
-138.372
0
LINE
8
BLACK
6
CONTINUOUS
10
134.144
20
-138.372
11
134.048
21
-138.753
0
LINE
8
BLACK
6
CONTINUOUS
10
134.048
20
-138.753
11
134.048
21
-139.515
0
LINE
8
BLACK
6
CONTINUOUS
10
134.048
20
-139.515
11
134.144
21
-139.706
0
LINE
8
BLACK
6
CONTINUOUS
10
134.144
20
-139.706
11
134.239
21
-139.801
0
LINE
8
BLACK
6
CONTINUOUS
10
134.239
20
-139.801
11
134.429
21
-139.896
0
LINE
8
BLACK
6
CONTINUOUS
10
134.429
20
-139.896
11
134.81
21
-139.896
0
LINE
8
BLACK
6
CONTINUOUS
10
134.81
20
-139.896
11
135.001
21
-139.801
0
LINE
8
BLACK
6
CONTINUOUS
10
135.001
20
-139.801
11
135.096
21
-139.706
0
LINE
8
BLACK
6
CONTINUOUS
10
135.096
20
-139.706
11
135.191
21
-139.515
0
LINE
8
BLACK
6
CONTINUOUS
10
135.191
20
-139.515
11
135.191
21
-139.039
0
LINE
8
BLACK
6
CONTINUOUS
10
135.191
20
-139.039
11
135.096
21
-138.848
0
LINE
8
BLACK
6
CONTINUOUS
10
135.096
20
-138.848
11
135.001
21
-138.753
0
LINE
8
BLACK
6
CONTINUOUS
10
135.001
20
-138.753
11
134.81
21
-138.658
0
LINE
8
BLACK
6
CONTINUOUS
10
134.81
20
-138.658
11
134.429
21
-138.658
0
LINE
8
BLACK
6
CONTINUOUS
10
134.429
20
-138.658
11
134.239
21
-138.753
0
LINE
8
BLACK
6
CONTINUOUS
10
134.239
20
-138.753
11
134.144
21
-138.848
0
LINE
8
BLACK
6
CONTINUOUS
10
134.144
20
-138.848
11
134.048
21
-139.039
0
LINE
8
BLACK
6
CONTINUOUS
10
135.953
20
-137.896
11
135.953
21
-138.277
0
LINE
8
BLACK
6
CONTINUOUS
10
136.715
20
-137.896
11
136.715
21
-138.277
0
LINE
8
BLACK
6
CONTINUOUS
10
139.667
20
-140.658
11
139.572
21
-140.563
0
LINE
8
BLACK
6
CONTINUOUS
10
139.572
20
-140.563
11
139.382
21
-140.277
0
LINE
8
BLACK
6
CONTINUOUS
10
139.382
20
-140.277
11
139.286
21
-140.087
0
LINE
8
BLACK
6
CONTINUOUS
10
139.286
20
-140.087
11
139.191
21
-139.801
0
LINE
8
BLACK
6
CONTINUOUS
10
139.191
20
-139.801
11
139.096
21
-139.325
0
LINE
8
BLACK
6
CONTINUOUS
10
139.096
20
-139.325
11
139.096
21
-138.944
0
LINE
8
BLACK
6
CONTINUOUS
10
139.096
20
-138.944
11
139.191
21
-138.467
0
LINE
8
BLACK
6
CONTINUOUS
10
139.191
20
-138.467
11
139.286
21
-138.182
0
LINE
8
BLACK
6
CONTINUOUS
10
139.286
20
-138.182
11
139.382
21
-137.991
0
LINE
8
BLACK
6
CONTINUOUS
10
139.382
20
-137.991
11
139.572
21
-137.706
0
LINE
8
BLACK
6
CONTINUOUS
10
139.572
20
-137.706
11
139.667
21
-137.61
0
LINE
8
BLACK
6
CONTINUOUS
10
140.81
20
-137.896
11
141.001
21
-137.896
0
LINE
8
BLACK
6
CONTINUOUS
10
141.001
20
-137.896
11
141.191
21
-137.991
0
LINE
8
BLACK
6
CONTINUOUS
10
141.191
20
-137.991
11
141.286
21
-138.087
0
LINE
8
BLACK
6
CONTINUOUS
10
141.286
20
-138.087
11
141.382
21
-138.277
0
LINE
8
BLACK
6
CONTINUOUS
10
141.382
20
-138.277
11
141.477
21
-138.658
0
LINE
8
BLACK
6
CONTINUOUS
10
141.477
20
-138.658
11
141.477
21
-139.134
0
LINE
8
BLACK
6
CONTINUOUS
10
141.477
20
-139.134
11
141.382
21
-139.515
0
LINE
8
BLACK
6
CONTINUOUS
10
141.382
20
-139.515
11
141.286
21
-139.706
0
LINE
8
BLACK
6
CONTINUOUS
10
141.286
20
-139.706
11
141.191
21
-139.801
0
LINE
8
BLACK
6
CONTINUOUS
10
141.191
20
-139.801
11
141.001
21
-139.896
0
LINE
8
BLACK
6
CONTINUOUS
10
141.001
20
-139.896
11
140.81
21
-139.896
0
LINE
8
BLACK
6
CONTINUOUS
10
140.81
20
-139.896
11
140.62
21
-139.801
0
LINE
8
BLACK
6
CONTINUOUS
10
140.62
20
-139.801
11
140.525
21
-139.706
0
LINE
8
BLACK
6
CONTINUOUS
10
140.525
20
-139.706
11
140.429
21
-139.515
0
LINE
8
BLACK
6
CONTINUOUS
10
140.429
20
-139.515
11
140.334
21
-139.134
0
LINE
8
BLACK
6
CONTINUOUS
10
140.334
20
-139.134
11
140.334
21
-138.658
0
LINE
8
BLACK
6
CONTINUOUS
10
140.334
20
-138.658
11
140.429
21
-138.277
0
LINE
8
BLACK
6
CONTINUOUS
10
140.429
20
-138.277
11
140.525
21
-138.087
0
LINE
8
BLACK
6
CONTINUOUS
10
140.525
20
-138.087
11
140.62
21
-137.991
0
LINE
8
BLACK
6
CONTINUOUS
10
140.62
20
-137.991
11
140.81
21
-137.896
0
LINE
8
BLACK
6
CONTINUOUS
10
143.858
20
-139.896
11
143.858
21
-137.896
0
LINE
8
BLACK
6
CONTINUOUS
10
144.715
20
-139.896
11
144.715
21
-138.848
0
LINE
8
BLACK
6
CONTINUOUS
10
144.715
20
-138.848
11
144.62
21
-138.658
0
LINE
8
BLACK
6
CONTINUOUS
10
144.62
20
-138.658
11
144.429
21
-138.563
0
LINE
8
BLACK
6
CONTINUOUS
10
144.429
20
-138.563
11
144.144
21
-138.563
0
LINE
8
BLACK
6
CONTINUOUS
10
144.144
20
-138.563
11
143.953
21
-138.658
0
LINE
8
BLACK
6
CONTINUOUS
10
143.953
20
-138.658
11
143.858
21
-138.753
0
LINE
8
BLACK
6
CONTINUOUS
10
145.953
20
-139.896
11
145.763
21
-139.801
0
LINE
8
BLACK
6
CONTINUOUS
10
145.763
20
-139.801
11
145.667
21
-139.706
0
LINE
8
BLACK
6
CONTINUOUS
10
145.667
20
-139.706
11
145.572
21
-139.515
0
LINE
8
BLACK
6
CONTINUOUS
10
145.572
20
-139.515
11
145.572
21
-138.944
0
LINE
8
BLACK
6
CONTINUOUS
10
145.572
20
-138.944
11
145.667
21
-138.753
0
LINE
8
BLACK
6
CONTINUOUS
10
145.667
20
-138.753
11
145.763
21
-138.658
0
LINE
8
BLACK
6
CONTINUOUS
10
145.763
20
-138.658
11
145.953
21
-138.563
0
LINE
8
BLACK
6
CONTINUOUS
10
145.953
20
-138.563
11
146.239
21
-138.563
0
LINE
8
BLACK
6
CONTINUOUS
10
146.239
20
-138.563
11
146.429
21
-138.658
0
LINE
8
BLACK
6
CONTINUOUS
10
146.429
20
-138.658
11
146.525
21
-138.753
0
LINE
8
BLACK
6
CONTINUOUS
10
146.525
20
-138.753
11
146.62
21
-138.944
0
LINE
8
BLACK
6
CONTINUOUS
10
146.62
20
-138.944
11
146.62
21
-139.515
0
LINE
8
BLACK
6
CONTINUOUS
10
146.62
20
-139.515
11
146.525
21
-139.706
0
LINE
8
BLACK
6
CONTINUOUS
10
146.525
20
-139.706
11
146.429
21
-139.801
0
LINE
8
BLACK
6
CONTINUOUS
10
146.429
20
-139.801
11
146.239
21
-139.896
0
LINE
8
BLACK
6
CONTINUOUS
10
146.239
20
-139.896
11
145.953
21
-139.896
0
LINE
8
BLACK
6
CONTINUOUS
10
147.763
20
-139.896
11
147.572
21
-139.801
0
LINE
8
BLACK
6
CONTINUOUS
10
147.572
20
-139.801
11
147.477
21
-139.61
0
LINE
8
BLACK
6
CONTINUOUS
10
147.477
20
-139.61
11
147.477
21
-137.896
0
LINE
8
BLACK
6
CONTINUOUS
10
149.286
20
-139.801
11
149.096
21
-139.896
0
LINE
8
BLACK
6
CONTINUOUS
10
149.096
20
-139.896
11
148.715
21
-139.896
0
LINE
8
BLACK
6
CONTINUOUS
10
148.715
20
-139.896
11
148.525
21
-139.801
0
LINE
8
BLACK
6
CONTINUOUS
10
148.525
20
-139.801
11
148.429
21
-139.61
0
LINE
8
BLACK
6
CONTINUOUS
10
148.429
20
-139.61
11
148.429
21
-138.848
0
LINE
8
BLACK
6
CONTINUOUS
10
148.429
20
-138.848
11
148.525
21
-138.658
0
LINE
8
BLACK
6
CONTINUOUS
10
148.525
20
-138.658
11
148.715
21
-138.563
0
LINE
8
BLACK
6
CONTINUOUS
10
148.715
20
-138.563
11
149.096
21
-138.563
0
LINE
8
BLACK
6
CONTINUOUS
10
149.096
20
-138.563
11
149.286
21
-138.658
0
LINE
8
BLACK
6
CONTINUOUS
10
149.286
20
-138.658
11
149.382
21
-138.848
0
LINE
8
BLACK
6
CONTINUOUS
10
149.382
20
-138.848
11
149.382
21
-139.039
0
LINE
8
BLACK
6
CONTINUOUS
10
149.382
20
-139.039
11
148.429
21
-139.229
0
LINE
8
BLACK
6
CONTINUOUS
10
150.144
20
-139.801
11
150.334
21
-139.896
0
LINE
8
BLACK
6
CONTINUOUS
10
150.334
20
-139.896
11
150.715
21
-139.896
0
LINE
8
BLACK
6
CONTINUOUS
10
150.715
20
-139.896
11
150.905
21
-139.801
0
LINE
8
BLACK
6
CONTINUOUS
10
150.905
20
-139.801
11
151.001
21
-139.61
0
LINE
8
BLACK
6
CONTINUOUS
10
151.001
20
-139.61
11
151.001
21
-139.515
0
LINE
8
BLACK
6
CONTINUOUS
10
151.001
20
-139.515
11
150.905
21
-139.325
0
LINE
8
BLACK
6
CONTINUOUS
10
150.905
20
-139.325
11
150.715
21
-139.229
0
LINE
8
BLACK
6
CONTINUOUS
10
150.715
20
-139.229
11
150.429
21
-139.229
0
LINE
8
BLACK
6
CONTINUOUS
10
150.429
20
-139.229
11
150.239
21
-139.134
0
LINE
8
BLACK
6
CONTINUOUS
10
150.239
20
-139.134
11
150.144
21
-138.944
0
LINE
8
BLACK
6
CONTINUOUS
10
150.144
20
-138.944
11
150.144
21
-138.848
0
LINE
8
BLACK
6
CONTINUOUS
10
150.144
20
-138.848
11
150.239
21
-138.658
0
LINE
8
BLACK
6
CONTINUOUS
10
150.239
20
-138.658
11
150.429
21
-138.563
0
LINE
8
BLACK
6
CONTINUOUS
10
150.429
20
-138.563
11
150.715
21
-138.563
0
LINE
8
BLACK
6
CONTINUOUS
10
150.715
20
-138.563
11
150.905
21
-138.658
0
LINE
8
BLACK
6
CONTINUOUS
10
153.382
20
-139.134
11
154.905
21
-139.134
0
LINE
8
BLACK
6
CONTINUOUS
10
154.144
20
-139.896
11
154.144
21
-138.372
0
LINE
8
BLACK
6
CONTINUOUS
10
158.239
20
-138.563
11
158.239
21
-139.896
0
LINE
8
BLACK
6
CONTINUOUS
10
157.763
20
-137.801
11
157.286
21
-139.229
0
LINE
8
BLACK
6
CONTINUOUS
10
157.286
20
-139.229
11
158.525
21
-139.229
0
LINE
8
BLACK
6
CONTINUOUS
10
160.715
20
-139.801
11
160.905
21
-139.896
0
LINE
8
BLACK
6
CONTINUOUS
10
160.905
20
-139.896
11
161.286
21
-139.896
0
LINE
8
BLACK
6
CONTINUOUS
10
161.286
20
-139.896
11
161.477
21
-139.801
0
LINE
8
BLACK
6
CONTINUOUS
10
161.477
20
-139.801
11
161.572
21
-139.61
0
LINE
8
BLACK
6
CONTINUOUS
10
161.572
20
-139.61
11
161.572
21
-139.515
0
LINE
8
BLACK
6
CONTINUOUS
10
161.572
20
-139.515
11
161.477
21
-139.325
0
LINE
8
BLACK
6
CONTINUOUS
10
161.477
20
-139.325
11
161.286
21
-139.229
0
LINE
8
BLACK
6
CONTINUOUS
10
161.286
20
-139.229
11
161.001
21
-139.229
0
LINE
8
BLACK
6
CONTINUOUS
10
161.001
20
-139.229
11
160.81
21
-139.134
0
LINE
8
BLACK
6
CONTINUOUS
10
160.81
20
-139.134
11
160.715
21
-138.944
0
LINE
8
BLACK
6
CONTINUOUS
10
160.715
20
-138.944
11
160.715
21
-138.848
0
LINE
8
BLACK
6
CONTINUOUS
10
160.715
20
-138.848
11
160.81
21
-138.658
0
LINE
8
BLACK
6
CONTINUOUS
10
160.81
20
-138.658
11
161.001
21
-138.563
0
LINE
8
BLACK
6
CONTINUOUS
10
161.001
20
-138.563
11
161.286
21
-138.563
0
LINE
8
BLACK
6
CONTINUOUS
10
161.286
20
-138.563
11
161.477
21
-138.658
0
LINE
8
BLACK
6
CONTINUOUS
10
162.715
20
-139.896
11
162.525
21
-139.801
0
LINE
8
BLACK
6
CONTINUOUS
10
162.525
20
-139.801
11
162.429
21
-139.61
0
LINE
8
BLACK
6
CONTINUOUS
10
162.429
20
-139.61
11
162.429
21
-137.896
0
LINE
8
BLACK
6
CONTINUOUS
10
163.763
20
-139.896
11
163.572
21
-139.801
0
LINE
8
BLACK
6
CONTINUOUS
10
163.572
20
-139.801
11
163.477
21
-139.706
0
LINE
8
BLACK
6
CONTINUOUS
10
163.477
20
-139.706
11
163.382
21
-139.515
0
LINE
8
BLACK
6
CONTINUOUS
10
163.382
20
-139.515
11
163.382
21
-138.944
0
LINE
8
BLACK
6
CONTINUOUS
10
163.382
20
-138.944
11
163.477
21
-138.753
0
LINE
8
BLACK
6
CONTINUOUS
10
163.477
20
-138.753
11
163.572
21
-138.658
0
LINE
8
BLACK
6
CONTINUOUS
10
163.572
20
-138.658
11
163.763
21
-138.563
0
LINE
8
BLACK
6
CONTINUOUS
10
163.763
20
-138.563
11
164.048
21
-138.563
0
LINE
8
BLACK
6
CONTINUOUS
10
164.048
20
-138.563
11
164.239
21
-138.658
0
LINE
8
BLACK
6
CONTINUOUS
10
164.239
20
-138.658
11
164.334
21
-138.753
0
LINE
8
BLACK
6
CONTINUOUS
10
164.334
20
-138.753
11
164.429
21
-138.944
0
LINE
8
BLACK
6
CONTINUOUS
10
164.429
20
-138.944
11
164.429
21
-139.515
0
LINE
8
BLACK
6
CONTINUOUS
10
164.429
20
-139.515
11
164.334
21
-139.706
0
LINE
8
BLACK
6
CONTINUOUS
10
164.334
20
-139.706
11
164.239
21
-139.801
0
LINE
8
BLACK
6
CONTINUOUS
10
164.239
20
-139.801
11
164.048
21
-139.896
0
LINE
8
BLACK
6
CONTINUOUS
10
164.048
20
-139.896
11
163.763
21
-139.896
0
LINE
8
BLACK
6
CONTINUOUS
10
165.001
20
-138.563
11
165.763
21
-138.563
0
LINE
8
BLACK
6
CONTINUOUS
10
165.286
20
-137.896
11
165.286
21
-139.61
0
LINE
8
BLACK
6
CONTINUOUS
10
165.286
20
-139.61
11
165.382
21
-139.801
0
LINE
8
BLACK
6
CONTINUOUS
10
165.382
20
-139.801
11
165.572
21
-139.896
0
LINE
8
BLACK
6
CONTINUOUS
10
165.572
20
-139.896
11
165.763
21
-139.896
0
LINE
8
BLACK
6
CONTINUOUS
10
166.334
20
-139.801
11
166.525
21
-139.896
0
LINE
8
BLACK
6
CONTINUOUS
10
166.525
20
-139.896
11
166.905
21
-139.896
0
LINE
8
BLACK
6
CONTINUOUS
10
166.905
20
-139.896
11
167.096
21
-139.801
0
LINE
8
BLACK
6
CONTINUOUS
10
167.096
20
-139.801
11
167.191
21
-139.61
0
LINE
8
BLACK
6
CONTINUOUS
10
167.191
20
-139.61
11
167.191
21
-139.515
0
LINE
8
BLACK
6
CONTINUOUS
10
167.191
20
-139.515
11
167.096
21
-139.325
0
LINE
8
BLACK
6
CONTINUOUS
10
167.096
20
-139.325
11
166.905
21
-139.229
0
LINE
8
BLACK
6
CONTINUOUS
10
166.905
20
-139.229
11
166.62
21
-139.229
0
LINE
8
BLACK
6
CONTINUOUS
10
166.62
20
-139.229
11
166.429
21
-139.134
0
LINE
8
BLACK
6
CONTINUOUS
10
166.429
20
-139.134
11
166.334
21
-138.944
0
LINE
8
BLACK
6
CONTINUOUS
10
166.334
20
-138.944
11
166.334
21
-138.848
0
LINE
8
BLACK
6
CONTINUOUS
10
166.334
20
-138.848
11
166.429
21
-138.658
0
LINE
8
BLACK
6
CONTINUOUS
10
166.429
20
-138.658
11
166.62
21
-138.563
0
LINE
8
BLACK
6
CONTINUOUS
10
166.62
20
-138.563
11
166.905
21
-138.563
0
LINE
8
BLACK
6
CONTINUOUS
10
166.905
20
-138.563
11
167.096
21
-138.658
0
LINE
8
BLACK
6
CONTINUOUS
10
167.858
20
-140.658
11
167.953
21
-140.563
0
LINE
8
BLACK
6
CONTINUOUS
10
167.953
20
-140.563
11
168.144
21
-140.277
0
LINE
8
BLACK
6
CONTINUOUS
10
168.144
20
-140.277
11
168.239
21
-140.087
0
LINE
8
BLACK
6
CONTINUOUS
10
168.239
20
-140.087
11
168.334
21
-139.801
0
LINE
8
BLACK
6
CONTINUOUS
10
168.334
20
-139.801
11
168.429
21
-139.325
0
LINE
8
BLACK
6
CONTINUOUS
10
168.429
20
-139.325
11
168.429
21
-138.944
0
LINE
8
BLACK
6
CONTINUOUS
10
168.429
20
-138.944
11
168.334
21
-138.467
0
LINE
8
BLACK
6
CONTINUOUS
10
168.334
20
-138.467
11
168.239
21
-138.182
0
LINE
8
BLACK
6
CONTINUOUS
10
168.239
20
-138.182
11
168.144
21
-137.991
0
LINE
8
BLACK
6
CONTINUOUS
10
168.144
20
-137.991
11
167.953
21
-137.706
0
LINE
8
BLACK
6
CONTINUOUS
10
167.953
20
-137.706
11
167.858
21
-137.61
0
LINE
8
BLACK
6
CONTINUOUS
10
103.448
20
-141.131
11
103.448
21
-142.131
0
LINE
8
BLACK
6
CONTINUOUS
10
102.948
20
-141.631
11
103.948
21
-141.631
0
LINE
8
BLACK
6
CONTINUOUS
10
107.572
20
-142.536
11
106.429
21
-142.536
0
LINE
8
BLACK
6
CONTINUOUS
10
107.001
20
-142.536
11
107.001
21
-140.536
0
LINE
8
BLACK
6
CONTINUOUS
10
107.001
20
-140.536
11
106.81
21
-140.822
0
LINE
8
BLACK
6
CONTINUOUS
10
106.81
20
-140.822
11
106.62
21
-141.012
0
LINE
8
BLACK
6
CONTINUOUS
10
106.62
20
-141.012
11
106.429
21
-141.107
0
LINE
8
BLACK
6
CONTINUOUS
10
108.429
20
-142.346
11
108.525
21
-142.441
0
LINE
8
BLACK
6
CONTINUOUS
10
108.525
20
-142.441
11
108.429
21
-142.536
0
LINE
8
BLACK
6
CONTINUOUS
10
108.429
20
-142.536
11
108.334
21
-142.441
0
LINE
8
BLACK
6
CONTINUOUS
10
108.334
20
-142.441
11
108.429
21
-142.346
0
LINE
8
BLACK
6
CONTINUOUS
10
108.429
20
-142.346
11
108.429
21
-142.536
0
LINE
8
BLACK
6
CONTINUOUS
10
109.763
20
-140.536
11
109.953
21
-140.536
0
LINE
8
BLACK
6
CONTINUOUS
10
109.953
20
-140.536
11
110.144
21
-140.631
0
LINE
8
BLACK
6
CONTINUOUS
10
110.144
20
-140.631
11
110.239
21
-140.727
0
LINE
8
BLACK
6
CONTINUOUS
10
110.239
20
-140.727
11
110.334
21
-140.917
0
LINE
8
BLACK
6
CONTINUOUS
10
110.334
20
-140.917
11
110.429
21
-141.298
0
LINE
8
BLACK
6
CONTINUOUS
10
110.429
20
-141.298
11
110.429
21
-141.774
0
LINE
8
BLACK
6
CONTINUOUS
10
110.429
20
-141.774
11
110.334
21
-142.155
0
LINE
8
BLACK
6
CONTINUOUS
10
110.334
20
-142.155
11
110.239
21
-142.346
0
LINE
8
BLACK
6
CONTINUOUS
10
110.239
20
-142.346
11
110.144
21
-142.441
0
LINE
8
BLACK
6
CONTINUOUS
10
110.144
20
-142.441
11
109.953
21
-142.536
0
LINE
8
BLACK
6
CONTINUOUS
10
109.953
20
-142.536
11
109.763
21
-142.536
0
LINE
8
BLACK
6
CONTINUOUS
10
109.763
20
-142.536
11
109.572
21
-142.441
0
LINE
8
BLACK
6
CONTINUOUS
10
109.572
20
-142.441
11
109.477
21
-142.346
0
LINE
8
BLACK
6
CONTINUOUS
10
109.477
20
-142.346
11
109.382
21
-142.155
0
LINE
8
BLACK
6
CONTINUOUS
10
109.382
20
-142.155
11
109.286
21
-141.774
0
LINE
8
BLACK
6
CONTINUOUS
10
109.286
20
-141.774
11
109.286
21
-141.298
0
LINE
8
BLACK
6
CONTINUOUS
10
109.286
20
-141.298
11
109.382
21
-140.917
0
LINE
8
BLACK
6
CONTINUOUS
10
109.382
20
-140.917
11
109.477
21
-140.727
0
LINE
8
BLACK
6
CONTINUOUS
10
109.477
20
-140.727
11
109.572
21
-140.631
0
LINE
8
BLACK
6
CONTINUOUS
10
109.572
20
-140.631
11
109.763
21
-140.536
0
LINE
8
BLACK
6
CONTINUOUS
10
111.667
20
-140.536
11
111.858
21
-140.536
0
LINE
8
BLACK
6
CONTINUOUS
10
111.858
20
-140.536
11
112.048
21
-140.631
0
LINE
8
BLACK
6
CONTINUOUS
10
112.048
20
-140.631
11
112.144
21
-140.727
0
LINE
8
BLACK
6
CONTINUOUS
10
112.144
20
-140.727
11
112.239
21
-140.917
0
LINE
8
BLACK
6
CONTINUOUS
10
112.239
20
-140.917
11
112.334
21
-141.298
0
LINE
8
BLACK
6
CONTINUOUS
10
112.334
20
-141.298
11
112.334
21
-141.774
0
LINE
8
BLACK
6
CONTINUOUS
10
112.334
20
-141.774
11
112.239
21
-142.155
0
LINE
8
BLACK
6
CONTINUOUS
10
112.239
20
-142.155
11
112.144
21
-142.346
0
LINE
8
BLACK
6
CONTINUOUS
10
112.144
20
-142.346
11
112.048
21
-142.441
0
LINE
8
BLACK
6
CONTINUOUS
10
112.048
20
-142.441
11
111.858
21
-142.536
0
LINE
8
BLACK
6
CONTINUOUS
10
111.858
20
-142.536
11
111.667
21
-142.536
0
LINE
8
BLACK
6
CONTINUOUS
10
111.667
20
-142.536
11
111.477
21
-142.441
0
LINE
8
BLACK
6
CONTINUOUS
10
111.477
20
-142.441
11
111.382
21
-142.346
0
LINE
8
BLACK
6
CONTINUOUS
10
111.382
20
-142.346
11
111.286
21
-142.155
0
LINE
8
BLACK
6
CONTINUOUS
10
111.286
20
-142.155
11
111.191
21
-141.774
0
LINE
8
BLACK
6
CONTINUOUS
10
111.191
20
-141.774
11
111.191
21
-141.298
0
LINE
8
BLACK
6
CONTINUOUS
10
111.191
20
-141.298
11
111.286
21
-140.917
0
LINE
8
BLACK
6
CONTINUOUS
10
111.286
20
-140.917
11
111.382
21
-140.727
0
LINE
8
BLACK
6
CONTINUOUS
10
111.382
20
-140.727
11
111.477
21
-140.631
0
LINE
8
BLACK
6
CONTINUOUS
10
111.477
20
-140.631
11
111.667
21
-140.536
0
LINE
8
BLACK
6
CONTINUOUS
10
113.572
20
-140.536
11
113.763
21
-140.536
0
LINE
8
BLACK
6
CONTINUOUS
10
113.763
20
-140.536
11
113.953
21
-140.631
0
LINE
8
BLACK
6
CONTINUOUS
10
113.953
20
-140.631
11
114.048
21
-140.727
0
LINE
8
BLACK
6
CONTINUOUS
10
114.048
20
-140.727
11
114.144
21
-140.917
0
LINE
8
BLACK
6
CONTINUOUS
10
114.144
20
-140.917
11
114.239
21
-141.298
0
LINE
8
BLACK
6
CONTINUOUS
10
114.239
20
-141.298
11
114.239
21
-141.774
0
LINE
8
BLACK
6
CONTINUOUS
10
114.239
20
-141.774
11
114.144
21
-142.155
0
LINE
8
BLACK
6
CONTINUOUS
10
114.144
20
-142.155
11
114.048
21
-142.346
0
LINE
8
BLACK
6
CONTINUOUS
10
114.048
20
-142.346
11
113.953
21
-142.441
0
LINE
8
BLACK
6
CONTINUOUS
10
113.953
20
-142.441
11
113.763
21
-142.536
0
LINE
8
BLACK
6
CONTINUOUS
10
113.763
20
-142.536
11
113.572
21
-142.536
0
LINE
8
BLACK
6
CONTINUOUS
10
113.572
20
-142.536
11
113.382
21
-142.441
0
LINE
8
BLACK
6
CONTINUOUS
10
113.382
20
-142.441
11
113.286
21
-142.346
0
LINE
8
BLACK
6
CONTINUOUS
10
113.286
20
-142.346
11
113.191
21
-142.155
0
LINE
8
BLACK
6
CONTINUOUS
10
113.191
20
-142.155
11
113.096
21
-141.774
0
LINE
8
BLACK
6
CONTINUOUS
10
113.096
20
-141.774
11
113.096
21
-141.298
0
LINE
8
BLACK
6
CONTINUOUS
10
113.096
20
-141.298
11
113.191
21
-140.917
0
LINE
8
BLACK
6
CONTINUOUS
10
113.191
20
-140.917
11
113.286
21
-140.727
0
LINE
8
BLACK
6
CONTINUOUS
10
113.286
20
-140.727
11
113.382
21
-140.631
0
LINE
8
BLACK
6
CONTINUOUS
10
113.382
20
-140.631
11
113.572
21
-140.536
0
LINE
8
BLACK
6
CONTINUOUS
10
115.096
20
-142.536
11
115.096
21
-141.203
0
LINE
8
BLACK
6
CONTINUOUS
10
115.096
20
-141.393
11
115.191
21
-141.298
0
LINE
8
BLACK
6
CONTINUOUS
10
115.191
20
-141.298
11
115.382
21
-141.203
0
LINE
8
BLACK
6
CONTINUOUS
10
115.382
20
-141.203
11
115.667
21
-141.203
0
LINE
8
BLACK
6
CONTINUOUS
10
115.667
20
-141.203
11
115.858
21
-141.298
0
LINE
8
BLACK
6
CONTINUOUS
10
115.858
20
-141.298
11
115.953
21
-141.488
0
LINE
8
BLACK
6
CONTINUOUS
10
115.953
20
-141.488
11
115.953
21
-142.536
0
LINE
8
BLACK
6
CONTINUOUS
10
115.953
20
-141.488
11
116.048
21
-141.298
0
LINE
8
BLACK
6
CONTINUOUS
10
116.048
20
-141.298
11
116.239
21
-141.203
0
LINE
8
BLACK
6
CONTINUOUS
10
116.239
20
-141.203
11
116.525
21
-141.203
0
LINE
8
BLACK
6
CONTINUOUS
10
116.525
20
-141.203
11
116.715
21
-141.298
0
LINE
8
BLACK
6
CONTINUOUS
10
116.715
20
-141.298
11
116.81
21
-141.488
0
LINE
8
BLACK
6
CONTINUOUS
10
116.81
20
-141.488
11
116.81
21
-142.536
0
LINE
8
BLACK
6
CONTINUOUS
10
117.763
20
-142.536
11
117.763
21
-141.203
0
LINE
8
BLACK
6
CONTINUOUS
10
117.763
20
-141.393
11
117.858
21
-141.298
0
LINE
8
BLACK
6
CONTINUOUS
10
117.858
20
-141.298
11
118.048
21
-141.203
0
LINE
8
BLACK
6
CONTINUOUS
10
118.048
20
-141.203
11
118.334
21
-141.203
0
LINE
8
BLACK
6
CONTINUOUS
10
118.334
20
-141.203
11
118.525
21
-141.298
0
LINE
8
BLACK
6
CONTINUOUS
10
118.525
20
-141.298
11
118.62
21
-141.488
0
LINE
8
BLACK
6
CONTINUOUS
10
118.62
20
-141.488
11
118.62
21
-142.536
0
LINE
8
BLACK
6
CONTINUOUS
10
118.62
20
-141.488
11
118.715
21
-141.298
0
LINE
8
BLACK
6
CONTINUOUS
10
118.715
20
-141.298
11
118.905
21
-141.203
0
LINE
8
BLACK
6
CONTINUOUS
10
118.905
20
-141.203
11
119.191
21
-141.203
0
LINE
8
BLACK
6
CONTINUOUS
10
119.191
20
-141.203
11
119.382
21
-141.298
0
LINE
8
BLACK
6
CONTINUOUS
10
119.382
20
-141.298
11
119.477
21
-141.488
0
LINE
8
BLACK
6
CONTINUOUS
10
119.477
20
-141.488
11
119.477
21
-142.536
0
LINE
8
BLACK
6
CONTINUOUS
10
123.382
20
-140.441
11
121.667
21
-143.012
0
LINE
8
BLACK
6
CONTINUOUS
10
125.953
20
-140.536
11
126.144
21
-140.536
0
LINE
8
BLACK
6
CONTINUOUS
10
126.144
20
-140.536
11
126.334
21
-140.631
0
LINE
8
BLACK
6
CONTINUOUS
10
126.334
20
-140.631
11
126.429
21
-140.727
0
LINE
8
BLACK
6
CONTINUOUS
10
126.429
20
-140.727
11
126.525
21
-140.917
0
LINE
8
BLACK
6
CONTINUOUS
10
126.525
20
-140.917
11
126.62
21
-141.298
0
LINE
8
BLACK
6
CONTINUOUS
10
126.62
20
-141.298
11
126.62
21
-141.774
0
LINE
8
BLACK
6
CONTINUOUS
10
126.62
20
-141.774
11
126.525
21
-142.155
0
LINE
8
BLACK
6
CONTINUOUS
10
126.525
20
-142.155
11
126.429
21
-142.346
0
LINE
8
BLACK
6
CONTINUOUS
10
126.429
20
-142.346
11
126.334
21
-142.441
0
LINE
8
BLACK
6
CONTINUOUS
10
126.334
20
-142.441
11
126.144
21
-142.536
0
LINE
8
BLACK
6
CONTINUOUS
10
126.144
20
-142.536
11
125.953
21
-142.536
0
LINE
8
BLACK
6
CONTINUOUS
10
125.953
20
-142.536
11
125.763
21
-142.441
0
LINE
8
BLACK
6
CONTINUOUS
10
125.763
20
-142.441
11
125.667
21
-142.346
0
LINE
8
BLACK
6
CONTINUOUS
10
125.667
20
-142.346
11
125.572
21
-142.155
0
LINE
8
BLACK
6
CONTINUOUS
10
125.572
20
-142.155
11
125.477
21
-141.774
0
LINE
8
BLACK
6
CONTINUOUS
10
125.477
20
-141.774
11
125.477
21
-141.298
0
LINE
8
BLACK
6
CONTINUOUS
10
125.477
20
-141.298
11
125.572
21
-140.917
0
LINE
8
BLACK
6
CONTINUOUS
10
125.572
20
-140.917
11
125.667
21
-140.727
0
LINE
8
BLACK
6
CONTINUOUS
10
125.667
20
-140.727
11
125.763
21
-140.631
0
LINE
8
BLACK
6
CONTINUOUS
10
125.763
20
-140.631
11
125.953
21
-140.536
0
LINE
8
BLACK
6
CONTINUOUS
10
127.477
20
-142.346
11
127.572
21
-142.441
0
LINE
8
BLACK
6
CONTINUOUS
10
127.572
20
-142.441
11
127.477
21
-142.536
0
LINE
8
BLACK
6
CONTINUOUS
10
127.477
20
-142.536
11
127.382
21
-142.441
0
LINE
8
BLACK
6
CONTINUOUS
10
127.382
20
-142.441
11
127.477
21
-142.346
0
LINE
8
BLACK
6
CONTINUOUS
10
127.477
20
-142.346
11
127.477
21
-142.536
0
LINE
8
BLACK
6
CONTINUOUS
10
128.81
20
-140.536
11
129.001
21
-140.536
0
LINE
8
BLACK
6
CONTINUOUS
10
129.001
20
-140.536
11
129.191
21
-140.631
0
LINE
8
BLACK
6
CONTINUOUS
10
129.191
20
-140.631
11
129.286
21
-140.727
0
LINE
8
BLACK
6
CONTINUOUS
10
129.286
20
-140.727
11
129.382
21
-140.917
0
LINE
8
BLACK
6
CONTINUOUS
10
129.382
20
-140.917
11
129.477
21
-141.298
0
LINE
8
BLACK
6
CONTINUOUS
10
129.477
20
-141.298
11
129.477
21
-141.774
0
LINE
8
BLACK
6
CONTINUOUS
10
129.477
20
-141.774
11
129.382
21
-142.155
0
LINE
8
BLACK
6
CONTINUOUS
10
129.382
20
-142.155
11
129.286
21
-142.346
0
LINE
8
BLACK
6
CONTINUOUS
10
129.286
20
-142.346
11
129.191
21
-142.441
0
LINE
8
BLACK
6
CONTINUOUS
10
129.191
20
-142.441
11
129.001
21
-142.536
0
LINE
8
BLACK
6
CONTINUOUS
10
129.001
20
-142.536
11
128.81
21
-142.536
0
LINE
8
BLACK
6
CONTINUOUS
10
128.81
20
-142.536
11
128.62
21
-142.441
0
LINE
8
BLACK
6
CONTINUOUS
10
128.62
20
-142.441
11
128.525
21
-142.346
0
LINE
8
BLACK
6
CONTINUOUS
10
128.525
20
-142.346
11
128.429
21
-142.155
0
LINE
8
BLACK
6
CONTINUOUS
10
128.429
20
-142.155
11
128.334
21
-141.774
0
LINE
8
BLACK
6
CONTINUOUS
10
128.334
20
-141.774
11
128.334
21
-141.298
0
LINE
8
BLACK
6
CONTINUOUS
10
128.334
20
-141.298
11
128.429
21
-140.917
0
LINE
8
BLACK
6
CONTINUOUS
10
128.429
20
-140.917
11
128.525
21
-140.727
0
LINE
8
BLACK
6
CONTINUOUS
10
128.525
20
-140.727
11
128.62
21
-140.631
0
LINE
8
BLACK
6
CONTINUOUS
10
128.62
20
-140.631
11
128.81
21
-140.536
0
LINE
8
BLACK
6
CONTINUOUS
10
130.144
20
-140.536
11
131.382
21
-140.536
0
LINE
8
BLACK
6
CONTINUOUS
10
131.382
20
-140.536
11
130.715
21
-141.298
0
LINE
8
BLACK
6
CONTINUOUS
10
130.715
20
-141.298
11
131.001
21
-141.298
0
LINE
8
BLACK
6
CONTINUOUS
10
131.001
20
-141.298
11
131.191
21
-141.393
0
LINE
8
BLACK
6
CONTINUOUS
10
131.191
20
-141.393
11
131.286
21
-141.488
0
LINE
8
BLACK
6
CONTINUOUS
10
131.286
20
-141.488
11
131.382
21
-141.679
0
LINE
8
BLACK
6
CONTINUOUS
10
131.382
20
-141.679
11
131.382
21
-142.155
0
LINE
8
BLACK
6
CONTINUOUS
10
131.382
20
-142.155
11
131.286
21
-142.346
0
LINE
8
BLACK
6
CONTINUOUS
10
131.286
20
-142.346
11
131.191
21
-142.441
0
LINE
8
BLACK
6
CONTINUOUS
10
131.191
20
-142.441
11
131.001
21
-142.536
0
LINE
8
BLACK
6
CONTINUOUS
10
131.001
20
-142.536
11
130.429
21
-142.536
0
LINE
8
BLACK
6
CONTINUOUS
10
130.429
20
-142.536
11
130.239
21
-142.441
0
LINE
8
BLACK
6
CONTINUOUS
10
130.239
20
-142.441
11
130.144
21
-142.346
0
LINE
8
BLACK
6
CONTINUOUS
10
132.334
20
-142.536
11
132.715
21
-142.536
0
LINE
8
BLACK
6
CONTINUOUS
10
132.715
20
-142.536
11
132.905
21
-142.441
0
LINE
8
BLACK
6
CONTINUOUS
10
132.905
20
-142.441
11
133.001
21
-142.346
0
LINE
8
BLACK
6
CONTINUOUS
10
133.001
20
-142.346
11
133.191
21
-142.06
0
LINE
8
BLACK
6
CONTINUOUS
10
133.191
20
-142.06
11
133.286
21
-141.679
0
LINE
8
BLACK
6
CONTINUOUS
10
133.286
20
-141.679
11
133.286
21
-140.917
0
LINE
8
BLACK
6
CONTINUOUS
10
133.286
20
-140.917
11
133.191
21
-140.727
0
LINE
8
BLACK
6
CONTINUOUS
10
133.191
20
-140.727
11
133.096
21
-140.631
0
LINE
8
BLACK
6
CONTINUOUS
10
133.096
20
-140.631
11
132.905
21
-140.536
0
LINE
8
BLACK
6
CONTINUOUS
10
132.905
20
-140.536
11
132.525
21
-140.536
0
LINE
8
BLACK
6
CONTINUOUS
10
132.525
20
-140.536
11
132.334
21
-140.631
0
LINE
8
BLACK
6
CONTINUOUS
10
132.334
20
-140.631
11
132.239
21
-140.727
0
LINE
8
BLACK
6
CONTINUOUS
10
132.239
20
-140.727
11
132.144
21
-140.917
0
LINE
8
BLACK
6
CONTINUOUS
10
132.144
20
-140.917
11
132.144
21
-141.393
0
LINE
8
BLACK
6
CONTINUOUS
10
132.144
20
-141.393
11
132.239
21
-141.584
0
LINE
8
BLACK
6
CONTINUOUS
10
132.239
20
-141.584
11
132.334
21
-141.679
0
LINE
8
BLACK
6
CONTINUOUS
10
132.334
20
-141.679
11
132.525
21
-141.774
0
LINE
8
BLACK
6
CONTINUOUS
10
132.525
20
-141.774
11
132.905
21
-141.774
0
LINE
8
BLACK
6
CONTINUOUS
10
132.905
20
-141.774
11
133.096
21
-141.679
0
LINE
8
BLACK
6
CONTINUOUS
10
133.096
20
-141.679
11
133.191
21
-141.584
0
LINE
8
BLACK
6
CONTINUOUS
10
133.191
20
-141.584
11
133.286
21
-141.393
0
LINE
8
BLACK
6
CONTINUOUS
10
135.001
20
-141.203
11
135.001
21
-142.536
0
LINE
8
BLACK
6
CONTINUOUS
10
134.525
20
-140.441
11
134.048
21
-141.869
0
LINE
8
BLACK
6
CONTINUOUS
10
134.048
20
-141.869
11
135.286
21
-141.869
0
LINE
8
BLACK
6
CONTINUOUS
10
135.953
20
-140.536
11
135.953
21
-140.917
0
LINE
8
BLACK
6
CONTINUOUS
10
136.715
20
-140.536
11
136.715
21
-140.917
0
LINE
8
BLACK
6
CONTINUOUS
10
139.667
20
-143.298
11
139.572
21
-143.203
0
LINE
8
BLACK
6
CONTINUOUS
10
139.572
20
-143.203
11
139.382
21
-142.917
0
LINE
8
BLACK
6
CONTINUOUS
10
139.382
20
-142.917
11
139.286
21
-142.727
0
LINE
8
BLACK
6
CONTINUOUS
10
139.286
20
-142.727
11
139.191
21
-142.441
0
LINE
8
BLACK
6
CONTINUOUS
10
139.191
20
-142.441
11
139.096
21
-141.965
0
LINE
8
BLACK
6
CONTINUOUS
10
139.096
20
-141.965
11
139.096
21
-141.584
0
LINE
8
BLACK
6
CONTINUOUS
10
139.096
20
-141.584
11
139.191
21
-141.107
0
LINE
8
BLACK
6
CONTINUOUS
10
139.191
20
-141.107
11
139.286
21
-140.822
0
LINE
8
BLACK
6
CONTINUOUS
10
139.286
20
-140.822
11
139.382
21
-140.631
0
LINE
8
BLACK
6
CONTINUOUS
10
139.382
20
-140.631
11
139.572
21
-140.346
0
LINE
8
BLACK
6
CONTINUOUS
10
139.572
20
-140.346
11
139.667
21
-140.25
0
LINE
8
BLACK
6
CONTINUOUS
10
141.477
20
-142.536
11
140.334
21
-142.536
0
LINE
8
BLACK
6
CONTINUOUS
10
140.905
20
-142.536
11
140.905
21
-140.536
0
LINE
8
BLACK
6
CONTINUOUS
10
140.905
20
-140.536
11
140.715
21
-140.822
0
LINE
8
BLACK
6
CONTINUOUS
10
140.715
20
-140.822
11
140.525
21
-141.012
0
LINE
8
BLACK
6
CONTINUOUS
10
140.525
20
-141.012
11
140.334
21
-141.107
0
LINE
8
BLACK
6
CONTINUOUS
10
142.715
20
-140.536
11
142.905
21
-140.536
0
LINE
8
BLACK
6
CONTINUOUS
10
142.905
20
-140.536
11
143.096
21
-140.631
0
LINE
8
BLACK
6
CONTINUOUS
10
143.096
20
-140.631
11
143.191
21
-140.727
0
LINE
8
BLACK
6
CONTINUOUS
10
143.191
20
-140.727
11
143.286
21
-140.917
0
LINE
8
BLACK
6
CONTINUOUS
10
143.286
20
-140.917
11
143.382
21
-141.298
0
LINE
8
BLACK
6
CONTINUOUS
10
143.382
20
-141.298
11
143.382
21
-141.774
0
LINE
8
BLACK
6
CONTINUOUS
10
143.382
20
-141.774
11
143.286
21
-142.155
0
LINE
8
BLACK
6
CONTINUOUS
10
143.286
20
-142.155
11
143.191
21
-142.346
0
LINE
8
BLACK
6
CONTINUOUS
10
143.191
20
-142.346
11
143.096
21
-142.441
0
LINE
8
BLACK
6
CONTINUOUS
10
143.096
20
-142.441
11
142.905
21
-142.536
0
LINE
8
BLACK
6
CONTINUOUS
10
142.905
20
-142.536
11
142.715
21
-142.536
0
LINE
8
BLACK
6
CONTINUOUS
10
142.715
20
-142.536
11
142.525
21
-142.441
0
LINE
8
BLACK
6
CONTINUOUS
10
142.525
20
-142.441
11
142.429
21
-142.346
0
LINE
8
BLACK
6
CONTINUOUS
10
142.429
20
-142.346
11
142.334
21
-142.155
0
LINE
8
BLACK
6
CONTINUOUS
10
142.334
20
-142.155
11
142.239
21
-141.774
0
LINE
8
BLACK
6
CONTINUOUS
10
142.239
20
-141.774
11
142.239
21
-141.298
0
LINE
8
BLACK
6
CONTINUOUS
10
142.239
20
-141.298
11
142.334
21
-140.917
0
LINE
8
BLACK
6
CONTINUOUS
10
142.334
20
-140.917
11
142.429
21
-140.727
0
LINE
8
BLACK
6
CONTINUOUS
10
142.429
20
-140.727
11
142.525
21
-140.631
0
LINE
8
BLACK
6
CONTINUOUS
10
142.525
20
-140.631
11
142.715
21
-140.536
0
LINE
8
BLACK
6
CONTINUOUS
10
144.525
20
-141.393
11
144.334
21
-141.298
0
LINE
8
BLACK
6
CONTINUOUS
10
144.334
20
-141.298
11
144.239
21
-141.203
0
LINE
8
BLACK
6
CONTINUOUS
10
144.239
20
-141.203
11
144.144
21
-141.012
0
LINE
8
BLACK
6
CONTINUOUS
10
144.144
20
-141.012
11
144.144
21
-140.917
0
LINE
8
BLACK
6
CONTINUOUS
10
144.144
20
-140.917
11
144.239
21
-140.727
0
LINE
8
BLACK
6
CONTINUOUS
10
144.239
20
-140.727
11
144.334
21
-140.631
0
LINE
8
BLACK
6
CONTINUOUS
10
144.334
20
-140.631
11
144.525
21
-140.536
0
LINE
8
BLACK
6
CONTINUOUS
10
144.525
20
-140.536
11
144.905
21
-140.536
0
LINE
8
BLACK
6
CONTINUOUS
10
144.905
20
-140.536
11
145.096
21
-140.631
0
LINE
8
BLACK
6
CONTINUOUS
10
145.096
20
-140.631
11
145.191
21
-140.727
0
LINE
8
BLACK
6
CONTINUOUS
10
145.191
20
-140.727
11
145.286
21
-140.917
0
LINE
8
BLACK
6
CONTINUOUS
10
145.286
20
-140.917
11
145.286
21
-141.012
0
LINE
8
BLACK
6
CONTINUOUS
10
145.286
20
-141.012
11
145.191
21
-141.203
0
LINE
8
BLACK
6
CONTINUOUS
10
145.191
20
-141.203
11
145.096
21
-141.298
0
LINE
8
BLACK
6
CONTINUOUS
10
145.096
20
-141.298
11
144.905
21
-141.393
0
LINE
8
BLACK
6
CONTINUOUS
10
144.905
20
-141.393
11
144.525
21
-141.393
0
LINE
8
BLACK
6
CONTINUOUS
10
144.525
20
-141.393
11
144.334
21
-141.488
0
LINE
8
BLACK
6
CONTINUOUS
10
144.334
20
-141.488
11
144.239
21
-141.584
0
LINE
8
BLACK
6
CONTINUOUS
10
144.239
20
-141.584
11
144.144
21
-141.774
0
LINE
8
BLACK
6
CONTINUOUS
10
144.144
20
-141.774
11
144.144
21
-142.155
0
LINE
8
BLACK
6
CONTINUOUS
10
144.144
20
-142.155
11
144.239
21
-142.346
0
LINE
8
BLACK
6
CONTINUOUS
10
144.239
20
-142.346
11
144.334
21
-142.441
0
LINE
8
BLACK
6
CONTINUOUS
10
144.334
20
-142.441
11
144.525
21
-142.536
0
LINE
8
BLACK
6
CONTINUOUS
10
144.525
20
-142.536
11
144.905
21
-142.536
0
LINE
8
BLACK
6
CONTINUOUS
10
144.905
20
-142.536
11
145.096
21
-142.441
0
LINE
8
BLACK
6
CONTINUOUS
10
145.096
20
-142.441
11
145.191
21
-142.346
0
LINE
8
BLACK
6
CONTINUOUS
10
145.191
20
-142.346
11
145.286
21
-142.155
0
LINE
8
BLACK
6
CONTINUOUS
10
145.286
20
-142.155
11
145.286
21
-141.774
0
LINE
8
BLACK
6
CONTINUOUS
10
145.286
20
-141.774
11
145.191
21
-141.584
0
LINE
8
BLACK
6
CONTINUOUS
10
145.191
20
-141.584
11
145.096
21
-141.488
0
LINE
8
BLACK
6
CONTINUOUS
10
145.096
20
-141.488
11
144.905
21
-141.393
0
LINE
8
BLACK
6
CONTINUOUS
10
147.667
20
-142.536
11
147.667
21
-140.536
0
LINE
8
BLACK
6
CONTINUOUS
10
148.525
20
-142.536
11
148.525
21
-141.488
0
LINE
8
BLACK
6
CONTINUOUS
10
148.525
20
-141.488
11
148.429
21
-141.298
0
LINE
8
BLACK
6
CONTINUOUS
10
148.429
20
-141.298
11
148.239
21
-141.203
0
LINE
8
BLACK
6
CONTINUOUS
10
148.239
20
-141.203
11
147.953
21
-141.203
0
LINE
8
BLACK
6
CONTINUOUS
10
147.953
20
-141.203
11
147.763
21
-141.298
0
LINE
8
BLACK
6
CONTINUOUS
10
147.763
20
-141.298
11
147.667
21
-141.393
0
LINE
8
BLACK
6
CONTINUOUS
10
149.763
20
-142.536
11
149.572
21
-142.441
0
LINE
8
BLACK
6
CONTINUOUS
10
149.572
20
-142.441
11
149.477
21
-142.346
0
LINE
8
BLACK
6
CONTINUOUS
10
149.477
20
-142.346
11
149.382
21
-142.155
0
LINE
8
BLACK
6
CONTINUOUS
10
149.382
20
-142.155
11
149.382
21
-141.584
0
LINE
8
BLACK
6
CONTINUOUS
10
149.382
20
-141.584
11
149.477
21
-141.393
0
LINE
8
BLACK
6
CONTINUOUS
10
149.477
20
-141.393
11
149.572
21
-141.298
0
LINE
8
BLACK
6
CONTINUOUS
10
149.572
20
-141.298
11
149.763
21
-141.203
0
LINE
8
BLACK
6
CONTINUOUS
10
149.763
20
-141.203
11
150.048
21
-141.203
0
LINE
8
BLACK
6
CONTINUOUS
10
150.048
20
-141.203
11
150.239
21
-141.298
0
LINE
8
BLACK
6
CONTINUOUS
10
150.239
20
-141.298
11
150.334
21
-141.393
0
LINE
8
BLACK
6
CONTINUOUS
10
150.334
20
-141.393
11
150.429
21
-141.584
0
LINE
8
BLACK
6
CONTINUOUS
10
150.429
20
-141.584
11
150.429
21
-142.155
0
LINE
8
BLACK
6
CONTINUOUS
10
150.429
20
-142.155
11
150.334
21
-142.346
0
LINE
8
BLACK
6
CONTINUOUS
10
150.334
20
-142.346
11
150.239
21
-142.441
0
LINE
8
BLACK
6
CONTINUOUS
10
150.239
20
-142.441
11
150.048
21
-142.536
0
LINE
8
BLACK
6
CONTINUOUS
10
150.048
20
-142.536
11
149.763
21
-142.536
0
LINE
8
BLACK
6
CONTINUOUS
10
151.572
20
-142.536
11
151.382
21
-142.441
0
LINE
8
BLACK
6
CONTINUOUS
10
151.382
20
-142.441
11
151.286
21
-142.25
0
LINE
8
BLACK
6
CONTINUOUS
10
151.286
20
-142.25
11
151.286
21
-140.536
0
LINE
8
BLACK
6
CONTINUOUS
10
153.096
20
-142.441
11
152.905
21
-142.536
0
LINE
8
BLACK
6
CONTINUOUS
10
152.905
20
-142.536
11
152.525
21
-142.536
0
LINE
8
BLACK
6
CONTINUOUS
10
152.525
20
-142.536
11
152.334
21
-142.441
0
LINE
8
BLACK
6
CONTINUOUS
10
152.334
20
-142.441
11
152.239
21
-142.25
0
LINE
8
BLACK
6
CONTINUOUS
10
152.239
20
-142.25
11
152.239
21
-141.488
0
LINE
8
BLACK
6
CONTINUOUS
10
152.239
20
-141.488
11
152.334
21
-141.298
0
LINE
8
BLACK
6
CONTINUOUS
10
152.334
20
-141.298
11
152.525
21
-141.203
0
LINE
8
BLACK
6
CONTINUOUS
10
152.525
20
-141.203
11
152.905
21
-141.203
0
LINE
8
BLACK
6
CONTINUOUS
10
152.905
20
-141.203
11
153.096
21
-141.298
0
LINE
8
BLACK
6
CONTINUOUS
10
153.096
20
-141.298
11
153.191
21
-141.488
0
LINE
8
BLACK
6
CONTINUOUS
10
153.191
20
-141.488
11
153.191
21
-141.679
0
LINE
8
BLACK
6
CONTINUOUS
10
153.191
20
-141.679
11
152.239
21
-141.869
0
LINE
8
BLACK
6
CONTINUOUS
10
153.953
20
-142.441
11
154.144
21
-142.536
0
LINE
8
BLACK
6
CONTINUOUS
10
154.144
20
-142.536
11
154.525
21
-142.536
0
LINE
8
BLACK
6
CONTINUOUS
10
154.525
20
-142.536
11
154.715
21
-142.441
0
LINE
8
BLACK
6
CONTINUOUS
10
154.715
20
-142.441
11
154.81
21
-142.25
0
LINE
8
BLACK
6
CONTINUOUS
10
154.81
20
-142.25
11
154.81
21
-142.155
0
LINE
8
BLACK
6
CONTINUOUS
10
154.81
20
-142.155
11
154.715
21
-141.965
0
LINE
8
BLACK
6
CONTINUOUS
10
154.715
20
-141.965
11
154.525
21
-141.869
0
LINE
8
BLACK
6
CONTINUOUS
10
154.525
20
-141.869
11
154.239
21
-141.869
0
LINE
8
BLACK
6
CONTINUOUS
10
154.239
20
-141.869
11
154.048
21
-141.774
0
LINE
8
BLACK
6
CONTINUOUS
10
154.048
20
-141.774
11
153.953
21
-141.584
0
LINE
8
BLACK
6
CONTINUOUS
10
153.953
20
-141.584
11
153.953
21
-141.488
0
LINE
8
BLACK
6
CONTINUOUS
10
153.953
20
-141.488
11
154.048
21
-141.298
0
LINE
8
BLACK
6
CONTINUOUS
10
154.048
20
-141.298
11
154.239
21
-141.203
0
LINE
8
BLACK
6
CONTINUOUS
10
154.239
20
-141.203
11
154.525
21
-141.203
0
LINE
8
BLACK
6
CONTINUOUS
10
154.525
20
-141.203
11
154.715
21
-141.298
0
LINE
8
BLACK
6
CONTINUOUS
10
155.477
20
-143.298
11
155.572
21
-143.203
0
LINE
8
BLACK
6
CONTINUOUS
10
155.572
20
-143.203
11
155.763
21
-142.917
0
LINE
8
BLACK
6
CONTINUOUS
10
155.763
20
-142.917
11
155.858
21
-142.727
0
LINE
8
BLACK
6
CONTINUOUS
10
155.858
20
-142.727
11
155.953
21
-142.441
0
LINE
8
BLACK
6
CONTINUOUS
10
155.953
20
-142.441
11
156.048
21
-141.965
0
LINE
8
BLACK
6
CONTINUOUS
10
156.048
20
-141.965
11
156.048
21
-141.584
0
LINE
8
BLACK
6
CONTINUOUS
10
156.048
20
-141.584
11
155.953
21
-141.107
0
LINE
8
BLACK
6
CONTINUOUS
10
155.953
20
-141.107
11
155.858
21
-140.822
0
LINE
8
BLACK
6
CONTINUOUS
10
155.858
20
-140.822
11
155.763
21
-140.631
0
LINE
8
BLACK
6
CONTINUOUS
10
155.763
20
-140.631
11
155.572
21
-140.346
0
LINE
8
BLACK
6
CONTINUOUS
10
155.572
20
-140.346
11
155.477
21
-140.25
  0
ENDSEC
  0
EOF
