<?xml version="1.0" standalone="no"?>
 <!DOCTYPE svg PUBLIC "-//W3C//DTD SVG 1.1//EN" 
 "http://www.w3.org/Graphics/SVG/1.1/DTD/svg11.dtd"> 
<svg
  xmlns:svg="http://www.w3.org/2000/svg"
  xmlns="http://www.w3.org/2000/svg"
  xmlns:xlink="http://www.w3.org/1999/xlink"
  version="1.1"
  width="29.700220cm" height="21.000720cm" viewBox="0 0 116930 82680">
<title>SVG Picture created as PI4Adapter-NPTH-drl_map.svg date 2022/05/07 15:13:23 </title>
  <desc>Picture generated by PCBNEW </desc>
<g style="fill:#000000; fill-opacity:1.000000;stroke:#000000; stroke-opacity:1.000000;
stroke-linecap:round; stroke-linejoin:round;"
 transform="translate(0 0) scale(1 1)">
</g>
<g style="fill:#000000; fill-opacity:0.0; 
stroke:#000000; stroke-width:0.000000; stroke-opacity:1; 
stroke-linecap:round; stroke-linejoin:round;">
</g>
<g style="fill:#000000; fill-opacity:0.0; 
stroke:#000000; stroke-width:80.974701; stroke-opacity:1; 
stroke-linecap:round; stroke-linejoin:round;">
<path d="M69275 3628
L74377 3628
" />
<path d="M45983 2009
L69275 2009
" />
<path d="M65834.368801 47597.961112 A3484.041777 3484.041777 0.0 0 0 69275.793371 44075.562171" />
<path d="M74377 31443
L69275 31443
" />
<path d="M74377 3628
L74377 31443
" />
<path d="M42554.141961 44185.357388 A3446.948886 3446.948886 0.0 0 0 46085.902453 47597.961965" />
<path d="M42554 44185
L42554 5497
" />
<path d="M65834 47597
L46085 47597
" />
<path d="M69275 2009
L69275 3628
" />
<path d="M45983.900235 2009.204874 A3393.096661 3393.096661 0.0 0 0 42554.142112 5497.495535" />
<path d="M69275 31443
L69275 44075
" />
</g>
<g style="fill:#000000; fill-opacity:0.0; 
stroke:#000000; stroke-width:161.949402; stroke-opacity:1; 
stroke-linecap:round; stroke-linejoin:round;">
</g>
<g style="fill:#000000; fill-opacity:0.0; 
stroke:#000000; stroke-width:78.739799; stroke-opacity:1; 
stroke-linecap:round; stroke-linejoin:round;">
<text x="43299.714407" y="48899.338470"
textLength="5853.015765" font-size="1049.867769" lengthAdjust="spacingAndGlyphs"
text-anchor="start" opacity="0">Drill Map:</text>
<g class="stroked-text"><desc>Drill Map:</desc>
<path d="M43526 48861
L43526 48074
L43714 48074
L43826 48111
L43901 48186
L43939 48261
L43976 48411
L43976 48524
L43939 48674
L43901 48749
L43826 48824
L43714 48861
L43526 48861
" />
<path d="M44313 48861
L44313 48336
" />
<path d="M44313 48486
L44351 48411
L44388 48374
L44463 48336
L44538 48336
" />
<path d="M44801 48861
L44801 48336
" />
<path d="M44801 48074
L44763 48111
L44801 48149
L44838 48111
L44801 48074
L44801 48149
" />
<path d="M45288 48861
L45213 48824
L45176 48749
L45176 48074
" />
<path d="M45701 48861
L45626 48824
L45588 48749
L45588 48074
" />
<path d="M46601 48861
L46601 48074
L46863 48636
L47126 48074
L47126 48861
" />
<path d="M47838 48861
L47838 48449
L47801 48374
L47726 48336
L47576 48336
L47501 48374
" />
<path d="M47838 48824
L47763 48861
L47576 48861
L47501 48824
L47463 48749
L47463 48674
L47501 48599
L47576 48561
L47763 48561
L47838 48524
" />
<path d="M48213 48336
L48213 49124
" />
<path d="M48213 48374
L48288 48336
L48438 48336
L48513 48374
L48550 48411
L48588 48486
L48588 48711
L48550 48786
L48513 48824
L48438 48861
L48288 48861
L48213 48824
" />
<path d="M48925 48786
L48963 48824
L48925 48861
L48888 48824
L48925 48786
L48925 48861
" />
<path d="M48925 48374
L48963 48411
L48925 48449
L48888 48411
L48925 48374
L48925 48449
" />
</g></g> 
</svg>
