<?xml version="1.0" standalone="no"?>
 <!DOCTYPE svg PUBLIC "-//W3C//DTD SVG 1.1//EN" 
 "http://www.w3.org/Graphics/SVG/1.1/DTD/svg11.dtd"> 
<svg
  xmlns:svg="http://www.w3.org/2000/svg"
  xmlns="http://www.w3.org/2000/svg"
  xmlns:xlink="http://www.w3.org/1999/xlink"
  version="1.1"
  width="29.700220cm" height="21.000720cm" viewBox="0 0 116930 82680">
<title>SVG Picture created as PI4Adapter-PTH-drl_map.svg date 2022/07/02 09:32:05 </title>
  <desc>Picture generated by PCBNEW </desc>
<g style="fill:#000000; fill-opacity:1.000000;stroke:#000000; stroke-opacity:1.000000;
stroke-linecap:round; stroke-linejoin:round;"
 transform="translate(0 0) scale(1 1)">
</g>
<g style="fill:#000000; fill-opacity:0.0; 
stroke:#000000; stroke-width:0.000000; stroke-opacity:1; 
stroke-linecap:round; stroke-linejoin:round;">
</g>
<g style="fill:#000000; fill-opacity:0.0; 
stroke:#000000; stroke-width:80.974701; stroke-opacity:1; 
stroke-linecap:round; stroke-linejoin:round;">
<path d="M45821 2009
L74539 2009
" />
<path d="M65672.419399 47597.961112 A3484.041777 3484.041777 0.0 0 0 69113.843969 44075.562171" />
<path d="M74539 33386
L69113 33386
" />
<path d="M74539 2009
L74539 33386
" />
<path d="M42392.192559 44185.357388 A3446.948886 3446.948886 0.0 0 0 45923.953051 47597.961965" />
<path d="M42392 44185
L42392 5497
" />
<path d="M65672 47597
L45923 47597
" />
<path d="M45821.950833 2009.204874 A3393.096661 3393.096661 0.0 0 0 42392.192711 5497.495535" />
<path d="M69113 33386
L69113 44075
" />
</g>
<g style="fill:#000000; fill-opacity:0.0; 
stroke:#000000; stroke-width:161.949402; stroke-opacity:1; 
stroke-linecap:round; stroke-linejoin:round;">
</g>
<g style="fill:#000000; fill-opacity:0.0; 
stroke:#000000; stroke-width:32.389880; stroke-opacity:1; 
stroke-linecap:round; stroke-linejoin:round;">
<path d="M44400 34803
L44724 35127
" />
<path d="M44724 34803
L44400 35127
" />
<path d="M44400 38917
L44724 39241
" />
<path d="M44724 38917
L44400 39241
" />
</g>
<g style="fill:#000000; fill-opacity:0.0; 
stroke:#000000; stroke-width:48.584821; stroke-opacity:1; 
stroke-linecap:round; stroke-linejoin:round;">
<circle cx="58893.055491" cy="42635.103212" r="242.924103" /> 
</g>
<g style="fill:#000000; fill-opacity:0.0; 
stroke:#000000; stroke-width:161.949402; stroke-opacity:1; 
stroke-linecap:round; stroke-linejoin:round;">
<path d="M58731 42270
L58731 42999
" />
<path d="M59055 42270
L59055 42999
" />
<path d="M58731.106089 42999.489367 A161.949402 161.949402 0.0 0 0 59055.004892 42999.489367" />
<path d="M59055.004892 42270.717058 A161.949402 161.949402 0.0 0 0 58731.106089 42270.717058" />
</g>
<g style="fill:#000000; fill-opacity:0.0; 
stroke:#000000; stroke-width:48.584821; stroke-opacity:1; 
stroke-linecap:round; stroke-linejoin:round;">
<circle cx="58893.055491" cy="45710.709407" r="242.924103" /> 
</g>
<g style="fill:#000000; fill-opacity:0.0; 
stroke:#000000; stroke-width:161.949402; stroke-opacity:1; 
stroke-linecap:round; stroke-linejoin:round;">
<path d="M58731 45346
L58731 46075
" />
<path d="M59055 45346
L59055 46075
" />
<path d="M58731.106089 46075.095561 A161.949402 161.949402 0.0 0 0 59055.004892 46075.095561" />
<path d="M59055.004892 45346.323253 A161.949402 161.949402 0.0 0 0 58731.106089 45346.323253" />
</g>
<g style="fill:#000000; fill-opacity:0.0; 
stroke:#000000; stroke-width:48.584821; stroke-opacity:1; 
stroke-linecap:round; stroke-linejoin:round;">
<circle cx="65889.269655" cy="42635.103212" r="242.924103" /> 
</g>
<g style="fill:#000000; fill-opacity:0.0; 
stroke:#000000; stroke-width:161.949402; stroke-opacity:1; 
stroke-linecap:round; stroke-linejoin:round;">
<path d="M65727 42270
L65727 42999
" />
<path d="M66051 42270
L66051 42999
" />
<path d="M65727.320253 42999.489367 A161.949402 161.949402 0.0 0 0 66051.219057 42999.489367" />
<path d="M66051.219057 42270.717058 A161.949402 161.949402 0.0 0 0 65727.320253 42270.717058" />
</g>
<g style="fill:#000000; fill-opacity:0.0; 
stroke:#000000; stroke-width:48.584821; stroke-opacity:1; 
stroke-linecap:round; stroke-linejoin:round;">
<circle cx="65889.269655" cy="45670.483605" r="242.924103" /> 
</g>
<g style="fill:#000000; fill-opacity:0.0; 
stroke:#000000; stroke-width:161.949402; stroke-opacity:1; 
stroke-linecap:round; stroke-linejoin:round;">
<path d="M65727 45306
L65727 46034
" />
<path d="M66051 45306
L66051 46034
" />
<path d="M65727.320253 46034.869759 A161.949402 161.949402 0.0 0 0 66051.219057 46034.869759" />
<path d="M66051.219057 45306.097450 A161.949402 161.949402 0.0 0 0 65727.320253 45306.097450" />
</g>
<g style="fill:#000000; fill-opacity:0.0; 
stroke:#000000; stroke-width:80.974701; stroke-opacity:1; 
stroke-linecap:round; stroke-linejoin:round;">
<path d="M45833 4924
L45833 5734
" />
<path d="M45428 5329
L46238 5329
" />
<path d="M45833 6981
L45833 7790
" />
<path d="M45428 7385
L46238 7385
" />
<path d="M45833 9037
L45833 9847
" />
<path d="M45428 9442
L46238 9442
" />
<path d="M45833 11094
L45833 11904
" />
<path d="M45428 11499
L46238 11499
" />
<path d="M45833 13151
L45833 13961
" />
<path d="M45428 13556
L46238 13556
" />
<path d="M45833 15208
L45833 16017
" />
<path d="M45428 15612
L46238 15612
" />
<path d="M45833 17264
L45833 18074
" />
<path d="M45428 17669
L46238 17669
" />
<path d="M45833 19321
L45833 20131
" />
<path d="M45428 19726
L46238 19726
" />
<path d="M45833 21378
L45833 22188
" />
<path d="M45428 21783
L46238 21783
" />
<path d="M45833 23435
L45833 24244
" />
<path d="M45428 23839
L46238 23839
" />
<path d="M45833 25491
L45833 26301
" />
<path d="M45428 25896
L46238 25896
" />
<path d="M45833 27548
L45833 28358
" />
<path d="M45428 27953
L46238 27953
" />
<path d="M45833 29605
L45833 30415
" />
<path d="M45428 30010
L46238 30010
" />
<path d="M45833 31662
L45833 32471
" />
<path d="M45428 32067
L46238 32067
" />
<path d="M45833 33718
L45833 34528
" />
<path d="M45428 34123
L46238 34123
" />
<path d="M45833 35775
L45833 36585
" />
<path d="M45428 36180
L46238 36180
" />
<path d="M45833 37832
L45833 38642
" />
<path d="M45428 38237
L46238 38237
" />
<path d="M45833 39889
L45833 40698
" />
<path d="M45428 40294
L46238 40294
" />
<path d="M45833 41945
L45833 42755
" />
<path d="M45428 42350
L46238 42350
" />
<path d="M45833 44002
L45833 44812
" />
<path d="M45428 44407
L46238 44407
" />
<path d="M47890 4924
L47890 5734
" />
<path d="M47485 5329
L48295 5329
" />
<path d="M47890 6981
L47890 7790
" />
<path d="M47485 7385
L48295 7385
" />
<path d="M47890 9037
L47890 9847
" />
<path d="M47485 9442
L48295 9442
" />
<path d="M47890 11094
L47890 11904
" />
<path d="M47485 11499
L48295 11499
" />
<path d="M47890 13151
L47890 13961
" />
<path d="M47485 13556
L48295 13556
" />
<path d="M47890 15208
L47890 16017
" />
<path d="M47485 15612
L48295 15612
" />
<path d="M47890 17264
L47890 18074
" />
<path d="M47485 17669
L48295 17669
" />
<path d="M47890 19321
L47890 20131
" />
<path d="M47485 19726
L48295 19726
" />
<path d="M47890 21378
L47890 22188
" />
<path d="M47485 21783
L48295 21783
" />
<path d="M47890 23435
L47890 24244
" />
<path d="M47485 23839
L48295 23839
" />
<path d="M47890 25491
L47890 26301
" />
<path d="M47485 25896
L48295 25896
" />
<path d="M47890 27548
L47890 28358
" />
<path d="M47485 27953
L48295 27953
" />
<path d="M47890 29605
L47890 30415
" />
<path d="M47485 30010
L48295 30010
" />
<path d="M47890 31662
L47890 32471
" />
<path d="M47485 32067
L48295 32067
" />
<path d="M47890 33718
L47890 34528
" />
<path d="M47485 34123
L48295 34123
" />
<path d="M47890 35775
L47890 36585
" />
<path d="M47485 36180
L48295 36180
" />
<path d="M47890 37832
L47890 38642
" />
<path d="M47485 38237
L48295 38237
" />
<path d="M47890 39889
L47890 40698
" />
<path d="M47485 40294
L48295 40294
" />
<path d="M47890 41945
L47890 42755
" />
<path d="M47485 42350
L48295 42350
" />
<path d="M47890 44002
L47890 44812
" />
<path d="M47485 44407
L48295 44407
" />
<path d="M54558 4863
L54558 5673
" />
<path d="M54153 5268
L54963 5268
" />
<path d="M54558 6920
L54558 7730
" />
<path d="M54153 7325
L54963 7325
" />
<path d="M54558 8977
L54558 9786
" />
<path d="M54153 9381
L54963 9381
" />
<path d="M54558 11033
L54558 11843
" />
<path d="M54153 11438
L54963 11438
" />
<path d="M54558 13090
L54558 13900
" />
<path d="M54153 13495
L54963 13495
" />
<path d="M54558 15147
L54558 15957
" />
<path d="M54153 15552
L54963 15552
" />
<path d="M54558 17204
L54558 18013
" />
<path d="M54153 17608
L54963 17608
" />
<path d="M54558 19260
L54558 20070
" />
<path d="M54153 19665
L54963 19665
" />
<path d="M54558 21317
L54558 22127
" />
<path d="M54153 21722
L54963 21722
" />
<path d="M54558 23374
L54558 24184
" />
<path d="M54153 23779
L54963 23779
" />
<path d="M54558 25431
L54558 26240
" />
<path d="M54153 25836
L54963 25836
" />
<path d="M54558 27487
L54558 28297
" />
<path d="M54153 27892
L54963 27892
" />
<path d="M54558 29544
L54558 30354
" />
<path d="M54153 29949
L54963 29949
" />
<path d="M54558 31601
L54558 32411
" />
<path d="M54153 32006
L54963 32006
" />
<path d="M54558 33658
L54558 34467
" />
<path d="M54153 34063
L54963 34063
" />
<path d="M54558 35714
L54558 36524
" />
<path d="M54153 36119
L54963 36119
" />
<path d="M54558 37771
L54558 38581
" />
<path d="M54153 38176
L54963 38176
" />
<path d="M54558 39828
L54558 40638
" />
<path d="M54153 40233
L54963 40233
" />
<path d="M54558 41885
L54558 42694
" />
<path d="M54153 42290
L54963 42290
" />
<path d="M54558 43941
L54558 44751
" />
<path d="M54153 44346
L54963 44346
" />
<path d="M56615 4863
L56615 5673
" />
<path d="M56210 5268
L57020 5268
" />
<path d="M56615 6920
L56615 7730
" />
<path d="M56210 7325
L57020 7325
" />
<path d="M56615 8977
L56615 9786
" />
<path d="M56210 9381
L57020 9381
" />
<path d="M56615 11033
L56615 11843
" />
<path d="M56210 11438
L57020 11438
" />
<path d="M56615 13090
L56615 13900
" />
<path d="M56210 13495
L57020 13495
" />
<path d="M56615 15147
L56615 15957
" />
<path d="M56210 15552
L57020 15552
" />
<path d="M56615 17204
L56615 18013
" />
<path d="M56210 17608
L57020 17608
" />
<path d="M56615 19260
L56615 20070
" />
<path d="M56210 19665
L57020 19665
" />
<path d="M56615 21317
L56615 22127
" />
<path d="M56210 21722
L57020 21722
" />
<path d="M56615 23374
L56615 24184
" />
<path d="M56210 23779
L57020 23779
" />
<path d="M56615 25431
L56615 26240
" />
<path d="M56210 25836
L57020 25836
" />
<path d="M56615 27487
L56615 28297
" />
<path d="M56210 27892
L57020 27892
" />
<path d="M56615 29544
L56615 30354
" />
<path d="M56210 29949
L57020 29949
" />
<path d="M56615 31601
L56615 32411
" />
<path d="M56210 32006
L57020 32006
" />
<path d="M56615 33658
L56615 34467
" />
<path d="M56210 34063
L57020 34063
" />
<path d="M56615 35714
L56615 36524
" />
<path d="M56210 36119
L57020 36119
" />
<path d="M56615 37771
L56615 38581
" />
<path d="M56210 38176
L57020 38176
" />
<path d="M56615 39828
L56615 40638
" />
<path d="M56210 40233
L57020 40233
" />
<path d="M56615 41885
L56615 42694
" />
<path d="M56210 42290
L57020 42290
" />
<path d="M56615 43941
L56615 44751
" />
<path d="M56210 44346
L57020 44346
" />
<path d="M62635 9256
L62635 10066
" />
<path d="M62230 9661
L63040 9661
" />
<path d="M64660 9256
L64660 10066
" />
<path d="M64255 9661
L65065 9661
" />
<path d="M70781 4823
L70781 5632
" />
<path d="M70377 5227
L71186 5227
" />
<path d="M70781 6879
L70781 7689
" />
<path d="M70377 7284
L71186 7284
" />
<path d="M70781 8936
L70781 9746
" />
<path d="M70377 9341
L71186 9341
" />
<path d="M70781 10993
L70781 11803
" />
<path d="M70377 11398
L71186 11398
" />
<path d="M70781 13050
L70781 13859
" />
<path d="M70377 13454
L71186 13454
" />
<path d="M70781 15106
L70781 15916
" />
<path d="M70377 15511
L71186 15511
" />
<path d="M70781 17163
L70781 17973
" />
<path d="M70377 17568
L71186 17568
" />
<path d="M70781 19220
L70781 20030
" />
<path d="M70377 19625
L71186 19625
" />
<path d="M70781 21277
L70781 22086
" />
<path d="M70377 21682
L71186 21682
" />
<path d="M70781 23333
L70781 24143
" />
<path d="M70377 23738
L71186 23738
" />
<path d="M70781 25390
L70781 26200
" />
<path d="M70377 25795
L71186 25795
" />
<path d="M70781 27447
L70781 28257
" />
<path d="M70377 27852
L71186 27852
" />
<path d="M70781 29504
L70781 30313
" />
<path d="M70377 29909
L71186 29909
" />
<path d="M72838 4823
L72838 5632
" />
<path d="M72433 5227
L73243 5227
" />
<path d="M72838 6879
L72838 7689
" />
<path d="M72433 7284
L73243 7284
" />
<path d="M72838 8936
L72838 9746
" />
<path d="M72433 9341
L73243 9341
" />
<path d="M72838 10993
L72838 11803
" />
<path d="M72433 11398
L73243 11398
" />
<path d="M72838 13050
L72838 13859
" />
<path d="M72433 13454
L73243 13454
" />
<path d="M72838 15106
L72838 15916
" />
<path d="M72433 15511
L73243 15511
" />
<path d="M72838 17163
L72838 17973
" />
<path d="M72433 17568
L73243 17568
" />
<path d="M72838 19220
L72838 20030
" />
<path d="M72433 19625
L73243 19625
" />
<path d="M72838 21277
L72838 22086
" />
<path d="M72433 21682
L73243 21682
" />
<path d="M72838 23333
L72838 24143
" />
<path d="M72433 23738
L73243 23738
" />
<path d="M72838 25390
L72838 26200
" />
<path d="M72433 25795
L73243 25795
" />
<path d="M72838 27447
L72838 28257
" />
<path d="M72433 27852
L73243 27852
" />
<path d="M72838 29504
L72838 30313
" />
<path d="M72433 29909
L73243 29909
" />
</g>
<g style="fill:#000000; fill-opacity:0.0; 
stroke:#000000; stroke-width:161.949402; stroke-opacity:1; 
stroke-linecap:round; stroke-linejoin:round;">
</g>
<g style="fill:#000000; fill-opacity:0.0; 
stroke:#000000; stroke-width:78.739799; stroke-opacity:1; 
stroke-linecap:round; stroke-linejoin:round;">
<text x="43137.765005" y="48899.338470"
textLength="5984.810188" font-size="1049.867769" lengthAdjust="spacingAndGlyphs"
text-anchor="start" opacity="0">Drill Map:</text>
<g class="stroked-text"><desc>Drill Map:</desc>
<path d="M43364 48861
L43364 48074
L43552 48074
L43664 48111
L43739 48186
L43777 48261
L43814 48411
L43814 48524
L43777 48674
L43739 48749
L43664 48824
L43552 48861
L43364 48861
" />
<path d="M44152 48861
L44152 48336
" />
<path d="M44152 48486
L44189 48411
L44227 48374
L44301 48336
L44376 48336
" />
<path d="M44639 48861
L44639 48336
" />
<path d="M44639 48074
L44601 48111
L44639 48149
L44676 48111
L44639 48074
L44639 48149
" />
<path d="M45126 48861
L45051 48824
L45014 48749
L45014 48074
" />
<path d="M45539 48861
L45464 48824
L45426 48749
L45426 48074
" />
<path d="M46439 48861
L46439 48074
L46701 48636
L46964 48074
L46964 48861
" />
<path d="M47676 48861
L47676 48449
L47639 48374
L47564 48336
L47414 48336
L47339 48374
" />
<path d="M47676 48824
L47601 48861
L47414 48861
L47339 48824
L47301 48749
L47301 48674
L47339 48599
L47414 48561
L47601 48561
L47676 48524
" />
<path d="M48051 48336
L48051 49124
" />
<path d="M48051 48374
L48126 48336
L48276 48336
L48351 48374
L48388 48411
L48426 48486
L48426 48711
L48388 48786
L48351 48824
L48276 48861
L48126 48861
L48051 48824
" />
<path d="M48763 48786
L48801 48824
L48763 48861
L48726 48824
L48763 48786
L48763 48861
" />
<path d="M48763 48374
L48801 48411
L48763 48449
L48726 48411
L48763 48374
L48763 48449
" />
</g></g>
<g style="fill:#000000; fill-opacity:0.0; 
stroke:#000000; stroke-width:32.389880; stroke-opacity:1; 
stroke-linecap:round; stroke-linejoin:round;">
<path d="M42026 49997
L42350 50321
" />
<path d="M42350 49997
L42026 50321
" />
</g>
<g style="fill:#000000; fill-opacity:0.0; 
stroke:#000000; stroke-width:161.949402; stroke-opacity:1; 
stroke-linecap:round; stroke-linejoin:round;">
</g>
<g style="fill:#000000; fill-opacity:0.0; 
stroke:#000000; stroke-width:78.739799; stroke-opacity:1; 
stroke-linecap:round; stroke-linejoin:round;">
<text x="43137.765005" y="50552.880732"
textLength="18451.435465" font-size="1049.867769" lengthAdjust="spacingAndGlyphs"
text-anchor="start" opacity="0">0.400mm / 0.0157" (2 holes)</text>
<g class="stroked-text"><desc>0.400mm / 0.0157" (2 holes)</desc>
<path d="M43514 49727
L43589 49727
L43664 49765
L43702 49802
L43739 49877
L43777 50027
L43777 50215
L43739 50365
L43702 50440
L43664 50477
L43589 50515
L43514 50515
L43439 50477
L43402 50440
L43364 50365
L43327 50215
L43327 50027
L43364 49877
L43402 49802
L43439 49765
L43514 49727
" />
<path d="M44114 50440
L44152 50477
L44114 50515
L44077 50477
L44114 50440
L44114 50515
" />
<path d="M44826 49990
L44826 50515
" />
<path d="M44639 49690
L44451 50252
L44939 50252
" />
<path d="M45389 49727
L45464 49727
L45539 49765
L45576 49802
L45614 49877
L45651 50027
L45651 50215
L45614 50365
L45576 50440
L45539 50477
L45464 50515
L45389 50515
L45314 50477
L45276 50440
L45239 50365
L45201 50215
L45201 50027
L45239 49877
L45276 49802
L45314 49765
L45389 49727
" />
<path d="M46139 49727
L46214 49727
L46289 49765
L46326 49802
L46364 49877
L46401 50027
L46401 50215
L46364 50365
L46326 50440
L46289 50477
L46214 50515
L46139 50515
L46064 50477
L46026 50440
L45989 50365
L45951 50215
L45951 50027
L45989 49877
L46026 49802
L46064 49765
L46139 49727
" />
<path d="M46739 50515
L46739 49990
" />
<path d="M46739 50065
L46776 50027
L46851 49990
L46964 49990
L47039 50027
L47076 50102
L47076 50515
" />
<path d="M47076 50102
L47114 50027
L47189 49990
L47301 49990
L47376 50027
L47414 50102
L47414 50515
" />
<path d="M47789 50515
L47789 49990
" />
<path d="M47789 50065
L47826 50027
L47901 49990
L48014 49990
L48089 50027
L48126 50102
L48126 50515
" />
<path d="M48126 50102
L48164 50027
L48238 49990
L48351 49990
L48426 50027
L48463 50102
L48463 50515
" />
<path d="M50001 49690
L49326 50702
" />
<path d="M51013 49727
L51088 49727
L51163 49765
L51201 49802
L51238 49877
L51276 50027
L51276 50215
L51238 50365
L51201 50440
L51163 50477
L51088 50515
L51013 50515
L50938 50477
L50901 50440
L50863 50365
L50826 50215
L50826 50027
L50863 49877
L50901 49802
L50938 49765
L51013 49727
" />
<path d="M51613 50440
L51651 50477
L51613 50515
L51576 50477
L51613 50440
L51613 50515
" />
<path d="M52138 49727
L52213 49727
L52288 49765
L52325 49802
L52363 49877
L52400 50027
L52400 50215
L52363 50365
L52325 50440
L52288 50477
L52213 50515
L52138 50515
L52063 50477
L52026 50440
L51988 50365
L51951 50215
L51951 50027
L51988 49877
L52026 49802
L52063 49765
L52138 49727
" />
<path d="M53150 50515
L52700 50515
" />
<path d="M52925 50515
L52925 49727
L52850 49840
L52775 49915
L52700 49952
" />
<path d="M53863 49727
L53488 49727
L53450 50102
L53488 50065
L53563 50027
L53750 50027
L53825 50065
L53863 50102
L53900 50177
L53900 50365
L53863 50440
L53825 50477
L53750 50515
L53563 50515
L53488 50477
L53450 50440
" />
<path d="M54163 49727
L54688 49727
L54350 50515
" />
<path d="M54950 49727
L54950 49877
" />
<path d="M55250 49727
L55250 49877
" />
<path d="M56412 50815
L56375 50777
L56300 50665
L56262 50590
L56225 50477
L56188 50290
L56188 50140
L56225 49952
L56262 49840
L56300 49765
L56375 49652
L56412 49615
" />
<path d="M56675 49802
L56712 49765
L56787 49727
L56975 49727
L57050 49765
L57087 49802
L57125 49877
L57125 49952
L57087 50065
L56637 50515
L57125 50515
" />
<path d="M58062 50515
L58062 49727
" />
<path d="M58400 50515
L58400 50102
L58362 50027
L58287 49990
L58175 49990
L58100 50027
L58062 50065
" />
<path d="M58887 50515
L58812 50477
L58775 50440
L58737 50365
L58737 50140
L58775 50065
L58812 50027
L58887 49990
L59000 49990
L59075 50027
L59112 50065
L59150 50140
L59150 50365
L59112 50440
L59075 50477
L59000 50515
L58887 50515
" />
<path d="M59600 50515
L59525 50477
L59487 50402
L59487 49727
" />
<path d="M60199 50477
L60125 50515
L59975 50515
L59900 50477
L59862 50402
L59862 50102
L59900 50027
L59975 49990
L60125 49990
L60199 50027
L60237 50102
L60237 50177
L59862 50252
" />
<path d="M60537 50477
L60612 50515
L60762 50515
L60837 50477
L60874 50402
L60874 50365
L60837 50290
L60762 50252
L60649 50252
L60574 50215
L60537 50140
L60537 50102
L60574 50027
L60649 49990
L60762 49990
L60837 50027
" />
<path d="M61137 50815
L61174 50777
L61249 50665
L61287 50590
L61324 50477
L61362 50290
L61362 50140
L61324 49952
L61287 49840
L61249 49765
L61174 49652
L61137 49615
" />
</g></g>
<g style="fill:#000000; fill-opacity:0.0; 
stroke:#000000; stroke-width:48.584821; stroke-opacity:1; 
stroke-linecap:round; stroke-linejoin:round;">
<circle cx="42107.439671" cy="51198.549514" r="242.924103" /> 
</g>
<g style="fill:#000000; fill-opacity:0.0; 
stroke:#000000; stroke-width:161.949402; stroke-opacity:1; 
stroke-linecap:round; stroke-linejoin:round;">
</g>
<g style="fill:#000000; fill-opacity:0.0; 
stroke:#000000; stroke-width:78.739799; stroke-opacity:1; 
stroke-linecap:round; stroke-linejoin:round;">
<text x="43137.765005" y="51592.250130"
textLength="24825.635986" font-size="1049.867769" lengthAdjust="spacingAndGlyphs"
text-anchor="start" opacity="0">0.600mm / 0.0236" (0 holes + 4 slots)</text>
<g class="stroked-text"><desc>0.600mm / 0.0236" (0 holes + 4 slots)</desc>
<path d="M43514 50767
L43589 50767
L43664 50804
L43702 50842
L43739 50917
L43777 51067
L43777 51254
L43739 51404
L43702 51479
L43664 51517
L43589 51554
L43514 51554
L43439 51517
L43402 51479
L43364 51404
L43327 51254
L43327 51067
L43364 50917
L43402 50842
L43439 50804
L43514 50767
" />
<path d="M44114 51479
L44152 51517
L44114 51554
L44077 51517
L44114 51479
L44114 51554
" />
<path d="M44826 50767
L44676 50767
L44601 50804
L44564 50842
L44489 50954
L44451 51104
L44451 51404
L44489 51479
L44526 51517
L44601 51554
L44751 51554
L44826 51517
L44864 51479
L44901 51404
L44901 51217
L44864 51142
L44826 51104
L44751 51067
L44601 51067
L44526 51104
L44489 51142
L44451 51217
" />
<path d="M45389 50767
L45464 50767
L45539 50804
L45576 50842
L45614 50917
L45651 51067
L45651 51254
L45614 51404
L45576 51479
L45539 51517
L45464 51554
L45389 51554
L45314 51517
L45276 51479
L45239 51404
L45201 51254
L45201 51067
L45239 50917
L45276 50842
L45314 50804
L45389 50767
" />
<path d="M46139 50767
L46214 50767
L46289 50804
L46326 50842
L46364 50917
L46401 51067
L46401 51254
L46364 51404
L46326 51479
L46289 51517
L46214 51554
L46139 51554
L46064 51517
L46026 51479
L45989 51404
L45951 51254
L45951 51067
L45989 50917
L46026 50842
L46064 50804
L46139 50767
" />
<path d="M46739 51554
L46739 51029
" />
<path d="M46739 51104
L46776 51067
L46851 51029
L46964 51029
L47039 51067
L47076 51142
L47076 51554
" />
<path d="M47076 51142
L47114 51067
L47189 51029
L47301 51029
L47376 51067
L47414 51142
L47414 51554
" />
<path d="M47789 51554
L47789 51029
" />
<path d="M47789 51104
L47826 51067
L47901 51029
L48014 51029
L48089 51067
L48126 51142
L48126 51554
" />
<path d="M48126 51142
L48164 51067
L48238 51029
L48351 51029
L48426 51067
L48463 51142
L48463 51554
" />
<path d="M50001 50729
L49326 51742
" />
<path d="M51013 50767
L51088 50767
L51163 50804
L51201 50842
L51238 50917
L51276 51067
L51276 51254
L51238 51404
L51201 51479
L51163 51517
L51088 51554
L51013 51554
L50938 51517
L50901 51479
L50863 51404
L50826 51254
L50826 51067
L50863 50917
L50901 50842
L50938 50804
L51013 50767
" />
<path d="M51613 51479
L51651 51517
L51613 51554
L51576 51517
L51613 51479
L51613 51554
" />
<path d="M52138 50767
L52213 50767
L52288 50804
L52325 50842
L52363 50917
L52400 51067
L52400 51254
L52363 51404
L52325 51479
L52288 51517
L52213 51554
L52138 51554
L52063 51517
L52026 51479
L51988 51404
L51951 51254
L51951 51067
L51988 50917
L52026 50842
L52063 50804
L52138 50767
" />
<path d="M52700 50842
L52738 50804
L52813 50767
L53000 50767
L53075 50804
L53113 50842
L53150 50917
L53150 50992
L53113 51104
L52663 51554
L53150 51554
" />
<path d="M53413 50767
L53900 50767
L53638 51067
L53750 51067
L53825 51104
L53863 51142
L53900 51217
L53900 51404
L53863 51479
L53825 51517
L53750 51554
L53525 51554
L53450 51517
L53413 51479
" />
<path d="M54575 50767
L54425 50767
L54350 50804
L54313 50842
L54238 50954
L54200 51104
L54200 51404
L54238 51479
L54275 51517
L54350 51554
L54500 51554
L54575 51517
L54613 51479
L54650 51404
L54650 51217
L54613 51142
L54575 51104
L54500 51067
L54350 51067
L54275 51104
L54238 51142
L54200 51217
" />
<path d="M54950 50767
L54950 50917
" />
<path d="M55250 50767
L55250 50917
" />
<path d="M56412 51854
L56375 51817
L56300 51704
L56262 51629
L56225 51517
L56188 51329
L56188 51179
L56225 50992
L56262 50879
L56300 50804
L56375 50692
L56412 50654
" />
<path d="M56862 50767
L56937 50767
L57012 50804
L57050 50842
L57087 50917
L57125 51067
L57125 51254
L57087 51404
L57050 51479
L57012 51517
L56937 51554
L56862 51554
L56787 51517
L56750 51479
L56712 51404
L56675 51254
L56675 51067
L56712 50917
L56750 50842
L56787 50804
L56862 50767
" />
<path d="M58062 51554
L58062 50767
" />
<path d="M58400 51554
L58400 51142
L58362 51067
L58287 51029
L58175 51029
L58100 51067
L58062 51104
" />
<path d="M58887 51554
L58812 51517
L58775 51479
L58737 51404
L58737 51179
L58775 51104
L58812 51067
L58887 51029
L59000 51029
L59075 51067
L59112 51104
L59150 51179
L59150 51404
L59112 51479
L59075 51517
L59000 51554
L58887 51554
" />
<path d="M59600 51554
L59525 51517
L59487 51442
L59487 50767
" />
<path d="M60199 51517
L60125 51554
L59975 51554
L59900 51517
L59862 51442
L59862 51142
L59900 51067
L59975 51029
L60125 51029
L60199 51067
L60237 51142
L60237 51217
L59862 51292
" />
<path d="M60537 51517
L60612 51554
L60762 51554
L60837 51517
L60874 51442
L60874 51404
L60837 51329
L60762 51292
L60649 51292
L60574 51254
L60537 51179
L60537 51142
L60574 51067
L60649 51029
L60762 51029
L60837 51067
" />
<path d="M61812 51254
L62412 51254
" />
<path d="M62112 51554
L62112 50954
" />
<path d="M63724 51029
L63724 51554
" />
<path d="M63537 50729
L63349 51292
L63837 51292
" />
<path d="M64699 51517
L64774 51554
L64924 51554
L64999 51517
L65036 51442
L65036 51404
L64999 51329
L64924 51292
L64811 51292
L64736 51254
L64699 51179
L64699 51142
L64736 51067
L64811 51029
L64924 51029
L64999 51067
" />
<path d="M65486 51554
L65411 51517
L65374 51442
L65374 50767
" />
<path d="M65899 51554
L65824 51517
L65786 51479
L65749 51404
L65749 51179
L65786 51104
L65824 51067
L65899 51029
L66011 51029
L66086 51067
L66124 51104
L66161 51179
L66161 51404
L66124 51479
L66086 51517
L66011 51554
L65899 51554
" />
<path d="M66386 51029
L66686 51029
" />
<path d="M66499 50767
L66499 51442
L66536 51517
L66611 51554
L66686 51554
" />
<path d="M66911 51517
L66986 51554
L67136 51554
L67211 51517
L67249 51442
L67249 51404
L67211 51329
L67136 51292
L67024 51292
L66949 51254
L66911 51179
L66911 51142
L66949 51067
L67024 51029
L67136 51029
L67211 51067
" />
<path d="M67511 51854
L67549 51817
L67624 51704
L67661 51629
L67699 51517
L67736 51329
L67736 51179
L67699 50992
L67661 50879
L67624 50804
L67549 50692
L67511 50654
" />
</g><path d="M41956 51844
L41956 52631
" />
<path d="M41562 52237
L42350 52237
" />
</g>
<g style="fill:#000000; fill-opacity:0.0; 
stroke:#000000; stroke-width:161.949402; stroke-opacity:1; 
stroke-linecap:round; stroke-linejoin:round;">
</g>
<g style="fill:#000000; fill-opacity:0.0; 
stroke:#000000; stroke-width:78.739799; stroke-opacity:1; 
stroke-linecap:round; stroke-linejoin:round;">
<text x="43137.765005" y="52631.619529"
textLength="19951.247257" font-size="1049.867769" lengthAdjust="spacingAndGlyphs"
text-anchor="start" opacity="0">1.000mm / 0.0394" (108 holes)</text>
<g class="stroked-text"><desc>1.000mm / 0.0394" (108 holes)</desc>
<path d="M43777 52594
L43327 52594
" />
<path d="M43552 52594
L43552 51806
L43477 51919
L43402 51994
L43327 52031
" />
<path d="M44114 52519
L44152 52556
L44114 52594
L44077 52556
L44114 52519
L44114 52594
" />
<path d="M44639 51806
L44714 51806
L44789 51844
L44826 51881
L44864 51956
L44901 52106
L44901 52294
L44864 52444
L44826 52519
L44789 52556
L44714 52594
L44639 52594
L44564 52556
L44526 52519
L44489 52444
L44451 52294
L44451 52106
L44489 51956
L44526 51881
L44564 51844
L44639 51806
" />
<path d="M45389 51806
L45464 51806
L45539 51844
L45576 51881
L45614 51956
L45651 52106
L45651 52294
L45614 52444
L45576 52519
L45539 52556
L45464 52594
L45389 52594
L45314 52556
L45276 52519
L45239 52444
L45201 52294
L45201 52106
L45239 51956
L45276 51881
L45314 51844
L45389 51806
" />
<path d="M46139 51806
L46214 51806
L46289 51844
L46326 51881
L46364 51956
L46401 52106
L46401 52294
L46364 52444
L46326 52519
L46289 52556
L46214 52594
L46139 52594
L46064 52556
L46026 52519
L45989 52444
L45951 52294
L45951 52106
L45989 51956
L46026 51881
L46064 51844
L46139 51806
" />
<path d="M46739 52594
L46739 52069
" />
<path d="M46739 52144
L46776 52106
L46851 52069
L46964 52069
L47039 52106
L47076 52181
L47076 52594
" />
<path d="M47076 52181
L47114 52106
L47189 52069
L47301 52069
L47376 52106
L47414 52181
L47414 52594
" />
<path d="M47789 52594
L47789 52069
" />
<path d="M47789 52144
L47826 52106
L47901 52069
L48014 52069
L48089 52106
L48126 52181
L48126 52594
" />
<path d="M48126 52181
L48164 52106
L48238 52069
L48351 52069
L48426 52106
L48463 52181
L48463 52594
" />
<path d="M50001 51769
L49326 52781
" />
<path d="M51013 51806
L51088 51806
L51163 51844
L51201 51881
L51238 51956
L51276 52106
L51276 52294
L51238 52444
L51201 52519
L51163 52556
L51088 52594
L51013 52594
L50938 52556
L50901 52519
L50863 52444
L50826 52294
L50826 52106
L50863 51956
L50901 51881
L50938 51844
L51013 51806
" />
<path d="M51613 52519
L51651 52556
L51613 52594
L51576 52556
L51613 52519
L51613 52594
" />
<path d="M52138 51806
L52213 51806
L52288 51844
L52325 51881
L52363 51956
L52400 52106
L52400 52294
L52363 52444
L52325 52519
L52288 52556
L52213 52594
L52138 52594
L52063 52556
L52026 52519
L51988 52444
L51951 52294
L51951 52106
L51988 51956
L52026 51881
L52063 51844
L52138 51806
" />
<path d="M52663 51806
L53150 51806
L52888 52106
L53000 52106
L53075 52144
L53113 52181
L53150 52256
L53150 52444
L53113 52519
L53075 52556
L53000 52594
L52775 52594
L52700 52556
L52663 52519
" />
<path d="M53525 52594
L53675 52594
L53750 52556
L53788 52519
L53863 52406
L53900 52256
L53900 51956
L53863 51881
L53825 51844
L53750 51806
L53600 51806
L53525 51844
L53488 51881
L53450 51956
L53450 52144
L53488 52219
L53525 52256
L53600 52294
L53750 52294
L53825 52256
L53863 52219
L53900 52144
" />
<path d="M54575 52069
L54575 52594
" />
<path d="M54388 51769
L54200 52331
L54688 52331
" />
<path d="M54950 51806
L54950 51956
" />
<path d="M55250 51806
L55250 51956
" />
<path d="M56412 52894
L56375 52856
L56300 52744
L56262 52669
L56225 52556
L56188 52369
L56188 52219
L56225 52031
L56262 51919
L56300 51844
L56375 51731
L56412 51694
" />
<path d="M57125 52594
L56675 52594
" />
<path d="M56900 52594
L56900 51806
L56825 51919
L56750 51994
L56675 52031
" />
<path d="M57612 51806
L57687 51806
L57762 51844
L57800 51881
L57837 51956
L57875 52106
L57875 52294
L57837 52444
L57800 52519
L57762 52556
L57687 52594
L57612 52594
L57537 52556
L57500 52519
L57462 52444
L57425 52294
L57425 52106
L57462 51956
L57500 51881
L57537 51844
L57612 51806
" />
<path d="M58325 52144
L58250 52106
L58212 52069
L58175 51994
L58175 51956
L58212 51881
L58250 51844
L58325 51806
L58475 51806
L58550 51844
L58587 51881
L58625 51956
L58625 51994
L58587 52069
L58550 52106
L58475 52144
L58325 52144
L58250 52181
L58212 52219
L58175 52294
L58175 52444
L58212 52519
L58250 52556
L58325 52594
L58475 52594
L58550 52556
L58587 52519
L58625 52444
L58625 52294
L58587 52219
L58550 52181
L58475 52144
" />
<path d="M59562 52594
L59562 51806
" />
<path d="M59900 52594
L59900 52181
L59862 52106
L59787 52069
L59675 52069
L59600 52106
L59562 52144
" />
<path d="M60387 52594
L60312 52556
L60274 52519
L60237 52444
L60237 52219
L60274 52144
L60312 52106
L60387 52069
L60499 52069
L60574 52106
L60612 52144
L60649 52219
L60649 52444
L60612 52519
L60574 52556
L60499 52594
L60387 52594
" />
<path d="M61099 52594
L61024 52556
L60987 52481
L60987 51806
" />
<path d="M61699 52556
L61624 52594
L61474 52594
L61399 52556
L61362 52481
L61362 52181
L61399 52106
L61474 52069
L61624 52069
L61699 52106
L61737 52181
L61737 52256
L61362 52331
" />
<path d="M62037 52556
L62112 52594
L62262 52594
L62337 52556
L62374 52481
L62374 52444
L62337 52369
L62262 52331
L62149 52331
L62074 52294
L62037 52219
L62037 52181
L62074 52106
L62149 52069
L62262 52069
L62337 52106
" />
<path d="M62637 52894
L62674 52856
L62749 52744
L62787 52669
L62824 52556
L62862 52369
L62862 52219
L62824 52031
L62787 51919
L62749 51844
L62674 51731
L62637 51694
" />
</g></g> 
</svg>
